<?xml version="1.0" encoding="utf-8" standalone="no"?>
<!DOCTYPE svg PUBLIC "-//W3C//DTD SVG 1.1//EN"
  "http://www.w3.org/Graphics/SVG/1.1/DTD/svg11.dtd">
<svg height="345.6pt" version="1.1" viewBox="0 0 460.8 345.6" width="460.8pt" xmlns="http://www.w3.org/2000/svg" xmlns:xlink="http://www.w3.org/1999/xlink">
 <metadata>
  <rdf:RDF xmlns:cc="http://creativecommons.org/ns#" xmlns:dc="http://purl.org/dc/elements/1.1/" xmlns:rdf="http://www.w3.org/1999/02/22-rdf-syntax-ns#">
   <cc:Work>
    <dc:type rdf:resource="http://purl.org/dc/dcmitype/StillImage"/>
    <dc:date>2021-06-14T12:33:46.650246</dc:date>
    <dc:format>image/svg+xml</dc:format>
    <dc:creator>
     <cc:Agent>
      <dc:title>Matplotlib v3.4.2, https://matplotlib.org/</dc:title>
     </cc:Agent>
    </dc:creator>
   </cc:Work>
  </rdf:RDF>
 </metadata>
 <defs>
  <style type="text/css">*{stroke-linecap:butt;stroke-linejoin:round;}</style>
 </defs>
 <g id="figure_1">
  <g id="patch_1">
   <path d="M 0 345.6 
L 460.8 345.6 
L 460.8 0 
L 0 0 
z
" style="fill:#ffffff;"/>
  </g>
  <g id="axes_1">
   <g id="patch_2">
    <path d="M 57.6 298.944 
L 338.688 298.944 
L 338.688 3.456 
L 57.6 3.456 
z
" style="fill:#ffffff;"/>
   </g>
   <g id="matplotlib.axis_1">
    <g id="xtick_1">
     <g id="line2d_1">
      <path clip-path="url(#pca33c1c939)" d="M 57.6 298.944 
L 57.6 3.456 
" style="fill:none;stroke:#b0b0b0;stroke-linecap:square;stroke-width:0.8;"/>
     </g>
     <g id="line2d_2">
      <defs>
       <path d="M 0 0 
L 0 3.5 
" id="m5be4317043" style="stroke:#000000;stroke-width:0.8;"/>
      </defs>
      <g>
       <use style="stroke:#000000;stroke-width:0.8;" x="57.6" xlink:href="#m5be4317043" y="298.944"/>
      </g>
     </g>
     <g id="text_1">
      <!-- 0 -->
      <g transform="translate(51.2375 321.140875)scale(0.2 -0.2)">
       <defs>
        <path d="M 2034 4250 
Q 1547 4250 1301 3770 
Q 1056 3291 1056 2328 
Q 1056 1369 1301 889 
Q 1547 409 2034 409 
Q 2525 409 2770 889 
Q 3016 1369 3016 2328 
Q 3016 3291 2770 3770 
Q 2525 4250 2034 4250 
z
M 2034 4750 
Q 2819 4750 3233 4129 
Q 3647 3509 3647 2328 
Q 3647 1150 3233 529 
Q 2819 -91 2034 -91 
Q 1250 -91 836 529 
Q 422 1150 422 2328 
Q 422 3509 836 4129 
Q 1250 4750 2034 4750 
z
" id="DejaVuSans-30" transform="scale(0.015625)"/>
       </defs>
       <use xlink:href="#DejaVuSans-30"/>
      </g>
     </g>
    </g>
    <g id="xtick_2">
     <g id="line2d_3">
      <path clip-path="url(#pca33c1c939)" d="M 137.910857 298.944 
L 137.910857 3.456 
" style="fill:none;stroke:#b0b0b0;stroke-linecap:square;stroke-width:0.8;"/>
     </g>
     <g id="line2d_4">
      <g>
       <use style="stroke:#000000;stroke-width:0.8;" x="137.910857" xlink:href="#m5be4317043" y="298.944"/>
      </g>
     </g>
     <g id="text_2">
      <!-- 2 -->
      <g transform="translate(131.548357 321.140875)scale(0.2 -0.2)">
       <defs>
        <path d="M 1228 531 
L 3431 531 
L 3431 0 
L 469 0 
L 469 531 
Q 828 903 1448 1529 
Q 2069 2156 2228 2338 
Q 2531 2678 2651 2914 
Q 2772 3150 2772 3378 
Q 2772 3750 2511 3984 
Q 2250 4219 1831 4219 
Q 1534 4219 1204 4116 
Q 875 4013 500 3803 
L 500 4441 
Q 881 4594 1212 4672 
Q 1544 4750 1819 4750 
Q 2544 4750 2975 4387 
Q 3406 4025 3406 3419 
Q 3406 3131 3298 2873 
Q 3191 2616 2906 2266 
Q 2828 2175 2409 1742 
Q 1991 1309 1228 531 
z
" id="DejaVuSans-32" transform="scale(0.015625)"/>
       </defs>
       <use xlink:href="#DejaVuSans-32"/>
      </g>
     </g>
    </g>
    <g id="xtick_3">
     <g id="line2d_5">
      <path clip-path="url(#pca33c1c939)" d="M 218.221714 298.944 
L 218.221714 3.456 
" style="fill:none;stroke:#b0b0b0;stroke-linecap:square;stroke-width:0.8;"/>
     </g>
     <g id="line2d_6">
      <g>
       <use style="stroke:#000000;stroke-width:0.8;" x="218.221714" xlink:href="#m5be4317043" y="298.944"/>
      </g>
     </g>
     <g id="text_3">
      <!-- 4 -->
      <g transform="translate(211.859214 321.140875)scale(0.2 -0.2)">
       <defs>
        <path d="M 2419 4116 
L 825 1625 
L 2419 1625 
L 2419 4116 
z
M 2253 4666 
L 3047 4666 
L 3047 1625 
L 3713 1625 
L 3713 1100 
L 3047 1100 
L 3047 0 
L 2419 0 
L 2419 1100 
L 313 1100 
L 313 1709 
L 2253 4666 
z
" id="DejaVuSans-34" transform="scale(0.015625)"/>
       </defs>
       <use xlink:href="#DejaVuSans-34"/>
      </g>
     </g>
    </g>
    <g id="xtick_4">
     <g id="line2d_7">
      <path clip-path="url(#pca33c1c939)" d="M 298.532571 298.944 
L 298.532571 3.456 
" style="fill:none;stroke:#b0b0b0;stroke-linecap:square;stroke-width:0.8;"/>
     </g>
     <g id="line2d_8">
      <g>
       <use style="stroke:#000000;stroke-width:0.8;" x="298.532571" xlink:href="#m5be4317043" y="298.944"/>
      </g>
     </g>
     <g id="text_4">
      <!-- 6 -->
      <g transform="translate(292.170071 321.140875)scale(0.2 -0.2)">
       <defs>
        <path d="M 2113 2584 
Q 1688 2584 1439 2293 
Q 1191 2003 1191 1497 
Q 1191 994 1439 701 
Q 1688 409 2113 409 
Q 2538 409 2786 701 
Q 3034 994 3034 1497 
Q 3034 2003 2786 2293 
Q 2538 2584 2113 2584 
z
M 3366 4563 
L 3366 3988 
Q 3128 4100 2886 4159 
Q 2644 4219 2406 4219 
Q 1781 4219 1451 3797 
Q 1122 3375 1075 2522 
Q 1259 2794 1537 2939 
Q 1816 3084 2150 3084 
Q 2853 3084 3261 2657 
Q 3669 2231 3669 1497 
Q 3669 778 3244 343 
Q 2819 -91 2113 -91 
Q 1303 -91 875 529 
Q 447 1150 447 2328 
Q 447 3434 972 4092 
Q 1497 4750 2381 4750 
Q 2619 4750 2861 4703 
Q 3103 4656 3366 4563 
z
" id="DejaVuSans-36" transform="scale(0.015625)"/>
       </defs>
       <use xlink:href="#DejaVuSans-36"/>
      </g>
     </g>
    </g>
    <g id="xtick_5">
     <g id="line2d_9">
      <path clip-path="url(#pca33c1c939)" d="M 97.755429 298.944 
L 97.755429 3.456 
" style="fill:none;stroke:#b0b0b0;stroke-linecap:square;stroke-width:0.8;"/>
     </g>
     <g id="line2d_10">
      <defs>
       <path d="M 0 0 
L 0 2 
" id="m05ceb6e110" style="stroke:#000000;stroke-width:0.6;"/>
      </defs>
      <g>
       <use style="stroke:#000000;stroke-width:0.6;" x="97.755429" xlink:href="#m05ceb6e110" y="298.944"/>
      </g>
     </g>
    </g>
    <g id="xtick_6">
     <g id="line2d_11">
      <path clip-path="url(#pca33c1c939)" d="M 178.066286 298.944 
L 178.066286 3.456 
" style="fill:none;stroke:#b0b0b0;stroke-linecap:square;stroke-width:0.8;"/>
     </g>
     <g id="line2d_12">
      <g>
       <use style="stroke:#000000;stroke-width:0.6;" x="178.066286" xlink:href="#m05ceb6e110" y="298.944"/>
      </g>
     </g>
    </g>
    <g id="xtick_7">
     <g id="line2d_13">
      <path clip-path="url(#pca33c1c939)" d="M 258.377143 298.944 
L 258.377143 3.456 
" style="fill:none;stroke:#b0b0b0;stroke-linecap:square;stroke-width:0.8;"/>
     </g>
     <g id="line2d_14">
      <g>
       <use style="stroke:#000000;stroke-width:0.6;" x="258.377143" xlink:href="#m05ceb6e110" y="298.944"/>
      </g>
     </g>
    </g>
    <g id="xtick_8">
     <g id="line2d_15">
      <path clip-path="url(#pca33c1c939)" d="M 338.688 298.944 
L 338.688 3.456 
" style="fill:none;stroke:#b0b0b0;stroke-linecap:square;stroke-width:0.8;"/>
     </g>
     <g id="line2d_16">
      <g>
       <use style="stroke:#000000;stroke-width:0.6;" x="338.688" xlink:href="#m05ceb6e110" y="298.944"/>
      </g>
     </g>
    </g>
    <g id="text_5">
     <!-- log10(# f-evals / dimension) -->
     <g transform="translate(77.764078 342.217594)scale(0.17 -0.17)">
      <defs>
       <path d="M 603 4863 
L 1178 4863 
L 1178 0 
L 603 0 
L 603 4863 
z
" id="DejaVuSans-6c" transform="scale(0.015625)"/>
       <path d="M 1959 3097 
Q 1497 3097 1228 2736 
Q 959 2375 959 1747 
Q 959 1119 1226 758 
Q 1494 397 1959 397 
Q 2419 397 2687 759 
Q 2956 1122 2956 1747 
Q 2956 2369 2687 2733 
Q 2419 3097 1959 3097 
z
M 1959 3584 
Q 2709 3584 3137 3096 
Q 3566 2609 3566 1747 
Q 3566 888 3137 398 
Q 2709 -91 1959 -91 
Q 1206 -91 779 398 
Q 353 888 353 1747 
Q 353 2609 779 3096 
Q 1206 3584 1959 3584 
z
" id="DejaVuSans-6f" transform="scale(0.015625)"/>
       <path d="M 2906 1791 
Q 2906 2416 2648 2759 
Q 2391 3103 1925 3103 
Q 1463 3103 1205 2759 
Q 947 2416 947 1791 
Q 947 1169 1205 825 
Q 1463 481 1925 481 
Q 2391 481 2648 825 
Q 2906 1169 2906 1791 
z
M 3481 434 
Q 3481 -459 3084 -895 
Q 2688 -1331 1869 -1331 
Q 1566 -1331 1297 -1286 
Q 1028 -1241 775 -1147 
L 775 -588 
Q 1028 -725 1275 -790 
Q 1522 -856 1778 -856 
Q 2344 -856 2625 -561 
Q 2906 -266 2906 331 
L 2906 616 
Q 2728 306 2450 153 
Q 2172 0 1784 0 
Q 1141 0 747 490 
Q 353 981 353 1791 
Q 353 2603 747 3093 
Q 1141 3584 1784 3584 
Q 2172 3584 2450 3431 
Q 2728 3278 2906 2969 
L 2906 3500 
L 3481 3500 
L 3481 434 
z
" id="DejaVuSans-67" transform="scale(0.015625)"/>
       <path d="M 794 531 
L 1825 531 
L 1825 4091 
L 703 3866 
L 703 4441 
L 1819 4666 
L 2450 4666 
L 2450 531 
L 3481 531 
L 3481 0 
L 794 0 
L 794 531 
z
" id="DejaVuSans-31" transform="scale(0.015625)"/>
       <path d="M 1984 4856 
Q 1566 4138 1362 3434 
Q 1159 2731 1159 2009 
Q 1159 1288 1364 580 
Q 1569 -128 1984 -844 
L 1484 -844 
Q 1016 -109 783 600 
Q 550 1309 550 2009 
Q 550 2706 781 3412 
Q 1013 4119 1484 4856 
L 1984 4856 
z
" id="DejaVuSans-28" transform="scale(0.015625)"/>
       <path d="M 3272 2816 
L 2363 2816 
L 2100 1772 
L 3016 1772 
L 3272 2816 
z
M 2803 4594 
L 2478 3297 
L 3391 3297 
L 3719 4594 
L 4219 4594 
L 3897 3297 
L 4872 3297 
L 4872 2816 
L 3775 2816 
L 3519 1772 
L 4513 1772 
L 4513 1294 
L 3397 1294 
L 3072 0 
L 2572 0 
L 2894 1294 
L 1978 1294 
L 1656 0 
L 1153 0 
L 1478 1294 
L 494 1294 
L 494 1772 
L 1594 1772 
L 1856 2816 
L 850 2816 
L 850 3297 
L 1978 3297 
L 2297 4594 
L 2803 4594 
z
" id="DejaVuSans-23" transform="scale(0.015625)"/>
       <path id="DejaVuSans-20" transform="scale(0.015625)"/>
       <path d="M 2375 4863 
L 2375 4384 
L 1825 4384 
Q 1516 4384 1395 4259 
Q 1275 4134 1275 3809 
L 1275 3500 
L 2222 3500 
L 2222 3053 
L 1275 3053 
L 1275 0 
L 697 0 
L 697 3053 
L 147 3053 
L 147 3500 
L 697 3500 
L 697 3744 
Q 697 4328 969 4595 
Q 1241 4863 1831 4863 
L 2375 4863 
z
" id="DejaVuSans-66" transform="scale(0.015625)"/>
       <path d="M 313 2009 
L 1997 2009 
L 1997 1497 
L 313 1497 
L 313 2009 
z
" id="DejaVuSans-2d" transform="scale(0.015625)"/>
       <path d="M 3597 1894 
L 3597 1613 
L 953 1613 
Q 991 1019 1311 708 
Q 1631 397 2203 397 
Q 2534 397 2845 478 
Q 3156 559 3463 722 
L 3463 178 
Q 3153 47 2828 -22 
Q 2503 -91 2169 -91 
Q 1331 -91 842 396 
Q 353 884 353 1716 
Q 353 2575 817 3079 
Q 1281 3584 2069 3584 
Q 2775 3584 3186 3129 
Q 3597 2675 3597 1894 
z
M 3022 2063 
Q 3016 2534 2758 2815 
Q 2500 3097 2075 3097 
Q 1594 3097 1305 2825 
Q 1016 2553 972 2059 
L 3022 2063 
z
" id="DejaVuSans-65" transform="scale(0.015625)"/>
       <path d="M 191 3500 
L 800 3500 
L 1894 563 
L 2988 3500 
L 3597 3500 
L 2284 0 
L 1503 0 
L 191 3500 
z
" id="DejaVuSans-76" transform="scale(0.015625)"/>
       <path d="M 2194 1759 
Q 1497 1759 1228 1600 
Q 959 1441 959 1056 
Q 959 750 1161 570 
Q 1363 391 1709 391 
Q 2188 391 2477 730 
Q 2766 1069 2766 1631 
L 2766 1759 
L 2194 1759 
z
M 3341 1997 
L 3341 0 
L 2766 0 
L 2766 531 
Q 2569 213 2275 61 
Q 1981 -91 1556 -91 
Q 1019 -91 701 211 
Q 384 513 384 1019 
Q 384 1609 779 1909 
Q 1175 2209 1959 2209 
L 2766 2209 
L 2766 2266 
Q 2766 2663 2505 2880 
Q 2244 3097 1772 3097 
Q 1472 3097 1187 3025 
Q 903 2953 641 2809 
L 641 3341 
Q 956 3463 1253 3523 
Q 1550 3584 1831 3584 
Q 2591 3584 2966 3190 
Q 3341 2797 3341 1997 
z
" id="DejaVuSans-61" transform="scale(0.015625)"/>
       <path d="M 2834 3397 
L 2834 2853 
Q 2591 2978 2328 3040 
Q 2066 3103 1784 3103 
Q 1356 3103 1142 2972 
Q 928 2841 928 2578 
Q 928 2378 1081 2264 
Q 1234 2150 1697 2047 
L 1894 2003 
Q 2506 1872 2764 1633 
Q 3022 1394 3022 966 
Q 3022 478 2636 193 
Q 2250 -91 1575 -91 
Q 1294 -91 989 -36 
Q 684 19 347 128 
L 347 722 
Q 666 556 975 473 
Q 1284 391 1588 391 
Q 1994 391 2212 530 
Q 2431 669 2431 922 
Q 2431 1156 2273 1281 
Q 2116 1406 1581 1522 
L 1381 1569 
Q 847 1681 609 1914 
Q 372 2147 372 2553 
Q 372 3047 722 3315 
Q 1072 3584 1716 3584 
Q 2034 3584 2315 3537 
Q 2597 3491 2834 3397 
z
" id="DejaVuSans-73" transform="scale(0.015625)"/>
       <path d="M 1625 4666 
L 2156 4666 
L 531 -594 
L 0 -594 
L 1625 4666 
z
" id="DejaVuSans-2f" transform="scale(0.015625)"/>
       <path d="M 2906 2969 
L 2906 4863 
L 3481 4863 
L 3481 0 
L 2906 0 
L 2906 525 
Q 2725 213 2448 61 
Q 2172 -91 1784 -91 
Q 1150 -91 751 415 
Q 353 922 353 1747 
Q 353 2572 751 3078 
Q 1150 3584 1784 3584 
Q 2172 3584 2448 3432 
Q 2725 3281 2906 2969 
z
M 947 1747 
Q 947 1113 1208 752 
Q 1469 391 1925 391 
Q 2381 391 2643 752 
Q 2906 1113 2906 1747 
Q 2906 2381 2643 2742 
Q 2381 3103 1925 3103 
Q 1469 3103 1208 2742 
Q 947 2381 947 1747 
z
" id="DejaVuSans-64" transform="scale(0.015625)"/>
       <path d="M 603 3500 
L 1178 3500 
L 1178 0 
L 603 0 
L 603 3500 
z
M 603 4863 
L 1178 4863 
L 1178 4134 
L 603 4134 
L 603 4863 
z
" id="DejaVuSans-69" transform="scale(0.015625)"/>
       <path d="M 3328 2828 
Q 3544 3216 3844 3400 
Q 4144 3584 4550 3584 
Q 5097 3584 5394 3201 
Q 5691 2819 5691 2113 
L 5691 0 
L 5113 0 
L 5113 2094 
Q 5113 2597 4934 2840 
Q 4756 3084 4391 3084 
Q 3944 3084 3684 2787 
Q 3425 2491 3425 1978 
L 3425 0 
L 2847 0 
L 2847 2094 
Q 2847 2600 2669 2842 
Q 2491 3084 2119 3084 
Q 1678 3084 1418 2786 
Q 1159 2488 1159 1978 
L 1159 0 
L 581 0 
L 581 3500 
L 1159 3500 
L 1159 2956 
Q 1356 3278 1631 3431 
Q 1906 3584 2284 3584 
Q 2666 3584 2933 3390 
Q 3200 3197 3328 2828 
z
" id="DejaVuSans-6d" transform="scale(0.015625)"/>
       <path d="M 3513 2113 
L 3513 0 
L 2938 0 
L 2938 2094 
Q 2938 2591 2744 2837 
Q 2550 3084 2163 3084 
Q 1697 3084 1428 2787 
Q 1159 2491 1159 1978 
L 1159 0 
L 581 0 
L 581 3500 
L 1159 3500 
L 1159 2956 
Q 1366 3272 1645 3428 
Q 1925 3584 2291 3584 
Q 2894 3584 3203 3211 
Q 3513 2838 3513 2113 
z
" id="DejaVuSans-6e" transform="scale(0.015625)"/>
       <path d="M 513 4856 
L 1013 4856 
Q 1481 4119 1714 3412 
Q 1947 2706 1947 2009 
Q 1947 1309 1714 600 
Q 1481 -109 1013 -844 
L 513 -844 
Q 928 -128 1133 580 
Q 1338 1288 1338 2009 
Q 1338 2731 1133 3434 
Q 928 4138 513 4856 
z
" id="DejaVuSans-29" transform="scale(0.015625)"/>
      </defs>
      <use xlink:href="#DejaVuSans-6c"/>
      <use x="27.783203" xlink:href="#DejaVuSans-6f"/>
      <use x="88.964844" xlink:href="#DejaVuSans-67"/>
      <use x="152.441406" xlink:href="#DejaVuSans-31"/>
      <use x="216.064453" xlink:href="#DejaVuSans-30"/>
      <use x="279.6875" xlink:href="#DejaVuSans-28"/>
      <use x="318.701172" xlink:href="#DejaVuSans-23"/>
      <use x="402.490234" xlink:href="#DejaVuSans-20"/>
      <use x="434.277344" xlink:href="#DejaVuSans-66"/>
      <use x="463.982422" xlink:href="#DejaVuSans-2d"/>
      <use x="500.066406" xlink:href="#DejaVuSans-65"/>
      <use x="561.589844" xlink:href="#DejaVuSans-76"/>
      <use x="620.769531" xlink:href="#DejaVuSans-61"/>
      <use x="682.048828" xlink:href="#DejaVuSans-6c"/>
      <use x="709.832031" xlink:href="#DejaVuSans-73"/>
      <use x="761.931641" xlink:href="#DejaVuSans-20"/>
      <use x="793.71875" xlink:href="#DejaVuSans-2f"/>
      <use x="827.410156" xlink:href="#DejaVuSans-20"/>
      <use x="859.197266" xlink:href="#DejaVuSans-64"/>
      <use x="922.673828" xlink:href="#DejaVuSans-69"/>
      <use x="950.457031" xlink:href="#DejaVuSans-6d"/>
      <use x="1047.869141" xlink:href="#DejaVuSans-65"/>
      <use x="1109.392578" xlink:href="#DejaVuSans-6e"/>
      <use x="1172.771484" xlink:href="#DejaVuSans-73"/>
      <use x="1224.871094" xlink:href="#DejaVuSans-69"/>
      <use x="1252.654297" xlink:href="#DejaVuSans-6f"/>
      <use x="1313.835938" xlink:href="#DejaVuSans-6e"/>
      <use x="1377.214844" xlink:href="#DejaVuSans-29"/>
     </g>
    </g>
   </g>
   <g id="matplotlib.axis_2">
    <g id="ytick_1">
     <g id="line2d_17">
      <path clip-path="url(#pca33c1c939)" d="M 57.6 298.944 
L 338.688 298.944 
" style="fill:none;stroke:#b0b0b0;stroke-linecap:square;stroke-width:0.8;"/>
     </g>
     <g id="line2d_18">
      <defs>
       <path d="M 0 0 
L -3.5 0 
" id="m6b0b9acff4" style="stroke:#000000;stroke-width:0.8;"/>
      </defs>
      <g>
       <use style="stroke:#000000;stroke-width:0.8;" x="57.6" xlink:href="#m6b0b9acff4" y="298.944"/>
      </g>
     </g>
     <g id="text_6">
      <!-- 0.0 -->
      <g transform="translate(25.155 305.02275)scale(0.16 -0.16)">
       <defs>
        <path d="M 684 794 
L 1344 794 
L 1344 0 
L 684 0 
L 684 794 
z
" id="DejaVuSans-2e" transform="scale(0.015625)"/>
       </defs>
       <use xlink:href="#DejaVuSans-30"/>
       <use x="63.623047" xlink:href="#DejaVuSans-2e"/>
       <use x="95.410156" xlink:href="#DejaVuSans-30"/>
      </g>
     </g>
    </g>
    <g id="ytick_2">
     <g id="line2d_19">
      <path clip-path="url(#pca33c1c939)" d="M 57.6 240.431525 
L 338.688 240.431525 
" style="fill:none;stroke:#b0b0b0;stroke-linecap:square;stroke-width:0.8;"/>
     </g>
     <g id="line2d_20">
      <g>
       <use style="stroke:#000000;stroke-width:0.8;" x="57.6" xlink:href="#m6b0b9acff4" y="240.431525"/>
      </g>
     </g>
     <g id="text_7">
      <!-- 0.2 -->
      <g transform="translate(25.155 246.510275)scale(0.16 -0.16)">
       <use xlink:href="#DejaVuSans-30"/>
       <use x="63.623047" xlink:href="#DejaVuSans-2e"/>
       <use x="95.410156" xlink:href="#DejaVuSans-32"/>
      </g>
     </g>
    </g>
    <g id="ytick_3">
     <g id="line2d_21">
      <path clip-path="url(#pca33c1c939)" d="M 57.6 181.91905 
L 338.688 181.91905 
" style="fill:none;stroke:#b0b0b0;stroke-linecap:square;stroke-width:0.8;"/>
     </g>
     <g id="line2d_22">
      <g>
       <use style="stroke:#000000;stroke-width:0.8;" x="57.6" xlink:href="#m6b0b9acff4" y="181.91905"/>
      </g>
     </g>
     <g id="text_8">
      <!-- 0.4 -->
      <g transform="translate(25.155 187.9978)scale(0.16 -0.16)">
       <use xlink:href="#DejaVuSans-30"/>
       <use x="63.623047" xlink:href="#DejaVuSans-2e"/>
       <use x="95.410156" xlink:href="#DejaVuSans-34"/>
      </g>
     </g>
    </g>
    <g id="ytick_4">
     <g id="line2d_23">
      <path clip-path="url(#pca33c1c939)" d="M 57.6 123.406574 
L 338.688 123.406574 
" style="fill:none;stroke:#b0b0b0;stroke-linecap:square;stroke-width:0.8;"/>
     </g>
     <g id="line2d_24">
      <g>
       <use style="stroke:#000000;stroke-width:0.8;" x="57.6" xlink:href="#m6b0b9acff4" y="123.406574"/>
      </g>
     </g>
     <g id="text_9">
      <!-- 0.6 -->
      <g transform="translate(25.155 129.485324)scale(0.16 -0.16)">
       <use xlink:href="#DejaVuSans-30"/>
       <use x="63.623047" xlink:href="#DejaVuSans-2e"/>
       <use x="95.410156" xlink:href="#DejaVuSans-36"/>
      </g>
     </g>
    </g>
    <g id="ytick_5">
     <g id="line2d_25">
      <path clip-path="url(#pca33c1c939)" d="M 57.6 64.894099 
L 338.688 64.894099 
" style="fill:none;stroke:#b0b0b0;stroke-linecap:square;stroke-width:0.8;"/>
     </g>
     <g id="line2d_26">
      <g>
       <use style="stroke:#000000;stroke-width:0.8;" x="57.6" xlink:href="#m6b0b9acff4" y="64.894099"/>
      </g>
     </g>
     <g id="text_10">
      <!-- 0.8 -->
      <g transform="translate(25.155 70.972849)scale(0.16 -0.16)">
       <defs>
        <path d="M 2034 2216 
Q 1584 2216 1326 1975 
Q 1069 1734 1069 1313 
Q 1069 891 1326 650 
Q 1584 409 2034 409 
Q 2484 409 2743 651 
Q 3003 894 3003 1313 
Q 3003 1734 2745 1975 
Q 2488 2216 2034 2216 
z
M 1403 2484 
Q 997 2584 770 2862 
Q 544 3141 544 3541 
Q 544 4100 942 4425 
Q 1341 4750 2034 4750 
Q 2731 4750 3128 4425 
Q 3525 4100 3525 3541 
Q 3525 3141 3298 2862 
Q 3072 2584 2669 2484 
Q 3125 2378 3379 2068 
Q 3634 1759 3634 1313 
Q 3634 634 3220 271 
Q 2806 -91 2034 -91 
Q 1263 -91 848 271 
Q 434 634 434 1313 
Q 434 1759 690 2068 
Q 947 2378 1403 2484 
z
M 1172 3481 
Q 1172 3119 1398 2916 
Q 1625 2713 2034 2713 
Q 2441 2713 2670 2916 
Q 2900 3119 2900 3481 
Q 2900 3844 2670 4047 
Q 2441 4250 2034 4250 
Q 1625 4250 1398 4047 
Q 1172 3844 1172 3481 
z
" id="DejaVuSans-38" transform="scale(0.015625)"/>
       </defs>
       <use xlink:href="#DejaVuSans-30"/>
       <use x="63.623047" xlink:href="#DejaVuSans-2e"/>
       <use x="95.410156" xlink:href="#DejaVuSans-38"/>
      </g>
     </g>
    </g>
    <g id="ytick_6">
     <g id="line2d_27">
      <path clip-path="url(#pca33c1c939)" d="M 57.6 6.381624 
L 338.688 6.381624 
" style="fill:none;stroke:#b0b0b0;stroke-linecap:square;stroke-width:0.8;"/>
     </g>
     <g id="line2d_28">
      <g>
       <use style="stroke:#000000;stroke-width:0.8;" x="57.6" xlink:href="#m6b0b9acff4" y="6.381624"/>
      </g>
     </g>
     <g id="text_11">
      <!-- 1.0 -->
      <g transform="translate(25.155 12.460374)scale(0.16 -0.16)">
       <use xlink:href="#DejaVuSans-31"/>
       <use x="63.623047" xlink:href="#DejaVuSans-2e"/>
       <use x="95.410156" xlink:href="#DejaVuSans-30"/>
      </g>
     </g>
    </g>
    <g id="text_12">
     <!-- Fraction of function,target pairs -->
     <g transform="translate(17.619531 285.585)rotate(-90)scale(0.17 -0.17)">
      <defs>
       <path d="M 628 4666 
L 3309 4666 
L 3309 4134 
L 1259 4134 
L 1259 2759 
L 3109 2759 
L 3109 2228 
L 1259 2228 
L 1259 0 
L 628 0 
L 628 4666 
z
" id="DejaVuSans-46" transform="scale(0.015625)"/>
       <path d="M 2631 2963 
Q 2534 3019 2420 3045 
Q 2306 3072 2169 3072 
Q 1681 3072 1420 2755 
Q 1159 2438 1159 1844 
L 1159 0 
L 581 0 
L 581 3500 
L 1159 3500 
L 1159 2956 
Q 1341 3275 1631 3429 
Q 1922 3584 2338 3584 
Q 2397 3584 2469 3576 
Q 2541 3569 2628 3553 
L 2631 2963 
z
" id="DejaVuSans-72" transform="scale(0.015625)"/>
       <path d="M 3122 3366 
L 3122 2828 
Q 2878 2963 2633 3030 
Q 2388 3097 2138 3097 
Q 1578 3097 1268 2742 
Q 959 2388 959 1747 
Q 959 1106 1268 751 
Q 1578 397 2138 397 
Q 2388 397 2633 464 
Q 2878 531 3122 666 
L 3122 134 
Q 2881 22 2623 -34 
Q 2366 -91 2075 -91 
Q 1284 -91 818 406 
Q 353 903 353 1747 
Q 353 2603 823 3093 
Q 1294 3584 2113 3584 
Q 2378 3584 2631 3529 
Q 2884 3475 3122 3366 
z
" id="DejaVuSans-63" transform="scale(0.015625)"/>
       <path d="M 1172 4494 
L 1172 3500 
L 2356 3500 
L 2356 3053 
L 1172 3053 
L 1172 1153 
Q 1172 725 1289 603 
Q 1406 481 1766 481 
L 2356 481 
L 2356 0 
L 1766 0 
Q 1100 0 847 248 
Q 594 497 594 1153 
L 594 3053 
L 172 3053 
L 172 3500 
L 594 3500 
L 594 4494 
L 1172 4494 
z
" id="DejaVuSans-74" transform="scale(0.015625)"/>
       <path d="M 544 1381 
L 544 3500 
L 1119 3500 
L 1119 1403 
Q 1119 906 1312 657 
Q 1506 409 1894 409 
Q 2359 409 2629 706 
Q 2900 1003 2900 1516 
L 2900 3500 
L 3475 3500 
L 3475 0 
L 2900 0 
L 2900 538 
Q 2691 219 2414 64 
Q 2138 -91 1772 -91 
Q 1169 -91 856 284 
Q 544 659 544 1381 
z
M 1991 3584 
L 1991 3584 
z
" id="DejaVuSans-75" transform="scale(0.015625)"/>
       <path d="M 750 794 
L 1409 794 
L 1409 256 
L 897 -744 
L 494 -744 
L 750 256 
L 750 794 
z
" id="DejaVuSans-2c" transform="scale(0.015625)"/>
       <path d="M 1159 525 
L 1159 -1331 
L 581 -1331 
L 581 3500 
L 1159 3500 
L 1159 2969 
Q 1341 3281 1617 3432 
Q 1894 3584 2278 3584 
Q 2916 3584 3314 3078 
Q 3713 2572 3713 1747 
Q 3713 922 3314 415 
Q 2916 -91 2278 -91 
Q 1894 -91 1617 61 
Q 1341 213 1159 525 
z
M 3116 1747 
Q 3116 2381 2855 2742 
Q 2594 3103 2138 3103 
Q 1681 3103 1420 2742 
Q 1159 2381 1159 1747 
Q 1159 1113 1420 752 
Q 1681 391 2138 391 
Q 2594 391 2855 752 
Q 3116 1113 3116 1747 
z
" id="DejaVuSans-70" transform="scale(0.015625)"/>
      </defs>
      <use xlink:href="#DejaVuSans-46"/>
      <use x="50.269531" xlink:href="#DejaVuSans-72"/>
      <use x="91.382812" xlink:href="#DejaVuSans-61"/>
      <use x="152.662109" xlink:href="#DejaVuSans-63"/>
      <use x="207.642578" xlink:href="#DejaVuSans-74"/>
      <use x="246.851562" xlink:href="#DejaVuSans-69"/>
      <use x="274.634766" xlink:href="#DejaVuSans-6f"/>
      <use x="335.816406" xlink:href="#DejaVuSans-6e"/>
      <use x="399.195312" xlink:href="#DejaVuSans-20"/>
      <use x="430.982422" xlink:href="#DejaVuSans-6f"/>
      <use x="492.164062" xlink:href="#DejaVuSans-66"/>
      <use x="527.369141" xlink:href="#DejaVuSans-20"/>
      <use x="559.15625" xlink:href="#DejaVuSans-66"/>
      <use x="594.361328" xlink:href="#DejaVuSans-75"/>
      <use x="657.740234" xlink:href="#DejaVuSans-6e"/>
      <use x="721.119141" xlink:href="#DejaVuSans-63"/>
      <use x="776.099609" xlink:href="#DejaVuSans-74"/>
      <use x="815.308594" xlink:href="#DejaVuSans-69"/>
      <use x="843.091797" xlink:href="#DejaVuSans-6f"/>
      <use x="904.273438" xlink:href="#DejaVuSans-6e"/>
      <use x="967.652344" xlink:href="#DejaVuSans-2c"/>
      <use x="999.439453" xlink:href="#DejaVuSans-74"/>
      <use x="1038.648438" xlink:href="#DejaVuSans-61"/>
      <use x="1099.927734" xlink:href="#DejaVuSans-72"/>
      <use x="1139.291016" xlink:href="#DejaVuSans-67"/>
      <use x="1202.767578" xlink:href="#DejaVuSans-65"/>
      <use x="1264.291016" xlink:href="#DejaVuSans-74"/>
      <use x="1303.5" xlink:href="#DejaVuSans-20"/>
      <use x="1335.287109" xlink:href="#DejaVuSans-70"/>
      <use x="1398.763672" xlink:href="#DejaVuSans-61"/>
      <use x="1460.042969" xlink:href="#DejaVuSans-69"/>
      <use x="1487.826172" xlink:href="#DejaVuSans-72"/>
      <use x="1528.939453" xlink:href="#DejaVuSans-73"/>
     </g>
    </g>
   </g>
   <g id="line2d_29">
    <defs>
     <path d="M 0 1.5 
C 0.397805 1.5 0.77937 1.341951 1.06066 1.06066 
C 1.341951 0.77937 1.5 0.397805 1.5 0 
C 1.5 -0.397805 1.341951 -0.77937 1.06066 -1.06066 
C 0.77937 -1.341951 0.397805 -1.5 0 -1.5 
C -0.397805 -1.5 -0.77937 -1.341951 -1.06066 -1.06066 
C -1.341951 -0.77937 -1.5 -0.397805 -1.5 0 
C -1.5 0.397805 -1.341951 0.77937 -1.06066 1.06066 
C -0.77937 1.341951 -0.397805 1.5 0 1.5 
z
" id="m9e626695d4" style="stroke:#00bfbf;"/>
    </defs>
    <g>
     <use style="fill:#00bfbf;stroke:#00bfbf;" x="213.967918" xlink:href="#m9e626695d4" y="235.842311"/>
     <use style="fill:#00bfbf;stroke:#00bfbf;" x="213.967918" xlink:href="#m9e626695d4" y="235.842311"/>
    </g>
   </g>
   <g id="line2d_30">
    <path d="M 45.512012 298.944 
L 45.512012 293.207483 
L 57.6 293.207483 
L 57.6 291.371797 
L 64.67102 291.371797 
L 64.67102 289.765573 
L 69.687988 289.765573 
L 69.687988 289.536112 
L 73.579452 289.536112 
L 73.579452 289.191921 
L 76.759008 289.191921 
L 76.759008 288.618269 
L 79.447285 288.618269 
L 79.447285 287.585696 
L 81.775977 287.585696 
L 81.775977 286.553123 
L 83.830028 286.553123 
L 83.830028 286.094202 
L 85.66744 286.094202 
L 85.66744 285.405819 
L 90.242884 285.405819 
L 90.242884 284.258516 
L 91.535274 284.258516 
L 91.535274 284.029055 
L 92.73846 284.029055 
L 92.73846 283.914325 
L 94.921215 283.914325 
L 94.921215 283.684864 
L 96.86091 283.684864 
L 96.86091 283.455404 
L 97.755429 283.455404 
L 97.755429 283.340673 
L 99.41757 283.340673 
L 99.41757 283.225943 
L 102.989037 283.225943 
L 102.989037 283.111213 
L 104.23523 283.111213 
L 104.23523 282.996482 
L 105.398279 282.996482 
L 105.398279 282.767022 
L 105.951954 282.767022 
L 105.951954 282.3081 
L 107.514726 282.3081 
L 107.514726 282.19337 
L 108.948899 282.19337 
L 108.948899 281.504988 
L 109.843417 281.504988 
L 109.843417 281.275527 
L 110.274038 281.275527 
L 110.274038 281.160797 
L 111.104637 281.160797 
L 111.104637 280.931336 
L 111.505558 280.931336 
L 111.505558 280.472415 
L 111.897469 280.472415 
L 111.897469 280.242954 
L 112.280765 280.242954 
L 112.280765 280.013493 
L 112.655818 280.013493 
L 112.655818 279.898763 
L 113.382559 279.898763 
L 113.382559 279.669302 
L 113.73488 279.669302 
L 113.73488 279.325111 
L 114.418861 279.325111 
L 114.418861 279.095651 
L 115.397021 279.095651 
L 115.397021 278.98092 
L 116.019919 278.98092 
L 116.019919 278.292538 
L 117.486268 278.292538 
L 117.486268 278.063077 
L 120.33454 278.063077 
L 120.33454 277.489426 
L 123.394238 277.489426 
L 123.394238 277.374695 
L 124.178158 277.374695 
L 124.178158 276.342122 
L 124.557288 276.342122 
L 124.557288 275.997931 
L 125.291682 275.997931 
L 125.291682 275.53901 
L 126.673734 275.53901 
L 126.673734 275.309549 
L 127.165014 275.309549 
L 127.165014 274.735897 
L 127.642832 274.735897 
L 127.642832 274.506437 
L 127.954256 274.506437 
L 127.954256 274.276976 
L 128.107907 274.276976 
L 128.107907 273.244403 
L 128.709321 273.244403 
L 128.709321 273.129673 
L 129.002426 273.129673 
L 129.002426 273.014942 
L 130.531948 273.014942 
L 130.531948 272.785482 
L 132.181982 272.785482 
L 132.181982 272.441291 
L 133.910056 272.441291 
L 133.910056 272.32656 
L 134.450015 272.32656 
L 134.450015 272.21183 
L 134.870259 272.21183 
L 134.973757 271.638178 
L 135.076644 271.638178 
L 135.076644 271.523448 
L 136.170062 271.523448 
L 136.170062 270.720335 
L 136.456742 270.720335 
L 136.456742 270.261414 
L 136.738785 270.261414 
L 136.738785 270.146684 
L 138.341479 270.146684 
L 138.341479 269.917223 
L 138.510793 269.917223 
L 138.594838 269.687762 
L 138.761723 269.687762 
L 138.84457 269.343571 
L 138.927025 269.343571 
L 138.927025 269.228841 
L 140.423864 269.228841 
L 140.423864 269.114111 
L 140.574203 269.114111 
L 140.574203 268.99938 
L 140.79731 268.99938 
L 140.79731 268.88465 
L 141.45 268.88465 
L 141.45 268.76992 
L 141.871938 268.76992 
L 141.871938 268.655189 
L 142.283909 268.655189 
L 142.283909 268.540459 
L 142.486301 268.540459 
L 142.553247 268.196268 
L 143.079756 268.196268 
L 143.079756 268.081538 
L 143.40093 268.081538 
L 143.40093 267.737347 
L 143.590833 267.737347 
L 143.590833 267.622616 
L 144.510517 267.622616 
L 144.570138 267.163695 
L 144.688773 267.163695 
L 144.688773 267.048964 
L 144.806606 267.048964 
L 144.806606 266.819504 
L 145.097753 266.819504 
L 145.097753 266.704773 
L 145.327221 266.704773 
L 145.384119 266.475313 
L 145.440832 266.475313 
L 145.497361 266.131122 
L 145.832743 266.131122 
L 145.888018 265.786931 
L 145.998045 265.786931 
L 146.052799 265.213279 
L 146.854132 265.213279 
L 146.854132 265.098549 
L 147.4697 265.098549 
L 147.4697 264.983818 
L 148.161434 264.983818 
L 148.161434 264.869088 
L 148.354135 264.869088 
L 148.354135 264.754358 
L 148.54473 264.754358 
L 148.54473 264.639627 
L 149.15016 264.639627 
L 149.195872 264.180706 
L 149.377533 264.180706 
L 149.422654 263.377593 
L 149.955193 263.377593 
L 149.955193 263.262863 
L 150.51433 263.262863 
L 150.51433 263.148133 
L 150.640855 263.148133 
L 150.682827 262.918672 
L 151.300575 262.918672 
L 151.300575 262.803942 
L 151.501723 262.803942 
L 151.501723 262.689211 
L 152.360205 262.689211 
L 152.360205 262.574481 
L 152.474064 262.574481 
L 152.474064 262.459751 
L 152.587184 262.459751 
L 152.587184 262.34502 
L 153.430889 262.34502 
L 153.537988 262.11556 
L 153.679772 262.11556 
L 153.679772 262.000829 
L 153.855395 262.000829 
L 153.925152 261.656638 
L 154.235652 261.656638 
L 154.337936 261.427178 
L 154.439623 261.427178 
L 154.54072 261.197717 
L 154.607795 261.197717 
L 154.707925 260.853526 
L 155.488919 260.853526 
L 155.520713 260.624065 
L 156.021696 260.624065 
L 156.114049 260.279874 
L 156.687861 260.279874 
L 156.776762 260.050414 
L 156.806295 260.050414 
L 156.806295 259.820953 
L 157.528821 259.820953 
L 157.613546 259.591492 
L 158.113432 259.591492 
L 158.113432 259.476762 
L 158.358103 259.476762 
L 158.358103 259.362031 
L 158.942121 259.362031 
L 158.942121 259.247301 
L 159.32939 259.247301 
L 159.32939 259.132571 
L 159.582872 259.132571 
L 159.633129 258.78838 
L 159.733212 258.78838 
L 159.832723 258.444189 
L 159.882266 258.444189 
L 159.882266 258.214728 
L 160.103486 258.214728 
L 160.176607 257.985267 
L 160.273627 257.985267 
L 160.321935 257.755807 
L 161.420284 257.755807 
L 161.420284 257.641076 
L 161.778945 257.641076 
L 161.88953 257.296885 
L 161.999419 257.296885 
L 161.999419 257.182155 
L 162.410793 257.182155 
L 162.474869 256.837964 
L 162.581141 256.837964 
L 162.581141 256.723234 
L 162.999872 256.723234 
L 162.999872 256.608503 
L 163.327764 256.608503 
L 163.388564 256.264312 
L 163.609699 256.264312 
L 163.609699 256.149582 
L 164.102088 256.149582 
L 164.19892 255.4612 
L 164.218222 255.4612 
L 164.256762 255.002278 
L 164.580957 255.002278 
L 164.580957 254.887548 
L 164.86209 254.887548 
L 164.86209 254.772818 
L 165.46508 254.772818 
L 165.46508 254.658087 
L 165.714726 254.658087 
L 165.714726 254.428627 
L 166.323641 254.428627 
L 166.425924 253.854975 
L 166.994465 253.854975 
L 167.06015 253.510784 
L 167.687935 253.510784 
L 167.798261 253.166593 
L 167.87664 253.166593 
L 167.87664 252.937132 
L 168.01684 252.937132 
L 168.01684 252.822402 
L 168.9532 252.822402 
L 169.041203 252.478211 
L 169.143315 252.478211 
L 169.143315 252.36348 
L 169.616809 252.36348 
L 169.616809 252.24875 
L 169.967148 252.24875 
L 169.967148 252.13402 
L 170.201421 252.13402 
L 170.201421 252.019289 
L 170.59394 252.019289 
L 170.674059 251.330907 
L 170.727268 251.330907 
L 170.819995 250.986716 
L 172.081215 250.986716 
L 172.179258 250.642525 
L 172.744386 250.642525 
L 172.768032 250.413065 
L 173.084161 250.413065 
L 173.118935 250.068874 
L 173.199806 250.068874 
L 173.211329 249.839413 
L 174.12024 249.839413 
L 174.142093 249.609952 
L 175.025688 249.609952 
L 175.025688 249.495222 
L 175.313947 249.495222 
L 175.364924 248.462649 
L 175.496772 248.462649 
L 175.597519 248.118458 
L 176.190077 248.118458 
L 176.228874 247.888997 
L 176.55521 247.888997 
L 176.55521 247.774267 
L 176.959372 247.774267 
L 176.977944 247.544806 
L 177.235899 247.544806 
L 177.31801 247.085885 
L 178.057564 247.085885 
L 178.057564 246.971154 
L 178.385964 246.971154 
L 178.385964 246.856424 
L 178.513913 246.856424 
L 178.513913 246.741694 
L 178.991731 246.741694 
L 179.074226 246.282772 
L 180.197673 246.282772 
L 180.197673 246.168042 
L 180.616999 246.168042 
L 180.714656 245.59439 
L 181.151123 245.59439 
L 181.260369 245.36493 
L 181.318355 245.36493 
L 181.318355 245.250199 
L 181.526953 245.250199 
L 181.526953 245.135469 
L 182.041257 245.135469 
L 182.069005 244.906008 
L 182.186441 244.906008 
L 182.193325 244.676547 
L 182.695307 244.676547 
L 182.695307 244.561817 
L 182.940981 244.561817 
L 183.033044 244.332356 
L 183.222213 244.332356 
L 183.222213 244.217626 
L 183.41577 244.217626 
L 183.467024 243.988165 
L 183.549993 243.988165 
L 183.549993 243.758705 
L 184.600125 243.758705 
L 184.665945 243.529244 
L 184.731518 243.529244 
L 184.731518 243.414514 
L 185.241629 243.414514 
L 185.270497 243.185053 
L 185.65279 243.185053 
L 185.65279 243.070323 
L 185.832462 243.070323 
L 185.888232 242.840862 
L 186.306355 242.840862 
L 186.34979 242.611401 
L 186.925819 242.611401 
L 186.952032 242.26721 
L 187.974425 242.26721 
L 188.013903 242.03775 
L 188.302324 242.03775 
L 188.302324 241.923019 
L 188.562185 241.923019 
L 188.562185 241.808289 
L 189.369552 241.808289 
L 189.374112 241.578828 
L 189.859692 241.578828 
L 189.864126 241.349368 
L 190.258597 241.349368 
L 190.280253 241.119907 
L 190.728918 241.119907 
L 190.741569 240.890446 
L 191.075585 240.890446 
L 191.162214 240.546255 
L 191.580988 240.546255 
L 191.677139 240.087334 
L 192.354972 240.087334 
L 192.458424 239.857873 
L 192.780157 239.857873 
L 192.825103 239.628412 
L 193.07026 239.628412 
L 193.118145 239.398952 
L 193.435265 239.398952 
L 193.528928 239.054761 
L 193.600635 239.054761 
L 193.600635 238.94003 
L 193.856369 238.94003 
L 193.895111 238.71057 
L 194.520539 238.71057 
L 194.520539 238.595839 
L 194.916522 238.595839 
L 194.989365 238.366379 
L 195.26798 238.366379 
L 195.26798 238.251648 
L 195.644347 238.251648 
L 195.644347 238.136918 
L 195.859415 238.136918 
L 195.887683 237.907457 
L 196.531544 237.907457 
L 196.531544 237.792727 
L 196.982367 237.792727 
L 197.061763 237.563266 
L 197.332506 237.563266 
L 197.332506 237.448536 
L 197.675754 237.448536 
L 197.675754 237.333805 
L 198.266123 237.333805 
L 198.266123 237.219075 
L 198.524326 237.219075 
L 198.524326 237.104345 
L 199.289677 237.104345 
L 199.289677 236.989614 
L 200.104356 236.989614 
L 200.104356 236.874884 
L 201.294888 236.874884 
L 201.294888 236.760154 
L 201.695338 236.760154 
L 201.695338 236.645423 
L 201.960978 236.645423 
L 201.960978 236.530693 
L 205.036101 236.530693 
L 205.036101 236.415963 
L 207.833875 236.415963 
L 207.833875 236.301232 
L 208.131882 236.301232 
L 208.131882 236.186502 
L 208.326736 236.186502 
L 208.326736 236.071772 
L 211.807405 236.071772 
L 211.807405 235.957041 
L 213.967918 235.957041 
L 213.967918 235.842311 
L 338.688 235.842311 
L 338.688 235.842311 
" style="fill:none;stroke:#00bfbf;stroke-linecap:square;stroke-width:1.5;"/>
   </g>
   <g id="line2d_31">
    <defs>
     <path d="M -6 0 
L 6 0 
M 0 6 
L 0 -6 
" id="mc733fbb379" style="stroke:#00bfbf;stroke-width:1.5;"/>
    </defs>
    <g>
     <use style="fill-opacity:0;stroke:#00bfbf;stroke-width:1.5;" x="120.33454" xlink:href="#mc733fbb379" y="278.063077"/>
     <use style="fill-opacity:0;stroke:#00bfbf;stroke-width:1.5;" x="166.994465" xlink:href="#mc733fbb379" y="253.740245"/>
     <use style="fill-opacity:0;stroke:#00bfbf;stroke-width:1.5;" x="213.967918" xlink:href="#mc733fbb379" y="235.957041"/>
     <use style="fill-opacity:0;stroke:#00bfbf;stroke-width:1.5;" x="213.967918" xlink:href="#mc733fbb379" y="235.842311"/>
     <use style="fill-opacity:0;stroke:#00bfbf;stroke-width:1.5;" x="213.967918" xlink:href="#mc733fbb379" y="235.842311"/>
     <use style="fill-opacity:0;stroke:#00bfbf;stroke-width:1.5;" x="338.688" xlink:href="#mc733fbb379" y="235.842311"/>
    </g>
   </g>
   <g id="line2d_32">
    <path style="fill:none;stroke:#00bfbf;stroke-linecap:square;stroke-width:1.5;"/>
    <g/>
   </g>
   <g id="line2d_33">
    <path clip-path="url(#pca33c1c939)" d="M 138.084384 270.146684 
" style="fill:none;stroke:#00bfbf;stroke-linecap:square;stroke-width:1.5;"/>
    <defs>
     <path d="M -12 12 
L 12 -12 
M -12 -12 
L 12 12 
" id="mc0a12b533d" style="stroke:#00bfbf;"/>
    </defs>
    <g clip-path="url(#pca33c1c939)">
     <use style="fill:#00bfbf;stroke:#00bfbf;" x="138.084384" xlink:href="#mc0a12b533d" y="270.146684"/>
    </g>
   </g>
   <g id="line2d_34">
    <defs>
     <path d="M 0 1.5 
C 0.397805 1.5 0.77937 1.341951 1.06066 1.06066 
C 1.341951 0.77937 1.5 0.397805 1.5 0 
C 1.5 -0.397805 1.341951 -0.77937 1.06066 -1.06066 
C 0.77937 -1.341951 0.397805 -1.5 0 -1.5 
C -0.397805 -1.5 -0.77937 -1.341951 -1.06066 -1.06066 
C -1.341951 -0.77937 -1.5 -0.397805 -1.5 0 
C -1.5 0.397805 -1.341951 0.77937 -1.06066 1.06066 
C -0.77937 1.341951 -0.397805 1.5 0 1.5 
z
" id="m97638978e3" style="stroke:#008000;"/>
    </defs>
    <g>
     <use style="fill:#008000;stroke:#008000;" x="219.232946" xlink:href="#m97638978e3" y="266.819504"/>
     <use style="fill:#008000;stroke:#008000;" x="219.232946" xlink:href="#m97638978e3" y="266.819504"/>
    </g>
   </g>
   <g id="line2d_35">
    <path d="M 38.440992 298.944 
L 38.440992 293.436944 
L 50.52898 293.436944 
L 50.52898 292.863292 
L 57.6 292.863292 
L 57.6 292.40437 
L 62.616969 292.40437 
L 62.616969 291.486528 
L 66.508432 291.486528 
L 66.508432 290.912876 
L 69.687988 290.912876 
L 69.687988 290.798146 
L 72.376266 290.798146 
L 72.376266 290.683415 
L 74.704957 290.683415 
L 74.704957 289.995033 
L 76.759008 289.995033 
L 76.759008 289.421381 
L 81.775977 289.421381 
L 81.775977 289.191921 
L 83.171864 289.191921 
L 83.171864 289.07719 
L 85.66744 289.07719 
L 85.66744 288.618269 
L 87.850195 288.618269 
L 87.850195 288.274078 
L 89.78989 288.274078 
L 89.78989 288.044617 
L 90.684409 288.044617 
L 90.684409 287.929887 
L 91.535274 287.929887 
L 91.535274 287.815157 
L 93.863965 287.815157 
L 93.863965 287.470966 
L 95.918017 287.470966 
L 95.918017 287.356235 
L 96.552242 287.356235 
L 96.552242 287.241505 
L 98.880934 287.241505 
L 98.880934 287.126775 
L 99.938184 287.126775 
L 99.938184 286.897314 
L 106.66386 286.897314 
L 106.66386 286.782584 
L 107.680028 286.782584 
L 107.680028 286.438393 
L 108.640231 286.438393 
L 108.640231 286.323662 
L 109.550313 286.323662 
L 109.550313 286.094202 
L 109.843417 286.094202 
L 109.843417 285.979471 
L 110.968922 285.979471 
L 110.968922 285.63528 
L 113.73488 285.63528 
L 113.73488 285.52055 
L 114.193835 285.52055 
L 114.193835 285.291089 
L 114.641021 285.291089 
L 114.641021 285.176359 
L 115.502395 285.176359 
L 115.502395 284.946898 
L 117.486268 284.946898 
L 117.486268 284.832168 
L 119.097192 284.832168 
L 119.097192 284.717437 
L 119.931767 284.717437 
L 119.931767 284.487977 
L 121.189196 284.487977 
L 121.189196 284.373246 
L 121.931406 284.373246 
L 121.931406 284.258516 
L 122.362027 284.258516 
L 122.362027 284.143786 
L 122.643312 284.143786 
L 122.643312 284.029055 
L 125.23165 284.029055 
L 125.23165 283.914325 
L 126.839037 283.914325 
L 126.839037 283.799595 
L 127.165014 283.799595 
L 127.165014 283.570134 
L 128.005624 283.570134 
L 128.005624 283.455404 
L 129.853291 283.455404 
L 129.853291 283.340673 
L 131.270459 283.340673 
L 131.270459 282.881752 
L 132.581068 282.881752 
L 132.581068 282.652291 
L 135.144899 282.652291 
L 135.144899 282.537561 
L 135.348078 282.537561 
L 135.415281 281.963909 
L 135.813153 281.963909 
L 135.813153 281.734448 
L 136.073445 281.734448 
L 136.073445 281.619718 
L 138.981779 281.619718 
L 138.981779 281.504988 
L 139.306744 281.504988 
L 139.413734 281.160797 
L 140.042245 281.160797 
L 140.042245 281.046066 
L 140.297583 281.046066 
L 140.297583 280.931336 
L 140.747977 280.931336 
L 140.79731 280.701875 
L 141.283115 280.701875 
L 141.283115 280.587145 
L 141.426256 280.587145 
L 141.47371 280.357684 
L 143.014805 280.357684 
L 143.014805 280.242954 
L 143.44331 280.242954 
L 143.44331 280.128224 
L 146.992815 280.128224 
L 147.096109 279.669302 
L 147.636905 279.669302 
L 147.636905 279.554572 
L 148.888835 279.554572 
L 148.981515 279.095651 
L 150.570677 279.095651 
L 150.570677 278.98092 
L 150.738632 278.98092 
L 150.738632 278.86619 
L 151.475037 278.86619 
L 151.475037 278.75146 
L 151.634543 278.75146 
L 151.634543 278.636729 
L 152.027042 278.636729 
L 152.027042 278.521999 
L 153.056874 278.521999 
L 153.056874 278.407268 
L 153.250915 278.407268 
L 153.29909 278.177808 
L 153.913546 278.177808 
L 153.959927 277.948347 
L 154.326601 277.948347 
L 154.326601 277.833617 
L 155.531298 277.833617 
L 155.531298 277.718886 
L 156.357959 277.718886 
L 156.357959 277.604156 
L 157.224197 277.604156 
L 157.319964 277.374695 
L 157.58535 277.374695 
L 157.58535 277.259965 
L 158.465753 277.259965 
L 158.465753 277.145235 
L 158.802326 277.145235 
L 158.802326 277.030504 
L 159.184097 277.030504 
L 159.252621 276.801044 
L 159.774744 276.801044 
L 159.774744 276.686313 
L 160.249422 276.686313 
L 160.249422 276.571583 
L 160.789972 276.571583 
L 160.789972 276.456853 
L 161.615474 276.456853 
L 161.660209 276.112662 
L 162.616422 276.112662 
L 162.616422 275.997931 
L 163.130401 275.997931 
L 163.130401 275.883201 
L 163.253165 275.883201 
L 163.320996 275.65374 
L 163.402046 275.65374 
L 163.402046 275.53901 
L 164.127963 275.53901 
L 164.127963 275.42428 
L 164.985598 275.42428 
L 164.985598 275.309549 
L 165.697012 275.309549 
L 165.755989 274.965358 
L 166.448573 274.965358 
L 166.459886 274.735897 
L 166.862349 274.735897 
L 166.862349 274.621167 
L 167.016388 274.621167 
L 167.016388 274.506437 
L 168.506396 274.506437 
L 168.506396 274.391706 
L 168.884444 274.391706 
L 168.972794 274.047515 
L 169.569561 274.047515 
L 169.569561 273.932785 
L 169.729685 273.932785 
L 169.729685 273.818055 
L 171.340609 273.818055 
L 171.366236 273.588594 
L 171.67086 273.588594 
L 171.704381 273.359133 
L 172.546075 273.359133 
L 172.546075 273.244403 
L 173.666095 273.244403 
L 173.666095 273.129673 
L 173.999552 273.129673 
L 174.072796 272.670751 
L 174.182087 272.670751 
L 174.182087 272.556021 
L 174.534408 272.556021 
L 174.534408 272.441291 
L 174.970237 272.441291 
L 174.970237 272.32656 
L 176.15768 272.32656 
L 176.15768 272.21183 
L 176.536182 272.21183 
L 176.574218 271.867639 
L 176.82569 271.867639 
L 176.82569 271.752909 
L 179.6755 271.752909 
L 179.69669 271.523448 
L 179.975052 271.523448 
L 180.053034 271.179257 
L 180.982272 271.179257 
L 180.982272 271.064526 
L 181.226455 271.064526 
L 181.250686 270.835066 
L 181.505489 270.835066 
L 181.505489 270.720335 
L 184.181489 270.720335 
L 184.181489 270.605605 
L 185.117918 270.605605 
L 185.117918 270.490875 
L 185.249332 270.490875 
L 185.249332 270.376144 
L 185.391224 270.376144 
L 185.391224 270.261414 
L 186.707605 270.261414 
L 186.707605 270.146684 
L 188.535097 270.146684 
L 188.544662 269.917223 
L 190.192018 269.917223 
L 190.232575 269.687762 
L 190.382393 269.687762 
L 190.382393 269.573032 
L 191.178666 269.573032 
L 191.216994 269.343571 
L 192.055223 269.343571 
L 192.055223 269.228841 
L 192.922092 269.228841 
L 192.922092 269.114111 
L 193.538506 269.114111 
L 193.552863 268.88465 
L 195.522997 268.88465 
L 195.522997 268.76992 
L 196.146232 268.76992 
L 196.248997 268.310998 
L 196.716068 268.310998 
L 196.716068 268.196268 
L 197.319984 268.196268 
L 197.319984 268.081538 
L 197.877573 268.081538 
L 197.877573 267.966807 
L 198.508131 267.966807 
L 198.508131 267.852077 
L 199.60864 267.852077 
L 199.60864 267.737347 
L 200.004681 267.737347 
L 200.004681 267.622616 
L 200.12652 267.622616 
L 200.12652 267.507886 
L 200.552779 267.507886 
L 200.552779 267.393156 
L 201.489435 267.393156 
L 201.489435 267.278425 
L 204.482626 267.278425 
L 204.482626 267.163695 
L 206.66275 267.163695 
L 206.66275 267.048964 
L 219.059842 267.048964 
L 219.059842 266.934234 
L 219.232946 266.934234 
L 219.232946 266.819504 
L 338.688 266.819504 
L 338.688 266.819504 
" style="fill:none;stroke:#008000;stroke-linecap:square;stroke-width:1.5;"/>
   </g>
   <g id="line2d_36">
    <defs>
     <path d="M -0 6 
L 6 -6 
L -6 -6 
z
" id="mefe4b859f6" style="stroke:#008000;stroke-linejoin:miter;stroke-width:1.5;"/>
    </defs>
    <g>
     <use style="fill-opacity:0;stroke:#008000;stroke-linejoin:miter;stroke-width:1.5;" x="117.486268" xlink:href="#mefe4b859f6" y="284.832168"/>
     <use style="fill-opacity:0;stroke:#008000;stroke-linejoin:miter;stroke-width:1.5;" x="181.505489" xlink:href="#mefe4b859f6" y="270.720335"/>
     <use style="fill-opacity:0;stroke:#008000;stroke-linejoin:miter;stroke-width:1.5;" x="219.232946" xlink:href="#mefe4b859f6" y="266.934234"/>
     <use style="fill-opacity:0;stroke:#008000;stroke-linejoin:miter;stroke-width:1.5;" x="219.232946" xlink:href="#mefe4b859f6" y="266.819504"/>
     <use style="fill-opacity:0;stroke:#008000;stroke-linejoin:miter;stroke-width:1.5;" x="219.232946" xlink:href="#mefe4b859f6" y="266.819504"/>
     <use style="fill-opacity:0;stroke:#008000;stroke-linejoin:miter;stroke-width:1.5;" x="338.688" xlink:href="#mefe4b859f6" y="266.819504"/>
    </g>
   </g>
   <g id="line2d_37">
    <path style="fill:none;stroke:#008000;stroke-linecap:square;stroke-width:1.5;"/>
    <g/>
   </g>
   <g id="line2d_38">
    <path clip-path="url(#pca33c1c939)" d="M 138.084384 281.619718 
" style="fill:none;stroke:#008000;stroke-linecap:square;stroke-width:1.5;"/>
    <defs>
     <path d="M -12 12 
L 12 -12 
M -12 -12 
L 12 12 
" id="md696e32fd9" style="stroke:#008000;"/>
    </defs>
    <g clip-path="url(#pca33c1c939)">
     <use style="fill:#008000;stroke:#008000;" x="138.084384" xlink:href="#md696e32fd9" y="281.619718"/>
    </g>
   </g>
   <g id="line2d_39">
    <defs>
     <path d="M 0 1.5 
C 0.397805 1.5 0.77937 1.341951 1.06066 1.06066 
C 1.341951 0.77937 1.5 0.397805 1.5 0 
C 1.5 -0.397805 1.341951 -0.77937 1.06066 -1.06066 
C 0.77937 -1.341951 0.397805 -1.5 0 -1.5 
C -0.397805 -1.5 -0.77937 -1.341951 -1.06066 -1.06066 
C -1.341951 -0.77937 -1.5 -0.397805 -1.5 0 
C -1.5 0.397805 -1.341951 0.77937 -1.06066 1.06066 
C -0.77937 1.341951 -0.397805 1.5 0 1.5 
z
" id="mb408af1e76" style="stroke:#0000ff;"/>
    </defs>
    <g>
     <use style="fill:#0000ff;stroke:#0000ff;" x="205.549241" xlink:href="#mb408af1e76" y="281.734448"/>
     <use style="fill:#0000ff;stroke:#0000ff;" x="205.549241" xlink:href="#mb408af1e76" y="281.734448"/>
    </g>
   </g>
   <g id="line2d_40">
    <path d="M 29.53256 298.944 
L 29.53256 295.043168 
L 41.620548 295.043168 
L 41.620548 294.010595 
L 48.691568 294.010595 
L 48.691568 293.666404 
L 53.708537 293.666404 
L 53.708537 293.092752 
L 57.6 293.092752 
L 57.6 292.748561 
L 63.467834 292.748561 
L 63.467834 292.519101 
L 67.850577 292.519101 
L 67.850577 292.17491 
L 69.687988 292.17491 
L 69.687988 292.060179 
L 71.35013 292.060179 
L 71.35013 291.945449 
L 72.867545 291.945449 
L 72.867545 291.830719 
L 75.555822 291.830719 
L 75.555822 291.715988 
L 78.941764 291.715988 
L 78.941764 291.601258 
L 79.938565 291.601258 
L 79.938565 290.912876 
L 83.438118 290.912876 
L 83.438118 290.798146 
L 86.351421 290.798146 
L 86.351421 290.683415 
L 88.255778 290.683415 
L 88.255778 290.568685 
L 89.418828 290.568685 
L 89.418828 290.453955 
L 90.509138 290.453955 
L 90.509138 290.339224 
L 92.504372 290.339224 
L 92.504372 290.224494 
L 98.43941 290.224494 
L 98.43941 290.109764 
L 98.771596 290.109764 
L 98.771596 289.995033 
L 113.594805 289.995033 
L 113.594805 289.765573 
L 114.685115 289.765573 
L 114.685115 289.650842 
L 115.958621 289.650842 
L 115.958621 289.536112 
L 118.039942 289.536112 
L 118.039942 289.421381 
L 118.786692 289.421381 
L 118.786692 289.306651 
L 119.89914 289.306651 
L 119.89914 288.96246 
L 122.191052 288.96246 
L 122.191052 288.84773 
L 126.304457 288.84773 
L 126.304457 288.732999 
L 127.035353 288.732999 
L 127.035353 288.618269 
L 129.79784 288.618269 
L 129.79784 288.503539 
L 132.893889 288.503539 
L 132.893889 288.159348 
L 133.888106 288.159348 
L 133.888106 287.815157 
L 135.158519 287.815157 
L 135.158519 287.700426 
L 136.266147 287.700426 
L 136.266147 287.470966 
L 137.735587 287.470966 
L 137.735587 287.356235 
L 138.290362 287.356235 
L 138.290362 287.241505 
L 142.378651 287.241505 
L 142.378651 287.126775 
L 143.221802 287.126775 
L 143.221802 287.012044 
L 143.349938 287.012044 
L 143.375453 286.667853 
L 143.853271 286.667853 
L 143.853271 286.553123 
L 146.40993 286.553123 
L 146.40993 286.438393 
L 147.670154 286.438393 
L 147.670154 286.323662 
L 148.142046 286.323662 
L 148.142046 286.208932 
L 148.525764 286.208932 
L 148.525764 286.094202 
L 149.177602 286.094202 
L 149.177602 285.979471 
L 150.155097 285.979471 
L 150.155097 285.864741 
L 150.292822 285.864741 
L 150.292822 285.75001 
L 152.826082 285.75001 
L 152.826082 285.63528 
L 155.678822 285.63528 
L 155.678822 285.52055 
L 156.598505 285.52055 
L 156.598505 285.405819 
L 157.093102 285.405819 
L 157.093102 285.291089 
L 157.335239 285.291089 
L 157.335239 285.176359 
L 159.098062 285.176359 
L 159.098062 285.061628 
L 162.139074 285.061628 
L 162.139074 284.946898 
L 165.331666 284.946898 
L 165.331666 284.832168 
L 165.753633 284.832168 
L 165.753633 284.717437 
L 166.234507 284.717437 
L 166.234507 284.602707 
L 168.439892 284.602707 
L 168.439892 284.487977 
L 168.994323 284.487977 
L 168.994323 284.373246 
L 170.04743 284.373246 
L 170.04743 284.258516 
L 172.029522 284.258516 
L 172.029522 284.143786 
L 173.715403 284.143786 
L 173.737769 283.799595 
L 174.888124 283.799595 
L 174.888124 283.684864 
L 175.84885 283.684864 
L 175.84885 283.570134 
L 176.410073 283.570134 
L 176.410073 283.455404 
L 177.971858 283.455404 
L 177.971858 283.340673 
L 178.194861 283.340673 
L 178.194861 283.225943 
L 178.763676 283.225943 
L 178.763676 283.111213 
L 179.648977 283.111213 
L 179.648977 282.996482 
L 179.848502 282.996482 
L 179.879964 282.767022 
L 181.828921 282.767022 
L 181.828921 282.652291 
L 183.911683 282.652291 
L 183.911683 282.537561 
L 185.114038 282.537561 
L 185.146604 282.3081 
L 185.255491 282.3081 
L 185.255491 282.19337 
L 190.260331 282.19337 
L 190.260331 282.078639 
L 193.429484 282.078639 
L 193.429484 281.963909 
L 197.858897 281.963909 
L 197.858897 281.849179 
L 205.549241 281.849179 
L 205.549241 281.734448 
L 338.688 281.734448 
L 338.688 281.734448 
" style="fill:none;stroke:#0000ff;stroke-linecap:square;stroke-width:1.5;"/>
   </g>
   <g id="line2d_41">
    <defs>
     <path d="M 0 -6 
L -1.347084 -1.854102 
L -5.706339 -1.854102 
L -2.179628 0.708204 
L -3.526712 4.854102 
L -0 2.291796 
L 3.526712 4.854102 
L 2.179628 0.708204 
L 5.706339 -1.854102 
L 1.347084 -1.854102 
z
" id="m98241fc308" style="stroke:#0000ff;stroke-linejoin:bevel;stroke-width:1.5;"/>
    </defs>
    <g>
     <use style="fill-opacity:0;stroke:#0000ff;stroke-linejoin:bevel;stroke-width:1.5;" x="79.938565" xlink:href="#m98241fc308" y="291.601258"/>
     <use style="fill-opacity:0;stroke:#0000ff;stroke-linejoin:bevel;stroke-width:1.5;" x="138.290362" xlink:href="#m98241fc308" y="287.241505"/>
     <use style="fill-opacity:0;stroke:#0000ff;stroke-linejoin:bevel;stroke-width:1.5;" x="205.549241" xlink:href="#m98241fc308" y="281.849179"/>
     <use style="fill-opacity:0;stroke:#0000ff;stroke-linejoin:bevel;stroke-width:1.5;" x="205.549241" xlink:href="#m98241fc308" y="281.734448"/>
     <use style="fill-opacity:0;stroke:#0000ff;stroke-linejoin:bevel;stroke-width:1.5;" x="205.549241" xlink:href="#m98241fc308" y="281.734448"/>
     <use style="fill-opacity:0;stroke:#0000ff;stroke-linejoin:bevel;stroke-width:1.5;" x="338.688" xlink:href="#m98241fc308" y="281.734448"/>
    </g>
   </g>
   <g id="line2d_42">
    <path style="fill:none;stroke:#0000ff;stroke-linecap:square;stroke-width:1.5;"/>
    <g/>
   </g>
   <g id="line2d_43">
    <path clip-path="url(#pca33c1c939)" d="M 138.049816 287.356235 
" style="fill:none;stroke:#0000ff;stroke-linecap:square;stroke-width:1.5;"/>
    <defs>
     <path d="M -12 12 
L 12 -12 
M -12 -12 
L 12 12 
" id="me5f93658a4" style="stroke:#0000ff;"/>
    </defs>
    <g clip-path="url(#pca33c1c939)">
     <use style="fill:#0000ff;stroke:#0000ff;" x="138.049816" xlink:href="#me5f93658a4" y="287.356235"/>
    </g>
   </g>
   <g id="line2d_44">
    <defs>
     <path d="M 0 1.5 
C 0.397805 1.5 0.77937 1.341951 1.06066 1.06066 
C 1.341951 0.77937 1.5 0.397805 1.5 0 
C 1.5 -0.397805 1.341951 -0.77937 1.06066 -1.06066 
C 0.77937 -1.341951 0.397805 -1.5 0 -1.5 
C -0.397805 -1.5 -0.77937 -1.341951 -1.06066 -1.06066 
C -1.341951 -0.77937 -1.5 -0.397805 -1.5 0 
C -1.5 0.397805 -1.341951 0.77937 -1.06066 1.06066 
C -0.77937 1.341951 -0.397805 1.5 0 1.5 
z
" id="m6796385561" style="stroke:#000000;"/>
    </defs>
    <g>
     <use style="stroke:#000000;" x="206.175878" xlink:href="#m6796385561" y="286.323662"/>
     <use style="stroke:#000000;" x="206.175878" xlink:href="#m6796385561" y="286.323662"/>
    </g>
   </g>
   <g id="line2d_45">
    <path d="M 17.444571 298.944 
L 17.444571 296.190472 
L 29.53256 296.190472 
L 29.53256 295.50209 
L 36.60358 295.50209 
L 36.60358 295.272629 
L 41.620548 295.272629 
L 41.620548 295.157899 
L 45.512012 295.157899 
L 45.512012 295.043168 
L 48.691568 295.043168 
L 48.691568 294.928438 
L 55.762588 294.928438 
L 55.762588 294.813708 
L 59.262141 294.813708 
L 59.262141 294.698977 
L 60.779557 294.698977 
L 60.779557 294.469517 
L 64.67102 294.469517 
L 64.67102 294.240056 
L 67.850577 294.240056 
L 67.850577 294.125326 
L 80.881459 294.125326 
L 80.881459 294.010595 
L 83.037197 294.010595 
L 83.037197 293.895865 
L 90.242884 293.895865 
L 90.242884 293.781135 
L 96.489848 293.781135 
L 96.489848 293.666404 
L 97.224242 293.666404 
L 97.224242 293.551674 
L 99.575392 293.551674 
L 99.575392 293.436944 
L 102.728744 293.436944 
L 102.728744 293.322213 
L 102.859376 293.322213 
L 102.859376 293.207483 
L 105.842616 293.207483 
L 105.842616 293.092752 
L 111.819788 293.092752 
L 111.819788 292.978022 
L 112.204777 292.978022 
L 112.204777 292.863292 
L 114.485807 292.863292 
L 114.485807 292.748561 
L 116.38325 292.748561 
L 116.38325 292.633831 
L 117.598418 292.633831 
L 117.598418 292.519101 
L 122.362027 292.519101 
L 122.362027 292.40437 
L 123.829748 292.40437 
L 123.829748 292.28964 
L 125.110962 292.28964 
L 125.110962 292.17491 
L 126.133984 292.17491 
L 126.133984 292.060179 
L 129.06046 292.060179 
L 129.06046 291.945449 
L 130.155159 291.945449 
L 130.155159 291.830719 
L 134.019394 291.830719 
L 134.019394 291.715988 
L 134.534878 291.715988 
L 134.534878 291.601258 
L 135.117629 291.601258 
L 135.117629 291.486528 
L 136.5324 291.486528 
L 136.5324 291.371797 
L 136.850337 291.371797 
L 136.850337 291.142337 
L 138.118883 291.142337 
L 138.170504 290.912876 
L 139.77789 290.912876 
L 139.77789 290.798146 
L 140.011351 290.798146 
L 140.088482 290.568685 
L 141.45 290.568685 
L 141.46423 290.339224 
L 148.190475 290.339224 
L 148.190475 290.224494 
L 148.468742 290.224494 
L 148.468742 290.109764 
L 149.521512 290.109764 
L 149.548376 289.880303 
L 151.203194 289.880303 
L 151.203194 289.765573 
L 151.920633 289.765573 
L 151.920633 289.650842 
L 153.862384 289.650842 
L 153.862384 289.536112 
L 154.008494 289.536112 
L 154.008494 289.421381 
L 155.953659 289.421381 
L 155.953659 289.306651 
L 156.741256 289.306651 
L 156.741256 289.191921 
L 157.837488 289.191921 
L 157.837488 289.07719 
L 159.708245 289.07719 
L 159.708245 288.96246 
L 161.210663 288.96246 
L 161.210663 288.84773 
L 161.876297 288.84773 
L 161.902754 288.618269 
L 162.728843 288.618269 
L 162.728843 288.503539 
L 164.171861 288.503539 
L 164.171861 288.388808 
L 168.620674 288.388808 
L 168.620674 288.274078 
L 172.257297 288.274078 
L 172.257297 288.159348 
L 174.107114 288.159348 
L 174.107114 288.044617 
L 176.145353 288.044617 
L 176.145353 287.929887 
L 176.736832 287.929887 
L 176.736832 287.815157 
L 178.024381 287.815157 
L 178.024381 287.700426 
L 179.712566 287.700426 
L 179.712566 287.585696 
L 180.53545 287.585696 
L 180.53545 287.470966 
L 183.920412 287.470966 
L 183.920412 287.356235 
L 185.125676 287.356235 
L 185.125676 287.241505 
L 186.25736 287.241505 
L 186.25736 287.126775 
L 188.17874 287.126775 
L 188.17874 287.012044 
L 190.172576 287.012044 
L 190.172576 286.897314 
L 191.020911 286.897314 
L 191.020911 286.782584 
L 198.922279 286.782584 
L 198.922279 286.667853 
L 199.435213 286.667853 
L 199.435213 286.553123 
L 204.341211 286.553123 
L 204.341211 286.438393 
L 206.175878 286.438393 
L 206.175878 286.323662 
L 338.688 286.323662 
L 338.688 286.323662 
" style="fill:none;stroke:#000000;stroke-linecap:square;stroke-width:1.5;"/>
   </g>
   <g id="line2d_46">
    <defs>
     <path d="M 0 6 
C 1.591219 6 3.117479 5.367802 4.242641 4.242641 
C 5.367802 3.117479 6 1.591219 6 0 
C 6 -1.591219 5.367802 -3.117479 4.242641 -4.242641 
C 3.117479 -5.367802 1.591219 -6 0 -6 
C -1.591219 -6 -3.117479 -5.367802 -4.242641 -4.242641 
C -5.367802 -3.117479 -6 -1.591219 -6 0 
C -6 1.591219 -5.367802 3.117479 -4.242641 4.242641 
C -3.117479 5.367802 -1.591219 6 0 6 
z
" id="m7023c3e7b9" style="stroke:#000000;stroke-width:1.5;"/>
    </defs>
    <g>
     <use style="fill-opacity:0;stroke:#000000;stroke-width:1.5;" x="112.204777" xlink:href="#m7023c3e7b9" y="292.863292"/>
     <use style="fill-opacity:0;stroke:#000000;stroke-width:1.5;" x="178.024381" xlink:href="#m7023c3e7b9" y="287.815157"/>
     <use style="fill-opacity:0;stroke:#000000;stroke-width:1.5;" x="206.175878" xlink:href="#m7023c3e7b9" y="286.438393"/>
     <use style="fill-opacity:0;stroke:#000000;stroke-width:1.5;" x="206.175878" xlink:href="#m7023c3e7b9" y="286.323662"/>
     <use style="fill-opacity:0;stroke:#000000;stroke-width:1.5;" x="206.175878" xlink:href="#m7023c3e7b9" y="286.323662"/>
     <use style="fill-opacity:0;stroke:#000000;stroke-width:1.5;" x="338.688" xlink:href="#m7023c3e7b9" y="286.323662"/>
    </g>
   </g>
   <g id="line2d_47">
    <path style="fill:none;stroke:#000000;stroke-linecap:square;stroke-width:1.5;"/>
    <g/>
   </g>
   <g id="line2d_48">
    <path clip-path="url(#pca33c1c939)" d="M 137.980475 291.142337 
" style="fill:none;stroke:#000000;stroke-linecap:square;stroke-width:1.5;"/>
    <defs>
     <path d="M -12 12 
L 12 -12 
M -12 -12 
L 12 12 
" id="m8c24453930" style="stroke:#000000;"/>
    </defs>
    <g clip-path="url(#pca33c1c939)">
     <use style="stroke:#000000;" x="137.980475" xlink:href="#m8c24453930" y="291.142337"/>
    </g>
   </g>
   <g id="line2d_49">
    <defs>
     <path d="M 0 1.5 
C 0.397805 1.5 0.77937 1.341951 1.06066 1.06066 
C 1.341951 0.77937 1.5 0.397805 1.5 0 
C 1.5 -0.397805 1.341951 -0.77937 1.06066 -1.06066 
C 0.77937 -1.341951 0.397805 -1.5 0 -1.5 
C -0.397805 -1.5 -0.77937 -1.341951 -1.06066 -1.06066 
C -1.341951 -0.77937 -1.5 -0.397805 -1.5 0 
C -1.5 0.397805 -1.341951 0.77937 -1.06066 1.06066 
C -0.77937 1.341951 -0.397805 1.5 0 1.5 
z
" id="m16a7901489" style="stroke:#ff0000;"/>
    </defs>
    <g>
     <use style="fill:#ff0000;stroke:#ff0000;" x="167.957782" xlink:href="#m16a7901489" y="293.207483"/>
     <use style="fill:#ff0000;stroke:#ff0000;" x="167.957782" xlink:href="#m16a7901489" y="293.207483"/>
    </g>
   </g>
   <g id="line2d_50">
    <path d="M 5.356583 298.944 
L 5.356583 296.649393 
L 17.444571 296.649393 
L 17.444571 296.305202 
L 24.515591 296.305202 
L 24.515591 296.190472 
L 29.53256 296.190472 
L 29.53256 296.075741 
L 39.291857 296.075741 
L 39.291857 295.961011 
L 60.779557 295.961011 
L 60.779557 295.846281 
L 62.175444 295.846281 
L 62.175444 295.73155 
L 68.328395 295.73155 
L 68.328395 295.61682 
L 79.447285 295.61682 
L 79.447285 295.50209 
L 80.650472 295.50209 
L 80.650472 295.387359 
L 81.334453 295.387359 
L 81.334453 295.272629 
L 89.277618 295.272629 
L 89.277618 295.043168 
L 94.818328 295.043168 
L 94.818328 294.928438 
L 103.870632 294.928438 
L 103.870632 294.813708 
L 104.114542 294.813708 
L 104.114542 294.698977 
L 107.111487 294.698977 
L 107.111487 294.584247 
L 119.326492 294.584247 
L 119.326492 294.469517 
L 121.105591 294.469517 
L 121.105591 294.354786 
L 128.709321 294.354786 
L 128.709321 294.240056 
L 133.159262 294.240056 
L 133.159262 294.125326 
L 138.578062 294.125326 
L 138.578062 294.010595 
L 138.984513 294.010595 
L 138.984513 293.895865 
L 157.582528 293.895865 
L 157.582528 293.781135 
L 161.042523 293.781135 
L 161.042523 293.666404 
L 167.164734 293.666404 
L 167.164734 293.551674 
L 167.951554 293.551674 
L 167.951554 293.436944 
L 167.953111 293.436944 
L 167.953111 293.322213 
L 167.957782 293.322213 
L 167.957782 293.207483 
L 338.688 293.207483 
" style="fill:none;stroke:#ff0000;stroke-linecap:square;stroke-width:1.5;"/>
   </g>
   <g id="line2d_51">
    <defs>
     <path d="M -6 6 
L 6 6 
L 6 -6 
L -6 -6 
z
" id="mb827d7f328" style="stroke:#ff0000;stroke-linejoin:miter;stroke-width:1.5;"/>
    </defs>
    <g>
     <use style="fill-opacity:0;stroke:#ff0000;stroke-linejoin:miter;stroke-width:1.5;" x="89.277618" xlink:href="#mb827d7f328" y="295.272629"/>
     <use style="fill-opacity:0;stroke:#ff0000;stroke-linejoin:miter;stroke-width:1.5;" x="167.957782" xlink:href="#mb827d7f328" y="293.322213"/>
     <use style="fill-opacity:0;stroke:#ff0000;stroke-linejoin:miter;stroke-width:1.5;" x="167.957782" xlink:href="#mb827d7f328" y="293.207483"/>
     <use style="fill-opacity:0;stroke:#ff0000;stroke-linejoin:miter;stroke-width:1.5;" x="167.957782" xlink:href="#mb827d7f328" y="293.207483"/>
     <use style="fill-opacity:0;stroke:#ff0000;stroke-linejoin:miter;stroke-width:1.5;" x="167.957782" xlink:href="#mb827d7f328" y="293.207483"/>
     <use style="fill-opacity:0;stroke:#ff0000;stroke-linejoin:miter;stroke-width:1.5;" x="338.688" xlink:href="#mb827d7f328" y="293.207483"/>
    </g>
   </g>
   <g id="line2d_52">
    <path style="fill:none;stroke:#ff0000;stroke-linecap:square;stroke-width:1.5;"/>
    <g/>
   </g>
   <g id="line2d_53">
    <path clip-path="url(#pca33c1c939)" d="M 137.936996 294.125326 
" style="fill:none;stroke:#ff0000;stroke-linecap:square;stroke-width:1.5;"/>
    <defs>
     <path d="M -12 12 
L 12 -12 
M -12 -12 
L 12 12 
" id="m0d5fbc048e" style="stroke:#ff0000;"/>
    </defs>
    <g clip-path="url(#pca33c1c939)">
     <use style="fill:#ff0000;stroke:#ff0000;" x="137.936996" xlink:href="#m0d5fbc048e" y="294.125326"/>
    </g>
   </g>
   <g id="line2d_54">
    <defs>
     <path d="M 0 1.5 
C 0.397805 1.5 0.77937 1.341951 1.06066 1.06066 
C 1.341951 0.77937 1.5 0.397805 1.5 0 
C 1.5 -0.397805 1.341951 -0.77937 1.06066 -1.06066 
C 0.77937 -1.341951 0.397805 -1.5 0 -1.5 
C -0.397805 -1.5 -0.77937 -1.341951 -1.06066 -1.06066 
C -1.341951 -0.77937 -1.5 -0.397805 -1.5 0 
C -1.5 0.397805 -1.341951 0.77937 -1.06066 1.06066 
C -0.77937 1.341951 -0.397805 1.5 0 1.5 
z
" id="m0854a0c1e1" style="stroke:#bf00bf;"/>
    </defs>
    <g>
     <use style="fill:#bf00bf;stroke:#bf00bf;" x="191.577774" xlink:href="#m0854a0c1e1" y="295.50209"/>
     <use style="fill:#bf00bf;stroke:#bf00bf;" x="191.577774" xlink:href="#m0854a0c1e1" y="295.50209"/>
    </g>
   </g>
   <g id="line2d_55">
    <path d="M -1 298.485079 
L 5.356583 298.485079 
L 5.356583 298.026157 
L 12.427603 298.026157 
L 12.427603 297.796697 
L 21.336035 297.796697 
L 21.336035 297.681966 
L 24.515591 297.681966 
L 24.515591 297.567236 
L 39.291857 297.567236 
L 39.291857 297.452506 
L 53.708537 297.452506 
L 53.708537 297.337775 
L 71.150821 297.337775 
L 71.150821 297.223045 
L 81.666639 297.223045 
L 81.666639 297.108315 
L 94.921215 297.108315 
L 94.921215 296.993584 
L 102.630124 296.993584 
L 102.630124 296.878854 
L 108.507375 296.878854 
L 108.507375 296.764123 
L 131.465029 296.764123 
L 131.465029 296.649393 
L 137.971788 296.649393 
L 137.971788 296.534663 
L 147.072061 296.534663 
L 147.072061 296.419932 
L 148.163856 296.419932 
L 148.163856 296.305202 
L 165.261849 296.305202 
L 165.261849 296.190472 
L 171.066621 296.190472 
L 171.066621 296.075741 
L 173.738887 296.075741 
L 173.738887 295.961011 
L 173.740004 295.961011 
L 173.740004 295.846281 
L 175.630638 295.846281 
L 175.630638 295.73155 
L 187.120163 295.73155 
L 187.120163 295.61682 
L 191.577774 295.61682 
L 191.577774 295.50209 
L 338.688 295.50209 
" style="fill:none;stroke:#bf00bf;stroke-linecap:square;stroke-width:1.5;"/>
   </g>
   <g id="line2d_56">
    <defs>
     <path d="M 0 8.485281 
L 8.485281 0 
L 0 -8.485281 
L -8.485281 0 
z
" id="medf29049a4" style="stroke:#bf00bf;stroke-linejoin:miter;stroke-width:1.5;"/>
    </defs>
    <g>
     <use style="fill-opacity:0;stroke:#bf00bf;stroke-linejoin:miter;stroke-width:1.5;" x="81.666639" xlink:href="#medf29049a4" y="297.223045"/>
     <use style="fill-opacity:0;stroke:#bf00bf;stroke-linejoin:miter;stroke-width:1.5;" x="137.971788" xlink:href="#medf29049a4" y="296.534663"/>
     <use style="fill-opacity:0;stroke:#bf00bf;stroke-linejoin:miter;stroke-width:1.5;" x="191.577774" xlink:href="#medf29049a4" y="295.61682"/>
     <use style="fill-opacity:0;stroke:#bf00bf;stroke-linejoin:miter;stroke-width:1.5;" x="191.577774" xlink:href="#medf29049a4" y="295.50209"/>
     <use style="fill-opacity:0;stroke:#bf00bf;stroke-linejoin:miter;stroke-width:1.5;" x="191.577774" xlink:href="#medf29049a4" y="295.50209"/>
     <use style="fill-opacity:0;stroke:#bf00bf;stroke-linejoin:miter;stroke-width:1.5;" x="338.688" xlink:href="#medf29049a4" y="295.50209"/>
    </g>
   </g>
   <g id="line2d_57">
    <path style="fill:none;stroke:#bf00bf;stroke-linecap:square;stroke-width:1.5;"/>
    <g/>
   </g>
   <g id="line2d_58">
    <path clip-path="url(#pca33c1c939)" d="M 137.923932 296.649393 
" style="fill:none;stroke:#bf00bf;stroke-linecap:square;stroke-width:1.5;"/>
    <defs>
     <path d="M -12 12 
L 12 -12 
M -12 -12 
L 12 12 
" id="m6462506ef7" style="stroke:#bf00bf;"/>
    </defs>
    <g clip-path="url(#pca33c1c939)">
     <use style="fill:#bf00bf;stroke:#bf00bf;" x="137.923932" xlink:href="#m6462506ef7" y="296.649393"/>
    </g>
   </g>
   <g id="line2d_59">
    <path d="M 338.688 295.50209 
L 369.60768 293.092752 
" style="fill:none;stroke:#bf00bf;stroke-linecap:square;stroke-width:1.5;"/>
    <g>
     <use style="fill-opacity:0;stroke:#bf00bf;stroke-linejoin:miter;stroke-width:1.5;" x="338.688" xlink:href="#medf29049a4" y="295.50209"/>
     <use style="fill-opacity:0;stroke:#bf00bf;stroke-linejoin:miter;stroke-width:1.5;" x="369.60768" xlink:href="#medf29049a4" y="293.092752"/>
    </g>
   </g>
   <g id="line2d_60">
    <path d="M 338.688 293.207483 
L 369.60768 236.920776 
" style="fill:none;stroke:#ff0000;stroke-linecap:square;stroke-width:1.5;"/>
    <g>
     <use style="fill-opacity:0;stroke:#ff0000;stroke-linejoin:miter;stroke-width:1.5;" x="338.688" xlink:href="#mb827d7f328" y="293.207483"/>
     <use style="fill-opacity:0;stroke:#ff0000;stroke-linejoin:miter;stroke-width:1.5;" x="369.60768" xlink:href="#mb827d7f328" y="236.920776"/>
    </g>
   </g>
   <g id="line2d_61">
    <path d="M 338.688 286.323662 
L 369.60768 180.7488 
" style="fill:none;stroke:#000000;stroke-linecap:square;stroke-width:1.5;"/>
    <g>
     <use style="fill-opacity:0;stroke:#000000;stroke-width:1.5;" x="338.688" xlink:href="#m7023c3e7b9" y="286.323662"/>
     <use style="fill-opacity:0;stroke:#000000;stroke-width:1.5;" x="369.60768" xlink:href="#m7023c3e7b9" y="180.7488"/>
    </g>
   </g>
   <g id="line2d_62">
    <path d="M 338.688 281.734448 
L 369.60768 124.576824 
" style="fill:none;stroke:#0000ff;stroke-linecap:square;stroke-width:1.5;"/>
    <g>
     <use style="fill-opacity:0;stroke:#0000ff;stroke-linejoin:bevel;stroke-width:1.5;" x="338.688" xlink:href="#m98241fc308" y="281.734448"/>
     <use style="fill-opacity:0;stroke:#0000ff;stroke-linejoin:bevel;stroke-width:1.5;" x="369.60768" xlink:href="#m98241fc308" y="124.576824"/>
    </g>
   </g>
   <g id="line2d_63">
    <path d="M 338.688 266.819504 
L 369.60768 68.404848 
" style="fill:none;stroke:#008000;stroke-linecap:square;stroke-width:1.5;"/>
    <g>
     <use style="fill-opacity:0;stroke:#008000;stroke-linejoin:miter;stroke-width:1.5;" x="338.688" xlink:href="#mefe4b859f6" y="266.819504"/>
     <use style="fill-opacity:0;stroke:#008000;stroke-linejoin:miter;stroke-width:1.5;" x="369.60768" xlink:href="#mefe4b859f6" y="68.404848"/>
    </g>
   </g>
   <g id="line2d_64">
    <path d="M 338.688 235.842311 
L 369.60768 12.232871 
" style="fill:none;stroke:#00bfbf;stroke-linecap:square;stroke-width:1.5;"/>
    <g>
     <use style="fill-opacity:0;stroke:#00bfbf;stroke-width:1.5;" x="338.688" xlink:href="#mc733fbb379" y="235.842311"/>
     <use style="fill-opacity:0;stroke:#00bfbf;stroke-width:1.5;" x="369.60768" xlink:href="#mc733fbb379" y="12.232871"/>
    </g>
   </g>
   <g id="line2d_65">
    <path d="M 338.688 298.944 
L 338.688 6.381624 
" style="fill:none;stroke:#000000;stroke-linecap:square;stroke-width:1.5;"/>
   </g>
   <g id="patch_3">
    <path d="M 57.6 298.944 
L 57.6 3.456 
" style="fill:none;stroke:#000000;stroke-linecap:square;stroke-linejoin:miter;stroke-width:0.8;"/>
   </g>
   <g id="patch_4">
    <path d="M 338.688 298.944 
L 338.688 3.456 
" style="fill:none;stroke:#000000;stroke-linecap:square;stroke-linejoin:miter;stroke-width:0.8;"/>
   </g>
   <g id="patch_5">
    <path d="M 57.6 298.944 
L 338.688 298.944 
" style="fill:none;stroke:#000000;stroke-linecap:square;stroke-linejoin:miter;stroke-width:0.8;"/>
   </g>
   <g id="patch_6">
    <path d="M 57.6 3.456 
L 338.688 3.456 
" style="fill:none;stroke:#000000;stroke-linecap:square;stroke-linejoin:miter;stroke-width:0.8;"/>
   </g>
   <g id="text_13">
    <!-- 40-D -->
    <g transform="translate(375.22944 297.78369)scale(0.17 -0.17)">
     <defs>
      <path d="M 1259 4147 
L 1259 519 
L 2022 519 
Q 2988 519 3436 956 
Q 3884 1394 3884 2338 
Q 3884 3275 3436 3711 
Q 2988 4147 2022 4147 
L 1259 4147 
z
M 628 4666 
L 1925 4666 
Q 3281 4666 3915 4102 
Q 4550 3538 4550 2338 
Q 4550 1131 3912 565 
Q 3275 0 1925 0 
L 628 0 
L 628 4666 
z
" id="DejaVuSans-44" transform="scale(0.015625)"/>
     </defs>
     <use xlink:href="#DejaVuSans-34"/>
     <use x="63.623047" xlink:href="#DejaVuSans-30"/>
     <use x="127.246094" xlink:href="#DejaVuSans-2d"/>
     <use x="163.330078" xlink:href="#DejaVuSans-44"/>
    </g>
   </g>
   <g id="text_14">
    <!-- 20-D -->
    <g transform="translate(375.22944 241.611714)scale(0.17 -0.17)">
     <use xlink:href="#DejaVuSans-32"/>
     <use x="63.623047" xlink:href="#DejaVuSans-30"/>
     <use x="127.246094" xlink:href="#DejaVuSans-2d"/>
     <use x="163.330078" xlink:href="#DejaVuSans-44"/>
    </g>
   </g>
   <g id="text_15">
    <!-- 10-D -->
    <g transform="translate(375.22944 185.439737)scale(0.17 -0.17)">
     <use xlink:href="#DejaVuSans-31"/>
     <use x="63.623047" xlink:href="#DejaVuSans-30"/>
     <use x="127.246094" xlink:href="#DejaVuSans-2d"/>
     <use x="163.330078" xlink:href="#DejaVuSans-44"/>
    </g>
   </g>
   <g id="text_16">
    <!-- 5-D -->
    <g transform="translate(375.22944 129.267761)scale(0.17 -0.17)">
     <defs>
      <path d="M 691 4666 
L 3169 4666 
L 3169 4134 
L 1269 4134 
L 1269 2991 
Q 1406 3038 1543 3061 
Q 1681 3084 1819 3084 
Q 2600 3084 3056 2656 
Q 3513 2228 3513 1497 
Q 3513 744 3044 326 
Q 2575 -91 1722 -91 
Q 1428 -91 1123 -41 
Q 819 9 494 109 
L 494 744 
Q 775 591 1075 516 
Q 1375 441 1709 441 
Q 2250 441 2565 725 
Q 2881 1009 2881 1497 
Q 2881 1984 2565 2268 
Q 2250 2553 1709 2553 
Q 1456 2553 1204 2497 
Q 953 2441 691 2322 
L 691 4666 
z
" id="DejaVuSans-35" transform="scale(0.015625)"/>
     </defs>
     <use xlink:href="#DejaVuSans-35"/>
     <use x="63.623047" xlink:href="#DejaVuSans-2d"/>
     <use x="99.707031" xlink:href="#DejaVuSans-44"/>
    </g>
   </g>
   <g id="text_17">
    <!-- 3-D -->
    <g transform="translate(375.22944 73.095785)scale(0.17 -0.17)">
     <defs>
      <path d="M 2597 2516 
Q 3050 2419 3304 2112 
Q 3559 1806 3559 1356 
Q 3559 666 3084 287 
Q 2609 -91 1734 -91 
Q 1441 -91 1130 -33 
Q 819 25 488 141 
L 488 750 
Q 750 597 1062 519 
Q 1375 441 1716 441 
Q 2309 441 2620 675 
Q 2931 909 2931 1356 
Q 2931 1769 2642 2001 
Q 2353 2234 1838 2234 
L 1294 2234 
L 1294 2753 
L 1863 2753 
Q 2328 2753 2575 2939 
Q 2822 3125 2822 3475 
Q 2822 3834 2567 4026 
Q 2313 4219 1838 4219 
Q 1578 4219 1281 4162 
Q 984 4106 628 3988 
L 628 4550 
Q 988 4650 1302 4700 
Q 1616 4750 1894 4750 
Q 2613 4750 3031 4423 
Q 3450 4097 3450 3541 
Q 3450 3153 3228 2886 
Q 3006 2619 2597 2516 
z
" id="DejaVuSans-33" transform="scale(0.015625)"/>
     </defs>
     <use xlink:href="#DejaVuSans-33"/>
     <use x="63.623047" xlink:href="#DejaVuSans-2d"/>
     <use x="99.707031" xlink:href="#DejaVuSans-44"/>
    </g>
   </g>
   <g id="text_18">
    <!-- 2-D -->
    <g transform="translate(375.22944 16.923809)scale(0.17 -0.17)">
     <use xlink:href="#DejaVuSans-32"/>
     <use x="63.623047" xlink:href="#DejaVuSans-2d"/>
     <use x="99.707031" xlink:href="#DejaVuSans-44"/>
    </g>
   </g>
   <g id="text_19">
    <!-- bbob f10-f14 -->
    <g transform="translate(60.41088 14.161286)scale(0.102 -0.102)">
     <defs>
      <path d="M 3116 1747 
Q 3116 2381 2855 2742 
Q 2594 3103 2138 3103 
Q 1681 3103 1420 2742 
Q 1159 2381 1159 1747 
Q 1159 1113 1420 752 
Q 1681 391 2138 391 
Q 2594 391 2855 752 
Q 3116 1113 3116 1747 
z
M 1159 2969 
Q 1341 3281 1617 3432 
Q 1894 3584 2278 3584 
Q 2916 3584 3314 3078 
Q 3713 2572 3713 1747 
Q 3713 922 3314 415 
Q 2916 -91 2278 -91 
Q 1894 -91 1617 61 
Q 1341 213 1159 525 
L 1159 0 
L 581 0 
L 581 4863 
L 1159 4863 
L 1159 2969 
z
" id="DejaVuSans-62" transform="scale(0.015625)"/>
     </defs>
     <use xlink:href="#DejaVuSans-62"/>
     <use x="63.476562" xlink:href="#DejaVuSans-62"/>
     <use x="126.953125" xlink:href="#DejaVuSans-6f"/>
     <use x="188.134766" xlink:href="#DejaVuSans-62"/>
     <use x="251.611328" xlink:href="#DejaVuSans-20"/>
     <use x="283.398438" xlink:href="#DejaVuSans-66"/>
     <use x="318.603516" xlink:href="#DejaVuSans-31"/>
     <use x="382.226562" xlink:href="#DejaVuSans-30"/>
     <use x="445.849609" xlink:href="#DejaVuSans-2d"/>
     <use x="481.933594" xlink:href="#DejaVuSans-66"/>
     <use x="517.138672" xlink:href="#DejaVuSans-31"/>
     <use x="580.761719" xlink:href="#DejaVuSans-34"/>
    </g>
    <!-- 51 targets: 100..1e-08 -->
    <g transform="translate(60.41088 25.583055)scale(0.102 -0.102)">
     <defs>
      <path d="M 750 794 
L 1409 794 
L 1409 0 
L 750 0 
L 750 794 
z
M 750 3309 
L 1409 3309 
L 1409 2516 
L 750 2516 
L 750 3309 
z
" id="DejaVuSans-3a" transform="scale(0.015625)"/>
     </defs>
     <use xlink:href="#DejaVuSans-35"/>
     <use x="63.623047" xlink:href="#DejaVuSans-31"/>
     <use x="127.246094" xlink:href="#DejaVuSans-20"/>
     <use x="159.033203" xlink:href="#DejaVuSans-74"/>
     <use x="198.242188" xlink:href="#DejaVuSans-61"/>
     <use x="259.521484" xlink:href="#DejaVuSans-72"/>
     <use x="298.884766" xlink:href="#DejaVuSans-67"/>
     <use x="362.361328" xlink:href="#DejaVuSans-65"/>
     <use x="423.884766" xlink:href="#DejaVuSans-74"/>
     <use x="463.09375" xlink:href="#DejaVuSans-73"/>
     <use x="515.193359" xlink:href="#DejaVuSans-3a"/>
     <use x="548.884766" xlink:href="#DejaVuSans-20"/>
     <use x="580.671875" xlink:href="#DejaVuSans-31"/>
     <use x="644.294922" xlink:href="#DejaVuSans-30"/>
     <use x="707.917969" xlink:href="#DejaVuSans-30"/>
     <use x="771.541016" xlink:href="#DejaVuSans-2e"/>
     <use x="803.328125" xlink:href="#DejaVuSans-2e"/>
     <use x="835.115234" xlink:href="#DejaVuSans-31"/>
     <use x="898.738281" xlink:href="#DejaVuSans-65"/>
     <use x="960.261719" xlink:href="#DejaVuSans-2d"/>
     <use x="996.345703" xlink:href="#DejaVuSans-30"/>
     <use x="1059.96875" xlink:href="#DejaVuSans-38"/>
    </g>
    <!-- 15 instances -->
    <g transform="translate(60.41088 37.004824)scale(0.102 -0.102)">
     <use xlink:href="#DejaVuSans-31"/>
     <use x="63.623047" xlink:href="#DejaVuSans-35"/>
     <use x="127.246094" xlink:href="#DejaVuSans-20"/>
     <use x="159.033203" xlink:href="#DejaVuSans-69"/>
     <use x="186.816406" xlink:href="#DejaVuSans-6e"/>
     <use x="250.195312" xlink:href="#DejaVuSans-73"/>
     <use x="302.294922" xlink:href="#DejaVuSans-74"/>
     <use x="341.503906" xlink:href="#DejaVuSans-61"/>
     <use x="402.783203" xlink:href="#DejaVuSans-6e"/>
     <use x="466.162109" xlink:href="#DejaVuSans-63"/>
     <use x="521.142578" xlink:href="#DejaVuSans-65"/>
     <use x="582.666016" xlink:href="#DejaVuSans-73"/>
    </g>
   </g>
   <g id="text_20">
    <!-- v2.4 -->
    <g style="fill:#808080;" transform="translate(187.233062 293.909432)scale(0.1 -0.1)">
     <use xlink:href="#DejaVuSans-76"/>
     <use x="59.179688" xlink:href="#DejaVuSans-32"/>
     <use x="122.802734" xlink:href="#DejaVuSans-2e"/>
     <use x="154.589844" xlink:href="#DejaVuSans-34"/>
    </g>
   </g>
  </g>
 </g>
 <defs>
  <clipPath id="pca33c1c939">
   <rect height="295.488" width="281.088" x="57.6" y="3.456"/>
  </clipPath>
 </defs>
</svg>
