<?xml version="1.0" encoding="utf-8" standalone="no"?>
<!DOCTYPE svg PUBLIC "-//W3C//DTD SVG 1.1//EN"
  "http://www.w3.org/Graphics/SVG/1.1/DTD/svg11.dtd">
<svg height="345.6pt" version="1.1" viewBox="0 0 460.8 345.6" width="460.8pt" xmlns="http://www.w3.org/2000/svg" xmlns:xlink="http://www.w3.org/1999/xlink">
 <metadata>
  <rdf:RDF xmlns:cc="http://creativecommons.org/ns#" xmlns:dc="http://purl.org/dc/elements/1.1/" xmlns:rdf="http://www.w3.org/1999/02/22-rdf-syntax-ns#">
   <cc:Work>
    <dc:type rdf:resource="http://purl.org/dc/dcmitype/StillImage"/>
    <dc:date>2021-06-14T12:33:46.080194</dc:date>
    <dc:format>image/svg+xml</dc:format>
    <dc:creator>
     <cc:Agent>
      <dc:title>Matplotlib v3.4.2, https://matplotlib.org/</dc:title>
     </cc:Agent>
    </dc:creator>
   </cc:Work>
  </rdf:RDF>
 </metadata>
 <defs>
  <style type="text/css">*{stroke-linecap:butt;stroke-linejoin:round;}</style>
 </defs>
 <g id="figure_1">
  <g id="patch_1">
   <path d="M 0 345.6 
L 460.8 345.6 
L 460.8 0 
L 0 0 
z
" style="fill:#ffffff;"/>
  </g>
  <g id="axes_1">
   <g id="patch_2">
    <path d="M 57.6 298.944 
L 338.688 298.944 
L 338.688 3.456 
L 57.6 3.456 
z
" style="fill:#ffffff;"/>
   </g>
   <g id="matplotlib.axis_1">
    <g id="xtick_1">
     <g id="line2d_1">
      <path clip-path="url(#p6cf9947767)" d="M 57.6 298.944 
L 57.6 3.456 
" style="fill:none;stroke:#b0b0b0;stroke-linecap:square;stroke-width:0.8;"/>
     </g>
     <g id="line2d_2">
      <defs>
       <path d="M 0 0 
L 0 3.5 
" id="mc9b6369dc4" style="stroke:#000000;stroke-width:0.8;"/>
      </defs>
      <g>
       <use style="stroke:#000000;stroke-width:0.8;" x="57.6" xlink:href="#mc9b6369dc4" y="298.944"/>
      </g>
     </g>
     <g id="text_1">
      <!-- 0 -->
      <g transform="translate(51.2375 321.140875)scale(0.2 -0.2)">
       <defs>
        <path d="M 2034 4250 
Q 1547 4250 1301 3770 
Q 1056 3291 1056 2328 
Q 1056 1369 1301 889 
Q 1547 409 2034 409 
Q 2525 409 2770 889 
Q 3016 1369 3016 2328 
Q 3016 3291 2770 3770 
Q 2525 4250 2034 4250 
z
M 2034 4750 
Q 2819 4750 3233 4129 
Q 3647 3509 3647 2328 
Q 3647 1150 3233 529 
Q 2819 -91 2034 -91 
Q 1250 -91 836 529 
Q 422 1150 422 2328 
Q 422 3509 836 4129 
Q 1250 4750 2034 4750 
z
" id="DejaVuSans-30" transform="scale(0.015625)"/>
       </defs>
       <use xlink:href="#DejaVuSans-30"/>
      </g>
     </g>
    </g>
    <g id="xtick_2">
     <g id="line2d_3">
      <path clip-path="url(#p6cf9947767)" d="M 137.910857 298.944 
L 137.910857 3.456 
" style="fill:none;stroke:#b0b0b0;stroke-linecap:square;stroke-width:0.8;"/>
     </g>
     <g id="line2d_4">
      <g>
       <use style="stroke:#000000;stroke-width:0.8;" x="137.910857" xlink:href="#mc9b6369dc4" y="298.944"/>
      </g>
     </g>
     <g id="text_2">
      <!-- 2 -->
      <g transform="translate(131.548357 321.140875)scale(0.2 -0.2)">
       <defs>
        <path d="M 1228 531 
L 3431 531 
L 3431 0 
L 469 0 
L 469 531 
Q 828 903 1448 1529 
Q 2069 2156 2228 2338 
Q 2531 2678 2651 2914 
Q 2772 3150 2772 3378 
Q 2772 3750 2511 3984 
Q 2250 4219 1831 4219 
Q 1534 4219 1204 4116 
Q 875 4013 500 3803 
L 500 4441 
Q 881 4594 1212 4672 
Q 1544 4750 1819 4750 
Q 2544 4750 2975 4387 
Q 3406 4025 3406 3419 
Q 3406 3131 3298 2873 
Q 3191 2616 2906 2266 
Q 2828 2175 2409 1742 
Q 1991 1309 1228 531 
z
" id="DejaVuSans-32" transform="scale(0.015625)"/>
       </defs>
       <use xlink:href="#DejaVuSans-32"/>
      </g>
     </g>
    </g>
    <g id="xtick_3">
     <g id="line2d_5">
      <path clip-path="url(#p6cf9947767)" d="M 218.221714 298.944 
L 218.221714 3.456 
" style="fill:none;stroke:#b0b0b0;stroke-linecap:square;stroke-width:0.8;"/>
     </g>
     <g id="line2d_6">
      <g>
       <use style="stroke:#000000;stroke-width:0.8;" x="218.221714" xlink:href="#mc9b6369dc4" y="298.944"/>
      </g>
     </g>
     <g id="text_3">
      <!-- 4 -->
      <g transform="translate(211.859214 321.140875)scale(0.2 -0.2)">
       <defs>
        <path d="M 2419 4116 
L 825 1625 
L 2419 1625 
L 2419 4116 
z
M 2253 4666 
L 3047 4666 
L 3047 1625 
L 3713 1625 
L 3713 1100 
L 3047 1100 
L 3047 0 
L 2419 0 
L 2419 1100 
L 313 1100 
L 313 1709 
L 2253 4666 
z
" id="DejaVuSans-34" transform="scale(0.015625)"/>
       </defs>
       <use xlink:href="#DejaVuSans-34"/>
      </g>
     </g>
    </g>
    <g id="xtick_4">
     <g id="line2d_7">
      <path clip-path="url(#p6cf9947767)" d="M 298.532571 298.944 
L 298.532571 3.456 
" style="fill:none;stroke:#b0b0b0;stroke-linecap:square;stroke-width:0.8;"/>
     </g>
     <g id="line2d_8">
      <g>
       <use style="stroke:#000000;stroke-width:0.8;" x="298.532571" xlink:href="#mc9b6369dc4" y="298.944"/>
      </g>
     </g>
     <g id="text_4">
      <!-- 6 -->
      <g transform="translate(292.170071 321.140875)scale(0.2 -0.2)">
       <defs>
        <path d="M 2113 2584 
Q 1688 2584 1439 2293 
Q 1191 2003 1191 1497 
Q 1191 994 1439 701 
Q 1688 409 2113 409 
Q 2538 409 2786 701 
Q 3034 994 3034 1497 
Q 3034 2003 2786 2293 
Q 2538 2584 2113 2584 
z
M 3366 4563 
L 3366 3988 
Q 3128 4100 2886 4159 
Q 2644 4219 2406 4219 
Q 1781 4219 1451 3797 
Q 1122 3375 1075 2522 
Q 1259 2794 1537 2939 
Q 1816 3084 2150 3084 
Q 2853 3084 3261 2657 
Q 3669 2231 3669 1497 
Q 3669 778 3244 343 
Q 2819 -91 2113 -91 
Q 1303 -91 875 529 
Q 447 1150 447 2328 
Q 447 3434 972 4092 
Q 1497 4750 2381 4750 
Q 2619 4750 2861 4703 
Q 3103 4656 3366 4563 
z
" id="DejaVuSans-36" transform="scale(0.015625)"/>
       </defs>
       <use xlink:href="#DejaVuSans-36"/>
      </g>
     </g>
    </g>
    <g id="xtick_5">
     <g id="line2d_9">
      <path clip-path="url(#p6cf9947767)" d="M 97.755429 298.944 
L 97.755429 3.456 
" style="fill:none;stroke:#b0b0b0;stroke-linecap:square;stroke-width:0.8;"/>
     </g>
     <g id="line2d_10">
      <defs>
       <path d="M 0 0 
L 0 2 
" id="m50dd0bd6af" style="stroke:#000000;stroke-width:0.6;"/>
      </defs>
      <g>
       <use style="stroke:#000000;stroke-width:0.6;" x="97.755429" xlink:href="#m50dd0bd6af" y="298.944"/>
      </g>
     </g>
    </g>
    <g id="xtick_6">
     <g id="line2d_11">
      <path clip-path="url(#p6cf9947767)" d="M 178.066286 298.944 
L 178.066286 3.456 
" style="fill:none;stroke:#b0b0b0;stroke-linecap:square;stroke-width:0.8;"/>
     </g>
     <g id="line2d_12">
      <g>
       <use style="stroke:#000000;stroke-width:0.6;" x="178.066286" xlink:href="#m50dd0bd6af" y="298.944"/>
      </g>
     </g>
    </g>
    <g id="xtick_7">
     <g id="line2d_13">
      <path clip-path="url(#p6cf9947767)" d="M 258.377143 298.944 
L 258.377143 3.456 
" style="fill:none;stroke:#b0b0b0;stroke-linecap:square;stroke-width:0.8;"/>
     </g>
     <g id="line2d_14">
      <g>
       <use style="stroke:#000000;stroke-width:0.6;" x="258.377143" xlink:href="#m50dd0bd6af" y="298.944"/>
      </g>
     </g>
    </g>
    <g id="xtick_8">
     <g id="line2d_15">
      <path clip-path="url(#p6cf9947767)" d="M 338.688 298.944 
L 338.688 3.456 
" style="fill:none;stroke:#b0b0b0;stroke-linecap:square;stroke-width:0.8;"/>
     </g>
     <g id="line2d_16">
      <g>
       <use style="stroke:#000000;stroke-width:0.6;" x="338.688" xlink:href="#m50dd0bd6af" y="298.944"/>
      </g>
     </g>
    </g>
    <g id="text_5">
     <!-- log10(# f-evals / dimension) -->
     <g transform="translate(77.764078 342.217594)scale(0.17 -0.17)">
      <defs>
       <path d="M 603 4863 
L 1178 4863 
L 1178 0 
L 603 0 
L 603 4863 
z
" id="DejaVuSans-6c" transform="scale(0.015625)"/>
       <path d="M 1959 3097 
Q 1497 3097 1228 2736 
Q 959 2375 959 1747 
Q 959 1119 1226 758 
Q 1494 397 1959 397 
Q 2419 397 2687 759 
Q 2956 1122 2956 1747 
Q 2956 2369 2687 2733 
Q 2419 3097 1959 3097 
z
M 1959 3584 
Q 2709 3584 3137 3096 
Q 3566 2609 3566 1747 
Q 3566 888 3137 398 
Q 2709 -91 1959 -91 
Q 1206 -91 779 398 
Q 353 888 353 1747 
Q 353 2609 779 3096 
Q 1206 3584 1959 3584 
z
" id="DejaVuSans-6f" transform="scale(0.015625)"/>
       <path d="M 2906 1791 
Q 2906 2416 2648 2759 
Q 2391 3103 1925 3103 
Q 1463 3103 1205 2759 
Q 947 2416 947 1791 
Q 947 1169 1205 825 
Q 1463 481 1925 481 
Q 2391 481 2648 825 
Q 2906 1169 2906 1791 
z
M 3481 434 
Q 3481 -459 3084 -895 
Q 2688 -1331 1869 -1331 
Q 1566 -1331 1297 -1286 
Q 1028 -1241 775 -1147 
L 775 -588 
Q 1028 -725 1275 -790 
Q 1522 -856 1778 -856 
Q 2344 -856 2625 -561 
Q 2906 -266 2906 331 
L 2906 616 
Q 2728 306 2450 153 
Q 2172 0 1784 0 
Q 1141 0 747 490 
Q 353 981 353 1791 
Q 353 2603 747 3093 
Q 1141 3584 1784 3584 
Q 2172 3584 2450 3431 
Q 2728 3278 2906 2969 
L 2906 3500 
L 3481 3500 
L 3481 434 
z
" id="DejaVuSans-67" transform="scale(0.015625)"/>
       <path d="M 794 531 
L 1825 531 
L 1825 4091 
L 703 3866 
L 703 4441 
L 1819 4666 
L 2450 4666 
L 2450 531 
L 3481 531 
L 3481 0 
L 794 0 
L 794 531 
z
" id="DejaVuSans-31" transform="scale(0.015625)"/>
       <path d="M 1984 4856 
Q 1566 4138 1362 3434 
Q 1159 2731 1159 2009 
Q 1159 1288 1364 580 
Q 1569 -128 1984 -844 
L 1484 -844 
Q 1016 -109 783 600 
Q 550 1309 550 2009 
Q 550 2706 781 3412 
Q 1013 4119 1484 4856 
L 1984 4856 
z
" id="DejaVuSans-28" transform="scale(0.015625)"/>
       <path d="M 3272 2816 
L 2363 2816 
L 2100 1772 
L 3016 1772 
L 3272 2816 
z
M 2803 4594 
L 2478 3297 
L 3391 3297 
L 3719 4594 
L 4219 4594 
L 3897 3297 
L 4872 3297 
L 4872 2816 
L 3775 2816 
L 3519 1772 
L 4513 1772 
L 4513 1294 
L 3397 1294 
L 3072 0 
L 2572 0 
L 2894 1294 
L 1978 1294 
L 1656 0 
L 1153 0 
L 1478 1294 
L 494 1294 
L 494 1772 
L 1594 1772 
L 1856 2816 
L 850 2816 
L 850 3297 
L 1978 3297 
L 2297 4594 
L 2803 4594 
z
" id="DejaVuSans-23" transform="scale(0.015625)"/>
       <path id="DejaVuSans-20" transform="scale(0.015625)"/>
       <path d="M 2375 4863 
L 2375 4384 
L 1825 4384 
Q 1516 4384 1395 4259 
Q 1275 4134 1275 3809 
L 1275 3500 
L 2222 3500 
L 2222 3053 
L 1275 3053 
L 1275 0 
L 697 0 
L 697 3053 
L 147 3053 
L 147 3500 
L 697 3500 
L 697 3744 
Q 697 4328 969 4595 
Q 1241 4863 1831 4863 
L 2375 4863 
z
" id="DejaVuSans-66" transform="scale(0.015625)"/>
       <path d="M 313 2009 
L 1997 2009 
L 1997 1497 
L 313 1497 
L 313 2009 
z
" id="DejaVuSans-2d" transform="scale(0.015625)"/>
       <path d="M 3597 1894 
L 3597 1613 
L 953 1613 
Q 991 1019 1311 708 
Q 1631 397 2203 397 
Q 2534 397 2845 478 
Q 3156 559 3463 722 
L 3463 178 
Q 3153 47 2828 -22 
Q 2503 -91 2169 -91 
Q 1331 -91 842 396 
Q 353 884 353 1716 
Q 353 2575 817 3079 
Q 1281 3584 2069 3584 
Q 2775 3584 3186 3129 
Q 3597 2675 3597 1894 
z
M 3022 2063 
Q 3016 2534 2758 2815 
Q 2500 3097 2075 3097 
Q 1594 3097 1305 2825 
Q 1016 2553 972 2059 
L 3022 2063 
z
" id="DejaVuSans-65" transform="scale(0.015625)"/>
       <path d="M 191 3500 
L 800 3500 
L 1894 563 
L 2988 3500 
L 3597 3500 
L 2284 0 
L 1503 0 
L 191 3500 
z
" id="DejaVuSans-76" transform="scale(0.015625)"/>
       <path d="M 2194 1759 
Q 1497 1759 1228 1600 
Q 959 1441 959 1056 
Q 959 750 1161 570 
Q 1363 391 1709 391 
Q 2188 391 2477 730 
Q 2766 1069 2766 1631 
L 2766 1759 
L 2194 1759 
z
M 3341 1997 
L 3341 0 
L 2766 0 
L 2766 531 
Q 2569 213 2275 61 
Q 1981 -91 1556 -91 
Q 1019 -91 701 211 
Q 384 513 384 1019 
Q 384 1609 779 1909 
Q 1175 2209 1959 2209 
L 2766 2209 
L 2766 2266 
Q 2766 2663 2505 2880 
Q 2244 3097 1772 3097 
Q 1472 3097 1187 3025 
Q 903 2953 641 2809 
L 641 3341 
Q 956 3463 1253 3523 
Q 1550 3584 1831 3584 
Q 2591 3584 2966 3190 
Q 3341 2797 3341 1997 
z
" id="DejaVuSans-61" transform="scale(0.015625)"/>
       <path d="M 2834 3397 
L 2834 2853 
Q 2591 2978 2328 3040 
Q 2066 3103 1784 3103 
Q 1356 3103 1142 2972 
Q 928 2841 928 2578 
Q 928 2378 1081 2264 
Q 1234 2150 1697 2047 
L 1894 2003 
Q 2506 1872 2764 1633 
Q 3022 1394 3022 966 
Q 3022 478 2636 193 
Q 2250 -91 1575 -91 
Q 1294 -91 989 -36 
Q 684 19 347 128 
L 347 722 
Q 666 556 975 473 
Q 1284 391 1588 391 
Q 1994 391 2212 530 
Q 2431 669 2431 922 
Q 2431 1156 2273 1281 
Q 2116 1406 1581 1522 
L 1381 1569 
Q 847 1681 609 1914 
Q 372 2147 372 2553 
Q 372 3047 722 3315 
Q 1072 3584 1716 3584 
Q 2034 3584 2315 3537 
Q 2597 3491 2834 3397 
z
" id="DejaVuSans-73" transform="scale(0.015625)"/>
       <path d="M 1625 4666 
L 2156 4666 
L 531 -594 
L 0 -594 
L 1625 4666 
z
" id="DejaVuSans-2f" transform="scale(0.015625)"/>
       <path d="M 2906 2969 
L 2906 4863 
L 3481 4863 
L 3481 0 
L 2906 0 
L 2906 525 
Q 2725 213 2448 61 
Q 2172 -91 1784 -91 
Q 1150 -91 751 415 
Q 353 922 353 1747 
Q 353 2572 751 3078 
Q 1150 3584 1784 3584 
Q 2172 3584 2448 3432 
Q 2725 3281 2906 2969 
z
M 947 1747 
Q 947 1113 1208 752 
Q 1469 391 1925 391 
Q 2381 391 2643 752 
Q 2906 1113 2906 1747 
Q 2906 2381 2643 2742 
Q 2381 3103 1925 3103 
Q 1469 3103 1208 2742 
Q 947 2381 947 1747 
z
" id="DejaVuSans-64" transform="scale(0.015625)"/>
       <path d="M 603 3500 
L 1178 3500 
L 1178 0 
L 603 0 
L 603 3500 
z
M 603 4863 
L 1178 4863 
L 1178 4134 
L 603 4134 
L 603 4863 
z
" id="DejaVuSans-69" transform="scale(0.015625)"/>
       <path d="M 3328 2828 
Q 3544 3216 3844 3400 
Q 4144 3584 4550 3584 
Q 5097 3584 5394 3201 
Q 5691 2819 5691 2113 
L 5691 0 
L 5113 0 
L 5113 2094 
Q 5113 2597 4934 2840 
Q 4756 3084 4391 3084 
Q 3944 3084 3684 2787 
Q 3425 2491 3425 1978 
L 3425 0 
L 2847 0 
L 2847 2094 
Q 2847 2600 2669 2842 
Q 2491 3084 2119 3084 
Q 1678 3084 1418 2786 
Q 1159 2488 1159 1978 
L 1159 0 
L 581 0 
L 581 3500 
L 1159 3500 
L 1159 2956 
Q 1356 3278 1631 3431 
Q 1906 3584 2284 3584 
Q 2666 3584 2933 3390 
Q 3200 3197 3328 2828 
z
" id="DejaVuSans-6d" transform="scale(0.015625)"/>
       <path d="M 3513 2113 
L 3513 0 
L 2938 0 
L 2938 2094 
Q 2938 2591 2744 2837 
Q 2550 3084 2163 3084 
Q 1697 3084 1428 2787 
Q 1159 2491 1159 1978 
L 1159 0 
L 581 0 
L 581 3500 
L 1159 3500 
L 1159 2956 
Q 1366 3272 1645 3428 
Q 1925 3584 2291 3584 
Q 2894 3584 3203 3211 
Q 3513 2838 3513 2113 
z
" id="DejaVuSans-6e" transform="scale(0.015625)"/>
       <path d="M 513 4856 
L 1013 4856 
Q 1481 4119 1714 3412 
Q 1947 2706 1947 2009 
Q 1947 1309 1714 600 
Q 1481 -109 1013 -844 
L 513 -844 
Q 928 -128 1133 580 
Q 1338 1288 1338 2009 
Q 1338 2731 1133 3434 
Q 928 4138 513 4856 
z
" id="DejaVuSans-29" transform="scale(0.015625)"/>
      </defs>
      <use xlink:href="#DejaVuSans-6c"/>
      <use x="27.783203" xlink:href="#DejaVuSans-6f"/>
      <use x="88.964844" xlink:href="#DejaVuSans-67"/>
      <use x="152.441406" xlink:href="#DejaVuSans-31"/>
      <use x="216.064453" xlink:href="#DejaVuSans-30"/>
      <use x="279.6875" xlink:href="#DejaVuSans-28"/>
      <use x="318.701172" xlink:href="#DejaVuSans-23"/>
      <use x="402.490234" xlink:href="#DejaVuSans-20"/>
      <use x="434.277344" xlink:href="#DejaVuSans-66"/>
      <use x="463.982422" xlink:href="#DejaVuSans-2d"/>
      <use x="500.066406" xlink:href="#DejaVuSans-65"/>
      <use x="561.589844" xlink:href="#DejaVuSans-76"/>
      <use x="620.769531" xlink:href="#DejaVuSans-61"/>
      <use x="682.048828" xlink:href="#DejaVuSans-6c"/>
      <use x="709.832031" xlink:href="#DejaVuSans-73"/>
      <use x="761.931641" xlink:href="#DejaVuSans-20"/>
      <use x="793.71875" xlink:href="#DejaVuSans-2f"/>
      <use x="827.410156" xlink:href="#DejaVuSans-20"/>
      <use x="859.197266" xlink:href="#DejaVuSans-64"/>
      <use x="922.673828" xlink:href="#DejaVuSans-69"/>
      <use x="950.457031" xlink:href="#DejaVuSans-6d"/>
      <use x="1047.869141" xlink:href="#DejaVuSans-65"/>
      <use x="1109.392578" xlink:href="#DejaVuSans-6e"/>
      <use x="1172.771484" xlink:href="#DejaVuSans-73"/>
      <use x="1224.871094" xlink:href="#DejaVuSans-69"/>
      <use x="1252.654297" xlink:href="#DejaVuSans-6f"/>
      <use x="1313.835938" xlink:href="#DejaVuSans-6e"/>
      <use x="1377.214844" xlink:href="#DejaVuSans-29"/>
     </g>
    </g>
   </g>
   <g id="matplotlib.axis_2">
    <g id="ytick_1">
     <g id="line2d_17">
      <path clip-path="url(#p6cf9947767)" d="M 57.6 298.944 
L 338.688 298.944 
" style="fill:none;stroke:#b0b0b0;stroke-linecap:square;stroke-width:0.8;"/>
     </g>
     <g id="line2d_18">
      <defs>
       <path d="M 0 0 
L -3.5 0 
" id="ma9ee4058b0" style="stroke:#000000;stroke-width:0.8;"/>
      </defs>
      <g>
       <use style="stroke:#000000;stroke-width:0.8;" x="57.6" xlink:href="#ma9ee4058b0" y="298.944"/>
      </g>
     </g>
     <g id="text_6">
      <!-- 0.0 -->
      <g transform="translate(25.155 305.02275)scale(0.16 -0.16)">
       <defs>
        <path d="M 684 794 
L 1344 794 
L 1344 0 
L 684 0 
L 684 794 
z
" id="DejaVuSans-2e" transform="scale(0.015625)"/>
       </defs>
       <use xlink:href="#DejaVuSans-30"/>
       <use x="63.623047" xlink:href="#DejaVuSans-2e"/>
       <use x="95.410156" xlink:href="#DejaVuSans-30"/>
      </g>
     </g>
    </g>
    <g id="ytick_2">
     <g id="line2d_19">
      <path clip-path="url(#p6cf9947767)" d="M 57.6 240.431525 
L 338.688 240.431525 
" style="fill:none;stroke:#b0b0b0;stroke-linecap:square;stroke-width:0.8;"/>
     </g>
     <g id="line2d_20">
      <g>
       <use style="stroke:#000000;stroke-width:0.8;" x="57.6" xlink:href="#ma9ee4058b0" y="240.431525"/>
      </g>
     </g>
     <g id="text_7">
      <!-- 0.2 -->
      <g transform="translate(25.155 246.510275)scale(0.16 -0.16)">
       <use xlink:href="#DejaVuSans-30"/>
       <use x="63.623047" xlink:href="#DejaVuSans-2e"/>
       <use x="95.410156" xlink:href="#DejaVuSans-32"/>
      </g>
     </g>
    </g>
    <g id="ytick_3">
     <g id="line2d_21">
      <path clip-path="url(#p6cf9947767)" d="M 57.6 181.91905 
L 338.688 181.91905 
" style="fill:none;stroke:#b0b0b0;stroke-linecap:square;stroke-width:0.8;"/>
     </g>
     <g id="line2d_22">
      <g>
       <use style="stroke:#000000;stroke-width:0.8;" x="57.6" xlink:href="#ma9ee4058b0" y="181.91905"/>
      </g>
     </g>
     <g id="text_8">
      <!-- 0.4 -->
      <g transform="translate(25.155 187.9978)scale(0.16 -0.16)">
       <use xlink:href="#DejaVuSans-30"/>
       <use x="63.623047" xlink:href="#DejaVuSans-2e"/>
       <use x="95.410156" xlink:href="#DejaVuSans-34"/>
      </g>
     </g>
    </g>
    <g id="ytick_4">
     <g id="line2d_23">
      <path clip-path="url(#p6cf9947767)" d="M 57.6 123.406574 
L 338.688 123.406574 
" style="fill:none;stroke:#b0b0b0;stroke-linecap:square;stroke-width:0.8;"/>
     </g>
     <g id="line2d_24">
      <g>
       <use style="stroke:#000000;stroke-width:0.8;" x="57.6" xlink:href="#ma9ee4058b0" y="123.406574"/>
      </g>
     </g>
     <g id="text_9">
      <!-- 0.6 -->
      <g transform="translate(25.155 129.485324)scale(0.16 -0.16)">
       <use xlink:href="#DejaVuSans-30"/>
       <use x="63.623047" xlink:href="#DejaVuSans-2e"/>
       <use x="95.410156" xlink:href="#DejaVuSans-36"/>
      </g>
     </g>
    </g>
    <g id="ytick_5">
     <g id="line2d_25">
      <path clip-path="url(#p6cf9947767)" d="M 57.6 64.894099 
L 338.688 64.894099 
" style="fill:none;stroke:#b0b0b0;stroke-linecap:square;stroke-width:0.8;"/>
     </g>
     <g id="line2d_26">
      <g>
       <use style="stroke:#000000;stroke-width:0.8;" x="57.6" xlink:href="#ma9ee4058b0" y="64.894099"/>
      </g>
     </g>
     <g id="text_10">
      <!-- 0.8 -->
      <g transform="translate(25.155 70.972849)scale(0.16 -0.16)">
       <defs>
        <path d="M 2034 2216 
Q 1584 2216 1326 1975 
Q 1069 1734 1069 1313 
Q 1069 891 1326 650 
Q 1584 409 2034 409 
Q 2484 409 2743 651 
Q 3003 894 3003 1313 
Q 3003 1734 2745 1975 
Q 2488 2216 2034 2216 
z
M 1403 2484 
Q 997 2584 770 2862 
Q 544 3141 544 3541 
Q 544 4100 942 4425 
Q 1341 4750 2034 4750 
Q 2731 4750 3128 4425 
Q 3525 4100 3525 3541 
Q 3525 3141 3298 2862 
Q 3072 2584 2669 2484 
Q 3125 2378 3379 2068 
Q 3634 1759 3634 1313 
Q 3634 634 3220 271 
Q 2806 -91 2034 -91 
Q 1263 -91 848 271 
Q 434 634 434 1313 
Q 434 1759 690 2068 
Q 947 2378 1403 2484 
z
M 1172 3481 
Q 1172 3119 1398 2916 
Q 1625 2713 2034 2713 
Q 2441 2713 2670 2916 
Q 2900 3119 2900 3481 
Q 2900 3844 2670 4047 
Q 2441 4250 2034 4250 
Q 1625 4250 1398 4047 
Q 1172 3844 1172 3481 
z
" id="DejaVuSans-38" transform="scale(0.015625)"/>
       </defs>
       <use xlink:href="#DejaVuSans-30"/>
       <use x="63.623047" xlink:href="#DejaVuSans-2e"/>
       <use x="95.410156" xlink:href="#DejaVuSans-38"/>
      </g>
     </g>
    </g>
    <g id="ytick_6">
     <g id="line2d_27">
      <path clip-path="url(#p6cf9947767)" d="M 57.6 6.381624 
L 338.688 6.381624 
" style="fill:none;stroke:#b0b0b0;stroke-linecap:square;stroke-width:0.8;"/>
     </g>
     <g id="line2d_28">
      <g>
       <use style="stroke:#000000;stroke-width:0.8;" x="57.6" xlink:href="#ma9ee4058b0" y="6.381624"/>
      </g>
     </g>
     <g id="text_11">
      <!-- 1.0 -->
      <g transform="translate(25.155 12.460374)scale(0.16 -0.16)">
       <use xlink:href="#DejaVuSans-31"/>
       <use x="63.623047" xlink:href="#DejaVuSans-2e"/>
       <use x="95.410156" xlink:href="#DejaVuSans-30"/>
      </g>
     </g>
    </g>
    <g id="text_12">
     <!-- Fraction of function,target pairs -->
     <g transform="translate(17.619531 285.585)rotate(-90)scale(0.17 -0.17)">
      <defs>
       <path d="M 628 4666 
L 3309 4666 
L 3309 4134 
L 1259 4134 
L 1259 2759 
L 3109 2759 
L 3109 2228 
L 1259 2228 
L 1259 0 
L 628 0 
L 628 4666 
z
" id="DejaVuSans-46" transform="scale(0.015625)"/>
       <path d="M 2631 2963 
Q 2534 3019 2420 3045 
Q 2306 3072 2169 3072 
Q 1681 3072 1420 2755 
Q 1159 2438 1159 1844 
L 1159 0 
L 581 0 
L 581 3500 
L 1159 3500 
L 1159 2956 
Q 1341 3275 1631 3429 
Q 1922 3584 2338 3584 
Q 2397 3584 2469 3576 
Q 2541 3569 2628 3553 
L 2631 2963 
z
" id="DejaVuSans-72" transform="scale(0.015625)"/>
       <path d="M 3122 3366 
L 3122 2828 
Q 2878 2963 2633 3030 
Q 2388 3097 2138 3097 
Q 1578 3097 1268 2742 
Q 959 2388 959 1747 
Q 959 1106 1268 751 
Q 1578 397 2138 397 
Q 2388 397 2633 464 
Q 2878 531 3122 666 
L 3122 134 
Q 2881 22 2623 -34 
Q 2366 -91 2075 -91 
Q 1284 -91 818 406 
Q 353 903 353 1747 
Q 353 2603 823 3093 
Q 1294 3584 2113 3584 
Q 2378 3584 2631 3529 
Q 2884 3475 3122 3366 
z
" id="DejaVuSans-63" transform="scale(0.015625)"/>
       <path d="M 1172 4494 
L 1172 3500 
L 2356 3500 
L 2356 3053 
L 1172 3053 
L 1172 1153 
Q 1172 725 1289 603 
Q 1406 481 1766 481 
L 2356 481 
L 2356 0 
L 1766 0 
Q 1100 0 847 248 
Q 594 497 594 1153 
L 594 3053 
L 172 3053 
L 172 3500 
L 594 3500 
L 594 4494 
L 1172 4494 
z
" id="DejaVuSans-74" transform="scale(0.015625)"/>
       <path d="M 544 1381 
L 544 3500 
L 1119 3500 
L 1119 1403 
Q 1119 906 1312 657 
Q 1506 409 1894 409 
Q 2359 409 2629 706 
Q 2900 1003 2900 1516 
L 2900 3500 
L 3475 3500 
L 3475 0 
L 2900 0 
L 2900 538 
Q 2691 219 2414 64 
Q 2138 -91 1772 -91 
Q 1169 -91 856 284 
Q 544 659 544 1381 
z
M 1991 3584 
L 1991 3584 
z
" id="DejaVuSans-75" transform="scale(0.015625)"/>
       <path d="M 750 794 
L 1409 794 
L 1409 256 
L 897 -744 
L 494 -744 
L 750 256 
L 750 794 
z
" id="DejaVuSans-2c" transform="scale(0.015625)"/>
       <path d="M 1159 525 
L 1159 -1331 
L 581 -1331 
L 581 3500 
L 1159 3500 
L 1159 2969 
Q 1341 3281 1617 3432 
Q 1894 3584 2278 3584 
Q 2916 3584 3314 3078 
Q 3713 2572 3713 1747 
Q 3713 922 3314 415 
Q 2916 -91 2278 -91 
Q 1894 -91 1617 61 
Q 1341 213 1159 525 
z
M 3116 1747 
Q 3116 2381 2855 2742 
Q 2594 3103 2138 3103 
Q 1681 3103 1420 2742 
Q 1159 2381 1159 1747 
Q 1159 1113 1420 752 
Q 1681 391 2138 391 
Q 2594 391 2855 752 
Q 3116 1113 3116 1747 
z
" id="DejaVuSans-70" transform="scale(0.015625)"/>
      </defs>
      <use xlink:href="#DejaVuSans-46"/>
      <use x="50.269531" xlink:href="#DejaVuSans-72"/>
      <use x="91.382812" xlink:href="#DejaVuSans-61"/>
      <use x="152.662109" xlink:href="#DejaVuSans-63"/>
      <use x="207.642578" xlink:href="#DejaVuSans-74"/>
      <use x="246.851562" xlink:href="#DejaVuSans-69"/>
      <use x="274.634766" xlink:href="#DejaVuSans-6f"/>
      <use x="335.816406" xlink:href="#DejaVuSans-6e"/>
      <use x="399.195312" xlink:href="#DejaVuSans-20"/>
      <use x="430.982422" xlink:href="#DejaVuSans-6f"/>
      <use x="492.164062" xlink:href="#DejaVuSans-66"/>
      <use x="527.369141" xlink:href="#DejaVuSans-20"/>
      <use x="559.15625" xlink:href="#DejaVuSans-66"/>
      <use x="594.361328" xlink:href="#DejaVuSans-75"/>
      <use x="657.740234" xlink:href="#DejaVuSans-6e"/>
      <use x="721.119141" xlink:href="#DejaVuSans-63"/>
      <use x="776.099609" xlink:href="#DejaVuSans-74"/>
      <use x="815.308594" xlink:href="#DejaVuSans-69"/>
      <use x="843.091797" xlink:href="#DejaVuSans-6f"/>
      <use x="904.273438" xlink:href="#DejaVuSans-6e"/>
      <use x="967.652344" xlink:href="#DejaVuSans-2c"/>
      <use x="999.439453" xlink:href="#DejaVuSans-74"/>
      <use x="1038.648438" xlink:href="#DejaVuSans-61"/>
      <use x="1099.927734" xlink:href="#DejaVuSans-72"/>
      <use x="1139.291016" xlink:href="#DejaVuSans-67"/>
      <use x="1202.767578" xlink:href="#DejaVuSans-65"/>
      <use x="1264.291016" xlink:href="#DejaVuSans-74"/>
      <use x="1303.5" xlink:href="#DejaVuSans-20"/>
      <use x="1335.287109" xlink:href="#DejaVuSans-70"/>
      <use x="1398.763672" xlink:href="#DejaVuSans-61"/>
      <use x="1460.042969" xlink:href="#DejaVuSans-69"/>
      <use x="1487.826172" xlink:href="#DejaVuSans-72"/>
      <use x="1528.939453" xlink:href="#DejaVuSans-73"/>
     </g>
    </g>
   </g>
   <g id="line2d_29">
    <defs>
     <path d="M 0 1.5 
C 0.397805 1.5 0.77937 1.341951 1.06066 1.06066 
C 1.341951 0.77937 1.5 0.397805 1.5 0 
C 1.5 -0.397805 1.341951 -0.77937 1.06066 -1.06066 
C 0.77937 -1.341951 0.397805 -1.5 0 -1.5 
C -0.397805 -1.5 -0.77937 -1.341951 -1.06066 -1.06066 
C -1.341951 -0.77937 -1.5 -0.397805 -1.5 0 
C -1.5 0.397805 -1.341951 0.77937 -1.06066 1.06066 
C -0.77937 1.341951 -0.397805 1.5 0 1.5 
z
" id="ma61e5ce914" style="stroke:#00bfbf;"/>
    </defs>
    <g>
     <use style="fill:#00bfbf;stroke:#00bfbf;" x="217.400471" xlink:href="#ma61e5ce914" y="215.764501"/>
     <use style="fill:#00bfbf;stroke:#00bfbf;" x="217.400471" xlink:href="#ma61e5ce914" y="215.764501"/>
    </g>
   </g>
   <g id="line2d_30">
    <path d="M 45.512012 298.944 
L 45.512012 286.29976 
L 57.6 286.29976 
L 57.6 282.355904 
L 64.67102 282.355904 
L 64.67102 278.985701 
L 69.687988 278.985701 
L 69.687988 277.527669 
L 73.579452 277.527669 
L 73.579452 276.117442 
L 76.759008 276.117442 
L 76.759008 274.87453 
L 79.447285 274.87453 
L 79.447285 273.583814 
L 81.775977 273.583814 
L 81.775977 272.723336 
L 83.830028 272.723336 
L 83.830028 271.838956 
L 85.66744 271.838956 
L 85.66744 270.691653 
L 87.329581 270.691653 
L 87.329581 270.189708 
L 90.242884 270.094099 
L 90.242884 269.305328 
L 91.535274 269.305328 
L 91.535274 268.851187 
L 92.73846 268.851187 
L 92.73846 268.373144 
L 93.863965 268.373144 
L 93.863965 267.679981 
L 94.921215 267.679981 
L 94.921215 267.512666 
L 95.918017 267.512666 
L 95.918017 266.986819 
L 96.86091 266.986819 
L 96.86091 266.341461 
L 97.755429 266.341461 
L 97.755429 266.030733 
L 98.606294 266.030733 
L 98.606294 265.55269 
L 99.41757 265.55269 
L 99.41757 265.074646 
L 100.192776 265.074646 
L 100.192776 264.45319 
L 100.934985 264.45319 
L 100.934985 264.33368 
L 101.646892 264.33368 
L 101.646892 264.070756 
L 102.330873 264.070756 
L 102.330873 263.951245 
L 102.989037 263.951245 
L 102.989037 263.568811 
L 103.623262 263.568811 
L 103.623262 263.281985 
L 104.23523 263.281985 
L 104.23523 263.066865 
L 104.826449 263.066865 
L 104.826449 262.827844 
L 105.398279 262.827844 
L 105.398279 262.612725 
L 105.951954 262.612725 
L 105.951954 261.967366 
L 106.48859 261.967366 
L 106.48859 261.584932 
L 107.009204 261.584932 
L 107.009204 261.393715 
L 107.514726 261.393715 
L 107.514726 261.178595 
L 108.006005 261.178595 
L 108.006005 260.939574 
L 108.483824 260.939574 
L 108.483824 260.796161 
L 108.948899 260.796161 
L 108.948899 260.604944 
L 109.843417 260.509335 
L 109.843417 260.222509 
L 110.274038 260.222509 
L 110.274038 260.031292 
L 110.694282 260.031292 
L 110.694282 259.79227 
L 111.104637 259.79227 
L 111.104637 259.433738 
L 111.505558 259.433738 
L 111.505558 259.314227 
L 111.897469 259.314227 
L 111.897469 259.051303 
L 112.280765 259.051303 
L 112.280765 258.812282 
L 112.655818 258.812282 
L 112.655818 258.597162 
L 113.382559 258.525456 
L 113.382559 258.405945 
L 113.73488 258.405945 
L 113.73488 258.23863 
L 114.418861 258.23863 
L 114.418861 257.951804 
L 114.751048 257.951804 
L 114.751048 257.736685 
L 115.397021 257.736685 
L 115.397021 257.56937 
L 115.711251 257.56937 
L 115.711251 257.402055 
L 116.019919 257.402055 
L 116.019919 257.067425 
L 116.323218 257.067425 
L 116.323218 256.828403 
L 117.202696 256.756697 
L 117.202696 256.398164 
L 117.486268 256.398164 
L 117.486268 256.206947 
L 117.765302 256.206947 
L 117.765302 256.087436 
L 118.310324 256.039632 
L 118.310324 255.944023 
L 118.576578 255.944023 
L 118.576578 255.728904 
L 119.351785 255.633295 
L 119.351785 255.561589 
L 119.850084 255.489882 
L 119.850084 255.322567 
L 120.093994 255.322567 
L 120.093994 255.13135 
L 120.33454 255.13135 
L 120.33454 254.987937 
L 120.8059 254.892328 
L 120.8059 254.868426 
L 121.036887 254.868426 
L 121.036887 254.390383 
L 121.264855 254.390383 
L 121.264855 254.223068 
L 121.931406 254.223068 
L 121.931406 254.055753 
L 122.573415 253.984047 
L 122.573415 253.936242 
L 122.782271 253.936242 
L 122.782271 253.792829 
L 123.394238 253.697221 
L 123.394238 253.625514 
L 123.593547 253.625514 
L 123.593547 253.24308 
L 124.178158 253.219178 
L 124.178158 252.884547 
L 124.557288 252.860645 
L 124.557288 252.765037 
L 125.110962 252.69333 
L 125.110962 252.478211 
L 125.291682 252.478211 
L 125.291682 252.263091 
L 125.822869 252.239189 
L 125.822869 252.095776 
L 125.996395 252.095776 
L 125.996395 251.928461 
L 126.338353 251.832853 
L 126.338353 251.785048 
L 126.50685 251.785048 
L 126.50685 251.665538 
L 126.839037 251.569929 
L 126.839037 251.378712 
L 127.165014 251.35481 
L 127.165014 251.091886 
L 127.48501 251.067984 
L 127.48501 250.972375 
L 127.642832 250.972375 
L 127.642832 250.852864 
L 127.954256 250.828962 
L 127.954256 250.733354 
L 128.107907 250.733354 
L 128.107907 250.446528 
L 128.560901 250.422626 
L 128.560901 250.279213 
L 128.856489 250.279213 
L 128.856489 250.111897 
L 129.290685 250.040191 
L 129.290685 249.944582 
L 130.127931 249.848974 
L 130.127931 249.801169 
L 130.263646 249.801169 
L 130.263646 249.657757 
L 130.531948 249.657757 
L 130.531948 249.466539 
L 130.796184 249.370931 
L 130.796184 249.323126 
L 130.926816 249.323126 
L 130.926816 249.084105 
L 131.185181 249.012398 
L 131.185181 248.964594 
L 131.565689 248.91679 
L 131.565689 248.70167 
L 131.938072 248.606062 
L 131.938072 248.390942 
L 132.181982 248.319236 
L 132.181982 248.223627 
L 132.777237 248.175823 
L 132.777237 248.080214 
L 133.910056 248.008508 
L 133.910056 247.960704 
L 134.450015 247.865095 
L 134.450015 247.841193 
L 134.766144 247.793388 
L 134.766144 247.554367 
L 135.076644 247.458758 
L 135.178927 247.387052 
L 135.280614 247.387052 
L 135.381712 246.909009 
L 135.681535 246.861204 
L 135.780341 246.693889 
L 136.170062 246.693889 
L 136.170062 246.430966 
L 136.456742 246.430966 
L 136.551264 246.215846 
L 137.469333 246.120238 
L 137.558536 246.000727 
L 137.735587 245.976825 
L 137.735587 245.833412 
L 138.256201 245.761705 
L 138.341479 245.666097 
L 138.510793 245.570488 
L 138.594838 245.450977 
L 138.84457 245.379271 
L 138.927025 245.235858 
L 139.090775 245.188054 
L 139.090775 245.116347 
L 139.572998 245.044641 
L 139.652088 244.853423 
L 139.8092 244.781717 
L 139.887228 244.638304 
L 140.042245 244.566598 
L 140.11924 244.423185 
L 140.272217 244.351478 
L 140.348205 244.279772 
L 140.499195 244.231967 
L 140.574203 244.112457 
L 140.79731 244.064652 
L 140.871049 243.849533 
L 141.235139 243.777826 
L 141.307054 243.682218 
L 141.45 243.634414 
L 141.521035 243.514903 
L 141.662245 243.443196 
L 141.732423 243.323685 
L 142.07914 243.228077 
L 142.07914 243.204175 
L 142.486301 243.108566 
L 142.553247 243.060762 
L 142.818488 243.03686 
L 142.884173 242.82174 
L 143.079756 242.750034 
L 143.144465 242.654425 
L 143.40093 242.558817 
L 143.464461 242.511012 
L 143.590833 242.415404 
L 143.653678 242.224186 
L 143.840863 242.128578 
L 143.840863 242.080773 
L 144.269971 242.032969 
L 144.330419 241.865654 
L 144.510517 241.81785 
L 144.570138 241.698339 
L 144.688773 241.698339 
L 144.688773 241.578828 
L 144.865226 241.48322 
L 144.923649 241.411513 
L 145.212864 241.315904 
L 145.212864 241.2681 
L 145.665858 241.172492 
L 145.721664 241.124687 
L 145.888018 241.029079 
L 145.998045 240.837861 
L 146.377764 240.742253 
L 146.431341 240.622742 
L 146.906268 240.527133 
L 147.010073 240.407623 
L 147.317833 240.312014 
L 147.317833 240.288112 
L 147.620256 240.192503 
L 147.71991 240.120797 
L 148.733265 240.025188 
L 148.826773 239.977384 
L 149.104327 239.881775 
L 149.195872 239.786167 
L 149.377533 239.690558 
L 149.422654 239.618851 
L 149.955193 239.523243 
L 150.042389 239.403732 
L 150.429467 239.355928 
L 150.51433 239.236417 
L 150.598782 239.188613 
L 150.682827 238.973493 
L 150.891184 238.877885 
L 150.932558 238.782276 
L 151.219462 238.686667 
L 151.219462 238.638863 
L 151.501723 238.543255 
L 151.501723 238.49545 
L 151.936246 238.399842 
L 151.936246 238.328135 
L 152.436193 238.232526 
L 152.474064 238.136918 
L 152.736878 238.041309 
L 152.811246 237.945701 
L 153.142033 237.873994 
L 153.250915 237.706679 
L 153.466662 237.61107 
L 153.537988 237.443755 
L 153.644434 237.348147 
L 153.750233 237.133027 
L 153.855395 237.061321 
L 153.925152 236.989614 
L 154.167129 236.894006 
L 154.269814 236.798397 
L 154.507086 236.726691 
L 154.54072 236.631082 
L 154.807483 236.535474 
L 154.873541 236.463767 
L 155.361158 236.368158 
L 155.457066 236.176941 
L 155.61575 236.081333 
L 155.61575 236.05743 
L 156.114049 236.009626 
L 156.205916 235.842311 
L 156.38821 235.746702 
L 156.478647 235.603289 
L 156.568618 235.507681 
L 156.658127 235.435974 
L 157.040776 235.340366 
L 157.040776 235.316464 
L 157.472107 235.268659 
L 157.528821 235.101344 
L 157.613546 235.005736 
L 157.641697 234.957931 
L 157.920731 234.862323 
L 157.920731 234.838421 
L 158.168101 234.766714 
L 158.276927 234.671105 
L 158.572743 234.575497 
L 158.572743 234.551595 
L 158.942121 234.455986 
L 159.046236 234.360377 
L 159.32939 234.264769 
L 159.380382 234.121356 
L 159.532469 234.097454 
L 159.633129 233.882334 
L 159.708245 233.858432 
L 159.758143 233.715019 
L 160.103486 233.619411 
L 160.176607 233.523802 
L 160.797798 233.428193 
L 160.891432 233.332585 
L 161.054091 233.236976 
L 161.12334 233.16527 
L 161.510643 233.069661 
L 161.578106 232.974052 
L 161.823263 232.878444 
L 161.823263 232.854542 
L 162.389382 232.758933 
L 162.496175 232.591618 
L 162.602318 232.496009 
L 162.665696 232.400401 
L 162.916926 232.328694 
L 163.020547 232.256988 
L 163.609699 232.161379 
L 163.669525 232.089673 
L 163.887148 231.994064 
L 163.887148 231.970162 
L 164.121498 231.898455 
L 164.19892 231.707238 
L 164.599841 231.61163 
L 164.693955 231.563825 
L 165.230021 231.492119 
L 165.230021 231.444315 
L 165.55465 231.372608 
L 165.608172 231.253097 
L 165.803027 231.157489 
L 165.890882 231.06188 
L 166.065276 230.966271 
L 166.08262 230.918467 
L 166.374858 230.822858 
L 166.476842 230.679446 
L 166.878918 230.583837 
L 166.96153 230.51213 
L 167.384913 230.416522 
L 167.465168 230.368718 
L 167.672117 230.273109 
L 167.76681 230.105794 
L 168.339657 230.010185 
L 168.430803 229.962381 
L 168.790698 229.866772 
L 168.849965 229.795066 
L 169.27373 229.699457 
L 169.360135 229.627751 
L 169.602648 229.532142 
L 169.701534 229.412631 
L 170.077786 229.317023 
L 170.187727 229.149708 
L 170.459584 229.054099 
L 170.567151 228.910686 
L 170.607318 228.815077 
L 170.700684 228.719469 
L 171.108254 228.62386 
L 171.108254 228.599958 
L 171.696007 228.504349 
L 171.758716 228.408741 
L 172.081215 228.313132 
L 172.167033 228.241426 
L 172.446067 228.145817 
L 172.530112 228.098013 
L 172.956059 228.002404 
L 173.037687 227.835089 
L 173.176739 227.73948 
L 173.257343 227.643872 
L 173.922314 227.548263 
L 173.966492 227.500459 
L 174.261802 227.40485 
L 174.348349 227.309242 
L 174.488079 227.213633 
L 174.562857 227.118024 
L 174.932012 227.022416 
L 174.984116 226.950709 
L 175.211544 226.855101 
L 175.303734 226.759492 
L 175.436043 226.663884 
L 175.436043 226.639981 
L 175.866664 226.544373 
L 175.866664 226.520471 
L 176.102467 226.424862 
L 176.199784 226.329253 
L 176.421575 226.233645 
L 176.517133 226.138036 
L 176.668945 226.06633 
L 176.668945 226.018525 
L 177.116609 225.922917 
L 177.199282 225.827308 
L 177.281564 225.731699 
L 177.290683 225.659993 
L 177.767269 225.588287 
L 177.79386 225.51658 
L 178.075003 225.420971 
L 178.075003 225.397069 
L 178.351686 225.301461 
L 178.411629 225.205852 
L 178.479885 225.158048 
L 178.513913 225.038537 
L 178.825562 224.942928 
L 178.825562 224.895124 
L 178.999998 224.799515 
L 179.098898 224.560494 
L 179.70463 224.464885 
L 179.760106 224.393179 
L 179.980262 224.29757 
L 180.089306 224.154157 
L 180.328363 224.058549 
L 180.412408 223.986842 
L 180.541504 223.915136 
L 180.647105 223.723918 
L 180.886106 223.652212 
L 180.989647 223.580506 
L 181.541248 223.484897 
L 181.648084 223.341484 
L 181.915844 223.245875 
L 182.020417 223.150267 
L 182.384967 223.054658 
L 182.384967 223.030756 
L 182.835168 222.935147 
L 182.934387 222.863441 
L 183.338605 222.767832 
L 183.447822 222.600517 
L 184.187629 222.504909 
L 184.297772 222.385398 
L 184.582131 222.289789 
L 184.659972 222.098572 
L 185.310832 222.002963 
L 185.310832 221.979061 
L 185.776513 221.883453 
L 185.87152 221.668333 
L 186.279153 221.572725 
L 186.376882 221.501018 
L 186.538558 221.405409 
L 186.629513 221.285899 
L 186.941551 221.19029 
L 187.035648 221.118584 
L 187.524031 221.022975 
L 187.594861 220.951268 
L 187.720632 220.85566 
L 187.790669 220.760051 
L 187.969484 220.664443 
L 188.008973 220.568834 
L 188.43755 220.473225 
L 188.495185 220.377617 
L 188.61941 220.282008 
L 188.695419 220.210302 
L 188.893381 220.114693 
L 188.968208 219.899574 
L 189.355866 219.803965 
L 189.355866 219.780063 
L 189.748486 219.684454 
L 189.810849 219.541041 
L 190.46539 219.445433 
L 190.529512 219.397628 
L 190.703588 219.30202 
L 190.749997 219.206411 
L 191.309728 219.110803 
L 191.358623 219.062998 
L 191.879716 218.96739 
L 191.891559 218.919585 
L 192.150098 218.823977 
L 192.169529 218.776172 
L 192.708753 218.680564 
L 192.810134 218.632759 
L 193.184231 218.537151 
L 193.184231 218.513249 
L 193.618516 218.41764 
L 193.639949 218.369836 
L 193.905662 218.274227 
L 193.905662 218.250325 
L 194.367128 218.154716 
L 194.367128 218.130814 
L 195.150521 218.035206 
L 195.238689 217.939597 
L 195.827954 217.843988 
L 195.909637 217.772282 
L 196.504303 217.676673 
L 196.504303 217.652771 
L 197.108643 217.557162 
L 197.108643 217.53326 
L 197.582032 217.437652 
L 197.678586 217.389847 
L 198.197534 217.294239 
L 198.211274 217.246434 
L 198.760141 217.150826 
L 198.773444 217.103022 
L 199.826156 217.007413 
L 199.90111 216.935706 
L 200.802358 216.840098 
L 200.868524 216.792294 
L 202.819015 216.696685 
L 202.898974 216.624978 
L 204.265283 216.52937 
L 204.271106 216.457663 
L 205.248384 216.362055 
L 205.248384 216.338153 
L 206.084827 216.242544 
L 206.084827 216.218642 
L 207.593351 216.123033 
L 207.593351 216.099131 
L 209.034951 216.003522 
L 209.034951 215.97962 
L 212.851239 215.884012 
L 212.851239 215.860109 
L 338.688 215.764501 
L 338.688 215.764501 
" style="fill:none;stroke:#00bfbf;stroke-linecap:square;stroke-width:1.5;"/>
   </g>
   <g id="line2d_31">
    <defs>
     <path d="M -6 0 
L 6 0 
M 0 6 
L 0 -6 
" id="mf6aff33162" style="stroke:#00bfbf;stroke-width:1.5;"/>
    </defs>
    <g>
     <use style="fill-opacity:0;stroke:#00bfbf;stroke-width:1.5;" x="64.67102" xlink:href="#mf6aff33162" y="278.985701"/>
     <use style="fill-opacity:0;stroke:#00bfbf;stroke-width:1.5;" x="112.280765" xlink:href="#mf6aff33162" y="258.812282"/>
     <use style="fill-opacity:0;stroke:#00bfbf;stroke-width:1.5;" x="166.08262" xlink:href="#mf6aff33162" y="230.918467"/>
     <use style="fill-opacity:0;stroke:#00bfbf;stroke-width:1.5;" x="215.028899" xlink:href="#mf6aff33162" y="215.788403"/>
     <use style="fill-opacity:0;stroke:#00bfbf;stroke-width:1.5;" x="217.400471" xlink:href="#mf6aff33162" y="215.764501"/>
     <use style="fill-opacity:0;stroke:#00bfbf;stroke-width:1.5;" x="338.688" xlink:href="#mf6aff33162" y="215.764501"/>
    </g>
   </g>
   <g id="line2d_32">
    <path style="fill:none;stroke:#00bfbf;stroke-linecap:square;stroke-width:1.5;"/>
    <g/>
   </g>
   <g id="line2d_33">
    <path clip-path="url(#p6cf9947767)" d="M 138.084384 245.80951 
" style="fill:none;stroke:#00bfbf;stroke-linecap:square;stroke-width:1.5;"/>
    <defs>
     <path d="M -12 12 
L 12 -12 
M -12 -12 
L 12 12 
" id="mf4e72f996c" style="stroke:#00bfbf;"/>
    </defs>
    <g clip-path="url(#p6cf9947767)">
     <use style="fill:#00bfbf;stroke:#00bfbf;" x="138.084384" xlink:href="#mf4e72f996c" y="245.80951"/>
    </g>
   </g>
   <g id="line2d_34">
    <defs>
     <path d="M 0 1.5 
C 0.397805 1.5 0.77937 1.341951 1.06066 1.06066 
C 1.341951 0.77937 1.5 0.397805 1.5 0 
C 1.5 -0.397805 1.341951 -0.77937 1.06066 -1.06066 
C 0.77937 -1.341951 0.397805 -1.5 0 -1.5 
C -0.397805 -1.5 -0.77937 -1.341951 -1.06066 -1.06066 
C -1.341951 -0.77937 -1.5 -0.397805 -1.5 0 
C -1.5 0.397805 -1.341951 0.77937 -1.06066 1.06066 
C -0.77937 1.341951 -0.397805 1.5 0 1.5 
z
" id="m49ca832fe9" style="stroke:#008000;"/>
    </defs>
    <g>
     <use style="fill:#008000;stroke:#008000;" x="219.923445" xlink:href="#m49ca832fe9" y="244.208065"/>
     <use style="fill:#008000;stroke:#008000;" x="219.923445" xlink:href="#m49ca832fe9" y="244.208065"/>
    </g>
   </g>
   <g id="line2d_35">
    <path d="M 38.440992 298.944 
L 38.440992 289.120214 
L 50.52898 289.120214 
L 50.52898 286.562684 
L 57.6 286.562684 
L 57.6 285.032946 
L 62.616969 285.032946 
L 62.616969 284.029055 
L 66.508432 284.029055 
L 66.508432 282.881752 
L 69.687988 282.881752 
L 69.687988 281.782253 
L 72.376266 281.782253 
L 72.376266 280.993482 
L 74.704957 280.993482 
L 74.704957 280.300319 
L 76.759008 280.300319 
L 76.759008 279.678863 
L 78.59642 279.678863 
L 78.59642 279.463744 
L 81.775977 279.392037 
L 81.775977 279.176918 
L 83.171864 279.176918 
L 83.171864 278.961798 
L 84.464254 278.961798 
L 84.464254 278.794483 
L 85.66744 278.794483 
L 85.66744 278.364245 
L 86.792945 278.364245 
L 86.792945 278.19693 
L 87.850195 278.19693 
L 87.850195 277.838397 
L 88.846997 277.838397 
L 88.846997 277.455963 
L 89.78989 277.455963 
L 89.78989 277.193039 
L 90.684409 277.193039 
L 90.684409 276.954017 
L 91.535274 276.954017 
L 91.535274 276.834507 
L 92.34655 276.834507 
L 92.34655 276.667192 
L 93.863965 276.619387 
L 93.863965 276.452072 
L 94.575872 276.452072 
L 94.575872 276.213051 
L 95.918017 276.165246 
L 95.918017 275.997931 
L 96.552242 275.997931 
L 96.552242 275.782812 
L 97.16421 275.782812 
L 97.16421 275.400377 
L 97.755429 275.400377 
L 97.755429 275.20916 
L 98.880934 275.185258 
L 98.880934 275.089649 
L 99.938184 275.017943 
L 99.938184 274.87453 
L 100.934985 274.778921 
L 100.934985 274.444291 
L 101.877879 274.348683 
L 101.877879 274.276976 
L 102.772397 274.253074 
L 102.772397 274.157465 
L 103.623262 274.061857 
L 103.623262 273.966248 
L 104.033617 273.966248 
L 104.033617 273.822835 
L 104.826449 273.751129 
L 104.826449 273.559911 
L 105.584798 273.536009 
L 105.584798 273.344792 
L 106.311539 273.249183 
L 106.311539 273.105771 
L 107.009204 273.010162 
L 107.009204 272.795043 
L 107.680028 272.77114 
L 107.680028 272.65163 
L 108.640231 272.579923 
L 108.640231 272.412608 
L 109.550313 272.412608 
L 109.550313 272.245293 
L 110.131676 272.173586 
L 110.131676 272.030174 
L 110.968922 271.934565 
L 110.968922 271.647739 
L 111.767808 271.623837 
L 111.767808 271.480424 
L 112.280765 271.43262 
L 112.280765 271.337011 
L 113.022974 271.265305 
L 113.022974 271.193598 
L 113.500792 271.145794 
L 113.500792 271.074087 
L 113.73488 271.074087 
L 113.73488 270.88287 
L 113.965867 270.88287 
L 113.965867 270.763359 
L 114.418861 270.691653 
L 114.418861 270.619946 
L 114.860386 270.54824 
L 114.860386 270.452631 
L 115.077025 270.452631 
L 115.077025 270.333121 
L 115.502395 270.309218 
L 115.502395 270.21361 
L 116.121606 270.118001 
L 116.121606 270.094099 
L 116.719583 270.046295 
L 116.719583 269.974588 
L 117.297733 269.902882 
L 117.297733 269.807273 
L 118.039942 269.711665 
L 118.039942 269.592154 
L 118.399528 269.544349 
L 118.399528 269.472643 
L 119.097192 269.424839 
L 119.097192 269.32923 
L 119.267333 269.32923 
L 119.267333 269.161915 
L 119.931767 269.090209 
L 119.931767 268.970698 
L 120.254726 268.946796 
L 120.254726 268.827285 
L 120.571812 268.827285 
L 120.571812 268.707774 
L 121.189196 268.65997 
L 121.189196 268.492655 
L 122.076131 268.397046 
L 122.076131 268.349242 
L 122.503236 268.32534 
L 122.503236 268.205829 
L 122.920132 268.181927 
L 122.920132 268.014612 
L 123.460928 267.966807 
L 123.460928 267.895101 
L 124.114161 267.847296 
L 124.114161 267.727786 
L 124.494669 267.632177 
L 124.494669 267.560471 
L 125.23165 267.464862 
L 125.23165 267.44096 
L 125.706218 267.369253 
L 125.706218 267.201938 
L 126.618283 267.10633 
L 126.729009 267.058525 
L 127.165014 266.986819 
L 127.165014 266.89121 
L 128.005624 266.867308 
L 128.107907 266.604384 
L 128.209594 266.604384 
L 128.310692 266.389265 
L 128.807571 266.293656 
L 128.905271 266.22195 
L 129.480244 266.126341 
L 129.480244 266.054635 
L 130.218525 266.006831 
L 130.30865 265.88732 
L 131.013364 265.791711 
L 131.013364 265.743907 
L 131.439773 265.648298 
L 131.439773 265.576592 
L 131.856005 265.480983 
L 131.938072 265.289766 
L 132.501978 265.194157 
L 132.581068 265.074646 
L 132.816208 265.050744 
L 132.893889 264.740016 
L 133.503183 264.644408 
L 133.503183 264.572701 
L 134.939326 264.477093 
L 135.00812 264.381484 
L 135.212889 264.309778 
L 135.212889 264.261973 
L 135.348078 264.261973 
L 135.415281 263.99905 
L 135.548916 263.903441 
L 135.548916 263.879539 
L 135.813153 263.807832 
L 135.813153 263.760028 
L 136.266147 263.688321 
L 136.266147 263.616615 
L 136.456742 263.568811 
L 136.456742 263.497104 
L 137.138292 263.425398 
L 137.138292 263.377593 
L 138.084384 263.305887 
L 138.141844 263.234181 
L 138.313099 263.162474 
L 138.369812 263.090768 
L 138.650644 262.995159 
L 138.761723 262.923453 
L 138.927025 262.851746 
L 139.036363 262.660529 
L 139.413734 262.56492 
L 139.520072 262.469312 
L 140.195896 262.373703 
L 140.246813 262.325899 
L 140.747977 262.23029 
L 140.79731 262.158584 
L 141.283115 262.062975 
L 141.378673 261.943464 
L 141.80232 261.847856 
L 141.80232 261.823953 
L 142.261275 261.752247 
L 142.306513 261.68054 
L 142.840411 261.584932 
L 142.927826 261.417617 
L 143.44331 261.322008 
L 143.44331 261.274204 
L 143.820164 261.178595 
L 143.861538 261.130791 
L 144.430703 261.035182 
L 144.470655 260.987378 
L 144.826168 260.891769 
L 144.826168 260.867867 
L 145.174578 260.772259 
L 145.174578 260.724454 
L 145.665858 260.628846 
L 145.665858 260.581041 
L 145.924771 260.485433 
L 145.924771 260.461531 
L 147.027314 260.365922 
L 147.130404 260.318118 
L 147.300877 260.222509 
L 147.368603 260.1269 
L 147.636905 260.055194 
L 147.736463 259.768368 
L 147.933891 259.696662 
L 147.933891 259.672759 
L 147.933891 259.648857 
L 148.48143 259.553249 
L 148.48143 259.505444 
L 148.857832 259.409836 
L 148.919783 259.242521 
L 149.226281 259.146912 
L 149.286939 259.051303 
L 149.437669 258.979597 
L 149.467659 258.907891 
L 149.764758 258.812282 
L 149.764758 258.78838 
L 150.201126 258.692771 
L 150.258492 258.621065 
L 150.542526 258.525456 
L 150.542526 258.501554 
L 150.822008 258.405945 
L 150.904986 258.334239 
L 151.124351 258.23863 
L 151.151579 258.190826 
L 151.528368 258.119119 
L 151.528368 258.095217 
L 151.528368 258.071315 
L 152.181601 257.975706 
L 152.181601 257.951804 
L 152.712018 257.856196 
L 152.761703 257.760587 
L 153.129893 257.664978 
L 153.129893 257.641076 
L 153.371104 257.545468 
L 153.371104 257.497663 
L 153.936752 257.402055 
L 153.936752 257.378153 
L 154.326601 257.282544 
L 154.417077 257.210838 
L 155.253971 257.115229 
L 155.361158 257.043522 
L 155.657823 256.995718 
L 155.657823 256.876207 
L 156.398281 256.780599 
L 156.478647 256.637186 
L 156.737306 256.541577 
L 156.776762 256.493773 
L 157.528821 256.398164 
L 157.622935 256.302556 
L 158.231665 256.206947 
L 158.340096 256.159143 
L 159.405822 256.087436 
L 159.490356 256.01573 
L 159.641491 255.944023 
L 159.641491 255.920121 
L 159.69158 255.872317 
L 159.972732 255.776708 
L 160.070889 255.705002 
L 160.233268 255.609393 
L 160.233268 255.585491 
L 160.883648 255.489882 
L 160.914762 255.442078 
L 161.238149 255.346469 
L 161.238149 255.322567 
L 161.600536 255.274763 
L 161.660209 255.083546 
L 161.838011 254.987937 
L 161.911563 254.940133 
L 162.274744 254.868426 
L 162.346481 254.748916 
L 163.034316 254.653307 
L 163.144084 254.557698 
L 163.589711 254.46209 
L 163.629664 254.366481 
L 164.050224 254.270872 
L 164.050224 254.24697 
L 164.51154 254.151362 
L 164.574657 254.031851 
L 165.132663 253.936242 
L 165.193576 253.792829 
L 165.602233 253.721123 
L 165.602233 253.697221 
L 165.685193 253.57771 
L 165.9084 253.482101 
L 165.9084 253.434297 
L 166.323641 253.362591 
L 166.357802 253.266982 
L 166.906499 253.171373 
L 166.96153 253.123569 
L 167.244924 253.02796 
L 167.341959 252.980156 
L 167.608702 252.884547 
L 167.651004 252.812841 
L 167.985782 252.717232 
L 167.985782 252.69333 
L 168.795644 252.597722 
L 168.894283 252.430407 
L 169.080173 252.3587 
L 169.080173 252.310896 
L 169.60737 252.215287 
L 169.635673 252.167483 
L 170.446091 252.071874 
L 170.446091 252.047972 
L 171.332059 251.952363 
L 171.332059 251.904559 
L 171.654076 251.80895 
L 171.746192 251.68944 
L 172.093501 251.593831 
L 172.12622 251.522125 
L 173.057066 251.426516 
L 173.057066 251.402614 
L 173.718386 251.307005 
L 173.822502 251.187494 
L 174.00689 251.091886 
L 174.021557 250.996277 
L 174.746654 250.900669 
L 174.781778 250.852864 
L 175.218389 250.757256 
L 175.327556 250.685549 
L 176.125223 250.589941 
L 176.209486 250.494332 
L 176.498063 250.398723 
L 176.567884 250.303115 
L 176.962469 250.207506 
L 177.042792 250.1358 
L 177.943781 250.064093 
L 178.043018 249.872876 
L 178.12432 249.777267 
L 178.159048 249.729463 
L 178.638117 249.633854 
L 178.744676 249.58605 
L 179.643667 249.490441 
L 179.744273 249.394833 
L 180.016686 249.299224 
L 180.104829 249.203616 
L 180.453011 249.108007 
L 180.453011 249.084105 
L 181.001933 248.988496 
L 181.109673 248.940692 
L 181.236151 248.845083 
L 181.332822 248.749475 
L 181.534102 248.653866 
L 181.534102 248.629964 
L 181.878511 248.534355 
L 181.878511 248.510453 
L 182.596956 248.414844 
L 182.699764 248.271432 
L 183.243826 248.175823 
L 183.278351 248.128019 
L 183.90087 248.03241 
L 183.921659 247.984606 
L 184.169204 247.888997 
L 184.27132 247.841193 
L 185.141181 247.745584 
L 185.183749 247.649976 
L 185.88452 247.554367 
L 185.88452 247.530465 
L 186.389511 247.434856 
L 186.479451 247.387052 
L 186.897815 247.291443 
L 186.897815 247.267541 
L 187.408741 247.171932 
L 187.408741 247.14803 
L 188.310402 247.052422 
L 188.400628 246.932911 
L 188.744333 246.837302 
L 188.785252 246.765596 
L 189.28116 246.669987 
L 189.378671 246.550476 
L 190.145552 246.454868 
L 190.252818 246.263651 
L 191.112764 246.168042 
L 191.112764 246.14414 
L 191.797909 246.048531 
L 191.858641 246.000727 
L 192.852514 245.905118 
L 192.852514 245.881216 
L 193.42563 245.785607 
L 193.488162 245.666097 
L 194.531849 245.570488 
L 194.531849 245.546586 
L 196.113218 245.450977 
L 196.189467 245.403173 
L 196.757915 245.331467 
L 196.757915 245.307564 
L 196.775818 245.25976 
L 197.845812 245.164151 
L 197.845812 245.140249 
L 199.206854 245.044641 
L 199.206854 245.020738 
L 200.224687 244.92513 
L 200.224687 244.901228 
L 202.316223 244.805619 
L 202.362469 244.733913 
L 205.191414 244.638304 
L 205.191414 244.614402 
L 206.65711 244.518793 
L 206.65711 244.494891 
L 209.764686 244.399282 
L 209.764686 244.37538 
L 213.188462 244.279772 
L 213.188462 244.25587 
L 338.688 244.208065 
L 338.688 244.208065 
" style="fill:none;stroke:#008000;stroke-linecap:square;stroke-width:1.5;"/>
   </g>
   <g id="line2d_36">
    <defs>
     <path d="M -0 6 
L 6 -6 
L -6 -6 
z
" id="me4e5dcab06" style="stroke:#008000;stroke-linejoin:miter;stroke-width:1.5;"/>
    </defs>
    <g>
     <use style="fill-opacity:0;stroke:#008000;stroke-linejoin:miter;stroke-width:1.5;" x="101.412804" xlink:href="#me4e5dcab06" y="274.444291"/>
     <use style="fill-opacity:0;stroke:#008000;stroke-linejoin:miter;stroke-width:1.5;" x="151.421542" xlink:href="#me4e5dcab06" y="258.166924"/>
     <use style="fill-opacity:0;stroke:#008000;stroke-linejoin:miter;stroke-width:1.5;" x="219.923445" xlink:href="#me4e5dcab06" y="244.231967"/>
     <use style="fill-opacity:0;stroke:#008000;stroke-linejoin:miter;stroke-width:1.5;" x="219.923445" xlink:href="#me4e5dcab06" y="244.208065"/>
     <use style="fill-opacity:0;stroke:#008000;stroke-linejoin:miter;stroke-width:1.5;" x="219.923445" xlink:href="#me4e5dcab06" y="244.208065"/>
     <use style="fill-opacity:0;stroke:#008000;stroke-linejoin:miter;stroke-width:1.5;" x="338.688" xlink:href="#me4e5dcab06" y="244.208065"/>
    </g>
   </g>
   <g id="line2d_37">
    <path style="fill:none;stroke:#008000;stroke-linecap:square;stroke-width:1.5;"/>
    <g/>
   </g>
   <g id="line2d_38">
    <path clip-path="url(#p6cf9947767)" d="M 138.084384 263.258083 
" style="fill:none;stroke:#008000;stroke-linecap:square;stroke-width:1.5;"/>
    <defs>
     <path d="M -12 12 
L 12 -12 
M -12 -12 
L 12 12 
" id="m2a4c54cafd" style="stroke:#008000;"/>
    </defs>
    <g clip-path="url(#p6cf9947767)">
     <use style="fill:#008000;stroke:#008000;" x="138.084384" xlink:href="#m2a4c54cafd" y="263.258083"/>
    </g>
   </g>
   <g id="line2d_39">
    <defs>
     <path d="M 0 1.5 
C 0.397805 1.5 0.77937 1.341951 1.06066 1.06066 
C 1.341951 0.77937 1.5 0.397805 1.5 0 
C 1.5 -0.397805 1.341951 -0.77937 1.06066 -1.06066 
C 0.77937 -1.341951 0.397805 -1.5 0 -1.5 
C -0.397805 -1.5 -0.77937 -1.341951 -1.06066 -1.06066 
C -1.341951 -0.77937 -1.5 -0.397805 -1.5 0 
C -1.5 0.397805 -1.341951 0.77937 -1.06066 1.06066 
C -0.77937 1.341951 -0.397805 1.5 0 1.5 
z
" id="m32d901cd33" style="stroke:#0000ff;"/>
    </defs>
    <g>
     <use style="fill:#0000ff;stroke:#0000ff;" x="211.16464" xlink:href="#m32d901cd33" y="266.437069"/>
     <use style="fill:#0000ff;stroke:#0000ff;" x="211.16464" xlink:href="#m32d901cd33" y="266.437069"/>
    </g>
   </g>
   <g id="line2d_40">
    <path d="M 29.53256 298.944 
L 29.53256 292.466516 
L 41.620548 292.466516 
L 41.620548 291.080191 
L 48.691568 291.080191 
L 48.691568 289.908985 
L 53.708537 289.908985 
L 53.708537 289.263627 
L 57.6 289.263627 
L 57.6 288.570465 
L 60.779557 288.570465 
L 60.779557 288.283639 
L 63.467834 288.283639 
L 63.467834 287.877302 
L 65.796525 287.877302 
L 65.796525 287.494868 
L 67.850577 287.494868 
L 67.850577 287.136335 
L 69.687988 287.136335 
L 69.687988 287.016825 
L 71.35013 287.016825 
L 71.35013 286.658292 
L 72.867545 286.658292 
L 72.867545 286.395369 
L 74.263433 286.395369 
L 74.263433 286.156347 
L 75.555822 286.156347 
L 75.555822 286.036836 
L 78.941764 285.941228 
L 78.941764 285.917326 
L 79.938565 285.917326 
L 79.938565 285.582695 
L 80.881459 285.582695 
L 80.881459 285.439282 
L 83.438118 285.343674 
L 83.438118 285.29587 
L 84.213325 285.29587 
L 84.213325 285.009044 
L 84.955534 285.009044 
L 84.955534 284.674414 
L 86.351421 284.626609 
L 86.351421 284.387588 
L 87.643811 284.291979 
L 87.643811 284.244175 
L 88.255778 284.244175 
L 88.255778 283.981251 
L 89.418828 283.885642 
L 89.418828 283.790034 
L 89.972502 283.790034 
L 89.972502 283.622719 
L 91.535274 283.52711 
L 91.535274 283.479306 
L 92.504372 283.407599 
L 92.504372 283.359795 
L 94.294587 283.288089 
L 94.294587 283.144676 
L 95.125186 283.072969 
L 95.125186 282.977361 
L 95.918017 282.905654 
L 95.918017 282.833948 
L 96.676366 282.738339 
L 96.676366 282.666632 
L 98.771596 282.594926 
L 98.771596 282.499317 
L 100.040467 282.403709 
L 100.040467 282.355904 
L 101.223245 282.3081 
L 101.223245 282.188589 
L 101.785851 282.092981 
L 101.785851 282.069079 
L 102.330873 281.97347 
L 102.330873 281.949568 
L 103.870632 281.877861 
L 103.870632 281.758351 
L 104.355088 281.686644 
L 104.355088 281.591036 
L 105.057436 281.567133 
L 105.057436 281.447623 
L 105.951954 281.375916 
L 105.951954 281.256405 
L 106.168594 281.256405 
L 106.168594 281.136895 
L 106.382575 281.136895 
L 106.382575 280.993482 
L 107.414787 280.921775 
L 107.414787 280.850069 
L 107.614095 280.850069 
L 107.614095 280.706656 
L 108.764355 280.611047 
L 108.764355 280.491536 
L 109.843417 280.395928 
L 109.843417 280.300319 
L 110.527398 280.204711 
L 110.527398 280.156906 
L 111.185562 280.0852 
L 111.185562 280.037395 
L 112.877038 279.941787 
L 112.877038 279.893983 
L 113.594805 279.822276 
L 113.594805 279.75057 
L 114.0117 279.654961 
L 114.0117 279.631059 
L 114.685115 279.559352 
L 114.685115 279.487646 
L 115.33349 279.415939 
L 115.33349 279.368135 
L 115.835374 279.272526 
L 115.835374 279.248624 
L 116.680349 279.176918 
L 116.680349 279.081309 
L 117.930605 278.985701 
L 117.930605 278.937896 
L 118.786692 278.86619 
L 118.890808 278.698875 
L 119.602714 278.603266 
L 119.702083 278.53156 
L 120.286695 278.435951 
L 120.286695 278.412049 
L 121.036887 278.31644 
L 121.036887 278.268636 
L 122.531342 278.220832 
L 122.531342 278.149125 
L 123.111324 278.053517 
L 123.111324 278.029614 
L 123.829748 277.934006 
L 123.829748 277.910104 
L 124.817858 277.814495 
L 124.817858 277.790593 
L 125.682793 277.694984 
L 125.752972 277.623278 
L 126.573795 277.551571 
L 126.573795 277.479865 
L 127.48501 277.384256 
L 127.48501 277.360354 
L 128.107907 277.264745 
L 128.107907 277.240843 
L 128.885774 277.145235 
L 128.885774 277.121333 
L 130.018593 277.025724 
L 130.018593 277.001822 
L 130.45189 276.906213 
L 130.45189 276.834507 
L 131.490249 276.7628 
L 131.540579 276.667192 
L 132.893889 276.571583 
L 132.940331 276.499877 
L 133.216421 276.42817 
L 133.216421 276.332561 
L 134.364738 276.236953 
L 134.364738 276.213051 
L 135.199312 276.117442 
L 135.199312 276.069638 
L 135.760625 276.021833 
L 135.760625 275.926225 
L 135.956794 275.854518 
L 135.956794 275.782812 
L 136.68274 275.711105 
L 136.68274 275.639399 
L 137.735587 275.54379 
L 137.735587 275.519888 
L 138.118883 275.42428 
L 138.187677 275.328671 
L 138.392446 275.233062 
L 138.493936 275.185258 
L 138.761723 275.089649 
L 138.794909 275.041845 
L 139.980403 274.946236 
L 139.980403 274.898432 
L 140.469102 274.802824 
L 140.559227 274.683313 
L 141.858037 274.587704 
L 141.858037 274.563802 
L 144.221461 274.468193 
L 144.221461 274.444291 
L 144.841802 274.348683 
L 144.841802 274.32478 
L 145.910079 274.229172 
L 146.019967 274.157465 
L 146.728368 274.061857 
L 146.728368 274.037955 
L 147.368603 273.942346 
L 147.368603 273.918444 
L 148.103206 273.822835 
L 148.1808 273.775031 
L 149.030744 273.679422 
L 149.067574 273.583814 
L 150.137805 273.488205 
L 150.137805 273.440401 
L 150.412445 273.368694 
L 150.49739 273.296988 
L 151.676833 273.201379 
L 151.708484 273.153575 
L 152.375429 273.057966 
L 152.421022 272.98626 
L 153.509492 272.890651 
L 153.509492 272.866749 
L 154.667942 272.77114 
L 154.667942 272.747238 
L 155.050658 272.65163 
L 155.063706 272.603825 
L 155.55245 272.508217 
L 155.61575 272.460412 
L 155.841748 272.364804 
L 155.841748 272.340902 
L 156.32159 272.245293 
L 156.32159 272.221391 
L 157.742664 272.125782 
L 157.742664 272.10188 
L 157.998067 272.006271 
L 157.998067 271.982369 
L 159.149734 271.910663 
L 159.242359 271.838956 
L 160.764907 271.743348 
L 160.811875 271.695543 
L 161.672119 271.599935 
L 161.672119 271.576033 
L 162.397949 271.480424 
L 162.491916 271.408718 
L 162.812686 271.313109 
L 162.896128 271.241402 
L 163.613694 271.145794 
L 163.66156 271.074087 
L 164.9363 270.978479 
L 165.024937 270.930674 
L 165.697012 270.835066 
L 165.697012 270.811164 
L 166.908703 270.715555 
L 166.908703 270.691653 
L 168.281683 270.596044 
L 168.330516 270.500436 
L 168.964959 270.428729 
L 169.011918 270.333121 
L 170.069512 270.237512 
L 170.075029 270.189708 
L 171.289242 270.094099 
L 171.289242 270.070197 
L 172.044307 269.99849 
L 172.078757 269.902882 
L 172.725446 269.807273 
L 172.777482 269.759469 
L 173.968698 269.66386 
L 174.030352 269.592154 
L 175.03814 269.496545 
L 175.03814 269.472643 
L 175.685698 269.377034 
L 175.72962 269.32923 
L 176.631116 269.233621 
L 176.653823 269.161915 
L 177.646212 269.066306 
L 177.646212 269.042404 
L 178.250169 268.946796 
L 178.250169 268.922893 
L 180.064442 268.827285 
L 180.095517 268.755578 
L 181.642403 268.65997 
L 181.642403 268.636068 
L 182.979181 268.540459 
L 182.979181 268.492655 
L 183.901702 268.397046 
L 183.901702 268.373144 
L 185.912715 268.277535 
L 186.019147 268.229731 
L 186.438496 268.134122 
L 186.438496 268.11022 
L 188.262522 268.014612 
L 188.262522 267.990709 
L 188.976606 267.895101 
L 188.976606 267.871199 
L 189.556439 267.77559 
L 189.556439 267.751688 
L 190.437959 267.656079 
L 190.497908 267.608275 
L 191.308095 267.512666 
L 191.308095 267.488764 
L 193.339643 267.393156 
L 193.339643 267.369253 
L 194.061077 267.273645 
L 194.061077 267.249743 
L 195.555013 267.154134 
L 195.555013 267.130232 
L 197.233431 267.034623 
L 197.233431 267.010721 
L 198.245849 266.915112 
L 198.245849 266.89121 
L 199.10277 266.795602 
L 199.10277 266.771699 
L 203.295409 266.676091 
L 203.295409 266.652189 
L 206.962654 266.55658 
L 207.021092 266.508776 
L 338.688 266.437069 
L 338.688 266.437069 
" style="fill:none;stroke:#0000ff;stroke-linecap:square;stroke-width:1.5;"/>
   </g>
   <g id="line2d_41">
    <defs>
     <path d="M 0 -6 
L -1.347084 -1.854102 
L -5.706339 -1.854102 
L -2.179628 0.708204 
L -3.526712 4.854102 
L -0 2.291796 
L 3.526712 4.854102 
L 2.179628 0.708204 
L 5.706339 -1.854102 
L 1.347084 -1.854102 
z
" id="m9437174fe7" style="stroke:#0000ff;stroke-linejoin:bevel;stroke-width:1.5;"/>
    </defs>
    <g>
     <use style="fill-opacity:0;stroke:#0000ff;stroke-linejoin:bevel;stroke-width:1.5;" x="92.969447" xlink:href="#m9437174fe7" y="283.359795"/>
     <use style="fill-opacity:0;stroke:#0000ff;stroke-linejoin:bevel;stroke-width:1.5;" x="150.682827" xlink:href="#m9437174fe7" y="273.296988"/>
     <use style="fill-opacity:0;stroke:#0000ff;stroke-linejoin:bevel;stroke-width:1.5;" x="211.16464" xlink:href="#m9437174fe7" y="266.460971"/>
     <use style="fill-opacity:0;stroke:#0000ff;stroke-linejoin:bevel;stroke-width:1.5;" x="211.16464" xlink:href="#m9437174fe7" y="266.437069"/>
     <use style="fill-opacity:0;stroke:#0000ff;stroke-linejoin:bevel;stroke-width:1.5;" x="211.16464" xlink:href="#m9437174fe7" y="266.437069"/>
     <use style="fill-opacity:0;stroke:#0000ff;stroke-linejoin:bevel;stroke-width:1.5;" x="338.688" xlink:href="#m9437174fe7" y="266.437069"/>
    </g>
   </g>
   <g id="line2d_42">
    <path style="fill:none;stroke:#0000ff;stroke-linecap:square;stroke-width:1.5;"/>
    <g/>
   </g>
   <g id="line2d_43">
    <path clip-path="url(#p6cf9947767)" d="M 138.01518 275.448182 
" style="fill:none;stroke:#0000ff;stroke-linecap:square;stroke-width:1.5;"/>
    <defs>
     <path d="M -12 12 
L 12 -12 
M -12 -12 
L 12 12 
" id="m01a2b15d34" style="stroke:#0000ff;"/>
    </defs>
    <g clip-path="url(#p6cf9947767)">
     <use style="fill:#0000ff;stroke:#0000ff;" x="138.01518" xlink:href="#m01a2b15d34" y="275.448182"/>
    </g>
   </g>
   <g id="line2d_44">
    <defs>
     <path d="M 0 1.5 
C 0.397805 1.5 0.77937 1.341951 1.06066 1.06066 
C 1.341951 0.77937 1.5 0.397805 1.5 0 
C 1.5 -0.397805 1.341951 -0.77937 1.06066 -1.06066 
C 0.77937 -1.341951 0.397805 -1.5 0 -1.5 
C -0.397805 -1.5 -0.77937 -1.341951 -1.06066 -1.06066 
C -1.341951 -0.77937 -1.5 -0.397805 -1.5 0 
C -1.5 0.397805 -1.341951 0.77937 -1.06066 1.06066 
C -0.77937 1.341951 -0.397805 1.5 0 1.5 
z
" id="maabb508b90" style="stroke:#000000;"/>
    </defs>
    <g>
     <use style="stroke:#000000;" x="217.059152" xlink:href="#maabb508b90" y="280.539341"/>
     <use style="stroke:#000000;" x="217.059152" xlink:href="#maabb508b90" y="280.539341"/>
    </g>
   </g>
   <g id="line2d_45">
    <path d="M 17.444571 298.944 
L 17.444571 293.805037 
L 29.53256 293.805037 
L 29.53256 293.06407 
L 36.60358 293.06407 
L 36.60358 292.72944 
L 41.620548 292.72944 
L 41.620548 292.538222 
L 45.512012 292.538222 
L 45.512012 292.370907 
L 48.691568 292.370907 
L 48.691568 292.107984 
L 51.379845 292.107984 
L 51.379845 291.964571 
L 53.708537 291.964571 
L 53.708537 291.821158 
L 55.762588 291.821158 
L 55.762588 291.653843 
L 59.262141 291.558234 
L 59.262141 291.462626 
L 60.779557 291.462626 
L 60.779557 291.319213 
L 64.67102 291.223604 
L 64.67102 291.151897 
L 67.850577 291.080191 
L 67.850577 291.032387 
L 70.538854 291.008485 
L 70.538854 290.912876 
L 72.867545 290.841169 
L 72.867545 290.793365 
L 75.555822 290.769463 
L 75.555822 290.673854 
L 78.421149 290.578246 
L 78.421149 290.554344 
L 82.206598 290.458735 
L 82.206598 290.434833 
L 83.830028 290.387029 
L 83.830028 290.315322 
L 86.351421 290.219713 
L 86.351421 290.171909 
L 88.846997 290.076301 
L 88.846997 290.052398 
L 92.026554 289.95679 
L 92.026554 289.932888 
L 95.918017 289.861181 
L 95.918017 289.813377 
L 96.86091 289.717768 
L 96.86091 289.693866 
L 98.100772 289.598257 
L 98.100772 289.574355 
L 101.923711 289.478747 
L 101.923711 289.454844 
L 103.870632 289.359236 
L 103.870632 289.335334 
L 104.826449 289.239725 
L 104.826449 289.168019 
L 107.712901 289.07241 
L 107.712901 289.048508 
L 110.274038 288.952899 
L 110.358901 288.905095 
L 111.819788 288.809486 
L 111.819788 288.761682 
L 113.873839 288.666073 
L 113.873839 288.642171 
L 115.648856 288.546563 
L 115.648856 288.52266 
L 116.502698 288.427052 
L 116.502698 288.40315 
L 118.363901 288.307541 
L 118.363901 288.283639 
L 121.219499 288.18803 
L 121.219499 288.164128 
L 123.111324 288.092422 
L 123.111324 288.044617 
L 123.94666 287.949009 
L 123.94666 287.925107 
L 125.506102 287.829498 
L 125.576994 287.781694 
L 127.799239 287.686085 
L 127.799239 287.566574 
L 128.531065 287.470966 
L 128.590686 287.423161 
L 130.100661 287.327553 
L 130.155159 287.279748 
L 132.446401 287.18414 
L 132.446401 287.160238 
L 134.766144 287.064629 
L 134.849486 286.992923 
L 136.380754 286.921216 
L 136.380754 286.825607 
L 137.126135 286.729999 
L 137.126135 286.682195 
L 137.753193 286.682195 
L 137.753193 286.538782 
L 138.204833 286.443173 
L 138.204833 286.419271 
L 140.272217 286.323662 
L 140.272217 286.29976 
L 141.871938 286.204151 
L 141.871938 286.180249 
L 143.027814 286.084641 
L 143.131543 286.036836 
L 144.282077 285.941228 
L 144.282077 285.917326 
L 145.699363 285.821717 
L 145.732804 285.75001 
L 146.291697 285.654402 
L 146.356287 285.606598 
L 147.327999 285.510989 
L 147.327999 285.487087 
L 149.305096 285.391478 
L 149.305096 285.367576 
L 149.920192 285.29587 
L 149.946449 285.224163 
L 151.170613 285.128554 
L 151.170613 285.104652 
L 152.692105 285.009044 
L 152.796398 284.961239 
L 154.331136 284.865631 
L 154.432862 284.770022 
L 155.482553 284.674414 
L 155.482553 284.650511 
L 156.759018 284.554903 
L 156.764934 284.507098 
L 157.981524 284.41149 
L 157.981524 284.387588 
L 158.853132 284.291979 
L 158.874111 284.220273 
L 160.437332 284.124664 
L 160.48041 284.07686 
L 161.756743 283.981251 
L 161.854219 283.933447 
L 162.121678 283.837838 
L 162.121678 283.813936 
L 162.716232 283.718327 
L 162.800135 283.670523 
L 163.213702 283.574914 
L 163.234125 283.52711 
L 164.697709 283.431501 
L 164.787563 283.383697 
L 165.887376 283.288089 
L 165.887376 283.264186 
L 167.125588 283.168578 
L 167.125588 283.144676 
L 169.05875 283.049067 
L 169.07336 283.001263 
L 169.914348 282.905654 
L 169.914348 282.881752 
L 170.793552 282.786143 
L 170.899085 282.738339 
L 173.287187 282.64273 
L 173.346722 282.547122 
L 173.884674 282.451513 
L 173.884674 282.427611 
L 175.423872 282.332002 
L 175.423872 282.3081 
L 176.310068 282.212492 
L 176.310068 282.188589 
L 178.047092 282.092981 
L 178.047092 282.069079 
L 181.07791 281.97347 
L 181.07791 281.949568 
L 182.349535 281.853959 
L 182.349535 281.830057 
L 183.904198 281.734448 
L 183.931628 281.662742 
L 185.293557 281.567133 
L 185.293557 281.543231 
L 187.319035 281.447623 
L 187.319035 281.42372 
L 188.981269 281.328112 
L 188.981269 281.30421 
L 191.019251 281.208601 
L 191.019251 281.184699 
L 192.339594 281.08909 
L 192.339594 281.065188 
L 194.696821 280.969579 
L 194.696821 280.945677 
L 200.939608 280.850069 
L 200.939608 280.826167 
L 206.533354 280.730558 
L 206.533354 280.706656 
L 211.967645 280.611047 
L 211.967645 280.587145 
L 338.688 280.539341 
L 338.688 280.539341 
" style="fill:none;stroke:#000000;stroke-linecap:square;stroke-width:1.5;"/>
   </g>
   <g id="line2d_46">
    <defs>
     <path d="M 0 6 
C 1.591219 6 3.117479 5.367802 4.242641 4.242641 
C 5.367802 3.117479 6 1.591219 6 0 
C 6 -1.591219 5.367802 -3.117479 4.242641 -4.242641 
C 3.117479 -5.367802 1.591219 -6 0 -6 
C -1.591219 -6 -3.117479 -5.367802 -4.242641 -4.242641 
C -5.367802 -3.117479 -6 -1.591219 -6 0 
C -6 1.591219 -5.367802 3.117479 -4.242641 4.242641 
C -3.117479 5.367802 -1.591219 6 0 6 
z
" id="m9f6919eeec" style="stroke:#000000;stroke-width:1.5;"/>
    </defs>
    <g>
     <use style="fill-opacity:0;stroke:#000000;stroke-width:1.5;" x="145.910079" xlink:href="#m9f6919eeec" y="285.678304"/>
     <use style="fill-opacity:0;stroke:#000000;stroke-width:1.5;" x="209.657486" xlink:href="#m9f6919eeec" y="280.634949"/>
     <use style="fill-opacity:0;stroke:#000000;stroke-width:1.5;" x="217.059152" xlink:href="#m9f6919eeec" y="280.539341"/>
     <use style="fill-opacity:0;stroke:#000000;stroke-width:1.5;" x="217.059152" xlink:href="#m9f6919eeec" y="280.539341"/>
     <use style="fill-opacity:0;stroke:#000000;stroke-width:1.5;" x="338.688" xlink:href="#m9f6919eeec" y="280.539341"/>
    </g>
   </g>
   <g id="line2d_47">
    <path style="fill:none;stroke:#000000;stroke-linecap:square;stroke-width:1.5;"/>
    <g/>
   </g>
   <g id="line2d_48">
    <path clip-path="url(#p6cf9947767)" d="M 137.980475 286.514879 
" style="fill:none;stroke:#000000;stroke-linecap:square;stroke-width:1.5;"/>
    <defs>
     <path d="M -12 12 
L 12 -12 
M -12 -12 
L 12 12 
" id="m524cddb3ed" style="stroke:#000000;"/>
    </defs>
    <g clip-path="url(#p6cf9947767)">
     <use style="stroke:#000000;" x="137.980475" xlink:href="#m524cddb3ed" y="286.514879"/>
    </g>
   </g>
   <g id="line2d_49">
    <defs>
     <path d="M 0 1.5 
C 0.397805 1.5 0.77937 1.341951 1.06066 1.06066 
C 1.341951 0.77937 1.5 0.397805 1.5 0 
C 1.5 -0.397805 1.341951 -0.77937 1.06066 -1.06066 
C 0.77937 -1.341951 0.397805 -1.5 0 -1.5 
C -0.397805 -1.5 -0.77937 -1.341951 -1.06066 -1.06066 
C -1.341951 -0.77937 -1.5 -0.397805 -1.5 0 
C -1.5 0.397805 -1.341951 0.77937 -1.06066 1.06066 
C -0.77937 1.341951 -0.397805 1.5 0 1.5 
z
" id="m36a77d3036" style="stroke:#ff0000;"/>
    </defs>
    <g>
     <use style="fill:#ff0000;stroke:#ff0000;" x="216.824374" xlink:href="#m36a77d3036" y="288.905095"/>
     <use style="fill:#ff0000;stroke:#ff0000;" x="216.824374" xlink:href="#m36a77d3036" y="288.905095"/>
    </g>
   </g>
   <g id="line2d_50">
    <path d="M 5.356583 298.944 
L 5.356583 294.28308 
L 17.444571 294.28308 
L 17.444571 293.589917 
L 24.515591 293.589917 
L 24.515591 293.446504 
L 29.53256 293.446504 
L 29.53256 293.159679 
L 33.424023 293.159679 
L 33.424023 292.968461 
L 36.60358 292.968461 
L 36.60358 292.84895 
L 41.620548 292.777244 
L 41.620548 292.705538 
L 47.174153 292.609929 
L 47.174153 292.538222 
L 54.765787 292.442614 
L 54.765787 292.39481 
L 62.175444 292.299201 
L 62.175444 292.275299 
L 66.853775 292.17969 
L 66.853775 292.155788 
L 77.884514 292.060179 
L 77.884514 292.036277 
L 81.334453 291.940669 
L 81.334453 291.916766 
L 89.277618 291.84506 
L 89.277618 291.797256 
L 97.491858 291.701647 
L 97.491858 291.677745 
L 103.870632 291.582136 
L 103.870632 291.558234 
L 108.102622 291.462626 
L 108.102622 291.438723 
L 116.019919 291.343115 
L 116.019919 291.319213 
L 119.326492 291.223604 
L 119.326492 291.199702 
L 122.126502 291.104093 
L 122.126502 291.080191 
L 130.073348 290.984582 
L 130.073348 290.96068 
L 132.870621 290.865072 
L 132.870621 290.841169 
L 136.198943 290.745561 
L 136.198943 290.721659 
L 137.954401 290.62605 
L 137.954401 290.602148 
L 139.817018 290.506539 
L 139.817018 290.482637 
L 143.11861 290.387029 
L 143.11861 290.363126 
L 147.066904 290.267518 
L 147.066904 290.243616 
L 152.337344 290.148007 
L 152.356397 290.100203 
L 157.711875 290.004594 
L 157.711875 289.980692 
L 161.658719 289.885083 
L 161.658719 289.861181 
L 166.203547 289.765573 
L 166.203547 289.74167 
L 174.441985 289.646062 
L 174.441985 289.62216 
L 180.748333 289.526551 
L 180.748333 289.502649 
L 185.886562 289.40704 
L 185.886562 289.383138 
L 187.417244 289.287529 
L 187.417244 289.263627 
L 191.910492 289.168019 
L 191.910492 289.144116 
L 195.348438 289.048508 
L 195.348438 289.024606 
L 216.824374 288.928997 
L 216.824374 288.905095 
L 338.688 288.905095 
L 338.688 288.905095 
" style="fill:none;stroke:#ff0000;stroke-linecap:square;stroke-width:1.5;"/>
   </g>
   <g id="line2d_51">
    <defs>
     <path d="M -6 6 
L 6 6 
L 6 -6 
L -6 -6 
z
" id="mc42a66074a" style="stroke:#ff0000;stroke-linejoin:miter;stroke-width:1.5;"/>
    </defs>
    <g>
     <use style="fill-opacity:0;stroke:#ff0000;stroke-linejoin:miter;stroke-width:1.5;" x="113.382559" xlink:href="#mc42a66074a" y="291.367017"/>
     <use style="fill-opacity:0;stroke:#ff0000;stroke-linejoin:miter;stroke-width:1.5;" x="168.131278" xlink:href="#mc42a66074a" y="289.717768"/>
     <use style="fill-opacity:0;stroke:#ff0000;stroke-linejoin:miter;stroke-width:1.5;" x="216.824374" xlink:href="#mc42a66074a" y="288.928997"/>
     <use style="fill-opacity:0;stroke:#ff0000;stroke-linejoin:miter;stroke-width:1.5;" x="216.824374" xlink:href="#mc42a66074a" y="288.905095"/>
     <use style="fill-opacity:0;stroke:#ff0000;stroke-linejoin:miter;stroke-width:1.5;" x="216.824374" xlink:href="#mc42a66074a" y="288.905095"/>
     <use style="fill-opacity:0;stroke:#ff0000;stroke-linejoin:miter;stroke-width:1.5;" x="338.688" xlink:href="#mc42a66074a" y="288.905095"/>
    </g>
   </g>
   <g id="line2d_52">
    <path style="fill:none;stroke:#ff0000;stroke-linecap:square;stroke-width:1.5;"/>
    <g/>
   </g>
   <g id="line2d_53">
    <path clip-path="url(#p6cf9947767)" d="M 137.945701 290.62605 
" style="fill:none;stroke:#ff0000;stroke-linecap:square;stroke-width:1.5;"/>
    <defs>
     <path d="M -12 12 
L 12 -12 
M -12 -12 
L 12 12 
" id="m437b35fc2d" style="stroke:#ff0000;"/>
    </defs>
    <g clip-path="url(#p6cf9947767)">
     <use style="fill:#ff0000;stroke:#ff0000;" x="137.945701" xlink:href="#m437b35fc2d" y="290.62605"/>
    </g>
   </g>
   <g id="line2d_54">
    <defs>
     <path d="M 0 1.5 
C 0.397805 1.5 0.77937 1.341951 1.06066 1.06066 
C 1.341951 0.77937 1.5 0.397805 1.5 0 
C 1.5 -0.397805 1.341951 -0.77937 1.06066 -1.06066 
C 0.77937 -1.341951 0.397805 -1.5 0 -1.5 
C -0.397805 -1.5 -0.77937 -1.341951 -1.06066 -1.06066 
C -1.341951 -0.77937 -1.5 -0.397805 -1.5 0 
C -1.5 0.397805 -1.341951 0.77937 -1.06066 1.06066 
C -0.77937 1.341951 -0.397805 1.5 0 1.5 
z
" id="mfdcc179a3f" style="stroke:#bf00bf;"/>
    </defs>
    <g>
     <use style="fill:#bf00bf;stroke:#bf00bf;" x="192.756325" xlink:href="#mfdcc179a3f" y="291.534332"/>
     <use style="fill:#bf00bf;stroke:#bf00bf;" x="192.756325" xlink:href="#mfdcc179a3f" y="291.534332"/>
    </g>
   </g>
   <g id="line2d_55">
    <path d="M -1 294.522101 
L 5.356583 294.522101 
L 5.356583 294.235275 
L 12.427603 294.235275 
L 12.427603 294.044058 
L 17.444571 294.044058 
L 17.444571 293.900645 
L 24.515591 293.805037 
L 24.515591 293.685526 
L 31.586611 293.613819 
L 31.586611 293.566015 
L 35.086164 293.518211 
L 35.086164 293.446504 
L 39.291857 293.374798 
L 39.291857 293.326994 
L 53.708537 293.231385 
L 53.708537 293.207483 
L 71.35013 293.111874 
L 71.35013 293.087972 
L 83.23881 293.016266 
L 83.23881 292.968461 
L 91.535274 292.872853 
L 91.535274 292.84895 
L 100.971279 292.753342 
L 100.971279 292.72944 
L 105.341933 292.633831 
L 105.341933 292.609929 
L 110.859585 292.51432 
L 110.859585 292.490418 
L 131.465029 292.39481 
L 131.465029 292.370907 
L 138.902329 292.275299 
L 138.902329 292.251397 
L 150.01192 292.155788 
L 150.01192 292.131886 
L 155.87602 292.036277 
L 155.87602 292.012375 
L 165.265483 291.916766 
L 165.274564 291.868962 
L 171.848622 291.773354 
L 171.869783 291.725549 
L 182.91888 291.629941 
L 182.92086 291.582136 
L 338.688 291.534332 
L 338.688 291.534332 
" style="fill:none;stroke:#bf00bf;stroke-linecap:square;stroke-width:1.5;"/>
   </g>
   <g id="line2d_56">
    <defs>
     <path d="M 0 8.485281 
L 8.485281 0 
L 0 -8.485281 
L -8.485281 0 
z
" id="m3d95f977f2" style="stroke:#bf00bf;stroke-linejoin:miter;stroke-width:1.5;"/>
    </defs>
    <g>
     <use style="fill-opacity:0;stroke:#bf00bf;stroke-linejoin:miter;stroke-width:1.5;" x="94.921215" xlink:href="#m3d95f977f2" y="292.825048"/>
     <use style="fill-opacity:0;stroke:#bf00bf;stroke-linejoin:miter;stroke-width:1.5;" x="166.668984" xlink:href="#m3d95f977f2" y="291.821158"/>
     <use style="fill-opacity:0;stroke:#bf00bf;stroke-linejoin:miter;stroke-width:1.5;" x="192.756325" xlink:href="#m3d95f977f2" y="291.558234"/>
     <use style="fill-opacity:0;stroke:#bf00bf;stroke-linejoin:miter;stroke-width:1.5;" x="192.756325" xlink:href="#m3d95f977f2" y="291.534332"/>
     <use style="fill-opacity:0;stroke:#bf00bf;stroke-linejoin:miter;stroke-width:1.5;" x="192.756325" xlink:href="#m3d95f977f2" y="291.534332"/>
     <use style="fill-opacity:0;stroke:#bf00bf;stroke-linejoin:miter;stroke-width:1.5;" x="338.688" xlink:href="#m3d95f977f2" y="291.534332"/>
    </g>
   </g>
   <g id="line2d_57">
    <path style="fill:none;stroke:#bf00bf;stroke-linecap:square;stroke-width:1.5;"/>
    <g/>
   </g>
   <g id="line2d_58">
    <path clip-path="url(#p6cf9947767)" d="M 137.923932 292.323103 
" style="fill:none;stroke:#bf00bf;stroke-linecap:square;stroke-width:1.5;"/>
    <defs>
     <path d="M -12 12 
L 12 -12 
M -12 -12 
L 12 12 
" id="m072c6aabb2" style="stroke:#bf00bf;"/>
    </defs>
    <g clip-path="url(#p6cf9947767)">
     <use style="fill:#bf00bf;stroke:#bf00bf;" x="137.923932" xlink:href="#m072c6aabb2" y="292.323103"/>
    </g>
   </g>
   <g id="line2d_59">
    <path d="M 338.688 291.534332 
L 369.60768 293.092752 
" style="fill:none;stroke:#bf00bf;stroke-linecap:square;stroke-width:1.5;"/>
    <g>
     <use style="fill-opacity:0;stroke:#bf00bf;stroke-linejoin:miter;stroke-width:1.5;" x="338.688" xlink:href="#m3d95f977f2" y="291.534332"/>
     <use style="fill-opacity:0;stroke:#bf00bf;stroke-linejoin:miter;stroke-width:1.5;" x="369.60768" xlink:href="#m3d95f977f2" y="293.092752"/>
    </g>
   </g>
   <g id="line2d_60">
    <path d="M 338.688 288.905095 
L 369.60768 236.920776 
" style="fill:none;stroke:#ff0000;stroke-linecap:square;stroke-width:1.5;"/>
    <g>
     <use style="fill-opacity:0;stroke:#ff0000;stroke-linejoin:miter;stroke-width:1.5;" x="338.688" xlink:href="#mc42a66074a" y="288.905095"/>
     <use style="fill-opacity:0;stroke:#ff0000;stroke-linejoin:miter;stroke-width:1.5;" x="369.60768" xlink:href="#mc42a66074a" y="236.920776"/>
    </g>
   </g>
   <g id="line2d_61">
    <path d="M 338.688 280.539341 
L 369.60768 180.7488 
" style="fill:none;stroke:#000000;stroke-linecap:square;stroke-width:1.5;"/>
    <g>
     <use style="fill-opacity:0;stroke:#000000;stroke-width:1.5;" x="338.688" xlink:href="#m9f6919eeec" y="280.539341"/>
     <use style="fill-opacity:0;stroke:#000000;stroke-width:1.5;" x="369.60768" xlink:href="#m9f6919eeec" y="180.7488"/>
    </g>
   </g>
   <g id="line2d_62">
    <path d="M 338.688 266.437069 
L 369.60768 124.576824 
" style="fill:none;stroke:#0000ff;stroke-linecap:square;stroke-width:1.5;"/>
    <g>
     <use style="fill-opacity:0;stroke:#0000ff;stroke-linejoin:bevel;stroke-width:1.5;" x="338.688" xlink:href="#m9437174fe7" y="266.437069"/>
     <use style="fill-opacity:0;stroke:#0000ff;stroke-linejoin:bevel;stroke-width:1.5;" x="369.60768" xlink:href="#m9437174fe7" y="124.576824"/>
    </g>
   </g>
   <g id="line2d_63">
    <path d="M 338.688 244.208065 
L 369.60768 68.404848 
" style="fill:none;stroke:#008000;stroke-linecap:square;stroke-width:1.5;"/>
    <g>
     <use style="fill-opacity:0;stroke:#008000;stroke-linejoin:miter;stroke-width:1.5;" x="338.688" xlink:href="#me4e5dcab06" y="244.208065"/>
     <use style="fill-opacity:0;stroke:#008000;stroke-linejoin:miter;stroke-width:1.5;" x="369.60768" xlink:href="#me4e5dcab06" y="68.404848"/>
    </g>
   </g>
   <g id="line2d_64">
    <path d="M 338.688 215.764501 
L 369.60768 12.232871 
" style="fill:none;stroke:#00bfbf;stroke-linecap:square;stroke-width:1.5;"/>
    <g>
     <use style="fill-opacity:0;stroke:#00bfbf;stroke-width:1.5;" x="338.688" xlink:href="#mf6aff33162" y="215.764501"/>
     <use style="fill-opacity:0;stroke:#00bfbf;stroke-width:1.5;" x="369.60768" xlink:href="#mf6aff33162" y="12.232871"/>
    </g>
   </g>
   <g id="line2d_65">
    <path d="M 338.688 298.944 
L 338.688 6.381624 
" style="fill:none;stroke:#000000;stroke-linecap:square;stroke-width:1.5;"/>
   </g>
   <g id="patch_3">
    <path d="M 57.6 298.944 
L 57.6 3.456 
" style="fill:none;stroke:#000000;stroke-linecap:square;stroke-linejoin:miter;stroke-width:0.8;"/>
   </g>
   <g id="patch_4">
    <path d="M 338.688 298.944 
L 338.688 3.456 
" style="fill:none;stroke:#000000;stroke-linecap:square;stroke-linejoin:miter;stroke-width:0.8;"/>
   </g>
   <g id="patch_5">
    <path d="M 57.6 298.944 
L 338.688 298.944 
" style="fill:none;stroke:#000000;stroke-linecap:square;stroke-linejoin:miter;stroke-width:0.8;"/>
   </g>
   <g id="patch_6">
    <path d="M 57.6 3.456 
L 338.688 3.456 
" style="fill:none;stroke:#000000;stroke-linecap:square;stroke-linejoin:miter;stroke-width:0.8;"/>
   </g>
   <g id="text_13">
    <!-- 40-D -->
    <g transform="translate(375.22944 297.78369)scale(0.17 -0.17)">
     <defs>
      <path d="M 1259 4147 
L 1259 519 
L 2022 519 
Q 2988 519 3436 956 
Q 3884 1394 3884 2338 
Q 3884 3275 3436 3711 
Q 2988 4147 2022 4147 
L 1259 4147 
z
M 628 4666 
L 1925 4666 
Q 3281 4666 3915 4102 
Q 4550 3538 4550 2338 
Q 4550 1131 3912 565 
Q 3275 0 1925 0 
L 628 0 
L 628 4666 
z
" id="DejaVuSans-44" transform="scale(0.015625)"/>
     </defs>
     <use xlink:href="#DejaVuSans-34"/>
     <use x="63.623047" xlink:href="#DejaVuSans-30"/>
     <use x="127.246094" xlink:href="#DejaVuSans-2d"/>
     <use x="163.330078" xlink:href="#DejaVuSans-44"/>
    </g>
   </g>
   <g id="text_14">
    <!-- 20-D -->
    <g transform="translate(375.22944 241.611714)scale(0.17 -0.17)">
     <use xlink:href="#DejaVuSans-32"/>
     <use x="63.623047" xlink:href="#DejaVuSans-30"/>
     <use x="127.246094" xlink:href="#DejaVuSans-2d"/>
     <use x="163.330078" xlink:href="#DejaVuSans-44"/>
    </g>
   </g>
   <g id="text_15">
    <!-- 10-D -->
    <g transform="translate(375.22944 185.439737)scale(0.17 -0.17)">
     <use xlink:href="#DejaVuSans-31"/>
     <use x="63.623047" xlink:href="#DejaVuSans-30"/>
     <use x="127.246094" xlink:href="#DejaVuSans-2d"/>
     <use x="163.330078" xlink:href="#DejaVuSans-44"/>
    </g>
   </g>
   <g id="text_16">
    <!-- 5-D -->
    <g transform="translate(375.22944 129.267761)scale(0.17 -0.17)">
     <defs>
      <path d="M 691 4666 
L 3169 4666 
L 3169 4134 
L 1269 4134 
L 1269 2991 
Q 1406 3038 1543 3061 
Q 1681 3084 1819 3084 
Q 2600 3084 3056 2656 
Q 3513 2228 3513 1497 
Q 3513 744 3044 326 
Q 2575 -91 1722 -91 
Q 1428 -91 1123 -41 
Q 819 9 494 109 
L 494 744 
Q 775 591 1075 516 
Q 1375 441 1709 441 
Q 2250 441 2565 725 
Q 2881 1009 2881 1497 
Q 2881 1984 2565 2268 
Q 2250 2553 1709 2553 
Q 1456 2553 1204 2497 
Q 953 2441 691 2322 
L 691 4666 
z
" id="DejaVuSans-35" transform="scale(0.015625)"/>
     </defs>
     <use xlink:href="#DejaVuSans-35"/>
     <use x="63.623047" xlink:href="#DejaVuSans-2d"/>
     <use x="99.707031" xlink:href="#DejaVuSans-44"/>
    </g>
   </g>
   <g id="text_17">
    <!-- 3-D -->
    <g transform="translate(375.22944 73.095785)scale(0.17 -0.17)">
     <defs>
      <path d="M 2597 2516 
Q 3050 2419 3304 2112 
Q 3559 1806 3559 1356 
Q 3559 666 3084 287 
Q 2609 -91 1734 -91 
Q 1441 -91 1130 -33 
Q 819 25 488 141 
L 488 750 
Q 750 597 1062 519 
Q 1375 441 1716 441 
Q 2309 441 2620 675 
Q 2931 909 2931 1356 
Q 2931 1769 2642 2001 
Q 2353 2234 1838 2234 
L 1294 2234 
L 1294 2753 
L 1863 2753 
Q 2328 2753 2575 2939 
Q 2822 3125 2822 3475 
Q 2822 3834 2567 4026 
Q 2313 4219 1838 4219 
Q 1578 4219 1281 4162 
Q 984 4106 628 3988 
L 628 4550 
Q 988 4650 1302 4700 
Q 1616 4750 1894 4750 
Q 2613 4750 3031 4423 
Q 3450 4097 3450 3541 
Q 3450 3153 3228 2886 
Q 3006 2619 2597 2516 
z
" id="DejaVuSans-33" transform="scale(0.015625)"/>
     </defs>
     <use xlink:href="#DejaVuSans-33"/>
     <use x="63.623047" xlink:href="#DejaVuSans-2d"/>
     <use x="99.707031" xlink:href="#DejaVuSans-44"/>
    </g>
   </g>
   <g id="text_18">
    <!-- 2-D -->
    <g transform="translate(375.22944 16.923809)scale(0.17 -0.17)">
     <use xlink:href="#DejaVuSans-32"/>
     <use x="63.623047" xlink:href="#DejaVuSans-2d"/>
     <use x="99.707031" xlink:href="#DejaVuSans-44"/>
    </g>
   </g>
   <g id="text_19">
    <!-- bbob f1-f24 -->
    <g transform="translate(60.41088 14.161286)scale(0.102 -0.102)">
     <defs>
      <path d="M 3116 1747 
Q 3116 2381 2855 2742 
Q 2594 3103 2138 3103 
Q 1681 3103 1420 2742 
Q 1159 2381 1159 1747 
Q 1159 1113 1420 752 
Q 1681 391 2138 391 
Q 2594 391 2855 752 
Q 3116 1113 3116 1747 
z
M 1159 2969 
Q 1341 3281 1617 3432 
Q 1894 3584 2278 3584 
Q 2916 3584 3314 3078 
Q 3713 2572 3713 1747 
Q 3713 922 3314 415 
Q 2916 -91 2278 -91 
Q 1894 -91 1617 61 
Q 1341 213 1159 525 
L 1159 0 
L 581 0 
L 581 4863 
L 1159 4863 
L 1159 2969 
z
" id="DejaVuSans-62" transform="scale(0.015625)"/>
     </defs>
     <use xlink:href="#DejaVuSans-62"/>
     <use x="63.476562" xlink:href="#DejaVuSans-62"/>
     <use x="126.953125" xlink:href="#DejaVuSans-6f"/>
     <use x="188.134766" xlink:href="#DejaVuSans-62"/>
     <use x="251.611328" xlink:href="#DejaVuSans-20"/>
     <use x="283.398438" xlink:href="#DejaVuSans-66"/>
     <use x="318.603516" xlink:href="#DejaVuSans-31"/>
     <use x="382.226562" xlink:href="#DejaVuSans-2d"/>
     <use x="418.310547" xlink:href="#DejaVuSans-66"/>
     <use x="453.515625" xlink:href="#DejaVuSans-32"/>
     <use x="517.138672" xlink:href="#DejaVuSans-34"/>
    </g>
    <!-- 51 targets: 100..1e-08 -->
    <g transform="translate(60.41088 25.583055)scale(0.102 -0.102)">
     <defs>
      <path d="M 750 794 
L 1409 794 
L 1409 0 
L 750 0 
L 750 794 
z
M 750 3309 
L 1409 3309 
L 1409 2516 
L 750 2516 
L 750 3309 
z
" id="DejaVuSans-3a" transform="scale(0.015625)"/>
     </defs>
     <use xlink:href="#DejaVuSans-35"/>
     <use x="63.623047" xlink:href="#DejaVuSans-31"/>
     <use x="127.246094" xlink:href="#DejaVuSans-20"/>
     <use x="159.033203" xlink:href="#DejaVuSans-74"/>
     <use x="198.242188" xlink:href="#DejaVuSans-61"/>
     <use x="259.521484" xlink:href="#DejaVuSans-72"/>
     <use x="298.884766" xlink:href="#DejaVuSans-67"/>
     <use x="362.361328" xlink:href="#DejaVuSans-65"/>
     <use x="423.884766" xlink:href="#DejaVuSans-74"/>
     <use x="463.09375" xlink:href="#DejaVuSans-73"/>
     <use x="515.193359" xlink:href="#DejaVuSans-3a"/>
     <use x="548.884766" xlink:href="#DejaVuSans-20"/>
     <use x="580.671875" xlink:href="#DejaVuSans-31"/>
     <use x="644.294922" xlink:href="#DejaVuSans-30"/>
     <use x="707.917969" xlink:href="#DejaVuSans-30"/>
     <use x="771.541016" xlink:href="#DejaVuSans-2e"/>
     <use x="803.328125" xlink:href="#DejaVuSans-2e"/>
     <use x="835.115234" xlink:href="#DejaVuSans-31"/>
     <use x="898.738281" xlink:href="#DejaVuSans-65"/>
     <use x="960.261719" xlink:href="#DejaVuSans-2d"/>
     <use x="996.345703" xlink:href="#DejaVuSans-30"/>
     <use x="1059.96875" xlink:href="#DejaVuSans-38"/>
    </g>
    <!-- 15 instances -->
    <g transform="translate(60.41088 37.004824)scale(0.102 -0.102)">
     <use xlink:href="#DejaVuSans-31"/>
     <use x="63.623047" xlink:href="#DejaVuSans-35"/>
     <use x="127.246094" xlink:href="#DejaVuSans-20"/>
     <use x="159.033203" xlink:href="#DejaVuSans-69"/>
     <use x="186.816406" xlink:href="#DejaVuSans-6e"/>
     <use x="250.195312" xlink:href="#DejaVuSans-73"/>
     <use x="302.294922" xlink:href="#DejaVuSans-74"/>
     <use x="341.503906" xlink:href="#DejaVuSans-61"/>
     <use x="402.783203" xlink:href="#DejaVuSans-6e"/>
     <use x="466.162109" xlink:href="#DejaVuSans-63"/>
     <use x="521.142578" xlink:href="#DejaVuSans-65"/>
     <use x="582.666016" xlink:href="#DejaVuSans-73"/>
    </g>
   </g>
   <g id="text_20">
    <!-- v2.4 -->
    <g style="fill:#808080;" transform="translate(187.233062 293.909432)scale(0.1 -0.1)">
     <use xlink:href="#DejaVuSans-76"/>
     <use x="59.179688" xlink:href="#DejaVuSans-32"/>
     <use x="122.802734" xlink:href="#DejaVuSans-2e"/>
     <use x="154.589844" xlink:href="#DejaVuSans-34"/>
    </g>
   </g>
  </g>
 </g>
 <defs>
  <clipPath id="p6cf9947767">
   <rect height="295.488" width="281.088" x="57.6" y="3.456"/>
  </clipPath>
 </defs>
</svg>
