<?xml version="1.0" encoding="utf-8" standalone="no"?>
<!DOCTYPE svg PUBLIC "-//W3C//DTD SVG 1.1//EN"
  "http://www.w3.org/Graphics/SVG/1.1/DTD/svg11.dtd">
<svg height="345.6pt" version="1.1" viewBox="0 0 460.8 345.6" width="460.8pt" xmlns="http://www.w3.org/2000/svg" xmlns:xlink="http://www.w3.org/1999/xlink">
 <metadata>
  <rdf:RDF xmlns:cc="http://creativecommons.org/ns#" xmlns:dc="http://purl.org/dc/elements/1.1/" xmlns:rdf="http://www.w3.org/1999/02/22-rdf-syntax-ns#">
   <cc:Work>
    <dc:type rdf:resource="http://purl.org/dc/dcmitype/StillImage"/>
    <dc:date>2021-06-14T12:33:48.348074</dc:date>
    <dc:format>image/svg+xml</dc:format>
    <dc:creator>
     <cc:Agent>
      <dc:title>Matplotlib v3.4.2, https://matplotlib.org/</dc:title>
     </cc:Agent>
    </dc:creator>
   </cc:Work>
  </rdf:RDF>
 </metadata>
 <defs>
  <style type="text/css">*{stroke-linecap:butt;stroke-linejoin:round;}</style>
 </defs>
 <g id="figure_1">
  <g id="patch_1">
   <path d="M 0 345.6 
L 460.8 345.6 
L 460.8 0 
L 0 0 
z
" style="fill:#ffffff;"/>
  </g>
  <g id="axes_1">
   <g id="patch_2">
    <path d="M 57.6 298.944 
L 338.688 298.944 
L 338.688 3.456 
L 57.6 3.456 
z
" style="fill:#ffffff;"/>
   </g>
   <g id="matplotlib.axis_1">
    <g id="xtick_1">
     <g id="line2d_1">
      <path clip-path="url(#pb43107e13a)" d="M 57.6 298.944 
L 57.6 3.456 
" style="fill:none;stroke:#b0b0b0;stroke-linecap:square;stroke-width:0.8;"/>
     </g>
     <g id="line2d_2">
      <defs>
       <path d="M 0 0 
L 0 3.5 
" id="m6bc97339b2" style="stroke:#000000;stroke-width:0.8;"/>
      </defs>
      <g>
       <use style="stroke:#000000;stroke-width:0.8;" x="57.6" xlink:href="#m6bc97339b2" y="298.944"/>
      </g>
     </g>
     <g id="text_1">
      <!-- 0 -->
      <g transform="translate(51.2375 321.140875)scale(0.2 -0.2)">
       <defs>
        <path d="M 2034 4250 
Q 1547 4250 1301 3770 
Q 1056 3291 1056 2328 
Q 1056 1369 1301 889 
Q 1547 409 2034 409 
Q 2525 409 2770 889 
Q 3016 1369 3016 2328 
Q 3016 3291 2770 3770 
Q 2525 4250 2034 4250 
z
M 2034 4750 
Q 2819 4750 3233 4129 
Q 3647 3509 3647 2328 
Q 3647 1150 3233 529 
Q 2819 -91 2034 -91 
Q 1250 -91 836 529 
Q 422 1150 422 2328 
Q 422 3509 836 4129 
Q 1250 4750 2034 4750 
z
" id="DejaVuSans-30" transform="scale(0.015625)"/>
       </defs>
       <use xlink:href="#DejaVuSans-30"/>
      </g>
     </g>
    </g>
    <g id="xtick_2">
     <g id="line2d_3">
      <path clip-path="url(#pb43107e13a)" d="M 137.910857 298.944 
L 137.910857 3.456 
" style="fill:none;stroke:#b0b0b0;stroke-linecap:square;stroke-width:0.8;"/>
     </g>
     <g id="line2d_4">
      <g>
       <use style="stroke:#000000;stroke-width:0.8;" x="137.910857" xlink:href="#m6bc97339b2" y="298.944"/>
      </g>
     </g>
     <g id="text_2">
      <!-- 2 -->
      <g transform="translate(131.548357 321.140875)scale(0.2 -0.2)">
       <defs>
        <path d="M 1228 531 
L 3431 531 
L 3431 0 
L 469 0 
L 469 531 
Q 828 903 1448 1529 
Q 2069 2156 2228 2338 
Q 2531 2678 2651 2914 
Q 2772 3150 2772 3378 
Q 2772 3750 2511 3984 
Q 2250 4219 1831 4219 
Q 1534 4219 1204 4116 
Q 875 4013 500 3803 
L 500 4441 
Q 881 4594 1212 4672 
Q 1544 4750 1819 4750 
Q 2544 4750 2975 4387 
Q 3406 4025 3406 3419 
Q 3406 3131 3298 2873 
Q 3191 2616 2906 2266 
Q 2828 2175 2409 1742 
Q 1991 1309 1228 531 
z
" id="DejaVuSans-32" transform="scale(0.015625)"/>
       </defs>
       <use xlink:href="#DejaVuSans-32"/>
      </g>
     </g>
    </g>
    <g id="xtick_3">
     <g id="line2d_5">
      <path clip-path="url(#pb43107e13a)" d="M 218.221714 298.944 
L 218.221714 3.456 
" style="fill:none;stroke:#b0b0b0;stroke-linecap:square;stroke-width:0.8;"/>
     </g>
     <g id="line2d_6">
      <g>
       <use style="stroke:#000000;stroke-width:0.8;" x="218.221714" xlink:href="#m6bc97339b2" y="298.944"/>
      </g>
     </g>
     <g id="text_3">
      <!-- 4 -->
      <g transform="translate(211.859214 321.140875)scale(0.2 -0.2)">
       <defs>
        <path d="M 2419 4116 
L 825 1625 
L 2419 1625 
L 2419 4116 
z
M 2253 4666 
L 3047 4666 
L 3047 1625 
L 3713 1625 
L 3713 1100 
L 3047 1100 
L 3047 0 
L 2419 0 
L 2419 1100 
L 313 1100 
L 313 1709 
L 2253 4666 
z
" id="DejaVuSans-34" transform="scale(0.015625)"/>
       </defs>
       <use xlink:href="#DejaVuSans-34"/>
      </g>
     </g>
    </g>
    <g id="xtick_4">
     <g id="line2d_7">
      <path clip-path="url(#pb43107e13a)" d="M 298.532571 298.944 
L 298.532571 3.456 
" style="fill:none;stroke:#b0b0b0;stroke-linecap:square;stroke-width:0.8;"/>
     </g>
     <g id="line2d_8">
      <g>
       <use style="stroke:#000000;stroke-width:0.8;" x="298.532571" xlink:href="#m6bc97339b2" y="298.944"/>
      </g>
     </g>
     <g id="text_4">
      <!-- 6 -->
      <g transform="translate(292.170071 321.140875)scale(0.2 -0.2)">
       <defs>
        <path d="M 2113 2584 
Q 1688 2584 1439 2293 
Q 1191 2003 1191 1497 
Q 1191 994 1439 701 
Q 1688 409 2113 409 
Q 2538 409 2786 701 
Q 3034 994 3034 1497 
Q 3034 2003 2786 2293 
Q 2538 2584 2113 2584 
z
M 3366 4563 
L 3366 3988 
Q 3128 4100 2886 4159 
Q 2644 4219 2406 4219 
Q 1781 4219 1451 3797 
Q 1122 3375 1075 2522 
Q 1259 2794 1537 2939 
Q 1816 3084 2150 3084 
Q 2853 3084 3261 2657 
Q 3669 2231 3669 1497 
Q 3669 778 3244 343 
Q 2819 -91 2113 -91 
Q 1303 -91 875 529 
Q 447 1150 447 2328 
Q 447 3434 972 4092 
Q 1497 4750 2381 4750 
Q 2619 4750 2861 4703 
Q 3103 4656 3366 4563 
z
" id="DejaVuSans-36" transform="scale(0.015625)"/>
       </defs>
       <use xlink:href="#DejaVuSans-36"/>
      </g>
     </g>
    </g>
    <g id="xtick_5">
     <g id="line2d_9">
      <path clip-path="url(#pb43107e13a)" d="M 97.755429 298.944 
L 97.755429 3.456 
" style="fill:none;stroke:#b0b0b0;stroke-linecap:square;stroke-width:0.8;"/>
     </g>
     <g id="line2d_10">
      <defs>
       <path d="M 0 0 
L 0 2 
" id="mb29668a78c" style="stroke:#000000;stroke-width:0.6;"/>
      </defs>
      <g>
       <use style="stroke:#000000;stroke-width:0.6;" x="97.755429" xlink:href="#mb29668a78c" y="298.944"/>
      </g>
     </g>
    </g>
    <g id="xtick_6">
     <g id="line2d_11">
      <path clip-path="url(#pb43107e13a)" d="M 178.066286 298.944 
L 178.066286 3.456 
" style="fill:none;stroke:#b0b0b0;stroke-linecap:square;stroke-width:0.8;"/>
     </g>
     <g id="line2d_12">
      <g>
       <use style="stroke:#000000;stroke-width:0.6;" x="178.066286" xlink:href="#mb29668a78c" y="298.944"/>
      </g>
     </g>
    </g>
    <g id="xtick_7">
     <g id="line2d_13">
      <path clip-path="url(#pb43107e13a)" d="M 258.377143 298.944 
L 258.377143 3.456 
" style="fill:none;stroke:#b0b0b0;stroke-linecap:square;stroke-width:0.8;"/>
     </g>
     <g id="line2d_14">
      <g>
       <use style="stroke:#000000;stroke-width:0.6;" x="258.377143" xlink:href="#mb29668a78c" y="298.944"/>
      </g>
     </g>
    </g>
    <g id="xtick_8">
     <g id="line2d_15">
      <path clip-path="url(#pb43107e13a)" d="M 338.688 298.944 
L 338.688 3.456 
" style="fill:none;stroke:#b0b0b0;stroke-linecap:square;stroke-width:0.8;"/>
     </g>
     <g id="line2d_16">
      <g>
       <use style="stroke:#000000;stroke-width:0.6;" x="338.688" xlink:href="#mb29668a78c" y="298.944"/>
      </g>
     </g>
    </g>
    <g id="text_5">
     <!-- log10(# f-evals / dimension) -->
     <g transform="translate(77.764078 342.217594)scale(0.17 -0.17)">
      <defs>
       <path d="M 603 4863 
L 1178 4863 
L 1178 0 
L 603 0 
L 603 4863 
z
" id="DejaVuSans-6c" transform="scale(0.015625)"/>
       <path d="M 1959 3097 
Q 1497 3097 1228 2736 
Q 959 2375 959 1747 
Q 959 1119 1226 758 
Q 1494 397 1959 397 
Q 2419 397 2687 759 
Q 2956 1122 2956 1747 
Q 2956 2369 2687 2733 
Q 2419 3097 1959 3097 
z
M 1959 3584 
Q 2709 3584 3137 3096 
Q 3566 2609 3566 1747 
Q 3566 888 3137 398 
Q 2709 -91 1959 -91 
Q 1206 -91 779 398 
Q 353 888 353 1747 
Q 353 2609 779 3096 
Q 1206 3584 1959 3584 
z
" id="DejaVuSans-6f" transform="scale(0.015625)"/>
       <path d="M 2906 1791 
Q 2906 2416 2648 2759 
Q 2391 3103 1925 3103 
Q 1463 3103 1205 2759 
Q 947 2416 947 1791 
Q 947 1169 1205 825 
Q 1463 481 1925 481 
Q 2391 481 2648 825 
Q 2906 1169 2906 1791 
z
M 3481 434 
Q 3481 -459 3084 -895 
Q 2688 -1331 1869 -1331 
Q 1566 -1331 1297 -1286 
Q 1028 -1241 775 -1147 
L 775 -588 
Q 1028 -725 1275 -790 
Q 1522 -856 1778 -856 
Q 2344 -856 2625 -561 
Q 2906 -266 2906 331 
L 2906 616 
Q 2728 306 2450 153 
Q 2172 0 1784 0 
Q 1141 0 747 490 
Q 353 981 353 1791 
Q 353 2603 747 3093 
Q 1141 3584 1784 3584 
Q 2172 3584 2450 3431 
Q 2728 3278 2906 2969 
L 2906 3500 
L 3481 3500 
L 3481 434 
z
" id="DejaVuSans-67" transform="scale(0.015625)"/>
       <path d="M 794 531 
L 1825 531 
L 1825 4091 
L 703 3866 
L 703 4441 
L 1819 4666 
L 2450 4666 
L 2450 531 
L 3481 531 
L 3481 0 
L 794 0 
L 794 531 
z
" id="DejaVuSans-31" transform="scale(0.015625)"/>
       <path d="M 1984 4856 
Q 1566 4138 1362 3434 
Q 1159 2731 1159 2009 
Q 1159 1288 1364 580 
Q 1569 -128 1984 -844 
L 1484 -844 
Q 1016 -109 783 600 
Q 550 1309 550 2009 
Q 550 2706 781 3412 
Q 1013 4119 1484 4856 
L 1984 4856 
z
" id="DejaVuSans-28" transform="scale(0.015625)"/>
       <path d="M 3272 2816 
L 2363 2816 
L 2100 1772 
L 3016 1772 
L 3272 2816 
z
M 2803 4594 
L 2478 3297 
L 3391 3297 
L 3719 4594 
L 4219 4594 
L 3897 3297 
L 4872 3297 
L 4872 2816 
L 3775 2816 
L 3519 1772 
L 4513 1772 
L 4513 1294 
L 3397 1294 
L 3072 0 
L 2572 0 
L 2894 1294 
L 1978 1294 
L 1656 0 
L 1153 0 
L 1478 1294 
L 494 1294 
L 494 1772 
L 1594 1772 
L 1856 2816 
L 850 2816 
L 850 3297 
L 1978 3297 
L 2297 4594 
L 2803 4594 
z
" id="DejaVuSans-23" transform="scale(0.015625)"/>
       <path id="DejaVuSans-20" transform="scale(0.015625)"/>
       <path d="M 2375 4863 
L 2375 4384 
L 1825 4384 
Q 1516 4384 1395 4259 
Q 1275 4134 1275 3809 
L 1275 3500 
L 2222 3500 
L 2222 3053 
L 1275 3053 
L 1275 0 
L 697 0 
L 697 3053 
L 147 3053 
L 147 3500 
L 697 3500 
L 697 3744 
Q 697 4328 969 4595 
Q 1241 4863 1831 4863 
L 2375 4863 
z
" id="DejaVuSans-66" transform="scale(0.015625)"/>
       <path d="M 313 2009 
L 1997 2009 
L 1997 1497 
L 313 1497 
L 313 2009 
z
" id="DejaVuSans-2d" transform="scale(0.015625)"/>
       <path d="M 3597 1894 
L 3597 1613 
L 953 1613 
Q 991 1019 1311 708 
Q 1631 397 2203 397 
Q 2534 397 2845 478 
Q 3156 559 3463 722 
L 3463 178 
Q 3153 47 2828 -22 
Q 2503 -91 2169 -91 
Q 1331 -91 842 396 
Q 353 884 353 1716 
Q 353 2575 817 3079 
Q 1281 3584 2069 3584 
Q 2775 3584 3186 3129 
Q 3597 2675 3597 1894 
z
M 3022 2063 
Q 3016 2534 2758 2815 
Q 2500 3097 2075 3097 
Q 1594 3097 1305 2825 
Q 1016 2553 972 2059 
L 3022 2063 
z
" id="DejaVuSans-65" transform="scale(0.015625)"/>
       <path d="M 191 3500 
L 800 3500 
L 1894 563 
L 2988 3500 
L 3597 3500 
L 2284 0 
L 1503 0 
L 191 3500 
z
" id="DejaVuSans-76" transform="scale(0.015625)"/>
       <path d="M 2194 1759 
Q 1497 1759 1228 1600 
Q 959 1441 959 1056 
Q 959 750 1161 570 
Q 1363 391 1709 391 
Q 2188 391 2477 730 
Q 2766 1069 2766 1631 
L 2766 1759 
L 2194 1759 
z
M 3341 1997 
L 3341 0 
L 2766 0 
L 2766 531 
Q 2569 213 2275 61 
Q 1981 -91 1556 -91 
Q 1019 -91 701 211 
Q 384 513 384 1019 
Q 384 1609 779 1909 
Q 1175 2209 1959 2209 
L 2766 2209 
L 2766 2266 
Q 2766 2663 2505 2880 
Q 2244 3097 1772 3097 
Q 1472 3097 1187 3025 
Q 903 2953 641 2809 
L 641 3341 
Q 956 3463 1253 3523 
Q 1550 3584 1831 3584 
Q 2591 3584 2966 3190 
Q 3341 2797 3341 1997 
z
" id="DejaVuSans-61" transform="scale(0.015625)"/>
       <path d="M 2834 3397 
L 2834 2853 
Q 2591 2978 2328 3040 
Q 2066 3103 1784 3103 
Q 1356 3103 1142 2972 
Q 928 2841 928 2578 
Q 928 2378 1081 2264 
Q 1234 2150 1697 2047 
L 1894 2003 
Q 2506 1872 2764 1633 
Q 3022 1394 3022 966 
Q 3022 478 2636 193 
Q 2250 -91 1575 -91 
Q 1294 -91 989 -36 
Q 684 19 347 128 
L 347 722 
Q 666 556 975 473 
Q 1284 391 1588 391 
Q 1994 391 2212 530 
Q 2431 669 2431 922 
Q 2431 1156 2273 1281 
Q 2116 1406 1581 1522 
L 1381 1569 
Q 847 1681 609 1914 
Q 372 2147 372 2553 
Q 372 3047 722 3315 
Q 1072 3584 1716 3584 
Q 2034 3584 2315 3537 
Q 2597 3491 2834 3397 
z
" id="DejaVuSans-73" transform="scale(0.015625)"/>
       <path d="M 1625 4666 
L 2156 4666 
L 531 -594 
L 0 -594 
L 1625 4666 
z
" id="DejaVuSans-2f" transform="scale(0.015625)"/>
       <path d="M 2906 2969 
L 2906 4863 
L 3481 4863 
L 3481 0 
L 2906 0 
L 2906 525 
Q 2725 213 2448 61 
Q 2172 -91 1784 -91 
Q 1150 -91 751 415 
Q 353 922 353 1747 
Q 353 2572 751 3078 
Q 1150 3584 1784 3584 
Q 2172 3584 2448 3432 
Q 2725 3281 2906 2969 
z
M 947 1747 
Q 947 1113 1208 752 
Q 1469 391 1925 391 
Q 2381 391 2643 752 
Q 2906 1113 2906 1747 
Q 2906 2381 2643 2742 
Q 2381 3103 1925 3103 
Q 1469 3103 1208 2742 
Q 947 2381 947 1747 
z
" id="DejaVuSans-64" transform="scale(0.015625)"/>
       <path d="M 603 3500 
L 1178 3500 
L 1178 0 
L 603 0 
L 603 3500 
z
M 603 4863 
L 1178 4863 
L 1178 4134 
L 603 4134 
L 603 4863 
z
" id="DejaVuSans-69" transform="scale(0.015625)"/>
       <path d="M 3328 2828 
Q 3544 3216 3844 3400 
Q 4144 3584 4550 3584 
Q 5097 3584 5394 3201 
Q 5691 2819 5691 2113 
L 5691 0 
L 5113 0 
L 5113 2094 
Q 5113 2597 4934 2840 
Q 4756 3084 4391 3084 
Q 3944 3084 3684 2787 
Q 3425 2491 3425 1978 
L 3425 0 
L 2847 0 
L 2847 2094 
Q 2847 2600 2669 2842 
Q 2491 3084 2119 3084 
Q 1678 3084 1418 2786 
Q 1159 2488 1159 1978 
L 1159 0 
L 581 0 
L 581 3500 
L 1159 3500 
L 1159 2956 
Q 1356 3278 1631 3431 
Q 1906 3584 2284 3584 
Q 2666 3584 2933 3390 
Q 3200 3197 3328 2828 
z
" id="DejaVuSans-6d" transform="scale(0.015625)"/>
       <path d="M 3513 2113 
L 3513 0 
L 2938 0 
L 2938 2094 
Q 2938 2591 2744 2837 
Q 2550 3084 2163 3084 
Q 1697 3084 1428 2787 
Q 1159 2491 1159 1978 
L 1159 0 
L 581 0 
L 581 3500 
L 1159 3500 
L 1159 2956 
Q 1366 3272 1645 3428 
Q 1925 3584 2291 3584 
Q 2894 3584 3203 3211 
Q 3513 2838 3513 2113 
z
" id="DejaVuSans-6e" transform="scale(0.015625)"/>
       <path d="M 513 4856 
L 1013 4856 
Q 1481 4119 1714 3412 
Q 1947 2706 1947 2009 
Q 1947 1309 1714 600 
Q 1481 -109 1013 -844 
L 513 -844 
Q 928 -128 1133 580 
Q 1338 1288 1338 2009 
Q 1338 2731 1133 3434 
Q 928 4138 513 4856 
z
" id="DejaVuSans-29" transform="scale(0.015625)"/>
      </defs>
      <use xlink:href="#DejaVuSans-6c"/>
      <use x="27.783203" xlink:href="#DejaVuSans-6f"/>
      <use x="88.964844" xlink:href="#DejaVuSans-67"/>
      <use x="152.441406" xlink:href="#DejaVuSans-31"/>
      <use x="216.064453" xlink:href="#DejaVuSans-30"/>
      <use x="279.6875" xlink:href="#DejaVuSans-28"/>
      <use x="318.701172" xlink:href="#DejaVuSans-23"/>
      <use x="402.490234" xlink:href="#DejaVuSans-20"/>
      <use x="434.277344" xlink:href="#DejaVuSans-66"/>
      <use x="463.982422" xlink:href="#DejaVuSans-2d"/>
      <use x="500.066406" xlink:href="#DejaVuSans-65"/>
      <use x="561.589844" xlink:href="#DejaVuSans-76"/>
      <use x="620.769531" xlink:href="#DejaVuSans-61"/>
      <use x="682.048828" xlink:href="#DejaVuSans-6c"/>
      <use x="709.832031" xlink:href="#DejaVuSans-73"/>
      <use x="761.931641" xlink:href="#DejaVuSans-20"/>
      <use x="793.71875" xlink:href="#DejaVuSans-2f"/>
      <use x="827.410156" xlink:href="#DejaVuSans-20"/>
      <use x="859.197266" xlink:href="#DejaVuSans-64"/>
      <use x="922.673828" xlink:href="#DejaVuSans-69"/>
      <use x="950.457031" xlink:href="#DejaVuSans-6d"/>
      <use x="1047.869141" xlink:href="#DejaVuSans-65"/>
      <use x="1109.392578" xlink:href="#DejaVuSans-6e"/>
      <use x="1172.771484" xlink:href="#DejaVuSans-73"/>
      <use x="1224.871094" xlink:href="#DejaVuSans-69"/>
      <use x="1252.654297" xlink:href="#DejaVuSans-6f"/>
      <use x="1313.835938" xlink:href="#DejaVuSans-6e"/>
      <use x="1377.214844" xlink:href="#DejaVuSans-29"/>
     </g>
    </g>
   </g>
   <g id="matplotlib.axis_2">
    <g id="ytick_1">
     <g id="line2d_17">
      <path clip-path="url(#pb43107e13a)" d="M 57.6 298.944 
L 338.688 298.944 
" style="fill:none;stroke:#b0b0b0;stroke-linecap:square;stroke-width:0.8;"/>
     </g>
     <g id="line2d_18">
      <defs>
       <path d="M 0 0 
L -3.5 0 
" id="m5f65e7d58e" style="stroke:#000000;stroke-width:0.8;"/>
      </defs>
      <g>
       <use style="stroke:#000000;stroke-width:0.8;" x="57.6" xlink:href="#m5f65e7d58e" y="298.944"/>
      </g>
     </g>
     <g id="text_6">
      <!-- 0.0 -->
      <g transform="translate(25.155 305.02275)scale(0.16 -0.16)">
       <defs>
        <path d="M 684 794 
L 1344 794 
L 1344 0 
L 684 0 
L 684 794 
z
" id="DejaVuSans-2e" transform="scale(0.015625)"/>
       </defs>
       <use xlink:href="#DejaVuSans-30"/>
       <use x="63.623047" xlink:href="#DejaVuSans-2e"/>
       <use x="95.410156" xlink:href="#DejaVuSans-30"/>
      </g>
     </g>
    </g>
    <g id="ytick_2">
     <g id="line2d_19">
      <path clip-path="url(#pb43107e13a)" d="M 57.6 240.431525 
L 338.688 240.431525 
" style="fill:none;stroke:#b0b0b0;stroke-linecap:square;stroke-width:0.8;"/>
     </g>
     <g id="line2d_20">
      <g>
       <use style="stroke:#000000;stroke-width:0.8;" x="57.6" xlink:href="#m5f65e7d58e" y="240.431525"/>
      </g>
     </g>
     <g id="text_7">
      <!-- 0.2 -->
      <g transform="translate(25.155 246.510275)scale(0.16 -0.16)">
       <use xlink:href="#DejaVuSans-30"/>
       <use x="63.623047" xlink:href="#DejaVuSans-2e"/>
       <use x="95.410156" xlink:href="#DejaVuSans-32"/>
      </g>
     </g>
    </g>
    <g id="ytick_3">
     <g id="line2d_21">
      <path clip-path="url(#pb43107e13a)" d="M 57.6 181.91905 
L 338.688 181.91905 
" style="fill:none;stroke:#b0b0b0;stroke-linecap:square;stroke-width:0.8;"/>
     </g>
     <g id="line2d_22">
      <g>
       <use style="stroke:#000000;stroke-width:0.8;" x="57.6" xlink:href="#m5f65e7d58e" y="181.91905"/>
      </g>
     </g>
     <g id="text_8">
      <!-- 0.4 -->
      <g transform="translate(25.155 187.9978)scale(0.16 -0.16)">
       <use xlink:href="#DejaVuSans-30"/>
       <use x="63.623047" xlink:href="#DejaVuSans-2e"/>
       <use x="95.410156" xlink:href="#DejaVuSans-34"/>
      </g>
     </g>
    </g>
    <g id="ytick_4">
     <g id="line2d_23">
      <path clip-path="url(#pb43107e13a)" d="M 57.6 123.406574 
L 338.688 123.406574 
" style="fill:none;stroke:#b0b0b0;stroke-linecap:square;stroke-width:0.8;"/>
     </g>
     <g id="line2d_24">
      <g>
       <use style="stroke:#000000;stroke-width:0.8;" x="57.6" xlink:href="#m5f65e7d58e" y="123.406574"/>
      </g>
     </g>
     <g id="text_9">
      <!-- 0.6 -->
      <g transform="translate(25.155 129.485324)scale(0.16 -0.16)">
       <use xlink:href="#DejaVuSans-30"/>
       <use x="63.623047" xlink:href="#DejaVuSans-2e"/>
       <use x="95.410156" xlink:href="#DejaVuSans-36"/>
      </g>
     </g>
    </g>
    <g id="ytick_5">
     <g id="line2d_25">
      <path clip-path="url(#pb43107e13a)" d="M 57.6 64.894099 
L 338.688 64.894099 
" style="fill:none;stroke:#b0b0b0;stroke-linecap:square;stroke-width:0.8;"/>
     </g>
     <g id="line2d_26">
      <g>
       <use style="stroke:#000000;stroke-width:0.8;" x="57.6" xlink:href="#m5f65e7d58e" y="64.894099"/>
      </g>
     </g>
     <g id="text_10">
      <!-- 0.8 -->
      <g transform="translate(25.155 70.972849)scale(0.16 -0.16)">
       <defs>
        <path d="M 2034 2216 
Q 1584 2216 1326 1975 
Q 1069 1734 1069 1313 
Q 1069 891 1326 650 
Q 1584 409 2034 409 
Q 2484 409 2743 651 
Q 3003 894 3003 1313 
Q 3003 1734 2745 1975 
Q 2488 2216 2034 2216 
z
M 1403 2484 
Q 997 2584 770 2862 
Q 544 3141 544 3541 
Q 544 4100 942 4425 
Q 1341 4750 2034 4750 
Q 2731 4750 3128 4425 
Q 3525 4100 3525 3541 
Q 3525 3141 3298 2862 
Q 3072 2584 2669 2484 
Q 3125 2378 3379 2068 
Q 3634 1759 3634 1313 
Q 3634 634 3220 271 
Q 2806 -91 2034 -91 
Q 1263 -91 848 271 
Q 434 634 434 1313 
Q 434 1759 690 2068 
Q 947 2378 1403 2484 
z
M 1172 3481 
Q 1172 3119 1398 2916 
Q 1625 2713 2034 2713 
Q 2441 2713 2670 2916 
Q 2900 3119 2900 3481 
Q 2900 3844 2670 4047 
Q 2441 4250 2034 4250 
Q 1625 4250 1398 4047 
Q 1172 3844 1172 3481 
z
" id="DejaVuSans-38" transform="scale(0.015625)"/>
       </defs>
       <use xlink:href="#DejaVuSans-30"/>
       <use x="63.623047" xlink:href="#DejaVuSans-2e"/>
       <use x="95.410156" xlink:href="#DejaVuSans-38"/>
      </g>
     </g>
    </g>
    <g id="ytick_6">
     <g id="line2d_27">
      <path clip-path="url(#pb43107e13a)" d="M 57.6 6.381624 
L 338.688 6.381624 
" style="fill:none;stroke:#b0b0b0;stroke-linecap:square;stroke-width:0.8;"/>
     </g>
     <g id="line2d_28">
      <g>
       <use style="stroke:#000000;stroke-width:0.8;" x="57.6" xlink:href="#m5f65e7d58e" y="6.381624"/>
      </g>
     </g>
     <g id="text_11">
      <!-- 1.0 -->
      <g transform="translate(25.155 12.460374)scale(0.16 -0.16)">
       <use xlink:href="#DejaVuSans-31"/>
       <use x="63.623047" xlink:href="#DejaVuSans-2e"/>
       <use x="95.410156" xlink:href="#DejaVuSans-30"/>
      </g>
     </g>
    </g>
    <g id="text_12">
     <!-- Fraction of function,target pairs -->
     <g transform="translate(17.619531 285.585)rotate(-90)scale(0.17 -0.17)">
      <defs>
       <path d="M 628 4666 
L 3309 4666 
L 3309 4134 
L 1259 4134 
L 1259 2759 
L 3109 2759 
L 3109 2228 
L 1259 2228 
L 1259 0 
L 628 0 
L 628 4666 
z
" id="DejaVuSans-46" transform="scale(0.015625)"/>
       <path d="M 2631 2963 
Q 2534 3019 2420 3045 
Q 2306 3072 2169 3072 
Q 1681 3072 1420 2755 
Q 1159 2438 1159 1844 
L 1159 0 
L 581 0 
L 581 3500 
L 1159 3500 
L 1159 2956 
Q 1341 3275 1631 3429 
Q 1922 3584 2338 3584 
Q 2397 3584 2469 3576 
Q 2541 3569 2628 3553 
L 2631 2963 
z
" id="DejaVuSans-72" transform="scale(0.015625)"/>
       <path d="M 3122 3366 
L 3122 2828 
Q 2878 2963 2633 3030 
Q 2388 3097 2138 3097 
Q 1578 3097 1268 2742 
Q 959 2388 959 1747 
Q 959 1106 1268 751 
Q 1578 397 2138 397 
Q 2388 397 2633 464 
Q 2878 531 3122 666 
L 3122 134 
Q 2881 22 2623 -34 
Q 2366 -91 2075 -91 
Q 1284 -91 818 406 
Q 353 903 353 1747 
Q 353 2603 823 3093 
Q 1294 3584 2113 3584 
Q 2378 3584 2631 3529 
Q 2884 3475 3122 3366 
z
" id="DejaVuSans-63" transform="scale(0.015625)"/>
       <path d="M 1172 4494 
L 1172 3500 
L 2356 3500 
L 2356 3053 
L 1172 3053 
L 1172 1153 
Q 1172 725 1289 603 
Q 1406 481 1766 481 
L 2356 481 
L 2356 0 
L 1766 0 
Q 1100 0 847 248 
Q 594 497 594 1153 
L 594 3053 
L 172 3053 
L 172 3500 
L 594 3500 
L 594 4494 
L 1172 4494 
z
" id="DejaVuSans-74" transform="scale(0.015625)"/>
       <path d="M 544 1381 
L 544 3500 
L 1119 3500 
L 1119 1403 
Q 1119 906 1312 657 
Q 1506 409 1894 409 
Q 2359 409 2629 706 
Q 2900 1003 2900 1516 
L 2900 3500 
L 3475 3500 
L 3475 0 
L 2900 0 
L 2900 538 
Q 2691 219 2414 64 
Q 2138 -91 1772 -91 
Q 1169 -91 856 284 
Q 544 659 544 1381 
z
M 1991 3584 
L 1991 3584 
z
" id="DejaVuSans-75" transform="scale(0.015625)"/>
       <path d="M 750 794 
L 1409 794 
L 1409 256 
L 897 -744 
L 494 -744 
L 750 256 
L 750 794 
z
" id="DejaVuSans-2c" transform="scale(0.015625)"/>
       <path d="M 1159 525 
L 1159 -1331 
L 581 -1331 
L 581 3500 
L 1159 3500 
L 1159 2969 
Q 1341 3281 1617 3432 
Q 1894 3584 2278 3584 
Q 2916 3584 3314 3078 
Q 3713 2572 3713 1747 
Q 3713 922 3314 415 
Q 2916 -91 2278 -91 
Q 1894 -91 1617 61 
Q 1341 213 1159 525 
z
M 3116 1747 
Q 3116 2381 2855 2742 
Q 2594 3103 2138 3103 
Q 1681 3103 1420 2742 
Q 1159 2381 1159 1747 
Q 1159 1113 1420 752 
Q 1681 391 2138 391 
Q 2594 391 2855 752 
Q 3116 1113 3116 1747 
z
" id="DejaVuSans-70" transform="scale(0.015625)"/>
      </defs>
      <use xlink:href="#DejaVuSans-46"/>
      <use x="50.269531" xlink:href="#DejaVuSans-72"/>
      <use x="91.382812" xlink:href="#DejaVuSans-61"/>
      <use x="152.662109" xlink:href="#DejaVuSans-63"/>
      <use x="207.642578" xlink:href="#DejaVuSans-74"/>
      <use x="246.851562" xlink:href="#DejaVuSans-69"/>
      <use x="274.634766" xlink:href="#DejaVuSans-6f"/>
      <use x="335.816406" xlink:href="#DejaVuSans-6e"/>
      <use x="399.195312" xlink:href="#DejaVuSans-20"/>
      <use x="430.982422" xlink:href="#DejaVuSans-6f"/>
      <use x="492.164062" xlink:href="#DejaVuSans-66"/>
      <use x="527.369141" xlink:href="#DejaVuSans-20"/>
      <use x="559.15625" xlink:href="#DejaVuSans-66"/>
      <use x="594.361328" xlink:href="#DejaVuSans-75"/>
      <use x="657.740234" xlink:href="#DejaVuSans-6e"/>
      <use x="721.119141" xlink:href="#DejaVuSans-63"/>
      <use x="776.099609" xlink:href="#DejaVuSans-74"/>
      <use x="815.308594" xlink:href="#DejaVuSans-69"/>
      <use x="843.091797" xlink:href="#DejaVuSans-6f"/>
      <use x="904.273438" xlink:href="#DejaVuSans-6e"/>
      <use x="967.652344" xlink:href="#DejaVuSans-2c"/>
      <use x="999.439453" xlink:href="#DejaVuSans-74"/>
      <use x="1038.648438" xlink:href="#DejaVuSans-61"/>
      <use x="1099.927734" xlink:href="#DejaVuSans-72"/>
      <use x="1139.291016" xlink:href="#DejaVuSans-67"/>
      <use x="1202.767578" xlink:href="#DejaVuSans-65"/>
      <use x="1264.291016" xlink:href="#DejaVuSans-74"/>
      <use x="1303.5" xlink:href="#DejaVuSans-20"/>
      <use x="1335.287109" xlink:href="#DejaVuSans-70"/>
      <use x="1398.763672" xlink:href="#DejaVuSans-61"/>
      <use x="1460.042969" xlink:href="#DejaVuSans-69"/>
      <use x="1487.826172" xlink:href="#DejaVuSans-72"/>
      <use x="1528.939453" xlink:href="#DejaVuSans-73"/>
     </g>
    </g>
   </g>
   <g id="line2d_29">
    <defs>
     <path d="M 0 1.5 
C 0.397805 1.5 0.77937 1.341951 1.06066 1.06066 
C 1.341951 0.77937 1.5 0.397805 1.5 0 
C 1.5 -0.397805 1.341951 -0.77937 1.06066 -1.06066 
C 0.77937 -1.341951 0.397805 -1.5 0 -1.5 
C -0.397805 -1.5 -0.77937 -1.341951 -1.06066 -1.06066 
C -1.341951 -0.77937 -1.5 -0.397805 -1.5 0 
C -1.5 0.397805 -1.341951 0.77937 -1.06066 1.06066 
C -0.77937 1.341951 -0.397805 1.5 0 1.5 
z
" id="m549cabe830" style="stroke:#00bfbf;"/>
    </defs>
    <g>
     <use style="fill:#00bfbf;stroke:#00bfbf;" x="206.484198" xlink:href="#m549cabe830" y="215.190849"/>
     <use style="fill:#00bfbf;stroke:#00bfbf;" x="206.484198" xlink:href="#m549cabe830" y="215.190849"/>
    </g>
   </g>
   <g id="line2d_30">
    <path d="M 45.512012 298.944 
L 45.512012 284.487977 
L 57.6 284.487977 
L 57.6 279.669302 
L 64.67102 279.669302 
L 64.67102 276.571583 
L 69.687988 276.571583 
L 69.687988 273.932785 
L 73.579452 273.932785 
L 73.579452 272.21183 
L 76.759008 272.21183 
L 76.759008 270.949796 
L 79.447285 270.949796 
L 79.447285 270.031953 
L 81.775977 270.031953 
L 81.775977 268.081538 
L 83.830028 268.081538 
L 83.830028 267.393156 
L 85.66744 267.393156 
L 85.66744 266.819504 
L 87.329581 266.819504 
L 87.329581 266.245852 
L 88.846997 266.245852 
L 88.846997 265.901661 
L 90.242884 265.901661 
L 90.242884 264.639627 
L 91.535274 264.639627 
L 91.535274 263.492324 
L 92.73846 263.492324 
L 92.73846 263.148133 
L 93.863965 263.148133 
L 93.863965 262.459751 
L 95.918017 262.459751 
L 95.918017 262.11556 
L 96.86091 262.11556 
L 96.86091 261.771369 
L 97.755429 261.771369 
L 97.755429 261.656638 
L 98.606294 261.656638 
L 98.606294 260.738796 
L 99.41757 260.738796 
L 99.41757 259.476762 
L 100.192776 259.476762 
L 100.192776 259.01784 
L 100.934985 259.01784 
L 100.934985 258.78838 
L 101.646892 258.78838 
L 101.646892 258.558919 
L 102.330873 258.558919 
L 102.330873 258.099998 
L 102.989037 258.099998 
L 102.989037 257.755807 
L 103.623262 257.755807 
L 103.623262 257.411616 
L 104.23523 257.411616 
L 104.23523 257.067425 
L 104.826449 257.067425 
L 104.826449 256.379043 
L 105.951954 256.379043 
L 105.951954 255.002278 
L 106.48859 255.002278 
L 106.48859 254.658087 
L 107.009204 254.658087 
L 107.009204 254.543357 
L 107.514726 254.543357 
L 107.514726 254.428627 
L 108.483824 254.428627 
L 108.483824 254.199166 
L 109.401893 254.199166 
L 109.401893 254.084436 
L 109.843417 254.084436 
L 109.843417 253.854975 
L 111.104637 253.854975 
L 111.104637 253.740245 
L 111.897469 253.740245 
L 111.897469 253.281323 
L 113.022974 253.281323 
L 113.022974 252.937132 
L 113.73488 252.937132 
L 113.73488 252.822402 
L 114.418861 252.822402 
L 114.418861 252.592941 
L 114.751048 252.592941 
L 114.751048 251.675098 
L 115.711251 251.675098 
L 115.711251 250.986716 
L 116.621333 250.986716 
L 116.621333 250.757256 
L 117.486268 250.757256 
L 117.486268 250.298334 
L 117.765302 250.298334 
L 117.765302 249.839413 
L 118.310324 249.839413 
L 118.310324 249.609952 
L 119.850084 249.609952 
L 119.850084 249.380492 
L 120.093994 249.380492 
L 120.093994 249.265761 
L 120.33454 249.265761 
L 120.33454 249.151031 
L 120.571812 249.151031 
L 120.571812 248.92157 
L 120.8059 248.92157 
L 120.8059 248.80684 
L 121.036887 248.80684 
L 121.036887 247.544806 
L 121.264855 247.544806 
L 121.264855 247.430076 
L 121.931406 247.430076 
L 121.931406 247.085885 
L 122.573415 247.085885 
L 122.573415 246.971154 
L 123.593547 246.971154 
L 123.593547 246.856424 
L 124.178158 246.856424 
L 124.178158 246.512233 
L 124.557288 246.512233 
L 124.557288 246.397503 
L 125.110962 246.397503 
L 125.110962 245.938581 
L 125.291682 245.938581 
L 125.291682 245.709121 
L 125.822869 245.709121 
L 125.822869 245.36493 
L 125.996395 245.36493 
L 125.996395 244.906008 
L 126.168212 244.906008 
L 126.168212 244.447087 
L 126.50685 244.447087 
L 126.50685 244.332356 
L 126.839037 244.332356 
L 126.839037 244.102896 
L 127.48501 244.102896 
L 127.48501 243.873435 
L 128.107907 243.873435 
L 128.107907 243.758705 
L 128.856489 243.758705 
L 128.856489 243.643974 
L 129.002426 243.643974 
L 129.002426 243.529244 
L 129.433047 243.529244 
L 129.433047 243.299783 
L 130.263646 243.299783 
L 130.263646 242.726132 
L 130.664567 242.726132 
L 130.664567 242.611401 
L 131.185181 242.611401 
L 131.185181 242.496671 
L 132.060454 242.496671 
L 132.060454 242.26721 
L 132.777237 242.26721 
L 132.777237 242.15248 
L 133.57787 242.15248 
L 133.57787 242.03775 
L 133.910056 242.03775 
L 133.910056 241.923019 
L 134.236034 241.923019 
L 134.236034 241.464098 
L 135.178927 241.464098 
L 135.178927 241.349368 
L 135.681535 241.349368 
L 135.681535 241.119907 
L 136.170062 241.119907 
L 136.170062 240.890446 
L 136.361705 240.890446 
L 136.456742 240.546255 
L 136.551264 240.546255 
L 136.551264 240.316794 
L 137.735587 240.316794 
L 137.735587 240.202064 
L 138.341479 240.202064 
L 138.426341 239.972603 
L 138.594838 239.972603 
L 138.594838 239.743143 
L 139.493548 239.743143 
L 139.493548 239.513682 
L 139.887228 239.513682 
L 139.964909 239.284221 
L 140.042245 239.284221 
L 140.11924 238.94003 
L 140.272217 238.94003 
L 140.348205 238.71057 
L 140.423864 238.71057 
L 140.499195 238.366379 
L 140.574203 238.366379 
L 140.574203 238.251648 
L 140.723258 238.251648 
L 140.79731 237.792727 
L 140.871049 237.792727 
L 140.871049 237.563266 
L 141.235139 237.563266 
L 141.235139 237.448536 
L 141.45 237.448536 
L 141.521035 237.219075 
L 141.662245 237.219075 
L 141.662245 237.104345 
L 143.144465 237.104345 
L 143.144465 236.989614 
L 143.464461 236.989614 
L 143.464461 236.874884 
L 143.653678 236.874884 
L 143.653678 236.760154 
L 143.778691 236.760154 
L 143.840863 236.530693 
L 144.747789 236.530693 
L 144.747789 236.415963 
L 145.270136 236.415963 
L 145.270136 236.301232 
L 146.324022 236.301232 
L 146.324022 236.186502 
L 147.368603 236.186502 
L 147.368603 236.071772 
L 147.620256 236.071772 
L 147.620256 235.957041 
L 147.769524 235.957041 
L 147.769524 235.842311 
L 147.96658 235.842311 
L 147.96658 235.727581 
L 148.209809 235.727581 
L 148.209809 235.61285 
L 148.780082 235.61285 
L 148.87334 235.153929 
L 148.919783 235.153929 
L 148.919783 235.039199 
L 149.104327 235.039199 
L 149.15016 234.809738 
L 149.241465 234.809738 
L 149.241465 234.695008 
L 149.955193 234.695008 
L 149.998846 234.465547 
L 150.849711 234.465547 
L 150.849711 234.350817 
L 151.178764 234.350817 
L 151.178764 234.236086 
L 152.699575 234.236086 
L 152.699575 234.121356 
L 153.142033 234.121356 
L 153.214697 233.547704 
L 153.323128 233.547704 
L 153.323128 233.432974 
L 154.167129 233.432974 
L 154.167129 233.318243 
L 154.54072 233.318243 
L 154.54072 233.203513 
L 154.93935 233.203513 
L 154.93935 233.088783 
L 155.678822 233.088783 
L 155.678822 232.744592 
L 156.266892 232.744592 
L 156.266892 232.629861 
L 156.38821 232.629861 
L 156.38821 232.515131 
L 156.598505 232.515131 
L 156.598505 232.400401 
L 157.725877 232.400401 
L 157.725877 232.28567 
L 158.113432 232.28567 
L 158.113432 232.17094 
L 158.249784 232.17094 
L 158.249784 232.05621 
L 158.83738 232.05621 
L 158.83738 231.941479 
L 159.046236 231.941479 
L 159.046236 231.826749 
L 159.380382 231.826749 
L 159.380382 231.712019 
L 159.733212 231.712019 
L 159.733212 231.597288 
L 159.906985 231.597288 
L 159.906985 231.482558 
L 160.418152 231.482558 
L 160.418152 231.367828 
L 160.750792 231.367828 
L 160.750792 231.253097 
L 161.077205 231.253097 
L 161.077205 231.138367 
L 161.600536 231.138367 
L 161.622937 230.794176 
L 161.712255 230.794176 
L 161.712255 230.679446 
L 162.474869 230.679446 
L 162.474869 230.564715 
L 162.62347 230.564715 
L 162.728843 230.220524 
L 162.791763 230.220524 
L 162.791763 230.105794 
L 162.916926 230.105794 
L 162.9377 229.876333 
L 163.103002 229.876333 
L 163.123555 229.646872 
L 163.449152 229.646872 
L 163.449152 229.532142 
L 163.847782 229.532142 
L 163.906798 229.302681 
L 164.390984 229.302681 
L 164.390984 229.187951 
L 165.065412 229.187951 
L 165.065412 229.073221 
L 165.230021 229.073221 
L 165.230021 228.95849 
L 165.375047 228.95849 
L 165.375047 228.84376 
L 165.803027 228.84376 
L 165.803027 228.72903 
L 166.323641 228.72903 
L 166.323641 228.614299 
L 166.527611 228.614299 
L 166.544502 228.384839 
L 166.662278 228.384839 
L 166.662278 228.270108 
L 166.829163 228.270108 
L 166.829163 228.155378 
L 167.158215 228.155378 
L 167.158215 228.040648 
L 167.417059 228.040648 
L 167.465168 227.811187 
L 167.545055 227.811187 
L 167.545055 227.696457 
L 168.248032 227.696457 
L 168.248032 227.581726 
L 168.415645 227.581726 
L 168.415645 227.466996 
L 168.551595 227.466996 
L 168.551595 227.352266 
L 169.055827 227.352266 
L 169.099626 227.122805 
L 169.574291 227.122805 
L 169.616809 226.893344 
L 169.729685 226.893344 
L 169.729685 226.778614 
L 170.378471 226.778614 
L 170.459584 226.549153 
L 170.499999 226.549153 
L 170.499999 226.319692 
L 171.134225 226.319692 
L 171.134225 226.204962 
L 172.288901 226.204962 
L 172.288901 226.090232 
L 172.566008 226.090232 
L 172.60183 225.860771 
L 173.00275 225.860771 
L 173.014404 225.63131 
L 173.688525 225.63131 
L 173.688525 225.51658 
L 174.098358 225.51658 
L 174.098358 225.40185 
L 174.541525 225.40185 
L 174.541525 225.287119 
L 174.774759 225.287119 
L 174.827334 225.057659 
L 175.160115 225.057659 
L 175.20127 224.598737 
L 175.797284 224.598737 
L 175.797284 224.484007 
L 176.810078 224.484007 
L 176.810078 224.369277 
L 177.125814 224.369277 
L 177.208443 224.025086 
L 177.66942 224.025086 
L 177.66942 223.910355 
L 177.79386 223.910355 
L 177.820411 223.680895 
L 178.066286 223.680895 
L 178.066286 223.566164 
L 178.649364 223.566164 
L 178.649364 223.451434 
L 178.783772 223.451434 
L 178.883902 223.107243 
L 179.368015 223.107243 
L 179.464856 222.877782 
L 179.480944 222.877782 
L 179.480944 222.763052 
L 180.097069 222.763052 
L 180.143574 222.533591 
L 180.518792 222.533591 
L 180.541504 222.30413 
L 181.576933 222.30413 
L 181.576933 222.1894 
L 181.866828 222.1894 
L 181.971695 221.959939 
L 182.020417 221.959939 
L 182.020417 221.845209 
L 182.323597 221.845209 
L 182.323597 221.730479 
L 182.708675 221.730479 
L 182.708675 221.615748 
L 183.098507 221.615748 
L 183.196243 221.386288 
L 184.212165 221.386288 
L 184.297772 221.156827 
L 184.431454 221.156827 
L 184.431454 221.042097 
L 184.582131 221.042097 
L 184.659972 220.468445 
L 184.973775 220.468445 
L 184.973775 220.238984 
L 185.499738 220.238984 
L 185.579266 220.009524 
L 185.624548 220.009524 
L 185.624548 219.894793 
L 185.759693 219.894793 
L 185.765302 219.550602 
L 186.31179 219.550602 
L 186.31179 219.435872 
L 186.533193 219.435872 
L 186.533193 219.321142 
L 186.666828 219.321142 
L 186.666828 219.206411 
L 186.831126 219.206411 
L 186.831126 219.091681 
L 187.800652 219.091681 
L 187.890237 218.86222 
L 188.013903 218.86222 
L 188.013903 218.74749 
L 188.360406 218.74749 
L 188.360406 218.632759 
L 188.576509 218.632759 
L 188.576509 218.518029 
L 188.879315 218.518029 
L 188.879315 218.403299 
L 189.227601 218.403299 
L 189.227601 218.288568 
L 189.672459 218.288568 
L 189.672459 218.173838 
L 189.815295 218.173838 
L 189.833067 217.944377 
L 190.461106 217.944377 
L 190.461106 217.829647 
L 190.635863 217.829647 
L 190.635863 217.714917 
L 191.317886 217.714917 
L 191.317886 217.600186 
L 191.484305 217.600186 
L 191.508526 217.370726 
L 192.335747 217.370726 
L 192.335747 217.255995 
L 192.557468 217.255995 
L 192.659729 217.026535 
L 193.315656 217.026535 
L 193.315656 216.911804 
L 193.679175 216.911804 
L 193.679175 216.797074 
L 193.828138 216.797074 
L 193.828138 216.682344 
L 195.061905 216.682344 
L 195.061905 216.567613 
L 195.865701 216.567613 
L 195.865701 216.452883 
L 196.099789 216.452883 
L 196.099789 216.338153 
L 196.738996 216.338153 
L 196.738996 216.223422 
L 198.216766 216.223422 
L 198.216766 216.108692 
L 200.214895 216.108692 
L 200.214895 215.993962 
L 200.790517 215.993962 
L 200.790517 215.879231 
L 202.157038 215.879231 
L 202.157038 215.764501 
L 202.924148 215.764501 
L 202.924148 215.649771 
L 203.045312 215.649771 
L 203.045312 215.53504 
L 203.894492 215.53504 
L 203.894492 215.42031 
L 205.02867 215.42031 
L 205.02867 215.305579 
L 206.484198 215.305579 
L 206.484198 215.190849 
L 338.688 215.190849 
L 338.688 215.190849 
" style="fill:none;stroke:#00bfbf;stroke-linecap:square;stroke-width:1.5;"/>
   </g>
   <g id="line2d_31">
    <defs>
     <path d="M -6 0 
L 6 0 
M 0 6 
L 0 -6 
" id="m203f6a1fe9" style="stroke:#00bfbf;stroke-width:1.5;"/>
    </defs>
    <g>
     <use style="fill-opacity:0;stroke:#00bfbf;stroke-width:1.5;" x="93.863965" xlink:href="#m203f6a1fe9" y="263.148133"/>
     <use style="fill-opacity:0;stroke:#00bfbf;stroke-width:1.5;" x="141.235139" xlink:href="#m203f6a1fe9" y="237.563266"/>
     <use style="fill-opacity:0;stroke:#00bfbf;stroke-width:1.5;" x="206.484198" xlink:href="#m203f6a1fe9" y="215.305579"/>
     <use style="fill-opacity:0;stroke:#00bfbf;stroke-width:1.5;" x="206.484198" xlink:href="#m203f6a1fe9" y="215.190849"/>
     <use style="fill-opacity:0;stroke:#00bfbf;stroke-width:1.5;" x="206.484198" xlink:href="#m203f6a1fe9" y="215.190849"/>
     <use style="fill-opacity:0;stroke:#00bfbf;stroke-width:1.5;" x="338.688" xlink:href="#m203f6a1fe9" y="215.190849"/>
    </g>
   </g>
   <g id="line2d_32">
    <path style="fill:none;stroke:#00bfbf;stroke-linecap:square;stroke-width:1.5;"/>
    <g/>
   </g>
   <g id="line2d_33">
    <path clip-path="url(#pb43107e13a)" d="M 138.084384 240.202064 
" style="fill:none;stroke:#00bfbf;stroke-linecap:square;stroke-width:1.5;"/>
    <defs>
     <path d="M -12 12 
L 12 -12 
M -12 -12 
L 12 12 
" id="mdd5ed318ad" style="stroke:#00bfbf;"/>
    </defs>
    <g clip-path="url(#pb43107e13a)">
     <use style="fill:#00bfbf;stroke:#00bfbf;" x="138.084384" xlink:href="#mdd5ed318ad" y="240.202064"/>
    </g>
   </g>
   <g id="line2d_34">
    <defs>
     <path d="M 0 1.5 
C 0.397805 1.5 0.77937 1.341951 1.06066 1.06066 
C 1.341951 0.77937 1.5 0.397805 1.5 0 
C 1.5 -0.397805 1.341951 -0.77937 1.06066 -1.06066 
C 0.77937 -1.341951 0.397805 -1.5 0 -1.5 
C -0.397805 -1.5 -0.77937 -1.341951 -1.06066 -1.06066 
C -1.341951 -0.77937 -1.5 -0.397805 -1.5 0 
C -1.5 0.397805 -1.341951 0.77937 -1.06066 1.06066 
C -0.77937 1.341951 -0.397805 1.5 0 1.5 
z
" id="md5c8d35295" style="stroke:#008000;"/>
    </defs>
    <g>
     <use style="fill:#008000;stroke:#008000;" x="214.914032" xlink:href="#md5c8d35295" y="233.547704"/>
     <use style="fill:#008000;stroke:#008000;" x="214.914032" xlink:href="#md5c8d35295" y="233.547704"/>
    </g>
   </g>
   <g id="line2d_35">
    <path d="M 38.440992 298.944 
L 38.440992 283.684864 
L 50.52898 283.684864 
L 50.52898 278.98092 
L 57.6 278.98092 
L 57.6 276.342122 
L 62.616969 276.342122 
L 62.616969 275.309549 
L 66.508432 275.309549 
L 66.508432 274.735897 
L 69.687988 274.735897 
L 69.687988 273.818055 
L 72.376266 273.818055 
L 72.376266 272.21183 
L 74.704957 272.21183 
L 74.704957 271.293987 
L 76.759008 271.293987 
L 76.759008 270.720335 
L 78.59642 270.720335 
L 78.59642 270.261414 
L 80.258561 270.261414 
L 80.258561 269.687762 
L 81.775977 269.687762 
L 81.775977 269.458302 
L 83.171864 269.458302 
L 83.171864 269.114111 
L 85.66744 269.114111 
L 85.66744 268.76992 
L 86.792945 268.76992 
L 86.792945 268.425729 
L 87.850195 268.425729 
L 87.850195 268.196268 
L 88.846997 268.196268 
L 88.846997 267.966807 
L 89.78989 267.966807 
L 89.78989 267.507886 
L 90.684409 267.507886 
L 90.684409 267.278425 
L 91.535274 267.278425 
L 91.535274 267.163695 
L 93.121756 267.163695 
L 93.121756 267.048964 
L 93.863965 267.048964 
L 93.863965 266.934234 
L 94.575872 266.934234 
L 94.575872 266.819504 
L 95.259853 266.819504 
L 95.259853 266.590043 
L 95.918017 266.590043 
L 95.918017 266.360582 
L 96.552242 266.360582 
L 96.552242 265.786931 
L 97.16421 265.786931 
L 97.16421 264.869088 
L 97.755429 264.869088 
L 97.755429 264.754358 
L 99.41757 264.754358 
L 99.41757 264.639627 
L 99.938184 264.639627 
L 99.938184 264.524897 
L 100.934985 264.524897 
L 100.934985 264.065976 
L 101.412804 264.065976 
L 101.412804 263.951245 
L 102.330873 263.951245 
L 102.330873 263.836515 
L 103.623262 263.836515 
L 103.623262 263.721785 
L 104.033617 263.721785 
L 104.033617 263.607054 
L 104.434538 263.607054 
L 104.434538 263.377593 
L 105.951954 263.377593 
L 105.951954 263.262863 
L 107.009204 263.262863 
L 107.009204 263.148133 
L 108.948899 263.148133 
L 108.948899 263.033402 
L 109.550313 263.033402 
L 109.550313 262.918672 
L 110.131676 262.918672 
L 110.131676 262.803942 
L 110.968922 262.803942 
L 110.968922 262.689211 
L 111.239304 262.689211 
L 111.239304 262.574481 
L 111.767808 262.574481 
L 111.767808 262.459751 
L 112.026172 262.459751 
L 112.026172 262.34502 
L 112.280765 262.34502 
L 112.280765 262.23029 
L 112.779064 262.23029 
L 112.779064 262.11556 
L 113.26352 262.11556 
L 113.26352 262.000829 
L 113.500792 262.000829 
L 113.500792 261.886099 
L 113.73488 261.886099 
L 113.73488 261.427178 
L 113.965867 261.427178 
L 113.965867 261.312447 
L 114.418861 261.312447 
L 114.418861 261.197717 
L 115.291007 261.197717 
L 115.291007 260.968256 
L 115.502395 260.968256 
L 115.502395 260.853526 
L 116.522527 260.853526 
L 116.522527 260.738796 
L 116.719583 260.738796 
L 116.719583 260.509335 
L 117.297733 260.509335 
L 117.297733 260.279874 
L 118.039942 260.279874 
L 118.039942 259.591492 
L 118.399528 259.591492 
L 118.399528 259.362031 
L 118.751849 259.362031 
L 118.751849 259.132571 
L 119.768017 259.132571 
L 119.768017 259.01784 
L 120.571812 259.01784 
L 120.571812 258.673649 
L 120.728219 258.673649 
L 120.728219 258.558919 
L 120.883236 258.558919 
L 120.883236 258.329458 
L 122.920132 258.329458 
L 122.920132 258.214728 
L 123.593547 258.214728 
L 123.593547 258.099998 
L 124.241922 258.099998 
L 124.241922 257.985267 
L 124.619683 257.985267 
L 124.619683 257.755807 
L 124.743806 257.755807 
L 124.743806 257.641076 
L 124.867052 257.641076 
L 124.867052 257.526346 
L 125.938745 257.526346 
L 125.938745 257.411616 
L 127.05703 257.411616 
L 127.165014 257.182155 
L 127.48501 257.182155 
L 127.48501 256.952694 
L 128.411207 256.952694 
L 128.411207 256.837964 
L 129.385722 256.837964 
L 129.480244 256.493773 
L 130.839837 256.493773 
L 130.839837 256.379043 
L 131.439773 256.379043 
L 131.439773 256.149582 
L 131.856005 256.149582 
L 131.938072 255.57593 
L 132.181982 255.57593 
L 132.181982 255.4612 
L 132.342714 255.4612 
L 132.342714 255.117009 
L 134.236034 255.117009 
L 134.236034 255.002278 
L 135.076644 255.002278 
L 135.076644 254.887548 
L 135.348078 254.887548 
L 135.348078 254.658087 
L 136.008736 254.658087 
L 136.008736 254.313896 
L 136.393441 254.313896 
L 136.393441 253.969705 
L 137.138292 253.969705 
L 137.138292 253.625514 
L 138.084384 253.625514 
L 138.084384 253.510784 
L 138.256201 253.510784 
L 138.256201 253.396054 
L 139.413734 253.396054 
L 139.520072 253.166593 
L 139.625765 253.166593 
L 139.678372 252.937132 
L 140.093612 252.937132 
L 140.093612 252.707672 
L 140.348205 252.707672 
L 140.39868 252.478211 
L 142.752555 252.478211 
L 142.752555 252.36348 
L 142.884173 252.36348 
L 142.927826 252.13402 
L 143.101352 252.13402 
L 143.101352 252.019289 
L 144.350522 252.019289 
L 144.430703 251.789829 
L 146.071013 251.789829 
L 146.071013 251.675098 
L 146.324022 251.675098 
L 146.324022 251.560368 
L 147.334773 251.560368 
L 147.436066 250.986716 
L 148.064279 250.986716 
L 148.064279 250.871986 
L 148.386046 250.871986 
L 148.386046 250.757256 
L 148.888835 250.757256 
L 148.919783 250.527795 
L 149.134896 250.527795 
L 149.226281 250.298334 
L 149.286939 250.298334 
L 149.377533 249.954143 
L 149.646525 249.954143 
L 149.646525 249.839413 
L 149.764758 249.839413 
L 149.764758 249.724683 
L 150.682827 249.724683 
L 150.682827 249.609952 
L 150.987572 249.609952 
L 150.987572 249.380492 
L 152.637225 249.380492 
L 152.736878 248.577379 
L 153.154164 248.577379 
L 153.202607 248.347918 
L 153.656221 248.347918 
L 153.656221 248.233188 
L 153.867041 248.233188 
L 153.867041 248.118458 
L 154.349264 248.118458 
L 154.349264 248.003727 
L 154.752243 248.003727 
L 154.840544 247.774267 
L 155.382516 247.774267 
L 155.403849 247.544806 
L 155.55245 247.544806 
L 155.55245 247.430076 
L 156.357959 247.430076 
L 156.357959 247.315345 
L 156.538679 247.315345 
L 156.538679 247.085885 
L 156.717545 247.085885 
L 156.717545 246.971154 
L 157.243392 246.971154 
L 157.319964 246.741694 
L 157.772468 246.741694 
L 157.809652 246.512233 
L 157.976006 246.512233 
L 157.976006 246.397503 
L 158.907277 246.397503 
L 158.994256 245.823851 
L 159.028927 245.823851 
L 159.028927 245.709121 
L 159.26971 245.709121 
L 159.26971 245.59439 
L 159.724893 245.59439 
L 159.724893 245.47966 
L 160.136022 245.47966 
L 160.136022 245.36493 
L 161.719678 245.36493 
L 161.719678 245.135469 
L 161.838011 245.135469 
L 161.838011 245.020738 
L 162.231559 245.020738 
L 162.231559 244.906008 
L 162.68677 244.906008 
L 162.784783 244.676547 
L 163.52292 244.676547 
L 163.52292 244.561817 
L 163.841212 244.561817 
L 163.841212 244.447087 
L 165.685193 244.447087 
L 165.791279 243.988165 
L 165.849938 243.988165 
L 165.896723 243.643974 
L 166.02474 243.643974 
L 166.02474 243.529244 
L 167.169078 243.529244 
L 167.212459 243.299783 
L 167.374185 243.299783 
L 167.374185 243.185053 
L 167.860992 243.185053 
L 167.860992 243.070323 
L 168.425752 243.070323 
L 168.425752 242.955592 
L 168.963 242.955592 
L 169.060699 242.611401 
L 170.174022 242.611401 
L 170.228776 242.26721 
L 171.030109 242.26721 
L 171.030109 242.15248 
L 171.254912 242.15248 
L 171.254912 242.03775 
L 171.712752 242.03775 
L 171.796233 241.808289 
L 172.296995 241.808289 
L 172.296995 241.693559 
L 172.720707 241.693559 
L 172.807372 241.349368 
L 173.785389 241.349368 
L 173.785389 241.234637 
L 174.498781 241.234637 
L 174.498781 241.119907 
L 174.928533 241.119907 
L 175.004915 240.660985 
L 176.931477 240.660985 
L 177.005766 240.316794 
L 177.702098 240.316794 
L 177.702098 240.202064 
L 178.101129 240.202064 
L 178.101129 240.087334 
L 178.711096 240.087334 
L 178.750267 239.857873 
L 179.738993 239.857873 
L 179.807517 239.513682 
L 180.346224 239.513682 
L 180.366615 239.054761 
L 180.589355 239.054761 
L 180.589355 238.94003 
L 181.270047 238.94003 
L 181.270047 238.8253 
L 181.751918 238.8253 
L 181.850459 238.481109 
L 182.457423 238.481109 
L 182.457423 238.366379 
L 183.222213 238.366379 
L 183.239506 238.022188 
L 183.97145 238.022188 
L 183.97145 237.907457 
L 184.425399 237.907457 
L 184.425399 237.792727 
L 184.950287 237.792727 
L 184.950287 237.677997 
L 185.187613 237.677997 
L 185.187613 237.563266 
L 186.280968 237.563266 
L 186.364245 237.219075 
L 187.405339 237.219075 
L 187.459699 236.989614 
L 187.74234 236.989614 
L 187.74234 236.874884 
L 188.410267 236.874884 
L 188.410267 236.760154 
L 189.339123 236.760154 
L 189.339123 236.645423 
L 189.664987 236.645423 
L 189.727649 236.415963 
L 190.249927 236.415963 
L 190.267263 236.186502 
L 190.550835 236.186502 
L 190.587731 235.957041 
L 191.407381 235.957041 
L 191.420901 235.727581 
L 192.06825 235.727581 
L 192.06825 235.61285 
L 192.239301 235.61285 
L 192.239301 235.49812 
L 192.859982 235.49812 
L 192.859982 235.38339 
L 192.993864 235.38339 
L 192.993864 235.268659 
L 193.411167 235.268659 
L 193.442487 234.924468 
L 194.388801 234.924468 
L 194.388801 234.809738 
L 197.343095 234.809738 
L 197.343095 234.695008 
L 198.142469 234.695008 
L 198.142469 234.580277 
L 198.445007 234.580277 
L 198.445007 234.465547 
L 199.544294 234.465547 
L 199.544294 234.350817 
L 200.61511 234.350817 
L 200.61511 234.236086 
L 201.547001 234.236086 
L 201.639013 233.891895 
L 209.123326 233.891895 
L 209.123326 233.777165 
L 209.753354 233.777165 
L 209.753354 233.662434 
L 214.914032 233.662434 
L 214.914032 233.547704 
L 338.688 233.547704 
L 338.688 233.547704 
" style="fill:none;stroke:#008000;stroke-linecap:square;stroke-width:1.5;"/>
   </g>
   <g id="line2d_36">
    <defs>
     <path d="M -0 6 
L 6 -6 
L -6 -6 
z
" id="m6fec0c2699" style="stroke:#008000;stroke-linejoin:miter;stroke-width:1.5;"/>
    </defs>
    <g>
     <use style="fill-opacity:0;stroke:#008000;stroke-linejoin:miter;stroke-width:1.5;" x="97.755429" xlink:href="#m6fec0c2699" y="264.869088"/>
     <use style="fill-opacity:0;stroke:#008000;stroke-linejoin:miter;stroke-width:1.5;" x="166.02474" xlink:href="#m6fec0c2699" y="243.643974"/>
     <use style="fill-opacity:0;stroke:#008000;stroke-linejoin:miter;stroke-width:1.5;" x="214.914032" xlink:href="#m6fec0c2699" y="233.662434"/>
     <use style="fill-opacity:0;stroke:#008000;stroke-linejoin:miter;stroke-width:1.5;" x="214.914032" xlink:href="#m6fec0c2699" y="233.547704"/>
     <use style="fill-opacity:0;stroke:#008000;stroke-linejoin:miter;stroke-width:1.5;" x="214.914032" xlink:href="#m6fec0c2699" y="233.547704"/>
     <use style="fill-opacity:0;stroke:#008000;stroke-linejoin:miter;stroke-width:1.5;" x="338.688" xlink:href="#m6fec0c2699" y="233.547704"/>
    </g>
   </g>
   <g id="line2d_37">
    <path style="fill:none;stroke:#008000;stroke-linecap:square;stroke-width:1.5;"/>
    <g/>
   </g>
   <g id="line2d_38">
    <path clip-path="url(#pb43107e13a)" d="M 138.084384 253.510784 
" style="fill:none;stroke:#008000;stroke-linecap:square;stroke-width:1.5;"/>
    <defs>
     <path d="M -12 12 
L 12 -12 
M -12 -12 
L 12 12 
" id="mefbd41c39b" style="stroke:#008000;"/>
    </defs>
    <g clip-path="url(#pb43107e13a)">
     <use style="fill:#008000;stroke:#008000;" x="138.084384" xlink:href="#mefbd41c39b" y="253.510784"/>
    </g>
   </g>
   <g id="line2d_39">
    <defs>
     <path d="M 0 1.5 
C 0.397805 1.5 0.77937 1.341951 1.06066 1.06066 
C 1.341951 0.77937 1.5 0.397805 1.5 0 
C 1.5 -0.397805 1.341951 -0.77937 1.06066 -1.06066 
C 0.77937 -1.341951 0.397805 -1.5 0 -1.5 
C -0.397805 -1.5 -0.77937 -1.341951 -1.06066 -1.06066 
C -1.341951 -0.77937 -1.5 -0.397805 -1.5 0 
C -1.5 0.397805 -1.341951 0.77937 -1.06066 1.06066 
C -0.77937 1.341951 -0.397805 1.5 0 1.5 
z
" id="ma27f8a90ce" style="stroke:#0000ff;"/>
    </defs>
    <g>
     <use style="fill:#0000ff;stroke:#0000ff;" x="202.531094" xlink:href="#ma27f8a90ce" y="255.346469"/>
     <use style="fill:#0000ff;stroke:#0000ff;" x="202.531094" xlink:href="#ma27f8a90ce" y="255.346469"/>
    </g>
   </g>
   <g id="line2d_40">
    <path d="M 29.53256 298.944 
L 29.53256 285.291089 
L 41.620548 285.291089 
L 41.620548 282.881752 
L 48.691568 282.881752 
L 48.691568 280.931336 
L 53.708537 280.931336 
L 53.708537 279.898763 
L 57.6 279.898763 
L 57.6 279.095651 
L 60.779557 279.095651 
L 60.779557 278.75146 
L 63.467834 278.75146 
L 63.467834 278.292538 
L 65.796525 278.292538 
L 65.796525 277.489426 
L 67.850577 277.489426 
L 67.850577 277.145235 
L 71.35013 277.145235 
L 71.35013 276.915774 
L 72.867545 276.915774 
L 72.867545 276.686313 
L 74.263433 276.686313 
L 74.263433 276.456853 
L 75.555822 276.456853 
L 75.555822 276.227392 
L 76.759008 276.227392 
L 76.759008 276.112662 
L 78.941764 276.112662 
L 78.941764 275.997931 
L 79.938565 275.997931 
L 79.938565 275.65374 
L 80.881459 275.65374 
L 80.881459 275.194819 
L 81.775977 275.194819 
L 81.775977 274.965358 
L 82.626842 274.965358 
L 82.626842 274.850628 
L 84.213325 274.850628 
L 84.213325 274.276976 
L 84.955534 274.276976 
L 84.955534 273.932785 
L 85.66744 273.932785 
L 85.66744 273.818055 
L 88.846997 273.818055 
L 88.846997 273.703324 
L 89.972502 273.703324 
L 89.972502 273.359133 
L 92.026554 273.359133 
L 92.026554 273.014942 
L 92.504372 273.014942 
L 92.504372 272.900212 
L 92.969447 272.900212 
L 92.969447 272.785482 
L 93.422441 272.785482 
L 93.422441 272.670751 
L 94.714831 272.670751 
L 94.714831 272.441291 
L 95.125186 272.441291 
L 95.125186 272.32656 
L 95.526106 272.32656 
L 95.526106 272.21183 
L 96.301313 272.21183 
L 96.301313 271.982369 
L 96.676366 271.982369 
L 96.676366 271.867639 
L 97.403108 271.867639 
L 97.403108 271.752909 
L 97.755429 271.752909 
L 97.755429 271.638178 
L 98.771596 271.638178 
L 98.771596 271.408718 
L 99.41757 271.408718 
L 99.41757 271.293987 
L 99.731799 271.293987 
L 99.731799 271.179257 
L 100.343767 271.179257 
L 100.343767 271.064526 
L 100.641881 271.064526 
L 100.641881 270.949796 
L 100.934985 270.949796 
L 100.934985 270.835066 
L 101.785851 270.835066 
L 101.785851 270.720335 
L 102.060491 270.720335 
L 102.060491 270.605605 
L 102.597126 270.605605 
L 102.597126 270.490875 
L 102.859376 270.490875 
L 102.859376 270.376144 
L 103.117741 270.376144 
L 103.117741 270.261414 
L 104.355088 270.261414 
L 104.355088 270.031953 
L 104.592361 270.031953 
L 104.592361 269.802493 
L 105.51043 269.802493 
L 105.51043 269.687762 
L 106.382575 269.687762 
L 106.382575 269.573032 
L 107.213174 269.573032 
L 107.213174 269.458302 
L 108.006005 269.458302 
L 108.006005 269.343571 
L 109.491096 269.343571 
L 109.491096 269.228841 
L 109.843417 269.228841 
L 109.843417 269.114111 
L 110.016944 269.114111 
L 110.016944 268.88465 
L 111.023335 268.88465 
L 111.023335 268.76992 
L 112.877038 268.76992 
L 112.877038 268.655189 
L 113.453595 268.655189 
L 113.453595 268.425729 
L 113.73488 268.425729 
L 113.73488 268.310998 
L 118.363901 268.310998 
L 118.363901 268.196268 
L 118.681952 268.196268 
L 118.786692 267.852077 
L 118.890808 267.852077 
L 118.890808 267.737347 
L 119.301163 267.737347 
L 119.301163 267.622616 
L 120.286695 267.622616 
L 120.382253 267.393156 
L 120.665825 267.393156 
L 120.665825 267.278425 
L 121.036887 267.278425 
L 121.036887 267.048964 
L 123.593547 267.048964 
L 123.672636 266.819504 
L 123.751369 266.819504 
L 123.751369 266.590043 
L 124.817858 266.590043 
L 124.817858 266.475313 
L 126.573795 266.475313 
L 126.573795 266.131122 
L 126.839037 266.131122 
L 126.839037 266.016391 
L 127.229484 266.016391 
L 127.229484 265.901661 
L 127.48501 265.901661 
L 127.48501 265.786931 
L 127.736845 265.786931 
L 127.736845 265.55747 
L 128.107907 265.55747 
L 128.107907 265.44274 
L 131.640805 265.44274 
L 131.690703 265.213279 
L 131.938072 265.213279 
L 131.938072 264.983818 
L 132.084827 264.983818 
L 132.084827 264.869088 
L 133.078923 264.869088 
L 133.078923 264.754358 
L 133.216421 264.754358 
L 133.216421 264.639627 
L 134.745246 264.639627 
L 134.745246 264.524897 
L 135.401861 264.524897 
L 135.401861 264.410167 
L 136.86886 264.410167 
L 136.86886 264.295436 
L 137.235245 264.295436 
L 137.235245 264.180706 
L 138.084384 264.180706 
L 138.084384 264.065976 
L 139.762215 264.065976 
L 139.762215 263.951245 
L 140.317849 263.951245 
L 140.317849 263.721785 
L 141.263941 263.721785 
L 141.263941 263.607054 
L 142.351634 263.607054 
L 142.351634 263.492324 
L 145.576196 263.492324 
L 145.643486 263.262863 
L 145.932112 263.262863 
L 145.932112 263.148133 
L 147.287301 263.148133 
L 147.287301 263.033402 
L 147.78933 263.033402 
L 147.828875 262.803942 
L 149.770648 262.803942 
L 149.770648 262.689211 
L 150.103169 262.689211 
L 150.103169 262.574481 
L 150.749772 262.574481 
L 150.749772 262.459751 
L 151.437608 262.459751 
L 151.437608 262.23029 
L 152.736878 262.23029 
L 152.736878 262.11556 
L 152.929579 262.11556 
L 152.929579 262.000829 
L 153.090987 262.000829 
L 153.090987 261.886099 
L 153.566437 261.886099 
L 153.609024 261.541908 
L 157.77619 261.541908 
L 157.77619 261.427178 
L 158.868869 261.427178 
L 158.868869 261.312447 
L 159.035853 261.312447 
L 159.087709 261.082987 
L 160.103486 261.082987 
L 160.152267 260.853526 
L 160.877419 260.853526 
L 160.877419 260.738796 
L 162.846111 260.738796 
L 162.846111 260.624065 
L 164.078769 260.624065 
L 164.078769 260.509335 
L 167.960895 260.509335 
L 167.960895 260.394605 
L 168.324419 260.394605 
L 168.324419 260.279874 
L 170.075029 260.279874 
L 170.113593 259.935683 
L 172.668501 259.935683 
L 172.668501 259.820953 
L 173.257343 259.820953 
L 173.303236 259.591492 
L 173.594124 259.591492 
L 173.630147 259.247301 
L 174.925749 259.247301 
L 174.925749 259.132571 
L 175.40763 259.132571 
L 175.464409 258.90311 
L 175.785362 258.90311 
L 175.785362 258.78838 
L 177.43051 258.78838 
L 177.43051 258.673649 
L 178.706614 258.673649 
L 178.706614 258.558919 
L 180.917233 258.558919 
L 180.917233 258.444189 
L 181.86823 258.444189 
L 181.86823 258.329458 
L 185.544091 258.329458 
L 185.544091 258.214728 
L 185.879321 258.214728 
L 185.879321 258.099998 
L 186.027987 258.099998 
L 186.039031 257.870537 
L 186.563216 257.870537 
L 186.563216 257.641076 
L 187.099138 257.641076 
L 187.099138 257.526346 
L 187.73366 257.526346 
L 187.73366 257.411616 
L 188.607028 257.411616 
L 188.70774 257.067425 
L 189.543802 257.067425 
L 189.543802 256.952694 
L 192.37955 256.952694 
L 192.399494 256.723234 
L 192.843049 256.723234 
L 192.843049 256.608503 
L 193.157092 256.608503 
L 193.157092 256.493773 
L 193.662069 256.493773 
L 193.662069 256.379043 
L 195.081637 256.379043 
L 195.081637 256.264312 
L 196.260879 256.264312 
L 196.260879 256.149582 
L 196.439356 256.149582 
L 196.439356 256.034851 
L 198.172226 256.034851 
L 198.276525 255.805391 
L 198.788863 255.805391 
L 198.788863 255.69066 
L 201.305472 255.69066 
L 201.305472 255.57593 
L 202.208223 255.57593 
L 202.208223 255.4612 
L 202.531094 255.4612 
L 202.531094 255.346469 
L 338.688 255.346469 
L 338.688 255.346469 
" style="fill:none;stroke:#0000ff;stroke-linecap:square;stroke-width:1.5;"/>
   </g>
   <g id="line2d_41">
    <defs>
     <path d="M 0 -6 
L -1.347084 -1.854102 
L -5.706339 -1.854102 
L -2.179628 0.708204 
L -3.526712 4.854102 
L -0 2.291796 
L 3.526712 4.854102 
L 2.179628 0.708204 
L 5.706339 -1.854102 
L 1.347084 -1.854102 
z
" id="mc62b69ecaf" style="stroke:#0000ff;stroke-linejoin:bevel;stroke-width:1.5;"/>
    </defs>
    <g>
     <use style="fill-opacity:0;stroke:#0000ff;stroke-linejoin:bevel;stroke-width:1.5;" x="67.850577" xlink:href="#mc62b69ecaf" y="277.489426"/>
     <use style="fill-opacity:0;stroke:#0000ff;stroke-linejoin:bevel;stroke-width:1.5;" x="132.084827" xlink:href="#mc62b69ecaf" y="264.869088"/>
     <use style="fill-opacity:0;stroke:#0000ff;stroke-linejoin:bevel;stroke-width:1.5;" x="198.788863" xlink:href="#mc62b69ecaf" y="255.69066"/>
     <use style="fill-opacity:0;stroke:#0000ff;stroke-linejoin:bevel;stroke-width:1.5;" x="202.531094" xlink:href="#mc62b69ecaf" y="255.4612"/>
     <use style="fill-opacity:0;stroke:#0000ff;stroke-linejoin:bevel;stroke-width:1.5;" x="202.531094" xlink:href="#mc62b69ecaf" y="255.346469"/>
     <use style="fill-opacity:0;stroke:#0000ff;stroke-linejoin:bevel;stroke-width:1.5;" x="338.688" xlink:href="#mc62b69ecaf" y="255.346469"/>
    </g>
   </g>
   <g id="line2d_42">
    <path style="fill:none;stroke:#0000ff;stroke-linecap:square;stroke-width:1.5;"/>
    <g/>
   </g>
   <g id="line2d_43">
    <path clip-path="url(#pb43107e13a)" d="M 138.049816 264.180706 
" style="fill:none;stroke:#0000ff;stroke-linecap:square;stroke-width:1.5;"/>
    <defs>
     <path d="M -12 12 
L 12 -12 
M -12 -12 
L 12 12 
" id="m0c392c051f" style="stroke:#0000ff;"/>
    </defs>
    <g clip-path="url(#pb43107e13a)">
     <use style="fill:#0000ff;stroke:#0000ff;" x="138.049816" xlink:href="#m0c392c051f" y="264.180706"/>
    </g>
   </g>
   <g id="line2d_44">
    <defs>
     <path d="M 0 1.5 
C 0.397805 1.5 0.77937 1.341951 1.06066 1.06066 
C 1.341951 0.77937 1.5 0.397805 1.5 0 
C 1.5 -0.397805 1.341951 -0.77937 1.06066 -1.06066 
C 0.77937 -1.341951 0.397805 -1.5 0 -1.5 
C -0.397805 -1.5 -0.77937 -1.341951 -1.06066 -1.06066 
C -1.341951 -0.77937 -1.5 -0.397805 -1.5 0 
C -1.5 0.397805 -1.341951 0.77937 -1.06066 1.06066 
C -0.77937 1.341951 -0.397805 1.5 0 1.5 
z
" id="m9961cfd5b6" style="stroke:#000000;"/>
    </defs>
    <g>
     <use style="stroke:#000000;" x="199.282446" xlink:href="#m9961cfd5b6" y="270.261414"/>
     <use style="stroke:#000000;" x="199.282446" xlink:href="#m9961cfd5b6" y="270.261414"/>
    </g>
   </g>
   <g id="line2d_45">
    <path d="M 17.444571 298.944 
L 17.444571 285.061628 
L 29.53256 285.061628 
L 29.53256 283.570134 
L 36.60358 283.570134 
L 36.60358 282.881752 
L 41.620548 282.881752 
L 41.620548 282.3081 
L 45.512012 282.3081 
L 45.512012 281.963909 
L 48.691568 281.963909 
L 48.691568 281.619718 
L 51.379845 281.619718 
L 51.379845 281.504988 
L 53.708537 281.504988 
L 53.708537 281.275527 
L 55.762588 281.275527 
L 55.762588 281.160797 
L 57.6 281.160797 
L 57.6 281.046066 
L 59.262141 281.046066 
L 59.262141 280.587145 
L 64.67102 280.587145 
L 64.67102 280.472415 
L 70.538854 280.472415 
L 70.538854 280.357684 
L 71.35013 280.357684 
L 71.35013 280.128224 
L 73.579452 280.128224 
L 73.579452 280.013493 
L 74.263433 280.013493 
L 74.263433 279.898763 
L 75.555822 279.898763 
L 75.555822 279.554572 
L 77.330839 279.554572 
L 77.330839 279.325111 
L 77.884514 279.325111 
L 77.884514 279.210381 
L 79.447285 279.210381 
L 79.447285 279.095651 
L 80.881459 279.095651 
L 80.881459 278.98092 
L 85.315119 278.98092 
L 85.315119 278.86619 
L 86.012784 278.86619 
L 86.012784 278.636729 
L 88.846997 278.636729 
L 88.846997 278.521999 
L 89.972502 278.521999 
L 89.972502 278.177808 
L 90.242884 278.177808 
L 90.242884 278.063077 
L 90.509138 278.063077 
L 90.509138 277.948347 
L 94.080605 277.948347 
L 94.080605 277.833617 
L 97.043522 277.833617 
L 97.043522 277.718886 
L 97.755429 277.718886 
L 97.755429 277.489426 
L 102.060491 277.489426 
L 102.060491 277.374695 
L 103.372333 277.374695 
L 103.372333 277.259965 
L 103.498249 277.259965 
L 103.498249 277.145235 
L 104.23523 277.145235 
L 104.23523 277.030504 
L 105.057436 277.030504 
L 105.057436 276.915774 
L 105.621863 276.915774 
L 105.621863 276.801044 
L 105.951954 276.801044 
L 105.951954 276.686313 
L 107.712901 276.686313 
L 107.712901 276.571583 
L 110.103064 276.571583 
L 110.103064 276.456853 
L 110.274038 276.456853 
L 110.274038 276.342122 
L 112.655818 276.342122 
L 112.655818 276.227392 
L 113.311233 276.227392 
L 113.311233 276.112662 
L 114.148479 276.112662 
L 114.148479 275.997931 
L 115.648856 275.997931 
L 115.648856 275.883201 
L 116.323218 275.883201 
L 116.323218 275.768471 
L 117.765302 275.768471 
L 117.765302 275.53901 
L 118.363901 275.53901 
L 118.363901 275.42428 
L 120.8059 275.42428 
L 120.8059 275.309549 
L 122.699028 275.309549 
L 122.699028 275.194819 
L 123.94666 275.194819 
L 123.94666 275.080089 
L 124.482119 275.080089 
L 124.482119 274.965358 
L 125.576994 274.965358 
L 125.576994 274.850628 
L 125.787955 274.850628 
L 125.787955 274.735897 
L 129.347769 274.735897 
L 129.347769 274.621167 
L 132.683351 274.621167 
L 132.683351 274.506437 
L 136.942755 274.506437 
L 136.942755 274.391706 
L 137.997836 274.391706 
L 138.067109 274.162246 
L 138.153314 274.162246 
L 138.153314 274.047515 
L 140.544239 274.047515 
L 140.544239 273.932785 
L 141.191848 273.932785 
L 141.191848 273.818055 
L 141.968939 273.818055 
L 141.968939 273.703324 
L 142.831645 273.703324 
L 142.831645 273.588594 
L 145.016721 273.588594 
L 145.016721 273.473864 
L 146.527367 273.473864 
L 146.527367 273.359133 
L 150.38688 273.359133 
L 150.38688 273.244403 
L 151.747966 273.244403 
L 151.747966 273.129673 
L 157.185742 273.129673 
L 157.185742 273.014942 
L 158.276927 273.014942 
L 158.276927 272.900212 
L 158.524678 272.900212 
L 158.546057 272.556021 
L 161.374928 272.556021 
L 161.374928 272.441291 
L 163.193255 272.441291 
L 163.193255 272.32656 
L 166.551253 272.32656 
L 166.551253 272.21183 
L 170.988289 272.21183 
L 170.988289 272.0971 
L 171.455636 272.0971 
L 171.455636 271.982369 
L 173.431097 271.982369 
L 173.431097 271.867639 
L 173.855836 271.867639 
L 173.855836 271.752909 
L 176.759402 271.752909 
L 176.759402 271.638178 
L 176.884885 271.638178 
L 176.884885 271.523448 
L 177.488292 271.523448 
L 177.488292 271.408718 
L 180.174508 271.408718 
L 180.174508 271.293987 
L 183.034356 271.293987 
L 183.035667 271.064526 
L 183.518129 271.064526 
L 183.538528 270.835066 
L 188.497103 270.835066 
L 188.497103 270.720335 
L 191.572148 270.720335 
L 191.572148 270.605605 
L 196.476411 270.605605 
L 196.476411 270.490875 
L 197.074668 270.490875 
L 197.074668 270.376144 
L 199.282446 270.376144 
L 199.282446 270.261414 
L 338.688 270.261414 
L 338.688 270.261414 
" style="fill:none;stroke:#000000;stroke-linecap:square;stroke-width:1.5;"/>
   </g>
   <g id="line2d_46">
    <defs>
     <path d="M 0 6 
C 1.591219 6 3.117479 5.367802 4.242641 4.242641 
C 5.367802 3.117479 6 1.591219 6 0 
C 6 -1.591219 5.367802 -3.117479 4.242641 -4.242641 
C 3.117479 -5.367802 1.591219 -6 0 -6 
C -1.591219 -6 -3.117479 -5.367802 -4.242641 -4.242641 
C -5.367802 -3.117479 -6 -1.591219 -6 0 
C -6 1.591219 -5.367802 3.117479 -4.242641 4.242641 
C -3.117479 5.367802 -1.591219 6 0 6 
z
" id="m95a2890ce4" style="stroke:#000000;stroke-width:1.5;"/>
    </defs>
    <g>
     <use style="fill-opacity:0;stroke:#000000;stroke-width:1.5;" x="118.363901" xlink:href="#m95a2890ce4" y="275.42428"/>
     <use style="fill-opacity:0;stroke:#000000;stroke-width:1.5;" x="170.988289" xlink:href="#m95a2890ce4" y="272.21183"/>
     <use style="fill-opacity:0;stroke:#000000;stroke-width:1.5;" x="199.282446" xlink:href="#m95a2890ce4" y="270.261414"/>
     <use style="fill-opacity:0;stroke:#000000;stroke-width:1.5;" x="199.282446" xlink:href="#m95a2890ce4" y="270.261414"/>
     <use style="fill-opacity:0;stroke:#000000;stroke-width:1.5;" x="199.282446" xlink:href="#m95a2890ce4" y="270.261414"/>
     <use style="fill-opacity:0;stroke:#000000;stroke-width:1.5;" x="338.688" xlink:href="#m95a2890ce4" y="270.261414"/>
    </g>
   </g>
   <g id="line2d_47">
    <path style="fill:none;stroke:#000000;stroke-linecap:square;stroke-width:1.5;"/>
    <g/>
   </g>
   <g id="line2d_48">
    <path clip-path="url(#pb43107e13a)" d="M 137.963097 274.391706 
" style="fill:none;stroke:#000000;stroke-linecap:square;stroke-width:1.5;"/>
    <defs>
     <path d="M -12 12 
L 12 -12 
M -12 -12 
L 12 12 
" id="m34a77ce96b" style="stroke:#000000;"/>
    </defs>
    <g clip-path="url(#pb43107e13a)">
     <use style="stroke:#000000;" x="137.963097" xlink:href="#m34a77ce96b" y="274.391706"/>
    </g>
   </g>
   <g id="line2d_49">
    <defs>
     <path d="M 0 1.5 
C 0.397805 1.5 0.77937 1.341951 1.06066 1.06066 
C 1.341951 0.77937 1.5 0.397805 1.5 0 
C 1.5 -0.397805 1.341951 -0.77937 1.06066 -1.06066 
C 0.77937 -1.341951 0.397805 -1.5 0 -1.5 
C -0.397805 -1.5 -0.77937 -1.341951 -1.06066 -1.06066 
C -1.341951 -0.77937 -1.5 -0.397805 -1.5 0 
C -1.5 0.397805 -1.341951 0.77937 -1.06066 1.06066 
C -0.77937 1.341951 -0.397805 1.5 0 1.5 
z
" id="m0a1d2fadd9" style="stroke:#ff0000;"/>
    </defs>
    <g>
     <use style="fill:#ff0000;stroke:#ff0000;" x="196.504908" xlink:href="#m0a1d2fadd9" y="274.850628"/>
     <use style="fill:#ff0000;stroke:#ff0000;" x="196.504908" xlink:href="#m0a1d2fadd9" y="274.850628"/>
    </g>
   </g>
   <g id="line2d_50">
    <path d="M 5.356583 298.944 
L 5.356583 285.979471 
L 17.444571 285.979471 
L 17.444571 284.832168 
L 24.515591 284.832168 
L 24.515591 284.487977 
L 29.53256 284.487977 
L 29.53256 283.684864 
L 33.424023 283.684864 
L 33.424023 283.340673 
L 36.60358 283.340673 
L 36.60358 282.881752 
L 39.291857 282.881752 
L 39.291857 282.652291 
L 41.620548 282.652291 
L 41.620548 282.3081 
L 43.6746 282.3081 
L 43.6746 282.078639 
L 45.512012 282.078639 
L 45.512012 281.849179 
L 47.174153 281.849179 
L 47.174153 281.619718 
L 48.691568 281.619718 
L 48.691568 281.504988 
L 56.705482 281.504988 
L 56.705482 281.390257 
L 57.6 281.390257 
L 57.6 281.275527 
L 58.450865 281.275527 
L 58.450865 281.160797 
L 59.262141 281.160797 
L 59.262141 281.046066 
L 64.079801 281.046066 
L 64.079801 280.931336 
L 66.853775 280.931336 
L 66.853775 280.816606 
L 76.465904 280.816606 
L 76.465904 280.701875 
L 78.683399 280.701875 
L 78.683399 280.587145 
L 84.02273 280.587145 
L 84.02273 280.472415 
L 84.772922 280.472415 
L 84.772922 280.357684 
L 85.315119 280.357684 
L 85.315119 280.242954 
L 85.66744 280.242954 
L 85.66744 280.128224 
L 92.73846 280.128224 
L 92.73846 280.013493 
L 95.023499 280.013493 
L 95.023499 279.898763 
L 97.580158 279.898763 
L 97.580158 279.784033 
L 98.18605 279.784033 
L 98.18605 279.669302 
L 99.575392 279.669302 
L 99.575392 279.439842 
L 103.560868 279.439842 
L 103.560868 279.325111 
L 106.114686 279.325111 
L 106.114686 279.210381 
L 110.527398 279.210381 
L 110.527398 279.095651 
L 113.382559 279.095651 
L 113.382559 278.98092 
L 117.288253 278.98092 
L 117.288253 278.86619 
L 122.126502 278.86619 
L 122.126502 278.75146 
L 122.657258 278.75146 
L 122.657258 278.636729 
L 124.311793 278.636729 
L 124.311793 278.521999 
L 132.565279 278.521999 
L 132.565279 278.407268 
L 132.765529 278.407268 
L 132.765529 278.292538 
L 135.947038 278.292538 
L 135.947038 278.177808 
L 137.352682 278.177808 
L 137.352682 278.063077 
L 137.945701 278.063077 
L 138.049816 277.833617 
L 139.817018 277.833617 
L 139.817018 277.718886 
L 142.599956 277.718886 
L 142.599956 277.604156 
L 144.522457 277.604156 
L 144.522457 277.489426 
L 147.072061 277.489426 
L 147.072061 277.374695 
L 149.067574 277.374695 
L 149.067574 277.259965 
L 156.448553 277.259965 
L 156.463607 277.030504 
L 157.739867 277.030504 
L 157.739867 276.915774 
L 160.907766 276.915774 
L 160.907766 276.801044 
L 161.643074 276.801044 
L 161.643074 276.686313 
L 165.043347 276.686313 
L 165.070924 276.342122 
L 167.530702 276.342122 
L 167.530702 276.227392 
L 168.392883 276.227392 
L 168.392883 276.112662 
L 168.861794 276.112662 
L 168.883952 275.883201 
L 172.143781 275.883201 
L 172.143781 275.768471 
L 172.991089 275.768471 
L 172.991089 275.65374 
L 173.618898 275.65374 
L 173.618898 275.53901 
L 181.116751 275.53901 
L 181.116751 275.42428 
L 183.632568 275.42428 
L 183.632568 275.309549 
L 186.168274 275.309549 
L 186.168274 275.194819 
L 188.089647 275.194819 
L 188.089647 275.080089 
L 192.541127 275.080089 
L 192.541127 274.965358 
L 196.504908 274.965358 
L 196.504908 274.850628 
L 338.688 274.850628 
L 338.688 274.850628 
" style="fill:none;stroke:#ff0000;stroke-linecap:square;stroke-width:1.5;"/>
   </g>
   <g id="line2d_51">
    <defs>
     <path d="M -6 6 
L 6 6 
L 6 -6 
L -6 -6 
z
" id="m634c5c74c7" style="stroke:#ff0000;stroke-linejoin:miter;stroke-width:1.5;"/>
    </defs>
    <g>
     <use style="fill-opacity:0;stroke:#ff0000;stroke-linejoin:miter;stroke-width:1.5;" x="149.067574" xlink:href="#m634c5c74c7" y="277.374695"/>
     <use style="fill-opacity:0;stroke:#ff0000;stroke-linejoin:miter;stroke-width:1.5;" x="196.504908" xlink:href="#m634c5c74c7" y="274.965358"/>
     <use style="fill-opacity:0;stroke:#ff0000;stroke-linejoin:miter;stroke-width:1.5;" x="196.504908" xlink:href="#m634c5c74c7" y="274.850628"/>
     <use style="fill-opacity:0;stroke:#ff0000;stroke-linejoin:miter;stroke-width:1.5;" x="196.504908" xlink:href="#m634c5c74c7" y="274.850628"/>
     <use style="fill-opacity:0;stroke:#ff0000;stroke-linejoin:miter;stroke-width:1.5;" x="338.688" xlink:href="#m634c5c74c7" y="274.850628"/>
    </g>
   </g>
   <g id="line2d_52">
    <path style="fill:none;stroke:#ff0000;stroke-linecap:square;stroke-width:1.5;"/>
    <g/>
   </g>
   <g id="line2d_53">
    <path clip-path="url(#pb43107e13a)" d="M 137.945701 277.948347 
" style="fill:none;stroke:#ff0000;stroke-linecap:square;stroke-width:1.5;"/>
    <defs>
     <path d="M -12 12 
L 12 -12 
M -12 -12 
L 12 12 
" id="m168e74b5bc" style="stroke:#ff0000;"/>
    </defs>
    <g clip-path="url(#pb43107e13a)">
     <use style="fill:#ff0000;stroke:#ff0000;" x="137.945701" xlink:href="#m168e74b5bc" y="277.948347"/>
    </g>
   </g>
   <g id="line2d_54">
    <defs>
     <path d="M 0 1.5 
C 0.397805 1.5 0.77937 1.341951 1.06066 1.06066 
C 1.341951 0.77937 1.5 0.397805 1.5 0 
C 1.5 -0.397805 1.341951 -0.77937 1.06066 -1.06066 
C 0.77937 -1.341951 0.397805 -1.5 0 -1.5 
C -0.397805 -1.5 -0.77937 -1.341951 -1.06066 -1.06066 
C -1.341951 -0.77937 -1.5 -0.397805 -1.5 0 
C -1.5 0.397805 -1.341951 0.77937 -1.06066 1.06066 
C -0.77937 1.341951 -0.397805 1.5 0 1.5 
z
" id="m0d77287e6e" style="stroke:#bf00bf;"/>
    </defs>
    <g>
     <use style="fill:#bf00bf;stroke:#bf00bf;" x="176.925892" xlink:href="#m0d77287e6e" y="278.292538"/>
     <use style="fill:#bf00bf;stroke:#bf00bf;" x="176.925892" xlink:href="#m0d77287e6e" y="278.292538"/>
    </g>
   </g>
   <g id="line2d_55">
    <path d="M -1 286.438393 
L 5.356583 286.438393 
L 5.356583 285.061628 
L 12.427603 285.061628 
L 12.427603 284.487977 
L 17.444571 284.487977 
L 17.444571 283.799595 
L 21.336035 283.799595 
L 21.336035 283.570134 
L 24.515591 283.570134 
L 24.515591 283.455404 
L 29.53256 283.455404 
L 29.53256 283.340673 
L 33.424023 283.340673 
L 33.424023 283.225943 
L 35.086164 283.225943 
L 35.086164 282.996482 
L 37.999467 282.996482 
L 37.999467 282.767022 
L 39.291857 282.767022 
L 39.291857 282.537561 
L 40.495043 282.537561 
L 40.495043 282.422831 
L 54.765787 282.422831 
L 54.765787 282.3081 
L 58.030621 282.3081 
L 58.030621 282.19337 
L 64.377916 282.19337 
L 64.377916 282.078639 
L 78.288531 282.078639 
L 78.288531 281.963909 
L 88.180446 281.963909 
L 88.180446 281.849179 
L 90.30983 281.849179 
L 90.30983 281.734448 
L 92.207273 281.734448 
L 92.207273 281.619718 
L 96.629923 281.619718 
L 96.629923 281.504988 
L 100.971279 281.504988 
L 100.971279 281.390257 
L 101.820418 281.390257 
L 101.820418 281.275527 
L 105.341933 281.275527 
L 105.341933 281.160797 
L 110.859585 281.160797 
L 110.859585 281.046066 
L 111.83924 281.046066 
L 111.83924 280.931336 
L 114.898492 280.931336 
L 114.898492 280.816606 
L 118.121498 280.816606 
L 118.121498 280.701875 
L 119.984656 280.701875 
L 119.984656 280.587145 
L 120.298669 280.587145 
L 120.298669 280.472415 
L 129.567223 280.472415 
L 129.567223 280.357684 
L 131.050017 280.357684 
L 131.050017 280.242954 
L 132.541568 280.242954 
L 132.541568 280.128224 
L 137.814676 280.128224 
L 137.814676 280.013493 
L 142.785553 280.013493 
L 142.785553 279.898763 
L 142.802028 279.898763 
L 142.802028 279.784033 
L 143.346746 279.784033 
L 143.346746 279.669302 
L 150.018454 279.669302 
L 150.018454 279.554572 
L 152.879755 279.554572 
L 152.879755 279.439842 
L 152.881603 279.439842 
L 152.881603 279.325111 
L 157.408084 279.325111 
L 157.408084 279.210381 
L 158.867558 279.210381 
L 158.867558 279.095651 
L 163.005043 279.095651 
L 163.005043 278.98092 
L 168.023821 278.98092 
L 168.023821 278.86619 
L 169.779541 278.86619 
L 169.779541 278.75146 
L 170.080543 278.75146 
L 170.080543 278.636729 
L 172.650668 278.636729 
L 172.650668 278.521999 
L 176.655241 278.521999 
L 176.655241 278.407268 
L 176.925892 278.407268 
L 176.925892 278.292538 
L 338.688 278.292538 
" style="fill:none;stroke:#bf00bf;stroke-linecap:square;stroke-width:1.5;"/>
   </g>
   <g id="line2d_56">
    <defs>
     <path d="M 0 8.485281 
L 8.485281 0 
L 0 -8.485281 
L -8.485281 0 
z
" id="m400e03c003" style="stroke:#bf00bf;stroke-linejoin:miter;stroke-width:1.5;"/>
    </defs>
    <g>
     <use style="fill-opacity:0;stroke:#bf00bf;stroke-linejoin:miter;stroke-width:1.5;" x="143.346746" xlink:href="#m400e03c003" y="279.784033"/>
     <use style="fill-opacity:0;stroke:#bf00bf;stroke-linejoin:miter;stroke-width:1.5;" x="176.925892" xlink:href="#m400e03c003" y="278.407268"/>
     <use style="fill-opacity:0;stroke:#bf00bf;stroke-linejoin:miter;stroke-width:1.5;" x="176.925892" xlink:href="#m400e03c003" y="278.292538"/>
     <use style="fill-opacity:0;stroke:#bf00bf;stroke-linejoin:miter;stroke-width:1.5;" x="176.925892" xlink:href="#m400e03c003" y="278.292538"/>
     <use style="fill-opacity:0;stroke:#bf00bf;stroke-linejoin:miter;stroke-width:1.5;" x="338.688" xlink:href="#m400e03c003" y="278.292538"/>
    </g>
   </g>
   <g id="line2d_57">
    <path style="fill:none;stroke:#bf00bf;stroke-linecap:square;stroke-width:1.5;"/>
    <g/>
   </g>
   <g id="line2d_58">
    <path clip-path="url(#pb43107e13a)" d="M 137.923932 280.013493 
" style="fill:none;stroke:#bf00bf;stroke-linecap:square;stroke-width:1.5;"/>
    <defs>
     <path d="M -12 12 
L 12 -12 
M -12 -12 
L 12 12 
" id="m210e8bc1b9" style="stroke:#bf00bf;"/>
    </defs>
    <g clip-path="url(#pb43107e13a)">
     <use style="fill:#bf00bf;stroke:#bf00bf;" x="137.923932" xlink:href="#m210e8bc1b9" y="280.013493"/>
    </g>
   </g>
   <g id="line2d_59">
    <path d="M 338.688 278.292538 
L 369.60768 293.092752 
" style="fill:none;stroke:#bf00bf;stroke-linecap:square;stroke-width:1.5;"/>
    <g>
     <use style="fill-opacity:0;stroke:#bf00bf;stroke-linejoin:miter;stroke-width:1.5;" x="338.688" xlink:href="#m400e03c003" y="278.292538"/>
     <use style="fill-opacity:0;stroke:#bf00bf;stroke-linejoin:miter;stroke-width:1.5;" x="369.60768" xlink:href="#m400e03c003" y="293.092752"/>
    </g>
   </g>
   <g id="line2d_60">
    <path d="M 338.688 274.850628 
L 369.60768 236.920776 
" style="fill:none;stroke:#ff0000;stroke-linecap:square;stroke-width:1.5;"/>
    <g>
     <use style="fill-opacity:0;stroke:#ff0000;stroke-linejoin:miter;stroke-width:1.5;" x="338.688" xlink:href="#m634c5c74c7" y="274.850628"/>
     <use style="fill-opacity:0;stroke:#ff0000;stroke-linejoin:miter;stroke-width:1.5;" x="369.60768" xlink:href="#m634c5c74c7" y="236.920776"/>
    </g>
   </g>
   <g id="line2d_61">
    <path d="M 338.688 270.261414 
L 369.60768 180.7488 
" style="fill:none;stroke:#000000;stroke-linecap:square;stroke-width:1.5;"/>
    <g>
     <use style="fill-opacity:0;stroke:#000000;stroke-width:1.5;" x="338.688" xlink:href="#m95a2890ce4" y="270.261414"/>
     <use style="fill-opacity:0;stroke:#000000;stroke-width:1.5;" x="369.60768" xlink:href="#m95a2890ce4" y="180.7488"/>
    </g>
   </g>
   <g id="line2d_62">
    <path d="M 338.688 255.346469 
L 369.60768 124.576824 
" style="fill:none;stroke:#0000ff;stroke-linecap:square;stroke-width:1.5;"/>
    <g>
     <use style="fill-opacity:0;stroke:#0000ff;stroke-linejoin:bevel;stroke-width:1.5;" x="338.688" xlink:href="#mc62b69ecaf" y="255.346469"/>
     <use style="fill-opacity:0;stroke:#0000ff;stroke-linejoin:bevel;stroke-width:1.5;" x="369.60768" xlink:href="#mc62b69ecaf" y="124.576824"/>
    </g>
   </g>
   <g id="line2d_63">
    <path d="M 338.688 233.547704 
L 369.60768 68.404848 
" style="fill:none;stroke:#008000;stroke-linecap:square;stroke-width:1.5;"/>
    <g>
     <use style="fill-opacity:0;stroke:#008000;stroke-linejoin:miter;stroke-width:1.5;" x="338.688" xlink:href="#m6fec0c2699" y="233.547704"/>
     <use style="fill-opacity:0;stroke:#008000;stroke-linejoin:miter;stroke-width:1.5;" x="369.60768" xlink:href="#m6fec0c2699" y="68.404848"/>
    </g>
   </g>
   <g id="line2d_64">
    <path d="M 338.688 215.190849 
L 369.60768 12.232871 
" style="fill:none;stroke:#00bfbf;stroke-linecap:square;stroke-width:1.5;"/>
    <g>
     <use style="fill-opacity:0;stroke:#00bfbf;stroke-width:1.5;" x="338.688" xlink:href="#m203f6a1fe9" y="215.190849"/>
     <use style="fill-opacity:0;stroke:#00bfbf;stroke-width:1.5;" x="369.60768" xlink:href="#m203f6a1fe9" y="12.232871"/>
    </g>
   </g>
   <g id="line2d_65">
    <path d="M 338.688 298.944 
L 338.688 6.381624 
" style="fill:none;stroke:#000000;stroke-linecap:square;stroke-width:1.5;"/>
   </g>
   <g id="patch_3">
    <path d="M 57.6 298.944 
L 57.6 3.456 
" style="fill:none;stroke:#000000;stroke-linecap:square;stroke-linejoin:miter;stroke-width:0.8;"/>
   </g>
   <g id="patch_4">
    <path d="M 338.688 298.944 
L 338.688 3.456 
" style="fill:none;stroke:#000000;stroke-linecap:square;stroke-linejoin:miter;stroke-width:0.8;"/>
   </g>
   <g id="patch_5">
    <path d="M 57.6 298.944 
L 338.688 298.944 
" style="fill:none;stroke:#000000;stroke-linecap:square;stroke-linejoin:miter;stroke-width:0.8;"/>
   </g>
   <g id="patch_6">
    <path d="M 57.6 3.456 
L 338.688 3.456 
" style="fill:none;stroke:#000000;stroke-linecap:square;stroke-linejoin:miter;stroke-width:0.8;"/>
   </g>
   <g id="text_13">
    <!-- 40-D -->
    <g transform="translate(375.22944 297.78369)scale(0.17 -0.17)">
     <defs>
      <path d="M 1259 4147 
L 1259 519 
L 2022 519 
Q 2988 519 3436 956 
Q 3884 1394 3884 2338 
Q 3884 3275 3436 3711 
Q 2988 4147 2022 4147 
L 1259 4147 
z
M 628 4666 
L 1925 4666 
Q 3281 4666 3915 4102 
Q 4550 3538 4550 2338 
Q 4550 1131 3912 565 
Q 3275 0 1925 0 
L 628 0 
L 628 4666 
z
" id="DejaVuSans-44" transform="scale(0.015625)"/>
     </defs>
     <use xlink:href="#DejaVuSans-34"/>
     <use x="63.623047" xlink:href="#DejaVuSans-30"/>
     <use x="127.246094" xlink:href="#DejaVuSans-2d"/>
     <use x="163.330078" xlink:href="#DejaVuSans-44"/>
    </g>
   </g>
   <g id="text_14">
    <!-- 20-D -->
    <g transform="translate(375.22944 241.611714)scale(0.17 -0.17)">
     <use xlink:href="#DejaVuSans-32"/>
     <use x="63.623047" xlink:href="#DejaVuSans-30"/>
     <use x="127.246094" xlink:href="#DejaVuSans-2d"/>
     <use x="163.330078" xlink:href="#DejaVuSans-44"/>
    </g>
   </g>
   <g id="text_15">
    <!-- 10-D -->
    <g transform="translate(375.22944 185.439737)scale(0.17 -0.17)">
     <use xlink:href="#DejaVuSans-31"/>
     <use x="63.623047" xlink:href="#DejaVuSans-30"/>
     <use x="127.246094" xlink:href="#DejaVuSans-2d"/>
     <use x="163.330078" xlink:href="#DejaVuSans-44"/>
    </g>
   </g>
   <g id="text_16">
    <!-- 5-D -->
    <g transform="translate(375.22944 129.267761)scale(0.17 -0.17)">
     <defs>
      <path d="M 691 4666 
L 3169 4666 
L 3169 4134 
L 1269 4134 
L 1269 2991 
Q 1406 3038 1543 3061 
Q 1681 3084 1819 3084 
Q 2600 3084 3056 2656 
Q 3513 2228 3513 1497 
Q 3513 744 3044 326 
Q 2575 -91 1722 -91 
Q 1428 -91 1123 -41 
Q 819 9 494 109 
L 494 744 
Q 775 591 1075 516 
Q 1375 441 1709 441 
Q 2250 441 2565 725 
Q 2881 1009 2881 1497 
Q 2881 1984 2565 2268 
Q 2250 2553 1709 2553 
Q 1456 2553 1204 2497 
Q 953 2441 691 2322 
L 691 4666 
z
" id="DejaVuSans-35" transform="scale(0.015625)"/>
     </defs>
     <use xlink:href="#DejaVuSans-35"/>
     <use x="63.623047" xlink:href="#DejaVuSans-2d"/>
     <use x="99.707031" xlink:href="#DejaVuSans-44"/>
    </g>
   </g>
   <g id="text_17">
    <!-- 3-D -->
    <g transform="translate(375.22944 73.095785)scale(0.17 -0.17)">
     <defs>
      <path d="M 2597 2516 
Q 3050 2419 3304 2112 
Q 3559 1806 3559 1356 
Q 3559 666 3084 287 
Q 2609 -91 1734 -91 
Q 1441 -91 1130 -33 
Q 819 25 488 141 
L 488 750 
Q 750 597 1062 519 
Q 1375 441 1716 441 
Q 2309 441 2620 675 
Q 2931 909 2931 1356 
Q 2931 1769 2642 2001 
Q 2353 2234 1838 2234 
L 1294 2234 
L 1294 2753 
L 1863 2753 
Q 2328 2753 2575 2939 
Q 2822 3125 2822 3475 
Q 2822 3834 2567 4026 
Q 2313 4219 1838 4219 
Q 1578 4219 1281 4162 
Q 984 4106 628 3988 
L 628 4550 
Q 988 4650 1302 4700 
Q 1616 4750 1894 4750 
Q 2613 4750 3031 4423 
Q 3450 4097 3450 3541 
Q 3450 3153 3228 2886 
Q 3006 2619 2597 2516 
z
" id="DejaVuSans-33" transform="scale(0.015625)"/>
     </defs>
     <use xlink:href="#DejaVuSans-33"/>
     <use x="63.623047" xlink:href="#DejaVuSans-2d"/>
     <use x="99.707031" xlink:href="#DejaVuSans-44"/>
    </g>
   </g>
   <g id="text_18">
    <!-- 2-D -->
    <g transform="translate(375.22944 16.923809)scale(0.17 -0.17)">
     <use xlink:href="#DejaVuSans-32"/>
     <use x="63.623047" xlink:href="#DejaVuSans-2d"/>
     <use x="99.707031" xlink:href="#DejaVuSans-44"/>
    </g>
   </g>
   <g id="text_19">
    <!-- bbob f15-f19 -->
    <g transform="translate(60.41088 14.161286)scale(0.102 -0.102)">
     <defs>
      <path d="M 3116 1747 
Q 3116 2381 2855 2742 
Q 2594 3103 2138 3103 
Q 1681 3103 1420 2742 
Q 1159 2381 1159 1747 
Q 1159 1113 1420 752 
Q 1681 391 2138 391 
Q 2594 391 2855 752 
Q 3116 1113 3116 1747 
z
M 1159 2969 
Q 1341 3281 1617 3432 
Q 1894 3584 2278 3584 
Q 2916 3584 3314 3078 
Q 3713 2572 3713 1747 
Q 3713 922 3314 415 
Q 2916 -91 2278 -91 
Q 1894 -91 1617 61 
Q 1341 213 1159 525 
L 1159 0 
L 581 0 
L 581 4863 
L 1159 4863 
L 1159 2969 
z
" id="DejaVuSans-62" transform="scale(0.015625)"/>
      <path d="M 703 97 
L 703 672 
Q 941 559 1184 500 
Q 1428 441 1663 441 
Q 2288 441 2617 861 
Q 2947 1281 2994 2138 
Q 2813 1869 2534 1725 
Q 2256 1581 1919 1581 
Q 1219 1581 811 2004 
Q 403 2428 403 3163 
Q 403 3881 828 4315 
Q 1253 4750 1959 4750 
Q 2769 4750 3195 4129 
Q 3622 3509 3622 2328 
Q 3622 1225 3098 567 
Q 2575 -91 1691 -91 
Q 1453 -91 1209 -44 
Q 966 3 703 97 
z
M 1959 2075 
Q 2384 2075 2632 2365 
Q 2881 2656 2881 3163 
Q 2881 3666 2632 3958 
Q 2384 4250 1959 4250 
Q 1534 4250 1286 3958 
Q 1038 3666 1038 3163 
Q 1038 2656 1286 2365 
Q 1534 2075 1959 2075 
z
" id="DejaVuSans-39" transform="scale(0.015625)"/>
     </defs>
     <use xlink:href="#DejaVuSans-62"/>
     <use x="63.476562" xlink:href="#DejaVuSans-62"/>
     <use x="126.953125" xlink:href="#DejaVuSans-6f"/>
     <use x="188.134766" xlink:href="#DejaVuSans-62"/>
     <use x="251.611328" xlink:href="#DejaVuSans-20"/>
     <use x="283.398438" xlink:href="#DejaVuSans-66"/>
     <use x="318.603516" xlink:href="#DejaVuSans-31"/>
     <use x="382.226562" xlink:href="#DejaVuSans-35"/>
     <use x="445.849609" xlink:href="#DejaVuSans-2d"/>
     <use x="481.933594" xlink:href="#DejaVuSans-66"/>
     <use x="517.138672" xlink:href="#DejaVuSans-31"/>
     <use x="580.761719" xlink:href="#DejaVuSans-39"/>
    </g>
    <!-- 51 targets: 100..1e-08 -->
    <g transform="translate(60.41088 25.583055)scale(0.102 -0.102)">
     <defs>
      <path d="M 750 794 
L 1409 794 
L 1409 0 
L 750 0 
L 750 794 
z
M 750 3309 
L 1409 3309 
L 1409 2516 
L 750 2516 
L 750 3309 
z
" id="DejaVuSans-3a" transform="scale(0.015625)"/>
     </defs>
     <use xlink:href="#DejaVuSans-35"/>
     <use x="63.623047" xlink:href="#DejaVuSans-31"/>
     <use x="127.246094" xlink:href="#DejaVuSans-20"/>
     <use x="159.033203" xlink:href="#DejaVuSans-74"/>
     <use x="198.242188" xlink:href="#DejaVuSans-61"/>
     <use x="259.521484" xlink:href="#DejaVuSans-72"/>
     <use x="298.884766" xlink:href="#DejaVuSans-67"/>
     <use x="362.361328" xlink:href="#DejaVuSans-65"/>
     <use x="423.884766" xlink:href="#DejaVuSans-74"/>
     <use x="463.09375" xlink:href="#DejaVuSans-73"/>
     <use x="515.193359" xlink:href="#DejaVuSans-3a"/>
     <use x="548.884766" xlink:href="#DejaVuSans-20"/>
     <use x="580.671875" xlink:href="#DejaVuSans-31"/>
     <use x="644.294922" xlink:href="#DejaVuSans-30"/>
     <use x="707.917969" xlink:href="#DejaVuSans-30"/>
     <use x="771.541016" xlink:href="#DejaVuSans-2e"/>
     <use x="803.328125" xlink:href="#DejaVuSans-2e"/>
     <use x="835.115234" xlink:href="#DejaVuSans-31"/>
     <use x="898.738281" xlink:href="#DejaVuSans-65"/>
     <use x="960.261719" xlink:href="#DejaVuSans-2d"/>
     <use x="996.345703" xlink:href="#DejaVuSans-30"/>
     <use x="1059.96875" xlink:href="#DejaVuSans-38"/>
    </g>
    <!-- 15 instances -->
    <g transform="translate(60.41088 37.004824)scale(0.102 -0.102)">
     <use xlink:href="#DejaVuSans-31"/>
     <use x="63.623047" xlink:href="#DejaVuSans-35"/>
     <use x="127.246094" xlink:href="#DejaVuSans-20"/>
     <use x="159.033203" xlink:href="#DejaVuSans-69"/>
     <use x="186.816406" xlink:href="#DejaVuSans-6e"/>
     <use x="250.195312" xlink:href="#DejaVuSans-73"/>
     <use x="302.294922" xlink:href="#DejaVuSans-74"/>
     <use x="341.503906" xlink:href="#DejaVuSans-61"/>
     <use x="402.783203" xlink:href="#DejaVuSans-6e"/>
     <use x="466.162109" xlink:href="#DejaVuSans-63"/>
     <use x="521.142578" xlink:href="#DejaVuSans-65"/>
     <use x="582.666016" xlink:href="#DejaVuSans-73"/>
    </g>
   </g>
   <g id="text_20">
    <!-- v2.4 -->
    <g style="fill:#808080;" transform="translate(187.233062 293.909432)scale(0.1 -0.1)">
     <use xlink:href="#DejaVuSans-76"/>
     <use x="59.179688" xlink:href="#DejaVuSans-32"/>
     <use x="122.802734" xlink:href="#DejaVuSans-2e"/>
     <use x="154.589844" xlink:href="#DejaVuSans-34"/>
    </g>
   </g>
  </g>
 </g>
 <defs>
  <clipPath id="pb43107e13a">
   <rect height="295.488" width="281.088" x="57.6" y="3.456"/>
  </clipPath>
 </defs>
</svg>
