<?xml version="1.0" encoding="utf-8" standalone="no"?>
<!DOCTYPE svg PUBLIC "-//W3C//DTD SVG 1.1//EN"
  "http://www.w3.org/Graphics/SVG/1.1/DTD/svg11.dtd">
<svg height="345.6pt" version="1.1" viewBox="0 0 460.8 345.6" width="460.8pt" xmlns="http://www.w3.org/2000/svg" xmlns:xlink="http://www.w3.org/1999/xlink">
 <metadata>
  <rdf:RDF xmlns:cc="http://creativecommons.org/ns#" xmlns:dc="http://purl.org/dc/elements/1.1/" xmlns:rdf="http://www.w3.org/1999/02/22-rdf-syntax-ns#">
   <cc:Work>
    <dc:type rdf:resource="http://purl.org/dc/dcmitype/StillImage"/>
    <dc:date>2021-06-14T12:33:47.233621</dc:date>
    <dc:format>image/svg+xml</dc:format>
    <dc:creator>
     <cc:Agent>
      <dc:title>Matplotlib v3.4.2, https://matplotlib.org/</dc:title>
     </cc:Agent>
    </dc:creator>
   </cc:Work>
  </rdf:RDF>
 </metadata>
 <defs>
  <style type="text/css">*{stroke-linecap:butt;stroke-linejoin:round;}</style>
 </defs>
 <g id="figure_1">
  <g id="patch_1">
   <path d="M 0 345.6 
L 460.8 345.6 
L 460.8 0 
L 0 0 
z
" style="fill:#ffffff;"/>
  </g>
  <g id="axes_1">
   <g id="patch_2">
    <path d="M 57.6 298.944 
L 338.688 298.944 
L 338.688 3.456 
L 57.6 3.456 
z
" style="fill:#ffffff;"/>
   </g>
   <g id="matplotlib.axis_1">
    <g id="xtick_1">
     <g id="line2d_1">
      <path clip-path="url(#p7c77badbbf)" d="M 57.6 298.944 
L 57.6 3.456 
" style="fill:none;stroke:#b0b0b0;stroke-linecap:square;stroke-width:0.8;"/>
     </g>
     <g id="line2d_2">
      <defs>
       <path d="M 0 0 
L 0 3.5 
" id="m01603451f8" style="stroke:#000000;stroke-width:0.8;"/>
      </defs>
      <g>
       <use style="stroke:#000000;stroke-width:0.8;" x="57.6" xlink:href="#m01603451f8" y="298.944"/>
      </g>
     </g>
     <g id="text_1">
      <!-- 0 -->
      <g transform="translate(51.2375 321.140875)scale(0.2 -0.2)">
       <defs>
        <path d="M 2034 4250 
Q 1547 4250 1301 3770 
Q 1056 3291 1056 2328 
Q 1056 1369 1301 889 
Q 1547 409 2034 409 
Q 2525 409 2770 889 
Q 3016 1369 3016 2328 
Q 3016 3291 2770 3770 
Q 2525 4250 2034 4250 
z
M 2034 4750 
Q 2819 4750 3233 4129 
Q 3647 3509 3647 2328 
Q 3647 1150 3233 529 
Q 2819 -91 2034 -91 
Q 1250 -91 836 529 
Q 422 1150 422 2328 
Q 422 3509 836 4129 
Q 1250 4750 2034 4750 
z
" id="DejaVuSans-30" transform="scale(0.015625)"/>
       </defs>
       <use xlink:href="#DejaVuSans-30"/>
      </g>
     </g>
    </g>
    <g id="xtick_2">
     <g id="line2d_3">
      <path clip-path="url(#p7c77badbbf)" d="M 137.910857 298.944 
L 137.910857 3.456 
" style="fill:none;stroke:#b0b0b0;stroke-linecap:square;stroke-width:0.8;"/>
     </g>
     <g id="line2d_4">
      <g>
       <use style="stroke:#000000;stroke-width:0.8;" x="137.910857" xlink:href="#m01603451f8" y="298.944"/>
      </g>
     </g>
     <g id="text_2">
      <!-- 2 -->
      <g transform="translate(131.548357 321.140875)scale(0.2 -0.2)">
       <defs>
        <path d="M 1228 531 
L 3431 531 
L 3431 0 
L 469 0 
L 469 531 
Q 828 903 1448 1529 
Q 2069 2156 2228 2338 
Q 2531 2678 2651 2914 
Q 2772 3150 2772 3378 
Q 2772 3750 2511 3984 
Q 2250 4219 1831 4219 
Q 1534 4219 1204 4116 
Q 875 4013 500 3803 
L 500 4441 
Q 881 4594 1212 4672 
Q 1544 4750 1819 4750 
Q 2544 4750 2975 4387 
Q 3406 4025 3406 3419 
Q 3406 3131 3298 2873 
Q 3191 2616 2906 2266 
Q 2828 2175 2409 1742 
Q 1991 1309 1228 531 
z
" id="DejaVuSans-32" transform="scale(0.015625)"/>
       </defs>
       <use xlink:href="#DejaVuSans-32"/>
      </g>
     </g>
    </g>
    <g id="xtick_3">
     <g id="line2d_5">
      <path clip-path="url(#p7c77badbbf)" d="M 218.221714 298.944 
L 218.221714 3.456 
" style="fill:none;stroke:#b0b0b0;stroke-linecap:square;stroke-width:0.8;"/>
     </g>
     <g id="line2d_6">
      <g>
       <use style="stroke:#000000;stroke-width:0.8;" x="218.221714" xlink:href="#m01603451f8" y="298.944"/>
      </g>
     </g>
     <g id="text_3">
      <!-- 4 -->
      <g transform="translate(211.859214 321.140875)scale(0.2 -0.2)">
       <defs>
        <path d="M 2419 4116 
L 825 1625 
L 2419 1625 
L 2419 4116 
z
M 2253 4666 
L 3047 4666 
L 3047 1625 
L 3713 1625 
L 3713 1100 
L 3047 1100 
L 3047 0 
L 2419 0 
L 2419 1100 
L 313 1100 
L 313 1709 
L 2253 4666 
z
" id="DejaVuSans-34" transform="scale(0.015625)"/>
       </defs>
       <use xlink:href="#DejaVuSans-34"/>
      </g>
     </g>
    </g>
    <g id="xtick_4">
     <g id="line2d_7">
      <path clip-path="url(#p7c77badbbf)" d="M 298.532571 298.944 
L 298.532571 3.456 
" style="fill:none;stroke:#b0b0b0;stroke-linecap:square;stroke-width:0.8;"/>
     </g>
     <g id="line2d_8">
      <g>
       <use style="stroke:#000000;stroke-width:0.8;" x="298.532571" xlink:href="#m01603451f8" y="298.944"/>
      </g>
     </g>
     <g id="text_4">
      <!-- 6 -->
      <g transform="translate(292.170071 321.140875)scale(0.2 -0.2)">
       <defs>
        <path d="M 2113 2584 
Q 1688 2584 1439 2293 
Q 1191 2003 1191 1497 
Q 1191 994 1439 701 
Q 1688 409 2113 409 
Q 2538 409 2786 701 
Q 3034 994 3034 1497 
Q 3034 2003 2786 2293 
Q 2538 2584 2113 2584 
z
M 3366 4563 
L 3366 3988 
Q 3128 4100 2886 4159 
Q 2644 4219 2406 4219 
Q 1781 4219 1451 3797 
Q 1122 3375 1075 2522 
Q 1259 2794 1537 2939 
Q 1816 3084 2150 3084 
Q 2853 3084 3261 2657 
Q 3669 2231 3669 1497 
Q 3669 778 3244 343 
Q 2819 -91 2113 -91 
Q 1303 -91 875 529 
Q 447 1150 447 2328 
Q 447 3434 972 4092 
Q 1497 4750 2381 4750 
Q 2619 4750 2861 4703 
Q 3103 4656 3366 4563 
z
" id="DejaVuSans-36" transform="scale(0.015625)"/>
       </defs>
       <use xlink:href="#DejaVuSans-36"/>
      </g>
     </g>
    </g>
    <g id="xtick_5">
     <g id="line2d_9">
      <path clip-path="url(#p7c77badbbf)" d="M 97.755429 298.944 
L 97.755429 3.456 
" style="fill:none;stroke:#b0b0b0;stroke-linecap:square;stroke-width:0.8;"/>
     </g>
     <g id="line2d_10">
      <defs>
       <path d="M 0 0 
L 0 2 
" id="md9096e27d2" style="stroke:#000000;stroke-width:0.6;"/>
      </defs>
      <g>
       <use style="stroke:#000000;stroke-width:0.6;" x="97.755429" xlink:href="#md9096e27d2" y="298.944"/>
      </g>
     </g>
    </g>
    <g id="xtick_6">
     <g id="line2d_11">
      <path clip-path="url(#p7c77badbbf)" d="M 178.066286 298.944 
L 178.066286 3.456 
" style="fill:none;stroke:#b0b0b0;stroke-linecap:square;stroke-width:0.8;"/>
     </g>
     <g id="line2d_12">
      <g>
       <use style="stroke:#000000;stroke-width:0.6;" x="178.066286" xlink:href="#md9096e27d2" y="298.944"/>
      </g>
     </g>
    </g>
    <g id="xtick_7">
     <g id="line2d_13">
      <path clip-path="url(#p7c77badbbf)" d="M 258.377143 298.944 
L 258.377143 3.456 
" style="fill:none;stroke:#b0b0b0;stroke-linecap:square;stroke-width:0.8;"/>
     </g>
     <g id="line2d_14">
      <g>
       <use style="stroke:#000000;stroke-width:0.6;" x="258.377143" xlink:href="#md9096e27d2" y="298.944"/>
      </g>
     </g>
    </g>
    <g id="xtick_8">
     <g id="line2d_15">
      <path clip-path="url(#p7c77badbbf)" d="M 338.688 298.944 
L 338.688 3.456 
" style="fill:none;stroke:#b0b0b0;stroke-linecap:square;stroke-width:0.8;"/>
     </g>
     <g id="line2d_16">
      <g>
       <use style="stroke:#000000;stroke-width:0.6;" x="338.688" xlink:href="#md9096e27d2" y="298.944"/>
      </g>
     </g>
    </g>
    <g id="text_5">
     <!-- log10(# f-evals / dimension) -->
     <g transform="translate(77.764078 342.217594)scale(0.17 -0.17)">
      <defs>
       <path d="M 603 4863 
L 1178 4863 
L 1178 0 
L 603 0 
L 603 4863 
z
" id="DejaVuSans-6c" transform="scale(0.015625)"/>
       <path d="M 1959 3097 
Q 1497 3097 1228 2736 
Q 959 2375 959 1747 
Q 959 1119 1226 758 
Q 1494 397 1959 397 
Q 2419 397 2687 759 
Q 2956 1122 2956 1747 
Q 2956 2369 2687 2733 
Q 2419 3097 1959 3097 
z
M 1959 3584 
Q 2709 3584 3137 3096 
Q 3566 2609 3566 1747 
Q 3566 888 3137 398 
Q 2709 -91 1959 -91 
Q 1206 -91 779 398 
Q 353 888 353 1747 
Q 353 2609 779 3096 
Q 1206 3584 1959 3584 
z
" id="DejaVuSans-6f" transform="scale(0.015625)"/>
       <path d="M 2906 1791 
Q 2906 2416 2648 2759 
Q 2391 3103 1925 3103 
Q 1463 3103 1205 2759 
Q 947 2416 947 1791 
Q 947 1169 1205 825 
Q 1463 481 1925 481 
Q 2391 481 2648 825 
Q 2906 1169 2906 1791 
z
M 3481 434 
Q 3481 -459 3084 -895 
Q 2688 -1331 1869 -1331 
Q 1566 -1331 1297 -1286 
Q 1028 -1241 775 -1147 
L 775 -588 
Q 1028 -725 1275 -790 
Q 1522 -856 1778 -856 
Q 2344 -856 2625 -561 
Q 2906 -266 2906 331 
L 2906 616 
Q 2728 306 2450 153 
Q 2172 0 1784 0 
Q 1141 0 747 490 
Q 353 981 353 1791 
Q 353 2603 747 3093 
Q 1141 3584 1784 3584 
Q 2172 3584 2450 3431 
Q 2728 3278 2906 2969 
L 2906 3500 
L 3481 3500 
L 3481 434 
z
" id="DejaVuSans-67" transform="scale(0.015625)"/>
       <path d="M 794 531 
L 1825 531 
L 1825 4091 
L 703 3866 
L 703 4441 
L 1819 4666 
L 2450 4666 
L 2450 531 
L 3481 531 
L 3481 0 
L 794 0 
L 794 531 
z
" id="DejaVuSans-31" transform="scale(0.015625)"/>
       <path d="M 1984 4856 
Q 1566 4138 1362 3434 
Q 1159 2731 1159 2009 
Q 1159 1288 1364 580 
Q 1569 -128 1984 -844 
L 1484 -844 
Q 1016 -109 783 600 
Q 550 1309 550 2009 
Q 550 2706 781 3412 
Q 1013 4119 1484 4856 
L 1984 4856 
z
" id="DejaVuSans-28" transform="scale(0.015625)"/>
       <path d="M 3272 2816 
L 2363 2816 
L 2100 1772 
L 3016 1772 
L 3272 2816 
z
M 2803 4594 
L 2478 3297 
L 3391 3297 
L 3719 4594 
L 4219 4594 
L 3897 3297 
L 4872 3297 
L 4872 2816 
L 3775 2816 
L 3519 1772 
L 4513 1772 
L 4513 1294 
L 3397 1294 
L 3072 0 
L 2572 0 
L 2894 1294 
L 1978 1294 
L 1656 0 
L 1153 0 
L 1478 1294 
L 494 1294 
L 494 1772 
L 1594 1772 
L 1856 2816 
L 850 2816 
L 850 3297 
L 1978 3297 
L 2297 4594 
L 2803 4594 
z
" id="DejaVuSans-23" transform="scale(0.015625)"/>
       <path id="DejaVuSans-20" transform="scale(0.015625)"/>
       <path d="M 2375 4863 
L 2375 4384 
L 1825 4384 
Q 1516 4384 1395 4259 
Q 1275 4134 1275 3809 
L 1275 3500 
L 2222 3500 
L 2222 3053 
L 1275 3053 
L 1275 0 
L 697 0 
L 697 3053 
L 147 3053 
L 147 3500 
L 697 3500 
L 697 3744 
Q 697 4328 969 4595 
Q 1241 4863 1831 4863 
L 2375 4863 
z
" id="DejaVuSans-66" transform="scale(0.015625)"/>
       <path d="M 313 2009 
L 1997 2009 
L 1997 1497 
L 313 1497 
L 313 2009 
z
" id="DejaVuSans-2d" transform="scale(0.015625)"/>
       <path d="M 3597 1894 
L 3597 1613 
L 953 1613 
Q 991 1019 1311 708 
Q 1631 397 2203 397 
Q 2534 397 2845 478 
Q 3156 559 3463 722 
L 3463 178 
Q 3153 47 2828 -22 
Q 2503 -91 2169 -91 
Q 1331 -91 842 396 
Q 353 884 353 1716 
Q 353 2575 817 3079 
Q 1281 3584 2069 3584 
Q 2775 3584 3186 3129 
Q 3597 2675 3597 1894 
z
M 3022 2063 
Q 3016 2534 2758 2815 
Q 2500 3097 2075 3097 
Q 1594 3097 1305 2825 
Q 1016 2553 972 2059 
L 3022 2063 
z
" id="DejaVuSans-65" transform="scale(0.015625)"/>
       <path d="M 191 3500 
L 800 3500 
L 1894 563 
L 2988 3500 
L 3597 3500 
L 2284 0 
L 1503 0 
L 191 3500 
z
" id="DejaVuSans-76" transform="scale(0.015625)"/>
       <path d="M 2194 1759 
Q 1497 1759 1228 1600 
Q 959 1441 959 1056 
Q 959 750 1161 570 
Q 1363 391 1709 391 
Q 2188 391 2477 730 
Q 2766 1069 2766 1631 
L 2766 1759 
L 2194 1759 
z
M 3341 1997 
L 3341 0 
L 2766 0 
L 2766 531 
Q 2569 213 2275 61 
Q 1981 -91 1556 -91 
Q 1019 -91 701 211 
Q 384 513 384 1019 
Q 384 1609 779 1909 
Q 1175 2209 1959 2209 
L 2766 2209 
L 2766 2266 
Q 2766 2663 2505 2880 
Q 2244 3097 1772 3097 
Q 1472 3097 1187 3025 
Q 903 2953 641 2809 
L 641 3341 
Q 956 3463 1253 3523 
Q 1550 3584 1831 3584 
Q 2591 3584 2966 3190 
Q 3341 2797 3341 1997 
z
" id="DejaVuSans-61" transform="scale(0.015625)"/>
       <path d="M 2834 3397 
L 2834 2853 
Q 2591 2978 2328 3040 
Q 2066 3103 1784 3103 
Q 1356 3103 1142 2972 
Q 928 2841 928 2578 
Q 928 2378 1081 2264 
Q 1234 2150 1697 2047 
L 1894 2003 
Q 2506 1872 2764 1633 
Q 3022 1394 3022 966 
Q 3022 478 2636 193 
Q 2250 -91 1575 -91 
Q 1294 -91 989 -36 
Q 684 19 347 128 
L 347 722 
Q 666 556 975 473 
Q 1284 391 1588 391 
Q 1994 391 2212 530 
Q 2431 669 2431 922 
Q 2431 1156 2273 1281 
Q 2116 1406 1581 1522 
L 1381 1569 
Q 847 1681 609 1914 
Q 372 2147 372 2553 
Q 372 3047 722 3315 
Q 1072 3584 1716 3584 
Q 2034 3584 2315 3537 
Q 2597 3491 2834 3397 
z
" id="DejaVuSans-73" transform="scale(0.015625)"/>
       <path d="M 1625 4666 
L 2156 4666 
L 531 -594 
L 0 -594 
L 1625 4666 
z
" id="DejaVuSans-2f" transform="scale(0.015625)"/>
       <path d="M 2906 2969 
L 2906 4863 
L 3481 4863 
L 3481 0 
L 2906 0 
L 2906 525 
Q 2725 213 2448 61 
Q 2172 -91 1784 -91 
Q 1150 -91 751 415 
Q 353 922 353 1747 
Q 353 2572 751 3078 
Q 1150 3584 1784 3584 
Q 2172 3584 2448 3432 
Q 2725 3281 2906 2969 
z
M 947 1747 
Q 947 1113 1208 752 
Q 1469 391 1925 391 
Q 2381 391 2643 752 
Q 2906 1113 2906 1747 
Q 2906 2381 2643 2742 
Q 2381 3103 1925 3103 
Q 1469 3103 1208 2742 
Q 947 2381 947 1747 
z
" id="DejaVuSans-64" transform="scale(0.015625)"/>
       <path d="M 603 3500 
L 1178 3500 
L 1178 0 
L 603 0 
L 603 3500 
z
M 603 4863 
L 1178 4863 
L 1178 4134 
L 603 4134 
L 603 4863 
z
" id="DejaVuSans-69" transform="scale(0.015625)"/>
       <path d="M 3328 2828 
Q 3544 3216 3844 3400 
Q 4144 3584 4550 3584 
Q 5097 3584 5394 3201 
Q 5691 2819 5691 2113 
L 5691 0 
L 5113 0 
L 5113 2094 
Q 5113 2597 4934 2840 
Q 4756 3084 4391 3084 
Q 3944 3084 3684 2787 
Q 3425 2491 3425 1978 
L 3425 0 
L 2847 0 
L 2847 2094 
Q 2847 2600 2669 2842 
Q 2491 3084 2119 3084 
Q 1678 3084 1418 2786 
Q 1159 2488 1159 1978 
L 1159 0 
L 581 0 
L 581 3500 
L 1159 3500 
L 1159 2956 
Q 1356 3278 1631 3431 
Q 1906 3584 2284 3584 
Q 2666 3584 2933 3390 
Q 3200 3197 3328 2828 
z
" id="DejaVuSans-6d" transform="scale(0.015625)"/>
       <path d="M 3513 2113 
L 3513 0 
L 2938 0 
L 2938 2094 
Q 2938 2591 2744 2837 
Q 2550 3084 2163 3084 
Q 1697 3084 1428 2787 
Q 1159 2491 1159 1978 
L 1159 0 
L 581 0 
L 581 3500 
L 1159 3500 
L 1159 2956 
Q 1366 3272 1645 3428 
Q 1925 3584 2291 3584 
Q 2894 3584 3203 3211 
Q 3513 2838 3513 2113 
z
" id="DejaVuSans-6e" transform="scale(0.015625)"/>
       <path d="M 513 4856 
L 1013 4856 
Q 1481 4119 1714 3412 
Q 1947 2706 1947 2009 
Q 1947 1309 1714 600 
Q 1481 -109 1013 -844 
L 513 -844 
Q 928 -128 1133 580 
Q 1338 1288 1338 2009 
Q 1338 2731 1133 3434 
Q 928 4138 513 4856 
z
" id="DejaVuSans-29" transform="scale(0.015625)"/>
      </defs>
      <use xlink:href="#DejaVuSans-6c"/>
      <use x="27.783203" xlink:href="#DejaVuSans-6f"/>
      <use x="88.964844" xlink:href="#DejaVuSans-67"/>
      <use x="152.441406" xlink:href="#DejaVuSans-31"/>
      <use x="216.064453" xlink:href="#DejaVuSans-30"/>
      <use x="279.6875" xlink:href="#DejaVuSans-28"/>
      <use x="318.701172" xlink:href="#DejaVuSans-23"/>
      <use x="402.490234" xlink:href="#DejaVuSans-20"/>
      <use x="434.277344" xlink:href="#DejaVuSans-66"/>
      <use x="463.982422" xlink:href="#DejaVuSans-2d"/>
      <use x="500.066406" xlink:href="#DejaVuSans-65"/>
      <use x="561.589844" xlink:href="#DejaVuSans-76"/>
      <use x="620.769531" xlink:href="#DejaVuSans-61"/>
      <use x="682.048828" xlink:href="#DejaVuSans-6c"/>
      <use x="709.832031" xlink:href="#DejaVuSans-73"/>
      <use x="761.931641" xlink:href="#DejaVuSans-20"/>
      <use x="793.71875" xlink:href="#DejaVuSans-2f"/>
      <use x="827.410156" xlink:href="#DejaVuSans-20"/>
      <use x="859.197266" xlink:href="#DejaVuSans-64"/>
      <use x="922.673828" xlink:href="#DejaVuSans-69"/>
      <use x="950.457031" xlink:href="#DejaVuSans-6d"/>
      <use x="1047.869141" xlink:href="#DejaVuSans-65"/>
      <use x="1109.392578" xlink:href="#DejaVuSans-6e"/>
      <use x="1172.771484" xlink:href="#DejaVuSans-73"/>
      <use x="1224.871094" xlink:href="#DejaVuSans-69"/>
      <use x="1252.654297" xlink:href="#DejaVuSans-6f"/>
      <use x="1313.835938" xlink:href="#DejaVuSans-6e"/>
      <use x="1377.214844" xlink:href="#DejaVuSans-29"/>
     </g>
    </g>
   </g>
   <g id="matplotlib.axis_2">
    <g id="ytick_1">
     <g id="line2d_17">
      <path clip-path="url(#p7c77badbbf)" d="M 57.6 298.944 
L 338.688 298.944 
" style="fill:none;stroke:#b0b0b0;stroke-linecap:square;stroke-width:0.8;"/>
     </g>
     <g id="line2d_18">
      <defs>
       <path d="M 0 0 
L -3.5 0 
" id="meffb58ae0a" style="stroke:#000000;stroke-width:0.8;"/>
      </defs>
      <g>
       <use style="stroke:#000000;stroke-width:0.8;" x="57.6" xlink:href="#meffb58ae0a" y="298.944"/>
      </g>
     </g>
     <g id="text_6">
      <!-- 0.0 -->
      <g transform="translate(25.155 305.02275)scale(0.16 -0.16)">
       <defs>
        <path d="M 684 794 
L 1344 794 
L 1344 0 
L 684 0 
L 684 794 
z
" id="DejaVuSans-2e" transform="scale(0.015625)"/>
       </defs>
       <use xlink:href="#DejaVuSans-30"/>
       <use x="63.623047" xlink:href="#DejaVuSans-2e"/>
       <use x="95.410156" xlink:href="#DejaVuSans-30"/>
      </g>
     </g>
    </g>
    <g id="ytick_2">
     <g id="line2d_19">
      <path clip-path="url(#p7c77badbbf)" d="M 57.6 240.431525 
L 338.688 240.431525 
" style="fill:none;stroke:#b0b0b0;stroke-linecap:square;stroke-width:0.8;"/>
     </g>
     <g id="line2d_20">
      <g>
       <use style="stroke:#000000;stroke-width:0.8;" x="57.6" xlink:href="#meffb58ae0a" y="240.431525"/>
      </g>
     </g>
     <g id="text_7">
      <!-- 0.2 -->
      <g transform="translate(25.155 246.510275)scale(0.16 -0.16)">
       <use xlink:href="#DejaVuSans-30"/>
       <use x="63.623047" xlink:href="#DejaVuSans-2e"/>
       <use x="95.410156" xlink:href="#DejaVuSans-32"/>
      </g>
     </g>
    </g>
    <g id="ytick_3">
     <g id="line2d_21">
      <path clip-path="url(#p7c77badbbf)" d="M 57.6 181.91905 
L 338.688 181.91905 
" style="fill:none;stroke:#b0b0b0;stroke-linecap:square;stroke-width:0.8;"/>
     </g>
     <g id="line2d_22">
      <g>
       <use style="stroke:#000000;stroke-width:0.8;" x="57.6" xlink:href="#meffb58ae0a" y="181.91905"/>
      </g>
     </g>
     <g id="text_8">
      <!-- 0.4 -->
      <g transform="translate(25.155 187.9978)scale(0.16 -0.16)">
       <use xlink:href="#DejaVuSans-30"/>
       <use x="63.623047" xlink:href="#DejaVuSans-2e"/>
       <use x="95.410156" xlink:href="#DejaVuSans-34"/>
      </g>
     </g>
    </g>
    <g id="ytick_4">
     <g id="line2d_23">
      <path clip-path="url(#p7c77badbbf)" d="M 57.6 123.406574 
L 338.688 123.406574 
" style="fill:none;stroke:#b0b0b0;stroke-linecap:square;stroke-width:0.8;"/>
     </g>
     <g id="line2d_24">
      <g>
       <use style="stroke:#000000;stroke-width:0.8;" x="57.6" xlink:href="#meffb58ae0a" y="123.406574"/>
      </g>
     </g>
     <g id="text_9">
      <!-- 0.6 -->
      <g transform="translate(25.155 129.485324)scale(0.16 -0.16)">
       <use xlink:href="#DejaVuSans-30"/>
       <use x="63.623047" xlink:href="#DejaVuSans-2e"/>
       <use x="95.410156" xlink:href="#DejaVuSans-36"/>
      </g>
     </g>
    </g>
    <g id="ytick_5">
     <g id="line2d_25">
      <path clip-path="url(#p7c77badbbf)" d="M 57.6 64.894099 
L 338.688 64.894099 
" style="fill:none;stroke:#b0b0b0;stroke-linecap:square;stroke-width:0.8;"/>
     </g>
     <g id="line2d_26">
      <g>
       <use style="stroke:#000000;stroke-width:0.8;" x="57.6" xlink:href="#meffb58ae0a" y="64.894099"/>
      </g>
     </g>
     <g id="text_10">
      <!-- 0.8 -->
      <g transform="translate(25.155 70.972849)scale(0.16 -0.16)">
       <defs>
        <path d="M 2034 2216 
Q 1584 2216 1326 1975 
Q 1069 1734 1069 1313 
Q 1069 891 1326 650 
Q 1584 409 2034 409 
Q 2484 409 2743 651 
Q 3003 894 3003 1313 
Q 3003 1734 2745 1975 
Q 2488 2216 2034 2216 
z
M 1403 2484 
Q 997 2584 770 2862 
Q 544 3141 544 3541 
Q 544 4100 942 4425 
Q 1341 4750 2034 4750 
Q 2731 4750 3128 4425 
Q 3525 4100 3525 3541 
Q 3525 3141 3298 2862 
Q 3072 2584 2669 2484 
Q 3125 2378 3379 2068 
Q 3634 1759 3634 1313 
Q 3634 634 3220 271 
Q 2806 -91 2034 -91 
Q 1263 -91 848 271 
Q 434 634 434 1313 
Q 434 1759 690 2068 
Q 947 2378 1403 2484 
z
M 1172 3481 
Q 1172 3119 1398 2916 
Q 1625 2713 2034 2713 
Q 2441 2713 2670 2916 
Q 2900 3119 2900 3481 
Q 2900 3844 2670 4047 
Q 2441 4250 2034 4250 
Q 1625 4250 1398 4047 
Q 1172 3844 1172 3481 
z
" id="DejaVuSans-38" transform="scale(0.015625)"/>
       </defs>
       <use xlink:href="#DejaVuSans-30"/>
       <use x="63.623047" xlink:href="#DejaVuSans-2e"/>
       <use x="95.410156" xlink:href="#DejaVuSans-38"/>
      </g>
     </g>
    </g>
    <g id="ytick_6">
     <g id="line2d_27">
      <path clip-path="url(#p7c77badbbf)" d="M 57.6 6.381624 
L 338.688 6.381624 
" style="fill:none;stroke:#b0b0b0;stroke-linecap:square;stroke-width:0.8;"/>
     </g>
     <g id="line2d_28">
      <g>
       <use style="stroke:#000000;stroke-width:0.8;" x="57.6" xlink:href="#meffb58ae0a" y="6.381624"/>
      </g>
     </g>
     <g id="text_11">
      <!-- 1.0 -->
      <g transform="translate(25.155 12.460374)scale(0.16 -0.16)">
       <use xlink:href="#DejaVuSans-31"/>
       <use x="63.623047" xlink:href="#DejaVuSans-2e"/>
       <use x="95.410156" xlink:href="#DejaVuSans-30"/>
      </g>
     </g>
    </g>
    <g id="text_12">
     <!-- Fraction of function,target pairs -->
     <g transform="translate(17.619531 285.585)rotate(-90)scale(0.17 -0.17)">
      <defs>
       <path d="M 628 4666 
L 3309 4666 
L 3309 4134 
L 1259 4134 
L 1259 2759 
L 3109 2759 
L 3109 2228 
L 1259 2228 
L 1259 0 
L 628 0 
L 628 4666 
z
" id="DejaVuSans-46" transform="scale(0.015625)"/>
       <path d="M 2631 2963 
Q 2534 3019 2420 3045 
Q 2306 3072 2169 3072 
Q 1681 3072 1420 2755 
Q 1159 2438 1159 1844 
L 1159 0 
L 581 0 
L 581 3500 
L 1159 3500 
L 1159 2956 
Q 1341 3275 1631 3429 
Q 1922 3584 2338 3584 
Q 2397 3584 2469 3576 
Q 2541 3569 2628 3553 
L 2631 2963 
z
" id="DejaVuSans-72" transform="scale(0.015625)"/>
       <path d="M 3122 3366 
L 3122 2828 
Q 2878 2963 2633 3030 
Q 2388 3097 2138 3097 
Q 1578 3097 1268 2742 
Q 959 2388 959 1747 
Q 959 1106 1268 751 
Q 1578 397 2138 397 
Q 2388 397 2633 464 
Q 2878 531 3122 666 
L 3122 134 
Q 2881 22 2623 -34 
Q 2366 -91 2075 -91 
Q 1284 -91 818 406 
Q 353 903 353 1747 
Q 353 2603 823 3093 
Q 1294 3584 2113 3584 
Q 2378 3584 2631 3529 
Q 2884 3475 3122 3366 
z
" id="DejaVuSans-63" transform="scale(0.015625)"/>
       <path d="M 1172 4494 
L 1172 3500 
L 2356 3500 
L 2356 3053 
L 1172 3053 
L 1172 1153 
Q 1172 725 1289 603 
Q 1406 481 1766 481 
L 2356 481 
L 2356 0 
L 1766 0 
Q 1100 0 847 248 
Q 594 497 594 1153 
L 594 3053 
L 172 3053 
L 172 3500 
L 594 3500 
L 594 4494 
L 1172 4494 
z
" id="DejaVuSans-74" transform="scale(0.015625)"/>
       <path d="M 544 1381 
L 544 3500 
L 1119 3500 
L 1119 1403 
Q 1119 906 1312 657 
Q 1506 409 1894 409 
Q 2359 409 2629 706 
Q 2900 1003 2900 1516 
L 2900 3500 
L 3475 3500 
L 3475 0 
L 2900 0 
L 2900 538 
Q 2691 219 2414 64 
Q 2138 -91 1772 -91 
Q 1169 -91 856 284 
Q 544 659 544 1381 
z
M 1991 3584 
L 1991 3584 
z
" id="DejaVuSans-75" transform="scale(0.015625)"/>
       <path d="M 750 794 
L 1409 794 
L 1409 256 
L 897 -744 
L 494 -744 
L 750 256 
L 750 794 
z
" id="DejaVuSans-2c" transform="scale(0.015625)"/>
       <path d="M 1159 525 
L 1159 -1331 
L 581 -1331 
L 581 3500 
L 1159 3500 
L 1159 2969 
Q 1341 3281 1617 3432 
Q 1894 3584 2278 3584 
Q 2916 3584 3314 3078 
Q 3713 2572 3713 1747 
Q 3713 922 3314 415 
Q 2916 -91 2278 -91 
Q 1894 -91 1617 61 
Q 1341 213 1159 525 
z
M 3116 1747 
Q 3116 2381 2855 2742 
Q 2594 3103 2138 3103 
Q 1681 3103 1420 2742 
Q 1159 2381 1159 1747 
Q 1159 1113 1420 752 
Q 1681 391 2138 391 
Q 2594 391 2855 752 
Q 3116 1113 3116 1747 
z
" id="DejaVuSans-70" transform="scale(0.015625)"/>
      </defs>
      <use xlink:href="#DejaVuSans-46"/>
      <use x="50.269531" xlink:href="#DejaVuSans-72"/>
      <use x="91.382812" xlink:href="#DejaVuSans-61"/>
      <use x="152.662109" xlink:href="#DejaVuSans-63"/>
      <use x="207.642578" xlink:href="#DejaVuSans-74"/>
      <use x="246.851562" xlink:href="#DejaVuSans-69"/>
      <use x="274.634766" xlink:href="#DejaVuSans-6f"/>
      <use x="335.816406" xlink:href="#DejaVuSans-6e"/>
      <use x="399.195312" xlink:href="#DejaVuSans-20"/>
      <use x="430.982422" xlink:href="#DejaVuSans-6f"/>
      <use x="492.164062" xlink:href="#DejaVuSans-66"/>
      <use x="527.369141" xlink:href="#DejaVuSans-20"/>
      <use x="559.15625" xlink:href="#DejaVuSans-66"/>
      <use x="594.361328" xlink:href="#DejaVuSans-75"/>
      <use x="657.740234" xlink:href="#DejaVuSans-6e"/>
      <use x="721.119141" xlink:href="#DejaVuSans-63"/>
      <use x="776.099609" xlink:href="#DejaVuSans-74"/>
      <use x="815.308594" xlink:href="#DejaVuSans-69"/>
      <use x="843.091797" xlink:href="#DejaVuSans-6f"/>
      <use x="904.273438" xlink:href="#DejaVuSans-6e"/>
      <use x="967.652344" xlink:href="#DejaVuSans-2c"/>
      <use x="999.439453" xlink:href="#DejaVuSans-74"/>
      <use x="1038.648438" xlink:href="#DejaVuSans-61"/>
      <use x="1099.927734" xlink:href="#DejaVuSans-72"/>
      <use x="1139.291016" xlink:href="#DejaVuSans-67"/>
      <use x="1202.767578" xlink:href="#DejaVuSans-65"/>
      <use x="1264.291016" xlink:href="#DejaVuSans-74"/>
      <use x="1303.5" xlink:href="#DejaVuSans-20"/>
      <use x="1335.287109" xlink:href="#DejaVuSans-70"/>
      <use x="1398.763672" xlink:href="#DejaVuSans-61"/>
      <use x="1460.042969" xlink:href="#DejaVuSans-69"/>
      <use x="1487.826172" xlink:href="#DejaVuSans-72"/>
      <use x="1528.939453" xlink:href="#DejaVuSans-73"/>
     </g>
    </g>
   </g>
   <g id="line2d_29">
    <defs>
     <path d="M 0 1.5 
C 0.397805 1.5 0.77937 1.341951 1.06066 1.06066 
C 1.341951 0.77937 1.5 0.397805 1.5 0 
C 1.5 -0.397805 1.341951 -0.77937 1.06066 -1.06066 
C 0.77937 -1.341951 0.397805 -1.5 0 -1.5 
C -0.397805 -1.5 -0.77937 -1.341951 -1.06066 -1.06066 
C -1.341951 -0.77937 -1.5 -0.397805 -1.5 0 
C -1.5 0.397805 -1.341951 0.77937 -1.06066 1.06066 
C -0.77937 1.341951 -0.397805 1.5 0 1.5 
z
" id="m7517270183" style="stroke:#00bfbf;"/>
    </defs>
    <g>
     <use style="fill:#00bfbf;stroke:#00bfbf;" x="216.722046" xlink:href="#m7517270183" y="199.989079"/>
     <use style="fill:#00bfbf;stroke:#00bfbf;" x="216.722046" xlink:href="#m7517270183" y="199.989079"/>
    </g>
   </g>
   <g id="line2d_30">
    <path d="M 45.512012 298.944 
L 45.512012 289.048508 
L 57.6 289.048508 
L 57.6 282.164687 
L 64.67102 282.164687 
L 64.67102 277.432061 
L 69.687988 277.432061 
L 69.687988 275.567692 
L 73.579452 275.567692 
L 73.579452 272.842847 
L 76.759008 272.842847 
L 76.759008 270.54824 
L 79.447285 270.54824 
L 79.447285 268.11022 
L 81.775977 268.11022 
L 81.775977 267.679981 
L 83.830028 267.679981 
L 83.830028 266.676091 
L 85.66744 266.676091 
L 85.66744 265.6722 
L 87.329581 265.6722 
L 87.329581 264.955136 
L 88.846997 264.955136 
L 88.846997 264.381484 
L 90.242884 264.381484 
L 90.242884 262.803942 
L 91.535274 262.803942 
L 91.535274 262.517116 
L 92.73846 262.517116 
L 92.73846 261.2264 
L 93.863965 261.2264 
L 93.863965 259.505444 
L 94.921215 259.505444 
L 94.921215 259.362031 
L 95.918017 259.362031 
L 95.918017 258.501554 
L 96.86091 258.501554 
L 96.86091 257.497663 
L 98.606294 257.497663 
L 98.606294 256.493773 
L 99.41757 256.493773 
L 99.41757 255.203056 
L 100.192776 255.203056 
L 100.192776 254.916231 
L 101.646892 254.916231 
L 101.646892 254.772818 
L 102.330873 254.772818 
L 102.330873 254.629405 
L 102.989037 254.629405 
L 102.989037 254.342579 
L 103.623262 254.342579 
L 103.623262 253.195275 
L 104.23523 253.195275 
L 104.23523 253.051863 
L 104.826449 253.051863 
L 104.826449 252.621624 
L 105.398279 252.621624 
L 105.398279 252.191385 
L 105.951954 252.191385 
L 105.951954 251.761146 
L 108.006005 251.761146 
L 108.006005 251.330907 
L 108.483824 251.330907 
L 108.483824 251.044082 
L 108.948899 251.044082 
L 108.948899 250.47043 
L 109.843417 250.47043 
L 109.843417 250.183604 
L 110.694282 250.183604 
L 110.694282 249.609952 
L 111.104637 249.609952 
L 111.104637 248.606062 
L 111.897469 248.606062 
L 111.897469 247.888997 
L 112.280765 247.888997 
L 112.280765 247.458758 
L 112.655818 247.458758 
L 112.655818 246.885107 
L 113.382559 246.885107 
L 113.382559 246.741694 
L 114.418861 246.741694 
L 114.418861 246.024629 
L 114.751048 246.024629 
L 114.751048 245.881216 
L 115.397021 245.881216 
L 115.397021 245.737803 
L 116.019919 245.737803 
L 116.019919 245.450977 
L 116.323218 245.450977 
L 116.323218 244.447087 
L 116.914437 244.447087 
L 116.914437 244.160261 
L 117.765302 244.160261 
L 117.765302 244.016848 
L 118.039942 244.016848 
L 118.039942 243.873435 
L 118.310324 243.873435 
L 118.310324 243.586609 
L 118.576578 243.586609 
L 118.576578 243.012957 
L 118.838828 243.012957 
L 118.838828 242.439306 
L 119.097192 242.439306 
L 119.097192 242.009067 
L 119.850084 242.009067 
L 119.850084 241.578828 
L 120.093994 241.578828 
L 120.093994 241.148589 
L 120.571812 241.148589 
L 120.571812 240.718351 
L 121.036887 240.718351 
L 121.036887 239.427634 
L 121.931406 239.427634 
L 121.931406 238.997395 
L 122.782271 238.997395 
L 122.782271 238.71057 
L 123.394238 238.71057 
L 123.394238 238.423744 
L 123.593547 238.423744 
L 123.593547 238.280331 
L 124.368753 238.280331 
L 124.368753 237.993505 
L 124.92835 237.993505 
L 124.92835 237.850092 
L 125.110962 237.850092 
L 125.110962 237.419853 
L 125.996395 237.419853 
L 125.996395 236.702789 
L 126.839037 236.702789 
L 126.839037 236.415963 
L 127.642832 236.415963 
L 127.642832 235.842311 
L 129.002426 235.842311 
L 129.002426 235.698898 
L 129.147151 235.698898 
L 129.147151 235.555485 
L 129.433047 235.555485 
L 129.433047 235.412072 
L 131.056477 235.412072 
L 131.056477 235.268659 
L 132.30267 235.268659 
L 132.30267 234.695008 
L 135.582166 234.695008 
L 135.582166 234.551595 
L 136.456742 234.551595 
L 136.456742 234.408182 
L 137.289545 234.408182 
L 137.289545 234.121356 
L 137.469333 234.121356 
L 137.558536 233.260878 
L 138.170504 233.260878 
L 138.170504 233.117465 
L 138.341479 233.117465 
L 138.341479 232.830639 
L 138.594838 232.830639 
L 138.594838 232.400401 
L 138.761723 232.400401 
L 138.84457 231.826749 
L 138.927025 231.826749 
L 138.927025 231.683336 
L 139.253002 231.683336 
L 139.253002 231.539923 
L 139.413734 231.539923 
L 139.413734 231.39651 
L 139.572998 231.39651 
L 139.652088 230.966271 
L 139.730821 230.966271 
L 139.730821 230.822858 
L 140.574203 230.822858 
L 140.574203 230.536033 
L 141.307054 230.536033 
L 141.307054 230.39262 
L 141.45 230.39262 
L 141.521035 229.962381 
L 141.591783 229.962381 
L 141.591783 229.818968 
L 142.419098 229.818968 
L 142.419098 229.675555 
L 142.884173 229.675555 
L 142.949611 228.95849 
L 143.014805 228.95849 
L 143.079756 228.671665 
L 143.464461 228.671665 
L 143.464461 228.528252 
L 143.590833 228.528252 
L 143.653678 227.811187 
L 143.716296 227.811187 
L 143.716296 227.524361 
L 143.840863 227.524361 
L 143.840863 227.380948 
L 144.087359 227.380948 
L 144.148442 227.094122 
L 144.269971 227.094122 
L 144.330419 226.807296 
L 147.010073 226.807296 
L 147.061745 226.520471 
L 147.670154 226.520471 
L 147.670154 226.377058 
L 149.690956 226.377058 
L 149.690956 226.233645 
L 149.823575 226.233645 
L 149.867558 225.51658 
L 149.998846 225.51658 
L 150.042389 224.942928 
L 150.172372 224.942928 
L 150.172372 224.799515 
L 150.301393 224.799515 
L 150.38688 224.369277 
L 150.429467 224.369277 
L 150.51433 223.939038 
L 150.556607 223.939038 
L 150.640855 223.508799 
L 150.891184 223.508799 
L 150.891184 223.365386 
L 151.219462 223.365386 
L 151.219462 223.221973 
L 151.621307 223.221973 
L 151.621307 223.07856 
L 151.975216 223.07856 
L 152.0141 222.791734 
L 152.436193 222.791734 
L 152.436193 222.648321 
L 152.624728 222.648321 
L 152.699575 222.218083 
L 152.885298 222.218083 
L 152.922207 221.931257 
L 153.105587 221.931257 
L 153.214697 221.357605 
L 153.250915 221.357605 
L 153.323128 220.927366 
L 153.466662 220.927366 
L 153.466662 220.783953 
L 154.674612 220.783953 
L 154.674612 220.64054 
L 155.457066 220.64054 
L 155.457066 220.497128 
L 157.098907 220.497128 
L 157.098907 220.353715 
L 157.415209 220.353715 
L 157.415209 220.210302 
L 157.58535 220.210302 
L 157.669802 219.63665 
L 157.920731 219.63665 
L 157.920731 219.493237 
L 158.168101 219.493237 
L 158.168101 219.349824 
L 158.331086 219.349824 
L 158.438903 219.062998 
L 158.67908 219.062998 
L 158.67908 218.919585 
L 158.915995 218.919585 
L 158.915995 218.776172 
L 159.072168 218.776172 
L 159.072168 218.632759 
L 159.32939 218.632759 
L 159.405822 218.202521 
L 159.456591 218.202521 
L 159.507213 217.915695 
L 159.582872 217.915695 
L 159.633129 217.485456 
L 159.708245 217.485456 
L 159.708245 217.342043 
L 162.152109 217.342043 
L 162.260361 216.624978 
L 162.389382 216.624978 
L 162.410793 216.338153 
L 162.53871 216.338153 
L 162.53871 216.19474 
L 162.896128 216.19474 
L 162.896128 216.051327 
L 163.589711 216.051327 
L 163.589711 215.907914 
L 164.004716 215.907914 
L 164.102088 215.477675 
L 164.160252 215.477675 
L 164.218222 215.190849 
L 164.276 215.190849 
L 164.276 215.047436 
L 165.010195 215.047436 
L 165.065412 214.76061 
L 166.065276 214.76061 
L 166.065276 214.617197 
L 166.237944 214.617197 
L 166.237944 214.473785 
L 166.357802 214.473785 
L 166.357802 214.330372 
L 166.510705 214.330372 
L 166.510705 214.186959 
L 167.174506 214.186959 
L 167.174506 214.043546 
L 167.288118 214.043546 
L 167.288118 213.900133 
L 167.545055 213.900133 
L 167.545055 213.613307 
L 167.703739 213.613307 
L 167.703739 213.469894 
L 169.244833 213.469894 
L 169.244833 213.326481 
L 169.431813 213.326481 
L 169.53167 212.752829 
L 169.545889 212.752829 
L 169.545889 212.609416 
L 170.174022 212.609416 
L 170.215104 212.322591 
L 170.51345 212.322591 
L 170.51345 212.179178 
L 172.093501 212.179178 
L 172.093501 212.035765 
L 172.434028 212.035765 
L 172.434028 211.892352 
L 172.862299 211.892352 
L 172.862299 211.748939 
L 172.991089 211.748939 
L 173.014404 211.3187 
L 174.272644 211.3187 
L 174.305129 210.888461 
L 174.466655 210.888461 
L 174.488079 210.601635 
L 174.658532 210.601635 
L 174.658532 210.458222 
L 175.160115 210.458222 
L 175.170413 210.171397 
L 176.363988 210.171397 
L 176.402401 209.884571 
L 176.593204 209.884571 
L 176.593204 209.741158 
L 176.838169 209.741158 
L 176.884885 209.454332 
L 177.162587 209.454332 
L 177.162587 209.310919 
L 177.281564 209.310919 
L 177.281564 209.167506 
L 178.222537 209.167506 
L 178.239812 208.88068 
L 178.573302 208.88068 
L 178.573302 208.737267 
L 179.008261 208.737267 
L 179.008261 208.593854 
L 179.139941 208.593854 
L 179.139941 208.450441 
L 179.901953 208.450441 
L 179.901953 208.307029 
L 180.601926 208.307029 
L 180.684666 207.733377 
L 181.915844 207.733377 
L 182.013465 207.446551 
L 182.821896 207.446551 
L 182.84843 207.016312 
L 183.41577 207.016312 
L 183.41577 206.872899 
L 184.206035 206.872899 
L 184.206035 206.729486 
L 184.437506 206.729486 
L 184.437506 206.586073 
L 184.588131 206.586073 
L 184.671916 206.155835 
L 185.316587 206.155835 
L 185.408403 205.869009 
L 185.776513 205.869009 
L 185.815696 205.582183 
L 186.463296 205.582183 
L 186.463296 205.43877 
L 186.773004 205.43877 
L 186.878537 205.151944 
L 187.46309 205.151944 
L 187.46309 205.008531 
L 187.615046 205.008531 
L 187.615046 204.865118 
L 188.461588 204.865118 
L 188.461588 204.721705 
L 188.738029 204.721705 
L 188.738029 204.578292 
L 188.949531 204.578292 
L 188.949531 204.434879 
L 190.542309 204.434879 
L 190.542309 204.291467 
L 191.153982 204.291467 
L 191.19921 204.004641 
L 192.001711 204.004641 
L 192.001711 203.861228 
L 192.366497 203.861228 
L 192.408691 203.574402 
L 192.735094 203.574402 
L 192.832583 203.144163 
L 193.1769 203.144163 
L 193.1769 203.00075 
L 193.467743 203.00075 
L 193.467743 202.857337 
L 193.8352 202.857337 
L 193.8352 202.713924 
L 195.893958 202.713924 
L 195.893958 202.570511 
L 196.174038 202.570511 
L 196.174038 202.427098 
L 196.483085 202.427098 
L 196.483085 202.283685 
L 196.786751 202.283685 
L 196.786751 202.140273 
L 197.390185 202.140273 
L 197.390185 201.853447 
L 200.349053 201.853447 
L 200.385463 201.566621 
L 201.086503 201.566621 
L 201.086503 201.423208 
L 201.553049 201.423208 
L 201.553049 201.279795 
L 201.827547 201.279795 
L 201.827547 201.136382 
L 204.855014 201.136382 
L 204.894378 200.849556 
L 205.204294 200.849556 
L 205.248384 200.56273 
L 208.619533 200.56273 
L 208.619533 200.419317 
L 208.852371 200.419317 
L 208.852371 200.275904 
L 214.332431 200.275904 
L 214.332431 200.132492 
L 216.722046 200.132492 
L 216.722046 199.989079 
L 338.688 199.989079 
L 338.688 199.989079 
" style="fill:none;stroke:#00bfbf;stroke-linecap:square;stroke-width:1.5;"/>
   </g>
   <g id="line2d_31">
    <defs>
     <path d="M -6 0 
L 6 0 
M 0 6 
L 0 -6 
" id="m8fbd13ba58" style="stroke:#00bfbf;stroke-width:1.5;"/>
    </defs>
    <g>
     <use style="fill-opacity:0;stroke:#00bfbf;stroke-width:1.5;" x="91.535274" xlink:href="#m8fbd13ba58" y="262.517116"/>
     <use style="fill-opacity:0;stroke:#00bfbf;stroke-width:1.5;" x="120.093994" xlink:href="#m8fbd13ba58" y="241.148589"/>
     <use style="fill-opacity:0;stroke:#00bfbf;stroke-width:1.5;" x="184.606119" xlink:href="#m8fbd13ba58" y="206.299248"/>
     <use style="fill-opacity:0;stroke:#00bfbf;stroke-width:1.5;" x="216.722046" xlink:href="#m8fbd13ba58" y="199.989079"/>
     <use style="fill-opacity:0;stroke:#00bfbf;stroke-width:1.5;" x="216.722046" xlink:href="#m8fbd13ba58" y="199.989079"/>
     <use style="fill-opacity:0;stroke:#00bfbf;stroke-width:1.5;" x="338.688" xlink:href="#m8fbd13ba58" y="199.989079"/>
    </g>
   </g>
   <g id="line2d_32">
    <path style="fill:none;stroke:#00bfbf;stroke-linecap:square;stroke-width:1.5;"/>
    <g/>
   </g>
   <g id="line2d_33">
    <path clip-path="url(#p7c77badbbf)" d="M 138.170504 233.117465 
" style="fill:none;stroke:#00bfbf;stroke-linecap:square;stroke-width:1.5;"/>
    <defs>
     <path d="M -12 12 
L 12 -12 
M -12 -12 
L 12 12 
" id="ma8809f2440" style="stroke:#00bfbf;"/>
    </defs>
    <g clip-path="url(#p7c77badbbf)">
     <use style="fill:#00bfbf;stroke:#00bfbf;" x="138.170504" xlink:href="#ma8809f2440" y="233.117465"/>
    </g>
   </g>
   <g id="line2d_34">
    <defs>
     <path d="M 0 1.5 
C 0.397805 1.5 0.77937 1.341951 1.06066 1.06066 
C 1.341951 0.77937 1.5 0.397805 1.5 0 
C 1.5 -0.397805 1.341951 -0.77937 1.06066 -1.06066 
C 0.77937 -1.341951 0.397805 -1.5 0 -1.5 
C -0.397805 -1.5 -0.77937 -1.341951 -1.06066 -1.06066 
C -1.341951 -0.77937 -1.5 -0.397805 -1.5 0 
C -1.5 0.397805 -1.341951 0.77937 -1.06066 1.06066 
C -0.77937 1.341951 -0.397805 1.5 0 1.5 
z
" id="mf294204149" style="stroke:#008000;"/>
    </defs>
    <g>
     <use style="fill:#008000;stroke:#008000;" x="209.164415" xlink:href="#mf294204149" y="240.144699"/>
     <use style="fill:#008000;stroke:#008000;" x="209.164415" xlink:href="#mf294204149" y="240.144699"/>
    </g>
   </g>
   <g id="line2d_35">
    <path d="M 38.440992 298.944 
L 38.440992 297.366458 
L 50.52898 297.366458 
L 50.52898 294.211373 
L 57.6 294.211373 
L 57.6 292.633831 
L 62.616969 292.633831 
L 62.616969 290.912876 
L 66.508432 290.912876 
L 66.508432 290.195811 
L 69.687988 290.195811 
L 69.687988 288.474856 
L 72.376266 288.474856 
L 72.376266 287.614379 
L 74.704957 287.614379 
L 74.704957 286.036836 
L 76.759008 286.036836 
L 76.759008 285.606598 
L 78.59642 285.606598 
L 78.59642 285.463185 
L 83.171864 285.463185 
L 83.171864 285.319772 
L 84.464254 285.319772 
L 84.464254 284.315881 
L 85.66744 284.315881 
L 85.66744 284.029055 
L 87.850195 284.029055 
L 87.850195 283.885642 
L 88.846997 283.885642 
L 88.846997 283.598817 
L 89.78989 283.598817 
L 89.78989 283.455404 
L 93.863965 283.455404 
L 93.863965 283.311991 
L 94.575872 283.311991 
L 94.575872 282.594926 
L 95.918017 282.594926 
L 95.918017 282.451513 
L 97.16421 282.451513 
L 97.16421 282.164687 
L 97.755429 282.164687 
L 97.755429 282.021274 
L 98.32726 282.021274 
L 98.32726 281.877861 
L 98.880934 281.877861 
L 98.880934 281.591036 
L 100.934985 281.591036 
L 100.934985 280.873971 
L 101.412804 280.873971 
L 101.412804 280.443732 
L 101.877879 280.443732 
L 101.877879 280.300319 
L 104.033617 280.300319 
L 104.033617 279.87008 
L 104.434538 279.87008 
L 104.434538 279.726667 
L 104.826449 279.726667 
L 104.826449 279.583255 
L 106.311539 279.583255 
L 106.311539 279.296429 
L 106.66386 279.296429 
L 106.66386 278.86619 
L 107.009204 278.86619 
L 107.009204 278.435951 
L 107.680028 278.435951 
L 107.680028 278.292538 
L 108.006005 278.292538 
L 108.006005 278.149125 
L 108.326001 278.149125 
L 108.326001 278.005712 
L 108.640231 278.005712 
L 108.640231 277.432061 
L 109.550313 277.432061 
L 109.550313 277.001822 
L 109.843417 277.001822 
L 109.843417 276.858409 
L 110.131676 276.858409 
L 110.131676 276.42817 
L 110.694282 276.42817 
L 110.694282 276.284757 
L 110.968922 276.284757 
L 110.968922 275.854518 
L 112.280765 275.854518 
L 112.280765 275.567692 
L 112.531694 275.567692 
L 112.531694 275.280867 
L 112.779064 275.280867 
L 112.779064 274.994041 
L 113.022974 274.994041 
L 113.022974 274.563802 
L 113.26352 274.563802 
L 113.26352 274.420389 
L 113.500792 274.420389 
L 113.500792 274.133563 
L 113.73488 274.133563 
L 113.73488 273.846737 
L 113.965867 273.846737 
L 113.965867 273.703324 
L 114.193835 273.703324 
L 114.193835 273.559911 
L 115.917635 273.559911 
L 115.917635 273.273086 
L 116.914437 273.273086 
L 116.914437 273.129673 
L 117.486268 273.129673 
L 117.486268 272.842847 
L 119.097192 272.842847 
L 119.097192 272.556021 
L 121.189196 272.556021 
L 121.189196 271.838956 
L 122.076131 271.838956 
L 122.076131 271.695543 
L 122.920132 271.695543 
L 122.920132 271.55213 
L 123.192626 271.55213 
L 123.192626 271.408718 
L 123.460928 271.408718 
L 123.460928 271.121892 
L 123.855796 271.121892 
L 123.855796 270.835066 
L 124.114161 270.835066 
L 124.114161 270.261414 
L 124.241922 270.261414 
L 124.241922 269.974588 
L 125.351508 269.974588 
L 125.351508 269.831175 
L 126.053856 269.831175 
L 126.053856 269.687762 
L 127.590383 269.687762 
L 127.590383 269.544349 
L 128.005624 269.544349 
L 128.005624 269.400937 
L 128.209594 269.400937 
L 128.209594 268.397046 
L 128.411207 268.397046 
L 128.411207 268.253633 
L 128.807571 268.253633 
L 128.807571 267.679981 
L 129.099042 267.679981 
L 129.099042 267.536568 
L 130.218525 267.536568 
L 130.218525 266.962917 
L 130.752422 266.962917 
L 130.752422 266.532678 
L 131.77355 266.532678 
L 131.77355 266.245852 
L 131.938072 266.245852 
L 131.938072 266.102439 
L 132.101058 266.102439 
L 132.101058 265.959026 
L 132.501978 265.959026 
L 132.581068 265.241962 
L 132.816208 265.241962 
L 132.893889 264.955136 
L 133.04822 264.955136 
L 133.04822 264.811723 
L 133.352844 264.811723 
L 133.352844 264.524897 
L 135.212889 264.524897 
L 135.212889 264.381484 
L 135.482227 264.381484 
L 135.482227 263.951245 
L 136.202149 263.951245 
L 136.266147 263.664419 
L 136.456742 263.664419 
L 136.456742 263.090768 
L 136.707671 263.090768 
L 136.707671 262.660529 
L 137.077422 262.660529 
L 137.077422 262.517116 
L 137.968891 262.517116 
L 138.026733 262.23029 
L 138.084384 262.23029 
L 138.084384 261.943464 
L 138.199116 261.943464 
L 138.199116 261.369812 
L 138.313099 261.369812 
L 138.369812 260.796161 
L 138.426341 260.796161 
L 138.426341 260.652748 
L 138.538853 260.652748 
L 138.594838 260.079096 
L 138.872098 260.079096 
L 138.872098 259.935683 
L 139.520072 259.935683 
L 139.520072 259.79227 
L 140.093612 259.79227 
L 140.093612 259.648857 
L 140.549236 259.648857 
L 140.549236 259.505444 
L 140.747977 259.505444 
L 140.79731 258.644967 
L 140.89556 258.644967 
L 140.89556 258.501554 
L 141.041904 258.501554 
L 141.041904 258.358141 
L 141.755753 258.358141 
L 141.755753 258.214728 
L 143.611807 258.214728 
L 143.611807 258.071315 
L 144.269971 258.071315 
L 144.269971 257.927902 
L 144.430703 257.927902 
L 144.430703 257.784489 
L 144.981877 257.784489 
L 144.981877 257.641076 
L 145.814278 257.641076 
L 145.814278 257.497663 
L 146.034567 257.497663 
L 146.034567 257.35425 
L 147.334773 257.35425 
L 147.368603 256.924012 
L 147.50327 256.924012 
L 147.570215 256.493773 
L 147.636905 256.493773 
L 147.636905 256.35036 
L 148.064279 256.35036 
L 148.064279 256.206947 
L 148.826773 256.206947 
L 148.826773 255.920121 
L 148.950676 255.920121 
L 148.950676 255.633295 
L 149.347388 255.633295 
L 149.437669 255.203056 
L 149.497598 255.203056 
L 149.587107 254.629405 
L 150.31567 254.629405 
L 150.31567 254.485992 
L 150.457801 254.485992 
L 150.486088 254.199166 
L 150.598782 254.199166 
L 150.598782 254.055753 
L 150.932558 254.055753 
L 150.932558 253.91234 
L 151.581536 253.91234 
L 151.634543 253.338688 
L 153.250915 253.338688 
L 153.250915 253.195275 
L 153.867041 253.195275 
L 153.867041 253.051863 
L 154.950294 253.051863 
L 155.0376 252.621624 
L 155.167744 252.621624 
L 155.167744 252.478211 
L 155.573575 252.478211 
L 155.594676 252.191385 
L 156.337763 252.191385 
L 156.398281 251.904559 
L 156.717545 251.904559 
L 156.717545 251.761146 
L 156.894595 251.761146 
L 156.894595 251.617733 
L 157.339055 251.617733 
L 157.339055 251.330907 
L 157.453162 251.330907 
L 157.453162 251.187494 
L 157.957601 251.187494 
L 157.957601 251.044082 
L 158.358103 251.044082 
L 158.39406 250.757256 
L 159.320876 250.757256 
L 159.320876 250.613843 
L 159.591258 250.613843 
L 159.641491 250.327017 
L 160.297798 250.327017 
L 160.297798 250.183604 
L 160.86807 250.183604 
L 160.883648 249.896778 
L 161.069504 249.896778 
L 161.069504 249.753365 
L 161.570623 249.753365 
L 161.64531 249.466539 
L 161.70483 249.466539 
L 161.749336 249.179713 
L 161.88218 249.179713 
L 161.984807 248.319236 
L 165.096013 248.319236 
L 165.18141 247.602171 
L 165.861646 247.602171 
L 165.861646 247.458758 
L 166.105719 247.458758 
L 166.197807 247.02852 
L 166.718084 247.02852 
L 166.718084 246.885107 
L 168.854895 246.885107 
L 168.913944 246.598281 
L 169.041203 246.598281 
L 169.089902 246.311455 
L 169.860457 246.311455 
L 169.860457 246.168042 
L 171.237722 246.168042 
L 171.332059 245.737803 
L 171.696007 245.737803 
L 171.712752 245.450977 
L 173.970168 245.450977 
L 174.036212 245.164151 
L 174.174823 245.164151 
L 174.225613 244.877326 
L 175.744237 244.877326 
L 175.830357 244.447087 
L 176.331913 244.447087 
L 176.408795 244.160261 
L 176.731812 244.160261 
L 176.731812 244.016848 
L 178.089523 244.016848 
L 178.176386 243.730022 
L 178.348826 243.730022 
L 178.348826 243.586609 
L 179.483624 243.586609 
L 179.483624 243.443196 
L 179.770653 243.443196 
L 179.770653 243.299783 
L 181.294218 243.299783 
L 181.294218 243.012957 
L 182.362263 243.012957 
L 182.362263 242.869545 
L 182.735382 242.869545 
L 182.735382 242.726132 
L 183.954868 242.726132 
L 183.954868 242.582719 
L 186.288225 242.582719 
L 186.375078 242.15248 
L 187.412143 242.15248 
L 187.412143 242.009067 
L 188.193708 242.009067 
L 188.193708 241.865654 
L 189.390822 241.865654 
L 189.390822 241.722241 
L 191.763489 241.722241 
L 191.853368 241.435415 
L 192.654694 241.435415 
L 192.747623 241.148589 
L 193.374959 241.148589 
L 193.389451 240.861764 
L 197.888768 240.861764 
L 197.888768 240.718351 
L 198.299861 240.718351 
L 198.299861 240.574938 
L 204.756527 240.574938 
L 204.756527 240.431525 
L 208.264085 240.431525 
L 208.264085 240.288112 
L 209.164415 240.288112 
L 209.164415 240.144699 
L 338.688 240.144699 
L 338.688 240.144699 
" style="fill:none;stroke:#008000;stroke-linecap:square;stroke-width:1.5;"/>
   </g>
   <g id="line2d_36">
    <defs>
     <path d="M -0 6 
L 6 -6 
L -6 -6 
z
" id="m5fd83bc21f" style="stroke:#008000;stroke-linejoin:miter;stroke-width:1.5;"/>
    </defs>
    <g>
     <use style="fill-opacity:0;stroke:#008000;stroke-linejoin:miter;stroke-width:1.5;" x="89.78989" xlink:href="#m5fd83bc21f" y="283.455404"/>
     <use style="fill-opacity:0;stroke:#008000;stroke-linejoin:miter;stroke-width:1.5;" x="145.814278" xlink:href="#m5fd83bc21f" y="257.497663"/>
     <use style="fill-opacity:0;stroke:#008000;stroke-linejoin:miter;stroke-width:1.5;" x="209.164415" xlink:href="#m5fd83bc21f" y="240.288112"/>
     <use style="fill-opacity:0;stroke:#008000;stroke-linejoin:miter;stroke-width:1.5;" x="209.164415" xlink:href="#m5fd83bc21f" y="240.144699"/>
     <use style="fill-opacity:0;stroke:#008000;stroke-linejoin:miter;stroke-width:1.5;" x="209.164415" xlink:href="#m5fd83bc21f" y="240.144699"/>
     <use style="fill-opacity:0;stroke:#008000;stroke-linejoin:miter;stroke-width:1.5;" x="338.688" xlink:href="#m5fd83bc21f" y="240.144699"/>
    </g>
   </g>
   <g id="line2d_37">
    <path style="fill:none;stroke:#008000;stroke-linecap:square;stroke-width:1.5;"/>
    <g/>
   </g>
   <g id="line2d_38">
    <path clip-path="url(#p7c77badbbf)" d="M 138.084384 261.943464 
" style="fill:none;stroke:#008000;stroke-linecap:square;stroke-width:1.5;"/>
    <defs>
     <path d="M -12 12 
L 12 -12 
M -12 -12 
L 12 12 
" id="m99fa4633c2" style="stroke:#008000;"/>
    </defs>
    <g clip-path="url(#p7c77badbbf)">
     <use style="fill:#008000;stroke:#008000;" x="138.084384" xlink:href="#m99fa4633c2" y="261.943464"/>
    </g>
   </g>
   <g id="line2d_39">
    <defs>
     <path d="M 0 1.5 
C 0.397805 1.5 0.77937 1.341951 1.06066 1.06066 
C 1.341951 0.77937 1.5 0.397805 1.5 0 
C 1.5 -0.397805 1.341951 -0.77937 1.06066 -1.06066 
C 0.77937 -1.341951 0.397805 -1.5 0 -1.5 
C -0.397805 -1.5 -0.77937 -1.341951 -1.06066 -1.06066 
C -1.341951 -0.77937 -1.5 -0.397805 -1.5 0 
C -1.5 0.397805 -1.341951 0.77937 -1.06066 1.06066 
C -0.77937 1.341951 -0.397805 1.5 0 1.5 
z
" id="m0a45ce9523" style="stroke:#0000ff;"/>
    </defs>
    <g>
     <use style="fill:#0000ff;stroke:#0000ff;" x="208.892018" xlink:href="#m0a45ce9523" y="268.827285"/>
     <use style="fill:#0000ff;stroke:#0000ff;" x="208.892018" xlink:href="#m0a45ce9523" y="268.827285"/>
    </g>
   </g>
   <g id="line2d_40">
    <path d="M 29.53256 298.944 
L 29.53256 298.370348 
L 41.620548 298.370348 
L 41.620548 297.366458 
L 48.691568 297.366458 
L 48.691568 297.079632 
L 53.708537 297.079632 
L 53.708537 296.936219 
L 57.6 296.936219 
L 57.6 296.649393 
L 63.467834 296.649393 
L 63.467834 296.50598 
L 67.850577 296.50598 
L 67.850577 296.362567 
L 71.35013 296.362567 
L 71.35013 296.075741 
L 72.867545 296.075741 
L 72.867545 295.932328 
L 75.555822 295.932328 
L 75.555822 295.645503 
L 84.213325 295.645503 
L 84.213325 295.358677 
L 84.955534 295.358677 
L 84.955534 295.071851 
L 86.351421 295.071851 
L 86.351421 294.498199 
L 88.255778 294.498199 
L 88.255778 294.354786 
L 91.029752 294.354786 
L 91.029752 294.211373 
L 94.294587 294.211373 
L 94.294587 294.06796 
L 95.125186 294.06796 
L 95.125186 293.781135 
L 95.918017 293.781135 
L 95.918017 293.637722 
L 96.301313 293.637722 
L 96.301313 293.494309 
L 98.43941 293.494309 
L 98.43941 293.350896 
L 98.771596 293.350896 
L 98.771596 293.207483 
L 99.097574 293.207483 
L 99.097574 293.06407 
L 99.731799 293.06407 
L 99.731799 292.920657 
L 101.223245 292.920657 
L 101.223245 292.347005 
L 101.506816 292.347005 
L 101.506816 291.916766 
L 103.870632 291.916766 
L 103.870632 291.486528 
L 104.114542 291.486528 
L 104.114542 291.056289 
L 105.057436 291.056289 
L 105.057436 290.769463 
L 105.285403 290.769463 
L 105.285403 290.62605 
L 106.168594 290.62605 
L 106.168594 290.482637 
L 106.382575 290.482637 
L 106.382575 290.195811 
L 109.843417 290.195811 
L 109.843417 289.908985 
L 110.188761 289.908985 
L 110.188761 289.765573 
L 110.358901 289.765573 
L 110.358901 289.62216 
L 112.72987 289.62216 
L 112.72987 289.478747 
L 115.33349 289.478747 
L 115.33349 289.335334 
L 118.576578 289.335334 
L 118.576578 289.191921 
L 119.097192 289.191921 
L 119.097192 289.048508 
L 119.89914 289.048508 
L 119.89914 288.761682 
L 120.382253 288.761682 
L 120.47729 288.474856 
L 124.519744 288.474856 
L 124.519744 288.331443 
L 124.743806 288.331443 
L 124.743806 288.18803 
L 124.965026 288.18803 
L 124.965026 287.901204 
L 127.100304 287.901204 
L 127.100304 287.757791 
L 129.404667 287.757791 
L 129.404667 287.614379 
L 129.79784 287.614379 
L 129.79784 287.470966 
L 130.182344 287.470966 
L 130.182344 287.327553 
L 130.874681 287.327553 
L 130.874681 287.18414 
L 131.490249 287.18414 
L 131.490249 286.897314 
L 132.036046 286.897314 
L 132.036046 286.753901 
L 135.760625 286.753901 
L 135.760625 286.323662 
L 135.917737 286.323662 
L 135.956794 285.606598 
L 137.37967 285.606598 
L 137.37967 285.463185 
L 138.256201 285.463185 
L 138.256201 285.319772 
L 138.392446 285.319772 
L 138.392446 285.176359 
L 138.794909 285.176359 
L 138.828032 284.889533 
L 138.927025 284.889533 
L 138.927025 284.74612 
L 139.887228 284.74612 
L 139.887228 284.602707 
L 140.011351 284.602707 
L 140.042245 284.315881 
L 140.317849 284.315881 
L 140.317849 284.172468 
L 140.438956 284.172468 
L 140.438956 284.029055 
L 140.678675 284.029055 
L 140.678675 283.885642 
L 141.177393 283.885642 
L 141.177393 283.598817 
L 144.55823 283.598817 
L 144.653267 283.311991 
L 144.841802 283.311991 
L 144.841802 283.168578 
L 146.559258 283.168578 
L 146.60169 282.881752 
L 146.854132 282.881752 
L 146.854132 282.738339 
L 147.12355 282.738339 
L 147.12355 282.451513 
L 148.315765 282.451513 
L 148.315765 282.3081 
L 149.030744 282.3081 
L 149.030744 282.164687 
L 150.258492 282.164687 
L 150.258492 282.021274 
L 150.581924 282.021274 
L 150.632448 281.734448 
L 151.1298 281.734448 
L 151.227591 281.30421 
L 151.357131 281.30421 
L 151.437608 280.873971 
L 156.382164 280.873971 
L 156.478647 280.300319 
L 156.514691 280.300319 
L 156.574599 280.013493 
L 157.380981 280.013493 
L 157.380981 279.87008 
L 157.528821 279.87008 
L 157.528821 279.726667 
L 157.9318 279.726667 
L 158.042106 279.439842 
L 158.053098 279.439842 
L 158.107956 279.153016 
L 158.540715 279.153016 
L 158.540715 279.009603 
L 161.320345 279.009603 
L 161.320345 278.86619 
L 162.68677 278.86619 
L 162.68677 278.722777 
L 162.837761 278.722777 
L 162.837761 278.579364 
L 164.906654 278.579364 
L 164.906654 278.435951 
L 165.475853 278.435951 
L 165.475853 278.292538 
L 165.697012 278.292538 
L 165.753633 277.718886 
L 166.581603 277.718886 
L 166.628709 277.432061 
L 168.847006 277.432061 
L 168.929657 276.858409 
L 169.296813 276.858409 
L 169.296813 276.714996 
L 169.752173 276.714996 
L 169.752173 276.571583 
L 171.61541 276.571583 
L 171.655755 275.997931 
L 172.284043 275.997931 
L 172.380955 275.42428 
L 174.6182 275.42428 
L 174.6182 275.280867 
L 175.268964 275.280867 
L 175.268964 275.137454 
L 176.104418 275.137454 
L 176.104418 274.994041 
L 176.390886 274.994041 
L 176.390886 274.850628 
L 176.638688 274.850628 
L 176.638688 274.707215 
L 177.933241 274.707215 
L 177.947294 274.420389 
L 178.284648 274.420389 
L 178.284648 274.276976 
L 178.473071 274.276976 
L 178.473071 273.99015 
L 179.617095 273.99015 
L 179.639418 273.703324 
L 180.061331 273.703324 
L 180.120337 273.129673 
L 181.611122 273.129673 
L 181.611122 272.98626 
L 182.579912 272.98626 
L 182.579912 272.842847 
L 182.934387 272.842847 
L 182.934387 272.699434 
L 184.274578 272.699434 
L 184.274578 272.556021 
L 185.046385 272.556021 
L 185.046385 272.412608 
L 186.531046 272.412608 
L 186.55893 271.982369 
L 187.285147 271.982369 
L 187.285147 271.838956 
L 187.580718 271.838956 
L 187.667416 271.55213 
L 188.285832 271.55213 
L 188.285832 271.408718 
L 188.601309 271.408718 
L 188.601309 271.265305 
L 189.527539 271.265305 
L 189.527539 271.121892 
L 190.175189 271.121892 
L 190.175189 270.978479 
L 190.983535 270.978479 
L 190.995171 270.691653 
L 192.122858 270.691653 
L 192.122858 270.54824 
L 192.596171 270.54824 
L 192.596171 270.404827 
L 192.831087 270.404827 
L 192.846039 270.118001 
L 194.306071 270.118001 
L 194.306071 269.974588 
L 196.640088 269.974588 
L 196.640088 269.831175 
L 197.804999 269.831175 
L 197.804999 269.687762 
L 199.42343 269.687762 
L 199.42343 269.544349 
L 200.61862 269.544349 
L 200.61862 269.400937 
L 201.079514 269.400937 
L 201.079514 269.257524 
L 201.557584 269.257524 
L 201.557584 269.114111 
L 204.104595 269.114111 
L 204.104595 268.970698 
L 208.892018 268.970698 
L 208.892018 268.827285 
L 338.688 268.827285 
L 338.688 268.827285 
" style="fill:none;stroke:#0000ff;stroke-linecap:square;stroke-width:1.5;"/>
   </g>
   <g id="line2d_41">
    <defs>
     <path d="M 0 -6 
L -1.347084 -1.854102 
L -5.706339 -1.854102 
L -2.179628 0.708204 
L -3.526712 4.854102 
L -0 2.291796 
L 3.526712 4.854102 
L 2.179628 0.708204 
L 5.706339 -1.854102 
L 1.347084 -1.854102 
z
" id="mdf3b554505" style="stroke:#0000ff;stroke-linejoin:bevel;stroke-width:1.5;"/>
    </defs>
    <g>
     <use style="fill-opacity:0;stroke:#0000ff;stroke-linejoin:bevel;stroke-width:1.5;" x="67.850577" xlink:href="#mdf3b554505" y="296.50598"/>
     <use style="fill-opacity:0;stroke:#0000ff;stroke-linejoin:bevel;stroke-width:1.5;" x="140.438956" xlink:href="#mdf3b554505" y="284.172468"/>
     <use style="fill-opacity:0;stroke:#0000ff;stroke-linejoin:bevel;stroke-width:1.5;" x="189.527539" xlink:href="#mdf3b554505" y="271.265305"/>
     <use style="fill-opacity:0;stroke:#0000ff;stroke-linejoin:bevel;stroke-width:1.5;" x="208.892018" xlink:href="#mdf3b554505" y="268.827285"/>
     <use style="fill-opacity:0;stroke:#0000ff;stroke-linejoin:bevel;stroke-width:1.5;" x="208.892018" xlink:href="#mdf3b554505" y="268.827285"/>
     <use style="fill-opacity:0;stroke:#0000ff;stroke-linejoin:bevel;stroke-width:1.5;" x="338.688" xlink:href="#mdf3b554505" y="268.827285"/>
    </g>
   </g>
   <g id="line2d_42">
    <path style="fill:none;stroke:#0000ff;stroke-linecap:square;stroke-width:1.5;"/>
    <g/>
   </g>
   <g id="line2d_43">
    <path clip-path="url(#p7c77badbbf)" d="M 138.01518 285.463185 
" style="fill:none;stroke:#0000ff;stroke-linecap:square;stroke-width:1.5;"/>
    <defs>
     <path d="M -12 12 
L 12 -12 
M -12 -12 
L 12 12 
" id="m843810e470" style="stroke:#0000ff;"/>
    </defs>
    <g clip-path="url(#p7c77badbbf)">
     <use style="fill:#0000ff;stroke:#0000ff;" x="138.01518" xlink:href="#m843810e470" y="285.463185"/>
    </g>
   </g>
   <g id="line2d_44">
    <defs>
     <path d="M 0 1.5 
C 0.397805 1.5 0.77937 1.341951 1.06066 1.06066 
C 1.341951 0.77937 1.5 0.397805 1.5 0 
C 1.5 -0.397805 1.341951 -0.77937 1.06066 -1.06066 
C 0.77937 -1.341951 0.397805 -1.5 0 -1.5 
C -0.397805 -1.5 -0.77937 -1.341951 -1.06066 -1.06066 
C -1.341951 -0.77937 -1.5 -0.397805 -1.5 0 
C -1.5 0.397805 -1.341951 0.77937 -1.06066 1.06066 
C -0.77937 1.341951 -0.397805 1.5 0 1.5 
z
" id="m33efecaa67" style="stroke:#000000;"/>
    </defs>
    <g>
     <use style="stroke:#000000;" x="191.31136" xlink:href="#m33efecaa67" y="293.207483"/>
     <use style="stroke:#000000;" x="191.31136" xlink:href="#m33efecaa67" y="293.207483"/>
    </g>
   </g>
   <g id="line2d_45">
    <path d="M 17.444571 298.944 
L 17.444571 298.800587 
L 29.53256 298.800587 
L 29.53256 298.657174 
L 81.334453 298.657174 
L 81.334453 298.513761 
L 82.206598 298.513761 
L 82.206598 298.370348 
L 86.351421 298.370348 
L 86.351421 298.083522 
L 87.009585 298.083522 
L 87.009585 297.940109 
L 87.643811 297.940109 
L 87.643811 297.796697 
L 107.414787 297.796697 
L 107.414787 297.653284 
L 111.819788 297.653284 
L 111.819788 297.509871 
L 114.552496 297.509871 
L 114.552496 297.366458 
L 116.502698 297.366458 
L 116.502698 297.223045 
L 119.40226 297.223045 
L 119.40226 297.079632 
L 123.354102 297.079632 
L 123.354102 296.936219 
L 127.76807 296.936219 
L 127.76807 296.792806 
L 137.469333 296.792806 
L 137.469333 296.649393 
L 138.628343 296.649393 
L 138.628343 296.50598 
L 142.472881 296.50598 
L 142.472881 296.362567 
L 142.805321 296.362567 
L 142.805321 296.219154 
L 143.131543 296.219154 
L 143.131543 296.075741 
L 144.197155 296.075741 
L 144.197155 295.932328 
L 144.233601 295.932328 
L 144.233601 295.788916 
L 145.688202 295.788916 
L 145.688202 295.645503 
L 145.721664 295.645503 
L 145.721664 295.50209 
L 150.56505 295.50209 
L 150.56505 295.358677 
L 150.858013 295.358677 
L 150.858013 295.215264 
L 152.436193 295.215264 
L 152.436193 295.071851 
L 156.976607 295.071851 
L 156.976607 294.928438 
L 158.863624 294.928438 
L 158.863624 294.785025 
L 158.9003 294.785025 
L 158.9003 294.641612 
L 167.083081 294.641612 
L 167.083081 294.498199 
L 170.09983 294.498199 
L 170.09983 294.354786 
L 170.443391 294.354786 
L 170.443391 294.211373 
L 172.956059 294.211373 
L 172.956059 294.06796 
L 174.921573 294.06796 
L 174.921573 293.924547 
L 178.63249 293.924547 
L 178.63249 293.781135 
L 183.122014 293.781135 
L 183.122014 293.637722 
L 187.700569 293.637722 
L 187.700569 293.494309 
L 188.686885 293.494309 
L 188.686885 293.350896 
L 191.31136 293.350896 
L 191.31136 293.207483 
L 338.688 293.207483 
" style="fill:none;stroke:#000000;stroke-linecap:square;stroke-width:1.5;"/>
   </g>
   <g id="line2d_46">
    <defs>
     <path d="M 0 6 
C 1.591219 6 3.117479 5.367802 4.242641 4.242641 
C 5.367802 3.117479 6 1.591219 6 0 
C 6 -1.591219 5.367802 -3.117479 4.242641 -4.242641 
C 3.117479 -5.367802 1.591219 -6 0 -6 
C -1.591219 -6 -3.117479 -5.367802 -4.242641 -4.242641 
C -5.367802 -3.117479 -6 -1.591219 -6 0 
C -6 1.591219 -5.367802 3.117479 -4.242641 4.242641 
C -3.117479 5.367802 -1.591219 6 0 6 
z
" id="m30ba828710" style="stroke:#000000;stroke-width:1.5;"/>
    </defs>
    <g>
     <use style="fill-opacity:0;stroke:#000000;stroke-width:1.5;" x="145.721664" xlink:href="#m30ba828710" y="295.50209"/>
     <use style="fill-opacity:0;stroke:#000000;stroke-width:1.5;" x="191.31136" xlink:href="#m30ba828710" y="293.350896"/>
     <use style="fill-opacity:0;stroke:#000000;stroke-width:1.5;" x="191.31136" xlink:href="#m30ba828710" y="293.207483"/>
     <use style="fill-opacity:0;stroke:#000000;stroke-width:1.5;" x="191.31136" xlink:href="#m30ba828710" y="293.207483"/>
     <use style="fill-opacity:0;stroke:#000000;stroke-width:1.5;" x="338.688" xlink:href="#m30ba828710" y="293.207483"/>
    </g>
   </g>
   <g id="line2d_47">
    <path style="fill:none;stroke:#000000;stroke-linecap:square;stroke-width:1.5;"/>
    <g/>
   </g>
   <g id="line2d_48">
    <path clip-path="url(#p7c77badbbf)" d="M 137.963097 296.649393 
" style="fill:none;stroke:#000000;stroke-linecap:square;stroke-width:1.5;"/>
    <defs>
     <path d="M -12 12 
L 12 -12 
M -12 -12 
L 12 12 
" id="m7003537e52" style="stroke:#000000;"/>
    </defs>
    <g clip-path="url(#p7c77badbbf)">
     <use style="stroke:#000000;" x="137.963097" xlink:href="#m7003537e52" y="296.649393"/>
    </g>
   </g>
   <g id="line2d_49">
    <path clip-path="url(#p7c77badbbf)" d="M 57.6 298.944 
L 57.6 298.944 
L 57.6 298.944 
L 57.6 298.944 
L 338.688 298.944 
" style="fill:none;stroke:#ff0000;stroke-linecap:square;stroke-width:1.5;"/>
   </g>
   <g id="line2d_50">
    <defs>
     <path d="M -6 6 
L 6 6 
L 6 -6 
L -6 -6 
z
" id="m863dadf75e" style="stroke:#ff0000;stroke-linejoin:miter;stroke-width:1.5;"/>
    </defs>
    <g clip-path="url(#p7c77badbbf)">
     <use style="fill-opacity:0;stroke:#ff0000;stroke-linejoin:miter;stroke-width:1.5;" x="57.6" xlink:href="#m863dadf75e" y="298.944"/>
    </g>
   </g>
   <g id="line2d_51">
    <path clip-path="url(#p7c77badbbf)" style="fill:none;stroke:#ff0000;stroke-linecap:square;stroke-width:1.5;"/>
    <g clip-path="url(#p7c77badbbf)">
     <use style="fill-opacity:0;stroke:#ff0000;stroke-linejoin:miter;stroke-width:1.5;" x="-1" xlink:href="#m863dadf75e" y="591.506376"/>
     <use style="fill-opacity:0;stroke:#ff0000;stroke-linejoin:miter;stroke-width:1.5;" x="338.688" xlink:href="#m863dadf75e" y="591.506376"/>
    </g>
   </g>
   <g id="line2d_52">
    <path clip-path="url(#p7c77badbbf)" d="M 57.6 298.944 
L 57.6 298.944 
L 57.6 298.944 
L 57.6 298.944 
L 338.688 298.944 
" style="fill:none;stroke:#bf00bf;stroke-linecap:square;stroke-width:1.5;"/>
   </g>
   <g id="line2d_53">
    <defs>
     <path d="M 0 8.485281 
L 8.485281 0 
L 0 -8.485281 
L -8.485281 0 
z
" id="mc88cac79c0" style="stroke:#bf00bf;stroke-linejoin:miter;stroke-width:1.5;"/>
    </defs>
    <g clip-path="url(#p7c77badbbf)">
     <use style="fill-opacity:0;stroke:#bf00bf;stroke-linejoin:miter;stroke-width:1.5;" x="57.6" xlink:href="#mc88cac79c0" y="298.944"/>
    </g>
   </g>
   <g id="line2d_54">
    <path clip-path="url(#p7c77badbbf)" style="fill:none;stroke:#bf00bf;stroke-linecap:square;stroke-width:1.5;"/>
    <g clip-path="url(#p7c77badbbf)">
     <use style="fill-opacity:0;stroke:#bf00bf;stroke-linejoin:miter;stroke-width:1.5;" x="-1" xlink:href="#mc88cac79c0" y="591.506376"/>
     <use style="fill-opacity:0;stroke:#bf00bf;stroke-linejoin:miter;stroke-width:1.5;" x="338.688" xlink:href="#mc88cac79c0" y="591.506376"/>
    </g>
   </g>
   <g id="line2d_55">
    <path d="M 338.688 298.944 
L 369.60768 293.092752 
" style="fill:none;stroke:#bf00bf;stroke-linecap:square;stroke-width:1.5;"/>
    <g>
     <use style="fill-opacity:0;stroke:#bf00bf;stroke-linejoin:miter;stroke-width:1.5;" x="338.688" xlink:href="#mc88cac79c0" y="298.944"/>
     <use style="fill-opacity:0;stroke:#bf00bf;stroke-linejoin:miter;stroke-width:1.5;" x="369.60768" xlink:href="#mc88cac79c0" y="293.092752"/>
    </g>
   </g>
   <g id="line2d_56">
    <path d="M 338.688 298.944 
L 369.60768 236.920776 
" style="fill:none;stroke:#ff0000;stroke-linecap:square;stroke-width:1.5;"/>
    <g>
     <use style="fill-opacity:0;stroke:#ff0000;stroke-linejoin:miter;stroke-width:1.5;" x="338.688" xlink:href="#m863dadf75e" y="298.944"/>
     <use style="fill-opacity:0;stroke:#ff0000;stroke-linejoin:miter;stroke-width:1.5;" x="369.60768" xlink:href="#m863dadf75e" y="236.920776"/>
    </g>
   </g>
   <g id="line2d_57">
    <path d="M 338.688 293.207483 
L 369.60768 180.7488 
" style="fill:none;stroke:#000000;stroke-linecap:square;stroke-width:1.5;"/>
    <g>
     <use style="fill-opacity:0;stroke:#000000;stroke-width:1.5;" x="338.688" xlink:href="#m30ba828710" y="293.207483"/>
     <use style="fill-opacity:0;stroke:#000000;stroke-width:1.5;" x="369.60768" xlink:href="#m30ba828710" y="180.7488"/>
    </g>
   </g>
   <g id="line2d_58">
    <path d="M 338.688 268.827285 
L 369.60768 124.576824 
" style="fill:none;stroke:#0000ff;stroke-linecap:square;stroke-width:1.5;"/>
    <g>
     <use style="fill-opacity:0;stroke:#0000ff;stroke-linejoin:bevel;stroke-width:1.5;" x="338.688" xlink:href="#mdf3b554505" y="268.827285"/>
     <use style="fill-opacity:0;stroke:#0000ff;stroke-linejoin:bevel;stroke-width:1.5;" x="369.60768" xlink:href="#mdf3b554505" y="124.576824"/>
    </g>
   </g>
   <g id="line2d_59">
    <path d="M 338.688 240.144699 
L 369.60768 68.404848 
" style="fill:none;stroke:#008000;stroke-linecap:square;stroke-width:1.5;"/>
    <g>
     <use style="fill-opacity:0;stroke:#008000;stroke-linejoin:miter;stroke-width:1.5;" x="338.688" xlink:href="#m5fd83bc21f" y="240.144699"/>
     <use style="fill-opacity:0;stroke:#008000;stroke-linejoin:miter;stroke-width:1.5;" x="369.60768" xlink:href="#m5fd83bc21f" y="68.404848"/>
    </g>
   </g>
   <g id="line2d_60">
    <path d="M 338.688 199.989079 
L 369.60768 12.232871 
" style="fill:none;stroke:#00bfbf;stroke-linecap:square;stroke-width:1.5;"/>
    <g>
     <use style="fill-opacity:0;stroke:#00bfbf;stroke-width:1.5;" x="338.688" xlink:href="#m8fbd13ba58" y="199.989079"/>
     <use style="fill-opacity:0;stroke:#00bfbf;stroke-width:1.5;" x="369.60768" xlink:href="#m8fbd13ba58" y="12.232871"/>
    </g>
   </g>
   <g id="line2d_61">
    <path d="M 338.688 298.944 
L 338.688 6.381624 
" style="fill:none;stroke:#000000;stroke-linecap:square;stroke-width:1.5;"/>
   </g>
   <g id="patch_3">
    <path d="M 57.6 298.944 
L 57.6 3.456 
" style="fill:none;stroke:#000000;stroke-linecap:square;stroke-linejoin:miter;stroke-width:0.8;"/>
   </g>
   <g id="patch_4">
    <path d="M 338.688 298.944 
L 338.688 3.456 
" style="fill:none;stroke:#000000;stroke-linecap:square;stroke-linejoin:miter;stroke-width:0.8;"/>
   </g>
   <g id="patch_5">
    <path d="M 57.6 298.944 
L 338.688 298.944 
" style="fill:none;stroke:#000000;stroke-linecap:square;stroke-linejoin:miter;stroke-width:0.8;"/>
   </g>
   <g id="patch_6">
    <path d="M 57.6 3.456 
L 338.688 3.456 
" style="fill:none;stroke:#000000;stroke-linecap:square;stroke-linejoin:miter;stroke-width:0.8;"/>
   </g>
   <g id="text_13">
    <!-- 40-D -->
    <g transform="translate(375.22944 297.78369)scale(0.17 -0.17)">
     <defs>
      <path d="M 1259 4147 
L 1259 519 
L 2022 519 
Q 2988 519 3436 956 
Q 3884 1394 3884 2338 
Q 3884 3275 3436 3711 
Q 2988 4147 2022 4147 
L 1259 4147 
z
M 628 4666 
L 1925 4666 
Q 3281 4666 3915 4102 
Q 4550 3538 4550 2338 
Q 4550 1131 3912 565 
Q 3275 0 1925 0 
L 628 0 
L 628 4666 
z
" id="DejaVuSans-44" transform="scale(0.015625)"/>
     </defs>
     <use xlink:href="#DejaVuSans-34"/>
     <use x="63.623047" xlink:href="#DejaVuSans-30"/>
     <use x="127.246094" xlink:href="#DejaVuSans-2d"/>
     <use x="163.330078" xlink:href="#DejaVuSans-44"/>
    </g>
   </g>
   <g id="text_14">
    <!-- 20-D -->
    <g transform="translate(375.22944 241.611714)scale(0.17 -0.17)">
     <use xlink:href="#DejaVuSans-32"/>
     <use x="63.623047" xlink:href="#DejaVuSans-30"/>
     <use x="127.246094" xlink:href="#DejaVuSans-2d"/>
     <use x="163.330078" xlink:href="#DejaVuSans-44"/>
    </g>
   </g>
   <g id="text_15">
    <!-- 10-D -->
    <g transform="translate(375.22944 185.439737)scale(0.17 -0.17)">
     <use xlink:href="#DejaVuSans-31"/>
     <use x="63.623047" xlink:href="#DejaVuSans-30"/>
     <use x="127.246094" xlink:href="#DejaVuSans-2d"/>
     <use x="163.330078" xlink:href="#DejaVuSans-44"/>
    </g>
   </g>
   <g id="text_16">
    <!-- 5-D -->
    <g transform="translate(375.22944 129.267761)scale(0.17 -0.17)">
     <defs>
      <path d="M 691 4666 
L 3169 4666 
L 3169 4134 
L 1269 4134 
L 1269 2991 
Q 1406 3038 1543 3061 
Q 1681 3084 1819 3084 
Q 2600 3084 3056 2656 
Q 3513 2228 3513 1497 
Q 3513 744 3044 326 
Q 2575 -91 1722 -91 
Q 1428 -91 1123 -41 
Q 819 9 494 109 
L 494 744 
Q 775 591 1075 516 
Q 1375 441 1709 441 
Q 2250 441 2565 725 
Q 2881 1009 2881 1497 
Q 2881 1984 2565 2268 
Q 2250 2553 1709 2553 
Q 1456 2553 1204 2497 
Q 953 2441 691 2322 
L 691 4666 
z
" id="DejaVuSans-35" transform="scale(0.015625)"/>
     </defs>
     <use xlink:href="#DejaVuSans-35"/>
     <use x="63.623047" xlink:href="#DejaVuSans-2d"/>
     <use x="99.707031" xlink:href="#DejaVuSans-44"/>
    </g>
   </g>
   <g id="text_17">
    <!-- 3-D -->
    <g transform="translate(375.22944 73.095785)scale(0.17 -0.17)">
     <defs>
      <path d="M 2597 2516 
Q 3050 2419 3304 2112 
Q 3559 1806 3559 1356 
Q 3559 666 3084 287 
Q 2609 -91 1734 -91 
Q 1441 -91 1130 -33 
Q 819 25 488 141 
L 488 750 
Q 750 597 1062 519 
Q 1375 441 1716 441 
Q 2309 441 2620 675 
Q 2931 909 2931 1356 
Q 2931 1769 2642 2001 
Q 2353 2234 1838 2234 
L 1294 2234 
L 1294 2753 
L 1863 2753 
Q 2328 2753 2575 2939 
Q 2822 3125 2822 3475 
Q 2822 3834 2567 4026 
Q 2313 4219 1838 4219 
Q 1578 4219 1281 4162 
Q 984 4106 628 3988 
L 628 4550 
Q 988 4650 1302 4700 
Q 1616 4750 1894 4750 
Q 2613 4750 3031 4423 
Q 3450 4097 3450 3541 
Q 3450 3153 3228 2886 
Q 3006 2619 2597 2516 
z
" id="DejaVuSans-33" transform="scale(0.015625)"/>
     </defs>
     <use xlink:href="#DejaVuSans-33"/>
     <use x="63.623047" xlink:href="#DejaVuSans-2d"/>
     <use x="99.707031" xlink:href="#DejaVuSans-44"/>
    </g>
   </g>
   <g id="text_18">
    <!-- 2-D -->
    <g transform="translate(375.22944 16.923809)scale(0.17 -0.17)">
     <use xlink:href="#DejaVuSans-32"/>
     <use x="63.623047" xlink:href="#DejaVuSans-2d"/>
     <use x="99.707031" xlink:href="#DejaVuSans-44"/>
    </g>
   </g>
   <g id="text_19">
    <!-- bbob f6-f9 -->
    <g transform="translate(60.41088 14.161286)scale(0.102 -0.102)">
     <defs>
      <path d="M 3116 1747 
Q 3116 2381 2855 2742 
Q 2594 3103 2138 3103 
Q 1681 3103 1420 2742 
Q 1159 2381 1159 1747 
Q 1159 1113 1420 752 
Q 1681 391 2138 391 
Q 2594 391 2855 752 
Q 3116 1113 3116 1747 
z
M 1159 2969 
Q 1341 3281 1617 3432 
Q 1894 3584 2278 3584 
Q 2916 3584 3314 3078 
Q 3713 2572 3713 1747 
Q 3713 922 3314 415 
Q 2916 -91 2278 -91 
Q 1894 -91 1617 61 
Q 1341 213 1159 525 
L 1159 0 
L 581 0 
L 581 4863 
L 1159 4863 
L 1159 2969 
z
" id="DejaVuSans-62" transform="scale(0.015625)"/>
      <path d="M 703 97 
L 703 672 
Q 941 559 1184 500 
Q 1428 441 1663 441 
Q 2288 441 2617 861 
Q 2947 1281 2994 2138 
Q 2813 1869 2534 1725 
Q 2256 1581 1919 1581 
Q 1219 1581 811 2004 
Q 403 2428 403 3163 
Q 403 3881 828 4315 
Q 1253 4750 1959 4750 
Q 2769 4750 3195 4129 
Q 3622 3509 3622 2328 
Q 3622 1225 3098 567 
Q 2575 -91 1691 -91 
Q 1453 -91 1209 -44 
Q 966 3 703 97 
z
M 1959 2075 
Q 2384 2075 2632 2365 
Q 2881 2656 2881 3163 
Q 2881 3666 2632 3958 
Q 2384 4250 1959 4250 
Q 1534 4250 1286 3958 
Q 1038 3666 1038 3163 
Q 1038 2656 1286 2365 
Q 1534 2075 1959 2075 
z
" id="DejaVuSans-39" transform="scale(0.015625)"/>
     </defs>
     <use xlink:href="#DejaVuSans-62"/>
     <use x="63.476562" xlink:href="#DejaVuSans-62"/>
     <use x="126.953125" xlink:href="#DejaVuSans-6f"/>
     <use x="188.134766" xlink:href="#DejaVuSans-62"/>
     <use x="251.611328" xlink:href="#DejaVuSans-20"/>
     <use x="283.398438" xlink:href="#DejaVuSans-66"/>
     <use x="318.603516" xlink:href="#DejaVuSans-36"/>
     <use x="382.226562" xlink:href="#DejaVuSans-2d"/>
     <use x="418.310547" xlink:href="#DejaVuSans-66"/>
     <use x="453.515625" xlink:href="#DejaVuSans-39"/>
    </g>
    <!-- 51 targets: 100..1e-08 -->
    <g transform="translate(60.41088 25.583055)scale(0.102 -0.102)">
     <defs>
      <path d="M 750 794 
L 1409 794 
L 1409 0 
L 750 0 
L 750 794 
z
M 750 3309 
L 1409 3309 
L 1409 2516 
L 750 2516 
L 750 3309 
z
" id="DejaVuSans-3a" transform="scale(0.015625)"/>
     </defs>
     <use xlink:href="#DejaVuSans-35"/>
     <use x="63.623047" xlink:href="#DejaVuSans-31"/>
     <use x="127.246094" xlink:href="#DejaVuSans-20"/>
     <use x="159.033203" xlink:href="#DejaVuSans-74"/>
     <use x="198.242188" xlink:href="#DejaVuSans-61"/>
     <use x="259.521484" xlink:href="#DejaVuSans-72"/>
     <use x="298.884766" xlink:href="#DejaVuSans-67"/>
     <use x="362.361328" xlink:href="#DejaVuSans-65"/>
     <use x="423.884766" xlink:href="#DejaVuSans-74"/>
     <use x="463.09375" xlink:href="#DejaVuSans-73"/>
     <use x="515.193359" xlink:href="#DejaVuSans-3a"/>
     <use x="548.884766" xlink:href="#DejaVuSans-20"/>
     <use x="580.671875" xlink:href="#DejaVuSans-31"/>
     <use x="644.294922" xlink:href="#DejaVuSans-30"/>
     <use x="707.917969" xlink:href="#DejaVuSans-30"/>
     <use x="771.541016" xlink:href="#DejaVuSans-2e"/>
     <use x="803.328125" xlink:href="#DejaVuSans-2e"/>
     <use x="835.115234" xlink:href="#DejaVuSans-31"/>
     <use x="898.738281" xlink:href="#DejaVuSans-65"/>
     <use x="960.261719" xlink:href="#DejaVuSans-2d"/>
     <use x="996.345703" xlink:href="#DejaVuSans-30"/>
     <use x="1059.96875" xlink:href="#DejaVuSans-38"/>
    </g>
    <!-- 15 instances -->
    <g transform="translate(60.41088 37.004824)scale(0.102 -0.102)">
     <use xlink:href="#DejaVuSans-31"/>
     <use x="63.623047" xlink:href="#DejaVuSans-35"/>
     <use x="127.246094" xlink:href="#DejaVuSans-20"/>
     <use x="159.033203" xlink:href="#DejaVuSans-69"/>
     <use x="186.816406" xlink:href="#DejaVuSans-6e"/>
     <use x="250.195312" xlink:href="#DejaVuSans-73"/>
     <use x="302.294922" xlink:href="#DejaVuSans-74"/>
     <use x="341.503906" xlink:href="#DejaVuSans-61"/>
     <use x="402.783203" xlink:href="#DejaVuSans-6e"/>
     <use x="466.162109" xlink:href="#DejaVuSans-63"/>
     <use x="521.142578" xlink:href="#DejaVuSans-65"/>
     <use x="582.666016" xlink:href="#DejaVuSans-73"/>
    </g>
   </g>
   <g id="text_20">
    <!-- v2.4 -->
    <g style="fill:#808080;" transform="translate(187.233062 293.909432)scale(0.1 -0.1)">
     <use xlink:href="#DejaVuSans-76"/>
     <use x="59.179688" xlink:href="#DejaVuSans-32"/>
     <use x="122.802734" xlink:href="#DejaVuSans-2e"/>
     <use x="154.589844" xlink:href="#DejaVuSans-34"/>
    </g>
   </g>
  </g>
 </g>
 <defs>
  <clipPath id="p7c77badbbf">
   <rect height="295.488" width="281.088" x="57.6" y="3.456"/>
  </clipPath>
 </defs>
</svg>
