<?xml version="1.0" encoding="utf-8" standalone="no"?>
<!DOCTYPE svg PUBLIC "-//W3C//DTD SVG 1.1//EN"
  "http://www.w3.org/Graphics/SVG/1.1/DTD/svg11.dtd">
<svg height="345.6pt" version="1.1" viewBox="0 0 460.8 345.6" width="460.8pt" xmlns="http://www.w3.org/2000/svg" xmlns:xlink="http://www.w3.org/1999/xlink">
 <metadata>
  <rdf:RDF xmlns:cc="http://creativecommons.org/ns#" xmlns:dc="http://purl.org/dc/elements/1.1/" xmlns:rdf="http://www.w3.org/1999/02/22-rdf-syntax-ns#">
   <cc:Work>
    <dc:type rdf:resource="http://purl.org/dc/dcmitype/StillImage"/>
    <dc:date>2021-06-14T12:33:48.892076</dc:date>
    <dc:format>image/svg+xml</dc:format>
    <dc:creator>
     <cc:Agent>
      <dc:title>Matplotlib v3.4.2, https://matplotlib.org/</dc:title>
     </cc:Agent>
    </dc:creator>
   </cc:Work>
  </rdf:RDF>
 </metadata>
 <defs>
  <style type="text/css">*{stroke-linecap:butt;stroke-linejoin:round;}</style>
 </defs>
 <g id="figure_1">
  <g id="patch_1">
   <path d="M 0 345.6 
L 460.8 345.6 
L 460.8 0 
L 0 0 
z
" style="fill:#ffffff;"/>
  </g>
  <g id="axes_1">
   <g id="patch_2">
    <path d="M 57.6 298.944 
L 338.688 298.944 
L 338.688 3.456 
L 57.6 3.456 
z
" style="fill:#ffffff;"/>
   </g>
   <g id="matplotlib.axis_1">
    <g id="xtick_1">
     <g id="line2d_1">
      <path clip-path="url(#p76cada8edc)" d="M 57.6 298.944 
L 57.6 3.456 
" style="fill:none;stroke:#b0b0b0;stroke-linecap:square;stroke-width:0.8;"/>
     </g>
     <g id="line2d_2">
      <defs>
       <path d="M 0 0 
L 0 3.5 
" id="m42d078f48a" style="stroke:#000000;stroke-width:0.8;"/>
      </defs>
      <g>
       <use style="stroke:#000000;stroke-width:0.8;" x="57.6" xlink:href="#m42d078f48a" y="298.944"/>
      </g>
     </g>
     <g id="text_1">
      <!-- 0 -->
      <g transform="translate(51.2375 321.140875)scale(0.2 -0.2)">
       <defs>
        <path d="M 2034 4250 
Q 1547 4250 1301 3770 
Q 1056 3291 1056 2328 
Q 1056 1369 1301 889 
Q 1547 409 2034 409 
Q 2525 409 2770 889 
Q 3016 1369 3016 2328 
Q 3016 3291 2770 3770 
Q 2525 4250 2034 4250 
z
M 2034 4750 
Q 2819 4750 3233 4129 
Q 3647 3509 3647 2328 
Q 3647 1150 3233 529 
Q 2819 -91 2034 -91 
Q 1250 -91 836 529 
Q 422 1150 422 2328 
Q 422 3509 836 4129 
Q 1250 4750 2034 4750 
z
" id="DejaVuSans-30" transform="scale(0.015625)"/>
       </defs>
       <use xlink:href="#DejaVuSans-30"/>
      </g>
     </g>
    </g>
    <g id="xtick_2">
     <g id="line2d_3">
      <path clip-path="url(#p76cada8edc)" d="M 137.910857 298.944 
L 137.910857 3.456 
" style="fill:none;stroke:#b0b0b0;stroke-linecap:square;stroke-width:0.8;"/>
     </g>
     <g id="line2d_4">
      <g>
       <use style="stroke:#000000;stroke-width:0.8;" x="137.910857" xlink:href="#m42d078f48a" y="298.944"/>
      </g>
     </g>
     <g id="text_2">
      <!-- 2 -->
      <g transform="translate(131.548357 321.140875)scale(0.2 -0.2)">
       <defs>
        <path d="M 1228 531 
L 3431 531 
L 3431 0 
L 469 0 
L 469 531 
Q 828 903 1448 1529 
Q 2069 2156 2228 2338 
Q 2531 2678 2651 2914 
Q 2772 3150 2772 3378 
Q 2772 3750 2511 3984 
Q 2250 4219 1831 4219 
Q 1534 4219 1204 4116 
Q 875 4013 500 3803 
L 500 4441 
Q 881 4594 1212 4672 
Q 1544 4750 1819 4750 
Q 2544 4750 2975 4387 
Q 3406 4025 3406 3419 
Q 3406 3131 3298 2873 
Q 3191 2616 2906 2266 
Q 2828 2175 2409 1742 
Q 1991 1309 1228 531 
z
" id="DejaVuSans-32" transform="scale(0.015625)"/>
       </defs>
       <use xlink:href="#DejaVuSans-32"/>
      </g>
     </g>
    </g>
    <g id="xtick_3">
     <g id="line2d_5">
      <path clip-path="url(#p76cada8edc)" d="M 218.221714 298.944 
L 218.221714 3.456 
" style="fill:none;stroke:#b0b0b0;stroke-linecap:square;stroke-width:0.8;"/>
     </g>
     <g id="line2d_6">
      <g>
       <use style="stroke:#000000;stroke-width:0.8;" x="218.221714" xlink:href="#m42d078f48a" y="298.944"/>
      </g>
     </g>
     <g id="text_3">
      <!-- 4 -->
      <g transform="translate(211.859214 321.140875)scale(0.2 -0.2)">
       <defs>
        <path d="M 2419 4116 
L 825 1625 
L 2419 1625 
L 2419 4116 
z
M 2253 4666 
L 3047 4666 
L 3047 1625 
L 3713 1625 
L 3713 1100 
L 3047 1100 
L 3047 0 
L 2419 0 
L 2419 1100 
L 313 1100 
L 313 1709 
L 2253 4666 
z
" id="DejaVuSans-34" transform="scale(0.015625)"/>
       </defs>
       <use xlink:href="#DejaVuSans-34"/>
      </g>
     </g>
    </g>
    <g id="xtick_4">
     <g id="line2d_7">
      <path clip-path="url(#p76cada8edc)" d="M 298.532571 298.944 
L 298.532571 3.456 
" style="fill:none;stroke:#b0b0b0;stroke-linecap:square;stroke-width:0.8;"/>
     </g>
     <g id="line2d_8">
      <g>
       <use style="stroke:#000000;stroke-width:0.8;" x="298.532571" xlink:href="#m42d078f48a" y="298.944"/>
      </g>
     </g>
     <g id="text_4">
      <!-- 6 -->
      <g transform="translate(292.170071 321.140875)scale(0.2 -0.2)">
       <defs>
        <path d="M 2113 2584 
Q 1688 2584 1439 2293 
Q 1191 2003 1191 1497 
Q 1191 994 1439 701 
Q 1688 409 2113 409 
Q 2538 409 2786 701 
Q 3034 994 3034 1497 
Q 3034 2003 2786 2293 
Q 2538 2584 2113 2584 
z
M 3366 4563 
L 3366 3988 
Q 3128 4100 2886 4159 
Q 2644 4219 2406 4219 
Q 1781 4219 1451 3797 
Q 1122 3375 1075 2522 
Q 1259 2794 1537 2939 
Q 1816 3084 2150 3084 
Q 2853 3084 3261 2657 
Q 3669 2231 3669 1497 
Q 3669 778 3244 343 
Q 2819 -91 2113 -91 
Q 1303 -91 875 529 
Q 447 1150 447 2328 
Q 447 3434 972 4092 
Q 1497 4750 2381 4750 
Q 2619 4750 2861 4703 
Q 3103 4656 3366 4563 
z
" id="DejaVuSans-36" transform="scale(0.015625)"/>
       </defs>
       <use xlink:href="#DejaVuSans-36"/>
      </g>
     </g>
    </g>
    <g id="xtick_5">
     <g id="line2d_9">
      <path clip-path="url(#p76cada8edc)" d="M 97.755429 298.944 
L 97.755429 3.456 
" style="fill:none;stroke:#b0b0b0;stroke-linecap:square;stroke-width:0.8;"/>
     </g>
     <g id="line2d_10">
      <defs>
       <path d="M 0 0 
L 0 2 
" id="m043954cb39" style="stroke:#000000;stroke-width:0.6;"/>
      </defs>
      <g>
       <use style="stroke:#000000;stroke-width:0.6;" x="97.755429" xlink:href="#m043954cb39" y="298.944"/>
      </g>
     </g>
    </g>
    <g id="xtick_6">
     <g id="line2d_11">
      <path clip-path="url(#p76cada8edc)" d="M 178.066286 298.944 
L 178.066286 3.456 
" style="fill:none;stroke:#b0b0b0;stroke-linecap:square;stroke-width:0.8;"/>
     </g>
     <g id="line2d_12">
      <g>
       <use style="stroke:#000000;stroke-width:0.6;" x="178.066286" xlink:href="#m043954cb39" y="298.944"/>
      </g>
     </g>
    </g>
    <g id="xtick_7">
     <g id="line2d_13">
      <path clip-path="url(#p76cada8edc)" d="M 258.377143 298.944 
L 258.377143 3.456 
" style="fill:none;stroke:#b0b0b0;stroke-linecap:square;stroke-width:0.8;"/>
     </g>
     <g id="line2d_14">
      <g>
       <use style="stroke:#000000;stroke-width:0.6;" x="258.377143" xlink:href="#m043954cb39" y="298.944"/>
      </g>
     </g>
    </g>
    <g id="xtick_8">
     <g id="line2d_15">
      <path clip-path="url(#p76cada8edc)" d="M 338.688 298.944 
L 338.688 3.456 
" style="fill:none;stroke:#b0b0b0;stroke-linecap:square;stroke-width:0.8;"/>
     </g>
     <g id="line2d_16">
      <g>
       <use style="stroke:#000000;stroke-width:0.6;" x="338.688" xlink:href="#m043954cb39" y="298.944"/>
      </g>
     </g>
    </g>
    <g id="text_5">
     <!-- log10(# f-evals / dimension) -->
     <g transform="translate(77.764078 342.217594)scale(0.17 -0.17)">
      <defs>
       <path d="M 603 4863 
L 1178 4863 
L 1178 0 
L 603 0 
L 603 4863 
z
" id="DejaVuSans-6c" transform="scale(0.015625)"/>
       <path d="M 1959 3097 
Q 1497 3097 1228 2736 
Q 959 2375 959 1747 
Q 959 1119 1226 758 
Q 1494 397 1959 397 
Q 2419 397 2687 759 
Q 2956 1122 2956 1747 
Q 2956 2369 2687 2733 
Q 2419 3097 1959 3097 
z
M 1959 3584 
Q 2709 3584 3137 3096 
Q 3566 2609 3566 1747 
Q 3566 888 3137 398 
Q 2709 -91 1959 -91 
Q 1206 -91 779 398 
Q 353 888 353 1747 
Q 353 2609 779 3096 
Q 1206 3584 1959 3584 
z
" id="DejaVuSans-6f" transform="scale(0.015625)"/>
       <path d="M 2906 1791 
Q 2906 2416 2648 2759 
Q 2391 3103 1925 3103 
Q 1463 3103 1205 2759 
Q 947 2416 947 1791 
Q 947 1169 1205 825 
Q 1463 481 1925 481 
Q 2391 481 2648 825 
Q 2906 1169 2906 1791 
z
M 3481 434 
Q 3481 -459 3084 -895 
Q 2688 -1331 1869 -1331 
Q 1566 -1331 1297 -1286 
Q 1028 -1241 775 -1147 
L 775 -588 
Q 1028 -725 1275 -790 
Q 1522 -856 1778 -856 
Q 2344 -856 2625 -561 
Q 2906 -266 2906 331 
L 2906 616 
Q 2728 306 2450 153 
Q 2172 0 1784 0 
Q 1141 0 747 490 
Q 353 981 353 1791 
Q 353 2603 747 3093 
Q 1141 3584 1784 3584 
Q 2172 3584 2450 3431 
Q 2728 3278 2906 2969 
L 2906 3500 
L 3481 3500 
L 3481 434 
z
" id="DejaVuSans-67" transform="scale(0.015625)"/>
       <path d="M 794 531 
L 1825 531 
L 1825 4091 
L 703 3866 
L 703 4441 
L 1819 4666 
L 2450 4666 
L 2450 531 
L 3481 531 
L 3481 0 
L 794 0 
L 794 531 
z
" id="DejaVuSans-31" transform="scale(0.015625)"/>
       <path d="M 1984 4856 
Q 1566 4138 1362 3434 
Q 1159 2731 1159 2009 
Q 1159 1288 1364 580 
Q 1569 -128 1984 -844 
L 1484 -844 
Q 1016 -109 783 600 
Q 550 1309 550 2009 
Q 550 2706 781 3412 
Q 1013 4119 1484 4856 
L 1984 4856 
z
" id="DejaVuSans-28" transform="scale(0.015625)"/>
       <path d="M 3272 2816 
L 2363 2816 
L 2100 1772 
L 3016 1772 
L 3272 2816 
z
M 2803 4594 
L 2478 3297 
L 3391 3297 
L 3719 4594 
L 4219 4594 
L 3897 3297 
L 4872 3297 
L 4872 2816 
L 3775 2816 
L 3519 1772 
L 4513 1772 
L 4513 1294 
L 3397 1294 
L 3072 0 
L 2572 0 
L 2894 1294 
L 1978 1294 
L 1656 0 
L 1153 0 
L 1478 1294 
L 494 1294 
L 494 1772 
L 1594 1772 
L 1856 2816 
L 850 2816 
L 850 3297 
L 1978 3297 
L 2297 4594 
L 2803 4594 
z
" id="DejaVuSans-23" transform="scale(0.015625)"/>
       <path id="DejaVuSans-20" transform="scale(0.015625)"/>
       <path d="M 2375 4863 
L 2375 4384 
L 1825 4384 
Q 1516 4384 1395 4259 
Q 1275 4134 1275 3809 
L 1275 3500 
L 2222 3500 
L 2222 3053 
L 1275 3053 
L 1275 0 
L 697 0 
L 697 3053 
L 147 3053 
L 147 3500 
L 697 3500 
L 697 3744 
Q 697 4328 969 4595 
Q 1241 4863 1831 4863 
L 2375 4863 
z
" id="DejaVuSans-66" transform="scale(0.015625)"/>
       <path d="M 313 2009 
L 1997 2009 
L 1997 1497 
L 313 1497 
L 313 2009 
z
" id="DejaVuSans-2d" transform="scale(0.015625)"/>
       <path d="M 3597 1894 
L 3597 1613 
L 953 1613 
Q 991 1019 1311 708 
Q 1631 397 2203 397 
Q 2534 397 2845 478 
Q 3156 559 3463 722 
L 3463 178 
Q 3153 47 2828 -22 
Q 2503 -91 2169 -91 
Q 1331 -91 842 396 
Q 353 884 353 1716 
Q 353 2575 817 3079 
Q 1281 3584 2069 3584 
Q 2775 3584 3186 3129 
Q 3597 2675 3597 1894 
z
M 3022 2063 
Q 3016 2534 2758 2815 
Q 2500 3097 2075 3097 
Q 1594 3097 1305 2825 
Q 1016 2553 972 2059 
L 3022 2063 
z
" id="DejaVuSans-65" transform="scale(0.015625)"/>
       <path d="M 191 3500 
L 800 3500 
L 1894 563 
L 2988 3500 
L 3597 3500 
L 2284 0 
L 1503 0 
L 191 3500 
z
" id="DejaVuSans-76" transform="scale(0.015625)"/>
       <path d="M 2194 1759 
Q 1497 1759 1228 1600 
Q 959 1441 959 1056 
Q 959 750 1161 570 
Q 1363 391 1709 391 
Q 2188 391 2477 730 
Q 2766 1069 2766 1631 
L 2766 1759 
L 2194 1759 
z
M 3341 1997 
L 3341 0 
L 2766 0 
L 2766 531 
Q 2569 213 2275 61 
Q 1981 -91 1556 -91 
Q 1019 -91 701 211 
Q 384 513 384 1019 
Q 384 1609 779 1909 
Q 1175 2209 1959 2209 
L 2766 2209 
L 2766 2266 
Q 2766 2663 2505 2880 
Q 2244 3097 1772 3097 
Q 1472 3097 1187 3025 
Q 903 2953 641 2809 
L 641 3341 
Q 956 3463 1253 3523 
Q 1550 3584 1831 3584 
Q 2591 3584 2966 3190 
Q 3341 2797 3341 1997 
z
" id="DejaVuSans-61" transform="scale(0.015625)"/>
       <path d="M 2834 3397 
L 2834 2853 
Q 2591 2978 2328 3040 
Q 2066 3103 1784 3103 
Q 1356 3103 1142 2972 
Q 928 2841 928 2578 
Q 928 2378 1081 2264 
Q 1234 2150 1697 2047 
L 1894 2003 
Q 2506 1872 2764 1633 
Q 3022 1394 3022 966 
Q 3022 478 2636 193 
Q 2250 -91 1575 -91 
Q 1294 -91 989 -36 
Q 684 19 347 128 
L 347 722 
Q 666 556 975 473 
Q 1284 391 1588 391 
Q 1994 391 2212 530 
Q 2431 669 2431 922 
Q 2431 1156 2273 1281 
Q 2116 1406 1581 1522 
L 1381 1569 
Q 847 1681 609 1914 
Q 372 2147 372 2553 
Q 372 3047 722 3315 
Q 1072 3584 1716 3584 
Q 2034 3584 2315 3537 
Q 2597 3491 2834 3397 
z
" id="DejaVuSans-73" transform="scale(0.015625)"/>
       <path d="M 1625 4666 
L 2156 4666 
L 531 -594 
L 0 -594 
L 1625 4666 
z
" id="DejaVuSans-2f" transform="scale(0.015625)"/>
       <path d="M 2906 2969 
L 2906 4863 
L 3481 4863 
L 3481 0 
L 2906 0 
L 2906 525 
Q 2725 213 2448 61 
Q 2172 -91 1784 -91 
Q 1150 -91 751 415 
Q 353 922 353 1747 
Q 353 2572 751 3078 
Q 1150 3584 1784 3584 
Q 2172 3584 2448 3432 
Q 2725 3281 2906 2969 
z
M 947 1747 
Q 947 1113 1208 752 
Q 1469 391 1925 391 
Q 2381 391 2643 752 
Q 2906 1113 2906 1747 
Q 2906 2381 2643 2742 
Q 2381 3103 1925 3103 
Q 1469 3103 1208 2742 
Q 947 2381 947 1747 
z
" id="DejaVuSans-64" transform="scale(0.015625)"/>
       <path d="M 603 3500 
L 1178 3500 
L 1178 0 
L 603 0 
L 603 3500 
z
M 603 4863 
L 1178 4863 
L 1178 4134 
L 603 4134 
L 603 4863 
z
" id="DejaVuSans-69" transform="scale(0.015625)"/>
       <path d="M 3328 2828 
Q 3544 3216 3844 3400 
Q 4144 3584 4550 3584 
Q 5097 3584 5394 3201 
Q 5691 2819 5691 2113 
L 5691 0 
L 5113 0 
L 5113 2094 
Q 5113 2597 4934 2840 
Q 4756 3084 4391 3084 
Q 3944 3084 3684 2787 
Q 3425 2491 3425 1978 
L 3425 0 
L 2847 0 
L 2847 2094 
Q 2847 2600 2669 2842 
Q 2491 3084 2119 3084 
Q 1678 3084 1418 2786 
Q 1159 2488 1159 1978 
L 1159 0 
L 581 0 
L 581 3500 
L 1159 3500 
L 1159 2956 
Q 1356 3278 1631 3431 
Q 1906 3584 2284 3584 
Q 2666 3584 2933 3390 
Q 3200 3197 3328 2828 
z
" id="DejaVuSans-6d" transform="scale(0.015625)"/>
       <path d="M 3513 2113 
L 3513 0 
L 2938 0 
L 2938 2094 
Q 2938 2591 2744 2837 
Q 2550 3084 2163 3084 
Q 1697 3084 1428 2787 
Q 1159 2491 1159 1978 
L 1159 0 
L 581 0 
L 581 3500 
L 1159 3500 
L 1159 2956 
Q 1366 3272 1645 3428 
Q 1925 3584 2291 3584 
Q 2894 3584 3203 3211 
Q 3513 2838 3513 2113 
z
" id="DejaVuSans-6e" transform="scale(0.015625)"/>
       <path d="M 513 4856 
L 1013 4856 
Q 1481 4119 1714 3412 
Q 1947 2706 1947 2009 
Q 1947 1309 1714 600 
Q 1481 -109 1013 -844 
L 513 -844 
Q 928 -128 1133 580 
Q 1338 1288 1338 2009 
Q 1338 2731 1133 3434 
Q 928 4138 513 4856 
z
" id="DejaVuSans-29" transform="scale(0.015625)"/>
      </defs>
      <use xlink:href="#DejaVuSans-6c"/>
      <use x="27.783203" xlink:href="#DejaVuSans-6f"/>
      <use x="88.964844" xlink:href="#DejaVuSans-67"/>
      <use x="152.441406" xlink:href="#DejaVuSans-31"/>
      <use x="216.064453" xlink:href="#DejaVuSans-30"/>
      <use x="279.6875" xlink:href="#DejaVuSans-28"/>
      <use x="318.701172" xlink:href="#DejaVuSans-23"/>
      <use x="402.490234" xlink:href="#DejaVuSans-20"/>
      <use x="434.277344" xlink:href="#DejaVuSans-66"/>
      <use x="463.982422" xlink:href="#DejaVuSans-2d"/>
      <use x="500.066406" xlink:href="#DejaVuSans-65"/>
      <use x="561.589844" xlink:href="#DejaVuSans-76"/>
      <use x="620.769531" xlink:href="#DejaVuSans-61"/>
      <use x="682.048828" xlink:href="#DejaVuSans-6c"/>
      <use x="709.832031" xlink:href="#DejaVuSans-73"/>
      <use x="761.931641" xlink:href="#DejaVuSans-20"/>
      <use x="793.71875" xlink:href="#DejaVuSans-2f"/>
      <use x="827.410156" xlink:href="#DejaVuSans-20"/>
      <use x="859.197266" xlink:href="#DejaVuSans-64"/>
      <use x="922.673828" xlink:href="#DejaVuSans-69"/>
      <use x="950.457031" xlink:href="#DejaVuSans-6d"/>
      <use x="1047.869141" xlink:href="#DejaVuSans-65"/>
      <use x="1109.392578" xlink:href="#DejaVuSans-6e"/>
      <use x="1172.771484" xlink:href="#DejaVuSans-73"/>
      <use x="1224.871094" xlink:href="#DejaVuSans-69"/>
      <use x="1252.654297" xlink:href="#DejaVuSans-6f"/>
      <use x="1313.835938" xlink:href="#DejaVuSans-6e"/>
      <use x="1377.214844" xlink:href="#DejaVuSans-29"/>
     </g>
    </g>
   </g>
   <g id="matplotlib.axis_2">
    <g id="ytick_1">
     <g id="line2d_17">
      <path clip-path="url(#p76cada8edc)" d="M 57.6 298.944 
L 338.688 298.944 
" style="fill:none;stroke:#b0b0b0;stroke-linecap:square;stroke-width:0.8;"/>
     </g>
     <g id="line2d_18">
      <defs>
       <path d="M 0 0 
L -3.5 0 
" id="ma63a435035" style="stroke:#000000;stroke-width:0.8;"/>
      </defs>
      <g>
       <use style="stroke:#000000;stroke-width:0.8;" x="57.6" xlink:href="#ma63a435035" y="298.944"/>
      </g>
     </g>
     <g id="text_6">
      <!-- 0.0 -->
      <g transform="translate(25.155 305.02275)scale(0.16 -0.16)">
       <defs>
        <path d="M 684 794 
L 1344 794 
L 1344 0 
L 684 0 
L 684 794 
z
" id="DejaVuSans-2e" transform="scale(0.015625)"/>
       </defs>
       <use xlink:href="#DejaVuSans-30"/>
       <use x="63.623047" xlink:href="#DejaVuSans-2e"/>
       <use x="95.410156" xlink:href="#DejaVuSans-30"/>
      </g>
     </g>
    </g>
    <g id="ytick_2">
     <g id="line2d_19">
      <path clip-path="url(#p76cada8edc)" d="M 57.6 240.431525 
L 338.688 240.431525 
" style="fill:none;stroke:#b0b0b0;stroke-linecap:square;stroke-width:0.8;"/>
     </g>
     <g id="line2d_20">
      <g>
       <use style="stroke:#000000;stroke-width:0.8;" x="57.6" xlink:href="#ma63a435035" y="240.431525"/>
      </g>
     </g>
     <g id="text_7">
      <!-- 0.2 -->
      <g transform="translate(25.155 246.510275)scale(0.16 -0.16)">
       <use xlink:href="#DejaVuSans-30"/>
       <use x="63.623047" xlink:href="#DejaVuSans-2e"/>
       <use x="95.410156" xlink:href="#DejaVuSans-32"/>
      </g>
     </g>
    </g>
    <g id="ytick_3">
     <g id="line2d_21">
      <path clip-path="url(#p76cada8edc)" d="M 57.6 181.91905 
L 338.688 181.91905 
" style="fill:none;stroke:#b0b0b0;stroke-linecap:square;stroke-width:0.8;"/>
     </g>
     <g id="line2d_22">
      <g>
       <use style="stroke:#000000;stroke-width:0.8;" x="57.6" xlink:href="#ma63a435035" y="181.91905"/>
      </g>
     </g>
     <g id="text_8">
      <!-- 0.4 -->
      <g transform="translate(25.155 187.9978)scale(0.16 -0.16)">
       <use xlink:href="#DejaVuSans-30"/>
       <use x="63.623047" xlink:href="#DejaVuSans-2e"/>
       <use x="95.410156" xlink:href="#DejaVuSans-34"/>
      </g>
     </g>
    </g>
    <g id="ytick_4">
     <g id="line2d_23">
      <path clip-path="url(#p76cada8edc)" d="M 57.6 123.406574 
L 338.688 123.406574 
" style="fill:none;stroke:#b0b0b0;stroke-linecap:square;stroke-width:0.8;"/>
     </g>
     <g id="line2d_24">
      <g>
       <use style="stroke:#000000;stroke-width:0.8;" x="57.6" xlink:href="#ma63a435035" y="123.406574"/>
      </g>
     </g>
     <g id="text_9">
      <!-- 0.6 -->
      <g transform="translate(25.155 129.485324)scale(0.16 -0.16)">
       <use xlink:href="#DejaVuSans-30"/>
       <use x="63.623047" xlink:href="#DejaVuSans-2e"/>
       <use x="95.410156" xlink:href="#DejaVuSans-36"/>
      </g>
     </g>
    </g>
    <g id="ytick_5">
     <g id="line2d_25">
      <path clip-path="url(#p76cada8edc)" d="M 57.6 64.894099 
L 338.688 64.894099 
" style="fill:none;stroke:#b0b0b0;stroke-linecap:square;stroke-width:0.8;"/>
     </g>
     <g id="line2d_26">
      <g>
       <use style="stroke:#000000;stroke-width:0.8;" x="57.6" xlink:href="#ma63a435035" y="64.894099"/>
      </g>
     </g>
     <g id="text_10">
      <!-- 0.8 -->
      <g transform="translate(25.155 70.972849)scale(0.16 -0.16)">
       <defs>
        <path d="M 2034 2216 
Q 1584 2216 1326 1975 
Q 1069 1734 1069 1313 
Q 1069 891 1326 650 
Q 1584 409 2034 409 
Q 2484 409 2743 651 
Q 3003 894 3003 1313 
Q 3003 1734 2745 1975 
Q 2488 2216 2034 2216 
z
M 1403 2484 
Q 997 2584 770 2862 
Q 544 3141 544 3541 
Q 544 4100 942 4425 
Q 1341 4750 2034 4750 
Q 2731 4750 3128 4425 
Q 3525 4100 3525 3541 
Q 3525 3141 3298 2862 
Q 3072 2584 2669 2484 
Q 3125 2378 3379 2068 
Q 3634 1759 3634 1313 
Q 3634 634 3220 271 
Q 2806 -91 2034 -91 
Q 1263 -91 848 271 
Q 434 634 434 1313 
Q 434 1759 690 2068 
Q 947 2378 1403 2484 
z
M 1172 3481 
Q 1172 3119 1398 2916 
Q 1625 2713 2034 2713 
Q 2441 2713 2670 2916 
Q 2900 3119 2900 3481 
Q 2900 3844 2670 4047 
Q 2441 4250 2034 4250 
Q 1625 4250 1398 4047 
Q 1172 3844 1172 3481 
z
" id="DejaVuSans-38" transform="scale(0.015625)"/>
       </defs>
       <use xlink:href="#DejaVuSans-30"/>
       <use x="63.623047" xlink:href="#DejaVuSans-2e"/>
       <use x="95.410156" xlink:href="#DejaVuSans-38"/>
      </g>
     </g>
    </g>
    <g id="ytick_6">
     <g id="line2d_27">
      <path clip-path="url(#p76cada8edc)" d="M 57.6 6.381624 
L 338.688 6.381624 
" style="fill:none;stroke:#b0b0b0;stroke-linecap:square;stroke-width:0.8;"/>
     </g>
     <g id="line2d_28">
      <g>
       <use style="stroke:#000000;stroke-width:0.8;" x="57.6" xlink:href="#ma63a435035" y="6.381624"/>
      </g>
     </g>
     <g id="text_11">
      <!-- 1.0 -->
      <g transform="translate(25.155 12.460374)scale(0.16 -0.16)">
       <use xlink:href="#DejaVuSans-31"/>
       <use x="63.623047" xlink:href="#DejaVuSans-2e"/>
       <use x="95.410156" xlink:href="#DejaVuSans-30"/>
      </g>
     </g>
    </g>
    <g id="text_12">
     <!-- Fraction of function,target pairs -->
     <g transform="translate(17.619531 285.585)rotate(-90)scale(0.17 -0.17)">
      <defs>
       <path d="M 628 4666 
L 3309 4666 
L 3309 4134 
L 1259 4134 
L 1259 2759 
L 3109 2759 
L 3109 2228 
L 1259 2228 
L 1259 0 
L 628 0 
L 628 4666 
z
" id="DejaVuSans-46" transform="scale(0.015625)"/>
       <path d="M 2631 2963 
Q 2534 3019 2420 3045 
Q 2306 3072 2169 3072 
Q 1681 3072 1420 2755 
Q 1159 2438 1159 1844 
L 1159 0 
L 581 0 
L 581 3500 
L 1159 3500 
L 1159 2956 
Q 1341 3275 1631 3429 
Q 1922 3584 2338 3584 
Q 2397 3584 2469 3576 
Q 2541 3569 2628 3553 
L 2631 2963 
z
" id="DejaVuSans-72" transform="scale(0.015625)"/>
       <path d="M 3122 3366 
L 3122 2828 
Q 2878 2963 2633 3030 
Q 2388 3097 2138 3097 
Q 1578 3097 1268 2742 
Q 959 2388 959 1747 
Q 959 1106 1268 751 
Q 1578 397 2138 397 
Q 2388 397 2633 464 
Q 2878 531 3122 666 
L 3122 134 
Q 2881 22 2623 -34 
Q 2366 -91 2075 -91 
Q 1284 -91 818 406 
Q 353 903 353 1747 
Q 353 2603 823 3093 
Q 1294 3584 2113 3584 
Q 2378 3584 2631 3529 
Q 2884 3475 3122 3366 
z
" id="DejaVuSans-63" transform="scale(0.015625)"/>
       <path d="M 1172 4494 
L 1172 3500 
L 2356 3500 
L 2356 3053 
L 1172 3053 
L 1172 1153 
Q 1172 725 1289 603 
Q 1406 481 1766 481 
L 2356 481 
L 2356 0 
L 1766 0 
Q 1100 0 847 248 
Q 594 497 594 1153 
L 594 3053 
L 172 3053 
L 172 3500 
L 594 3500 
L 594 4494 
L 1172 4494 
z
" id="DejaVuSans-74" transform="scale(0.015625)"/>
       <path d="M 544 1381 
L 544 3500 
L 1119 3500 
L 1119 1403 
Q 1119 906 1312 657 
Q 1506 409 1894 409 
Q 2359 409 2629 706 
Q 2900 1003 2900 1516 
L 2900 3500 
L 3475 3500 
L 3475 0 
L 2900 0 
L 2900 538 
Q 2691 219 2414 64 
Q 2138 -91 1772 -91 
Q 1169 -91 856 284 
Q 544 659 544 1381 
z
M 1991 3584 
L 1991 3584 
z
" id="DejaVuSans-75" transform="scale(0.015625)"/>
       <path d="M 750 794 
L 1409 794 
L 1409 256 
L 897 -744 
L 494 -744 
L 750 256 
L 750 794 
z
" id="DejaVuSans-2c" transform="scale(0.015625)"/>
       <path d="M 1159 525 
L 1159 -1331 
L 581 -1331 
L 581 3500 
L 1159 3500 
L 1159 2969 
Q 1341 3281 1617 3432 
Q 1894 3584 2278 3584 
Q 2916 3584 3314 3078 
Q 3713 2572 3713 1747 
Q 3713 922 3314 415 
Q 2916 -91 2278 -91 
Q 1894 -91 1617 61 
Q 1341 213 1159 525 
z
M 3116 1747 
Q 3116 2381 2855 2742 
Q 2594 3103 2138 3103 
Q 1681 3103 1420 2742 
Q 1159 2381 1159 1747 
Q 1159 1113 1420 752 
Q 1681 391 2138 391 
Q 2594 391 2855 752 
Q 3116 1113 3116 1747 
z
" id="DejaVuSans-70" transform="scale(0.015625)"/>
      </defs>
      <use xlink:href="#DejaVuSans-46"/>
      <use x="50.269531" xlink:href="#DejaVuSans-72"/>
      <use x="91.382812" xlink:href="#DejaVuSans-61"/>
      <use x="152.662109" xlink:href="#DejaVuSans-63"/>
      <use x="207.642578" xlink:href="#DejaVuSans-74"/>
      <use x="246.851562" xlink:href="#DejaVuSans-69"/>
      <use x="274.634766" xlink:href="#DejaVuSans-6f"/>
      <use x="335.816406" xlink:href="#DejaVuSans-6e"/>
      <use x="399.195312" xlink:href="#DejaVuSans-20"/>
      <use x="430.982422" xlink:href="#DejaVuSans-6f"/>
      <use x="492.164062" xlink:href="#DejaVuSans-66"/>
      <use x="527.369141" xlink:href="#DejaVuSans-20"/>
      <use x="559.15625" xlink:href="#DejaVuSans-66"/>
      <use x="594.361328" xlink:href="#DejaVuSans-75"/>
      <use x="657.740234" xlink:href="#DejaVuSans-6e"/>
      <use x="721.119141" xlink:href="#DejaVuSans-63"/>
      <use x="776.099609" xlink:href="#DejaVuSans-74"/>
      <use x="815.308594" xlink:href="#DejaVuSans-69"/>
      <use x="843.091797" xlink:href="#DejaVuSans-6f"/>
      <use x="904.273438" xlink:href="#DejaVuSans-6e"/>
      <use x="967.652344" xlink:href="#DejaVuSans-2c"/>
      <use x="999.439453" xlink:href="#DejaVuSans-74"/>
      <use x="1038.648438" xlink:href="#DejaVuSans-61"/>
      <use x="1099.927734" xlink:href="#DejaVuSans-72"/>
      <use x="1139.291016" xlink:href="#DejaVuSans-67"/>
      <use x="1202.767578" xlink:href="#DejaVuSans-65"/>
      <use x="1264.291016" xlink:href="#DejaVuSans-74"/>
      <use x="1303.5" xlink:href="#DejaVuSans-20"/>
      <use x="1335.287109" xlink:href="#DejaVuSans-70"/>
      <use x="1398.763672" xlink:href="#DejaVuSans-61"/>
      <use x="1460.042969" xlink:href="#DejaVuSans-69"/>
      <use x="1487.826172" xlink:href="#DejaVuSans-72"/>
      <use x="1528.939453" xlink:href="#DejaVuSans-73"/>
     </g>
    </g>
   </g>
   <g id="line2d_29">
    <defs>
     <path d="M 0 1.5 
C 0.397805 1.5 0.77937 1.341951 1.06066 1.06066 
C 1.341951 0.77937 1.5 0.397805 1.5 0 
C 1.5 -0.397805 1.341951 -0.77937 1.06066 -1.06066 
C 0.77937 -1.341951 0.397805 -1.5 0 -1.5 
C -0.397805 -1.5 -0.77937 -1.341951 -1.06066 -1.06066 
C -1.341951 -0.77937 -1.5 -0.397805 -1.5 0 
C -1.5 0.397805 -1.341951 0.77937 -1.06066 1.06066 
C -0.77937 1.341951 -0.397805 1.5 0 1.5 
z
" id="m8dae6f6712" style="stroke:#00bfbf;"/>
    </defs>
    <g>
     <use style="fill:#00bfbf;stroke:#00bfbf;" x="214.786375" xlink:href="#m8dae6f6712" y="233.547704"/>
     <use style="fill:#00bfbf;stroke:#00bfbf;" x="214.786375" xlink:href="#m8dae6f6712" y="233.547704"/>
    </g>
   </g>
   <g id="line2d_30">
    <path d="M 45.512012 298.944 
L 45.512012 285.176359 
L 57.6 285.176359 
L 57.6 281.275527 
L 64.67102 281.275527 
L 64.67102 280.472415 
L 69.687988 280.472415 
L 69.687988 279.554572 
L 73.579452 279.554572 
L 73.579452 278.521999 
L 76.759008 278.521999 
L 76.759008 277.833617 
L 79.447285 277.833617 
L 79.447285 275.883201 
L 81.775977 275.883201 
L 81.775977 274.850628 
L 83.830028 274.850628 
L 83.830028 274.735897 
L 85.66744 274.735897 
L 85.66744 274.047515 
L 87.329581 274.047515 
L 87.329581 273.932785 
L 90.242884 273.932785 
L 90.242884 273.703324 
L 92.73846 273.703324 
L 92.73846 273.473864 
L 93.863965 273.473864 
L 93.863965 273.129673 
L 94.921215 273.129673 
L 94.921215 273.014942 
L 95.918017 273.014942 
L 95.918017 272.900212 
L 96.86091 272.900212 
L 96.86091 271.523448 
L 97.755429 271.523448 
L 97.755429 270.720335 
L 99.41757 270.720335 
L 99.41757 270.261414 
L 100.192776 270.261414 
L 100.192776 270.146684 
L 100.934985 270.146684 
L 100.934985 269.917223 
L 101.646892 269.917223 
L 101.646892 269.802493 
L 102.330873 269.802493 
L 102.330873 269.573032 
L 102.989037 269.573032 
L 102.989037 269.458302 
L 104.23523 269.458302 
L 104.23523 269.343571 
L 104.826449 269.343571 
L 104.826449 269.228841 
L 105.398279 269.228841 
L 105.398279 268.99938 
L 105.951954 268.99938 
L 105.951954 268.655189 
L 107.009204 268.655189 
L 107.009204 268.540459 
L 107.514726 268.540459 
L 107.514726 267.966807 
L 108.006005 267.966807 
L 108.006005 267.852077 
L 108.483824 267.852077 
L 108.483824 267.737347 
L 108.948899 267.737347 
L 108.948899 267.622616 
L 109.843417 267.622616 
L 109.843417 266.590043 
L 110.274038 266.590043 
L 110.274038 266.131122 
L 111.104637 266.131122 
L 111.104637 265.786931 
L 111.505558 265.786931 
L 111.505558 265.6722 
L 112.655818 265.6722 
L 112.655818 265.328009 
L 113.382559 265.328009 
L 113.382559 265.213279 
L 115.397021 265.213279 
L 115.397021 264.869088 
L 115.711251 264.869088 
L 115.711251 264.754358 
L 116.019919 264.754358 
L 116.019919 264.524897 
L 117.202696 264.524897 
L 117.202696 264.410167 
L 118.310324 264.410167 
L 118.310324 264.295436 
L 118.576578 264.295436 
L 118.576578 264.065976 
L 119.351785 264.065976 
L 119.351785 263.951245 
L 119.850084 263.951245 
L 119.850084 263.721785 
L 120.33454 263.721785 
L 120.33454 263.607054 
L 120.571812 263.607054 
L 120.571812 263.492324 
L 121.264855 263.492324 
L 121.264855 263.148133 
L 122.573415 263.148133 
L 122.573415 263.033402 
L 122.782271 263.033402 
L 122.782271 262.803942 
L 123.394238 262.803942 
L 123.394238 262.689211 
L 123.593547 262.689211 
L 123.593547 262.459751 
L 125.822869 262.459751 
L 125.822869 262.11556 
L 125.996395 262.11556 
L 125.996395 262.000829 
L 126.673734 262.000829 
L 126.673734 261.886099 
L 126.839037 261.886099 
L 126.839037 261.427178 
L 127.48501 261.427178 
L 127.48501 261.312447 
L 127.799239 261.312447 
L 127.799239 261.082987 
L 128.107907 261.082987 
L 128.107907 260.853526 
L 129.147151 260.853526 
L 129.147151 260.738796 
L 129.991152 260.738796 
L 129.991152 260.509335 
L 130.664567 260.509335 
L 130.664567 260.279874 
L 130.796184 260.279874 
L 130.796184 260.050414 
L 131.056477 260.050414 
L 131.056477 259.706222 
L 131.185181 259.706222 
L 131.185181 259.476762 
L 131.565689 259.476762 
L 131.565689 259.362031 
L 131.814826 259.362031 
L 131.814826 259.01784 
L 131.938072 259.01784 
L 131.938072 258.558919 
L 132.060454 258.558919 
L 132.060454 258.444189 
L 133.352844 258.444189 
L 133.352844 258.329458 
L 134.661403 258.329458 
L 134.661403 257.985267 
L 135.780341 257.985267 
L 135.780341 257.870537 
L 136.551264 257.870537 
L 136.551264 257.755807 
L 138.594838 257.755807 
L 138.67848 257.296885 
L 138.84457 257.296885 
L 138.84457 257.182155 
L 139.333553 257.182155 
L 139.413734 256.952694 
L 139.572998 256.952694 
L 139.652088 256.608503 
L 139.730821 256.608503 
L 139.8092 255.69066 
L 139.887228 255.69066 
L 139.887228 255.57593 
L 140.871049 255.57593 
L 140.871049 255.4612 
L 141.162927 255.4612 
L 141.162927 255.346469 
L 141.45 255.346469 
L 141.521035 255.117009 
L 141.732423 255.117009 
L 141.732423 255.002278 
L 141.871938 255.002278 
L 141.871938 254.887548 
L 143.337167 254.887548 
L 143.337167 254.772818 
L 143.902815 254.772818 
L 143.902815 254.658087 
L 144.087359 254.658087 
L 144.087359 254.543357 
L 144.209312 254.543357 
L 144.269971 254.199166 
L 144.330419 254.199166 
L 144.390658 253.969705 
L 144.45069 253.969705 
L 144.45069 253.854975 
L 145.212864 253.854975 
L 145.270136 253.625514 
L 145.327221 253.625514 
L 145.327221 253.510784 
L 145.665858 253.510784 
L 145.665858 253.281323 
L 146.052799 253.281323 
L 146.052799 253.166593 
L 146.216039 253.166593 
L 146.216039 253.051863 
L 146.958248 253.051863 
L 146.958248 252.937132 
L 147.164632 252.937132 
L 147.266916 252.707672 
L 147.317833 252.707672 
L 147.419225 252.478211 
L 150.429467 252.478211 
L 150.47195 252.019289 
L 150.766468 252.019289 
L 150.766468 251.904559 
L 150.891184 251.904559 
L 150.973835 251.675098 
L 151.015013 251.675098 
L 151.056095 251.216177 
L 151.13797 251.216177 
L 151.13797 251.101447 
L 151.975216 251.101447 
L 152.052897 250.871986 
L 152.130233 250.871986 
L 152.168773 250.527795 
L 152.774102 250.527795 
L 152.774102 250.413065 
L 153.359122 250.413065 
L 153.395042 250.183604 
L 154.132765 250.183604 
L 154.167129 249.839413 
L 154.303908 249.839413 
L 154.303908 249.724683 
L 154.54072 249.724683 
L 154.54072 249.609952 
L 154.873541 249.609952 
L 154.873541 249.495222 
L 155.135299 249.495222 
L 155.200129 249.151031 
L 155.264719 249.151031 
L 155.264719 249.036301 
L 155.457066 249.036301 
L 155.488919 248.692109 
L 156.806295 248.692109 
L 156.806295 248.577379 
L 157.725877 248.577379 
L 157.753847 248.233188 
L 157.837488 248.233188 
L 157.86528 247.774267 
L 158.358103 247.774267 
L 158.358103 247.659536 
L 159.175513 247.659536 
L 159.175513 247.544806 
L 159.303838 247.544806 
L 159.354904 247.315345 
L 159.507213 247.315345 
L 159.507213 247.200615 
L 160.176607 247.200615 
L 160.176607 247.085885 
L 160.86807 247.085885 
L 160.86807 246.971154 
L 160.984566 246.971154 
L 161.077205 246.626963 
L 161.578106 246.626963 
L 161.578106 246.512233 
L 161.756743 246.512233 
L 161.756743 246.397503 
L 162.707819 246.397503 
L 162.812686 245.823851 
L 163.185069 245.823851 
L 163.185069 245.709121 
L 163.307451 245.709121 
L 163.307451 245.59439 
L 163.946031 245.59439 
L 163.985177 245.36493 
L 164.121498 245.36493 
L 164.121498 245.250199 
L 164.899235 245.250199 
L 164.991751 245.020738 
L 165.047026 245.020738 
L 165.138764 244.791278 
L 165.230021 244.791278 
L 165.338904 244.447087 
L 165.356985 244.447087 
L 165.356985 244.332356 
L 166.442913 244.332356 
L 166.527611 244.102896 
L 166.561376 244.102896 
L 166.578233 243.873435 
L 167.06015 243.873435 
L 167.06015 243.758705 
L 167.497166 243.758705 
L 167.497166 243.643974 
L 168.701418 243.643974 
L 168.701418 243.529244 
L 169.230367 243.529244 
L 169.230367 243.414514 
L 169.51744 243.414514 
L 169.588476 242.955592 
L 169.659223 242.955592 
L 169.729685 242.611401 
L 170.526891 242.611401 
L 170.553741 242.381941 
L 171.237722 242.381941 
L 171.276376 242.15248 
L 172.093501 242.15248 
L 172.118046 241.923019 
L 172.264595 241.923019 
L 172.361615 241.349368 
L 173.268827 241.349368 
L 173.349008 241.119907 
L 174.552194 241.119907 
L 174.594807 240.890446 
L 175.283289 240.890446 
L 175.283289 240.775716 
L 175.866664 240.775716 
L 175.866664 240.660985 
L 176.335123 240.660985 
L 176.335123 240.546255 
L 178.179274 240.546255 
L 178.179274 240.431525 
L 178.403079 240.431525 
L 178.428718 240.202064 
L 178.942047 240.202064 
L 178.942047 240.087334 
L 180.05044 240.087334 
L 180.089306 239.743143 
L 180.579292 239.743143 
L 180.647105 239.513682 
L 181.004389 239.513682 
L 181.004389 239.398952 
L 181.526953 239.398952 
L 181.633877 238.94003 
L 182.973917 238.94003 
L 183.046156 238.251648 
L 183.409353 238.251648 
L 183.409353 238.136918 
L 184.309967 238.136918 
L 184.309967 238.022188 
L 184.653996 238.022188 
L 184.719614 237.792727 
L 185.505431 237.792727 
L 185.505431 237.677997 
L 186.158957 237.677997 
L 186.158957 237.563266 
L 186.576068 237.563266 
L 186.592119 237.333805 
L 186.978205 237.333805 
L 186.978205 237.219075 
L 187.160326 237.219075 
L 187.160326 237.104345 
L 187.625129 237.104345 
L 187.675459 236.760154 
L 187.910083 236.760154 
L 187.994175 236.530693 
L 190.473953 236.530693 
L 190.482512 236.301232 
L 191.285229 236.301232 
L 191.309728 235.957041 
L 192.06825 235.957041 
L 192.06825 235.842311 
L 192.881124 235.842311 
L 192.881124 235.727581 
L 194.346571 235.727581 
L 194.346571 235.61285 
L 195.045445 235.61285 
L 195.048738 235.38339 
L 195.641165 235.38339 
L 195.641165 235.268659 
L 195.758537 235.268659 
L 195.758537 235.153929 
L 197.524985 235.153929 
L 197.524985 235.039199 
L 199.191281 235.039199 
L 199.191281 234.924468 
L 199.675275 234.924468 
L 199.675275 234.809738 
L 200.508693 234.809738 
L 200.508693 234.695008 
L 201.181743 234.695008 
L 201.181743 234.580277 
L 201.632242 234.580277 
L 201.632242 234.465547 
L 202.080199 234.465547 
L 202.080199 234.350817 
L 204.533037 234.350817 
L 204.533037 234.236086 
L 205.871925 234.236086 
L 205.871925 234.121356 
L 207.412782 234.121356 
L 207.412782 234.006626 
L 210.154457 234.006626 
L 210.154457 233.891895 
L 210.45513 233.891895 
L 210.45513 233.777165 
L 211.915396 233.777165 
L 211.915396 233.662434 
L 214.786375 233.662434 
L 214.786375 233.547704 
L 338.688 233.547704 
L 338.688 233.547704 
" style="fill:none;stroke:#00bfbf;stroke-linecap:square;stroke-width:1.5;"/>
   </g>
   <g id="line2d_31">
    <defs>
     <path d="M -6 0 
L 6 0 
M 0 6 
L 0 -6 
" id="ma15e9ddc68" style="stroke:#00bfbf;stroke-width:1.5;"/>
    </defs>
    <g>
     <use style="fill-opacity:0;stroke:#00bfbf;stroke-width:1.5;" x="123.394238" xlink:href="#ma15e9ddc68" y="262.803942"/>
     <use style="fill-opacity:0;stroke:#00bfbf;stroke-width:1.5;" x="167.497166" xlink:href="#ma15e9ddc68" y="243.758705"/>
     <use style="fill-opacity:0;stroke:#00bfbf;stroke-width:1.5;" x="214.786375" xlink:href="#ma15e9ddc68" y="233.662434"/>
     <use style="fill-opacity:0;stroke:#00bfbf;stroke-width:1.5;" x="214.786375" xlink:href="#ma15e9ddc68" y="233.547704"/>
     <use style="fill-opacity:0;stroke:#00bfbf;stroke-width:1.5;" x="338.688" xlink:href="#ma15e9ddc68" y="233.547704"/>
    </g>
   </g>
   <g id="line2d_32">
    <path style="fill:none;stroke:#00bfbf;stroke-linecap:square;stroke-width:1.5;"/>
    <g/>
   </g>
   <g id="line2d_33">
    <path clip-path="url(#p76cada8edc)" d="M 138.084384 257.755807 
" style="fill:none;stroke:#00bfbf;stroke-linecap:square;stroke-width:1.5;"/>
    <defs>
     <path d="M -12 12 
L 12 -12 
M -12 -12 
L 12 12 
" id="m9da119deef" style="stroke:#00bfbf;"/>
    </defs>
    <g clip-path="url(#p76cada8edc)">
     <use style="fill:#00bfbf;stroke:#00bfbf;" x="138.084384" xlink:href="#m9da119deef" y="257.755807"/>
    </g>
   </g>
   <g id="line2d_34">
    <defs>
     <path d="M 0 1.5 
C 0.397805 1.5 0.77937 1.341951 1.06066 1.06066 
C 1.341951 0.77937 1.5 0.397805 1.5 0 
C 1.5 -0.397805 1.341951 -0.77937 1.06066 -1.06066 
C 0.77937 -1.341951 0.397805 -1.5 0 -1.5 
C -0.397805 -1.5 -0.77937 -1.341951 -1.06066 -1.06066 
C -1.341951 -0.77937 -1.5 -0.397805 -1.5 0 
C -1.5 0.397805 -1.341951 0.77937 -1.06066 1.06066 
C -0.77937 1.341951 -0.397805 1.5 0 1.5 
z
" id="m8b4e13735b" style="stroke:#008000;"/>
    </defs>
    <g>
     <use style="fill:#008000;stroke:#008000;" x="213.273592" xlink:href="#m8b4e13735b" y="257.641076"/>
     <use style="fill:#008000;stroke:#008000;" x="213.273592" xlink:href="#m8b4e13735b" y="257.641076"/>
    </g>
   </g>
   <g id="line2d_35">
    <path d="M 38.440992 298.944 
L 38.440992 290.453955 
L 50.52898 290.453955 
L 50.52898 288.96246 
L 57.6 288.96246 
L 57.6 287.241505 
L 62.616969 287.241505 
L 62.616969 286.208932 
L 66.508432 286.208932 
L 66.508432 285.176359 
L 69.687988 285.176359 
L 69.687988 284.946898 
L 72.376266 284.946898 
L 72.376266 284.717437 
L 74.704957 284.717437 
L 74.704957 284.602707 
L 76.759008 284.602707 
L 76.759008 284.373246 
L 78.59642 284.373246 
L 78.59642 284.029055 
L 81.775977 284.029055 
L 81.775977 283.799595 
L 83.171864 283.799595 
L 83.171864 283.684864 
L 85.66744 283.684864 
L 85.66744 283.225943 
L 87.850195 283.225943 
L 87.850195 282.996482 
L 90.684409 282.996482 
L 90.684409 282.652291 
L 91.535274 282.652291 
L 91.535274 282.537561 
L 92.34655 282.537561 
L 92.34655 282.19337 
L 93.863965 282.19337 
L 93.863965 281.734448 
L 94.575872 281.734448 
L 94.575872 281.504988 
L 95.259853 281.504988 
L 95.259853 281.390257 
L 95.918017 281.390257 
L 95.918017 281.275527 
L 96.552242 281.275527 
L 96.552242 281.160797 
L 97.16421 281.160797 
L 97.16421 280.931336 
L 97.755429 280.931336 
L 97.755429 280.701875 
L 100.443706 280.701875 
L 100.443706 280.587145 
L 101.412804 280.587145 
L 101.412804 280.013493 
L 101.877879 280.013493 
L 101.877879 279.898763 
L 103.623262 279.898763 
L 103.623262 279.784033 
L 105.584798 279.784033 
L 105.584798 279.669302 
L 105.951954 279.669302 
L 105.951954 279.554572 
L 106.311539 279.554572 
L 106.311539 279.439842 
L 106.66386 279.439842 
L 106.66386 279.325111 
L 107.009204 279.325111 
L 107.009204 279.210381 
L 107.680028 279.210381 
L 107.680028 278.86619 
L 109.843417 278.86619 
L 109.843417 278.75146 
L 110.694282 278.75146 
L 110.694282 278.636729 
L 110.968922 278.636729 
L 110.968922 278.521999 
L 112.026172 278.521999 
L 112.026172 278.292538 
L 112.280765 278.292538 
L 112.280765 278.177808 
L 113.500792 278.177808 
L 113.500792 278.063077 
L 113.965867 278.063077 
L 113.965867 277.948347 
L 114.418861 277.948347 
L 114.418861 277.718886 
L 114.641021 277.718886 
L 114.641021 277.604156 
L 115.077025 277.604156 
L 115.077025 277.489426 
L 115.711251 277.489426 
L 115.711251 277.374695 
L 115.917635 277.374695 
L 115.917635 277.259965 
L 116.121606 277.259965 
L 116.121606 277.145235 
L 116.323218 277.145235 
L 116.323218 277.030504 
L 116.914437 277.030504 
L 116.914437 276.915774 
L 118.751849 276.915774 
L 118.751849 276.801044 
L 119.267333 276.801044 
L 119.267333 276.456853 
L 119.931767 276.456853 
L 119.931767 276.342122 
L 120.254726 276.342122 
L 120.254726 275.53901 
L 120.571812 275.53901 
L 120.571812 275.42428 
L 121.340187 275.42428 
L 121.340187 275.309549 
L 121.638301 275.309549 
L 121.638301 275.194819 
L 122.503236 275.194819 
L 122.503236 274.735897 
L 124.368753 274.735897 
L 124.368753 274.621167 
L 124.494669 274.621167 
L 124.494669 274.506437 
L 125.470548 274.506437 
L 125.470548 274.391706 
L 125.706218 274.391706 
L 125.706218 274.047515 
L 126.839037 274.047515 
L 126.839037 273.703324 
L 127.05703 273.703324 
L 127.05703 273.588594 
L 128.005624 273.588594 
L 128.107907 273.244403 
L 128.209594 273.244403 
L 128.310692 273.014942 
L 129.099042 273.014942 
L 129.099042 272.900212 
L 129.945319 272.900212 
L 129.945319 272.785482 
L 130.752422 272.785482 
L 130.752422 272.670751 
L 131.355321 272.670751 
L 131.439773 272.21183 
L 132.659801 272.21183 
L 132.659801 272.0971 
L 133.503183 272.0971 
L 133.503183 271.638178 
L 133.800029 271.638178 
L 133.873458 271.408718 
L 134.939326 271.408718 
L 135.00812 271.064526 
L 135.548916 271.064526 
L 135.548916 270.835066 
L 135.813153 270.835066 
L 135.813153 270.720335 
L 137.439497 270.720335 
L 137.439497 270.605605 
L 137.617753 270.605605 
L 137.617753 270.490875 
L 137.910857 270.490875 
L 137.910857 270.376144 
L 138.482688 270.376144 
L 138.482688 270.261414 
L 138.816998 270.261414 
L 138.816998 270.146684 
L 139.360321 270.146684 
L 139.466984 269.917223 
L 139.625765 269.917223 
L 139.625765 269.802493 
L 140.144829 269.802493 
L 140.144829 269.687762 
L 140.89556 269.687762 
L 140.89556 269.573032 
L 141.47371 269.573032 
L 141.47371 269.458302 
L 141.755753 269.458302 
L 141.755753 269.343571 
L 145.097753 269.343571 
L 145.097753 269.228841 
L 145.478539 269.228841 
L 145.478539 269.114111 
L 145.814278 269.114111 
L 145.924771 268.655189 
L 145.998045 268.655189 
L 145.998045 268.540459 
L 146.502522 268.540459 
L 146.502522 268.425729 
L 147.061745 268.425729 
L 147.061745 268.310998 
L 147.769524 268.310998 
L 147.769524 268.196268 
L 147.999207 268.196268 
L 148.096724 267.622616 
L 148.161434 267.622616 
L 148.161434 267.507886 
L 148.981515 267.507886 
L 148.981515 267.393156 
L 149.852909 267.393156 
L 149.852909 267.278425 
L 150.486088 267.278425 
L 150.486088 267.163695 
L 150.849711 267.163695 
L 150.849711 267.048964 
L 152.959038 267.048964 
L 153.032466 266.819504 
L 153.514245 266.819504 
L 153.561699 266.590043 
L 154.006185 266.590043 
L 154.006185 266.475313 
L 154.507086 266.475313 
L 154.551917 266.131122 
L 154.641235 266.131122 
L 154.641235 266.016391 
L 155.804285 266.016391 
L 155.804285 265.786931 
L 156.317544 265.786931 
L 156.317544 265.6722 
L 156.972711 265.6722 
L 157.011638 265.44274 
L 157.735205 265.44274 
L 157.735205 265.328009 
L 159.201253 265.328009 
L 159.201253 265.213279 
L 159.405822 265.213279 
L 159.405822 265.098549 
L 159.89051 265.098549 
L 159.93989 264.869088 
L 160.038232 264.869088 
L 160.038232 264.754358 
L 160.184713 264.754358 
L 160.184713 264.639627 
L 161.268637 264.639627 
L 161.268637 264.524897 
L 162.616422 264.524897 
L 162.616422 264.410167 
L 163.985177 264.410167 
L 163.985177 264.295436 
L 165.363008 264.295436 
L 165.387079 264.065976 
L 165.542734 264.065976 
L 165.55465 263.836515 
L 165.98992 263.836515 
L 165.98992 263.721785 
L 167.427761 263.721785 
L 167.534424 263.377593 
L 167.566296 263.377593 
L 167.566296 263.262863 
L 167.913096 263.262863 
L 167.996141 262.803942 
L 168.854895 262.803942 
L 168.854895 262.689211 
L 170.5984 262.689211 
L 170.5984 262.574481 
L 170.740545 262.574481 
L 170.793552 262.34502 
L 171.578344 262.34502 
L 171.578344 262.23029 
L 173.026049 262.23029 
L 173.088028 262.000829 
L 173.22668 262.000829 
L 173.333764 261.541908 
L 173.379457 261.541908 
L 173.379457 261.427178 
L 175.177275 261.427178 
L 175.177275 261.312447 
L 175.496772 261.312447 
L 175.496772 261.197717 
L 177.153401 261.197717 
L 177.184001 260.968256 
L 178.92822 260.968256 
L 178.92822 260.853526 
L 179.627729 260.853526 
L 179.627729 260.738796 
L 181.953098 260.738796 
L 182.004192 260.509335 
L 182.096708 260.509335 
L 182.188736 260.279874 
L 183.37723 260.279874 
L 183.37723 260.165144 
L 183.496853 260.165144 
L 183.53513 259.935683 
L 184.606119 259.935683 
L 184.606119 259.820953 
L 185.783983 259.820953 
L 185.85851 259.476762 
L 186.908322 259.476762 
L 186.908322 259.362031 
L 187.915041 259.362031 
L 187.915041 259.247301 
L 188.93551 259.247301 
L 189.041166 259.01784 
L 189.204597 259.01784 
L 189.204597 258.90311 
L 189.914294 258.90311 
L 189.914294 258.78838 
L 191.587683 258.78838 
L 191.587683 258.673649 
L 195.848934 258.673649 
L 195.848934 258.558919 
L 197.083265 258.558919 
L 197.083265 258.444189 
L 197.640786 258.444189 
L 197.640786 258.329458 
L 197.823358 258.329458 
L 197.823358 258.214728 
L 202.195696 258.214728 
L 202.195696 258.099998 
L 203.064038 258.099998 
L 203.064038 257.985267 
L 208.438131 257.985267 
L 208.438131 257.870537 
L 210.174295 257.870537 
L 210.174295 257.755807 
L 213.273592 257.755807 
L 213.273592 257.641076 
L 338.688 257.641076 
L 338.688 257.641076 
" style="fill:none;stroke:#008000;stroke-linecap:square;stroke-width:1.5;"/>
   </g>
   <g id="line2d_36">
    <defs>
     <path d="M -0 6 
L 6 -6 
L -6 -6 
z
" id="m8fcf018c2d" style="stroke:#008000;stroke-linejoin:miter;stroke-width:1.5;"/>
    </defs>
    <g>
     <use style="fill-opacity:0;stroke:#008000;stroke-linejoin:miter;stroke-width:1.5;" x="116.914437" xlink:href="#m8fcf018c2d" y="276.915774"/>
     <use style="fill-opacity:0;stroke:#008000;stroke-linejoin:miter;stroke-width:1.5;" x="191.587683" xlink:href="#m8fcf018c2d" y="258.673649"/>
     <use style="fill-opacity:0;stroke:#008000;stroke-linejoin:miter;stroke-width:1.5;" x="213.273592" xlink:href="#m8fcf018c2d" y="257.755807"/>
     <use style="fill-opacity:0;stroke:#008000;stroke-linejoin:miter;stroke-width:1.5;" x="213.273592" xlink:href="#m8fcf018c2d" y="257.641076"/>
     <use style="fill-opacity:0;stroke:#008000;stroke-linejoin:miter;stroke-width:1.5;" x="213.273592" xlink:href="#m8fcf018c2d" y="257.641076"/>
     <use style="fill-opacity:0;stroke:#008000;stroke-linejoin:miter;stroke-width:1.5;" x="338.688" xlink:href="#m8fcf018c2d" y="257.641076"/>
    </g>
   </g>
   <g id="line2d_37">
    <path style="fill:none;stroke:#008000;stroke-linecap:square;stroke-width:1.5;"/>
    <g/>
   </g>
   <g id="line2d_38">
    <path clip-path="url(#p76cada8edc)" d="M 138.084384 270.376144 
" style="fill:none;stroke:#008000;stroke-linecap:square;stroke-width:1.5;"/>
    <defs>
     <path d="M -12 12 
L 12 -12 
M -12 -12 
L 12 12 
" id="md13e7b3cbe" style="stroke:#008000;"/>
    </defs>
    <g clip-path="url(#p76cada8edc)">
     <use style="fill:#008000;stroke:#008000;" x="138.084384" xlink:href="#md13e7b3cbe" y="270.376144"/>
    </g>
   </g>
   <g id="line2d_39">
    <defs>
     <path d="M 0 1.5 
C 0.397805 1.5 0.77937 1.341951 1.06066 1.06066 
C 1.341951 0.77937 1.5 0.397805 1.5 0 
C 1.5 -0.397805 1.341951 -0.77937 1.06066 -1.06066 
C 0.77937 -1.341951 0.397805 -1.5 0 -1.5 
C -0.397805 -1.5 -0.77937 -1.341951 -1.06066 -1.06066 
C -1.341951 -0.77937 -1.5 -0.397805 -1.5 0 
C -1.5 0.397805 -1.341951 0.77937 -1.06066 1.06066 
C -0.77937 1.341951 -0.397805 1.5 0 1.5 
z
" id="mfa87996145" style="stroke:#0000ff;"/>
    </defs>
    <g>
     <use style="fill:#0000ff;stroke:#0000ff;" x="210.309697" xlink:href="#mfa87996145" y="275.997931"/>
     <use style="fill:#0000ff;stroke:#0000ff;" x="210.309697" xlink:href="#mfa87996145" y="275.997931"/>
    </g>
   </g>
   <g id="line2d_40">
    <path d="M 29.53256 298.944 
L 29.53256 294.698977 
L 41.620548 294.698977 
L 41.620548 294.125326 
L 48.691568 294.125326 
L 48.691568 293.092752 
L 53.708537 293.092752 
L 53.708537 292.633831 
L 57.6 292.633831 
L 57.6 292.519101 
L 60.779557 292.519101 
L 60.779557 292.060179 
L 63.467834 292.060179 
L 63.467834 291.945449 
L 67.850577 291.945449 
L 67.850577 291.486528 
L 69.687988 291.486528 
L 69.687988 291.257067 
L 72.867545 291.257067 
L 72.867545 291.142337 
L 74.263433 291.142337 
L 74.263433 291.027606 
L 76.759008 291.027606 
L 76.759008 290.798146 
L 79.938565 290.798146 
L 79.938565 290.568685 
L 80.881459 290.568685 
L 80.881459 290.453955 
L 84.955534 290.453955 
L 84.955534 289.995033 
L 85.66744 289.995033 
L 85.66744 289.880303 
L 87.009585 289.880303 
L 87.009585 289.765573 
L 87.643811 289.765573 
L 87.643811 289.536112 
L 89.418828 289.536112 
L 89.418828 289.306651 
L 89.972502 289.306651 
L 89.972502 289.191921 
L 90.509138 289.191921 
L 90.509138 289.07719 
L 94.294587 289.07719 
L 94.294587 288.84773 
L 95.526106 288.84773 
L 95.526106 288.618269 
L 95.918017 288.618269 
L 95.918017 288.388808 
L 96.676366 288.388808 
L 96.676366 288.274078 
L 97.043522 288.274078 
L 97.043522 288.159348 
L 97.403108 288.159348 
L 97.403108 288.044617 
L 99.097574 288.044617 
L 99.097574 287.815157 
L 100.040467 287.815157 
L 100.040467 287.700426 
L 101.506816 287.700426 
L 101.506816 287.585696 
L 103.870632 287.585696 
L 103.870632 287.470966 
L 104.355088 287.470966 
L 104.355088 287.356235 
L 104.592361 287.356235 
L 104.592361 287.241505 
L 106.168594 287.241505 
L 106.168594 287.126775 
L 107.414787 287.126775 
L 107.414787 287.012044 
L 108.577836 287.012044 
L 108.577836 286.897314 
L 109.131511 286.897314 
L 109.131511 286.782584 
L 109.843417 286.782584 
L 109.843417 286.667853 
L 110.188761 286.667853 
L 110.188761 286.553123 
L 110.358901 286.553123 
L 110.358901 286.438393 
L 110.859585 286.438393 
L 110.859585 286.323662 
L 111.819788 286.323662 
L 111.819788 286.208932 
L 113.167699 286.208932 
L 113.167699 286.094202 
L 113.73488 286.094202 
L 113.73488 285.979471 
L 114.685115 285.979471 
L 114.685115 285.864741 
L 114.816733 285.864741 
L 114.816733 285.75001 
L 114.947365 285.75001 
L 114.947365 285.63528 
L 115.205729 285.63528 
L 115.205729 285.52055 
L 116.443076 285.52055 
L 116.443076 285.405819 
L 117.486268 285.405819 
L 117.486268 285.291089 
L 118.576578 285.291089 
L 118.576578 285.176359 
L 118.994305 285.176359 
L 118.994305 285.061628 
L 119.199476 285.061628 
L 119.199476 284.946898 
L 119.602714 284.946898 
L 119.702083 284.717437 
L 119.996839 284.717437 
L 119.996839 284.602707 
L 122.947573 284.602707 
L 122.947573 284.373246 
L 123.111324 284.373246 
L 123.111324 284.258516 
L 123.273551 284.258516 
L 123.273551 284.143786 
L 123.751369 284.143786 
L 123.751369 284.029055 
L 124.594752 284.029055 
L 124.594752 283.914325 
L 126.70692 283.914325 
L 126.70692 283.799595 
L 128.290519 283.799595 
L 128.290519 283.570134 
L 128.650105 283.570134 
L 128.650105 283.340673 
L 130.398313 283.340673 
L 130.398313 283.225943 
L 130.822389 283.225943 
L 130.822389 283.111213 
L 133.032848 283.111213 
L 133.032848 282.996482 
L 135.760625 282.996482 
L 135.760625 282.881752 
L 136.266147 282.881752 
L 136.266147 282.767022 
L 136.380754 282.767022 
L 136.380754 282.652291 
L 138.426341 282.652291 
L 138.426341 282.537561 
L 138.561269 282.537561 
L 138.628343 282.19337 
L 138.861092 282.19337 
L 138.861092 282.078639 
L 139.285267 282.078639 
L 139.285267 281.963909 
L 139.477614 281.963909 
L 139.509467 281.734448 
L 139.730821 281.734448 
L 139.730821 281.619718 
L 141.177393 281.619718 
L 141.177393 281.504988 
L 142.106582 281.504988 
L 142.106582 281.390257 
L 142.243147 281.390257 
L 142.243147 281.275527 
L 142.962669 281.275527 
L 142.962669 281.160797 
L 144.605813 281.160797 
L 144.629556 280.931336 
L 145.888018 280.931336 
L 145.976095 280.357684 
L 146.895853 280.357684 
L 146.895853 280.242954 
L 149.25057 280.242954 
L 149.25057 280.128224 
L 150.241302 280.128224 
L 150.327083 279.784033 
L 150.429467 279.784033 
L 150.49739 279.554572 
L 153.750233 279.554572 
L 153.750233 279.439842 
L 154.547439 279.439842 
L 154.56087 279.210381 
L 154.985269 279.210381 
L 154.985269 279.095651 
L 157.346685 279.095651 
L 157.346685 278.98092 
L 157.460743 278.98092 
L 157.460743 278.86619 
L 158.753132 278.86619 
L 158.753132 278.75146 
L 159.567767 278.75146 
L 159.567767 278.636729 
L 159.698248 278.636729 
L 159.698248 278.521999 
L 160.210625 278.521999 
L 160.259108 278.292538 
L 162.415072 278.292538 
L 162.415072 278.177808 
L 163.453184 278.177808 
L 163.453184 278.063077 
L 164.516598 278.063077 
L 164.516598 277.948347 
L 165.718267 277.948347 
L 165.718267 277.833617 
L 166.227632 277.833617 
L 166.227632 277.718886 
L 166.493781 277.718886 
L 166.493781 277.604156 
L 167.210292 277.604156 
L 167.210292 277.489426 
L 169.406043 277.489426 
L 169.406043 277.374695 
L 172.03938 277.374695 
L 172.03938 277.259965 
L 173.330714 277.259965 
L 173.330714 277.145235 
L 180.573251 277.145235 
L 180.573251 277.030504 
L 182.032924 277.030504 
L 182.032924 276.915774 
L 182.8418 276.915774 
L 182.8418 276.686313 
L 184.124904 276.686313 
L 184.124904 276.571583 
L 185.769787 276.571583 
L 185.769787 276.456853 
L 191.180311 276.456853 
L 191.180311 276.342122 
L 193.505919 276.342122 
L 193.505919 276.227392 
L 205.201719 276.227392 
L 205.201719 276.112662 
L 210.309697 276.112662 
L 210.309697 275.997931 
L 338.688 275.997931 
L 338.688 275.997931 
" style="fill:none;stroke:#0000ff;stroke-linecap:square;stroke-width:1.5;"/>
   </g>
   <g id="line2d_41">
    <defs>
     <path d="M 0 -6 
L -1.347084 -1.854102 
L -5.706339 -1.854102 
L -2.179628 0.708204 
L -3.526712 4.854102 
L -0 2.291796 
L 3.526712 4.854102 
L 2.179628 0.708204 
L 5.706339 -1.854102 
L 1.347084 -1.854102 
z
" id="m637e17365c" style="stroke:#0000ff;stroke-linejoin:bevel;stroke-width:1.5;"/>
    </defs>
    <g>
     <use style="fill-opacity:0;stroke:#0000ff;stroke-linejoin:bevel;stroke-width:1.5;" x="139.509467" xlink:href="#m637e17365c" y="281.734448"/>
     <use style="fill-opacity:0;stroke:#0000ff;stroke-linejoin:bevel;stroke-width:1.5;" x="193.505919" xlink:href="#m637e17365c" y="276.227392"/>
     <use style="fill-opacity:0;stroke:#0000ff;stroke-linejoin:bevel;stroke-width:1.5;" x="210.309697" xlink:href="#m637e17365c" y="276.112662"/>
     <use style="fill-opacity:0;stroke:#0000ff;stroke-linejoin:bevel;stroke-width:1.5;" x="210.309697" xlink:href="#m637e17365c" y="275.997931"/>
     <use style="fill-opacity:0;stroke:#0000ff;stroke-linejoin:bevel;stroke-width:1.5;" x="210.309697" xlink:href="#m637e17365c" y="275.997931"/>
     <use style="fill-opacity:0;stroke:#0000ff;stroke-linejoin:bevel;stroke-width:1.5;" x="338.688" xlink:href="#m637e17365c" y="275.997931"/>
    </g>
   </g>
   <g id="line2d_42">
    <path style="fill:none;stroke:#0000ff;stroke-linecap:square;stroke-width:1.5;"/>
    <g/>
   </g>
   <g id="line2d_43">
    <path clip-path="url(#p76cada8edc)" d="M 138.01518 282.652291 
" style="fill:none;stroke:#0000ff;stroke-linecap:square;stroke-width:1.5;"/>
    <defs>
     <path d="M -12 12 
L 12 -12 
M -12 -12 
L 12 12 
" id="m16db123f69" style="stroke:#0000ff;"/>
    </defs>
    <g clip-path="url(#p76cada8edc)">
     <use style="fill:#0000ff;stroke:#0000ff;" x="138.01518" xlink:href="#m16db123f69" y="282.652291"/>
    </g>
   </g>
   <g id="line2d_44">
    <defs>
     <path d="M 0 1.5 
C 0.397805 1.5 0.77937 1.341951 1.06066 1.06066 
C 1.341951 0.77937 1.5 0.397805 1.5 0 
C 1.5 -0.397805 1.341951 -0.77937 1.06066 -1.06066 
C 0.77937 -1.341951 0.397805 -1.5 0 -1.5 
C -0.397805 -1.5 -0.77937 -1.341951 -1.06066 -1.06066 
C -1.341951 -0.77937 -1.5 -0.397805 -1.5 0 
C -1.5 0.397805 -1.341951 0.77937 -1.06066 1.06066 
C -0.77937 1.341951 -0.397805 1.5 0 1.5 
z
" id="mb15ec9a60f" style="stroke:#000000;"/>
    </defs>
    <g>
     <use style="stroke:#000000;" x="207.250291" xlink:href="#mb15ec9a60f" y="288.618269"/>
     <use style="stroke:#000000;" x="207.250291" xlink:href="#mb15ec9a60f" y="288.618269"/>
    </g>
   </g>
   <g id="line2d_45">
    <path d="M 17.444571 298.944 
L 17.444571 297.337775 
L 29.53256 297.337775 
L 29.53256 297.108315 
L 36.60358 297.108315 
L 36.60358 296.764123 
L 45.512012 296.764123 
L 45.512012 296.534663 
L 51.379845 296.534663 
L 51.379845 296.419932 
L 57.6 296.419932 
L 57.6 296.190472 
L 70.538854 296.190472 
L 70.538854 296.075741 
L 83.830028 296.075741 
L 83.830028 295.961011 
L 88.553893 295.961011 
L 88.553893 295.846281 
L 92.026554 295.846281 
L 92.026554 295.73155 
L 94.505975 295.73155 
L 94.505975 295.61682 
L 95.918017 295.61682 
L 95.918017 295.50209 
L 96.110718 295.50209 
L 96.110718 295.387359 
L 104.114542 295.387359 
L 104.114542 295.272629 
L 108.483824 295.272629 
L 108.483824 295.157899 
L 110.443353 295.157899 
L 110.443353 295.043168 
L 110.61104 295.043168 
L 110.61104 294.928438 
L 111.819788 294.928438 
L 111.819788 294.698977 
L 118.994305 294.698977 
L 118.994305 294.584247 
L 119.148409 294.584247 
L 119.148409 294.469517 
L 123.313873 294.469517 
L 123.313873 294.354786 
L 124.891598 294.354786 
L 124.891598 294.240056 
L 128.077285 294.240056 
L 128.077285 294.010595 
L 128.827155 294.010595 
L 128.827155 293.895865 
L 131.913493 293.895865 
L 131.913493 293.781135 
L 133.711505 293.781135 
L 133.711505 293.666404 
L 135.219673 293.666404 
L 135.219673 293.551674 
L 136.2853 293.551674 
L 136.2853 293.436944 
L 139.058148 293.436944 
L 139.058148 293.322213 
L 144.209312 293.322213 
L 144.209312 293.207483 
L 147.317833 293.207483 
L 147.327999 292.978022 
L 147.530079 292.978022 
L 147.56019 292.748561 
L 151.936246 292.748561 
L 151.936246 292.633831 
L 152.818666 292.633831 
L 152.818666 292.519101 
L 154.446381 292.519101 
L 154.453136 292.28964 
L 154.5944 292.28964 
L 154.5944 292.17491 
L 155.367568 292.17491 
L 155.367568 291.945449 
L 161.7523 291.945449 
L 161.7523 291.830719 
L 162.440724 291.830719 
L 162.440724 291.715988 
L 164.482429 291.715988 
L 164.482429 291.601258 
L 166.775933 291.601258 
L 166.775933 291.486528 
L 167.911015 291.486528 
L 167.911015 291.371797 
L 168.403509 291.371797 
L 168.445948 291.027606 
L 169.041203 291.027606 
L 169.041203 290.912876 
L 169.385973 290.912876 
L 169.385973 290.798146 
L 173.282599 290.798146 
L 173.282599 290.683415 
L 175.763485 290.683415 
L 175.763485 290.568685 
L 176.084892 290.568685 
L 176.084892 290.453955 
L 176.744358 290.453955 
L 176.744358 290.339224 
L 177.653356 290.339224 
L 177.653356 290.224494 
L 178.234632 290.224494 
L 178.251895 289.995033 
L 179.09561 289.995033 
L 179.09561 289.880303 
L 182.346807 289.880303 
L 182.346807 289.765573 
L 183.48365 289.765573 
L 183.48365 289.650842 
L 186.405014 289.650842 
L 186.405014 289.536112 
L 192.33113 289.536112 
L 192.33113 289.421381 
L 193.087219 289.421381 
L 193.087219 289.306651 
L 194.616668 289.306651 
L 194.616668 289.191921 
L 195.496057 289.191921 
L 195.496057 289.07719 
L 198.263932 289.07719 
L 198.263932 288.96246 
L 203.400164 288.96246 
L 203.400164 288.84773 
L 204.411805 288.84773 
L 204.411805 288.732999 
L 207.250291 288.732999 
L 207.250291 288.618269 
L 338.688 288.618269 
L 338.688 288.618269 
" style="fill:none;stroke:#000000;stroke-linecap:square;stroke-width:1.5;"/>
   </g>
   <g id="line2d_46">
    <defs>
     <path d="M 0 6 
C 1.591219 6 3.117479 5.367802 4.242641 4.242641 
C 5.367802 3.117479 6 1.591219 6 0 
C 6 -1.591219 5.367802 -3.117479 4.242641 -4.242641 
C 3.117479 -5.367802 1.591219 -6 0 -6 
C -1.591219 -6 -3.117479 -5.367802 -4.242641 -4.242641 
C -5.367802 -3.117479 -6 -1.591219 -6 0 
C -6 1.591219 -5.367802 3.117479 -4.242641 4.242641 
C -3.117479 5.367802 -1.591219 6 0 6 
z
" id="m8e1bcd6a24" style="stroke:#000000;stroke-width:1.5;"/>
    </defs>
    <g>
     <use style="fill-opacity:0;stroke:#000000;stroke-width:1.5;" x="123.313873" xlink:href="#m8e1bcd6a24" y="294.354786"/>
     <use style="fill-opacity:0;stroke:#000000;stroke-width:1.5;" x="198.263932" xlink:href="#m8e1bcd6a24" y="289.07719"/>
     <use style="fill-opacity:0;stroke:#000000;stroke-width:1.5;" x="207.250291" xlink:href="#m8e1bcd6a24" y="288.618269"/>
     <use style="fill-opacity:0;stroke:#000000;stroke-width:1.5;" x="207.250291" xlink:href="#m8e1bcd6a24" y="288.618269"/>
     <use style="fill-opacity:0;stroke:#000000;stroke-width:1.5;" x="338.688" xlink:href="#m8e1bcd6a24" y="288.618269"/>
    </g>
   </g>
   <g id="line2d_47">
    <path style="fill:none;stroke:#000000;stroke-linecap:square;stroke-width:1.5;"/>
    <g/>
   </g>
   <g id="line2d_48">
    <path clip-path="url(#p76cada8edc)" d="M 137.980475 293.436944 
" style="fill:none;stroke:#000000;stroke-linecap:square;stroke-width:1.5;"/>
    <defs>
     <path d="M -12 12 
L 12 -12 
M -12 -12 
L 12 12 
" id="m255c242027" style="stroke:#000000;"/>
    </defs>
    <g clip-path="url(#p76cada8edc)">
     <use style="stroke:#000000;" x="137.980475" xlink:href="#m255c242027" y="293.436944"/>
    </g>
   </g>
   <g id="line2d_49">
    <defs>
     <path d="M 0 1.5 
C 0.397805 1.5 0.77937 1.341951 1.06066 1.06066 
C 1.341951 0.77937 1.5 0.397805 1.5 0 
C 1.5 -0.397805 1.341951 -0.77937 1.06066 -1.06066 
C 0.77937 -1.341951 0.397805 -1.5 0 -1.5 
C -0.397805 -1.5 -0.77937 -1.341951 -1.06066 -1.06066 
C -1.341951 -0.77937 -1.5 -0.397805 -1.5 0 
C -1.5 0.397805 -1.341951 0.77937 -1.06066 1.06066 
C -0.77937 1.341951 -0.397805 1.5 0 1.5 
z
" id="m7e0a153bb3" style="stroke:#ff0000;"/>
    </defs>
    <g>
     <use style="fill:#ff0000;stroke:#ff0000;" x="193.818954" xlink:href="#m7e0a153bb3" y="295.50209"/>
     <use style="fill:#ff0000;stroke:#ff0000;" x="193.818954" xlink:href="#m7e0a153bb3" y="295.50209"/>
    </g>
   </g>
   <g id="line2d_50">
    <path d="M 5.356583 298.944 
L 5.356583 298.599809 
L 17.444571 298.599809 
L 17.444571 298.370348 
L 29.53256 298.370348 
L 29.53256 298.255618 
L 39.291857 298.255618 
L 39.291857 298.140888 
L 41.620548 298.140888 
L 41.620548 298.026157 
L 47.174153 298.026157 
L 47.174153 297.911427 
L 69.246464 297.911427 
L 69.246464 297.796697 
L 111.974805 297.796697 
L 111.974805 297.681966 
L 116.019919 297.681966 
L 116.019919 297.567236 
L 117.930605 297.567236 
L 117.930605 297.452506 
L 118.942633 297.452506 
L 118.942633 297.337775 
L 121.151244 297.337775 
L 121.151244 297.223045 
L 137.945701 297.223045 
L 137.945701 297.108315 
L 152.329717 297.108315 
L 152.329717 296.993584 
L 154.880133 296.993584 
L 154.880133 296.878854 
L 155.354745 296.878854 
L 155.354745 296.764123 
L 157.122105 296.764123 
L 157.122105 296.649393 
L 160.446914 296.649393 
L 160.446914 296.534663 
L 162.119502 296.534663 
L 162.119502 296.419932 
L 180.747586 296.419932 
L 180.747586 296.305202 
L 182.16991 296.305202 
L 182.16991 296.190472 
L 183.500898 296.190472 
L 183.500898 296.075741 
L 184.729732 296.075741 
L 184.729732 295.961011 
L 186.966693 295.961011 
L 186.966693 295.846281 
L 193.086113 295.846281 
L 193.086113 295.73155 
L 193.811885 295.73155 
L 193.811885 295.61682 
L 193.818954 295.61682 
L 193.818954 295.50209 
L 338.688 295.50209 
" style="fill:none;stroke:#ff0000;stroke-linecap:square;stroke-width:1.5;"/>
   </g>
   <g id="line2d_51">
    <defs>
     <path d="M -6 6 
L 6 6 
L 6 -6 
L -6 -6 
z
" id="m8d9df46234" style="stroke:#ff0000;stroke-linejoin:miter;stroke-width:1.5;"/>
    </defs>
    <g>
     <use style="fill-opacity:0;stroke:#ff0000;stroke-linejoin:miter;stroke-width:1.5;" x="152.329717" xlink:href="#m8d9df46234" y="296.993584"/>
     <use style="fill-opacity:0;stroke:#ff0000;stroke-linejoin:miter;stroke-width:1.5;" x="193.818954" xlink:href="#m8d9df46234" y="295.61682"/>
     <use style="fill-opacity:0;stroke:#ff0000;stroke-linejoin:miter;stroke-width:1.5;" x="193.818954" xlink:href="#m8d9df46234" y="295.50209"/>
     <use style="fill-opacity:0;stroke:#ff0000;stroke-linejoin:miter;stroke-width:1.5;" x="193.818954" xlink:href="#m8d9df46234" y="295.50209"/>
     <use style="fill-opacity:0;stroke:#ff0000;stroke-linejoin:miter;stroke-width:1.5;" x="338.688" xlink:href="#m8d9df46234" y="295.50209"/>
    </g>
   </g>
   <g id="line2d_52">
    <path style="fill:none;stroke:#ff0000;stroke-linecap:square;stroke-width:1.5;"/>
    <g/>
   </g>
   <g id="line2d_53">
    <path clip-path="url(#p76cada8edc)" d="M 137.936996 297.223045 
" style="fill:none;stroke:#ff0000;stroke-linecap:square;stroke-width:1.5;"/>
    <defs>
     <path d="M -12 12 
L 12 -12 
M -12 -12 
L 12 12 
" id="m53df6ab9b4" style="stroke:#ff0000;"/>
    </defs>
    <g clip-path="url(#p76cada8edc)">
     <use style="fill:#ff0000;stroke:#ff0000;" x="137.936996" xlink:href="#m53df6ab9b4" y="297.223045"/>
    </g>
   </g>
   <g id="line2d_54">
    <path clip-path="url(#p76cada8edc)" d="M 57.6 298.944 
L 57.6 298.944 
L 57.6 298.944 
L 57.6 298.944 
L 338.688 298.944 
" style="fill:none;stroke:#bf00bf;stroke-linecap:square;stroke-width:1.5;"/>
   </g>
   <g id="line2d_55">
    <defs>
     <path d="M 0 8.485281 
L 8.485281 0 
L 0 -8.485281 
L -8.485281 0 
z
" id="m88d4ff9f73" style="stroke:#bf00bf;stroke-linejoin:miter;stroke-width:1.5;"/>
    </defs>
    <g clip-path="url(#p76cada8edc)">
     <use style="fill-opacity:0;stroke:#bf00bf;stroke-linejoin:miter;stroke-width:1.5;" x="57.6" xlink:href="#m88d4ff9f73" y="298.944"/>
    </g>
   </g>
   <g id="line2d_56">
    <path clip-path="url(#p76cada8edc)" style="fill:none;stroke:#bf00bf;stroke-linecap:square;stroke-width:1.5;"/>
    <g clip-path="url(#p76cada8edc)">
     <use style="fill-opacity:0;stroke:#bf00bf;stroke-linejoin:miter;stroke-width:1.5;" x="-1" xlink:href="#m88d4ff9f73" y="591.506376"/>
     <use style="fill-opacity:0;stroke:#bf00bf;stroke-linejoin:miter;stroke-width:1.5;" x="338.688" xlink:href="#m88d4ff9f73" y="591.506376"/>
    </g>
   </g>
   <g id="line2d_57">
    <path d="M 338.688 298.944 
L 369.60768 293.092752 
" style="fill:none;stroke:#bf00bf;stroke-linecap:square;stroke-width:1.5;"/>
    <g>
     <use style="fill-opacity:0;stroke:#bf00bf;stroke-linejoin:miter;stroke-width:1.5;" x="338.688" xlink:href="#m88d4ff9f73" y="298.944"/>
     <use style="fill-opacity:0;stroke:#bf00bf;stroke-linejoin:miter;stroke-width:1.5;" x="369.60768" xlink:href="#m88d4ff9f73" y="293.092752"/>
    </g>
   </g>
   <g id="line2d_58">
    <path d="M 338.688 295.50209 
L 369.60768 236.920776 
" style="fill:none;stroke:#ff0000;stroke-linecap:square;stroke-width:1.5;"/>
    <g>
     <use style="fill-opacity:0;stroke:#ff0000;stroke-linejoin:miter;stroke-width:1.5;" x="338.688" xlink:href="#m8d9df46234" y="295.50209"/>
     <use style="fill-opacity:0;stroke:#ff0000;stroke-linejoin:miter;stroke-width:1.5;" x="369.60768" xlink:href="#m8d9df46234" y="236.920776"/>
    </g>
   </g>
   <g id="line2d_59">
    <path d="M 338.688 288.618269 
L 369.60768 180.7488 
" style="fill:none;stroke:#000000;stroke-linecap:square;stroke-width:1.5;"/>
    <g>
     <use style="fill-opacity:0;stroke:#000000;stroke-width:1.5;" x="338.688" xlink:href="#m8e1bcd6a24" y="288.618269"/>
     <use style="fill-opacity:0;stroke:#000000;stroke-width:1.5;" x="369.60768" xlink:href="#m8e1bcd6a24" y="180.7488"/>
    </g>
   </g>
   <g id="line2d_60">
    <path d="M 338.688 275.997931 
L 369.60768 124.576824 
" style="fill:none;stroke:#0000ff;stroke-linecap:square;stroke-width:1.5;"/>
    <g>
     <use style="fill-opacity:0;stroke:#0000ff;stroke-linejoin:bevel;stroke-width:1.5;" x="338.688" xlink:href="#m637e17365c" y="275.997931"/>
     <use style="fill-opacity:0;stroke:#0000ff;stroke-linejoin:bevel;stroke-width:1.5;" x="369.60768" xlink:href="#m637e17365c" y="124.576824"/>
    </g>
   </g>
   <g id="line2d_61">
    <path d="M 338.688 257.641076 
L 369.60768 68.404848 
" style="fill:none;stroke:#008000;stroke-linecap:square;stroke-width:1.5;"/>
    <g>
     <use style="fill-opacity:0;stroke:#008000;stroke-linejoin:miter;stroke-width:1.5;" x="338.688" xlink:href="#m8fcf018c2d" y="257.641076"/>
     <use style="fill-opacity:0;stroke:#008000;stroke-linejoin:miter;stroke-width:1.5;" x="369.60768" xlink:href="#m8fcf018c2d" y="68.404848"/>
    </g>
   </g>
   <g id="line2d_62">
    <path d="M 338.688 233.547704 
L 369.60768 12.232871 
" style="fill:none;stroke:#00bfbf;stroke-linecap:square;stroke-width:1.5;"/>
    <g>
     <use style="fill-opacity:0;stroke:#00bfbf;stroke-width:1.5;" x="338.688" xlink:href="#ma15e9ddc68" y="233.547704"/>
     <use style="fill-opacity:0;stroke:#00bfbf;stroke-width:1.5;" x="369.60768" xlink:href="#ma15e9ddc68" y="12.232871"/>
    </g>
   </g>
   <g id="line2d_63">
    <path d="M 338.688 298.944 
L 338.688 6.381624 
" style="fill:none;stroke:#000000;stroke-linecap:square;stroke-width:1.5;"/>
   </g>
   <g id="patch_3">
    <path d="M 57.6 298.944 
L 57.6 3.456 
" style="fill:none;stroke:#000000;stroke-linecap:square;stroke-linejoin:miter;stroke-width:0.8;"/>
   </g>
   <g id="patch_4">
    <path d="M 338.688 298.944 
L 338.688 3.456 
" style="fill:none;stroke:#000000;stroke-linecap:square;stroke-linejoin:miter;stroke-width:0.8;"/>
   </g>
   <g id="patch_5">
    <path d="M 57.6 298.944 
L 338.688 298.944 
" style="fill:none;stroke:#000000;stroke-linecap:square;stroke-linejoin:miter;stroke-width:0.8;"/>
   </g>
   <g id="patch_6">
    <path d="M 57.6 3.456 
L 338.688 3.456 
" style="fill:none;stroke:#000000;stroke-linecap:square;stroke-linejoin:miter;stroke-width:0.8;"/>
   </g>
   <g id="text_13">
    <!-- 40-D -->
    <g transform="translate(375.22944 297.78369)scale(0.17 -0.17)">
     <defs>
      <path d="M 1259 4147 
L 1259 519 
L 2022 519 
Q 2988 519 3436 956 
Q 3884 1394 3884 2338 
Q 3884 3275 3436 3711 
Q 2988 4147 2022 4147 
L 1259 4147 
z
M 628 4666 
L 1925 4666 
Q 3281 4666 3915 4102 
Q 4550 3538 4550 2338 
Q 4550 1131 3912 565 
Q 3275 0 1925 0 
L 628 0 
L 628 4666 
z
" id="DejaVuSans-44" transform="scale(0.015625)"/>
     </defs>
     <use xlink:href="#DejaVuSans-34"/>
     <use x="63.623047" xlink:href="#DejaVuSans-30"/>
     <use x="127.246094" xlink:href="#DejaVuSans-2d"/>
     <use x="163.330078" xlink:href="#DejaVuSans-44"/>
    </g>
   </g>
   <g id="text_14">
    <!-- 20-D -->
    <g transform="translate(375.22944 241.611714)scale(0.17 -0.17)">
     <use xlink:href="#DejaVuSans-32"/>
     <use x="63.623047" xlink:href="#DejaVuSans-30"/>
     <use x="127.246094" xlink:href="#DejaVuSans-2d"/>
     <use x="163.330078" xlink:href="#DejaVuSans-44"/>
    </g>
   </g>
   <g id="text_15">
    <!-- 10-D -->
    <g transform="translate(375.22944 185.439737)scale(0.17 -0.17)">
     <use xlink:href="#DejaVuSans-31"/>
     <use x="63.623047" xlink:href="#DejaVuSans-30"/>
     <use x="127.246094" xlink:href="#DejaVuSans-2d"/>
     <use x="163.330078" xlink:href="#DejaVuSans-44"/>
    </g>
   </g>
   <g id="text_16">
    <!-- 5-D -->
    <g transform="translate(375.22944 129.267761)scale(0.17 -0.17)">
     <defs>
      <path d="M 691 4666 
L 3169 4666 
L 3169 4134 
L 1269 4134 
L 1269 2991 
Q 1406 3038 1543 3061 
Q 1681 3084 1819 3084 
Q 2600 3084 3056 2656 
Q 3513 2228 3513 1497 
Q 3513 744 3044 326 
Q 2575 -91 1722 -91 
Q 1428 -91 1123 -41 
Q 819 9 494 109 
L 494 744 
Q 775 591 1075 516 
Q 1375 441 1709 441 
Q 2250 441 2565 725 
Q 2881 1009 2881 1497 
Q 2881 1984 2565 2268 
Q 2250 2553 1709 2553 
Q 1456 2553 1204 2497 
Q 953 2441 691 2322 
L 691 4666 
z
" id="DejaVuSans-35" transform="scale(0.015625)"/>
     </defs>
     <use xlink:href="#DejaVuSans-35"/>
     <use x="63.623047" xlink:href="#DejaVuSans-2d"/>
     <use x="99.707031" xlink:href="#DejaVuSans-44"/>
    </g>
   </g>
   <g id="text_17">
    <!-- 3-D -->
    <g transform="translate(375.22944 73.095785)scale(0.17 -0.17)">
     <defs>
      <path d="M 2597 2516 
Q 3050 2419 3304 2112 
Q 3559 1806 3559 1356 
Q 3559 666 3084 287 
Q 2609 -91 1734 -91 
Q 1441 -91 1130 -33 
Q 819 25 488 141 
L 488 750 
Q 750 597 1062 519 
Q 1375 441 1716 441 
Q 2309 441 2620 675 
Q 2931 909 2931 1356 
Q 2931 1769 2642 2001 
Q 2353 2234 1838 2234 
L 1294 2234 
L 1294 2753 
L 1863 2753 
Q 2328 2753 2575 2939 
Q 2822 3125 2822 3475 
Q 2822 3834 2567 4026 
Q 2313 4219 1838 4219 
Q 1578 4219 1281 4162 
Q 984 4106 628 3988 
L 628 4550 
Q 988 4650 1302 4700 
Q 1616 4750 1894 4750 
Q 2613 4750 3031 4423 
Q 3450 4097 3450 3541 
Q 3450 3153 3228 2886 
Q 3006 2619 2597 2516 
z
" id="DejaVuSans-33" transform="scale(0.015625)"/>
     </defs>
     <use xlink:href="#DejaVuSans-33"/>
     <use x="63.623047" xlink:href="#DejaVuSans-2d"/>
     <use x="99.707031" xlink:href="#DejaVuSans-44"/>
    </g>
   </g>
   <g id="text_18">
    <!-- 2-D -->
    <g transform="translate(375.22944 16.923809)scale(0.17 -0.17)">
     <use xlink:href="#DejaVuSans-32"/>
     <use x="63.623047" xlink:href="#DejaVuSans-2d"/>
     <use x="99.707031" xlink:href="#DejaVuSans-44"/>
    </g>
   </g>
   <g id="text_19">
    <!-- bbob f1-f5 -->
    <g transform="translate(60.41088 14.161286)scale(0.102 -0.102)">
     <defs>
      <path d="M 3116 1747 
Q 3116 2381 2855 2742 
Q 2594 3103 2138 3103 
Q 1681 3103 1420 2742 
Q 1159 2381 1159 1747 
Q 1159 1113 1420 752 
Q 1681 391 2138 391 
Q 2594 391 2855 752 
Q 3116 1113 3116 1747 
z
M 1159 2969 
Q 1341 3281 1617 3432 
Q 1894 3584 2278 3584 
Q 2916 3584 3314 3078 
Q 3713 2572 3713 1747 
Q 3713 922 3314 415 
Q 2916 -91 2278 -91 
Q 1894 -91 1617 61 
Q 1341 213 1159 525 
L 1159 0 
L 581 0 
L 581 4863 
L 1159 4863 
L 1159 2969 
z
" id="DejaVuSans-62" transform="scale(0.015625)"/>
     </defs>
     <use xlink:href="#DejaVuSans-62"/>
     <use x="63.476562" xlink:href="#DejaVuSans-62"/>
     <use x="126.953125" xlink:href="#DejaVuSans-6f"/>
     <use x="188.134766" xlink:href="#DejaVuSans-62"/>
     <use x="251.611328" xlink:href="#DejaVuSans-20"/>
     <use x="283.398438" xlink:href="#DejaVuSans-66"/>
     <use x="318.603516" xlink:href="#DejaVuSans-31"/>
     <use x="382.226562" xlink:href="#DejaVuSans-2d"/>
     <use x="418.310547" xlink:href="#DejaVuSans-66"/>
     <use x="453.515625" xlink:href="#DejaVuSans-35"/>
    </g>
    <!-- 51 targets: 100..1e-08 -->
    <g transform="translate(60.41088 25.583055)scale(0.102 -0.102)">
     <defs>
      <path d="M 750 794 
L 1409 794 
L 1409 0 
L 750 0 
L 750 794 
z
M 750 3309 
L 1409 3309 
L 1409 2516 
L 750 2516 
L 750 3309 
z
" id="DejaVuSans-3a" transform="scale(0.015625)"/>
     </defs>
     <use xlink:href="#DejaVuSans-35"/>
     <use x="63.623047" xlink:href="#DejaVuSans-31"/>
     <use x="127.246094" xlink:href="#DejaVuSans-20"/>
     <use x="159.033203" xlink:href="#DejaVuSans-74"/>
     <use x="198.242188" xlink:href="#DejaVuSans-61"/>
     <use x="259.521484" xlink:href="#DejaVuSans-72"/>
     <use x="298.884766" xlink:href="#DejaVuSans-67"/>
     <use x="362.361328" xlink:href="#DejaVuSans-65"/>
     <use x="423.884766" xlink:href="#DejaVuSans-74"/>
     <use x="463.09375" xlink:href="#DejaVuSans-73"/>
     <use x="515.193359" xlink:href="#DejaVuSans-3a"/>
     <use x="548.884766" xlink:href="#DejaVuSans-20"/>
     <use x="580.671875" xlink:href="#DejaVuSans-31"/>
     <use x="644.294922" xlink:href="#DejaVuSans-30"/>
     <use x="707.917969" xlink:href="#DejaVuSans-30"/>
     <use x="771.541016" xlink:href="#DejaVuSans-2e"/>
     <use x="803.328125" xlink:href="#DejaVuSans-2e"/>
     <use x="835.115234" xlink:href="#DejaVuSans-31"/>
     <use x="898.738281" xlink:href="#DejaVuSans-65"/>
     <use x="960.261719" xlink:href="#DejaVuSans-2d"/>
     <use x="996.345703" xlink:href="#DejaVuSans-30"/>
     <use x="1059.96875" xlink:href="#DejaVuSans-38"/>
    </g>
    <!-- 15 instances -->
    <g transform="translate(60.41088 37.004824)scale(0.102 -0.102)">
     <use xlink:href="#DejaVuSans-31"/>
     <use x="63.623047" xlink:href="#DejaVuSans-35"/>
     <use x="127.246094" xlink:href="#DejaVuSans-20"/>
     <use x="159.033203" xlink:href="#DejaVuSans-69"/>
     <use x="186.816406" xlink:href="#DejaVuSans-6e"/>
     <use x="250.195312" xlink:href="#DejaVuSans-73"/>
     <use x="302.294922" xlink:href="#DejaVuSans-74"/>
     <use x="341.503906" xlink:href="#DejaVuSans-61"/>
     <use x="402.783203" xlink:href="#DejaVuSans-6e"/>
     <use x="466.162109" xlink:href="#DejaVuSans-63"/>
     <use x="521.142578" xlink:href="#DejaVuSans-65"/>
     <use x="582.666016" xlink:href="#DejaVuSans-73"/>
    </g>
   </g>
   <g id="text_20">
    <!-- v2.4 -->
    <g style="fill:#808080;" transform="translate(187.233062 293.909432)scale(0.1 -0.1)">
     <use xlink:href="#DejaVuSans-76"/>
     <use x="59.179688" xlink:href="#DejaVuSans-32"/>
     <use x="122.802734" xlink:href="#DejaVuSans-2e"/>
     <use x="154.589844" xlink:href="#DejaVuSans-34"/>
    </g>
   </g>
  </g>
 </g>
 <defs>
  <clipPath id="p76cada8edc">
   <rect height="295.488" width="281.088" x="57.6" y="3.456"/>
  </clipPath>
 </defs>
</svg>
