<?xml version="1.0" encoding="utf-8" standalone="no"?>
<!DOCTYPE svg PUBLIC "-//W3C//DTD SVG 1.1//EN"
  "http://www.w3.org/Graphics/SVG/1.1/DTD/svg11.dtd">
<svg height="345.6pt" version="1.1" viewBox="0 0 460.8 345.6" width="460.8pt" xmlns="http://www.w3.org/2000/svg" xmlns:xlink="http://www.w3.org/1999/xlink">
 <metadata>
  <rdf:RDF xmlns:cc="http://creativecommons.org/ns#" xmlns:dc="http://purl.org/dc/elements/1.1/" xmlns:rdf="http://www.w3.org/1999/02/22-rdf-syntax-ns#">
   <cc:Work>
    <dc:type rdf:resource="http://purl.org/dc/dcmitype/StillImage"/>
    <dc:date>2021-06-14T12:33:47.787839</dc:date>
    <dc:format>image/svg+xml</dc:format>
    <dc:creator>
     <cc:Agent>
      <dc:title>Matplotlib v3.4.2, https://matplotlib.org/</dc:title>
     </cc:Agent>
    </dc:creator>
   </cc:Work>
  </rdf:RDF>
 </metadata>
 <defs>
  <style type="text/css">*{stroke-linecap:butt;stroke-linejoin:round;}</style>
 </defs>
 <g id="figure_1">
  <g id="patch_1">
   <path d="M 0 345.6 
L 460.8 345.6 
L 460.8 0 
L 0 0 
z
" style="fill:#ffffff;"/>
  </g>
  <g id="axes_1">
   <g id="patch_2">
    <path d="M 57.6 298.944 
L 338.688 298.944 
L 338.688 3.456 
L 57.6 3.456 
z
" style="fill:#ffffff;"/>
   </g>
   <g id="matplotlib.axis_1">
    <g id="xtick_1">
     <g id="line2d_1">
      <path clip-path="url(#pb96c0008df)" d="M 57.6 298.944 
L 57.6 3.456 
" style="fill:none;stroke:#b0b0b0;stroke-linecap:square;stroke-width:0.8;"/>
     </g>
     <g id="line2d_2">
      <defs>
       <path d="M 0 0 
L 0 3.5 
" id="me245db2d59" style="stroke:#000000;stroke-width:0.8;"/>
      </defs>
      <g>
       <use style="stroke:#000000;stroke-width:0.8;" x="57.6" xlink:href="#me245db2d59" y="298.944"/>
      </g>
     </g>
     <g id="text_1">
      <!-- 0 -->
      <g transform="translate(51.2375 321.140875)scale(0.2 -0.2)">
       <defs>
        <path d="M 2034 4250 
Q 1547 4250 1301 3770 
Q 1056 3291 1056 2328 
Q 1056 1369 1301 889 
Q 1547 409 2034 409 
Q 2525 409 2770 889 
Q 3016 1369 3016 2328 
Q 3016 3291 2770 3770 
Q 2525 4250 2034 4250 
z
M 2034 4750 
Q 2819 4750 3233 4129 
Q 3647 3509 3647 2328 
Q 3647 1150 3233 529 
Q 2819 -91 2034 -91 
Q 1250 -91 836 529 
Q 422 1150 422 2328 
Q 422 3509 836 4129 
Q 1250 4750 2034 4750 
z
" id="DejaVuSans-30" transform="scale(0.015625)"/>
       </defs>
       <use xlink:href="#DejaVuSans-30"/>
      </g>
     </g>
    </g>
    <g id="xtick_2">
     <g id="line2d_3">
      <path clip-path="url(#pb96c0008df)" d="M 137.910857 298.944 
L 137.910857 3.456 
" style="fill:none;stroke:#b0b0b0;stroke-linecap:square;stroke-width:0.8;"/>
     </g>
     <g id="line2d_4">
      <g>
       <use style="stroke:#000000;stroke-width:0.8;" x="137.910857" xlink:href="#me245db2d59" y="298.944"/>
      </g>
     </g>
     <g id="text_2">
      <!-- 2 -->
      <g transform="translate(131.548357 321.140875)scale(0.2 -0.2)">
       <defs>
        <path d="M 1228 531 
L 3431 531 
L 3431 0 
L 469 0 
L 469 531 
Q 828 903 1448 1529 
Q 2069 2156 2228 2338 
Q 2531 2678 2651 2914 
Q 2772 3150 2772 3378 
Q 2772 3750 2511 3984 
Q 2250 4219 1831 4219 
Q 1534 4219 1204 4116 
Q 875 4013 500 3803 
L 500 4441 
Q 881 4594 1212 4672 
Q 1544 4750 1819 4750 
Q 2544 4750 2975 4387 
Q 3406 4025 3406 3419 
Q 3406 3131 3298 2873 
Q 3191 2616 2906 2266 
Q 2828 2175 2409 1742 
Q 1991 1309 1228 531 
z
" id="DejaVuSans-32" transform="scale(0.015625)"/>
       </defs>
       <use xlink:href="#DejaVuSans-32"/>
      </g>
     </g>
    </g>
    <g id="xtick_3">
     <g id="line2d_5">
      <path clip-path="url(#pb96c0008df)" d="M 218.221714 298.944 
L 218.221714 3.456 
" style="fill:none;stroke:#b0b0b0;stroke-linecap:square;stroke-width:0.8;"/>
     </g>
     <g id="line2d_6">
      <g>
       <use style="stroke:#000000;stroke-width:0.8;" x="218.221714" xlink:href="#me245db2d59" y="298.944"/>
      </g>
     </g>
     <g id="text_3">
      <!-- 4 -->
      <g transform="translate(211.859214 321.140875)scale(0.2 -0.2)">
       <defs>
        <path d="M 2419 4116 
L 825 1625 
L 2419 1625 
L 2419 4116 
z
M 2253 4666 
L 3047 4666 
L 3047 1625 
L 3713 1625 
L 3713 1100 
L 3047 1100 
L 3047 0 
L 2419 0 
L 2419 1100 
L 313 1100 
L 313 1709 
L 2253 4666 
z
" id="DejaVuSans-34" transform="scale(0.015625)"/>
       </defs>
       <use xlink:href="#DejaVuSans-34"/>
      </g>
     </g>
    </g>
    <g id="xtick_4">
     <g id="line2d_7">
      <path clip-path="url(#pb96c0008df)" d="M 298.532571 298.944 
L 298.532571 3.456 
" style="fill:none;stroke:#b0b0b0;stroke-linecap:square;stroke-width:0.8;"/>
     </g>
     <g id="line2d_8">
      <g>
       <use style="stroke:#000000;stroke-width:0.8;" x="298.532571" xlink:href="#me245db2d59" y="298.944"/>
      </g>
     </g>
     <g id="text_4">
      <!-- 6 -->
      <g transform="translate(292.170071 321.140875)scale(0.2 -0.2)">
       <defs>
        <path d="M 2113 2584 
Q 1688 2584 1439 2293 
Q 1191 2003 1191 1497 
Q 1191 994 1439 701 
Q 1688 409 2113 409 
Q 2538 409 2786 701 
Q 3034 994 3034 1497 
Q 3034 2003 2786 2293 
Q 2538 2584 2113 2584 
z
M 3366 4563 
L 3366 3988 
Q 3128 4100 2886 4159 
Q 2644 4219 2406 4219 
Q 1781 4219 1451 3797 
Q 1122 3375 1075 2522 
Q 1259 2794 1537 2939 
Q 1816 3084 2150 3084 
Q 2853 3084 3261 2657 
Q 3669 2231 3669 1497 
Q 3669 778 3244 343 
Q 2819 -91 2113 -91 
Q 1303 -91 875 529 
Q 447 1150 447 2328 
Q 447 3434 972 4092 
Q 1497 4750 2381 4750 
Q 2619 4750 2861 4703 
Q 3103 4656 3366 4563 
z
" id="DejaVuSans-36" transform="scale(0.015625)"/>
       </defs>
       <use xlink:href="#DejaVuSans-36"/>
      </g>
     </g>
    </g>
    <g id="xtick_5">
     <g id="line2d_9">
      <path clip-path="url(#pb96c0008df)" d="M 97.755429 298.944 
L 97.755429 3.456 
" style="fill:none;stroke:#b0b0b0;stroke-linecap:square;stroke-width:0.8;"/>
     </g>
     <g id="line2d_10">
      <defs>
       <path d="M 0 0 
L 0 2 
" id="m3d73eece33" style="stroke:#000000;stroke-width:0.6;"/>
      </defs>
      <g>
       <use style="stroke:#000000;stroke-width:0.6;" x="97.755429" xlink:href="#m3d73eece33" y="298.944"/>
      </g>
     </g>
    </g>
    <g id="xtick_6">
     <g id="line2d_11">
      <path clip-path="url(#pb96c0008df)" d="M 178.066286 298.944 
L 178.066286 3.456 
" style="fill:none;stroke:#b0b0b0;stroke-linecap:square;stroke-width:0.8;"/>
     </g>
     <g id="line2d_12">
      <g>
       <use style="stroke:#000000;stroke-width:0.6;" x="178.066286" xlink:href="#m3d73eece33" y="298.944"/>
      </g>
     </g>
    </g>
    <g id="xtick_7">
     <g id="line2d_13">
      <path clip-path="url(#pb96c0008df)" d="M 258.377143 298.944 
L 258.377143 3.456 
" style="fill:none;stroke:#b0b0b0;stroke-linecap:square;stroke-width:0.8;"/>
     </g>
     <g id="line2d_14">
      <g>
       <use style="stroke:#000000;stroke-width:0.6;" x="258.377143" xlink:href="#m3d73eece33" y="298.944"/>
      </g>
     </g>
    </g>
    <g id="xtick_8">
     <g id="line2d_15">
      <path clip-path="url(#pb96c0008df)" d="M 338.688 298.944 
L 338.688 3.456 
" style="fill:none;stroke:#b0b0b0;stroke-linecap:square;stroke-width:0.8;"/>
     </g>
     <g id="line2d_16">
      <g>
       <use style="stroke:#000000;stroke-width:0.6;" x="338.688" xlink:href="#m3d73eece33" y="298.944"/>
      </g>
     </g>
    </g>
    <g id="text_5">
     <!-- log10(# f-evals / dimension) -->
     <g transform="translate(77.764078 342.217594)scale(0.17 -0.17)">
      <defs>
       <path d="M 603 4863 
L 1178 4863 
L 1178 0 
L 603 0 
L 603 4863 
z
" id="DejaVuSans-6c" transform="scale(0.015625)"/>
       <path d="M 1959 3097 
Q 1497 3097 1228 2736 
Q 959 2375 959 1747 
Q 959 1119 1226 758 
Q 1494 397 1959 397 
Q 2419 397 2687 759 
Q 2956 1122 2956 1747 
Q 2956 2369 2687 2733 
Q 2419 3097 1959 3097 
z
M 1959 3584 
Q 2709 3584 3137 3096 
Q 3566 2609 3566 1747 
Q 3566 888 3137 398 
Q 2709 -91 1959 -91 
Q 1206 -91 779 398 
Q 353 888 353 1747 
Q 353 2609 779 3096 
Q 1206 3584 1959 3584 
z
" id="DejaVuSans-6f" transform="scale(0.015625)"/>
       <path d="M 2906 1791 
Q 2906 2416 2648 2759 
Q 2391 3103 1925 3103 
Q 1463 3103 1205 2759 
Q 947 2416 947 1791 
Q 947 1169 1205 825 
Q 1463 481 1925 481 
Q 2391 481 2648 825 
Q 2906 1169 2906 1791 
z
M 3481 434 
Q 3481 -459 3084 -895 
Q 2688 -1331 1869 -1331 
Q 1566 -1331 1297 -1286 
Q 1028 -1241 775 -1147 
L 775 -588 
Q 1028 -725 1275 -790 
Q 1522 -856 1778 -856 
Q 2344 -856 2625 -561 
Q 2906 -266 2906 331 
L 2906 616 
Q 2728 306 2450 153 
Q 2172 0 1784 0 
Q 1141 0 747 490 
Q 353 981 353 1791 
Q 353 2603 747 3093 
Q 1141 3584 1784 3584 
Q 2172 3584 2450 3431 
Q 2728 3278 2906 2969 
L 2906 3500 
L 3481 3500 
L 3481 434 
z
" id="DejaVuSans-67" transform="scale(0.015625)"/>
       <path d="M 794 531 
L 1825 531 
L 1825 4091 
L 703 3866 
L 703 4441 
L 1819 4666 
L 2450 4666 
L 2450 531 
L 3481 531 
L 3481 0 
L 794 0 
L 794 531 
z
" id="DejaVuSans-31" transform="scale(0.015625)"/>
       <path d="M 1984 4856 
Q 1566 4138 1362 3434 
Q 1159 2731 1159 2009 
Q 1159 1288 1364 580 
Q 1569 -128 1984 -844 
L 1484 -844 
Q 1016 -109 783 600 
Q 550 1309 550 2009 
Q 550 2706 781 3412 
Q 1013 4119 1484 4856 
L 1984 4856 
z
" id="DejaVuSans-28" transform="scale(0.015625)"/>
       <path d="M 3272 2816 
L 2363 2816 
L 2100 1772 
L 3016 1772 
L 3272 2816 
z
M 2803 4594 
L 2478 3297 
L 3391 3297 
L 3719 4594 
L 4219 4594 
L 3897 3297 
L 4872 3297 
L 4872 2816 
L 3775 2816 
L 3519 1772 
L 4513 1772 
L 4513 1294 
L 3397 1294 
L 3072 0 
L 2572 0 
L 2894 1294 
L 1978 1294 
L 1656 0 
L 1153 0 
L 1478 1294 
L 494 1294 
L 494 1772 
L 1594 1772 
L 1856 2816 
L 850 2816 
L 850 3297 
L 1978 3297 
L 2297 4594 
L 2803 4594 
z
" id="DejaVuSans-23" transform="scale(0.015625)"/>
       <path id="DejaVuSans-20" transform="scale(0.015625)"/>
       <path d="M 2375 4863 
L 2375 4384 
L 1825 4384 
Q 1516 4384 1395 4259 
Q 1275 4134 1275 3809 
L 1275 3500 
L 2222 3500 
L 2222 3053 
L 1275 3053 
L 1275 0 
L 697 0 
L 697 3053 
L 147 3053 
L 147 3500 
L 697 3500 
L 697 3744 
Q 697 4328 969 4595 
Q 1241 4863 1831 4863 
L 2375 4863 
z
" id="DejaVuSans-66" transform="scale(0.015625)"/>
       <path d="M 313 2009 
L 1997 2009 
L 1997 1497 
L 313 1497 
L 313 2009 
z
" id="DejaVuSans-2d" transform="scale(0.015625)"/>
       <path d="M 3597 1894 
L 3597 1613 
L 953 1613 
Q 991 1019 1311 708 
Q 1631 397 2203 397 
Q 2534 397 2845 478 
Q 3156 559 3463 722 
L 3463 178 
Q 3153 47 2828 -22 
Q 2503 -91 2169 -91 
Q 1331 -91 842 396 
Q 353 884 353 1716 
Q 353 2575 817 3079 
Q 1281 3584 2069 3584 
Q 2775 3584 3186 3129 
Q 3597 2675 3597 1894 
z
M 3022 2063 
Q 3016 2534 2758 2815 
Q 2500 3097 2075 3097 
Q 1594 3097 1305 2825 
Q 1016 2553 972 2059 
L 3022 2063 
z
" id="DejaVuSans-65" transform="scale(0.015625)"/>
       <path d="M 191 3500 
L 800 3500 
L 1894 563 
L 2988 3500 
L 3597 3500 
L 2284 0 
L 1503 0 
L 191 3500 
z
" id="DejaVuSans-76" transform="scale(0.015625)"/>
       <path d="M 2194 1759 
Q 1497 1759 1228 1600 
Q 959 1441 959 1056 
Q 959 750 1161 570 
Q 1363 391 1709 391 
Q 2188 391 2477 730 
Q 2766 1069 2766 1631 
L 2766 1759 
L 2194 1759 
z
M 3341 1997 
L 3341 0 
L 2766 0 
L 2766 531 
Q 2569 213 2275 61 
Q 1981 -91 1556 -91 
Q 1019 -91 701 211 
Q 384 513 384 1019 
Q 384 1609 779 1909 
Q 1175 2209 1959 2209 
L 2766 2209 
L 2766 2266 
Q 2766 2663 2505 2880 
Q 2244 3097 1772 3097 
Q 1472 3097 1187 3025 
Q 903 2953 641 2809 
L 641 3341 
Q 956 3463 1253 3523 
Q 1550 3584 1831 3584 
Q 2591 3584 2966 3190 
Q 3341 2797 3341 1997 
z
" id="DejaVuSans-61" transform="scale(0.015625)"/>
       <path d="M 2834 3397 
L 2834 2853 
Q 2591 2978 2328 3040 
Q 2066 3103 1784 3103 
Q 1356 3103 1142 2972 
Q 928 2841 928 2578 
Q 928 2378 1081 2264 
Q 1234 2150 1697 2047 
L 1894 2003 
Q 2506 1872 2764 1633 
Q 3022 1394 3022 966 
Q 3022 478 2636 193 
Q 2250 -91 1575 -91 
Q 1294 -91 989 -36 
Q 684 19 347 128 
L 347 722 
Q 666 556 975 473 
Q 1284 391 1588 391 
Q 1994 391 2212 530 
Q 2431 669 2431 922 
Q 2431 1156 2273 1281 
Q 2116 1406 1581 1522 
L 1381 1569 
Q 847 1681 609 1914 
Q 372 2147 372 2553 
Q 372 3047 722 3315 
Q 1072 3584 1716 3584 
Q 2034 3584 2315 3537 
Q 2597 3491 2834 3397 
z
" id="DejaVuSans-73" transform="scale(0.015625)"/>
       <path d="M 1625 4666 
L 2156 4666 
L 531 -594 
L 0 -594 
L 1625 4666 
z
" id="DejaVuSans-2f" transform="scale(0.015625)"/>
       <path d="M 2906 2969 
L 2906 4863 
L 3481 4863 
L 3481 0 
L 2906 0 
L 2906 525 
Q 2725 213 2448 61 
Q 2172 -91 1784 -91 
Q 1150 -91 751 415 
Q 353 922 353 1747 
Q 353 2572 751 3078 
Q 1150 3584 1784 3584 
Q 2172 3584 2448 3432 
Q 2725 3281 2906 2969 
z
M 947 1747 
Q 947 1113 1208 752 
Q 1469 391 1925 391 
Q 2381 391 2643 752 
Q 2906 1113 2906 1747 
Q 2906 2381 2643 2742 
Q 2381 3103 1925 3103 
Q 1469 3103 1208 2742 
Q 947 2381 947 1747 
z
" id="DejaVuSans-64" transform="scale(0.015625)"/>
       <path d="M 603 3500 
L 1178 3500 
L 1178 0 
L 603 0 
L 603 3500 
z
M 603 4863 
L 1178 4863 
L 1178 4134 
L 603 4134 
L 603 4863 
z
" id="DejaVuSans-69" transform="scale(0.015625)"/>
       <path d="M 3328 2828 
Q 3544 3216 3844 3400 
Q 4144 3584 4550 3584 
Q 5097 3584 5394 3201 
Q 5691 2819 5691 2113 
L 5691 0 
L 5113 0 
L 5113 2094 
Q 5113 2597 4934 2840 
Q 4756 3084 4391 3084 
Q 3944 3084 3684 2787 
Q 3425 2491 3425 1978 
L 3425 0 
L 2847 0 
L 2847 2094 
Q 2847 2600 2669 2842 
Q 2491 3084 2119 3084 
Q 1678 3084 1418 2786 
Q 1159 2488 1159 1978 
L 1159 0 
L 581 0 
L 581 3500 
L 1159 3500 
L 1159 2956 
Q 1356 3278 1631 3431 
Q 1906 3584 2284 3584 
Q 2666 3584 2933 3390 
Q 3200 3197 3328 2828 
z
" id="DejaVuSans-6d" transform="scale(0.015625)"/>
       <path d="M 3513 2113 
L 3513 0 
L 2938 0 
L 2938 2094 
Q 2938 2591 2744 2837 
Q 2550 3084 2163 3084 
Q 1697 3084 1428 2787 
Q 1159 2491 1159 1978 
L 1159 0 
L 581 0 
L 581 3500 
L 1159 3500 
L 1159 2956 
Q 1366 3272 1645 3428 
Q 1925 3584 2291 3584 
Q 2894 3584 3203 3211 
Q 3513 2838 3513 2113 
z
" id="DejaVuSans-6e" transform="scale(0.015625)"/>
       <path d="M 513 4856 
L 1013 4856 
Q 1481 4119 1714 3412 
Q 1947 2706 1947 2009 
Q 1947 1309 1714 600 
Q 1481 -109 1013 -844 
L 513 -844 
Q 928 -128 1133 580 
Q 1338 1288 1338 2009 
Q 1338 2731 1133 3434 
Q 928 4138 513 4856 
z
" id="DejaVuSans-29" transform="scale(0.015625)"/>
      </defs>
      <use xlink:href="#DejaVuSans-6c"/>
      <use x="27.783203" xlink:href="#DejaVuSans-6f"/>
      <use x="88.964844" xlink:href="#DejaVuSans-67"/>
      <use x="152.441406" xlink:href="#DejaVuSans-31"/>
      <use x="216.064453" xlink:href="#DejaVuSans-30"/>
      <use x="279.6875" xlink:href="#DejaVuSans-28"/>
      <use x="318.701172" xlink:href="#DejaVuSans-23"/>
      <use x="402.490234" xlink:href="#DejaVuSans-20"/>
      <use x="434.277344" xlink:href="#DejaVuSans-66"/>
      <use x="463.982422" xlink:href="#DejaVuSans-2d"/>
      <use x="500.066406" xlink:href="#DejaVuSans-65"/>
      <use x="561.589844" xlink:href="#DejaVuSans-76"/>
      <use x="620.769531" xlink:href="#DejaVuSans-61"/>
      <use x="682.048828" xlink:href="#DejaVuSans-6c"/>
      <use x="709.832031" xlink:href="#DejaVuSans-73"/>
      <use x="761.931641" xlink:href="#DejaVuSans-20"/>
      <use x="793.71875" xlink:href="#DejaVuSans-2f"/>
      <use x="827.410156" xlink:href="#DejaVuSans-20"/>
      <use x="859.197266" xlink:href="#DejaVuSans-64"/>
      <use x="922.673828" xlink:href="#DejaVuSans-69"/>
      <use x="950.457031" xlink:href="#DejaVuSans-6d"/>
      <use x="1047.869141" xlink:href="#DejaVuSans-65"/>
      <use x="1109.392578" xlink:href="#DejaVuSans-6e"/>
      <use x="1172.771484" xlink:href="#DejaVuSans-73"/>
      <use x="1224.871094" xlink:href="#DejaVuSans-69"/>
      <use x="1252.654297" xlink:href="#DejaVuSans-6f"/>
      <use x="1313.835938" xlink:href="#DejaVuSans-6e"/>
      <use x="1377.214844" xlink:href="#DejaVuSans-29"/>
     </g>
    </g>
   </g>
   <g id="matplotlib.axis_2">
    <g id="ytick_1">
     <g id="line2d_17">
      <path clip-path="url(#pb96c0008df)" d="M 57.6 298.944 
L 338.688 298.944 
" style="fill:none;stroke:#b0b0b0;stroke-linecap:square;stroke-width:0.8;"/>
     </g>
     <g id="line2d_18">
      <defs>
       <path d="M 0 0 
L -3.5 0 
" id="ma5717fd342" style="stroke:#000000;stroke-width:0.8;"/>
      </defs>
      <g>
       <use style="stroke:#000000;stroke-width:0.8;" x="57.6" xlink:href="#ma5717fd342" y="298.944"/>
      </g>
     </g>
     <g id="text_6">
      <!-- 0.0 -->
      <g transform="translate(25.155 305.02275)scale(0.16 -0.16)">
       <defs>
        <path d="M 684 794 
L 1344 794 
L 1344 0 
L 684 0 
L 684 794 
z
" id="DejaVuSans-2e" transform="scale(0.015625)"/>
       </defs>
       <use xlink:href="#DejaVuSans-30"/>
       <use x="63.623047" xlink:href="#DejaVuSans-2e"/>
       <use x="95.410156" xlink:href="#DejaVuSans-30"/>
      </g>
     </g>
    </g>
    <g id="ytick_2">
     <g id="line2d_19">
      <path clip-path="url(#pb96c0008df)" d="M 57.6 240.431525 
L 338.688 240.431525 
" style="fill:none;stroke:#b0b0b0;stroke-linecap:square;stroke-width:0.8;"/>
     </g>
     <g id="line2d_20">
      <g>
       <use style="stroke:#000000;stroke-width:0.8;" x="57.6" xlink:href="#ma5717fd342" y="240.431525"/>
      </g>
     </g>
     <g id="text_7">
      <!-- 0.2 -->
      <g transform="translate(25.155 246.510275)scale(0.16 -0.16)">
       <use xlink:href="#DejaVuSans-30"/>
       <use x="63.623047" xlink:href="#DejaVuSans-2e"/>
       <use x="95.410156" xlink:href="#DejaVuSans-32"/>
      </g>
     </g>
    </g>
    <g id="ytick_3">
     <g id="line2d_21">
      <path clip-path="url(#pb96c0008df)" d="M 57.6 181.91905 
L 338.688 181.91905 
" style="fill:none;stroke:#b0b0b0;stroke-linecap:square;stroke-width:0.8;"/>
     </g>
     <g id="line2d_22">
      <g>
       <use style="stroke:#000000;stroke-width:0.8;" x="57.6" xlink:href="#ma5717fd342" y="181.91905"/>
      </g>
     </g>
     <g id="text_8">
      <!-- 0.4 -->
      <g transform="translate(25.155 187.9978)scale(0.16 -0.16)">
       <use xlink:href="#DejaVuSans-30"/>
       <use x="63.623047" xlink:href="#DejaVuSans-2e"/>
       <use x="95.410156" xlink:href="#DejaVuSans-34"/>
      </g>
     </g>
    </g>
    <g id="ytick_4">
     <g id="line2d_23">
      <path clip-path="url(#pb96c0008df)" d="M 57.6 123.406574 
L 338.688 123.406574 
" style="fill:none;stroke:#b0b0b0;stroke-linecap:square;stroke-width:0.8;"/>
     </g>
     <g id="line2d_24">
      <g>
       <use style="stroke:#000000;stroke-width:0.8;" x="57.6" xlink:href="#ma5717fd342" y="123.406574"/>
      </g>
     </g>
     <g id="text_9">
      <!-- 0.6 -->
      <g transform="translate(25.155 129.485324)scale(0.16 -0.16)">
       <use xlink:href="#DejaVuSans-30"/>
       <use x="63.623047" xlink:href="#DejaVuSans-2e"/>
       <use x="95.410156" xlink:href="#DejaVuSans-36"/>
      </g>
     </g>
    </g>
    <g id="ytick_5">
     <g id="line2d_25">
      <path clip-path="url(#pb96c0008df)" d="M 57.6 64.894099 
L 338.688 64.894099 
" style="fill:none;stroke:#b0b0b0;stroke-linecap:square;stroke-width:0.8;"/>
     </g>
     <g id="line2d_26">
      <g>
       <use style="stroke:#000000;stroke-width:0.8;" x="57.6" xlink:href="#ma5717fd342" y="64.894099"/>
      </g>
     </g>
     <g id="text_10">
      <!-- 0.8 -->
      <g transform="translate(25.155 70.972849)scale(0.16 -0.16)">
       <defs>
        <path d="M 2034 2216 
Q 1584 2216 1326 1975 
Q 1069 1734 1069 1313 
Q 1069 891 1326 650 
Q 1584 409 2034 409 
Q 2484 409 2743 651 
Q 3003 894 3003 1313 
Q 3003 1734 2745 1975 
Q 2488 2216 2034 2216 
z
M 1403 2484 
Q 997 2584 770 2862 
Q 544 3141 544 3541 
Q 544 4100 942 4425 
Q 1341 4750 2034 4750 
Q 2731 4750 3128 4425 
Q 3525 4100 3525 3541 
Q 3525 3141 3298 2862 
Q 3072 2584 2669 2484 
Q 3125 2378 3379 2068 
Q 3634 1759 3634 1313 
Q 3634 634 3220 271 
Q 2806 -91 2034 -91 
Q 1263 -91 848 271 
Q 434 634 434 1313 
Q 434 1759 690 2068 
Q 947 2378 1403 2484 
z
M 1172 3481 
Q 1172 3119 1398 2916 
Q 1625 2713 2034 2713 
Q 2441 2713 2670 2916 
Q 2900 3119 2900 3481 
Q 2900 3844 2670 4047 
Q 2441 4250 2034 4250 
Q 1625 4250 1398 4047 
Q 1172 3844 1172 3481 
z
" id="DejaVuSans-38" transform="scale(0.015625)"/>
       </defs>
       <use xlink:href="#DejaVuSans-30"/>
       <use x="63.623047" xlink:href="#DejaVuSans-2e"/>
       <use x="95.410156" xlink:href="#DejaVuSans-38"/>
      </g>
     </g>
    </g>
    <g id="ytick_6">
     <g id="line2d_27">
      <path clip-path="url(#pb96c0008df)" d="M 57.6 6.381624 
L 338.688 6.381624 
" style="fill:none;stroke:#b0b0b0;stroke-linecap:square;stroke-width:0.8;"/>
     </g>
     <g id="line2d_28">
      <g>
       <use style="stroke:#000000;stroke-width:0.8;" x="57.6" xlink:href="#ma5717fd342" y="6.381624"/>
      </g>
     </g>
     <g id="text_11">
      <!-- 1.0 -->
      <g transform="translate(25.155 12.460374)scale(0.16 -0.16)">
       <use xlink:href="#DejaVuSans-31"/>
       <use x="63.623047" xlink:href="#DejaVuSans-2e"/>
       <use x="95.410156" xlink:href="#DejaVuSans-30"/>
      </g>
     </g>
    </g>
    <g id="text_12">
     <!-- Fraction of function,target pairs -->
     <g transform="translate(17.619531 285.585)rotate(-90)scale(0.17 -0.17)">
      <defs>
       <path d="M 628 4666 
L 3309 4666 
L 3309 4134 
L 1259 4134 
L 1259 2759 
L 3109 2759 
L 3109 2228 
L 1259 2228 
L 1259 0 
L 628 0 
L 628 4666 
z
" id="DejaVuSans-46" transform="scale(0.015625)"/>
       <path d="M 2631 2963 
Q 2534 3019 2420 3045 
Q 2306 3072 2169 3072 
Q 1681 3072 1420 2755 
Q 1159 2438 1159 1844 
L 1159 0 
L 581 0 
L 581 3500 
L 1159 3500 
L 1159 2956 
Q 1341 3275 1631 3429 
Q 1922 3584 2338 3584 
Q 2397 3584 2469 3576 
Q 2541 3569 2628 3553 
L 2631 2963 
z
" id="DejaVuSans-72" transform="scale(0.015625)"/>
       <path d="M 3122 3366 
L 3122 2828 
Q 2878 2963 2633 3030 
Q 2388 3097 2138 3097 
Q 1578 3097 1268 2742 
Q 959 2388 959 1747 
Q 959 1106 1268 751 
Q 1578 397 2138 397 
Q 2388 397 2633 464 
Q 2878 531 3122 666 
L 3122 134 
Q 2881 22 2623 -34 
Q 2366 -91 2075 -91 
Q 1284 -91 818 406 
Q 353 903 353 1747 
Q 353 2603 823 3093 
Q 1294 3584 2113 3584 
Q 2378 3584 2631 3529 
Q 2884 3475 3122 3366 
z
" id="DejaVuSans-63" transform="scale(0.015625)"/>
       <path d="M 1172 4494 
L 1172 3500 
L 2356 3500 
L 2356 3053 
L 1172 3053 
L 1172 1153 
Q 1172 725 1289 603 
Q 1406 481 1766 481 
L 2356 481 
L 2356 0 
L 1766 0 
Q 1100 0 847 248 
Q 594 497 594 1153 
L 594 3053 
L 172 3053 
L 172 3500 
L 594 3500 
L 594 4494 
L 1172 4494 
z
" id="DejaVuSans-74" transform="scale(0.015625)"/>
       <path d="M 544 1381 
L 544 3500 
L 1119 3500 
L 1119 1403 
Q 1119 906 1312 657 
Q 1506 409 1894 409 
Q 2359 409 2629 706 
Q 2900 1003 2900 1516 
L 2900 3500 
L 3475 3500 
L 3475 0 
L 2900 0 
L 2900 538 
Q 2691 219 2414 64 
Q 2138 -91 1772 -91 
Q 1169 -91 856 284 
Q 544 659 544 1381 
z
M 1991 3584 
L 1991 3584 
z
" id="DejaVuSans-75" transform="scale(0.015625)"/>
       <path d="M 750 794 
L 1409 794 
L 1409 256 
L 897 -744 
L 494 -744 
L 750 256 
L 750 794 
z
" id="DejaVuSans-2c" transform="scale(0.015625)"/>
       <path d="M 1159 525 
L 1159 -1331 
L 581 -1331 
L 581 3500 
L 1159 3500 
L 1159 2969 
Q 1341 3281 1617 3432 
Q 1894 3584 2278 3584 
Q 2916 3584 3314 3078 
Q 3713 2572 3713 1747 
Q 3713 922 3314 415 
Q 2916 -91 2278 -91 
Q 1894 -91 1617 61 
Q 1341 213 1159 525 
z
M 3116 1747 
Q 3116 2381 2855 2742 
Q 2594 3103 2138 3103 
Q 1681 3103 1420 2742 
Q 1159 2381 1159 1747 
Q 1159 1113 1420 752 
Q 1681 391 2138 391 
Q 2594 391 2855 752 
Q 3116 1113 3116 1747 
z
" id="DejaVuSans-70" transform="scale(0.015625)"/>
      </defs>
      <use xlink:href="#DejaVuSans-46"/>
      <use x="50.269531" xlink:href="#DejaVuSans-72"/>
      <use x="91.382812" xlink:href="#DejaVuSans-61"/>
      <use x="152.662109" xlink:href="#DejaVuSans-63"/>
      <use x="207.642578" xlink:href="#DejaVuSans-74"/>
      <use x="246.851562" xlink:href="#DejaVuSans-69"/>
      <use x="274.634766" xlink:href="#DejaVuSans-6f"/>
      <use x="335.816406" xlink:href="#DejaVuSans-6e"/>
      <use x="399.195312" xlink:href="#DejaVuSans-20"/>
      <use x="430.982422" xlink:href="#DejaVuSans-6f"/>
      <use x="492.164062" xlink:href="#DejaVuSans-66"/>
      <use x="527.369141" xlink:href="#DejaVuSans-20"/>
      <use x="559.15625" xlink:href="#DejaVuSans-66"/>
      <use x="594.361328" xlink:href="#DejaVuSans-75"/>
      <use x="657.740234" xlink:href="#DejaVuSans-6e"/>
      <use x="721.119141" xlink:href="#DejaVuSans-63"/>
      <use x="776.099609" xlink:href="#DejaVuSans-74"/>
      <use x="815.308594" xlink:href="#DejaVuSans-69"/>
      <use x="843.091797" xlink:href="#DejaVuSans-6f"/>
      <use x="904.273438" xlink:href="#DejaVuSans-6e"/>
      <use x="967.652344" xlink:href="#DejaVuSans-2c"/>
      <use x="999.439453" xlink:href="#DejaVuSans-74"/>
      <use x="1038.648438" xlink:href="#DejaVuSans-61"/>
      <use x="1099.927734" xlink:href="#DejaVuSans-72"/>
      <use x="1139.291016" xlink:href="#DejaVuSans-67"/>
      <use x="1202.767578" xlink:href="#DejaVuSans-65"/>
      <use x="1264.291016" xlink:href="#DejaVuSans-74"/>
      <use x="1303.5" xlink:href="#DejaVuSans-20"/>
      <use x="1335.287109" xlink:href="#DejaVuSans-70"/>
      <use x="1398.763672" xlink:href="#DejaVuSans-61"/>
      <use x="1460.042969" xlink:href="#DejaVuSans-69"/>
      <use x="1487.826172" xlink:href="#DejaVuSans-72"/>
      <use x="1528.939453" xlink:href="#DejaVuSans-73"/>
     </g>
    </g>
   </g>
   <g id="line2d_29">
    <defs>
     <path d="M 0 1.5 
C 0.397805 1.5 0.77937 1.341951 1.06066 1.06066 
C 1.341951 0.77937 1.5 0.397805 1.5 0 
C 1.5 -0.397805 1.341951 -0.77937 1.06066 -1.06066 
C 0.77937 -1.341951 0.397805 -1.5 0 -1.5 
C -0.397805 -1.5 -0.77937 -1.341951 -1.06066 -1.06066 
C -1.341951 -0.77937 -1.5 -0.397805 -1.5 0 
C -1.5 0.397805 -1.341951 0.77937 -1.06066 1.06066 
C -0.77937 1.341951 -0.397805 1.5 0 1.5 
z
" id="m9de545de9e" style="stroke:#00bfbf;"/>
    </defs>
    <g>
     <use style="fill:#00bfbf;stroke:#00bfbf;" x="211.288356" xlink:href="#m9de545de9e" y="191.097477"/>
     <use style="fill:#00bfbf;stroke:#00bfbf;" x="211.288356" xlink:href="#m9de545de9e" y="191.097477"/>
    </g>
   </g>
   <g id="line2d_30">
    <path d="M 45.512012 298.944 
L 45.512012 279.669302 
L 57.6 279.669302 
L 57.6 276.342122 
L 64.67102 276.342122 
L 64.67102 269.917223 
L 69.687988 269.917223 
L 69.687988 268.081538 
L 73.579452 268.081538 
L 73.579452 266.131122 
L 76.759008 266.131122 
L 76.759008 264.983818 
L 79.447285 264.983818 
L 79.447285 264.065976 
L 81.775977 264.065976 
L 81.775977 263.377593 
L 83.830028 263.377593 
L 83.830028 262.459751 
L 85.66744 262.459751 
L 85.66744 259.820953 
L 87.329581 259.820953 
L 87.329581 258.444189 
L 90.242884 258.444189 
L 90.242884 258.214728 
L 91.535274 258.214728 
L 91.535274 257.067425 
L 92.73846 257.067425 
L 92.73846 256.608503 
L 93.863965 256.608503 
L 93.863965 255.69066 
L 94.921215 255.69066 
L 94.921215 255.57593 
L 95.918017 255.57593 
L 95.918017 254.887548 
L 96.86091 254.887548 
L 96.86091 254.428627 
L 97.755429 254.428627 
L 97.755429 253.854975 
L 98.606294 253.854975 
L 98.606294 253.740245 
L 99.41757 253.740245 
L 99.41757 253.281323 
L 100.192776 253.281323 
L 100.192776 251.330907 
L 100.934985 251.330907 
L 100.934985 250.986716 
L 101.646892 250.986716 
L 101.646892 250.183604 
L 102.989037 250.183604 
L 102.989037 248.462649 
L 103.623262 248.462649 
L 103.623262 248.347918 
L 104.23523 248.347918 
L 104.23523 248.118458 
L 105.398279 248.118458 
L 105.398279 248.003727 
L 105.951954 248.003727 
L 105.951954 247.888997 
L 106.48859 247.888997 
L 106.48859 246.856424 
L 107.009204 246.856424 
L 107.009204 246.282772 
L 107.514726 246.282772 
L 107.514726 246.053312 
L 108.006005 246.053312 
L 108.006005 245.59439 
L 109.401893 245.59439 
L 109.401893 245.250199 
L 110.274038 245.250199 
L 110.274038 244.906008 
L 110.694282 244.906008 
L 110.694282 244.791278 
L 111.104637 244.791278 
L 111.104637 244.561817 
L 112.280765 244.561817 
L 112.280765 243.758705 
L 113.73488 243.758705 
L 113.73488 243.299783 
L 114.751048 243.299783 
L 114.751048 243.070323 
L 115.397021 243.070323 
L 115.397021 242.955592 
L 116.019919 242.955592 
L 116.019919 242.611401 
L 116.323218 242.611401 
L 116.323218 242.26721 
L 117.202696 242.26721 
L 117.202696 240.775716 
L 117.486268 240.775716 
L 117.486268 240.546255 
L 118.576578 240.546255 
L 118.576578 240.431525 
L 118.838828 240.431525 
L 118.838828 240.316794 
L 119.351785 240.316794 
L 119.351785 240.202064 
L 121.264855 240.202064 
L 121.264855 240.087334 
L 122.148045 240.087334 
L 122.148045 239.857873 
L 122.362027 239.857873 
L 122.362027 239.743143 
L 122.782271 239.743143 
L 122.782271 239.628412 
L 122.988655 239.628412 
L 122.988655 239.513682 
L 123.593547 239.513682 
L 123.593547 238.251648 
L 123.985457 238.251648 
L 123.985457 238.136918 
L 124.92835 238.136918 
L 124.92835 238.022188 
L 125.110962 238.022188 
L 125.110962 237.792727 
L 125.291682 237.792727 
L 125.291682 237.677997 
L 125.647598 237.677997 
L 125.647598 237.563266 
L 126.338353 237.563266 
L 126.338353 237.219075 
L 126.50685 237.219075 
L 126.50685 236.415963 
L 127.165014 236.415963 
L 127.165014 235.727581 
L 127.325746 235.727581 
L 127.325746 235.61285 
L 127.954256 235.61285 
L 127.954256 235.49812 
L 128.107907 235.49812 
L 128.107907 235.38339 
L 128.411207 235.38339 
L 128.411207 235.268659 
L 128.560901 235.268659 
L 128.560901 234.924468 
L 128.856489 234.924468 
L 128.856489 234.121356 
L 129.290685 234.121356 
L 129.290685 233.662434 
L 130.127931 233.662434 
L 130.127931 233.547704 
L 130.531948 233.547704 
L 130.531948 232.744592 
L 130.926816 232.744592 
L 130.926816 231.712019 
L 131.565689 231.712019 
L 131.565689 230.794176 
L 131.938072 230.794176 
L 131.938072 230.449985 
L 134.12805 230.449985 
L 134.12805 230.335255 
L 134.766144 230.335255 
L 134.766144 229.302681 
L 134.973757 229.302681 
L 134.973757 229.073221 
L 135.280614 229.073221 
L 135.381712 227.466996 
L 135.780341 227.466996 
L 135.780341 227.352266 
L 136.645276 227.352266 
L 136.645276 227.237535 
L 136.924311 227.237535 
L 136.924311 227.122805 
L 137.37967 227.122805 
L 137.37967 227.008075 
L 137.647286 227.008075 
L 137.735587 226.434423 
L 139.090775 226.434423 
L 139.090775 226.319692 
L 139.333553 226.319692 
L 139.333553 226.090232 
L 139.652088 226.090232 
L 139.652088 225.860771 
L 139.8092 225.860771 
L 139.8092 225.746041 
L 139.964909 225.746041 
L 139.964909 225.40185 
L 140.11924 225.40185 
L 140.195896 225.057659 
L 140.348205 225.057659 
L 140.348205 224.942928 
L 140.871049 224.942928 
L 140.871049 224.828198 
L 141.591783 224.828198 
L 141.591783 224.713468 
L 141.871938 224.713468 
L 141.871938 224.598737 
L 142.486301 224.598737 
L 142.486301 224.484007 
L 142.619936 224.484007 
L 142.686372 223.795625 
L 142.752555 223.795625 
L 142.818488 223.336704 
L 143.079756 223.336704 
L 143.079756 223.221973 
L 143.273169 223.221973 
L 143.337167 222.992513 
L 143.964547 222.992513 
L 143.964547 222.877782 
L 144.087359 222.877782 
L 144.148442 222.648321 
L 144.269971 222.648321 
L 144.330419 222.418861 
L 144.390658 222.418861 
L 144.45069 221.845209 
L 144.510517 221.845209 
L 144.570138 221.501018 
L 144.747789 221.501018 
L 144.747789 221.386288 
L 144.923649 221.386288 
L 144.923649 221.271557 
L 145.384119 221.271557 
L 145.384119 221.156827 
L 146.107383 221.156827 
L 146.216039 220.468445 
L 146.270114 220.468445 
L 146.270114 220.009524 
L 146.431341 220.009524 
L 146.431341 219.894793 
L 146.749392 219.894793 
L 146.749392 219.780063 
L 146.906268 219.780063 
L 147.010073 219.550602 
L 147.113265 219.550602 
L 147.164632 219.206411 
L 147.317833 219.206411 
L 147.317833 219.091681 
L 148.209809 219.091681 
L 148.209809 218.97695 
L 148.54473 218.97695 
L 148.54473 218.74749 
L 148.686322 218.74749 
L 148.780082 218.403299 
L 148.87334 218.403299 
L 148.966103 217.829647 
L 150.598782 217.829647 
L 150.640855 217.600186 
L 150.724698 217.600186 
L 150.808139 217.370726 
L 151.660987 217.370726 
L 151.700576 217.141265 
L 151.779487 217.141265 
L 151.779487 217.026535 
L 152.283884 217.026535 
L 152.322086 216.682344 
L 152.398241 216.682344 
L 152.474064 216.452883 
L 152.624728 216.452883 
L 152.699575 215.764501 
L 152.736878 215.764501 
L 152.811246 215.305579 
L 152.995791 215.305579 
L 152.995791 215.190849 
L 153.573542 215.190849 
L 153.679772 214.731928 
L 153.750233 214.731928 
L 153.750233 214.617197 
L 153.925152 214.617197 
L 153.925152 214.502467 
L 154.167129 214.502467 
L 154.167129 214.387737 
L 154.641235 214.387737 
L 154.707925 214.158276 
L 154.840544 214.158276 
L 154.840544 214.043546 
L 155.167744 214.043546 
L 155.167744 213.928815 
L 155.425155 213.928815 
L 155.425155 213.814085 
L 156.144725 213.814085 
L 156.236431 213.355164 
L 156.357959 213.355164 
L 156.418408 213.010973 
L 157.893028 213.010973 
L 157.920731 212.781512 
L 158.113432 212.781512 
L 158.113432 212.666782 
L 158.331086 212.666782 
L 158.331086 212.552051 
L 158.705563 212.552051 
L 158.705563 212.437321 
L 158.889829 212.437321 
L 158.968208 212.20786 
L 159.481921 212.20786 
L 159.557689 211.519478 
L 159.633129 211.519478 
L 159.683242 211.290017 
L 159.882266 211.290017 
L 159.882266 211.175287 
L 160.774311 211.175287 
L 160.844678 210.945826 
L 161.352206 210.945826 
L 161.442917 210.716366 
L 161.488097 210.716366 
L 161.578106 210.142714 
L 161.600536 210.142714 
L 161.64531 209.683793 
L 161.778945 209.683793 
L 161.778945 209.569062 
L 162.453536 209.569062 
L 162.496175 209.339602 
L 163.609699 209.339602 
L 163.669525 209.110141 
L 164.004716 209.110141 
L 164.043731 208.88068 
L 165.518877 208.88068 
L 165.572509 208.307029 
L 166.595075 208.307029 
L 166.595075 208.192298 
L 167.141909 208.192298 
L 167.207042 207.962838 
L 167.271933 207.962838 
L 167.304287 207.733377 
L 167.43311 207.733377 
L 167.43311 207.618646 
L 167.672117 207.618646 
L 167.782543 207.159725 
L 168.9532 207.159725 
L 168.967898 206.930264 
L 169.431813 206.930264 
L 169.51744 206.700804 
L 170.201421 206.700804 
L 170.26973 206.241882 
L 170.553741 206.241882 
L 170.553741 206.127152 
L 171.017051 206.127152 
L 171.017051 206.012422 
L 171.340609 206.012422 
L 171.340609 205.897691 
L 171.481095 205.897691 
L 171.481095 205.782961 
L 171.620458 205.782961 
L 171.683438 205.5535 
L 172.130306 205.5535 
L 172.130306 205.43877 
L 172.696997 205.43877 
L 172.779844 205.209309 
L 172.827009 205.209309 
L 172.827009 205.094579 
L 173.049317 205.094579 
L 173.130511 204.750388 
L 173.474266 204.750388 
L 173.508272 204.520927 
L 173.922314 204.520927 
L 173.988539 203.947275 
L 174.498781 203.947275 
L 174.498781 203.832545 
L 175.273058 203.832545 
L 175.354741 203.258893 
L 175.994786 203.258893 
L 176.073165 202.799972 
L 176.141459 202.799972 
L 176.141459 202.685242 
L 176.507601 202.685242 
L 176.507601 202.570511 
L 177.245042 202.570511 
L 177.245042 202.455781 
L 177.934998 202.455781 
L 177.934998 202.341051 
L 178.048838 202.341051 
L 178.048838 202.22632 
L 178.488398 202.22632 
L 178.488398 202.11159 
L 178.975185 202.11159 
L 179.033027 201.652669 
L 179.601132 201.652669 
L 179.688747 201.423208 
L 180.533936 201.423208 
L 180.601926 201.193747 
L 181.173027 201.193747 
L 181.187615 200.964287 
L 181.852798 200.964287 
L 181.915844 200.734826 
L 182.561055 200.734826 
L 182.621596 200.390635 
L 182.708675 200.390635 
L 182.708675 200.275904 
L 182.88154 200.275904 
L 182.88154 200.161174 
L 183.286971 200.161174 
L 183.325711 199.931713 
L 183.41577 199.931713 
L 183.41577 199.816983 
L 183.834181 199.816983 
L 183.93412 199.472792 
L 184.461693 199.472792 
L 184.522016 199.128601 
L 184.677886 199.128601 
L 184.677886 199.013871 
L 185.061571 199.013871 
L 185.102392 198.78441 
L 185.647145 198.78441 
L 185.70351 198.554949 
L 185.770908 198.554949 
L 185.815696 198.325489 
L 186.235541 198.325489 
L 186.235541 198.210758 
L 186.910072 198.210758 
L 186.931065 197.866567 
L 187.304667 197.866567 
L 187.371278 197.407646 
L 187.805641 197.407646 
L 187.895201 197.178185 
L 188.263494 197.178185 
L 188.316863 196.833994 
L 188.399021 196.833994 
L 188.399021 196.719264 
L 188.902752 196.719264 
L 188.930834 196.489803 
L 189.232199 196.489803 
L 189.232199 196.375073 
L 190.396731 196.375073 
L 190.396731 196.260342 
L 190.623135 196.260342 
L 190.703588 195.916151 
L 190.749997 195.916151 
L 190.749997 195.801421 
L 191.000987 195.801421 
L 191.092119 195.45723 
L 192.301088 195.45723 
L 192.301088 195.3425 
L 192.614354 195.3425 
L 192.614354 195.113039 
L 193.011144 195.113039 
L 193.011144 194.998309 
L 194.091021 194.998309 
L 194.091021 194.883578 
L 194.527326 194.883578 
L 194.527326 194.768848 
L 194.789981 194.768848 
L 194.789981 194.654118 
L 195.235432 194.654118 
L 195.235432 194.539387 
L 195.859415 194.539387 
L 195.859415 194.424657 
L 197.094007 194.424657 
L 197.094007 194.309927 
L 197.318057 194.309927 
L 197.395943 194.080466 
L 197.633216 194.080466 
L 197.633216 193.965736 
L 197.953934 193.965736 
L 197.953934 193.851005 
L 198.131435 193.851005 
L 198.131435 193.736275 
L 198.738834 193.736275 
L 198.757479 193.506814 
L 198.934932 193.506814 
L 198.9823 193.162623 
L 199.289677 193.162623 
L 199.289677 193.047893 
L 199.456709 193.047893 
L 199.456709 192.933162 
L 200.293076 192.933162 
L 200.293076 192.818432 
L 200.467713 192.818432 
L 200.474952 192.588971 
L 200.950879 192.588971 
L 200.979026 192.359511 
L 201.294888 192.359511 
L 201.294888 192.24478 
L 202.157038 192.24478 
L 202.163609 192.01532 
L 202.764095 192.01532 
L 202.764095 191.900589 
L 203.061959 191.900589 
L 203.061959 191.785859 
L 203.200753 191.785859 
L 203.200753 191.671129 
L 205.043528 191.671129 
L 205.043528 191.556398 
L 205.788522 191.556398 
L 205.788522 191.441668 
L 207.986651 191.441668 
L 207.986651 191.326938 
L 210.99523 191.326938 
L 210.99523 191.212207 
L 211.288356 191.212207 
L 211.288356 191.097477 
L 338.688 191.097477 
L 338.688 191.097477 
" style="fill:none;stroke:#00bfbf;stroke-linecap:square;stroke-width:1.5;"/>
   </g>
   <g id="line2d_31">
    <defs>
     <path d="M -6 0 
L 6 0 
M 0 6 
L 0 -6 
" id="m20dc3e0337" style="stroke:#00bfbf;stroke-width:1.5;"/>
    </defs>
    <g>
     <use style="fill-opacity:0;stroke:#00bfbf;stroke-width:1.5;" x="73.579452" xlink:href="#m20dc3e0337" y="268.081538"/>
     <use style="fill-opacity:0;stroke:#00bfbf;stroke-width:1.5;" x="135.381712" xlink:href="#m20dc3e0337" y="228.040648"/>
     <use style="fill-opacity:0;stroke:#00bfbf;stroke-width:1.5;" x="194.789981" xlink:href="#m20dc3e0337" y="194.768848"/>
     <use style="fill-opacity:0;stroke:#00bfbf;stroke-width:1.5;" x="211.288356" xlink:href="#m20dc3e0337" y="191.097477"/>
     <use style="fill-opacity:0;stroke:#00bfbf;stroke-width:1.5;" x="211.288356" xlink:href="#m20dc3e0337" y="191.097477"/>
     <use style="fill-opacity:0;stroke:#00bfbf;stroke-width:1.5;" x="338.688" xlink:href="#m20dc3e0337" y="191.097477"/>
    </g>
   </g>
   <g id="line2d_32">
    <path style="fill:none;stroke:#00bfbf;stroke-linecap:square;stroke-width:1.5;"/>
    <g/>
   </g>
   <g id="line2d_33">
    <path clip-path="url(#pb96c0008df)" d="M 138.084384 226.434423 
" style="fill:none;stroke:#00bfbf;stroke-linecap:square;stroke-width:1.5;"/>
    <defs>
     <path d="M -12 12 
L 12 -12 
M -12 -12 
L 12 12 
" id="mb4e906083e" style="stroke:#00bfbf;"/>
    </defs>
    <g clip-path="url(#pb96c0008df)">
     <use style="fill:#00bfbf;stroke:#00bfbf;" x="138.084384" xlink:href="#mb4e906083e" y="226.434423"/>
    </g>
   </g>
   <g id="line2d_34">
    <defs>
     <path d="M 0 1.5 
C 0.397805 1.5 0.77937 1.341951 1.06066 1.06066 
C 1.341951 0.77937 1.5 0.397805 1.5 0 
C 1.5 -0.397805 1.341951 -0.77937 1.06066 -1.06066 
C 0.77937 -1.341951 0.397805 -1.5 0 -1.5 
C -0.397805 -1.5 -0.77937 -1.341951 -1.06066 -1.06066 
C -1.341951 -0.77937 -1.5 -0.397805 -1.5 0 
C -1.5 0.397805 -1.341951 0.77937 -1.06066 1.06066 
C -0.77937 1.341951 -0.397805 1.5 0 1.5 
z
" id="m2886546ba5" style="stroke:#008000;"/>
    </defs>
    <g>
     <use style="fill:#008000;stroke:#008000;" x="207.589608" xlink:href="#m2886546ba5" y="222.07467"/>
     <use style="fill:#008000;stroke:#008000;" x="207.589608" xlink:href="#m2886546ba5" y="222.07467"/>
    </g>
   </g>
   <g id="line2d_35">
    <path d="M 38.440992 298.944 
L 38.440992 282.881752 
L 50.52898 282.881752 
L 50.52898 279.439842 
L 57.6 279.439842 
L 57.6 277.948347 
L 62.616969 277.948347 
L 62.616969 276.456853 
L 66.508432 276.456853 
L 66.508432 273.244403 
L 69.687988 273.244403 
L 69.687988 271.293987 
L 72.376266 271.293987 
L 72.376266 270.146684 
L 74.704957 270.146684 
L 74.704957 269.573032 
L 76.759008 269.573032 
L 76.759008 268.310998 
L 78.59642 268.310998 
L 78.59642 267.852077 
L 81.775977 267.852077 
L 81.775977 267.393156 
L 83.171864 267.393156 
L 83.171864 267.163695 
L 84.464254 267.163695 
L 84.464254 267.048964 
L 85.66744 267.048964 
L 85.66744 266.590043 
L 87.850195 266.590043 
L 87.850195 265.6722 
L 88.846997 265.6722 
L 88.846997 264.410167 
L 90.684409 264.410167 
L 90.684409 263.721785 
L 92.34655 263.721785 
L 92.34655 263.607054 
L 93.863965 263.607054 
L 93.863965 263.492324 
L 94.575872 263.492324 
L 94.575872 262.689211 
L 95.918017 262.689211 
L 95.918017 262.574481 
L 96.552242 262.574481 
L 96.552242 262.34502 
L 97.16421 262.34502 
L 97.16421 262.000829 
L 97.755429 262.000829 
L 97.755429 261.886099 
L 99.938184 261.886099 
L 99.938184 261.656638 
L 100.443706 261.656638 
L 100.443706 261.541908 
L 100.934985 261.541908 
L 100.934985 261.082987 
L 101.412804 261.082987 
L 101.412804 260.968256 
L 101.877879 260.968256 
L 101.877879 260.853526 
L 102.330873 260.853526 
L 102.330873 260.738796 
L 102.772397 260.738796 
L 102.772397 260.624065 
L 103.203018 260.624065 
L 103.203018 260.509335 
L 103.623262 260.509335 
L 103.623262 260.279874 
L 104.826449 260.279874 
L 104.826449 260.165144 
L 105.584798 260.165144 
L 105.584798 259.706222 
L 106.311539 259.706222 
L 106.311539 259.362031 
L 106.66386 259.362031 
L 106.66386 259.132571 
L 107.347841 259.132571 
L 107.347841 258.90311 
L 108.326001 258.90311 
L 108.326001 258.78838 
L 108.640231 258.78838 
L 108.640231 258.099998 
L 109.550313 258.099998 
L 109.550313 257.870537 
L 109.843417 257.870537 
L 109.843417 257.755807 
L 110.694282 257.755807 
L 110.694282 257.526346 
L 110.968922 257.526346 
L 110.968922 257.182155 
L 111.505558 257.182155 
L 111.505558 257.067425 
L 111.767808 257.067425 
L 111.767808 256.837964 
L 112.280765 256.837964 
L 112.280765 256.723234 
L 113.73488 256.723234 
L 113.73488 256.608503 
L 113.965867 256.608503 
L 113.965867 256.379043 
L 114.860386 256.379043 
L 114.860386 256.034851 
L 115.077025 256.034851 
L 115.077025 255.4612 
L 115.502395 255.4612 
L 115.502395 255.346469 
L 115.917635 255.346469 
L 115.917635 255.231739 
L 116.914437 255.231739 
L 116.914437 255.117009 
L 117.297733 255.117009 
L 117.297733 255.002278 
L 117.486268 255.002278 
L 117.486268 254.658087 
L 117.857331 254.658087 
L 117.857331 254.543357 
L 118.220662 254.543357 
L 118.220662 254.428627 
L 118.399528 254.428627 
L 118.399528 254.313896 
L 119.097192 254.313896 
L 119.097192 254.199166 
L 119.43583 254.199166 
L 119.43583 253.969705 
L 119.931767 253.969705 
L 119.931767 253.854975 
L 120.093994 253.854975 
L 120.093994 253.740245 
L 120.254726 253.740245 
L 120.254726 253.510784 
L 120.883236 253.510784 
L 120.883236 253.396054 
L 121.036887 253.396054 
L 121.036887 253.166593 
L 121.189196 253.166593 
L 121.189196 253.051863 
L 121.638301 253.051863 
L 121.638301 252.937132 
L 121.785469 252.937132 
L 121.785469 252.822402 
L 122.076131 252.822402 
L 122.076131 252.707672 
L 124.743806 252.707672 
L 124.743806 252.478211 
L 125.588781 252.478211 
L 125.588781 252.36348 
L 125.706218 252.36348 
L 125.706218 251.904559 
L 126.053856 251.904559 
L 126.053856 251.560368 
L 126.618283 251.560368 
L 126.618283 251.445638 
L 127.165014 251.445638 
L 127.165014 251.330907 
L 128.005624 251.330907 
L 128.107907 250.757256 
L 128.209594 250.757256 
L 128.209594 250.527795 
L 128.511146 250.527795 
L 128.511146 250.413065 
L 129.385722 250.413065 
L 129.385722 250.298334 
L 130.30865 250.298334 
L 130.30865 250.068874 
L 130.487516 250.068874 
L 130.487516 249.839413 
L 131.77355 249.839413 
L 131.77355 249.609952 
L 132.816208 249.609952 
L 132.816208 248.118458 
L 135.144899 248.118458 
L 135.144899 248.003727 
L 135.348078 248.003727 
L 135.348078 247.315345 
L 135.482227 247.315345 
L 135.482227 247.200615 
L 136.266147 247.200615 
L 136.266147 246.971154 
L 136.831795 246.971154 
L 136.831795 246.856424 
L 137.852629 246.856424 
L 137.852629 246.741694 
L 138.927025 246.741694 
L 138.981779 246.512233 
L 139.090775 246.512233 
L 139.199094 246.282772 
L 139.466984 246.282772 
L 139.466984 246.168042 
L 140.39868 246.168042 
L 140.499195 245.938581 
L 140.549236 245.938581 
L 140.549236 245.709121 
L 140.89556 245.709121 
L 140.89556 245.59439 
L 141.041904 245.59439 
L 141.041904 245.47966 
L 141.235139 245.47966 
L 141.33096 245.135469 
L 141.378673 245.135469 
L 141.378673 245.020738 
L 142.033307 245.020738 
L 142.033307 244.906008 
L 143.101352 244.906008 
L 143.101352 244.791278 
L 143.273169 244.791278 
L 143.273169 244.676547 
L 143.695448 244.676547 
L 143.695448 244.561817 
L 143.902815 244.561817 
L 143.902815 244.447087 
L 144.589967 244.447087 
L 144.629556 244.217626 
L 144.747789 244.217626 
L 144.747789 243.988165 
L 145.516164 243.988165 
L 145.516164 243.873435 
L 145.814278 243.873435 
L 145.888018 243.529244 
L 145.998045 243.529244 
L 145.998045 243.414514 
L 146.644018 243.414514 
L 146.644018 243.299783 
L 147.636905 243.299783 
L 147.736463 242.840862 
L 147.769524 242.840862 
L 147.769524 242.726132 
L 148.76449 242.726132 
L 148.857832 241.923019 
L 148.888835 241.923019 
L 148.919783 241.464098 
L 149.226281 241.464098 
L 149.226281 241.349368 
L 149.646525 241.349368 
L 149.735275 241.119907 
L 149.764758 241.119907 
L 149.823575 240.890446 
L 150.429467 240.890446 
L 150.429467 240.775716 
L 150.570677 240.775716 
L 150.570677 240.660985 
L 150.682827 240.660985 
L 150.710752 240.431525 
L 151.260066 240.431525 
L 151.260066 240.316794 
L 151.421542 240.316794 
L 151.421542 240.202064 
L 151.581536 240.202064 
L 151.60806 239.972603 
L 152.001148 239.972603 
L 152.001148 239.857873 
L 153.275019 239.857873 
L 153.275019 239.743143 
L 154.121296 239.743143 
L 154.121296 239.628412 
L 154.258434 239.628412 
L 154.326601 239.398952 
L 154.46214 239.398952 
L 154.484627 239.169491 
L 155.594676 239.169491 
L 155.594676 239.054761 
L 156.297301 239.054761 
L 156.378132 238.71057 
L 156.578586 238.71057 
L 156.598505 238.481109 
L 157.509937 238.481109 
L 157.58535 238.136918 
L 157.622935 238.136918 
L 157.660438 237.907457 
L 157.939176 237.907457 
L 157.939176 237.792727 
L 158.572743 237.792727 
L 158.572743 237.677997 
L 158.872364 237.677997 
L 158.872364 237.563266 
L 159.235515 237.563266 
L 159.235515 237.448536 
L 159.708245 237.448536 
L 159.708245 237.333805 
L 160.02188 237.333805 
L 160.02188 237.219075 
L 160.136022 237.219075 
L 160.217098 236.874884 
L 160.249422 236.874884 
L 160.249422 236.760154 
L 160.992304 236.760154 
L 161.100288 236.415963 
L 161.131018 236.415963 
L 161.131018 236.301232 
L 161.570623 236.301232 
L 161.64531 235.842311 
L 162.086834 235.842311 
L 162.086834 235.727581 
L 162.432178 235.727581 
L 162.432178 235.61285 
L 162.559939 235.61285 
L 162.559939 235.49812 
L 162.784783 235.49812 
L 162.784783 235.38339 
L 162.909996 235.38339 
L 162.909996 235.268659 
L 163.130401 235.268659 
L 163.130401 235.153929 
L 163.8937 235.153929 
L 163.8937 235.039199 
L 164.536814 235.039199 
L 164.612418 234.695008 
L 165.18141 234.695008 
L 165.18141 234.580277 
L 165.506937 234.580277 
L 165.506937 234.465547 
L 165.649687 234.465547 
L 165.649687 234.350817 
L 166.013141 234.350817 
L 166.013141 234.236086 
L 166.300829 234.236086 
L 166.403246 233.547704 
L 166.561376 233.547704 
L 166.561376 233.432974 
L 166.928532 233.432974 
L 166.928532 233.318243 
L 167.913096 233.318243 
L 167.913096 233.203513 
L 168.526499 233.203513 
L 168.526499 233.088783 
L 168.854895 233.088783 
L 168.923766 232.28567 
L 169.436581 232.28567 
L 169.522184 232.05621 
L 169.813865 232.05621 
L 169.813865 231.941479 
L 169.99949 231.941479 
L 169.99949 231.826749 
L 170.899085 231.826749 
L 170.899085 231.712019 
L 171.340609 231.712019 
L 171.340609 231.482558 
L 171.628868 231.482558 
L 171.67086 231.023637 
L 172.142557 231.023637 
L 172.191475 230.794176 
L 173.733298 230.794176 
L 173.733298 230.679446 
L 173.977519 230.679446 
L 174.036212 230.220524 
L 174.470228 230.220524 
L 174.47737 229.991063 
L 175.516968 229.991063 
L 175.516968 229.876333 
L 175.85677 229.876333 
L 175.85677 229.761603 
L 176.073165 229.761603 
L 176.138213 229.073221 
L 176.459861 229.073221 
L 176.54887 228.84376 
L 176.82569 228.84376 
L 176.82569 228.72903 
L 177.773182 228.72903 
L 177.773182 228.614299 
L 177.937926 228.614299 
L 177.937926 228.499569 
L 178.502578 228.499569 
L 178.502578 228.384839 
L 179.109852 228.384839 
L 179.109852 228.270108 
L 179.6808 228.270108 
L 179.6808 228.155378 
L 179.928095 228.155378 
L 179.975052 227.925917 
L 181.143816 227.925917 
L 181.143816 227.811187 
L 181.400174 227.811187 
L 181.400174 227.696457 
L 181.515032 227.696457 
L 181.515032 227.581726 
L 182.587988 227.581726 
L 182.61488 227.122805 
L 182.907984 227.122805 
L 182.907984 227.008075 
L 183.884222 227.008075 
L 183.884222 226.893344 
L 185.13343 226.893344 
L 185.13343 226.778614 
L 185.337671 226.778614 
L 185.440806 226.549153 
L 185.925313 226.549153 
L 185.925313 226.434423 
L 186.262811 226.434423 
L 186.262811 226.319692 
L 186.454315 226.319692 
L 186.454315 226.204962 
L 187.320061 226.204962 
L 187.32348 225.860771 
L 188.32332 225.860771 
L 188.333003 225.63131 
L 188.493586 225.63131 
L 188.493586 225.51658 
L 189.293378 225.51658 
L 189.293378 225.40185 
L 189.52091 225.40185 
L 189.52091 225.287119 
L 190.157181 225.287119 
L 190.180414 225.057659 
L 191.879716 225.057659 
L 191.879716 224.942928 
L 192.647137 224.942928 
L 192.647137 224.828198 
L 193.384622 224.828198 
L 193.384622 224.713468 
L 193.543293 224.713468 
L 193.552863 224.484007 
L 194.115355 224.484007 
L 194.124617 224.254546 
L 194.772147 224.254546 
L 194.772147 224.139816 
L 195.426593 224.139816 
L 195.426593 224.025086 
L 196.06151 224.025086 
L 196.094621 223.680895 
L 196.686115 223.680895 
L 196.712077 223.451434 
L 198.40159 223.451434 
L 198.405212 223.221973 
L 199.989805 223.221973 
L 200.065707 222.992513 
L 200.485402 222.992513 
L 200.485402 222.877782 
L 201.882526 222.877782 
L 201.882526 222.763052 
L 202.335025 222.763052 
L 202.335025 222.648321 
L 202.740807 222.648321 
L 202.740807 222.533591 
L 203.566906 222.533591 
L 203.566906 222.418861 
L 205.890209 222.418861 
L 205.890209 222.30413 
L 206.224175 222.30413 
L 206.224175 222.1894 
L 207.589608 222.1894 
L 207.589608 222.07467 
L 338.688 222.07467 
L 338.688 222.07467 
" style="fill:none;stroke:#008000;stroke-linecap:square;stroke-width:1.5;"/>
   </g>
   <g id="line2d_36">
    <defs>
     <path d="M -0 6 
L 6 -6 
L -6 -6 
z
" id="mdc44ca1a86" style="stroke:#008000;stroke-linejoin:miter;stroke-width:1.5;"/>
    </defs>
    <g>
     <use style="fill-opacity:0;stroke:#008000;stroke-linejoin:miter;stroke-width:1.5;" x="84.464254" xlink:href="#mdc44ca1a86" y="267.163695"/>
     <use style="fill-opacity:0;stroke:#008000;stroke-linejoin:miter;stroke-width:1.5;" x="140.549236" xlink:href="#mdc44ca1a86" y="245.709121"/>
     <use style="fill-opacity:0;stroke:#008000;stroke-linejoin:miter;stroke-width:1.5;" x="207.589608" xlink:href="#mdc44ca1a86" y="222.1894"/>
     <use style="fill-opacity:0;stroke:#008000;stroke-linejoin:miter;stroke-width:1.5;" x="207.589608" xlink:href="#mdc44ca1a86" y="222.07467"/>
     <use style="fill-opacity:0;stroke:#008000;stroke-linejoin:miter;stroke-width:1.5;" x="207.589608" xlink:href="#mdc44ca1a86" y="222.07467"/>
     <use style="fill-opacity:0;stroke:#008000;stroke-linejoin:miter;stroke-width:1.5;" x="338.688" xlink:href="#mdc44ca1a86" y="222.07467"/>
    </g>
   </g>
   <g id="line2d_37">
    <path style="fill:none;stroke:#008000;stroke-linecap:square;stroke-width:1.5;"/>
    <g/>
   </g>
   <g id="line2d_38">
    <path clip-path="url(#pb96c0008df)" d="M 138.026733 246.741694 
" style="fill:none;stroke:#008000;stroke-linecap:square;stroke-width:1.5;"/>
    <defs>
     <path d="M -12 12 
L 12 -12 
M -12 -12 
L 12 12 
" id="md831bb0a14" style="stroke:#008000;"/>
    </defs>
    <g clip-path="url(#pb96c0008df)">
     <use style="fill:#008000;stroke:#008000;" x="138.026733" xlink:href="#md831bb0a14" y="246.741694"/>
    </g>
   </g>
   <g id="line2d_39">
    <defs>
     <path d="M 0 1.5 
C 0.397805 1.5 0.77937 1.341951 1.06066 1.06066 
C 1.341951 0.77937 1.5 0.397805 1.5 0 
C 1.5 -0.397805 1.341951 -0.77937 1.06066 -1.06066 
C 0.77937 -1.341951 0.397805 -1.5 0 -1.5 
C -0.397805 -1.5 -0.77937 -1.341951 -1.06066 -1.06066 
C -1.341951 -0.77937 -1.5 -0.397805 -1.5 0 
C -1.5 0.397805 -1.341951 0.77937 -1.06066 1.06066 
C -0.77937 1.341951 -0.397805 1.5 0 1.5 
z
" id="m23737412cf" style="stroke:#0000ff;"/>
    </defs>
    <g>
     <use style="fill:#0000ff;stroke:#0000ff;" x="198.295123" xlink:href="#m23737412cf" y="250.757256"/>
     <use style="fill:#0000ff;stroke:#0000ff;" x="198.295123" xlink:href="#m23737412cf" y="250.757256"/>
    </g>
   </g>
   <g id="line2d_40">
    <path d="M 29.53256 298.944 
L 29.53256 289.306651 
L 41.620548 289.306651 
L 41.620548 288.274078 
L 48.691568 288.274078 
L 48.691568 285.864741 
L 53.708537 285.864741 
L 53.708537 284.717437 
L 57.6 284.717437 
L 57.6 283.570134 
L 60.779557 283.570134 
L 60.779557 282.996482 
L 63.467834 282.996482 
L 63.467834 281.734448 
L 65.796525 281.734448 
L 65.796525 280.701875 
L 67.850577 280.701875 
L 67.850577 280.357684 
L 69.687988 280.357684 
L 69.687988 279.898763 
L 71.35013 279.898763 
L 71.35013 278.98092 
L 72.867545 278.98092 
L 72.867545 278.636729 
L 74.263433 278.636729 
L 74.263433 278.177808 
L 75.555822 278.177808 
L 75.555822 278.063077 
L 79.938565 278.063077 
L 79.938565 277.718886 
L 80.881459 277.718886 
L 80.881459 277.489426 
L 82.626842 277.489426 
L 82.626842 277.374695 
L 83.438118 277.374695 
L 83.438118 277.259965 
L 84.213325 277.259965 
L 84.213325 276.571583 
L 84.955534 276.571583 
L 84.955534 275.768471 
L 85.66744 275.768471 
L 85.66744 275.65374 
L 86.351421 275.65374 
L 86.351421 275.194819 
L 87.009585 275.194819 
L 87.009585 275.080089 
L 88.255778 275.080089 
L 88.255778 274.162246 
L 88.846997 274.162246 
L 88.846997 273.703324 
L 89.418828 273.703324 
L 89.418828 273.473864 
L 89.972502 273.473864 
L 89.972502 273.244403 
L 91.029752 273.244403 
L 91.029752 273.129673 
L 91.535274 273.129673 
L 91.535274 272.900212 
L 92.969447 272.900212 
L 92.969447 272.785482 
L 94.294587 272.785482 
L 94.294587 272.670751 
L 95.125186 272.670751 
L 95.125186 272.556021 
L 97.403108 272.556021 
L 97.403108 272.441291 
L 98.100772 272.441291 
L 98.100772 272.32656 
L 101.785851 272.32656 
L 101.785851 272.0971 
L 102.060491 272.0971 
L 102.060491 271.752909 
L 102.330873 271.752909 
L 102.330873 271.638178 
L 103.117741 271.638178 
L 103.117741 271.523448 
L 103.870632 271.523448 
L 103.870632 271.408718 
L 105.057436 271.408718 
L 105.057436 271.293987 
L 105.285403 271.293987 
L 105.285403 271.179257 
L 105.732589 271.179257 
L 105.732589 271.064526 
L 105.951954 271.064526 
L 105.951954 270.490875 
L 106.168594 270.490875 
L 106.168594 270.376144 
L 106.382575 270.376144 
L 106.382575 270.146684 
L 106.802819 270.146684 
L 106.802819 269.687762 
L 107.414787 269.687762 
L 107.414787 269.573032 
L 107.614095 269.573032 
L 107.614095 269.228841 
L 108.006005 269.228841 
L 108.006005 269.114111 
L 108.198707 269.114111 
L 108.198707 268.540459 
L 108.764355 268.540459 
L 108.764355 268.081538 
L 108.948899 268.081538 
L 108.948899 267.966807 
L 110.358901 267.966807 
L 110.358901 267.852077 
L 110.527398 267.852077 
L 110.527398 267.507886 
L 110.859585 267.507886 
L 110.859585 267.393156 
L 112.280765 267.393156 
L 112.280765 267.278425 
L 113.873839 267.278425 
L 113.873839 267.048964 
L 114.284194 267.048964 
L 114.284194 266.934234 
L 114.947365 266.934234 
L 114.947365 266.819504 
L 115.711251 266.819504 
L 115.711251 266.590043 
L 116.680349 266.590043 
L 116.680349 266.131122 
L 117.373392 266.131122 
L 117.373392 266.016391 
L 117.709852 266.016391 
L 117.709852 265.901661 
L 117.930605 265.901661 
L 117.930605 265.6722 
L 118.890808 265.6722 
L 118.890808 265.55747 
L 120.759333 265.55747 
L 120.759333 265.44274 
L 122.531342 265.44274 
L 122.531342 265.213279 
L 122.947573 265.213279 
L 123.029641 264.983818 
L 123.111324 264.983818 
L 123.111324 264.869088 
L 123.514096 264.869088 
L 123.514096 264.754358 
L 125.110962 264.754358 
L 125.110962 264.639627 
L 125.255688 264.639627 
L 125.255688 264.410167 
L 125.541584 264.410167 
L 125.541584 264.295436 
L 125.752972 264.295436 
L 125.822869 263.951245 
L 127.985095 263.951245 
L 128.046609 263.607054 
L 128.885774 263.607054 
L 128.885774 263.492324 
L 130.290663 263.492324 
L 130.290663 263.377593 
L 130.45189 263.377593 
L 130.45189 263.148133 
L 131.338382 263.148133 
L 131.338382 263.033402 
L 131.540579 263.033402 
L 131.540579 262.918672 
L 132.084827 262.918672 
L 132.084827 262.803942 
L 133.124876 262.803942 
L 133.216421 262.459751 
L 134.106373 262.459751 
L 134.106373 262.34502 
L 134.534878 262.34502 
L 134.534878 262.23029 
L 135.117629 262.23029 
L 135.199312 261.656638 
L 135.800036 261.656638 
L 135.800036 261.541908 
L 136.68274 261.541908 
L 136.68274 261.197717 
L 137.198951 261.197717 
L 137.198951 261.082987 
L 137.910857 261.082987 
L 137.910857 260.968256 
L 138.256201 260.968256 
L 138.256201 260.853526 
L 138.392446 260.853526 
L 138.392446 260.738796 
L 139.155847 260.738796 
L 139.155847 260.624065 
L 140.103868 260.624065 
L 140.195896 260.394605 
L 140.469102 260.394605 
L 140.529237 260.165144 
L 141.80232 260.165144 
L 141.80232 260.050414 
L 141.941279 260.050414 
L 141.941279 259.935683 
L 144.148442 259.935683 
L 144.148442 259.820953 
L 144.91198 259.820953 
L 144.91198 259.706222 
L 145.02832 259.706222 
L 145.120836 259.476762 
L 145.865929 259.476762 
L 145.865929 259.362031 
L 146.686244 259.362031 
L 146.77039 259.01784 
L 146.812312 259.01784 
L 146.812312 258.90311 
L 147.809113 258.90311 
L 147.809113 258.78838 
L 148.695721 258.78838 
L 148.714503 258.558919 
L 148.938326 258.558919 
L 149.049169 258.329458 
L 149.431665 258.329458 
L 149.431665 258.214728 
L 150.206871 258.214728 
L 150.206871 258.099998 
L 151.485716 258.099998 
L 151.485716 257.985267 
L 151.645126 257.985267 
L 151.645126 257.870537 
L 152.114793 257.870537 
L 152.114793 257.755807 
L 153.438049 257.755807 
L 153.438049 257.641076 
L 155.0376 257.641076 
L 155.076745 257.182155 
L 155.754208 257.182155 
L 155.766741 256.952694 
L 157.116308 256.952694 
L 157.1279 256.723234 
L 157.2549 256.723234 
L 157.2549 256.608503 
L 160.613753 256.608503 
L 160.661129 256.264312 
L 161.137157 256.264312 
L 161.146363 256.034851 
L 162.260361 256.034851 
L 162.286241 255.805391 
L 162.737246 255.805391 
L 162.779197 255.57593 
L 163.135875 255.57593 
L 163.135875 255.4612 
L 164.187328 255.4612 
L 164.187328 255.346469 
L 165.647318 255.346469 
L 165.647318 255.231739 
L 165.803027 255.231739 
L 165.831189 255.002278 
L 166.554628 255.002278 
L 166.554628 254.887548 
L 166.981298 254.887548 
L 166.981298 254.772818 
L 167.525915 254.772818 
L 167.525915 254.658087 
L 168.251094 254.658087 
L 168.251094 254.543357 
L 169.064596 254.543357 
L 169.064596 254.428627 
L 169.244833 254.428627 
L 169.262177 254.199166 
L 169.656399 254.199166 
L 169.695899 253.969705 
L 170.655397 253.969705 
L 170.655397 253.854975 
L 171.103055 253.854975 
L 171.103055 253.740245 
L 171.975201 253.740245 
L 171.98509 253.510784 
L 172.342255 253.510784 
L 172.342255 253.396054 
L 173.444741 253.396054 
L 173.526381 253.166593 
L 173.959872 253.166593 
L 173.999552 252.937132 
L 174.148644 252.937132 
L 174.148644 252.822402 
L 175.19099 252.822402 
L 175.19099 252.707672 
L 175.673699 252.707672 
L 175.673699 252.592941 
L 176.116124 252.592941 
L 176.116124 252.478211 
L 177.55666 252.478211 
L 177.571019 252.24875 
L 178.069773 252.24875 
L 178.069773 252.13402 
L 179.301531 252.13402 
L 179.301531 252.019289 
L 181.032363 252.019289 
L 181.032363 251.904559 
L 188.088665 251.904559 
L 188.088665 251.789829 
L 188.289714 251.789829 
L 188.289714 251.675098 
L 188.854907 251.675098 
L 188.854907 251.560368 
L 189.980765 251.560368 
L 189.980765 251.445638 
L 190.836578 251.445638 
L 190.836578 251.330907 
L 191.626726 251.330907 
L 191.626726 251.216177 
L 193.930959 251.216177 
L 193.930959 251.101447 
L 196.548473 251.101447 
L 196.548473 250.986716 
L 197.136711 250.986716 
L 197.136711 250.871986 
L 198.295123 250.871986 
L 198.295123 250.757256 
L 338.688 250.757256 
L 338.688 250.757256 
" style="fill:none;stroke:#0000ff;stroke-linecap:square;stroke-width:1.5;"/>
   </g>
   <g id="line2d_41">
    <defs>
     <path d="M 0 -6 
L -1.347084 -1.854102 
L -5.706339 -1.854102 
L -2.179628 0.708204 
L -3.526712 4.854102 
L -0 2.291796 
L 3.526712 4.854102 
L 2.179628 0.708204 
L 5.706339 -1.854102 
L 1.347084 -1.854102 
z
" id="me71bea0c4a" style="stroke:#0000ff;stroke-linejoin:bevel;stroke-width:1.5;"/>
    </defs>
    <g>
     <use style="fill-opacity:0;stroke:#0000ff;stroke-linejoin:bevel;stroke-width:1.5;" x="83.438118" xlink:href="#me71bea0c4a" y="277.374695"/>
     <use style="fill-opacity:0;stroke:#0000ff;stroke-linejoin:bevel;stroke-width:1.5;" x="141.941279" xlink:href="#me71bea0c4a" y="259.935683"/>
     <use style="fill-opacity:0;stroke:#0000ff;stroke-linejoin:bevel;stroke-width:1.5;" x="198.295123" xlink:href="#me71bea0c4a" y="250.871986"/>
     <use style="fill-opacity:0;stroke:#0000ff;stroke-linejoin:bevel;stroke-width:1.5;" x="198.295123" xlink:href="#me71bea0c4a" y="250.757256"/>
     <use style="fill-opacity:0;stroke:#0000ff;stroke-linejoin:bevel;stroke-width:1.5;" x="198.295123" xlink:href="#me71bea0c4a" y="250.757256"/>
     <use style="fill-opacity:0;stroke:#0000ff;stroke-linejoin:bevel;stroke-width:1.5;" x="338.688" xlink:href="#me71bea0c4a" y="250.757256"/>
    </g>
   </g>
   <g id="line2d_42">
    <path style="fill:none;stroke:#0000ff;stroke-linecap:square;stroke-width:1.5;"/>
    <g/>
   </g>
   <g id="line2d_43">
    <path clip-path="url(#pb96c0008df)" d="M 138.01518 260.968256 
" style="fill:none;stroke:#0000ff;stroke-linecap:square;stroke-width:1.5;"/>
    <defs>
     <path d="M -12 12 
L 12 -12 
M -12 -12 
L 12 12 
" id="m219b83d0c1" style="stroke:#0000ff;"/>
    </defs>
    <g clip-path="url(#pb96c0008df)">
     <use style="fill:#0000ff;stroke:#0000ff;" x="138.01518" xlink:href="#m219b83d0c1" y="260.968256"/>
    </g>
   </g>
   <g id="line2d_44">
    <defs>
     <path d="M 0 1.5 
C 0.397805 1.5 0.77937 1.341951 1.06066 1.06066 
C 1.341951 0.77937 1.5 0.397805 1.5 0 
C 1.5 -0.397805 1.341951 -0.77937 1.06066 -1.06066 
C 0.77937 -1.341951 0.397805 -1.5 0 -1.5 
C -0.397805 -1.5 -0.77937 -1.341951 -1.06066 -1.06066 
C -1.341951 -0.77937 -1.5 -0.397805 -1.5 0 
C -1.5 0.397805 -1.341951 0.77937 -1.06066 1.06066 
C -0.77937 1.341951 -0.397805 1.5 0 1.5 
z
" id="m3e3601b467" style="stroke:#000000;"/>
    </defs>
    <g>
     <use style="stroke:#000000;" x="211.211104" xlink:href="#m3e3601b467" y="266.819504"/>
     <use style="stroke:#000000;" x="211.211104" xlink:href="#m3e3601b467" y="266.819504"/>
    </g>
   </g>
   <g id="line2d_45">
    <path d="M 17.444571 298.944 
L 17.444571 291.142337 
L 29.53256 291.142337 
L 29.53256 290.339224 
L 36.60358 290.339224 
L 36.60358 289.880303 
L 41.620548 289.880303 
L 41.620548 289.536112 
L 45.512012 289.536112 
L 45.512012 289.421381 
L 48.691568 289.421381 
L 48.691568 289.306651 
L 51.379845 289.306651 
L 51.379845 289.07719 
L 53.708537 289.07719 
L 53.708537 288.84773 
L 55.762588 288.84773 
L 55.762588 288.274078 
L 57.6 288.274078 
L 57.6 288.159348 
L 59.262141 288.159348 
L 59.262141 287.929887 
L 60.779557 287.929887 
L 60.779557 287.700426 
L 63.467834 287.700426 
L 63.467834 287.585696 
L 66.853775 287.585696 
L 66.853775 287.470966 
L 67.850577 287.470966 
L 67.850577 287.356235 
L 69.687988 287.356235 
L 69.687988 287.241505 
L 70.538854 287.241505 
L 70.538854 287.126775 
L 72.125336 287.126775 
L 72.125336 287.012044 
L 72.867545 287.012044 
L 72.867545 286.897314 
L 75.555822 286.897314 
L 75.555822 286.782584 
L 76.759008 286.782584 
L 76.759008 286.667853 
L 77.330839 286.667853 
L 77.330839 286.553123 
L 78.421149 286.553123 
L 78.421149 286.438393 
L 81.775977 286.438393 
L 81.775977 286.323662 
L 86.012784 286.323662 
L 86.012784 286.208932 
L 88.255778 286.208932 
L 88.255778 286.094202 
L 89.697862 286.094202 
L 89.697862 285.979471 
L 92.267099 285.979471 
L 92.267099 285.864741 
L 92.73846 285.864741 
L 92.73846 285.75001 
L 101.079711 285.75001 
L 101.079711 285.63528 
L 101.365607 285.63528 
L 101.365607 285.52055 
L 103.623262 285.52055 
L 103.623262 285.405819 
L 104.114542 285.405819 
L 104.114542 285.176359 
L 104.355088 285.176359 
L 104.355088 285.061628 
L 104.826449 285.061628 
L 104.826449 284.832168 
L 105.951954 284.832168 
L 105.951954 284.717437 
L 109.843417 284.717437 
L 109.843417 284.602707 
L 110.358901 284.602707 
L 110.358901 284.487977 
L 112.128456 284.487977 
L 112.128456 284.373246 
L 113.311233 284.373246 
L 113.311233 284.258516 
L 113.942906 284.258516 
L 113.942906 284.029055 
L 114.751048 284.029055 
L 114.751048 283.914325 
L 116.081002 283.914325 
L 116.081002 283.799595 
L 116.262979 283.799595 
L 116.262979 283.570134 
L 116.972471 283.570134 
L 116.972471 283.455404 
L 117.654224 283.455404 
L 117.654224 283.340673 
L 119.301163 283.340673 
L 119.301163 283.225943 
L 119.502775 283.225943 
L 119.502775 283.111213 
L 120.47729 283.111213 
L 120.47729 282.996482 
L 121.219499 282.996482 
L 121.219499 282.881752 
L 122.31944 282.881752 
L 122.31944 282.767022 
L 123.111324 282.767022 
L 123.111324 282.652291 
L 123.712047 282.652291 
L 123.712047 282.537561 
L 125.183475 282.537561 
L 125.183475 282.422831 
L 127.261631 282.422831 
L 127.261631 282.3081 
L 127.389626 282.3081 
L 127.389626 282.19337 
L 127.799239 282.19337 
L 127.799239 281.734448 
L 128.260216 281.734448 
L 128.260216 281.504988 
L 128.441249 281.504988 
L 128.531065 281.160797 
L 129.002426 281.160797 
L 129.002426 281.046066 
L 129.147151 281.046066 
L 129.147151 280.931336 
L 129.489668 280.931336 
L 129.489668 280.816606 
L 131.26195 280.816606 
L 131.26195 280.701875 
L 134.849486 280.701875 
L 134.849486 280.472415 
L 136.380754 280.472415 
L 136.380754 280.013493 
L 137.126135 280.013493 
L 137.126135 279.554572 
L 137.753193 279.554572 
L 137.753193 279.095651 
L 138.049816 279.095651 
L 138.049816 278.98092 
L 138.89409 278.98092 
L 138.976312 278.75146 
L 140.393639 278.75146 
L 140.438956 278.521999 
L 141.133958 278.521999 
L 141.133958 278.407268 
L 141.577657 278.407268 
L 141.577657 278.292538 
L 141.885829 278.292538 
L 141.885829 278.177808 
L 142.351634 278.177808 
L 142.351634 278.063077 
L 143.131543 278.063077 
L 143.157379 277.833617 
L 143.678752 277.833617 
L 143.678752 277.718886 
L 144.160633 277.718886 
L 144.160633 277.604156 
L 144.794859 277.604156 
L 144.794859 277.489426 
L 145.677034 277.489426 
L 145.732804 277.030504 
L 145.899052 277.030504 
L 145.998045 276.801044 
L 146.172658 276.801044 
L 146.172658 276.686313 
L 147.041095 276.686313 
L 147.072061 276.342122 
L 148.382858 276.342122 
L 148.382858 276.227392 
L 148.563676 276.227392 
L 148.582601 275.997931 
L 148.695721 275.997931 
L 148.714503 275.768471 
L 149.259669 275.768471 
L 149.305096 275.42428 
L 149.65542 275.42428 
L 149.65542 275.309549 
L 149.928949 275.309549 
L 149.937701 275.080089 
L 150.068464 275.080089 
L 150.068464 274.965358 
L 151.316753 274.965358 
L 151.349063 274.735897 
L 152.137948 274.735897 
L 152.145659 274.506437 
L 153.366312 274.506437 
L 153.40939 274.276976 
L 156.272978 274.276976 
L 156.272978 274.162246 
L 156.604476 274.162246 
L 156.628341 273.588594 
L 156.876971 273.588594 
L 156.876971 273.473864 
L 157.040776 273.473864 
L 157.075678 273.244403 
L 157.191515 273.244403 
L 157.191515 273.129673 
L 157.306589 273.129673 
L 157.306589 273.014942 
L 157.970486 273.014942 
L 158.003578 272.785482 
L 158.51933 272.785482 
L 158.51933 272.670751 
L 159.009867 272.670751 
L 159.009867 272.556021 
L 161.374928 272.556021 
L 161.424813 272.32656 
L 161.515149 272.32656 
L 161.515149 272.21183 
L 161.761186 272.21183 
L 161.770068 271.752909 
L 161.920369 271.752909 
L 161.920369 271.638178 
L 164.482429 271.638178 
L 164.546914 271.293987 
L 165.378658 271.293987 
L 165.46508 270.949796 
L 165.746566 270.949796 
L 165.746566 270.835066 
L 165.894387 270.835066 
L 165.995728 270.605605 
L 166.023581 270.605605 
L 166.023581 270.490875 
L 167.649948 270.490875 
L 167.649948 270.376144 
L 167.948439 270.376144 
L 167.964008 270.146684 
L 169.090875 270.146684 
L 169.090875 270.031953 
L 170.364915 270.031953 
L 170.41637 269.802493 
L 170.938496 269.802493 
L 170.938496 269.687762 
L 171.773733 269.687762 
L 171.773733 269.573032 
L 173.070232 269.573032 
L 173.070232 269.458302 
L 174.054514 269.458302 
L 174.054514 269.343571 
L 174.305129 269.343571 
L 174.305129 269.228841 
L 175.452258 269.228841 
L 175.452258 269.114111 
L 175.94365 269.114111 
L 175.992822 268.88465 
L 176.265652 268.88465 
L 176.265652 268.76992 
L 176.780066 268.76992 
L 176.780066 268.655189 
L 177.841622 268.655189 
L 177.841622 268.540459 
L 179.121894 268.540459 
L 179.121894 268.425729 
L 179.548351 268.425729 
L 179.548351 268.310998 
L 183.500259 268.310998 
L 183.500259 268.196268 
L 183.884222 268.196268 
L 183.935365 267.966807 
L 184.328244 267.966807 
L 184.328244 267.852077 
L 185.098897 267.852077 
L 185.098897 267.737347 
L 187.218206 267.737347 
L 187.218206 267.622616 
L 189.204597 267.622616 
L 189.204597 267.507886 
L 192.541507 267.507886 
L 192.541507 267.393156 
L 193.112259 267.393156 
L 193.112259 267.278425 
L 196.611209 267.278425 
L 196.611209 267.163695 
L 203.837292 267.163695 
L 203.837292 267.048964 
L 208.12846 267.048964 
L 208.12846 266.934234 
L 211.211104 266.934234 
L 211.211104 266.819504 
L 338.688 266.819504 
L 338.688 266.819504 
" style="fill:none;stroke:#000000;stroke-linecap:square;stroke-width:1.5;"/>
   </g>
   <g id="line2d_46">
    <defs>
     <path d="M 0 6 
C 1.591219 6 3.117479 5.367802 4.242641 4.242641 
C 5.367802 3.117479 6 1.591219 6 0 
C 6 -1.591219 5.367802 -3.117479 4.242641 -4.242641 
C 3.117479 -5.367802 1.591219 -6 0 -6 
C -1.591219 -6 -3.117479 -5.367802 -4.242641 -4.242641 
C -5.367802 -3.117479 -6 -1.591219 -6 0 
C -6 1.591219 -5.367802 3.117479 -4.242641 4.242641 
C -3.117479 5.367802 -1.591219 6 0 6 
z
" id="m14febe97c1" style="stroke:#000000;stroke-width:1.5;"/>
    </defs>
    <g>
     <use style="fill-opacity:0;stroke:#000000;stroke-width:1.5;" x="114.751048" xlink:href="#m14febe97c1" y="284.029055"/>
     <use style="fill-opacity:0;stroke:#000000;stroke-width:1.5;" x="176.265652" xlink:href="#m14febe97c1" y="268.88465"/>
     <use style="fill-opacity:0;stroke:#000000;stroke-width:1.5;" x="211.211104" xlink:href="#m14febe97c1" y="266.819504"/>
     <use style="fill-opacity:0;stroke:#000000;stroke-width:1.5;" x="211.211104" xlink:href="#m14febe97c1" y="266.819504"/>
     <use style="fill-opacity:0;stroke:#000000;stroke-width:1.5;" x="338.688" xlink:href="#m14febe97c1" y="266.819504"/>
    </g>
   </g>
   <g id="line2d_47">
    <path style="fill:none;stroke:#000000;stroke-linecap:square;stroke-width:1.5;"/>
    <g/>
   </g>
   <g id="line2d_48">
    <path clip-path="url(#pb96c0008df)" d="M 137.997836 279.095651 
" style="fill:none;stroke:#000000;stroke-linecap:square;stroke-width:1.5;"/>
    <defs>
     <path d="M -12 12 
L 12 -12 
M -12 -12 
L 12 12 
" id="m93b10569e4" style="stroke:#000000;"/>
    </defs>
    <g clip-path="url(#pb96c0008df)">
     <use style="stroke:#000000;" x="137.997836" xlink:href="#m93b10569e4" y="279.095651"/>
    </g>
   </g>
   <g id="line2d_49">
    <defs>
     <path d="M 0 1.5 
C 0.397805 1.5 0.77937 1.341951 1.06066 1.06066 
C 1.341951 0.77937 1.5 0.397805 1.5 0 
C 1.5 -0.397805 1.341951 -0.77937 1.06066 -1.06066 
C 0.77937 -1.341951 0.397805 -1.5 0 -1.5 
C -0.397805 -1.5 -0.77937 -1.341951 -1.06066 -1.06066 
C -1.341951 -0.77937 -1.5 -0.397805 -1.5 0 
C -1.5 0.397805 -1.341951 0.77937 -1.06066 1.06066 
C -0.77937 1.341951 -0.397805 1.5 0 1.5 
z
" id="mbc0e207a3e" style="stroke:#ff0000;"/>
    </defs>
    <g>
     <use style="fill:#ff0000;stroke:#ff0000;" x="208.168234" xlink:href="#mbc0e207a3e" y="284.029055"/>
     <use style="fill:#ff0000;stroke:#ff0000;" x="208.168234" xlink:href="#mbc0e207a3e" y="284.029055"/>
    </g>
   </g>
   <g id="line2d_50">
    <path d="M 5.356583 298.944 
L 5.356583 291.715988 
L 17.444571 291.715988 
L 17.444571 290.568685 
L 24.515591 290.568685 
L 24.515591 290.339224 
L 33.424023 290.339224 
L 33.424023 290.109764 
L 36.60358 290.109764 
L 36.60358 289.995033 
L 45.512012 289.995033 
L 45.512012 289.880303 
L 47.174153 289.880303 
L 47.174153 289.765573 
L 48.691568 289.765573 
L 48.691568 289.650842 
L 63.467834 289.650842 
L 63.467834 289.536112 
L 65.796525 289.536112 
L 65.796525 289.421381 
L 68.328395 289.421381 
L 68.328395 289.306651 
L 69.246464 289.306651 
L 69.246464 289.191921 
L 77.884514 289.191921 
L 77.884514 289.07719 
L 79.938565 289.07719 
L 79.938565 288.96246 
L 82.206598 288.96246 
L 82.206598 288.84773 
L 85.492169 288.84773 
L 85.492169 288.732999 
L 86.847358 288.732999 
L 86.847358 288.618269 
L 87.952479 288.618269 
L 87.952479 288.388808 
L 91.535274 288.388808 
L 91.535274 288.274078 
L 93.644601 288.274078 
L 93.644601 288.159348 
L 98.935347 288.159348 
L 98.935347 288.044617 
L 101.436355 288.044617 
L 101.436355 287.929887 
L 118.390628 287.929887 
L 118.390628 287.815157 
L 119.65247 287.815157 
L 119.65247 287.700426 
L 121.219499 287.700426 
L 121.219499 287.585696 
L 121.601315 287.585696 
L 121.601315 287.470966 
L 121.756135 287.470966 
L 121.756135 287.356235 
L 126.065325 287.356235 
L 126.065325 287.241505 
L 126.25349 287.241505 
L 126.25349 287.126775 
L 130.209487 287.126775 
L 130.209487 287.012044 
L 132.870621 287.012044 
L 132.870621 286.897314 
L 135.148305 286.897314 
L 135.148305 286.782584 
L 136.39027 286.782584 
L 136.39027 286.667853 
L 138.910565 286.667853 
L 138.910565 286.553123 
L 139.123342 286.553123 
L 139.123342 286.438393 
L 140.011351 286.438393 
L 140.011351 286.323662 
L 147.660186 286.323662 
L 147.660186 286.208932 
L 150.539708 286.208932 
L 150.539708 286.094202 
L 152.029629 286.094202 
L 152.029629 285.979471 
L 153.109235 285.979471 
L 153.109235 285.864741 
L 154.886723 285.864741 
L 154.886723 285.75001 
L 157.725877 285.75001 
L 157.725877 285.63528 
L 160.494745 285.63528 
L 160.494745 285.52055 
L 164.239429 285.52055 
L 164.239429 285.405819 
L 166.239662 285.405819 
L 166.239662 285.291089 
L 166.381675 285.291089 
L 166.381675 285.176359 
L 169.351513 285.176359 
L 169.351513 285.061628 
L 169.494647 285.061628 
L 169.494647 284.946898 
L 174.333234 284.946898 
L 174.333234 284.832168 
L 178.226858 284.832168 
L 178.226858 284.717437 
L 182.177489 284.717437 
L 182.177489 284.602707 
L 186.425543 284.602707 
L 186.425543 284.487977 
L 189.390063 284.487977 
L 189.390063 284.373246 
L 204.370178 284.373246 
L 204.370178 284.258516 
L 207.864064 284.258516 
L 207.864064 284.143786 
L 208.168234 284.143786 
L 208.168234 284.029055 
L 338.688 284.029055 
" style="fill:none;stroke:#ff0000;stroke-linecap:square;stroke-width:1.5;"/>
   </g>
   <g id="line2d_51">
    <defs>
     <path d="M -6 6 
L 6 6 
L 6 -6 
L -6 -6 
z
" id="m8ba6a37e16" style="stroke:#ff0000;stroke-linejoin:miter;stroke-width:1.5;"/>
    </defs>
    <g>
     <use style="fill-opacity:0;stroke:#ff0000;stroke-linejoin:miter;stroke-width:1.5;" x="121.756135" xlink:href="#m8ba6a37e16" y="287.356235"/>
     <use style="fill-opacity:0;stroke:#ff0000;stroke-linejoin:miter;stroke-width:1.5;" x="189.390063" xlink:href="#m8ba6a37e16" y="284.487977"/>
     <use style="fill-opacity:0;stroke:#ff0000;stroke-linejoin:miter;stroke-width:1.5;" x="208.168234" xlink:href="#m8ba6a37e16" y="284.029055"/>
     <use style="fill-opacity:0;stroke:#ff0000;stroke-linejoin:miter;stroke-width:1.5;" x="208.168234" xlink:href="#m8ba6a37e16" y="284.029055"/>
     <use style="fill-opacity:0;stroke:#ff0000;stroke-linejoin:miter;stroke-width:1.5;" x="338.688" xlink:href="#m8ba6a37e16" y="284.029055"/>
    </g>
   </g>
   <g id="line2d_52">
    <path style="fill:none;stroke:#ff0000;stroke-linecap:square;stroke-width:1.5;"/>
    <g/>
   </g>
   <g id="line2d_53">
    <path clip-path="url(#pb96c0008df)" d="M 137.945701 286.667853 
" style="fill:none;stroke:#ff0000;stroke-linecap:square;stroke-width:1.5;"/>
    <defs>
     <path d="M -12 12 
L 12 -12 
M -12 -12 
L 12 12 
" id="m2e9df1ab15" style="stroke:#ff0000;"/>
    </defs>
    <g clip-path="url(#pb96c0008df)">
     <use style="fill:#ff0000;stroke:#ff0000;" x="137.945701" xlink:href="#m2e9df1ab15" y="286.667853"/>
    </g>
   </g>
   <g id="line2d_54">
    <defs>
     <path d="M 0 1.5 
C 0.397805 1.5 0.77937 1.341951 1.06066 1.06066 
C 1.341951 0.77937 1.5 0.397805 1.5 0 
C 1.5 -0.397805 1.341951 -0.77937 1.06066 -1.06066 
C 0.77937 -1.341951 0.397805 -1.5 0 -1.5 
C -0.397805 -1.5 -0.77937 -1.341951 -1.06066 -1.06066 
C -1.341951 -0.77937 -1.5 -0.397805 -1.5 0 
C -1.5 0.397805 -1.341951 0.77937 -1.06066 1.06066 
C -0.77937 1.341951 -0.397805 1.5 0 1.5 
z
" id="m4f54ba04a1" style="stroke:#bf00bf;"/>
    </defs>
    <g>
     <use style="fill:#bf00bf;stroke:#bf00bf;" x="182.92152" xlink:href="#m4f54ba04a1" y="287.470966"/>
     <use style="fill:#bf00bf;stroke:#bf00bf;" x="182.92152" xlink:href="#m4f54ba04a1" y="287.470966"/>
    </g>
   </g>
   <g id="line2d_55">
    <path d="M -1 290.798146 
L 5.356583 290.798146 
L 5.356583 290.683415 
L 17.444571 290.683415 
L 17.444571 290.453955 
L 21.336035 290.453955 
L 21.336035 290.339224 
L 24.515591 290.339224 
L 24.515591 290.109764 
L 31.586611 290.109764 
L 31.586611 289.995033 
L 41.620548 289.995033 
L 41.620548 289.880303 
L 53.154862 289.880303 
L 53.154862 289.765573 
L 56.705482 289.765573 
L 56.705482 289.650842 
L 69.246464 289.650842 
L 69.246464 289.536112 
L 69.904628 289.536112 
L 69.904628 289.421381 
L 74.263433 289.421381 
L 74.263433 289.306651 
L 74.430317 289.306651 
L 74.430317 289.191921 
L 80.995815 289.191921 
L 80.995815 289.07719 
L 86.765675 289.07719 
L 86.765675 288.96246 
L 91.535274 288.96246 
L 91.535274 288.84773 
L 93.140702 288.84773 
L 93.140702 288.732999 
L 104.621794 288.732999 
L 104.621794 288.618269 
L 109.37952 288.618269 
L 109.37952 288.503539 
L 141.064963 288.503539 
L 141.064963 288.388808 
L 141.079511 288.388808 
L 141.079511 288.274078 
L 151.258038 288.274078 
L 151.258038 288.159348 
L 157.920731 288.159348 
L 157.920731 288.044617 
L 162.742495 288.044617 
L 162.742495 287.929887 
L 174.616074 287.929887 
L 174.616074 287.815157 
L 176.633483 287.815157 
L 176.633483 287.700426 
L 181.544462 287.700426 
L 181.544462 287.585696 
L 182.92152 287.585696 
L 182.92152 287.470966 
L 338.688 287.470966 
" style="fill:none;stroke:#bf00bf;stroke-linecap:square;stroke-width:1.5;"/>
   </g>
   <g id="line2d_56">
    <defs>
     <path d="M 0 8.485281 
L 8.485281 0 
L 0 -8.485281 
L -8.485281 0 
z
" id="m49d80a9942" style="stroke:#bf00bf;stroke-linejoin:miter;stroke-width:1.5;"/>
    </defs>
    <g>
     <use style="fill-opacity:0;stroke:#bf00bf;stroke-linejoin:miter;stroke-width:1.5;" x="141.079511" xlink:href="#m49d80a9942" y="288.274078"/>
     <use style="fill-opacity:0;stroke:#bf00bf;stroke-linejoin:miter;stroke-width:1.5;" x="182.92152" xlink:href="#m49d80a9942" y="287.585696"/>
     <use style="fill-opacity:0;stroke:#bf00bf;stroke-linejoin:miter;stroke-width:1.5;" x="182.92152" xlink:href="#m49d80a9942" y="287.470966"/>
     <use style="fill-opacity:0;stroke:#bf00bf;stroke-linejoin:miter;stroke-width:1.5;" x="182.92152" xlink:href="#m49d80a9942" y="287.470966"/>
     <use style="fill-opacity:0;stroke:#bf00bf;stroke-linejoin:miter;stroke-width:1.5;" x="338.688" xlink:href="#m49d80a9942" y="287.470966"/>
    </g>
   </g>
   <g id="line2d_57">
    <path style="fill:none;stroke:#bf00bf;stroke-linecap:square;stroke-width:1.5;"/>
    <g/>
   </g>
   <g id="line2d_58">
    <path clip-path="url(#pb96c0008df)" d="M 137.923932 288.503539 
" style="fill:none;stroke:#bf00bf;stroke-linecap:square;stroke-width:1.5;"/>
    <defs>
     <path d="M -12 12 
L 12 -12 
M -12 -12 
L 12 12 
" id="m93c026c2c6" style="stroke:#bf00bf;"/>
    </defs>
    <g clip-path="url(#pb96c0008df)">
     <use style="fill:#bf00bf;stroke:#bf00bf;" x="137.923932" xlink:href="#m93c026c2c6" y="288.503539"/>
    </g>
   </g>
   <g id="line2d_59">
    <path d="M 338.688 287.470966 
L 369.60768 293.092752 
" style="fill:none;stroke:#bf00bf;stroke-linecap:square;stroke-width:1.5;"/>
    <g>
     <use style="fill-opacity:0;stroke:#bf00bf;stroke-linejoin:miter;stroke-width:1.5;" x="338.688" xlink:href="#m49d80a9942" y="287.470966"/>
     <use style="fill-opacity:0;stroke:#bf00bf;stroke-linejoin:miter;stroke-width:1.5;" x="369.60768" xlink:href="#m49d80a9942" y="293.092752"/>
    </g>
   </g>
   <g id="line2d_60">
    <path d="M 338.688 284.029055 
L 369.60768 236.920776 
" style="fill:none;stroke:#ff0000;stroke-linecap:square;stroke-width:1.5;"/>
    <g>
     <use style="fill-opacity:0;stroke:#ff0000;stroke-linejoin:miter;stroke-width:1.5;" x="338.688" xlink:href="#m8ba6a37e16" y="284.029055"/>
     <use style="fill-opacity:0;stroke:#ff0000;stroke-linejoin:miter;stroke-width:1.5;" x="369.60768" xlink:href="#m8ba6a37e16" y="236.920776"/>
    </g>
   </g>
   <g id="line2d_61">
    <path d="M 338.688 266.819504 
L 369.60768 180.7488 
" style="fill:none;stroke:#000000;stroke-linecap:square;stroke-width:1.5;"/>
    <g>
     <use style="fill-opacity:0;stroke:#000000;stroke-width:1.5;" x="338.688" xlink:href="#m14febe97c1" y="266.819504"/>
     <use style="fill-opacity:0;stroke:#000000;stroke-width:1.5;" x="369.60768" xlink:href="#m14febe97c1" y="180.7488"/>
    </g>
   </g>
   <g id="line2d_62">
    <path d="M 338.688 250.757256 
L 369.60768 124.576824 
" style="fill:none;stroke:#0000ff;stroke-linecap:square;stroke-width:1.5;"/>
    <g>
     <use style="fill-opacity:0;stroke:#0000ff;stroke-linejoin:bevel;stroke-width:1.5;" x="338.688" xlink:href="#me71bea0c4a" y="250.757256"/>
     <use style="fill-opacity:0;stroke:#0000ff;stroke-linejoin:bevel;stroke-width:1.5;" x="369.60768" xlink:href="#me71bea0c4a" y="124.576824"/>
    </g>
   </g>
   <g id="line2d_63">
    <path d="M 338.688 222.07467 
L 369.60768 68.404848 
" style="fill:none;stroke:#008000;stroke-linecap:square;stroke-width:1.5;"/>
    <g>
     <use style="fill-opacity:0;stroke:#008000;stroke-linejoin:miter;stroke-width:1.5;" x="338.688" xlink:href="#mdc44ca1a86" y="222.07467"/>
     <use style="fill-opacity:0;stroke:#008000;stroke-linejoin:miter;stroke-width:1.5;" x="369.60768" xlink:href="#mdc44ca1a86" y="68.404848"/>
    </g>
   </g>
   <g id="line2d_64">
    <path d="M 338.688 191.097477 
L 369.60768 12.232871 
" style="fill:none;stroke:#00bfbf;stroke-linecap:square;stroke-width:1.5;"/>
    <g>
     <use style="fill-opacity:0;stroke:#00bfbf;stroke-width:1.5;" x="338.688" xlink:href="#m20dc3e0337" y="191.097477"/>
     <use style="fill-opacity:0;stroke:#00bfbf;stroke-width:1.5;" x="369.60768" xlink:href="#m20dc3e0337" y="12.232871"/>
    </g>
   </g>
   <g id="line2d_65">
    <path d="M 338.688 298.944 
L 338.688 6.381624 
" style="fill:none;stroke:#000000;stroke-linecap:square;stroke-width:1.5;"/>
   </g>
   <g id="patch_3">
    <path d="M 57.6 298.944 
L 57.6 3.456 
" style="fill:none;stroke:#000000;stroke-linecap:square;stroke-linejoin:miter;stroke-width:0.8;"/>
   </g>
   <g id="patch_4">
    <path d="M 338.688 298.944 
L 338.688 3.456 
" style="fill:none;stroke:#000000;stroke-linecap:square;stroke-linejoin:miter;stroke-width:0.8;"/>
   </g>
   <g id="patch_5">
    <path d="M 57.6 298.944 
L 338.688 298.944 
" style="fill:none;stroke:#000000;stroke-linecap:square;stroke-linejoin:miter;stroke-width:0.8;"/>
   </g>
   <g id="patch_6">
    <path d="M 57.6 3.456 
L 338.688 3.456 
" style="fill:none;stroke:#000000;stroke-linecap:square;stroke-linejoin:miter;stroke-width:0.8;"/>
   </g>
   <g id="text_13">
    <!-- 40-D -->
    <g transform="translate(375.22944 297.78369)scale(0.17 -0.17)">
     <defs>
      <path d="M 1259 4147 
L 1259 519 
L 2022 519 
Q 2988 519 3436 956 
Q 3884 1394 3884 2338 
Q 3884 3275 3436 3711 
Q 2988 4147 2022 4147 
L 1259 4147 
z
M 628 4666 
L 1925 4666 
Q 3281 4666 3915 4102 
Q 4550 3538 4550 2338 
Q 4550 1131 3912 565 
Q 3275 0 1925 0 
L 628 0 
L 628 4666 
z
" id="DejaVuSans-44" transform="scale(0.015625)"/>
     </defs>
     <use xlink:href="#DejaVuSans-34"/>
     <use x="63.623047" xlink:href="#DejaVuSans-30"/>
     <use x="127.246094" xlink:href="#DejaVuSans-2d"/>
     <use x="163.330078" xlink:href="#DejaVuSans-44"/>
    </g>
   </g>
   <g id="text_14">
    <!-- 20-D -->
    <g transform="translate(375.22944 241.611714)scale(0.17 -0.17)">
     <use xlink:href="#DejaVuSans-32"/>
     <use x="63.623047" xlink:href="#DejaVuSans-30"/>
     <use x="127.246094" xlink:href="#DejaVuSans-2d"/>
     <use x="163.330078" xlink:href="#DejaVuSans-44"/>
    </g>
   </g>
   <g id="text_15">
    <!-- 10-D -->
    <g transform="translate(375.22944 185.439737)scale(0.17 -0.17)">
     <use xlink:href="#DejaVuSans-31"/>
     <use x="63.623047" xlink:href="#DejaVuSans-30"/>
     <use x="127.246094" xlink:href="#DejaVuSans-2d"/>
     <use x="163.330078" xlink:href="#DejaVuSans-44"/>
    </g>
   </g>
   <g id="text_16">
    <!-- 5-D -->
    <g transform="translate(375.22944 129.267761)scale(0.17 -0.17)">
     <defs>
      <path d="M 691 4666 
L 3169 4666 
L 3169 4134 
L 1269 4134 
L 1269 2991 
Q 1406 3038 1543 3061 
Q 1681 3084 1819 3084 
Q 2600 3084 3056 2656 
Q 3513 2228 3513 1497 
Q 3513 744 3044 326 
Q 2575 -91 1722 -91 
Q 1428 -91 1123 -41 
Q 819 9 494 109 
L 494 744 
Q 775 591 1075 516 
Q 1375 441 1709 441 
Q 2250 441 2565 725 
Q 2881 1009 2881 1497 
Q 2881 1984 2565 2268 
Q 2250 2553 1709 2553 
Q 1456 2553 1204 2497 
Q 953 2441 691 2322 
L 691 4666 
z
" id="DejaVuSans-35" transform="scale(0.015625)"/>
     </defs>
     <use xlink:href="#DejaVuSans-35"/>
     <use x="63.623047" xlink:href="#DejaVuSans-2d"/>
     <use x="99.707031" xlink:href="#DejaVuSans-44"/>
    </g>
   </g>
   <g id="text_17">
    <!-- 3-D -->
    <g transform="translate(375.22944 73.095785)scale(0.17 -0.17)">
     <defs>
      <path d="M 2597 2516 
Q 3050 2419 3304 2112 
Q 3559 1806 3559 1356 
Q 3559 666 3084 287 
Q 2609 -91 1734 -91 
Q 1441 -91 1130 -33 
Q 819 25 488 141 
L 488 750 
Q 750 597 1062 519 
Q 1375 441 1716 441 
Q 2309 441 2620 675 
Q 2931 909 2931 1356 
Q 2931 1769 2642 2001 
Q 2353 2234 1838 2234 
L 1294 2234 
L 1294 2753 
L 1863 2753 
Q 2328 2753 2575 2939 
Q 2822 3125 2822 3475 
Q 2822 3834 2567 4026 
Q 2313 4219 1838 4219 
Q 1578 4219 1281 4162 
Q 984 4106 628 3988 
L 628 4550 
Q 988 4650 1302 4700 
Q 1616 4750 1894 4750 
Q 2613 4750 3031 4423 
Q 3450 4097 3450 3541 
Q 3450 3153 3228 2886 
Q 3006 2619 2597 2516 
z
" id="DejaVuSans-33" transform="scale(0.015625)"/>
     </defs>
     <use xlink:href="#DejaVuSans-33"/>
     <use x="63.623047" xlink:href="#DejaVuSans-2d"/>
     <use x="99.707031" xlink:href="#DejaVuSans-44"/>
    </g>
   </g>
   <g id="text_18">
    <!-- 2-D -->
    <g transform="translate(375.22944 16.923809)scale(0.17 -0.17)">
     <use xlink:href="#DejaVuSans-32"/>
     <use x="63.623047" xlink:href="#DejaVuSans-2d"/>
     <use x="99.707031" xlink:href="#DejaVuSans-44"/>
    </g>
   </g>
   <g id="text_19">
    <!-- bbob f20-f24 -->
    <g transform="translate(60.41088 14.161286)scale(0.102 -0.102)">
     <defs>
      <path d="M 3116 1747 
Q 3116 2381 2855 2742 
Q 2594 3103 2138 3103 
Q 1681 3103 1420 2742 
Q 1159 2381 1159 1747 
Q 1159 1113 1420 752 
Q 1681 391 2138 391 
Q 2594 391 2855 752 
Q 3116 1113 3116 1747 
z
M 1159 2969 
Q 1341 3281 1617 3432 
Q 1894 3584 2278 3584 
Q 2916 3584 3314 3078 
Q 3713 2572 3713 1747 
Q 3713 922 3314 415 
Q 2916 -91 2278 -91 
Q 1894 -91 1617 61 
Q 1341 213 1159 525 
L 1159 0 
L 581 0 
L 581 4863 
L 1159 4863 
L 1159 2969 
z
" id="DejaVuSans-62" transform="scale(0.015625)"/>
     </defs>
     <use xlink:href="#DejaVuSans-62"/>
     <use x="63.476562" xlink:href="#DejaVuSans-62"/>
     <use x="126.953125" xlink:href="#DejaVuSans-6f"/>
     <use x="188.134766" xlink:href="#DejaVuSans-62"/>
     <use x="251.611328" xlink:href="#DejaVuSans-20"/>
     <use x="283.398438" xlink:href="#DejaVuSans-66"/>
     <use x="318.603516" xlink:href="#DejaVuSans-32"/>
     <use x="382.226562" xlink:href="#DejaVuSans-30"/>
     <use x="445.849609" xlink:href="#DejaVuSans-2d"/>
     <use x="481.933594" xlink:href="#DejaVuSans-66"/>
     <use x="517.138672" xlink:href="#DejaVuSans-32"/>
     <use x="580.761719" xlink:href="#DejaVuSans-34"/>
    </g>
    <!-- 51 targets: 100..1e-08 -->
    <g transform="translate(60.41088 25.583055)scale(0.102 -0.102)">
     <defs>
      <path d="M 750 794 
L 1409 794 
L 1409 0 
L 750 0 
L 750 794 
z
M 750 3309 
L 1409 3309 
L 1409 2516 
L 750 2516 
L 750 3309 
z
" id="DejaVuSans-3a" transform="scale(0.015625)"/>
     </defs>
     <use xlink:href="#DejaVuSans-35"/>
     <use x="63.623047" xlink:href="#DejaVuSans-31"/>
     <use x="127.246094" xlink:href="#DejaVuSans-20"/>
     <use x="159.033203" xlink:href="#DejaVuSans-74"/>
     <use x="198.242188" xlink:href="#DejaVuSans-61"/>
     <use x="259.521484" xlink:href="#DejaVuSans-72"/>
     <use x="298.884766" xlink:href="#DejaVuSans-67"/>
     <use x="362.361328" xlink:href="#DejaVuSans-65"/>
     <use x="423.884766" xlink:href="#DejaVuSans-74"/>
     <use x="463.09375" xlink:href="#DejaVuSans-73"/>
     <use x="515.193359" xlink:href="#DejaVuSans-3a"/>
     <use x="548.884766" xlink:href="#DejaVuSans-20"/>
     <use x="580.671875" xlink:href="#DejaVuSans-31"/>
     <use x="644.294922" xlink:href="#DejaVuSans-30"/>
     <use x="707.917969" xlink:href="#DejaVuSans-30"/>
     <use x="771.541016" xlink:href="#DejaVuSans-2e"/>
     <use x="803.328125" xlink:href="#DejaVuSans-2e"/>
     <use x="835.115234" xlink:href="#DejaVuSans-31"/>
     <use x="898.738281" xlink:href="#DejaVuSans-65"/>
     <use x="960.261719" xlink:href="#DejaVuSans-2d"/>
     <use x="996.345703" xlink:href="#DejaVuSans-30"/>
     <use x="1059.96875" xlink:href="#DejaVuSans-38"/>
    </g>
    <!-- 15 instances -->
    <g transform="translate(60.41088 37.004824)scale(0.102 -0.102)">
     <use xlink:href="#DejaVuSans-31"/>
     <use x="63.623047" xlink:href="#DejaVuSans-35"/>
     <use x="127.246094" xlink:href="#DejaVuSans-20"/>
     <use x="159.033203" xlink:href="#DejaVuSans-69"/>
     <use x="186.816406" xlink:href="#DejaVuSans-6e"/>
     <use x="250.195312" xlink:href="#DejaVuSans-73"/>
     <use x="302.294922" xlink:href="#DejaVuSans-74"/>
     <use x="341.503906" xlink:href="#DejaVuSans-61"/>
     <use x="402.783203" xlink:href="#DejaVuSans-6e"/>
     <use x="466.162109" xlink:href="#DejaVuSans-63"/>
     <use x="521.142578" xlink:href="#DejaVuSans-65"/>
     <use x="582.666016" xlink:href="#DejaVuSans-73"/>
    </g>
   </g>
   <g id="text_20">
    <!-- v2.4 -->
    <g style="fill:#808080;" transform="translate(187.233062 293.909432)scale(0.1 -0.1)">
     <use xlink:href="#DejaVuSans-76"/>
     <use x="59.179688" xlink:href="#DejaVuSans-32"/>
     <use x="122.802734" xlink:href="#DejaVuSans-2e"/>
     <use x="154.589844" xlink:href="#DejaVuSans-34"/>
    </g>
   </g>
  </g>
 </g>
 <defs>
  <clipPath id="pb96c0008df">
   <rect height="295.488" width="281.088" x="57.6" y="3.456"/>
  </clipPath>
 </defs>
</svg>
