<?xml version="1.0" encoding="utf-8" standalone="no"?>
<!DOCTYPE svg PUBLIC "-//W3C//DTD SVG 1.1//EN"
  "http://www.w3.org/Graphics/SVG/1.1/DTD/svg11.dtd">
<svg height="345.6pt" version="1.1" viewBox="0 0 460.8 345.6" width="460.8pt" xmlns="http://www.w3.org/2000/svg" xmlns:xlink="http://www.w3.org/1999/xlink">
 <metadata>
  <rdf:RDF xmlns:cc="http://creativecommons.org/ns#" xmlns:dc="http://purl.org/dc/elements/1.1/" xmlns:rdf="http://www.w3.org/1999/02/22-rdf-syntax-ns#">
   <cc:Work>
    <dc:type rdf:resource="http://purl.org/dc/dcmitype/StillImage"/>
    <dc:date>2021-06-14T12:34:02.548245</dc:date>
    <dc:format>image/svg+xml</dc:format>
    <dc:creator>
     <cc:Agent>
      <dc:title>Matplotlib v3.4.2, https://matplotlib.org/</dc:title>
     </cc:Agent>
    </dc:creator>
   </cc:Work>
  </rdf:RDF>
 </metadata>
 <defs>
  <style type="text/css">*{stroke-linecap:butt;stroke-linejoin:round;}</style>
 </defs>
 <g id="figure_1">
  <g id="patch_1">
   <path d="M 0 345.6 
L 460.8 345.6 
L 460.8 0 
L 0 0 
z
" style="fill:#ffffff;"/>
  </g>
  <g id="axes_1">
   <g id="patch_2">
    <path d="M 57.6 298.944 
L 338.688 298.944 
L 338.688 3.456 
L 57.6 3.456 
z
" style="fill:#ffffff;"/>
   </g>
   <g id="matplotlib.axis_1">
    <g id="xtick_1">
     <g id="line2d_1">
      <path clip-path="url(#p9a6028ad4b)" d="M 57.6 298.944 
L 57.6 3.456 
" style="fill:none;stroke:#b0b0b0;stroke-linecap:square;stroke-width:0.8;"/>
     </g>
     <g id="line2d_2">
      <defs>
       <path d="M 0 0 
L 0 3.5 
" id="m5de06cd335" style="stroke:#000000;stroke-width:0.8;"/>
      </defs>
      <g>
       <use style="stroke:#000000;stroke-width:0.8;" x="57.6" xlink:href="#m5de06cd335" y="298.944"/>
      </g>
     </g>
     <g id="text_1">
      <!-- 0 -->
      <g transform="translate(51.2375 321.140875)scale(0.2 -0.2)">
       <defs>
        <path d="M 2034 4250 
Q 1547 4250 1301 3770 
Q 1056 3291 1056 2328 
Q 1056 1369 1301 889 
Q 1547 409 2034 409 
Q 2525 409 2770 889 
Q 3016 1369 3016 2328 
Q 3016 3291 2770 3770 
Q 2525 4250 2034 4250 
z
M 2034 4750 
Q 2819 4750 3233 4129 
Q 3647 3509 3647 2328 
Q 3647 1150 3233 529 
Q 2819 -91 2034 -91 
Q 1250 -91 836 529 
Q 422 1150 422 2328 
Q 422 3509 836 4129 
Q 1250 4750 2034 4750 
z
" id="DejaVuSans-30" transform="scale(0.015625)"/>
       </defs>
       <use xlink:href="#DejaVuSans-30"/>
      </g>
     </g>
    </g>
    <g id="xtick_2">
     <g id="line2d_3">
      <path clip-path="url(#p9a6028ad4b)" d="M 137.910857 298.944 
L 137.910857 3.456 
" style="fill:none;stroke:#b0b0b0;stroke-linecap:square;stroke-width:0.8;"/>
     </g>
     <g id="line2d_4">
      <g>
       <use style="stroke:#000000;stroke-width:0.8;" x="137.910857" xlink:href="#m5de06cd335" y="298.944"/>
      </g>
     </g>
     <g id="text_2">
      <!-- 2 -->
      <g transform="translate(131.548357 321.140875)scale(0.2 -0.2)">
       <defs>
        <path d="M 1228 531 
L 3431 531 
L 3431 0 
L 469 0 
L 469 531 
Q 828 903 1448 1529 
Q 2069 2156 2228 2338 
Q 2531 2678 2651 2914 
Q 2772 3150 2772 3378 
Q 2772 3750 2511 3984 
Q 2250 4219 1831 4219 
Q 1534 4219 1204 4116 
Q 875 4013 500 3803 
L 500 4441 
Q 881 4594 1212 4672 
Q 1544 4750 1819 4750 
Q 2544 4750 2975 4387 
Q 3406 4025 3406 3419 
Q 3406 3131 3298 2873 
Q 3191 2616 2906 2266 
Q 2828 2175 2409 1742 
Q 1991 1309 1228 531 
z
" id="DejaVuSans-32" transform="scale(0.015625)"/>
       </defs>
       <use xlink:href="#DejaVuSans-32"/>
      </g>
     </g>
    </g>
    <g id="xtick_3">
     <g id="line2d_5">
      <path clip-path="url(#p9a6028ad4b)" d="M 218.221714 298.944 
L 218.221714 3.456 
" style="fill:none;stroke:#b0b0b0;stroke-linecap:square;stroke-width:0.8;"/>
     </g>
     <g id="line2d_6">
      <g>
       <use style="stroke:#000000;stroke-width:0.8;" x="218.221714" xlink:href="#m5de06cd335" y="298.944"/>
      </g>
     </g>
     <g id="text_3">
      <!-- 4 -->
      <g transform="translate(211.859214 321.140875)scale(0.2 -0.2)">
       <defs>
        <path d="M 2419 4116 
L 825 1625 
L 2419 1625 
L 2419 4116 
z
M 2253 4666 
L 3047 4666 
L 3047 1625 
L 3713 1625 
L 3713 1100 
L 3047 1100 
L 3047 0 
L 2419 0 
L 2419 1100 
L 313 1100 
L 313 1709 
L 2253 4666 
z
" id="DejaVuSans-34" transform="scale(0.015625)"/>
       </defs>
       <use xlink:href="#DejaVuSans-34"/>
      </g>
     </g>
    </g>
    <g id="xtick_4">
     <g id="line2d_7">
      <path clip-path="url(#p9a6028ad4b)" d="M 298.532571 298.944 
L 298.532571 3.456 
" style="fill:none;stroke:#b0b0b0;stroke-linecap:square;stroke-width:0.8;"/>
     </g>
     <g id="line2d_8">
      <g>
       <use style="stroke:#000000;stroke-width:0.8;" x="298.532571" xlink:href="#m5de06cd335" y="298.944"/>
      </g>
     </g>
     <g id="text_4">
      <!-- 6 -->
      <g transform="translate(292.170071 321.140875)scale(0.2 -0.2)">
       <defs>
        <path d="M 2113 2584 
Q 1688 2584 1439 2293 
Q 1191 2003 1191 1497 
Q 1191 994 1439 701 
Q 1688 409 2113 409 
Q 2538 409 2786 701 
Q 3034 994 3034 1497 
Q 3034 2003 2786 2293 
Q 2538 2584 2113 2584 
z
M 3366 4563 
L 3366 3988 
Q 3128 4100 2886 4159 
Q 2644 4219 2406 4219 
Q 1781 4219 1451 3797 
Q 1122 3375 1075 2522 
Q 1259 2794 1537 2939 
Q 1816 3084 2150 3084 
Q 2853 3084 3261 2657 
Q 3669 2231 3669 1497 
Q 3669 778 3244 343 
Q 2819 -91 2113 -91 
Q 1303 -91 875 529 
Q 447 1150 447 2328 
Q 447 3434 972 4092 
Q 1497 4750 2381 4750 
Q 2619 4750 2861 4703 
Q 3103 4656 3366 4563 
z
" id="DejaVuSans-36" transform="scale(0.015625)"/>
       </defs>
       <use xlink:href="#DejaVuSans-36"/>
      </g>
     </g>
    </g>
    <g id="xtick_5">
     <g id="line2d_9">
      <path clip-path="url(#p9a6028ad4b)" d="M 97.755429 298.944 
L 97.755429 3.456 
" style="fill:none;stroke:#b0b0b0;stroke-linecap:square;stroke-width:0.8;"/>
     </g>
     <g id="line2d_10">
      <defs>
       <path d="M 0 0 
L 0 2 
" id="m71f39c4958" style="stroke:#000000;stroke-width:0.6;"/>
      </defs>
      <g>
       <use style="stroke:#000000;stroke-width:0.6;" x="97.755429" xlink:href="#m71f39c4958" y="298.944"/>
      </g>
     </g>
    </g>
    <g id="xtick_6">
     <g id="line2d_11">
      <path clip-path="url(#p9a6028ad4b)" d="M 178.066286 298.944 
L 178.066286 3.456 
" style="fill:none;stroke:#b0b0b0;stroke-linecap:square;stroke-width:0.8;"/>
     </g>
     <g id="line2d_12">
      <g>
       <use style="stroke:#000000;stroke-width:0.6;" x="178.066286" xlink:href="#m71f39c4958" y="298.944"/>
      </g>
     </g>
    </g>
    <g id="xtick_7">
     <g id="line2d_13">
      <path clip-path="url(#p9a6028ad4b)" d="M 258.377143 298.944 
L 258.377143 3.456 
" style="fill:none;stroke:#b0b0b0;stroke-linecap:square;stroke-width:0.8;"/>
     </g>
     <g id="line2d_14">
      <g>
       <use style="stroke:#000000;stroke-width:0.6;" x="258.377143" xlink:href="#m71f39c4958" y="298.944"/>
      </g>
     </g>
    </g>
    <g id="xtick_8">
     <g id="line2d_15">
      <path clip-path="url(#p9a6028ad4b)" d="M 338.688 298.944 
L 338.688 3.456 
" style="fill:none;stroke:#b0b0b0;stroke-linecap:square;stroke-width:0.8;"/>
     </g>
     <g id="line2d_16">
      <g>
       <use style="stroke:#000000;stroke-width:0.6;" x="338.688" xlink:href="#m71f39c4958" y="298.944"/>
      </g>
     </g>
    </g>
    <g id="text_5">
     <!-- log10(# f-evals / dimension) -->
     <g transform="translate(77.764078 342.217594)scale(0.17 -0.17)">
      <defs>
       <path d="M 603 4863 
L 1178 4863 
L 1178 0 
L 603 0 
L 603 4863 
z
" id="DejaVuSans-6c" transform="scale(0.015625)"/>
       <path d="M 1959 3097 
Q 1497 3097 1228 2736 
Q 959 2375 959 1747 
Q 959 1119 1226 758 
Q 1494 397 1959 397 
Q 2419 397 2687 759 
Q 2956 1122 2956 1747 
Q 2956 2369 2687 2733 
Q 2419 3097 1959 3097 
z
M 1959 3584 
Q 2709 3584 3137 3096 
Q 3566 2609 3566 1747 
Q 3566 888 3137 398 
Q 2709 -91 1959 -91 
Q 1206 -91 779 398 
Q 353 888 353 1747 
Q 353 2609 779 3096 
Q 1206 3584 1959 3584 
z
" id="DejaVuSans-6f" transform="scale(0.015625)"/>
       <path d="M 2906 1791 
Q 2906 2416 2648 2759 
Q 2391 3103 1925 3103 
Q 1463 3103 1205 2759 
Q 947 2416 947 1791 
Q 947 1169 1205 825 
Q 1463 481 1925 481 
Q 2391 481 2648 825 
Q 2906 1169 2906 1791 
z
M 3481 434 
Q 3481 -459 3084 -895 
Q 2688 -1331 1869 -1331 
Q 1566 -1331 1297 -1286 
Q 1028 -1241 775 -1147 
L 775 -588 
Q 1028 -725 1275 -790 
Q 1522 -856 1778 -856 
Q 2344 -856 2625 -561 
Q 2906 -266 2906 331 
L 2906 616 
Q 2728 306 2450 153 
Q 2172 0 1784 0 
Q 1141 0 747 490 
Q 353 981 353 1791 
Q 353 2603 747 3093 
Q 1141 3584 1784 3584 
Q 2172 3584 2450 3431 
Q 2728 3278 2906 2969 
L 2906 3500 
L 3481 3500 
L 3481 434 
z
" id="DejaVuSans-67" transform="scale(0.015625)"/>
       <path d="M 794 531 
L 1825 531 
L 1825 4091 
L 703 3866 
L 703 4441 
L 1819 4666 
L 2450 4666 
L 2450 531 
L 3481 531 
L 3481 0 
L 794 0 
L 794 531 
z
" id="DejaVuSans-31" transform="scale(0.015625)"/>
       <path d="M 1984 4856 
Q 1566 4138 1362 3434 
Q 1159 2731 1159 2009 
Q 1159 1288 1364 580 
Q 1569 -128 1984 -844 
L 1484 -844 
Q 1016 -109 783 600 
Q 550 1309 550 2009 
Q 550 2706 781 3412 
Q 1013 4119 1484 4856 
L 1984 4856 
z
" id="DejaVuSans-28" transform="scale(0.015625)"/>
       <path d="M 3272 2816 
L 2363 2816 
L 2100 1772 
L 3016 1772 
L 3272 2816 
z
M 2803 4594 
L 2478 3297 
L 3391 3297 
L 3719 4594 
L 4219 4594 
L 3897 3297 
L 4872 3297 
L 4872 2816 
L 3775 2816 
L 3519 1772 
L 4513 1772 
L 4513 1294 
L 3397 1294 
L 3072 0 
L 2572 0 
L 2894 1294 
L 1978 1294 
L 1656 0 
L 1153 0 
L 1478 1294 
L 494 1294 
L 494 1772 
L 1594 1772 
L 1856 2816 
L 850 2816 
L 850 3297 
L 1978 3297 
L 2297 4594 
L 2803 4594 
z
" id="DejaVuSans-23" transform="scale(0.015625)"/>
       <path id="DejaVuSans-20" transform="scale(0.015625)"/>
       <path d="M 2375 4863 
L 2375 4384 
L 1825 4384 
Q 1516 4384 1395 4259 
Q 1275 4134 1275 3809 
L 1275 3500 
L 2222 3500 
L 2222 3053 
L 1275 3053 
L 1275 0 
L 697 0 
L 697 3053 
L 147 3053 
L 147 3500 
L 697 3500 
L 697 3744 
Q 697 4328 969 4595 
Q 1241 4863 1831 4863 
L 2375 4863 
z
" id="DejaVuSans-66" transform="scale(0.015625)"/>
       <path d="M 313 2009 
L 1997 2009 
L 1997 1497 
L 313 1497 
L 313 2009 
z
" id="DejaVuSans-2d" transform="scale(0.015625)"/>
       <path d="M 3597 1894 
L 3597 1613 
L 953 1613 
Q 991 1019 1311 708 
Q 1631 397 2203 397 
Q 2534 397 2845 478 
Q 3156 559 3463 722 
L 3463 178 
Q 3153 47 2828 -22 
Q 2503 -91 2169 -91 
Q 1331 -91 842 396 
Q 353 884 353 1716 
Q 353 2575 817 3079 
Q 1281 3584 2069 3584 
Q 2775 3584 3186 3129 
Q 3597 2675 3597 1894 
z
M 3022 2063 
Q 3016 2534 2758 2815 
Q 2500 3097 2075 3097 
Q 1594 3097 1305 2825 
Q 1016 2553 972 2059 
L 3022 2063 
z
" id="DejaVuSans-65" transform="scale(0.015625)"/>
       <path d="M 191 3500 
L 800 3500 
L 1894 563 
L 2988 3500 
L 3597 3500 
L 2284 0 
L 1503 0 
L 191 3500 
z
" id="DejaVuSans-76" transform="scale(0.015625)"/>
       <path d="M 2194 1759 
Q 1497 1759 1228 1600 
Q 959 1441 959 1056 
Q 959 750 1161 570 
Q 1363 391 1709 391 
Q 2188 391 2477 730 
Q 2766 1069 2766 1631 
L 2766 1759 
L 2194 1759 
z
M 3341 1997 
L 3341 0 
L 2766 0 
L 2766 531 
Q 2569 213 2275 61 
Q 1981 -91 1556 -91 
Q 1019 -91 701 211 
Q 384 513 384 1019 
Q 384 1609 779 1909 
Q 1175 2209 1959 2209 
L 2766 2209 
L 2766 2266 
Q 2766 2663 2505 2880 
Q 2244 3097 1772 3097 
Q 1472 3097 1187 3025 
Q 903 2953 641 2809 
L 641 3341 
Q 956 3463 1253 3523 
Q 1550 3584 1831 3584 
Q 2591 3584 2966 3190 
Q 3341 2797 3341 1997 
z
" id="DejaVuSans-61" transform="scale(0.015625)"/>
       <path d="M 2834 3397 
L 2834 2853 
Q 2591 2978 2328 3040 
Q 2066 3103 1784 3103 
Q 1356 3103 1142 2972 
Q 928 2841 928 2578 
Q 928 2378 1081 2264 
Q 1234 2150 1697 2047 
L 1894 2003 
Q 2506 1872 2764 1633 
Q 3022 1394 3022 966 
Q 3022 478 2636 193 
Q 2250 -91 1575 -91 
Q 1294 -91 989 -36 
Q 684 19 347 128 
L 347 722 
Q 666 556 975 473 
Q 1284 391 1588 391 
Q 1994 391 2212 530 
Q 2431 669 2431 922 
Q 2431 1156 2273 1281 
Q 2116 1406 1581 1522 
L 1381 1569 
Q 847 1681 609 1914 
Q 372 2147 372 2553 
Q 372 3047 722 3315 
Q 1072 3584 1716 3584 
Q 2034 3584 2315 3537 
Q 2597 3491 2834 3397 
z
" id="DejaVuSans-73" transform="scale(0.015625)"/>
       <path d="M 1625 4666 
L 2156 4666 
L 531 -594 
L 0 -594 
L 1625 4666 
z
" id="DejaVuSans-2f" transform="scale(0.015625)"/>
       <path d="M 2906 2969 
L 2906 4863 
L 3481 4863 
L 3481 0 
L 2906 0 
L 2906 525 
Q 2725 213 2448 61 
Q 2172 -91 1784 -91 
Q 1150 -91 751 415 
Q 353 922 353 1747 
Q 353 2572 751 3078 
Q 1150 3584 1784 3584 
Q 2172 3584 2448 3432 
Q 2725 3281 2906 2969 
z
M 947 1747 
Q 947 1113 1208 752 
Q 1469 391 1925 391 
Q 2381 391 2643 752 
Q 2906 1113 2906 1747 
Q 2906 2381 2643 2742 
Q 2381 3103 1925 3103 
Q 1469 3103 1208 2742 
Q 947 2381 947 1747 
z
" id="DejaVuSans-64" transform="scale(0.015625)"/>
       <path d="M 603 3500 
L 1178 3500 
L 1178 0 
L 603 0 
L 603 3500 
z
M 603 4863 
L 1178 4863 
L 1178 4134 
L 603 4134 
L 603 4863 
z
" id="DejaVuSans-69" transform="scale(0.015625)"/>
       <path d="M 3328 2828 
Q 3544 3216 3844 3400 
Q 4144 3584 4550 3584 
Q 5097 3584 5394 3201 
Q 5691 2819 5691 2113 
L 5691 0 
L 5113 0 
L 5113 2094 
Q 5113 2597 4934 2840 
Q 4756 3084 4391 3084 
Q 3944 3084 3684 2787 
Q 3425 2491 3425 1978 
L 3425 0 
L 2847 0 
L 2847 2094 
Q 2847 2600 2669 2842 
Q 2491 3084 2119 3084 
Q 1678 3084 1418 2786 
Q 1159 2488 1159 1978 
L 1159 0 
L 581 0 
L 581 3500 
L 1159 3500 
L 1159 2956 
Q 1356 3278 1631 3431 
Q 1906 3584 2284 3584 
Q 2666 3584 2933 3390 
Q 3200 3197 3328 2828 
z
" id="DejaVuSans-6d" transform="scale(0.015625)"/>
       <path d="M 3513 2113 
L 3513 0 
L 2938 0 
L 2938 2094 
Q 2938 2591 2744 2837 
Q 2550 3084 2163 3084 
Q 1697 3084 1428 2787 
Q 1159 2491 1159 1978 
L 1159 0 
L 581 0 
L 581 3500 
L 1159 3500 
L 1159 2956 
Q 1366 3272 1645 3428 
Q 1925 3584 2291 3584 
Q 2894 3584 3203 3211 
Q 3513 2838 3513 2113 
z
" id="DejaVuSans-6e" transform="scale(0.015625)"/>
       <path d="M 513 4856 
L 1013 4856 
Q 1481 4119 1714 3412 
Q 1947 2706 1947 2009 
Q 1947 1309 1714 600 
Q 1481 -109 1013 -844 
L 513 -844 
Q 928 -128 1133 580 
Q 1338 1288 1338 2009 
Q 1338 2731 1133 3434 
Q 928 4138 513 4856 
z
" id="DejaVuSans-29" transform="scale(0.015625)"/>
      </defs>
      <use xlink:href="#DejaVuSans-6c"/>
      <use x="27.783203" xlink:href="#DejaVuSans-6f"/>
      <use x="88.964844" xlink:href="#DejaVuSans-67"/>
      <use x="152.441406" xlink:href="#DejaVuSans-31"/>
      <use x="216.064453" xlink:href="#DejaVuSans-30"/>
      <use x="279.6875" xlink:href="#DejaVuSans-28"/>
      <use x="318.701172" xlink:href="#DejaVuSans-23"/>
      <use x="402.490234" xlink:href="#DejaVuSans-20"/>
      <use x="434.277344" xlink:href="#DejaVuSans-66"/>
      <use x="463.982422" xlink:href="#DejaVuSans-2d"/>
      <use x="500.066406" xlink:href="#DejaVuSans-65"/>
      <use x="561.589844" xlink:href="#DejaVuSans-76"/>
      <use x="620.769531" xlink:href="#DejaVuSans-61"/>
      <use x="682.048828" xlink:href="#DejaVuSans-6c"/>
      <use x="709.832031" xlink:href="#DejaVuSans-73"/>
      <use x="761.931641" xlink:href="#DejaVuSans-20"/>
      <use x="793.71875" xlink:href="#DejaVuSans-2f"/>
      <use x="827.410156" xlink:href="#DejaVuSans-20"/>
      <use x="859.197266" xlink:href="#DejaVuSans-64"/>
      <use x="922.673828" xlink:href="#DejaVuSans-69"/>
      <use x="950.457031" xlink:href="#DejaVuSans-6d"/>
      <use x="1047.869141" xlink:href="#DejaVuSans-65"/>
      <use x="1109.392578" xlink:href="#DejaVuSans-6e"/>
      <use x="1172.771484" xlink:href="#DejaVuSans-73"/>
      <use x="1224.871094" xlink:href="#DejaVuSans-69"/>
      <use x="1252.654297" xlink:href="#DejaVuSans-6f"/>
      <use x="1313.835938" xlink:href="#DejaVuSans-6e"/>
      <use x="1377.214844" xlink:href="#DejaVuSans-29"/>
     </g>
    </g>
   </g>
   <g id="matplotlib.axis_2">
    <g id="ytick_1">
     <g id="line2d_17">
      <path clip-path="url(#p9a6028ad4b)" d="M 57.6 298.944 
L 338.688 298.944 
" style="fill:none;stroke:#b0b0b0;stroke-linecap:square;stroke-width:0.8;"/>
     </g>
     <g id="line2d_18">
      <defs>
       <path d="M 0 0 
L -3.5 0 
" id="mdedf0cf42f" style="stroke:#000000;stroke-width:0.8;"/>
      </defs>
      <g>
       <use style="stroke:#000000;stroke-width:0.8;" x="57.6" xlink:href="#mdedf0cf42f" y="298.944"/>
      </g>
     </g>
     <g id="text_6">
      <!-- 0.0 -->
      <g transform="translate(25.155 305.02275)scale(0.16 -0.16)">
       <defs>
        <path d="M 684 794 
L 1344 794 
L 1344 0 
L 684 0 
L 684 794 
z
" id="DejaVuSans-2e" transform="scale(0.015625)"/>
       </defs>
       <use xlink:href="#DejaVuSans-30"/>
       <use x="63.623047" xlink:href="#DejaVuSans-2e"/>
       <use x="95.410156" xlink:href="#DejaVuSans-30"/>
      </g>
     </g>
    </g>
    <g id="ytick_2">
     <g id="line2d_19">
      <path clip-path="url(#p9a6028ad4b)" d="M 57.6 240.431525 
L 338.688 240.431525 
" style="fill:none;stroke:#b0b0b0;stroke-linecap:square;stroke-width:0.8;"/>
     </g>
     <g id="line2d_20">
      <g>
       <use style="stroke:#000000;stroke-width:0.8;" x="57.6" xlink:href="#mdedf0cf42f" y="240.431525"/>
      </g>
     </g>
     <g id="text_7">
      <!-- 0.2 -->
      <g transform="translate(25.155 246.510275)scale(0.16 -0.16)">
       <use xlink:href="#DejaVuSans-30"/>
       <use x="63.623047" xlink:href="#DejaVuSans-2e"/>
       <use x="95.410156" xlink:href="#DejaVuSans-32"/>
      </g>
     </g>
    </g>
    <g id="ytick_3">
     <g id="line2d_21">
      <path clip-path="url(#p9a6028ad4b)" d="M 57.6 181.91905 
L 338.688 181.91905 
" style="fill:none;stroke:#b0b0b0;stroke-linecap:square;stroke-width:0.8;"/>
     </g>
     <g id="line2d_22">
      <g>
       <use style="stroke:#000000;stroke-width:0.8;" x="57.6" xlink:href="#mdedf0cf42f" y="181.91905"/>
      </g>
     </g>
     <g id="text_8">
      <!-- 0.4 -->
      <g transform="translate(25.155 187.9978)scale(0.16 -0.16)">
       <use xlink:href="#DejaVuSans-30"/>
       <use x="63.623047" xlink:href="#DejaVuSans-2e"/>
       <use x="95.410156" xlink:href="#DejaVuSans-34"/>
      </g>
     </g>
    </g>
    <g id="ytick_4">
     <g id="line2d_23">
      <path clip-path="url(#p9a6028ad4b)" d="M 57.6 123.406574 
L 338.688 123.406574 
" style="fill:none;stroke:#b0b0b0;stroke-linecap:square;stroke-width:0.8;"/>
     </g>
     <g id="line2d_24">
      <g>
       <use style="stroke:#000000;stroke-width:0.8;" x="57.6" xlink:href="#mdedf0cf42f" y="123.406574"/>
      </g>
     </g>
     <g id="text_9">
      <!-- 0.6 -->
      <g transform="translate(25.155 129.485324)scale(0.16 -0.16)">
       <use xlink:href="#DejaVuSans-30"/>
       <use x="63.623047" xlink:href="#DejaVuSans-2e"/>
       <use x="95.410156" xlink:href="#DejaVuSans-36"/>
      </g>
     </g>
    </g>
    <g id="ytick_5">
     <g id="line2d_25">
      <path clip-path="url(#p9a6028ad4b)" d="M 57.6 64.894099 
L 338.688 64.894099 
" style="fill:none;stroke:#b0b0b0;stroke-linecap:square;stroke-width:0.8;"/>
     </g>
     <g id="line2d_26">
      <g>
       <use style="stroke:#000000;stroke-width:0.8;" x="57.6" xlink:href="#mdedf0cf42f" y="64.894099"/>
      </g>
     </g>
     <g id="text_10">
      <!-- 0.8 -->
      <g transform="translate(25.155 70.972849)scale(0.16 -0.16)">
       <defs>
        <path d="M 2034 2216 
Q 1584 2216 1326 1975 
Q 1069 1734 1069 1313 
Q 1069 891 1326 650 
Q 1584 409 2034 409 
Q 2484 409 2743 651 
Q 3003 894 3003 1313 
Q 3003 1734 2745 1975 
Q 2488 2216 2034 2216 
z
M 1403 2484 
Q 997 2584 770 2862 
Q 544 3141 544 3541 
Q 544 4100 942 4425 
Q 1341 4750 2034 4750 
Q 2731 4750 3128 4425 
Q 3525 4100 3525 3541 
Q 3525 3141 3298 2862 
Q 3072 2584 2669 2484 
Q 3125 2378 3379 2068 
Q 3634 1759 3634 1313 
Q 3634 634 3220 271 
Q 2806 -91 2034 -91 
Q 1263 -91 848 271 
Q 434 634 434 1313 
Q 434 1759 690 2068 
Q 947 2378 1403 2484 
z
M 1172 3481 
Q 1172 3119 1398 2916 
Q 1625 2713 2034 2713 
Q 2441 2713 2670 2916 
Q 2900 3119 2900 3481 
Q 2900 3844 2670 4047 
Q 2441 4250 2034 4250 
Q 1625 4250 1398 4047 
Q 1172 3844 1172 3481 
z
" id="DejaVuSans-38" transform="scale(0.015625)"/>
       </defs>
       <use xlink:href="#DejaVuSans-30"/>
       <use x="63.623047" xlink:href="#DejaVuSans-2e"/>
       <use x="95.410156" xlink:href="#DejaVuSans-38"/>
      </g>
     </g>
    </g>
    <g id="ytick_6">
     <g id="line2d_27">
      <path clip-path="url(#p9a6028ad4b)" d="M 57.6 6.381624 
L 338.688 6.381624 
" style="fill:none;stroke:#b0b0b0;stroke-linecap:square;stroke-width:0.8;"/>
     </g>
     <g id="line2d_28">
      <g>
       <use style="stroke:#000000;stroke-width:0.8;" x="57.6" xlink:href="#mdedf0cf42f" y="6.381624"/>
      </g>
     </g>
     <g id="text_11">
      <!-- 1.0 -->
      <g transform="translate(25.155 12.460374)scale(0.16 -0.16)">
       <use xlink:href="#DejaVuSans-31"/>
       <use x="63.623047" xlink:href="#DejaVuSans-2e"/>
       <use x="95.410156" xlink:href="#DejaVuSans-30"/>
      </g>
     </g>
    </g>
    <g id="text_12">
     <!-- Fraction of function,target pairs -->
     <g transform="translate(17.619531 285.585)rotate(-90)scale(0.17 -0.17)">
      <defs>
       <path d="M 628 4666 
L 3309 4666 
L 3309 4134 
L 1259 4134 
L 1259 2759 
L 3109 2759 
L 3109 2228 
L 1259 2228 
L 1259 0 
L 628 0 
L 628 4666 
z
" id="DejaVuSans-46" transform="scale(0.015625)"/>
       <path d="M 2631 2963 
Q 2534 3019 2420 3045 
Q 2306 3072 2169 3072 
Q 1681 3072 1420 2755 
Q 1159 2438 1159 1844 
L 1159 0 
L 581 0 
L 581 3500 
L 1159 3500 
L 1159 2956 
Q 1341 3275 1631 3429 
Q 1922 3584 2338 3584 
Q 2397 3584 2469 3576 
Q 2541 3569 2628 3553 
L 2631 2963 
z
" id="DejaVuSans-72" transform="scale(0.015625)"/>
       <path d="M 3122 3366 
L 3122 2828 
Q 2878 2963 2633 3030 
Q 2388 3097 2138 3097 
Q 1578 3097 1268 2742 
Q 959 2388 959 1747 
Q 959 1106 1268 751 
Q 1578 397 2138 397 
Q 2388 397 2633 464 
Q 2878 531 3122 666 
L 3122 134 
Q 2881 22 2623 -34 
Q 2366 -91 2075 -91 
Q 1284 -91 818 406 
Q 353 903 353 1747 
Q 353 2603 823 3093 
Q 1294 3584 2113 3584 
Q 2378 3584 2631 3529 
Q 2884 3475 3122 3366 
z
" id="DejaVuSans-63" transform="scale(0.015625)"/>
       <path d="M 1172 4494 
L 1172 3500 
L 2356 3500 
L 2356 3053 
L 1172 3053 
L 1172 1153 
Q 1172 725 1289 603 
Q 1406 481 1766 481 
L 2356 481 
L 2356 0 
L 1766 0 
Q 1100 0 847 248 
Q 594 497 594 1153 
L 594 3053 
L 172 3053 
L 172 3500 
L 594 3500 
L 594 4494 
L 1172 4494 
z
" id="DejaVuSans-74" transform="scale(0.015625)"/>
       <path d="M 544 1381 
L 544 3500 
L 1119 3500 
L 1119 1403 
Q 1119 906 1312 657 
Q 1506 409 1894 409 
Q 2359 409 2629 706 
Q 2900 1003 2900 1516 
L 2900 3500 
L 3475 3500 
L 3475 0 
L 2900 0 
L 2900 538 
Q 2691 219 2414 64 
Q 2138 -91 1772 -91 
Q 1169 -91 856 284 
Q 544 659 544 1381 
z
M 1991 3584 
L 1991 3584 
z
" id="DejaVuSans-75" transform="scale(0.015625)"/>
       <path d="M 750 794 
L 1409 794 
L 1409 256 
L 897 -744 
L 494 -744 
L 750 256 
L 750 794 
z
" id="DejaVuSans-2c" transform="scale(0.015625)"/>
       <path d="M 1159 525 
L 1159 -1331 
L 581 -1331 
L 581 3500 
L 1159 3500 
L 1159 2969 
Q 1341 3281 1617 3432 
Q 1894 3584 2278 3584 
Q 2916 3584 3314 3078 
Q 3713 2572 3713 1747 
Q 3713 922 3314 415 
Q 2916 -91 2278 -91 
Q 1894 -91 1617 61 
Q 1341 213 1159 525 
z
M 3116 1747 
Q 3116 2381 2855 2742 
Q 2594 3103 2138 3103 
Q 1681 3103 1420 2742 
Q 1159 2381 1159 1747 
Q 1159 1113 1420 752 
Q 1681 391 2138 391 
Q 2594 391 2855 752 
Q 3116 1113 3116 1747 
z
" id="DejaVuSans-70" transform="scale(0.015625)"/>
      </defs>
      <use xlink:href="#DejaVuSans-46"/>
      <use x="50.269531" xlink:href="#DejaVuSans-72"/>
      <use x="91.382812" xlink:href="#DejaVuSans-61"/>
      <use x="152.662109" xlink:href="#DejaVuSans-63"/>
      <use x="207.642578" xlink:href="#DejaVuSans-74"/>
      <use x="246.851562" xlink:href="#DejaVuSans-69"/>
      <use x="274.634766" xlink:href="#DejaVuSans-6f"/>
      <use x="335.816406" xlink:href="#DejaVuSans-6e"/>
      <use x="399.195312" xlink:href="#DejaVuSans-20"/>
      <use x="430.982422" xlink:href="#DejaVuSans-6f"/>
      <use x="492.164062" xlink:href="#DejaVuSans-66"/>
      <use x="527.369141" xlink:href="#DejaVuSans-20"/>
      <use x="559.15625" xlink:href="#DejaVuSans-66"/>
      <use x="594.361328" xlink:href="#DejaVuSans-75"/>
      <use x="657.740234" xlink:href="#DejaVuSans-6e"/>
      <use x="721.119141" xlink:href="#DejaVuSans-63"/>
      <use x="776.099609" xlink:href="#DejaVuSans-74"/>
      <use x="815.308594" xlink:href="#DejaVuSans-69"/>
      <use x="843.091797" xlink:href="#DejaVuSans-6f"/>
      <use x="904.273438" xlink:href="#DejaVuSans-6e"/>
      <use x="967.652344" xlink:href="#DejaVuSans-2c"/>
      <use x="999.439453" xlink:href="#DejaVuSans-74"/>
      <use x="1038.648438" xlink:href="#DejaVuSans-61"/>
      <use x="1099.927734" xlink:href="#DejaVuSans-72"/>
      <use x="1139.291016" xlink:href="#DejaVuSans-67"/>
      <use x="1202.767578" xlink:href="#DejaVuSans-65"/>
      <use x="1264.291016" xlink:href="#DejaVuSans-74"/>
      <use x="1303.5" xlink:href="#DejaVuSans-20"/>
      <use x="1335.287109" xlink:href="#DejaVuSans-70"/>
      <use x="1398.763672" xlink:href="#DejaVuSans-61"/>
      <use x="1460.042969" xlink:href="#DejaVuSans-69"/>
      <use x="1487.826172" xlink:href="#DejaVuSans-72"/>
      <use x="1528.939453" xlink:href="#DejaVuSans-73"/>
     </g>
    </g>
   </g>
   <g id="line2d_29">
    <defs>
     <path d="M 0 1.5 
C 0.397805 1.5 0.77937 1.341951 1.06066 1.06066 
C 1.341951 0.77937 1.5 0.397805 1.5 0 
C 1.5 -0.397805 1.341951 -0.77937 1.06066 -1.06066 
C 0.77937 -1.341951 0.397805 -1.5 0 -1.5 
C -0.397805 -1.5 -0.77937 -1.341951 -1.06066 -1.06066 
C -1.341951 -0.77937 -1.5 -0.397805 -1.5 0 
C -1.5 0.397805 -1.341951 0.77937 -1.06066 1.06066 
C -0.77937 1.341951 -0.397805 1.5 0 1.5 
z
" id="mabe9a65ceb" style="stroke:#000080;"/>
    </defs>
    <g>
     <use style="fill:#000080;stroke:#000080;" x="209.170277" xlink:href="#mabe9a65ceb" y="195.686691"/>
     <use style="fill:#000080;stroke:#000080;" x="209.170277" xlink:href="#mabe9a65ceb" y="195.686691"/>
    </g>
   </g>
   <g id="line2d_30">
    <path d="M 45.512012 298.944 
L 45.512012 288.044617 
L 64.67102 288.044617 
L 64.67102 273.129673 
L 69.687988 273.129673 
L 69.687988 270.261414 
L 73.579452 270.261414 
L 73.579452 264.524897 
L 76.759008 264.524897 
L 76.759008 261.082987 
L 79.447285 261.082987 
L 79.447285 260.509335 
L 85.66744 260.509335 
L 85.66744 256.493773 
L 87.329581 256.493773 
L 87.329581 255.920121 
L 93.863965 255.920121 
L 93.863965 254.199166 
L 94.921215 254.199166 
L 94.921215 253.051863 
L 99.41757 253.051863 
L 99.41757 251.330907 
L 100.192776 251.330907 
L 100.192776 248.462649 
L 100.934985 248.462649 
L 100.934985 247.888997 
L 110.694282 247.888997 
L 110.694282 247.315345 
L 111.104637 247.315345 
L 111.104637 246.741694 
L 121.264855 246.741694 
L 121.264855 246.168042 
L 122.782271 246.168042 
L 122.782271 245.59439 
L 134.12805 245.59439 
L 134.12805 245.020738 
L 134.766144 245.020738 
L 134.766144 241.578828 
L 135.780341 241.578828 
L 135.780341 240.431525 
L 137.735587 240.431525 
L 137.735587 239.857873 
L 148.258051 239.857873 
L 148.258051 239.284221 
L 148.40198 239.284221 
L 148.497276 238.136918 
L 148.54473 238.136918 
L 148.639252 235.842311 
L 148.686322 235.842311 
L 148.686322 235.268659 
L 156.114049 235.268659 
L 156.114049 234.695008 
L 156.297301 234.695008 
L 156.297301 234.121356 
L 161.397621 234.121356 
L 161.420284 232.974052 
L 161.510643 232.974052 
L 161.510643 232.400401 
L 162.086834 232.400401 
L 162.086834 231.826749 
L 162.68677 231.826749 
L 162.749842 230.679446 
L 165.500963 230.679446 
L 165.55465 228.384839 
L 166.391896 228.384839 
L 166.391896 227.811187 
L 168.731229 227.811187 
L 168.77585 226.090232 
L 171.633072 226.090232 
L 171.683438 224.942928 
L 172.179258 224.942928 
L 172.179258 224.369277 
L 173.855836 224.369277 
L 173.966492 222.648321 
L 173.988539 222.648321 
L 174.054514 220.927366 
L 176.03402 220.927366 
L 176.121974 218.632759 
L 176.564717 218.632759 
L 176.564717 218.059108 
L 177.908622 218.059108 
L 177.961335 216.338153 
L 179.593145 216.338153 
L 179.664896 214.617197 
L 181.187615 214.617197 
L 181.187615 214.043546 
L 182.53408 214.043546 
L 182.574526 212.322591 
L 183.89671 212.322591 
L 183.921659 210.601635 
L 184.236667 210.601635 
L 184.236667 210.027984 
L 185.143118 210.027984 
L 185.143118 209.454332 
L 185.425565 209.454332 
L 185.425565 208.88068 
L 186.262811 208.88068 
L 186.262811 208.307029 
L 187.335442 208.307029 
L 187.335442 207.733377 
L 190.162992 207.733377 
L 190.219549 206.012422 
L 191.930979 206.012422 
L 191.930979 205.43877 
L 194.10493 205.43877 
L 194.136187 204.291467 
L 194.816697 204.291467 
L 194.826706 203.144163 
L 195.545414 203.144163 
L 195.545414 202.570511 
L 196.102889 202.570511 
L 196.102889 201.99686 
L 197.274636 201.99686 
L 197.274636 201.423208 
L 198.921752 201.423208 
L 198.990182 200.275904 
L 199.51798 200.275904 
L 199.51798 199.702253 
L 199.970778 199.702253 
L 199.970778 199.128601 
L 201.896614 199.128601 
L 201.896614 198.554949 
L 203.227555 198.554949 
L 203.227555 197.981298 
L 203.997297 197.981298 
L 203.997297 197.407646 
L 206.243249 197.407646 
L 206.26057 196.260342 
L 209.170277 196.260342 
L 209.170277 195.686691 
L 338.688 195.686691 
L 338.688 195.686691 
" style="fill:none;stroke:#000080;stroke-linecap:square;stroke-width:1.5;"/>
   </g>
   <g id="line2d_31">
    <defs>
     <path d="M 0 6 
C 1.591219 6 3.117479 5.367802 4.242641 4.242641 
C 5.367802 3.117479 6 1.591219 6 0 
C 6 -1.591219 5.367802 -3.117479 4.242641 -4.242641 
C 3.117479 -5.367802 1.591219 -6 0 -6 
C -1.591219 -6 -3.117479 -5.367802 -4.242641 -4.242641 
C -5.367802 -3.117479 -6 -1.591219 -6 0 
C -6 1.591219 -5.367802 3.117479 -4.242641 4.242641 
C -3.117479 5.367802 -1.591219 6 0 6 
z
" id="m2d42207e89" style="stroke:#000080;stroke-width:1.5;"/>
    </defs>
    <g>
     <use style="fill-opacity:0;stroke:#000080;stroke-width:1.5;" x="94.921215" xlink:href="#m2d42207e89" y="253.051863"/>
     <use style="fill-opacity:0;stroke:#000080;stroke-width:1.5;" x="156.297301" xlink:href="#m2d42207e89" y="234.121356"/>
     <use style="fill-opacity:0;stroke:#000080;stroke-width:1.5;" x="190.219549" xlink:href="#m2d42207e89" y="206.012422"/>
     <use style="fill-opacity:0;stroke:#000080;stroke-width:1.5;" x="209.170277" xlink:href="#m2d42207e89" y="195.686691"/>
     <use style="fill-opacity:0;stroke:#000080;stroke-width:1.5;" x="209.170277" xlink:href="#m2d42207e89" y="195.686691"/>
     <use style="fill-opacity:0;stroke:#000080;stroke-width:1.5;" x="338.688" xlink:href="#m2d42207e89" y="195.686691"/>
    </g>
   </g>
   <g id="line2d_32">
    <path style="fill:none;stroke:#000080;stroke-linecap:square;stroke-width:1.5;"/>
    <g/>
   </g>
   <g id="line2d_33">
    <path clip-path="url(#p9a6028ad4b)" d="M 137.997836 239.857873 
" style="fill:none;stroke:#000080;stroke-linecap:square;stroke-width:1.5;"/>
    <defs>
     <path d="M -12 12 
L 12 -12 
M -12 -12 
L 12 12 
" id="m893fc42e29" style="stroke:#000080;"/>
    </defs>
    <g clip-path="url(#p9a6028ad4b)">
     <use style="fill:#000080;stroke:#000080;" x="137.997836" xlink:href="#m893fc42e29" y="239.857873"/>
    </g>
   </g>
   <g id="line2d_34">
    <defs>
     <path d="M 0 1.5 
C 0.397805 1.5 0.77937 1.341951 1.06066 1.06066 
C 1.341951 0.77937 1.5 0.397805 1.5 0 
C 1.5 -0.397805 1.341951 -0.77937 1.06066 -1.06066 
C 0.77937 -1.341951 0.397805 -1.5 0 -1.5 
C -0.397805 -1.5 -0.77937 -1.341951 -1.06066 -1.06066 
C -1.341951 -0.77937 -1.5 -0.397805 -1.5 0 
C -1.5 0.397805 -1.341951 0.77937 -1.06066 1.06066 
C -0.77937 1.341951 -0.397805 1.5 0 1.5 
z
" id="mb99efab75c" style="stroke:#ff00ff;"/>
    </defs>
    <g>
     <use style="fill:#ff00ff;stroke:#ff00ff;" x="211.797325" xlink:href="#mb99efab75c" y="149.794553"/>
     <use style="fill:#ff00ff;stroke:#ff00ff;" x="211.797325" xlink:href="#mb99efab75c" y="149.794553"/>
    </g>
   </g>
   <g id="line2d_35">
    <path d="M 45.512012 298.944 
L 45.512012 266.245852 
L 57.6 266.245852 
L 57.6 263.951245 
L 64.67102 263.951245 
L 64.67102 255.920121 
L 69.687988 255.920121 
L 69.687988 254.199166 
L 73.579452 254.199166 
L 73.579452 253.051863 
L 76.759008 253.051863 
L 76.759008 250.757256 
L 79.447285 250.757256 
L 79.447285 250.183604 
L 87.329581 250.183604 
L 87.329581 248.462649 
L 91.535274 248.462649 
L 91.535274 245.59439 
L 92.73846 245.59439 
L 92.73846 243.873435 
L 93.863965 243.873435 
L 93.863965 243.299783 
L 95.918017 243.299783 
L 95.918017 242.726132 
L 97.755429 242.726132 
L 97.755429 242.15248 
L 100.192776 242.15248 
L 100.192776 241.005176 
L 102.989037 241.005176 
L 102.989037 238.71057 
L 104.23523 238.71057 
L 104.23523 237.563266 
L 105.398279 237.563266 
L 105.398279 236.415963 
L 105.951954 236.415963 
L 105.951954 235.842311 
L 106.48859 235.842311 
L 106.48859 231.826749 
L 108.006005 231.826749 
L 108.006005 231.253097 
L 109.401893 231.253097 
L 109.401893 230.679446 
L 110.274038 230.679446 
L 110.274038 230.105794 
L 111.897469 230.105794 
L 111.897469 229.532142 
L 112.280765 229.532142 
L 112.280765 227.811187 
L 113.73488 227.811187 
L 113.73488 224.369277 
L 114.751048 224.369277 
L 114.751048 223.795625 
L 116.019919 223.795625 
L 116.019919 221.501018 
L 116.323218 221.501018 
L 116.323218 220.353715 
L 117.202696 220.353715 
L 117.202696 212.322591 
L 118.576578 212.322591 
L 118.576578 211.175287 
L 125.291682 211.175287 
L 125.291682 210.027984 
L 128.560901 210.027984 
L 128.560901 207.159725 
L 128.856489 207.159725 
L 128.856489 204.291467 
L 130.531948 204.291467 
L 130.531948 202.570511 
L 131.439773 202.570511 
L 131.439773 201.99686 
L 135.280614 201.99686 
L 135.381712 198.554949 
L 137.735587 198.554949 
L 137.735587 197.407646 
L 139.090775 197.407646 
L 139.090775 196.833994 
L 140.348205 196.833994 
L 140.423864 195.686691 
L 140.871049 195.686691 
L 140.944478 194.539387 
L 141.871938 194.539387 
L 141.871938 193.392084 
L 142.553247 193.392084 
L 142.619936 192.24478 
L 142.818488 192.24478 
L 142.884173 190.523825 
L 146.052799 190.523825 
L 146.161795 189.376522 
L 146.270114 189.376522 
L 146.270114 188.229218 
L 148.87334 188.229218 
L 148.919783 185.36096 
L 151.421542 185.36096 
L 151.461678 184.213656 
L 151.700576 184.213656 
L 151.700576 183.640005 
L 152.245598 183.640005 
L 152.322086 182.492701 
L 152.549559 182.492701 
L 152.549559 181.91905 
L 152.774102 181.91905 
L 152.811246 180.771746 
L 154.063835 180.771746 
L 154.098334 179.624443 
L 154.641235 179.624443 
L 154.641235 179.050791 
L 154.840544 179.050791 
L 154.840544 177.903487 
L 155.070227 177.903487 
L 155.070227 177.329836 
L 155.232454 177.329836 
L 155.232454 176.756184 
L 155.457066 176.756184 
L 155.457066 176.182532 
L 156.508689 176.182532 
L 156.508689 175.608881 
L 158.75841 175.608881 
L 158.75841 175.035229 
L 158.994256 175.035229 
L 159.046236 173.887925 
L 159.882266 173.887925 
L 159.882266 173.314274 
L 160.297798 173.314274 
L 160.297798 172.740622 
L 163.569701 172.740622 
L 163.569701 171.593319 
L 164.675172 171.593319 
L 164.675172 171.019667 
L 166.994465 171.019667 
L 167.0929 169.872363 
L 167.125588 169.872363 
L 167.125588 169.298712 
L 167.271933 169.298712 
L 167.271933 168.72506 
L 170.256089 168.72506 
L 170.351349 166.430453 
L 172.744386 166.430453 
L 172.803442 165.28315 
L 175.036065 165.28315 
L 175.077514 163.562195 
L 177.033543 163.562195 
L 177.033543 162.988543 
L 178.833909 162.988543 
L 178.833909 162.414891 
L 180.473278 162.414891 
L 180.473278 161.841239 
L 181.887852 161.841239 
L 181.887852 161.267588 
L 182.364534 161.267588 
L 182.364534 160.693936 
L 183.267569 160.693936 
L 183.286971 158.399329 
L 184.491881 158.399329 
L 184.582131 156.678374 
L 185.714761 156.678374 
L 185.714761 156.104722 
L 186.794161 156.104722 
L 186.846944 154.957419 
L 187.820599 154.957419 
L 187.865398 153.810115 
L 193.051808 153.810115 
L 193.051808 153.236464 
L 194.449115 153.236464 
L 194.476359 152.08916 
L 195.150521 152.08916 
L 195.150521 151.515508 
L 199.776007 151.515508 
L 199.776007 150.941857 
L 206.472229 150.941857 
L 206.472229 150.368205 
L 211.797325 150.368205 
L 211.797325 149.794553 
L 338.688 149.794553 
L 338.688 149.794553 
" style="fill:none;stroke:#ff00ff;stroke-linecap:square;stroke-width:1.5;"/>
   </g>
   <g id="line2d_36">
    <defs>
     <path d="M 0 8.485281 
L 5.091169 0 
L 0 -8.485281 
L -5.091169 0 
z
" id="m62dee07396" style="stroke:#ff00ff;stroke-linejoin:miter;stroke-width:1.5;"/>
    </defs>
    <g>
     <use style="fill-opacity:0;stroke:#ff00ff;stroke-linejoin:miter;stroke-width:1.5;" x="100.192776" xlink:href="#m62dee07396" y="242.15248"/>
     <use style="fill-opacity:0;stroke:#ff00ff;stroke-linejoin:miter;stroke-width:1.5;" x="148.919783" xlink:href="#m62dee07396" y="185.36096"/>
     <use style="fill-opacity:0;stroke:#ff00ff;stroke-linejoin:miter;stroke-width:1.5;" x="199.776007" xlink:href="#m62dee07396" y="150.941857"/>
     <use style="fill-opacity:0;stroke:#ff00ff;stroke-linejoin:miter;stroke-width:1.5;" x="211.797325" xlink:href="#m62dee07396" y="149.794553"/>
     <use style="fill-opacity:0;stroke:#ff00ff;stroke-linejoin:miter;stroke-width:1.5;" x="211.797325" xlink:href="#m62dee07396" y="149.794553"/>
     <use style="fill-opacity:0;stroke:#ff00ff;stroke-linejoin:miter;stroke-width:1.5;" x="338.688" xlink:href="#m62dee07396" y="149.794553"/>
    </g>
   </g>
   <g id="line2d_37">
    <path style="fill:none;stroke:#ff00ff;stroke-linecap:square;stroke-width:1.5;"/>
    <g/>
   </g>
   <g id="line2d_38">
    <path clip-path="url(#p9a6028ad4b)" d="M 138.170504 197.407646 
" style="fill:none;stroke:#ff00ff;stroke-linecap:square;stroke-width:1.5;"/>
    <defs>
     <path d="M -12 12 
L 12 -12 
M -12 -12 
L 12 12 
" id="m1501e53dcd" style="stroke:#ff00ff;"/>
    </defs>
    <g clip-path="url(#p9a6028ad4b)">
     <use style="fill:#ff00ff;stroke:#ff00ff;" x="138.170504" xlink:href="#m1501e53dcd" y="197.407646"/>
    </g>
   </g>
   <g id="line2d_39">
    <defs>
     <path d="M 0 1.5 
C 0.397805 1.5 0.77937 1.341951 1.06066 1.06066 
C 1.341951 0.77937 1.5 0.397805 1.5 0 
C 1.5 -0.397805 1.341951 -0.77937 1.06066 -1.06066 
C 0.77937 -1.341951 0.397805 -1.5 0 -1.5 
C -0.397805 -1.5 -0.77937 -1.341951 -1.06066 -1.06066 
C -1.341951 -0.77937 -1.5 -0.397805 -1.5 0 
C -1.5 0.397805 -1.341951 0.77937 -1.06066 1.06066 
C -0.77937 1.341951 -0.397805 1.5 0 1.5 
z
" id="m9af2432a24" style="stroke:#ff7500;"/>
    </defs>
    <g>
     <use style="fill:#ff7500;stroke:#ff7500;" x="210.467376" xlink:href="#m9af2432a24" y="121.111967"/>
     <use style="fill:#ff7500;stroke:#ff7500;" x="210.467376" xlink:href="#m9af2432a24" y="121.111967"/>
    </g>
   </g>
   <g id="line2d_40">
    <path d="M 45.512012 298.944 
L 45.512012 274.850628 
L 57.6 274.850628 
L 57.6 266.819504 
L 64.67102 266.819504 
L 64.67102 265.098549 
L 79.447285 265.098549 
L 79.447285 263.951245 
L 81.775977 263.951245 
L 81.775977 262.23029 
L 83.830028 262.23029 
L 83.830028 257.067425 
L 85.66744 257.067425 
L 85.66744 251.904559 
L 87.329581 251.904559 
L 87.329581 249.609952 
L 90.242884 249.609952 
L 90.242884 247.888997 
L 95.918017 247.888997 
L 95.918017 244.447087 
L 99.41757 244.447087 
L 99.41757 243.299783 
L 100.192776 243.299783 
L 100.192776 238.136918 
L 101.646892 238.136918 
L 101.646892 234.695008 
L 102.989037 234.695008 
L 102.989037 229.532142 
L 106.48859 229.532142 
L 106.48859 227.811187 
L 107.009204 227.811187 
L 107.009204 226.663884 
L 107.514726 226.663884 
L 107.514726 226.090232 
L 108.948899 226.090232 
L 108.948899 225.51658 
L 115.397021 225.51658 
L 115.397021 224.942928 
L 119.351785 224.942928 
L 119.351785 223.221973 
L 122.148045 223.221973 
L 122.148045 222.07467 
L 123.593547 222.07467 
L 123.593547 214.617197 
L 123.985457 214.617197 
L 123.985457 214.043546 
L 125.110962 214.043546 
L 125.110962 212.896242 
L 126.338353 212.896242 
L 126.338353 211.748939 
L 126.50685 211.748939 
L 126.50685 208.88068 
L 127.165014 208.88068 
L 127.165014 204.291467 
L 127.954256 204.291467 
L 127.954256 203.717815 
L 129.290685 203.717815 
L 129.290685 201.99686 
L 130.926816 201.99686 
L 130.926816 197.981298 
L 131.565689 197.981298 
L 131.565689 193.965736 
L 131.938072 193.965736 
L 131.938072 193.392084 
L 134.766144 193.392084 
L 134.766144 191.671129 
L 135.280614 191.671129 
L 135.280614 188.80287 
L 136.645276 188.80287 
L 136.645276 188.229218 
L 139.964909 188.229218 
L 140.042245 185.934612 
L 140.79731 185.934612 
L 140.871049 184.787308 
L 143.273169 184.787308 
L 143.273169 184.213656 
L 144.269971 184.213656 
L 144.269971 182.492701 
L 144.390658 182.492701 
L 144.45069 180.771746 
L 144.510517 180.771746 
L 144.510517 179.624443 
L 145.155404 179.624443 
L 145.155404 179.050791 
L 145.384119 179.050791 
L 145.384119 178.477139 
L 145.609873 178.477139 
L 145.609873 177.903487 
L 146.216039 177.903487 
L 146.216039 176.756184 
L 146.377764 176.756184 
L 146.377764 175.035229 
L 147.010073 175.035229 
L 147.010073 174.461577 
L 147.266916 174.461577 
L 147.317833 173.314274 
L 148.733265 173.314274 
L 148.826773 171.593319 
L 148.87334 171.593319 
L 148.919783 169.872363 
L 150.429467 169.872363 
L 150.429467 169.298712 
L 151.260066 169.298712 
L 151.300575 167.004105 
L 151.461678 167.004105 
L 151.461678 166.430453 
L 153.573542 166.430453 
L 153.679772 164.135846 
L 153.715038 164.135846 
L 153.750233 162.988543 
L 153.925152 162.988543 
L 153.925152 162.414891 
L 154.098334 162.414891 
L 154.167129 161.267588 
L 154.873541 161.267588 
L 154.873541 160.693936 
L 155.296925 160.693936 
L 155.296925 160.120284 
L 156.266892 160.120284 
L 156.266892 159.546632 
L 156.38821 159.546632 
L 156.38821 158.972981 
L 157.920731 158.972981 
L 158.003578 157.252026 
L 159.557689 157.252026 
L 159.633129 155.53107 
L 159.882266 155.53107 
L 159.882266 154.957419 
L 161.667653 154.957419 
L 161.667653 154.383767 
L 164.004716 154.383767 
L 164.004716 153.810115 
L 164.140886 153.810115 
L 164.160252 152.662812 
L 164.486229 152.662812 
L 164.486229 152.08916 
L 167.624577 152.08916 
L 167.624577 150.368205 
L 167.892273 150.368205 
L 167.892273 149.794553 
L 168.820356 149.794553 
L 168.820356 149.220902 
L 168.9532 149.220902 
L 168.967898 148.073598 
L 170.459584 148.073598 
L 170.567151 146.352643 
L 170.607318 146.352643 
L 170.607318 145.778991 
L 171.557249 145.778991 
L 171.557249 145.20534 
L 173.072554 145.20534 
L 173.176739 143.484384 
L 174.065485 143.484384 
L 174.065485 142.910733 
L 175.273058 142.910733 
L 175.303734 141.189778 
L 176.199784 141.189778 
L 176.199784 140.616126 
L 177.996389 140.616126 
L 177.996389 140.042474 
L 178.942047 140.042474 
L 178.942047 139.468822 
L 179.641012 139.468822 
L 179.641012 138.895171 
L 180.58684 138.895171 
L 180.58684 138.321519 
L 181.231304 138.321519 
L 181.231304 137.747867 
L 182.027367 137.747867 
L 182.075935 135.45326 
L 182.581258 135.45326 
L 182.581258 134.879609 
L 183.940347 134.879609 
L 183.97145 133.732305 
L 184.5521 133.732305 
L 184.653996 132.585002 
L 187.994175 132.585002 
L 187.994175 132.01135 
L 190.249927 132.01135 
L 190.249927 131.437698 
L 190.737353 131.437698 
L 190.737353 130.864047 
L 191.532713 130.864047 
L 191.540769 129.716743 
L 192.304942 129.716743 
L 192.331899 127.995788 
L 193.037032 127.995788 
L 193.037032 127.422136 
L 193.842259 127.422136 
L 193.842259 126.848485 
L 195.212612 126.848485 
L 195.212612 126.274833 
L 197.099863 126.274833 
L 197.099863 125.701181 
L 198.244204 125.701181 
L 198.244204 125.127529 
L 199.798592 125.127529 
L 199.798592 124.553878 
L 201.297189 124.553878 
L 201.297189 123.980226 
L 202.17893 123.980226 
L 202.17893 123.406574 
L 202.984835 123.406574 
L 202.984835 122.832923 
L 208.406522 122.832923 
L 208.406522 122.259271 
L 209.875266 122.259271 
L 209.875266 121.685619 
L 210.467376 121.685619 
L 210.467376 121.111967 
L 338.688 121.111967 
L 338.688 121.111967 
" style="fill:none;stroke:#ff7500;stroke-linecap:square;stroke-width:1.5;"/>
   </g>
   <g id="line2d_41">
    <defs>
     <path d="M 0 -6 
L -1.347084 -1.854102 
L -5.706339 -1.854102 
L -2.179628 0.708204 
L -3.526712 4.854102 
L -0 2.291796 
L 3.526712 4.854102 
L 2.179628 0.708204 
L 5.706339 -1.854102 
L 1.347084 -1.854102 
z
" id="m0b152955fc" style="stroke:#ff7500;stroke-linejoin:bevel;stroke-width:1.5;"/>
    </defs>
    <g>
     <use style="fill-opacity:0;stroke:#ff7500;stroke-linejoin:bevel;stroke-width:1.5;" x="108.948899" xlink:href="#m0b152955fc" y="225.51658"/>
     <use style="fill-opacity:0;stroke:#ff7500;stroke-linejoin:bevel;stroke-width:1.5;" x="161.667653" xlink:href="#m0b152955fc" y="154.957419"/>
     <use style="fill-opacity:0;stroke:#ff7500;stroke-linejoin:bevel;stroke-width:1.5;" x="210.467376" xlink:href="#m0b152955fc" y="121.685619"/>
     <use style="fill-opacity:0;stroke:#ff7500;stroke-linejoin:bevel;stroke-width:1.5;" x="210.467376" xlink:href="#m0b152955fc" y="121.111967"/>
     <use style="fill-opacity:0;stroke:#ff7500;stroke-linejoin:bevel;stroke-width:1.5;" x="210.467376" xlink:href="#m0b152955fc" y="121.111967"/>
     <use style="fill-opacity:0;stroke:#ff7500;stroke-linejoin:bevel;stroke-width:1.5;" x="338.688" xlink:href="#m0b152955fc" y="121.111967"/>
    </g>
   </g>
   <g id="line2d_42">
    <path style="fill:none;stroke:#ff7500;stroke-linecap:square;stroke-width:1.5;"/>
    <g/>
   </g>
   <g id="line2d_43">
    <path clip-path="url(#p9a6028ad4b)" d="M 138.170504 188.229218 
" style="fill:none;stroke:#ff7500;stroke-linecap:square;stroke-width:1.5;"/>
    <defs>
     <path d="M -12 12 
L 12 -12 
M -12 -12 
L 12 12 
" id="m9f2ceae249" style="stroke:#ff7500;"/>
    </defs>
    <g clip-path="url(#p9a6028ad4b)">
     <use style="fill:#ff7500;stroke:#ff7500;" x="138.170504" xlink:href="#m9f2ceae249" y="188.229218"/>
    </g>
   </g>
   <g id="line2d_44">
    <defs>
     <path d="M 0 1.5 
C 0.397805 1.5 0.77937 1.341951 1.06066 1.06066 
C 1.341951 0.77937 1.5 0.397805 1.5 0 
C 1.5 -0.397805 1.341951 -0.77937 1.06066 -1.06066 
C 0.77937 -1.341951 0.397805 -1.5 0 -1.5 
C -0.397805 -1.5 -0.77937 -1.341951 -1.06066 -1.06066 
C -1.341951 -0.77937 -1.5 -0.397805 -1.5 0 
C -1.5 0.397805 -1.341951 0.77937 -1.06066 1.06066 
C -0.77937 1.341951 -0.397805 1.5 0 1.5 
z
" id="m6a08dee5a6" style="stroke:#6495ed;"/>
    </defs>
    <g>
     <use style="fill:#6495ed;stroke:#6495ed;" x="205.983099" xlink:href="#m6a08dee5a6" y="235.842311"/>
     <use style="fill:#6495ed;stroke:#6495ed;" x="205.983099" xlink:href="#m6a08dee5a6" y="235.842311"/>
    </g>
   </g>
   <g id="line2d_45">
    <path d="M 45.512012 298.944 
L 45.512012 283.455404 
L 57.6 283.455404 
L 57.6 278.86619 
L 64.67102 278.86619 
L 64.67102 275.42428 
L 69.687988 275.42428 
L 69.687988 274.850628 
L 79.447285 274.850628 
L 79.447285 271.982369 
L 81.775977 271.982369 
L 81.775977 268.540459 
L 85.66744 268.540459 
L 85.66744 265.6722 
L 90.242884 265.6722 
L 90.242884 265.098549 
L 91.535274 265.098549 
L 91.535274 263.951245 
L 92.73846 263.951245 
L 92.73846 262.803942 
L 96.86091 262.803942 
L 96.86091 260.509335 
L 100.192776 260.509335 
L 100.192776 259.362031 
L 101.646892 259.362031 
L 101.646892 258.78838 
L 103.623262 258.78838 
L 103.623262 258.214728 
L 107.009204 258.214728 
L 107.009204 256.493773 
L 108.006005 256.493773 
L 108.006005 255.346469 
L 111.104637 255.346469 
L 111.104637 254.772818 
L 112.280765 254.772818 
L 112.280765 254.199166 
L 117.486268 254.199166 
L 117.486268 253.051863 
L 124.178158 253.051863 
L 124.178158 252.478211 
L 124.92835 252.478211 
L 124.92835 251.904559 
L 125.647598 251.904559 
L 125.647598 251.330907 
L 137.37967 251.330907 
L 137.37967 250.757256 
L 137.647286 250.757256 
L 137.647286 249.609952 
L 138.927025 249.609952 
L 138.927025 249.036301 
L 140.871049 249.036301 
L 140.871049 248.462649 
L 141.017599 248.462649 
L 141.017599 247.888997 
L 142.752555 247.888997 
L 142.752555 247.315345 
L 144.923649 247.315345 
L 144.923649 246.741694 
L 150.556607 246.741694 
L 150.556607 246.168042 
L 150.640855 246.168042 
L 150.640855 245.59439 
L 157.472107 245.59439 
L 157.472107 245.020738 
L 157.500487 245.020738 
L 157.500487 244.447087 
L 158.276927 244.447087 
L 158.276927 243.873435 
L 162.453536 243.873435 
L 162.453536 242.726132 
L 163.709295 242.726132 
L 163.709295 242.15248 
L 166.272273 242.15248 
L 166.272273 241.578828 
L 169.841835 241.578828 
L 169.841835 241.005176 
L 172.154799 241.005176 
L 172.154799 240.431525 
L 172.744386 240.431525 
L 172.744386 239.857873 
L 174.573514 239.857873 
L 174.573514 239.284221 
L 176.478973 239.284221 
L 176.478973 238.71057 
L 185.396952 238.71057 
L 185.396952 238.136918 
L 187.710604 238.136918 
L 187.710604 237.563266 
L 192.052617 237.563266 
L 192.052617 236.989614 
L 204.117129 236.989614 
L 204.117129 236.415963 
L 205.983099 236.415963 
L 205.983099 235.842311 
L 338.688 235.842311 
" style="fill:none;stroke:#6495ed;stroke-linecap:square;stroke-width:1.5;"/>
   </g>
   <g id="line2d_46">
    <defs>
     <path d="M -0 6 
L 6 -6 
L -6 -6 
z
" id="m053edf112b" style="stroke:#6495ed;stroke-linejoin:miter;stroke-width:1.5;"/>
    </defs>
    <g>
     <use style="fill-opacity:0;stroke:#6495ed;stroke-linejoin:miter;stroke-width:1.5;" x="79.447285" xlink:href="#m053edf112b" y="271.982369"/>
     <use style="fill-opacity:0;stroke:#6495ed;stroke-linejoin:miter;stroke-width:1.5;" x="138.927025" xlink:href="#m053edf112b" y="249.036301"/>
     <use style="fill-opacity:0;stroke:#6495ed;stroke-linejoin:miter;stroke-width:1.5;" x="192.052617" xlink:href="#m053edf112b" y="236.989614"/>
     <use style="fill-opacity:0;stroke:#6495ed;stroke-linejoin:miter;stroke-width:1.5;" x="205.983099" xlink:href="#m053edf112b" y="235.842311"/>
     <use style="fill-opacity:0;stroke:#6495ed;stroke-linejoin:miter;stroke-width:1.5;" x="205.983099" xlink:href="#m053edf112b" y="235.842311"/>
     <use style="fill-opacity:0;stroke:#6495ed;stroke-linejoin:miter;stroke-width:1.5;" x="338.688" xlink:href="#m053edf112b" y="235.842311"/>
    </g>
   </g>
   <g id="line2d_47">
    <path style="fill:none;stroke:#6495ed;stroke-linecap:square;stroke-width:1.5;"/>
    <g/>
   </g>
   <g id="line2d_48">
    <path clip-path="url(#p9a6028ad4b)" d="M 138.084384 249.609952 
" style="fill:none;stroke:#6495ed;stroke-linecap:square;stroke-width:1.5;"/>
    <defs>
     <path d="M -12 12 
L 12 -12 
M -12 -12 
L 12 12 
" id="m519744dd98" style="stroke:#6495ed;"/>
    </defs>
    <g clip-path="url(#p9a6028ad4b)">
     <use style="fill:#6495ed;stroke:#6495ed;" x="138.084384" xlink:href="#m519744dd98" y="249.609952"/>
    </g>
   </g>
   <g id="line2d_49">
    <defs>
     <path d="M 0 1.5 
C 0.397805 1.5 0.77937 1.341951 1.06066 1.06066 
C 1.341951 0.77937 1.5 0.397805 1.5 0 
C 1.5 -0.397805 1.341951 -0.77937 1.06066 -1.06066 
C 0.77937 -1.341951 0.397805 -1.5 0 -1.5 
C -0.397805 -1.5 -0.77937 -1.341951 -1.06066 -1.06066 
C -1.341951 -0.77937 -1.5 -0.397805 -1.5 0 
C -1.5 0.397805 -1.341951 0.77937 -1.06066 1.06066 
C -0.77937 1.341951 -0.397805 1.5 0 1.5 
z
" id="m77497d4596" style="stroke:#ff0000;"/>
    </defs>
    <g>
     <use style="fill:#ff0000;stroke:#ff0000;" x="170.486538" xlink:href="#m77497d4596" y="253.051863"/>
     <use style="fill:#ff0000;stroke:#ff0000;" x="170.486538" xlink:href="#m77497d4596" y="253.051863"/>
    </g>
   </g>
   <g id="line2d_50">
    <path d="M 45.512012 298.944 
L 45.512012 281.160797 
L 57.6 281.160797 
L 57.6 280.587145 
L 64.67102 280.587145 
L 64.67102 277.718886 
L 69.687988 277.718886 
L 69.687988 275.42428 
L 73.579452 275.42428 
L 73.579452 274.850628 
L 76.759008 274.850628 
L 76.759008 271.982369 
L 87.329581 271.982369 
L 87.329581 270.261414 
L 91.535274 270.261414 
L 91.535274 269.687762 
L 93.863965 269.687762 
L 93.863965 268.540459 
L 97.755429 268.540459 
L 97.755429 266.819504 
L 99.41757 266.819504 
L 99.41757 266.245852 
L 100.934985 266.245852 
L 100.934985 265.6722 
L 108.006005 265.6722 
L 108.006005 264.524897 
L 112.280765 264.524897 
L 112.280765 263.951245 
L 112.655818 263.951245 
L 112.655818 263.377593 
L 118.576578 263.377593 
L 118.576578 262.803942 
L 121.264855 262.803942 
L 121.264855 262.23029 
L 122.362027 262.23029 
L 122.362027 261.082987 
L 122.988655 261.082987 
L 122.988655 258.78838 
L 128.107907 258.78838 
L 128.107907 258.214728 
L 129.574256 258.214728 
L 129.574256 257.641076 
L 130.127931 257.641076 
L 130.127931 257.067425 
L 136.924311 257.067425 
L 136.924311 256.493773 
L 146.591092 256.493773 
L 146.591092 255.920121 
L 146.696785 255.920121 
L 146.696785 255.346469 
L 147.061745 255.346469 
L 147.061745 254.772818 
L 149.690956 254.772818 
L 149.690956 254.199166 
L 154.972161 254.199166 
L 154.972161 253.625514 
L 170.486538 253.625514 
L 170.486538 253.051863 
L 338.688 253.051863 
" style="fill:none;stroke:#ff0000;stroke-linecap:square;stroke-width:1.5;"/>
   </g>
   <g id="line2d_51">
    <defs>
     <path d="M 0 -6 
L -5.196152 -3 
L -5.196152 3 
L -0 6 
L 5.196152 3 
L 5.196152 -3 
z
" id="m34e85bba9d" style="stroke:#ff0000;stroke-linejoin:miter;stroke-width:1.5;"/>
    </defs>
    <g>
     <use style="fill-opacity:0;stroke:#ff0000;stroke-linejoin:miter;stroke-width:1.5;" x="112.655818" xlink:href="#m34e85bba9d" y="263.377593"/>
     <use style="fill-opacity:0;stroke:#ff0000;stroke-linejoin:miter;stroke-width:1.5;" x="170.486538" xlink:href="#m34e85bba9d" y="253.625514"/>
     <use style="fill-opacity:0;stroke:#ff0000;stroke-linejoin:miter;stroke-width:1.5;" x="170.486538" xlink:href="#m34e85bba9d" y="253.051863"/>
     <use style="fill-opacity:0;stroke:#ff0000;stroke-linejoin:miter;stroke-width:1.5;" x="170.486538" xlink:href="#m34e85bba9d" y="253.051863"/>
     <use style="fill-opacity:0;stroke:#ff0000;stroke-linejoin:miter;stroke-width:1.5;" x="170.486538" xlink:href="#m34e85bba9d" y="253.051863"/>
     <use style="fill-opacity:0;stroke:#ff0000;stroke-linejoin:miter;stroke-width:1.5;" x="338.688" xlink:href="#m34e85bba9d" y="253.051863"/>
    </g>
   </g>
   <g id="line2d_52">
    <path style="fill:none;stroke:#ff0000;stroke-linecap:square;stroke-width:1.5;"/>
    <g/>
   </g>
   <g id="line2d_53">
    <path clip-path="url(#p9a6028ad4b)" d="M 138.170504 256.493773 
" style="fill:none;stroke:#ff0000;stroke-linecap:square;stroke-width:1.5;"/>
    <defs>
     <path d="M -12 12 
L 12 -12 
M -12 -12 
L 12 12 
" id="mb860e79855" style="stroke:#ff0000;"/>
    </defs>
    <g clip-path="url(#p9a6028ad4b)">
     <use style="fill:#ff0000;stroke:#ff0000;" x="138.170504" xlink:href="#mb860e79855" y="256.493773"/>
    </g>
   </g>
   <g id="line2d_54">
    <path d="M 338.688 253.051863 
L 369.60768 293.092752 
" style="fill:none;stroke:#ff0000;stroke-linecap:square;stroke-width:1.5;"/>
    <g>
     <use style="fill-opacity:0;stroke:#ff0000;stroke-linejoin:miter;stroke-width:1.5;" x="338.688" xlink:href="#m34e85bba9d" y="253.051863"/>
     <use style="fill-opacity:0;stroke:#ff0000;stroke-linejoin:miter;stroke-width:1.5;" x="369.60768" xlink:href="#m34e85bba9d" y="293.092752"/>
    </g>
   </g>
   <g id="line2d_55">
    <path d="M 338.688 235.842311 
L 369.60768 222.877782 
" style="fill:none;stroke:#6495ed;stroke-linecap:square;stroke-width:1.5;"/>
    <g>
     <use style="fill-opacity:0;stroke:#6495ed;stroke-linejoin:miter;stroke-width:1.5;" x="338.688" xlink:href="#m053edf112b" y="235.842311"/>
     <use style="fill-opacity:0;stroke:#6495ed;stroke-linejoin:miter;stroke-width:1.5;" x="369.60768" xlink:href="#m053edf112b" y="222.877782"/>
    </g>
   </g>
   <g id="line2d_56">
    <path d="M 338.688 195.686691 
L 369.60768 152.662812 
" style="fill:none;stroke:#000080;stroke-linecap:square;stroke-width:1.5;"/>
    <g>
     <use style="fill-opacity:0;stroke:#000080;stroke-width:1.5;" x="338.688" xlink:href="#m2d42207e89" y="195.686691"/>
     <use style="fill-opacity:0;stroke:#000080;stroke-width:1.5;" x="369.60768" xlink:href="#m2d42207e89" y="152.662812"/>
    </g>
   </g>
   <g id="line2d_57">
    <path d="M 338.688 149.794553 
L 369.60768 82.447842 
" style="fill:none;stroke:#ff00ff;stroke-linecap:square;stroke-width:1.5;"/>
    <g>
     <use style="fill-opacity:0;stroke:#ff00ff;stroke-linejoin:miter;stroke-width:1.5;" x="338.688" xlink:href="#m62dee07396" y="149.794553"/>
     <use style="fill-opacity:0;stroke:#ff00ff;stroke-linejoin:miter;stroke-width:1.5;" x="369.60768" xlink:href="#m62dee07396" y="82.447842"/>
    </g>
   </g>
   <g id="line2d_58">
    <path d="M 338.688 121.111967 
L 369.60768 12.232871 
" style="fill:none;stroke:#ff7500;stroke-linecap:square;stroke-width:1.5;"/>
    <g>
     <use style="fill-opacity:0;stroke:#ff7500;stroke-linejoin:bevel;stroke-width:1.5;" x="338.688" xlink:href="#m0b152955fc" y="121.111967"/>
     <use style="fill-opacity:0;stroke:#ff7500;stroke-linejoin:bevel;stroke-width:1.5;" x="369.60768" xlink:href="#m0b152955fc" y="12.232871"/>
    </g>
   </g>
   <g id="line2d_59">
    <path d="M 338.688 298.944 
L 338.688 6.381624 
" style="fill:none;stroke:#000000;stroke-linecap:square;stroke-width:1.5;"/>
   </g>
   <g id="patch_3">
    <path d="M 57.6 298.944 
L 57.6 3.456 
" style="fill:none;stroke:#000000;stroke-linecap:square;stroke-linejoin:miter;stroke-width:0.8;"/>
   </g>
   <g id="patch_4">
    <path d="M 338.688 298.944 
L 338.688 3.456 
" style="fill:none;stroke:#000000;stroke-linecap:square;stroke-linejoin:miter;stroke-width:0.8;"/>
   </g>
   <g id="patch_5">
    <path d="M 57.6 298.944 
L 338.688 298.944 
" style="fill:none;stroke:#000000;stroke-linecap:square;stroke-linejoin:miter;stroke-width:0.8;"/>
   </g>
   <g id="patch_6">
    <path d="M 57.6 3.456 
L 338.688 3.456 
" style="fill:none;stroke:#000000;stroke-linecap:square;stroke-linejoin:miter;stroke-width:0.8;"/>
   </g>
   <g id="text_13">
    <!-- f24 -->
    <g transform="translate(375.22944 297.78369)scale(0.17 -0.17)">
     <use xlink:href="#DejaVuSans-66"/>
     <use x="35.205078" xlink:href="#DejaVuSans-32"/>
     <use x="98.828125" xlink:href="#DejaVuSans-34"/>
    </g>
   </g>
   <g id="text_14">
    <!-- f23 -->
    <g transform="translate(375.22944 227.56872)scale(0.17 -0.17)">
     <defs>
      <path d="M 2597 2516 
Q 3050 2419 3304 2112 
Q 3559 1806 3559 1356 
Q 3559 666 3084 287 
Q 2609 -91 1734 -91 
Q 1441 -91 1130 -33 
Q 819 25 488 141 
L 488 750 
Q 750 597 1062 519 
Q 1375 441 1716 441 
Q 2309 441 2620 675 
Q 2931 909 2931 1356 
Q 2931 1769 2642 2001 
Q 2353 2234 1838 2234 
L 1294 2234 
L 1294 2753 
L 1863 2753 
Q 2328 2753 2575 2939 
Q 2822 3125 2822 3475 
Q 2822 3834 2567 4026 
Q 2313 4219 1838 4219 
Q 1578 4219 1281 4162 
Q 984 4106 628 3988 
L 628 4550 
Q 988 4650 1302 4700 
Q 1616 4750 1894 4750 
Q 2613 4750 3031 4423 
Q 3450 4097 3450 3541 
Q 3450 3153 3228 2886 
Q 3006 2619 2597 2516 
z
" id="DejaVuSans-33" transform="scale(0.015625)"/>
     </defs>
     <use xlink:href="#DejaVuSans-66"/>
     <use x="35.205078" xlink:href="#DejaVuSans-32"/>
     <use x="98.828125" xlink:href="#DejaVuSans-33"/>
    </g>
   </g>
   <g id="text_15">
    <!-- f20 -->
    <g transform="translate(375.22944 157.353749)scale(0.17 -0.17)">
     <use xlink:href="#DejaVuSans-66"/>
     <use x="35.205078" xlink:href="#DejaVuSans-32"/>
     <use x="98.828125" xlink:href="#DejaVuSans-30"/>
    </g>
   </g>
   <g id="text_16">
    <!-- f21 -->
    <g transform="translate(375.22944 87.138779)scale(0.17 -0.17)">
     <use xlink:href="#DejaVuSans-66"/>
     <use x="35.205078" xlink:href="#DejaVuSans-32"/>
     <use x="98.828125" xlink:href="#DejaVuSans-31"/>
    </g>
   </g>
   <g id="text_17">
    <!-- f22 -->
    <g transform="translate(375.22944 16.923809)scale(0.17 -0.17)">
     <use xlink:href="#DejaVuSans-66"/>
     <use x="35.205078" xlink:href="#DejaVuSans-32"/>
     <use x="98.828125" xlink:href="#DejaVuSans-32"/>
    </g>
   </g>
   <g id="text_18">
    <!-- bbob -->
    <g transform="translate(60.41088 14.161286)scale(0.102 -0.102)">
     <defs>
      <path d="M 3116 1747 
Q 3116 2381 2855 2742 
Q 2594 3103 2138 3103 
Q 1681 3103 1420 2742 
Q 1159 2381 1159 1747 
Q 1159 1113 1420 752 
Q 1681 391 2138 391 
Q 2594 391 2855 752 
Q 3116 1113 3116 1747 
z
M 1159 2969 
Q 1341 3281 1617 3432 
Q 1894 3584 2278 3584 
Q 2916 3584 3314 3078 
Q 3713 2572 3713 1747 
Q 3713 922 3314 415 
Q 2916 -91 2278 -91 
Q 1894 -91 1617 61 
Q 1341 213 1159 525 
L 1159 0 
L 581 0 
L 581 4863 
L 1159 4863 
L 1159 2969 
z
" id="DejaVuSans-62" transform="scale(0.015625)"/>
     </defs>
     <use xlink:href="#DejaVuSans-62"/>
     <use x="63.476562" xlink:href="#DejaVuSans-62"/>
     <use x="126.953125" xlink:href="#DejaVuSans-6f"/>
     <use x="188.134766" xlink:href="#DejaVuSans-62"/>
    </g>
    <!-- Weak structure functions, 2-D -->
    <g transform="translate(60.41088 25.583055)scale(0.102 -0.102)">
     <defs>
      <path d="M 213 4666 
L 850 4666 
L 1831 722 
L 2809 4666 
L 3519 4666 
L 4500 722 
L 5478 4666 
L 6119 4666 
L 4947 0 
L 4153 0 
L 3169 4050 
L 2175 0 
L 1381 0 
L 213 4666 
z
" id="DejaVuSans-57" transform="scale(0.015625)"/>
      <path d="M 581 4863 
L 1159 4863 
L 1159 1991 
L 2875 3500 
L 3609 3500 
L 1753 1863 
L 3688 0 
L 2938 0 
L 1159 1709 
L 1159 0 
L 581 0 
L 581 4863 
z
" id="DejaVuSans-6b" transform="scale(0.015625)"/>
      <path d="M 1259 4147 
L 1259 519 
L 2022 519 
Q 2988 519 3436 956 
Q 3884 1394 3884 2338 
Q 3884 3275 3436 3711 
Q 2988 4147 2022 4147 
L 1259 4147 
z
M 628 4666 
L 1925 4666 
Q 3281 4666 3915 4102 
Q 4550 3538 4550 2338 
Q 4550 1131 3912 565 
Q 3275 0 1925 0 
L 628 0 
L 628 4666 
z
" id="DejaVuSans-44" transform="scale(0.015625)"/>
     </defs>
     <use xlink:href="#DejaVuSans-57"/>
     <use x="93.001953" xlink:href="#DejaVuSans-65"/>
     <use x="154.525391" xlink:href="#DejaVuSans-61"/>
     <use x="215.804688" xlink:href="#DejaVuSans-6b"/>
     <use x="273.714844" xlink:href="#DejaVuSans-20"/>
     <use x="305.501953" xlink:href="#DejaVuSans-73"/>
     <use x="357.601562" xlink:href="#DejaVuSans-74"/>
     <use x="396.810547" xlink:href="#DejaVuSans-72"/>
     <use x="437.923828" xlink:href="#DejaVuSans-75"/>
     <use x="501.302734" xlink:href="#DejaVuSans-63"/>
     <use x="556.283203" xlink:href="#DejaVuSans-74"/>
     <use x="595.492188" xlink:href="#DejaVuSans-75"/>
     <use x="658.871094" xlink:href="#DejaVuSans-72"/>
     <use x="697.734375" xlink:href="#DejaVuSans-65"/>
     <use x="759.257812" xlink:href="#DejaVuSans-20"/>
     <use x="791.044922" xlink:href="#DejaVuSans-66"/>
     <use x="826.25" xlink:href="#DejaVuSans-75"/>
     <use x="889.628906" xlink:href="#DejaVuSans-6e"/>
     <use x="953.007812" xlink:href="#DejaVuSans-63"/>
     <use x="1007.988281" xlink:href="#DejaVuSans-74"/>
     <use x="1047.197266" xlink:href="#DejaVuSans-69"/>
     <use x="1074.980469" xlink:href="#DejaVuSans-6f"/>
     <use x="1136.162109" xlink:href="#DejaVuSans-6e"/>
     <use x="1199.541016" xlink:href="#DejaVuSans-73"/>
     <use x="1251.640625" xlink:href="#DejaVuSans-2c"/>
     <use x="1283.427734" xlink:href="#DejaVuSans-20"/>
     <use x="1315.214844" xlink:href="#DejaVuSans-32"/>
     <use x="1378.837891" xlink:href="#DejaVuSans-2d"/>
     <use x="1414.921875" xlink:href="#DejaVuSans-44"/>
    </g>
    <!-- 51 targets: 100..1e-08 -->
    <g transform="translate(60.41088 37.004824)scale(0.102 -0.102)">
     <defs>
      <path d="M 691 4666 
L 3169 4666 
L 3169 4134 
L 1269 4134 
L 1269 2991 
Q 1406 3038 1543 3061 
Q 1681 3084 1819 3084 
Q 2600 3084 3056 2656 
Q 3513 2228 3513 1497 
Q 3513 744 3044 326 
Q 2575 -91 1722 -91 
Q 1428 -91 1123 -41 
Q 819 9 494 109 
L 494 744 
Q 775 591 1075 516 
Q 1375 441 1709 441 
Q 2250 441 2565 725 
Q 2881 1009 2881 1497 
Q 2881 1984 2565 2268 
Q 2250 2553 1709 2553 
Q 1456 2553 1204 2497 
Q 953 2441 691 2322 
L 691 4666 
z
" id="DejaVuSans-35" transform="scale(0.015625)"/>
      <path d="M 750 794 
L 1409 794 
L 1409 0 
L 750 0 
L 750 794 
z
M 750 3309 
L 1409 3309 
L 1409 2516 
L 750 2516 
L 750 3309 
z
" id="DejaVuSans-3a" transform="scale(0.015625)"/>
     </defs>
     <use xlink:href="#DejaVuSans-35"/>
     <use x="63.623047" xlink:href="#DejaVuSans-31"/>
     <use x="127.246094" xlink:href="#DejaVuSans-20"/>
     <use x="159.033203" xlink:href="#DejaVuSans-74"/>
     <use x="198.242188" xlink:href="#DejaVuSans-61"/>
     <use x="259.521484" xlink:href="#DejaVuSans-72"/>
     <use x="298.884766" xlink:href="#DejaVuSans-67"/>
     <use x="362.361328" xlink:href="#DejaVuSans-65"/>
     <use x="423.884766" xlink:href="#DejaVuSans-74"/>
     <use x="463.09375" xlink:href="#DejaVuSans-73"/>
     <use x="515.193359" xlink:href="#DejaVuSans-3a"/>
     <use x="548.884766" xlink:href="#DejaVuSans-20"/>
     <use x="580.671875" xlink:href="#DejaVuSans-31"/>
     <use x="644.294922" xlink:href="#DejaVuSans-30"/>
     <use x="707.917969" xlink:href="#DejaVuSans-30"/>
     <use x="771.541016" xlink:href="#DejaVuSans-2e"/>
     <use x="803.328125" xlink:href="#DejaVuSans-2e"/>
     <use x="835.115234" xlink:href="#DejaVuSans-31"/>
     <use x="898.738281" xlink:href="#DejaVuSans-65"/>
     <use x="960.261719" xlink:href="#DejaVuSans-2d"/>
     <use x="996.345703" xlink:href="#DejaVuSans-30"/>
     <use x="1059.96875" xlink:href="#DejaVuSans-38"/>
    </g>
    <!-- 15 instances -->
    <g transform="translate(60.41088 48.426593)scale(0.102 -0.102)">
     <use xlink:href="#DejaVuSans-31"/>
     <use x="63.623047" xlink:href="#DejaVuSans-35"/>
     <use x="127.246094" xlink:href="#DejaVuSans-20"/>
     <use x="159.033203" xlink:href="#DejaVuSans-69"/>
     <use x="186.816406" xlink:href="#DejaVuSans-6e"/>
     <use x="250.195312" xlink:href="#DejaVuSans-73"/>
     <use x="302.294922" xlink:href="#DejaVuSans-74"/>
     <use x="341.503906" xlink:href="#DejaVuSans-61"/>
     <use x="402.783203" xlink:href="#DejaVuSans-6e"/>
     <use x="466.162109" xlink:href="#DejaVuSans-63"/>
     <use x="521.142578" xlink:href="#DejaVuSans-65"/>
     <use x="582.666016" xlink:href="#DejaVuSans-73"/>
    </g>
   </g>
   <g id="text_19">
    <!-- v2.4 -->
    <g style="fill:#808080;" transform="translate(187.233062 293.909432)scale(0.1 -0.1)">
     <use xlink:href="#DejaVuSans-76"/>
     <use x="59.179688" xlink:href="#DejaVuSans-32"/>
     <use x="122.802734" xlink:href="#DejaVuSans-2e"/>
     <use x="154.589844" xlink:href="#DejaVuSans-34"/>
    </g>
   </g>
  </g>
 </g>
 <defs>
  <clipPath id="p9a6028ad4b">
   <rect height="295.488" width="281.088" x="57.6" y="3.456"/>
  </clipPath>
 </defs>
</svg>
