<?xml version="1.0" encoding="utf-8" standalone="no"?>
<!DOCTYPE svg PUBLIC "-//W3C//DTD SVG 1.1//EN"
  "http://www.w3.org/Graphics/SVG/1.1/DTD/svg11.dtd">
<svg height="345.6pt" version="1.1" viewBox="0 0 460.8 345.6" width="460.8pt" xmlns="http://www.w3.org/2000/svg" xmlns:xlink="http://www.w3.org/1999/xlink">
 <metadata>
  <rdf:RDF xmlns:cc="http://creativecommons.org/ns#" xmlns:dc="http://purl.org/dc/elements/1.1/" xmlns:rdf="http://www.w3.org/1999/02/22-rdf-syntax-ns#">
   <cc:Work>
    <dc:type rdf:resource="http://purl.org/dc/dcmitype/StillImage"/>
    <dc:date>2021-06-14T12:33:43.910251</dc:date>
    <dc:format>image/svg+xml</dc:format>
    <dc:creator>
     <cc:Agent>
      <dc:title>Matplotlib v3.4.2, https://matplotlib.org/</dc:title>
     </cc:Agent>
    </dc:creator>
   </cc:Work>
  </rdf:RDF>
 </metadata>
 <defs>
  <style type="text/css">*{stroke-linecap:butt;stroke-linejoin:round;}</style>
 </defs>
 <g id="figure_1">
  <g id="patch_1">
   <path d="M 0 345.6 
L 460.8 345.6 
L 460.8 0 
L 0 0 
z
" style="fill:#ffffff;"/>
  </g>
  <g id="axes_1">
   <g id="patch_2">
    <path d="M 0 293.76 
L 460.8 293.76 
L 460.8 3.456 
L 0 3.456 
z
" style="fill:#ffffff;"/>
   </g>
   <g id="matplotlib.axis_1">
    <g id="xtick_1">
     <g id="line2d_1">
      <path clip-path="url(#p64f8dd404c)" d="M 108.745186 293.76 
L 108.745186 3.456 
" style="fill:none;stroke:#b0b0b0;stroke-linecap:square;stroke-width:0.8;"/>
     </g>
     <g id="line2d_2">
      <defs>
       <path d="M 0 0 
L 0 3.5 
" id="m7f9ddac2c3" style="stroke:#000000;stroke-width:0.8;"/>
      </defs>
      <g>
       <use style="stroke:#000000;stroke-width:0.8;" x="108.745186" xlink:href="#m7f9ddac2c3" y="293.76"/>
      </g>
     </g>
     <g id="text_1">
      <!-- -4 -->
      <g transform="translate(98.774873 315.956875)scale(0.2 -0.2)">
       <defs>
        <path d="M 313 2009 
L 1997 2009 
L 1997 1497 
L 313 1497 
L 313 2009 
z
" id="DejaVuSans-2d" transform="scale(0.015625)"/>
        <path d="M 2419 4116 
L 825 1625 
L 2419 1625 
L 2419 4116 
z
M 2253 4666 
L 3047 4666 
L 3047 1625 
L 3713 1625 
L 3713 1100 
L 3047 1100 
L 3047 0 
L 2419 0 
L 2419 1100 
L 313 1100 
L 313 1709 
L 2253 4666 
z
" id="DejaVuSans-34" transform="scale(0.015625)"/>
       </defs>
       <use xlink:href="#DejaVuSans-2d"/>
       <use x="36.083984" xlink:href="#DejaVuSans-34"/>
      </g>
     </g>
    </g>
    <g id="xtick_2">
     <g id="line2d_3">
      <path clip-path="url(#p64f8dd404c)" d="M 217.607981 293.76 
L 217.607981 3.456 
" style="fill:none;stroke:#b0b0b0;stroke-linecap:square;stroke-width:0.8;"/>
     </g>
     <g id="line2d_4">
      <g>
       <use style="stroke:#000000;stroke-width:0.8;" x="217.607981" xlink:href="#m7f9ddac2c3" y="293.76"/>
      </g>
     </g>
     <g id="text_2">
      <!-- 0 -->
      <g transform="translate(211.245481 315.956875)scale(0.2 -0.2)">
       <defs>
        <path d="M 2034 4250 
Q 1547 4250 1301 3770 
Q 1056 3291 1056 2328 
Q 1056 1369 1301 889 
Q 1547 409 2034 409 
Q 2525 409 2770 889 
Q 3016 1369 3016 2328 
Q 3016 3291 2770 3770 
Q 2525 4250 2034 4250 
z
M 2034 4750 
Q 2819 4750 3233 4129 
Q 3647 3509 3647 2328 
Q 3647 1150 3233 529 
Q 2819 -91 2034 -91 
Q 1250 -91 836 529 
Q 422 1150 422 2328 
Q 422 3509 836 4129 
Q 1250 4750 2034 4750 
z
" id="DejaVuSans-30" transform="scale(0.015625)"/>
       </defs>
       <use xlink:href="#DejaVuSans-30"/>
      </g>
     </g>
    </g>
    <g id="xtick_3">
     <g id="line2d_5">
      <path clip-path="url(#p64f8dd404c)" d="M 326.470776 293.76 
L 326.470776 3.456 
" style="fill:none;stroke:#b0b0b0;stroke-linecap:square;stroke-width:0.8;"/>
     </g>
     <g id="line2d_6">
      <g>
       <use style="stroke:#000000;stroke-width:0.8;" x="326.470776" xlink:href="#m7f9ddac2c3" y="293.76"/>
      </g>
     </g>
     <g id="text_3">
      <!-- 4 -->
      <g transform="translate(320.108276 315.956875)scale(0.2 -0.2)">
       <use xlink:href="#DejaVuSans-34"/>
      </g>
     </g>
    </g>
    <g id="xtick_4">
     <g id="line2d_7">
      <path clip-path="url(#p64f8dd404c)" d="M 435.333571 293.76 
L 435.333571 3.456 
" style="fill:none;stroke:#b0b0b0;stroke-linecap:square;stroke-width:0.8;"/>
     </g>
     <g id="line2d_8">
      <g>
       <use style="stroke:#000000;stroke-width:0.8;" x="435.333571" xlink:href="#m7f9ddac2c3" y="293.76"/>
      </g>
     </g>
     <g id="text_4">
      <!-- 8 -->
      <g transform="translate(428.971071 315.956875)scale(0.2 -0.2)">
       <defs>
        <path d="M 2034 2216 
Q 1584 2216 1326 1975 
Q 1069 1734 1069 1313 
Q 1069 891 1326 650 
Q 1584 409 2034 409 
Q 2484 409 2743 651 
Q 3003 894 3003 1313 
Q 3003 1734 2745 1975 
Q 2488 2216 2034 2216 
z
M 1403 2484 
Q 997 2584 770 2862 
Q 544 3141 544 3541 
Q 544 4100 942 4425 
Q 1341 4750 2034 4750 
Q 2731 4750 3128 4425 
Q 3525 4100 3525 3541 
Q 3525 3141 3298 2862 
Q 3072 2584 2669 2484 
Q 3125 2378 3379 2068 
Q 3634 1759 3634 1313 
Q 3634 634 3220 271 
Q 2806 -91 2034 -91 
Q 1263 -91 848 271 
Q 434 634 434 1313 
Q 434 1759 690 2068 
Q 947 2378 1403 2484 
z
M 1172 3481 
Q 1172 3119 1398 2916 
Q 1625 2713 2034 2713 
Q 2441 2713 2670 2916 
Q 2900 3119 2900 3481 
Q 2900 3844 2670 4047 
Q 2441 4250 2034 4250 
Q 1625 4250 1398 4047 
Q 1172 3844 1172 3481 
z
" id="DejaVuSans-38" transform="scale(0.015625)"/>
       </defs>
       <use xlink:href="#DejaVuSans-38"/>
      </g>
     </g>
    </g>
    <g id="text_5">
     <!-- log10 of Df -->
     <g transform="translate(175.214063 339.313125)scale(0.2 -0.2)">
      <defs>
       <path d="M 603 4863 
L 1178 4863 
L 1178 0 
L 603 0 
L 603 4863 
z
" id="DejaVuSans-6c" transform="scale(0.015625)"/>
       <path d="M 1959 3097 
Q 1497 3097 1228 2736 
Q 959 2375 959 1747 
Q 959 1119 1226 758 
Q 1494 397 1959 397 
Q 2419 397 2687 759 
Q 2956 1122 2956 1747 
Q 2956 2369 2687 2733 
Q 2419 3097 1959 3097 
z
M 1959 3584 
Q 2709 3584 3137 3096 
Q 3566 2609 3566 1747 
Q 3566 888 3137 398 
Q 2709 -91 1959 -91 
Q 1206 -91 779 398 
Q 353 888 353 1747 
Q 353 2609 779 3096 
Q 1206 3584 1959 3584 
z
" id="DejaVuSans-6f" transform="scale(0.015625)"/>
       <path d="M 2906 1791 
Q 2906 2416 2648 2759 
Q 2391 3103 1925 3103 
Q 1463 3103 1205 2759 
Q 947 2416 947 1791 
Q 947 1169 1205 825 
Q 1463 481 1925 481 
Q 2391 481 2648 825 
Q 2906 1169 2906 1791 
z
M 3481 434 
Q 3481 -459 3084 -895 
Q 2688 -1331 1869 -1331 
Q 1566 -1331 1297 -1286 
Q 1028 -1241 775 -1147 
L 775 -588 
Q 1028 -725 1275 -790 
Q 1522 -856 1778 -856 
Q 2344 -856 2625 -561 
Q 2906 -266 2906 331 
L 2906 616 
Q 2728 306 2450 153 
Q 2172 0 1784 0 
Q 1141 0 747 490 
Q 353 981 353 1791 
Q 353 2603 747 3093 
Q 1141 3584 1784 3584 
Q 2172 3584 2450 3431 
Q 2728 3278 2906 2969 
L 2906 3500 
L 3481 3500 
L 3481 434 
z
" id="DejaVuSans-67" transform="scale(0.015625)"/>
       <path d="M 794 531 
L 1825 531 
L 1825 4091 
L 703 3866 
L 703 4441 
L 1819 4666 
L 2450 4666 
L 2450 531 
L 3481 531 
L 3481 0 
L 794 0 
L 794 531 
z
" id="DejaVuSans-31" transform="scale(0.015625)"/>
       <path id="DejaVuSans-20" transform="scale(0.015625)"/>
       <path d="M 2375 4863 
L 2375 4384 
L 1825 4384 
Q 1516 4384 1395 4259 
Q 1275 4134 1275 3809 
L 1275 3500 
L 2222 3500 
L 2222 3053 
L 1275 3053 
L 1275 0 
L 697 0 
L 697 3053 
L 147 3053 
L 147 3500 
L 697 3500 
L 697 3744 
Q 697 4328 969 4595 
Q 1241 4863 1831 4863 
L 2375 4863 
z
" id="DejaVuSans-66" transform="scale(0.015625)"/>
       <path d="M 1259 4147 
L 1259 519 
L 2022 519 
Q 2988 519 3436 956 
Q 3884 1394 3884 2338 
Q 3884 3275 3436 3711 
Q 2988 4147 2022 4147 
L 1259 4147 
z
M 628 4666 
L 1925 4666 
Q 3281 4666 3915 4102 
Q 4550 3538 4550 2338 
Q 4550 1131 3912 565 
Q 3275 0 1925 0 
L 628 0 
L 628 4666 
z
" id="DejaVuSans-44" transform="scale(0.015625)"/>
      </defs>
      <use xlink:href="#DejaVuSans-6c"/>
      <use x="27.783203" xlink:href="#DejaVuSans-6f"/>
      <use x="88.964844" xlink:href="#DejaVuSans-67"/>
      <use x="152.441406" xlink:href="#DejaVuSans-31"/>
      <use x="216.064453" xlink:href="#DejaVuSans-30"/>
      <use x="279.6875" xlink:href="#DejaVuSans-20"/>
      <use x="311.474609" xlink:href="#DejaVuSans-6f"/>
      <use x="372.65625" xlink:href="#DejaVuSans-66"/>
      <use x="407.861328" xlink:href="#DejaVuSans-20"/>
      <use x="439.648438" xlink:href="#DejaVuSans-44"/>
      <use x="516.650391" xlink:href="#DejaVuSans-66"/>
     </g>
    </g>
   </g>
   <g id="matplotlib.axis_2">
    <g id="ytick_1">
     <g id="line2d_9">
      <path clip-path="url(#p64f8dd404c)" d="M 0 293.76 
L 460.8 293.76 
" style="fill:none;stroke:#b0b0b0;stroke-linecap:square;stroke-width:0.8;"/>
     </g>
     <g id="line2d_10">
      <defs>
       <path d="M 0 0 
L -3.5 0 
" id="meb8ad37e51" style="stroke:#000000;stroke-width:0.8;"/>
      </defs>
      <g>
       <use style="stroke:#000000;stroke-width:0.8;" x="0" xlink:href="#meb8ad37e51" y="293.76"/>
      </g>
     </g>
    </g>
    <g id="ytick_2">
     <g id="line2d_11">
      <path clip-path="url(#p64f8dd404c)" d="M 0 236.274059 
L 460.8 236.274059 
" style="fill:none;stroke:#b0b0b0;stroke-linecap:square;stroke-width:0.8;"/>
     </g>
     <g id="line2d_12">
      <g>
       <use style="stroke:#000000;stroke-width:0.8;" x="0" xlink:href="#meb8ad37e51" y="236.274059"/>
      </g>
     </g>
    </g>
    <g id="ytick_3">
     <g id="line2d_13">
      <path clip-path="url(#p64f8dd404c)" d="M 0 178.788119 
L 460.8 178.788119 
" style="fill:none;stroke:#b0b0b0;stroke-linecap:square;stroke-width:0.8;"/>
     </g>
     <g id="line2d_14">
      <g>
       <use style="stroke:#000000;stroke-width:0.8;" x="0" xlink:href="#meb8ad37e51" y="178.788119"/>
      </g>
     </g>
    </g>
    <g id="ytick_4">
     <g id="line2d_15">
      <path clip-path="url(#p64f8dd404c)" d="M 0 121.302178 
L 460.8 121.302178 
" style="fill:none;stroke:#b0b0b0;stroke-linecap:square;stroke-width:0.8;"/>
     </g>
     <g id="line2d_16">
      <g>
       <use style="stroke:#000000;stroke-width:0.8;" x="0" xlink:href="#meb8ad37e51" y="121.302178"/>
      </g>
     </g>
    </g>
    <g id="ytick_5">
     <g id="line2d_17">
      <path clip-path="url(#p64f8dd404c)" d="M 0 63.816238 
L 460.8 63.816238 
" style="fill:none;stroke:#b0b0b0;stroke-linecap:square;stroke-width:0.8;"/>
     </g>
     <g id="line2d_18">
      <g>
       <use style="stroke:#000000;stroke-width:0.8;" x="0" xlink:href="#meb8ad37e51" y="63.816238"/>
      </g>
     </g>
    </g>
    <g id="ytick_6">
     <g id="line2d_19">
      <path clip-path="url(#p64f8dd404c)" d="M 0 6.330297 
L 460.8 6.330297 
" style="fill:none;stroke:#b0b0b0;stroke-linecap:square;stroke-width:0.8;"/>
     </g>
     <g id="line2d_20">
      <g>
       <use style="stroke:#000000;stroke-width:0.8;" x="0" xlink:href="#meb8ad37e51" y="6.330297"/>
      </g>
     </g>
    </g>
   </g>
   <g id="line2d_21">
    <path clip-path="url(#p64f8dd404c)" d="M 227.724076 293.76 
L 227.724076 289.927604 
L 229.243472 289.927604 
L 229.335656 282.262812 
L 229.52571 282.262812 
L 229.52571 278.430416 
L 229.893207 278.430416 
L 229.893207 274.59802 
L 230.369994 274.59802 
L 230.372909 266.933228 
L 230.888724 266.933228 
L 230.888724 263.100832 
L 231.299452 263.100832 
L 231.299452 259.268436 
L 231.694698 259.268436 
L 231.694698 255.43604 
L 231.906563 255.43604 
L 231.906563 251.603644 
L 232.549104 251.603644 
L 232.549104 247.771248 
L 233.07562 247.771248 
L 233.07562 243.938851 
L 233.84172 243.938851 
L 233.84172 240.106455 
L 234.151426 240.106455 
L 234.151426 236.274059 
L 262.777489 236.274059 
L 262.777489 232.441663 
L 263.947171 232.441663 
L 263.947171 228.609267 
L 265.492346 228.609267 
L 265.492346 224.776871 
L 265.823725 224.776871 
L 265.852502 217.112079 
L 266.080061 217.112079 
L 266.133754 205.614891 
L 266.32114 205.614891 
L 266.32114 201.782495 
L 266.527965 201.782495 
L 266.527965 197.950099 
L 266.702098 197.950099 
L 266.718887 186.452911 
L 267.000832 186.452911 
L 267.000832 182.620515 
L 267.262058 182.620515 
L 267.262058 178.788119 
L 267.398574 178.788119 
L 267.49716 163.458535 
L 267.626639 163.458535 
L 267.717233 151.961347 
L 268.063691 151.961347 
L 268.091375 140.464158 
L 268.254037 140.464158 
L 268.254037 136.631762 
L 268.42832 136.631762 
L 268.514189 121.302178 
L 281.346092 121.302178 
L 281.346092 117.469782 
L 282.17569 117.469782 
L 282.17569 113.637386 
L 283.170892 113.637386 
L 283.170892 109.80499 
L 283.450169 109.80499 
L 283.497212 102.140198 
L 283.617853 102.140198 
L 283.617853 98.307802 
L 284.178156 98.307802 
L 284.178156 94.475406 
L 284.445303 94.475406 
L 284.543927 82.978218 
L 284.900408 82.978218 
L 284.900408 79.145822 
L 285.127185 79.145822 
L 285.231612 67.648634 
L 285.799315 67.648634 
L 285.799315 63.816238 
L 314.550775 63.816238 
L 314.621128 56.151446 
L 316.256485 56.151446 
L 316.256485 52.31905 
L 317.411199 52.31905 
L 317.411199 48.486653 
L 318.057763 48.486653 
L 318.057763 44.654257 
L 319.571761 44.654257 
L 319.571761 40.821861 
L 320.116636 40.821861 
L 320.116636 36.989465 
L 320.520838 36.989465 
L 320.540962 29.324673 
L 321.160842 29.324673 
L 321.160842 25.492277 
L 321.693777 25.492277 
L 321.693777 21.659881 
L 322.724531 21.659881 
L 322.724531 17.827485 
L 323.566551 17.827485 
L 323.566551 13.995089 
L 325.947384 13.995089 
L 325.947384 10.162693 
L 326.832759 10.162693 
L 326.832759 6.330297 
L 326.832759 6.330297 
L 460.8 6.330297 
L 460.8 6.330297 
" style="fill:none;stroke:#ff0000;stroke-linecap:square;stroke-width:3;"/>
   </g>
   <g id="line2d_22">
    <path clip-path="url(#p64f8dd404c)" d="M 235.180102 293.76 
L 235.180102 289.927604 
L 238.397894 289.927604 
L 238.397894 286.095208 
L 238.815275 286.095208 
L 238.815275 282.262812 
L 242.475165 282.262812 
L 242.566483 274.59802 
L 242.802454 274.59802 
L 242.802454 270.765624 
L 242.928291 270.765624 
L 242.928291 266.933228 
L 243.072863 266.933228 
L 243.072863 263.100832 
L 243.328136 263.100832 
L 243.328136 259.268436 
L 243.662762 259.268436 
L 243.666405 251.603644 
L 243.809531 251.603644 
L 243.809531 247.771248 
L 245.271947 247.771248 
L 245.284624 240.106455 
L 246.937848 240.106455 
L 246.937848 236.274059 
L 267.49716 236.274059 
L 267.501904 228.609267 
L 267.788016 228.609267 
L 267.788016 224.776871 
L 267.913628 224.776871 
L 267.993201 217.112079 
L 268.260358 217.112079 
L 268.283311 209.447287 
L 268.430315 209.447287 
L 268.430315 205.614891 
L 268.560967 205.614891 
L 268.656387 197.950099 
L 268.681874 197.950099 
L 268.702891 190.285307 
L 268.815181 190.285307 
L 268.908016 171.123327 
L 269.085525 171.123327 
L 269.129628 159.626139 
L 269.199553 159.626139 
L 269.293205 148.12895 
L 269.333505 148.12895 
L 269.358155 140.464158 
L 269.450327 140.464158 
L 269.450327 136.631762 
L 269.63698 136.631762 
L 269.644243 128.96697 
L 269.813989 128.96697 
L 269.871383 121.302178 
L 282.17569 121.302178 
L 282.17569 117.469782 
L 283.170892 117.469782 
L 283.170892 113.637386 
L 283.450169 113.637386 
L 283.450169 109.80499 
L 283.617853 109.80499 
L 283.617853 105.972594 
L 284.178156 105.972594 
L 284.178156 102.140198 
L 284.445303 102.140198 
L 284.543927 94.475406 
L 284.900408 94.475406 
L 284.900408 90.64301 
L 285.288257 90.64301 
L 285.288257 86.810614 
L 285.65224 86.810614 
L 285.65224 82.978218 
L 285.83296 82.978218 
L 285.849635 75.313426 
L 286.064378 75.313426 
L 286.064378 71.48103 
L 286.413898 71.48103 
L 286.413898 67.648634 
L 286.56406 67.648634 
L 286.56406 63.816238 
L 321.160842 63.816238 
L 321.160842 59.983842 
L 324.08024 59.983842 
L 324.08024 56.151446 
L 325.947384 56.151446 
L 325.947384 52.31905 
L 326.990022 52.31905 
L 326.996732 44.654257 
L 328.808909 44.654257 
L 328.808909 40.821861 
L 330.961237 40.821861 
L 330.961237 36.989465 
L 331.341171 36.989465 
L 331.341171 33.157069 
L 331.803642 33.157069 
L 331.832026 25.492277 
L 333.003866 25.492277 
L 333.003866 21.659881 
L 334.076423 21.659881 
L 334.076423 17.827485 
L 335.571632 17.827485 
L 335.571632 13.995089 
L 336.045259 13.995089 
L 336.045259 10.162693 
L 340.187101 10.162693 
L 340.187101 6.330297 
L 340.187101 6.330297 
L 460.8 6.330297 
L 460.8 6.330297 
" style="fill:none;stroke:#00bfbf;stroke-linecap:square;stroke-width:1.5;"/>
   </g>
   <g id="line2d_23">
    <path clip-path="url(#p64f8dd404c)" d="M 235.180102 293.76 
L 235.180102 289.927604 
L 238.267287 289.927604 
L 238.267287 286.095208 
L 238.397894 286.095208 
L 238.397894 282.262812 
L 238.815275 282.262812 
L 238.815417 274.59802 
L 240.282959 274.59802 
L 240.282959 270.765624 
L 241.013528 270.765624 
L 241.013528 266.933228 
L 241.318785 266.933228 
L 241.318785 263.100832 
L 241.665059 263.100832 
L 241.665059 259.268436 
L 241.874243 259.268436 
L 241.874243 255.43604 
L 242.802454 255.43604 
L 242.802454 251.603644 
L 243.197904 251.603644 
L 243.197904 247.771248 
L 243.328136 247.771248 
L 243.328136 243.938851 
L 243.666405 243.938851 
L 243.728025 236.274059 
L 267.49716 236.274059 
L 267.501904 228.609267 
L 267.788016 228.609267 
L 267.80745 220.944475 
L 267.913628 220.944475 
L 267.993201 213.279683 
L 268.091375 213.279683 
L 268.091375 209.447287 
L 268.283311 209.447287 
L 268.283311 205.614891 
L 268.430315 205.614891 
L 268.451718 197.950099 
L 268.656387 197.950099 
L 268.742053 182.620515 
L 268.815181 182.620515 
L 268.908016 155.793743 
L 269.101539 155.793743 
L 269.207817 140.464158 
L 269.28136 140.464158 
L 269.358155 128.96697 
L 269.450327 128.96697 
L 269.450327 125.134574 
L 269.644243 125.134574 
L 269.644243 121.302178 
L 281.346092 121.302178 
L 281.346092 117.469782 
L 282.17569 117.469782 
L 282.17569 113.637386 
L 283.170892 113.637386 
L 283.170892 109.80499 
L 283.450169 109.80499 
L 283.450169 105.972594 
L 283.617853 105.972594 
L 283.617853 102.140198 
L 284.178156 102.140198 
L 284.178156 98.307802 
L 284.445303 98.307802 
L 284.543927 90.64301 
L 284.900408 90.64301 
L 284.900408 86.810614 
L 285.288257 86.810614 
L 285.288257 82.978218 
L 285.83296 82.978218 
L 285.849635 75.313426 
L 286.064378 75.313426 
L 286.064378 71.48103 
L 286.413898 71.48103 
L 286.413898 67.648634 
L 286.56406 67.648634 
L 286.56406 63.816238 
L 320.540962 63.816238 
L 320.540962 59.983842 
L 321.160842 59.983842 
L 321.160842 56.151446 
L 324.08024 56.151446 
L 324.08024 52.31905 
L 325.947384 52.31905 
L 325.947384 48.486653 
L 326.990022 48.486653 
L 326.996732 40.821861 
L 328.808909 40.821861 
L 328.808909 36.989465 
L 331.341171 36.989465 
L 331.341171 33.157069 
L 331.803642 33.157069 
L 331.832026 25.492277 
L 333.003866 25.492277 
L 333.003866 21.659881 
L 333.196279 21.659881 
L 333.196279 17.827485 
L 334.076423 17.827485 
L 334.076423 13.995089 
L 335.571632 13.995089 
L 335.571632 10.162693 
L 340.187101 10.162693 
L 340.187101 6.330297 
L 340.187101 6.330297 
L 460.8 6.330297 
L 460.8 6.330297 
" style="fill:none;stroke:#bf00bf;stroke-linecap:square;stroke-width:1.5;"/>
   </g>
   <g id="line2d_24">
    <path clip-path="url(#p64f8dd404c)" d="M 234.571322 293.76 
L 234.576404 286.095208 
L 235.137448 286.095208 
L 235.180102 278.430416 
L 236.102111 278.430416 
L 236.102111 274.59802 
L 236.640282 274.59802 
L 236.640282 270.765624 
L 238.48513 270.765624 
L 238.48513 266.933228 
L 238.815275 266.933228 
L 238.815275 263.100832 
L 238.951139 263.100832 
L 238.951139 259.268436 
L 239.361683 259.268436 
L 239.361683 255.43604 
L 239.566595 255.43604 
L 239.566595 251.603644 
L 240.306266 251.603644 
L 240.306266 247.771248 
L 240.76646 247.771248 
L 240.76646 243.938851 
L 241.201132 243.938851 
L 241.201132 240.106455 
L 242.802454 240.106455 
L 242.802454 236.274059 
L 267.327981 236.274059 
L 267.327981 232.441663 
L 267.446177 232.441663 
L 267.501904 220.944475 
L 267.717233 220.944475 
L 267.80745 209.447287 
L 267.993201 209.447287 
L 268.091375 201.782495 
L 268.217819 201.782495 
L 268.3095 186.452911 
L 268.430315 186.452911 
L 268.536793 178.788119 
L 268.564928 178.788119 
L 268.564928 174.955723 
L 268.681874 174.955723 
L 268.742053 159.626139 
L 268.831103 159.626139 
L 268.834968 148.12895 
L 269.06706 148.12895 
L 269.160238 140.464158 
L 269.199553 140.464158 
L 269.28136 125.134574 
L 269.644243 125.134574 
L 269.644243 121.302178 
L 281.346092 121.302178 
L 281.346092 117.469782 
L 282.17569 117.469782 
L 282.17569 113.637386 
L 283.170892 113.637386 
L 283.170892 109.80499 
L 283.450169 109.80499 
L 283.450169 105.972594 
L 283.617853 105.972594 
L 283.617853 102.140198 
L 284.178156 102.140198 
L 284.178156 98.307802 
L 284.445303 98.307802 
L 284.543927 90.64301 
L 284.900408 90.64301 
L 284.900408 86.810614 
L 285.288257 86.810614 
L 285.288257 82.978218 
L 285.83296 82.978218 
L 285.849635 75.313426 
L 286.064378 75.313426 
L 286.064378 71.48103 
L 286.413898 71.48103 
L 286.413898 67.648634 
L 286.56406 67.648634 
L 286.56406 63.816238 
L 320.540962 63.816238 
L 320.540962 59.983842 
L 321.160842 59.983842 
L 321.160842 56.151446 
L 324.08024 56.151446 
L 324.08024 52.31905 
L 325.947384 52.31905 
L 325.947384 48.486653 
L 326.990022 48.486653 
L 326.996732 40.821861 
L 328.808909 40.821861 
L 328.808909 36.989465 
L 330.55446 36.989465 
L 330.55446 33.157069 
L 331.341171 33.157069 
L 331.341171 29.324673 
L 331.803642 29.324673 
L 331.803642 25.492277 
L 333.003866 25.492277 
L 333.003866 21.659881 
L 333.196279 21.659881 
L 333.196279 17.827485 
L 334.076423 17.827485 
L 334.076423 13.995089 
L 335.571632 13.995089 
L 335.571632 10.162693 
L 337.548535 10.162693 
L 337.548535 6.330297 
L 337.548535 6.330297 
L 460.8 6.330297 
L 460.8 6.330297 
" style="fill:none;stroke:#000000;stroke-linecap:square;stroke-width:1.5;"/>
   </g>
   <g id="line2d_25">
    <path clip-path="url(#p64f8dd404c)" d="M 227.724076 293.76 
L 227.724076 289.927604 
L 231.913413 289.927604 
L 231.913413 286.095208 
L 232.667963 286.095208 
L 232.667963 282.262812 
L 232.95725 282.262812 
L 232.95725 278.430416 
L 233.499499 278.430416 
L 233.499499 274.59802 
L 235.137448 274.59802 
L 235.180102 266.933228 
L 236.102111 266.933228 
L 236.185878 259.268436 
L 236.721512 259.268436 
L 236.721512 255.43604 
L 237.10986 255.43604 
L 237.10986 251.603644 
L 237.424053 251.603644 
L 237.462209 243.938851 
L 238.114682 243.938851 
L 238.114682 240.106455 
L 238.391096 240.106455 
L 238.391096 236.274059 
L 267.039672 236.274059 
L 267.039672 232.441663 
L 267.327981 232.441663 
L 267.327981 228.609267 
L 267.446177 228.609267 
L 267.501904 217.112079 
L 267.62325 217.112079 
L 267.717233 205.614891 
L 267.742178 205.614891 
L 267.788016 194.117703 
L 267.906905 194.117703 
L 267.993201 186.452911 
L 268.06727 186.452911 
L 268.091375 178.788119 
L 268.188816 178.788119 
L 268.285465 159.626139 
L 268.450879 159.626139 
L 268.552907 148.12895 
L 268.564928 148.12895 
L 268.626713 136.631762 
L 268.700086 136.631762 
L 268.72625 128.96697 
L 268.831552 128.96697 
L 268.831552 125.134574 
L 269.160238 125.134574 
L 269.160238 121.302178 
L 281.346092 121.302178 
L 281.346092 117.469782 
L 282.17569 117.469782 
L 282.17569 113.637386 
L 283.170892 113.637386 
L 283.170892 109.80499 
L 283.450169 109.80499 
L 283.450169 105.972594 
L 283.617853 105.972594 
L 283.617853 102.140198 
L 284.178156 102.140198 
L 284.178156 98.307802 
L 284.445303 98.307802 
L 284.543927 90.64301 
L 284.67746 90.64301 
L 284.67746 86.810614 
L 284.85386 86.810614 
L 284.900408 79.145822 
L 285.231612 79.145822 
L 285.288257 71.48103 
L 285.849635 71.48103 
L 285.849635 67.648634 
L 286.56406 67.648634 
L 286.56406 63.816238 
L 320.540962 63.816238 
L 320.540962 59.983842 
L 320.879541 59.983842 
L 320.879541 56.151446 
L 321.160842 56.151446 
L 321.160842 52.31905 
L 321.693777 52.31905 
L 321.693777 48.486653 
L 324.08024 48.486653 
L 324.08024 44.654257 
L 325.947384 44.654257 
L 325.947384 40.821861 
L 326.560475 40.821861 
L 326.560475 36.989465 
L 326.990022 36.989465 
L 326.996732 29.324673 
L 327.101999 29.324673 
L 327.101999 25.492277 
L 327.762552 25.492277 
L 327.762552 21.659881 
L 328.808909 21.659881 
L 328.808909 17.827485 
L 330.558511 17.827485 
L 330.558511 13.995089 
L 333.196279 13.995089 
L 333.196279 10.162693 
L 333.338726 10.162693 
L 333.338726 6.330297 
L 333.338726 6.330297 
L 460.8 6.330297 
L 460.8 6.330297 
" style="fill:none;stroke:#00bfbf;stroke-linecap:square;stroke-width:1.5;"/>
   </g>
   <g id="line2d_26">
    <path clip-path="url(#p64f8dd404c)" d="M 227.724076 293.76 
L 227.724076 289.927604 
L 229.243472 289.927604 
L 229.335656 282.262812 
L 229.52571 282.262812 
L 229.52571 278.430416 
L 229.893207 278.430416 
L 229.893207 274.59802 
L 230.369994 274.59802 
L 230.372909 266.933228 
L 230.888724 266.933228 
L 230.888724 263.100832 
L 231.299452 263.100832 
L 231.299452 259.268436 
L 231.694698 259.268436 
L 231.694698 255.43604 
L 231.906563 255.43604 
L 231.906563 251.603644 
L 232.549104 251.603644 
L 232.549104 247.771248 
L 233.07562 247.771248 
L 233.07562 243.938851 
L 233.84172 243.938851 
L 233.84172 240.106455 
L 234.151426 240.106455 
L 234.151426 236.274059 
L 262.777489 236.274059 
L 262.777489 232.441663 
L 263.947171 232.441663 
L 263.947171 228.609267 
L 265.492346 228.609267 
L 265.492346 224.776871 
L 265.823725 224.776871 
L 265.852502 217.112079 
L 266.080061 217.112079 
L 266.133754 205.614891 
L 266.32114 205.614891 
L 266.32114 201.782495 
L 266.527965 201.782495 
L 266.527965 197.950099 
L 266.702098 197.950099 
L 266.718887 186.452911 
L 267.000832 186.452911 
L 267.000832 182.620515 
L 267.262058 182.620515 
L 267.262058 178.788119 
L 267.398574 178.788119 
L 267.49716 163.458535 
L 267.626639 163.458535 
L 267.717233 151.961347 
L 268.063691 151.961347 
L 268.091375 140.464158 
L 268.254037 140.464158 
L 268.254037 136.631762 
L 268.42832 136.631762 
L 268.514189 121.302178 
L 281.346092 121.302178 
L 281.346092 117.469782 
L 282.17569 117.469782 
L 282.17569 113.637386 
L 283.170892 113.637386 
L 283.170892 109.80499 
L 283.450169 109.80499 
L 283.497212 102.140198 
L 283.617853 102.140198 
L 283.617853 98.307802 
L 284.178156 98.307802 
L 284.178156 94.475406 
L 284.445303 94.475406 
L 284.543927 82.978218 
L 284.900408 82.978218 
L 284.900408 79.145822 
L 285.127185 79.145822 
L 285.231612 67.648634 
L 285.799315 67.648634 
L 285.799315 63.816238 
L 314.550775 63.816238 
L 314.621128 56.151446 
L 316.256485 56.151446 
L 316.256485 52.31905 
L 317.411199 52.31905 
L 317.411199 48.486653 
L 318.057763 48.486653 
L 318.057763 44.654257 
L 319.571761 44.654257 
L 319.571761 40.821861 
L 320.116636 40.821861 
L 320.116636 36.989465 
L 320.520838 36.989465 
L 320.540962 29.324673 
L 321.160842 29.324673 
L 321.160842 25.492277 
L 321.693777 25.492277 
L 321.693777 21.659881 
L 322.724531 21.659881 
L 322.724531 17.827485 
L 323.566551 17.827485 
L 323.566551 13.995089 
L 325.947384 13.995089 
L 325.947384 10.162693 
L 326.832759 10.162693 
L 326.832759 6.330297 
L 326.832759 6.330297 
L 460.8 6.330297 
L 460.8 6.330297 
" style="fill:none;stroke:#bf00bf;stroke-linecap:square;stroke-width:1.5;"/>
   </g>
   <g id="patch_3">
    <path d="M 0 293.76 
L 0 3.456 
" style="fill:none;stroke:#000000;stroke-linecap:square;stroke-linejoin:miter;stroke-width:0.8;"/>
   </g>
   <g id="patch_4">
    <path d="M 460.8 293.76 
L 460.8 3.456 
" style="fill:none;stroke:#000000;stroke-linecap:square;stroke-linejoin:miter;stroke-width:0.8;"/>
   </g>
   <g id="patch_5">
    <path d="M 0 293.76 
L 460.8 293.76 
" style="fill:none;stroke:#000000;stroke-linecap:square;stroke-linejoin:miter;stroke-width:0.8;"/>
   </g>
   <g id="patch_6">
    <path d="M 0 3.456 
L 460.8 3.456 
" style="fill:none;stroke:#000000;stroke-linecap:square;stroke-linejoin:miter;stroke-width:0.8;"/>
   </g>
   <g id="text_6">
    <!-- {f20-f24}, 20-D -->
    <g transform="translate(293.159 287.95392)scale(0.2 -0.2)">
     <defs>
      <path d="M 3272 -594 
L 3272 -1044 
L 3078 -1044 
Q 2300 -1044 2036 -812 
Q 1772 -581 1772 109 
L 1772 856 
Q 1772 1328 1603 1509 
Q 1434 1691 991 1691 
L 800 1691 
L 800 2138 
L 991 2138 
Q 1438 2138 1605 2317 
Q 1772 2497 1772 2963 
L 1772 3713 
Q 1772 4403 2036 4633 
Q 2300 4863 3078 4863 
L 3272 4863 
L 3272 4416 
L 3059 4416 
Q 2619 4416 2484 4278 
Q 2350 4141 2350 3700 
L 2350 2925 
Q 2350 2434 2208 2212 
Q 2066 1991 1722 1913 
Q 2069 1828 2209 1606 
Q 2350 1384 2350 897 
L 2350 122 
Q 2350 -319 2484 -456 
Q 2619 -594 3059 -594 
L 3272 -594 
z
" id="DejaVuSans-7b" transform="scale(0.015625)"/>
      <path d="M 1228 531 
L 3431 531 
L 3431 0 
L 469 0 
L 469 531 
Q 828 903 1448 1529 
Q 2069 2156 2228 2338 
Q 2531 2678 2651 2914 
Q 2772 3150 2772 3378 
Q 2772 3750 2511 3984 
Q 2250 4219 1831 4219 
Q 1534 4219 1204 4116 
Q 875 4013 500 3803 
L 500 4441 
Q 881 4594 1212 4672 
Q 1544 4750 1819 4750 
Q 2544 4750 2975 4387 
Q 3406 4025 3406 3419 
Q 3406 3131 3298 2873 
Q 3191 2616 2906 2266 
Q 2828 2175 2409 1742 
Q 1991 1309 1228 531 
z
" id="DejaVuSans-32" transform="scale(0.015625)"/>
      <path d="M 800 -594 
L 1019 -594 
Q 1456 -594 1589 -459 
Q 1722 -325 1722 122 
L 1722 897 
Q 1722 1384 1862 1606 
Q 2003 1828 2350 1913 
Q 2003 1991 1862 2212 
Q 1722 2434 1722 2925 
L 1722 3700 
Q 1722 4144 1589 4280 
Q 1456 4416 1019 4416 
L 800 4416 
L 800 4863 
L 997 4863 
Q 1775 4863 2036 4633 
Q 2297 4403 2297 3713 
L 2297 2963 
Q 2297 2497 2465 2317 
Q 2634 2138 3078 2138 
L 3272 2138 
L 3272 1691 
L 3078 1691 
Q 2634 1691 2465 1509 
Q 2297 1328 2297 856 
L 2297 109 
Q 2297 -581 2036 -812 
Q 1775 -1044 997 -1044 
L 800 -1044 
L 800 -594 
z
" id="DejaVuSans-7d" transform="scale(0.015625)"/>
      <path d="M 750 794 
L 1409 794 
L 1409 256 
L 897 -744 
L 494 -744 
L 750 256 
L 750 794 
z
" id="DejaVuSans-2c" transform="scale(0.015625)"/>
     </defs>
     <use xlink:href="#DejaVuSans-7b"/>
     <use x="63.623047" xlink:href="#DejaVuSans-66"/>
     <use x="98.828125" xlink:href="#DejaVuSans-32"/>
     <use x="162.451172" xlink:href="#DejaVuSans-30"/>
     <use x="226.074219" xlink:href="#DejaVuSans-2d"/>
     <use x="262.158203" xlink:href="#DejaVuSans-66"/>
     <use x="297.363281" xlink:href="#DejaVuSans-32"/>
     <use x="360.986328" xlink:href="#DejaVuSans-34"/>
     <use x="424.609375" xlink:href="#DejaVuSans-7d"/>
     <use x="488.232422" xlink:href="#DejaVuSans-2c"/>
     <use x="520.019531" xlink:href="#DejaVuSans-20"/>
     <use x="551.806641" xlink:href="#DejaVuSans-32"/>
     <use x="615.429688" xlink:href="#DejaVuSans-30"/>
     <use x="679.052734" xlink:href="#DejaVuSans-2d"/>
     <use x="715.136719" xlink:href="#DejaVuSans-44"/>
    </g>
   </g>
   <g id="text_7">
    <!-- v2.4 -->
    <g style="fill:#808080;" transform="translate(219.489063 288.777272)scale(0.1 -0.1)">
     <defs>
      <path d="M 191 3500 
L 800 3500 
L 1894 563 
L 2988 3500 
L 3597 3500 
L 2284 0 
L 1503 0 
L 191 3500 
z
" id="DejaVuSans-76" transform="scale(0.015625)"/>
      <path d="M 684 794 
L 1344 794 
L 1344 0 
L 684 0 
L 684 794 
z
" id="DejaVuSans-2e" transform="scale(0.015625)"/>
     </defs>
     <use xlink:href="#DejaVuSans-76"/>
     <use x="59.179688" xlink:href="#DejaVuSans-32"/>
     <use x="122.802734" xlink:href="#DejaVuSans-2e"/>
     <use x="154.589844" xlink:href="#DejaVuSans-34"/>
    </g>
   </g>
  </g>
 </g>
 <defs>
  <clipPath id="p64f8dd404c">
   <rect height="290.304" width="460.8" x="0" y="3.456"/>
  </clipPath>
 </defs>
</svg>
