<?xml version="1.0" encoding="utf-8" standalone="no"?>
<!DOCTYPE svg PUBLIC "-//W3C//DTD SVG 1.1//EN"
  "http://www.w3.org/Graphics/SVG/1.1/DTD/svg11.dtd">
<svg height="345.6pt" version="1.1" viewBox="0 0 460.8 345.6" width="460.8pt" xmlns="http://www.w3.org/2000/svg" xmlns:xlink="http://www.w3.org/1999/xlink">
 <metadata>
  <rdf:RDF xmlns:cc="http://creativecommons.org/ns#" xmlns:dc="http://purl.org/dc/elements/1.1/" xmlns:rdf="http://www.w3.org/1999/02/22-rdf-syntax-ns#">
   <cc:Work>
    <dc:type rdf:resource="http://purl.org/dc/dcmitype/StillImage"/>
    <dc:date>2021-06-14T12:33:45.458250</dc:date>
    <dc:format>image/svg+xml</dc:format>
    <dc:creator>
     <cc:Agent>
      <dc:title>Matplotlib v3.4.2, https://matplotlib.org/</dc:title>
     </cc:Agent>
    </dc:creator>
   </cc:Work>
  </rdf:RDF>
 </metadata>
 <defs>
  <style type="text/css">*{stroke-linecap:butt;stroke-linejoin:round;}</style>
 </defs>
 <g id="figure_1">
  <g id="patch_1">
   <path d="M 0 345.6 
L 460.8 345.6 
L 460.8 0 
L 0 0 
z
" style="fill:#ffffff;"/>
  </g>
  <g id="axes_1">
   <g id="patch_2">
    <path d="M 0 293.76 
L 460.8 293.76 
L 460.8 3.456 
L 0 3.456 
z
" style="fill:#ffffff;"/>
   </g>
   <g id="matplotlib.axis_1">
    <g id="xtick_1">
     <g id="line2d_1">
      <path clip-path="url(#p841ddb2776)" d="M 108.745186 293.76 
L 108.745186 3.456 
" style="fill:none;stroke:#b0b0b0;stroke-linecap:square;stroke-width:0.8;"/>
     </g>
     <g id="line2d_2">
      <defs>
       <path d="M 0 0 
L 0 3.5 
" id="m1bf90b9793" style="stroke:#000000;stroke-width:0.8;"/>
      </defs>
      <g>
       <use style="stroke:#000000;stroke-width:0.8;" x="108.745186" xlink:href="#m1bf90b9793" y="293.76"/>
      </g>
     </g>
     <g id="text_1">
      <!-- -4 -->
      <g transform="translate(98.774873 315.956875)scale(0.2 -0.2)">
       <defs>
        <path d="M 313 2009 
L 1997 2009 
L 1997 1497 
L 313 1497 
L 313 2009 
z
" id="DejaVuSans-2d" transform="scale(0.015625)"/>
        <path d="M 2419 4116 
L 825 1625 
L 2419 1625 
L 2419 4116 
z
M 2253 4666 
L 3047 4666 
L 3047 1625 
L 3713 1625 
L 3713 1100 
L 3047 1100 
L 3047 0 
L 2419 0 
L 2419 1100 
L 313 1100 
L 313 1709 
L 2253 4666 
z
" id="DejaVuSans-34" transform="scale(0.015625)"/>
       </defs>
       <use xlink:href="#DejaVuSans-2d"/>
       <use x="36.083984" xlink:href="#DejaVuSans-34"/>
      </g>
     </g>
    </g>
    <g id="xtick_2">
     <g id="line2d_3">
      <path clip-path="url(#p841ddb2776)" d="M 217.607981 293.76 
L 217.607981 3.456 
" style="fill:none;stroke:#b0b0b0;stroke-linecap:square;stroke-width:0.8;"/>
     </g>
     <g id="line2d_4">
      <g>
       <use style="stroke:#000000;stroke-width:0.8;" x="217.607981" xlink:href="#m1bf90b9793" y="293.76"/>
      </g>
     </g>
     <g id="text_2">
      <!-- 0 -->
      <g transform="translate(211.245481 315.956875)scale(0.2 -0.2)">
       <defs>
        <path d="M 2034 4250 
Q 1547 4250 1301 3770 
Q 1056 3291 1056 2328 
Q 1056 1369 1301 889 
Q 1547 409 2034 409 
Q 2525 409 2770 889 
Q 3016 1369 3016 2328 
Q 3016 3291 2770 3770 
Q 2525 4250 2034 4250 
z
M 2034 4750 
Q 2819 4750 3233 4129 
Q 3647 3509 3647 2328 
Q 3647 1150 3233 529 
Q 2819 -91 2034 -91 
Q 1250 -91 836 529 
Q 422 1150 422 2328 
Q 422 3509 836 4129 
Q 1250 4750 2034 4750 
z
" id="DejaVuSans-30" transform="scale(0.015625)"/>
       </defs>
       <use xlink:href="#DejaVuSans-30"/>
      </g>
     </g>
    </g>
    <g id="xtick_3">
     <g id="line2d_5">
      <path clip-path="url(#p841ddb2776)" d="M 326.470776 293.76 
L 326.470776 3.456 
" style="fill:none;stroke:#b0b0b0;stroke-linecap:square;stroke-width:0.8;"/>
     </g>
     <g id="line2d_6">
      <g>
       <use style="stroke:#000000;stroke-width:0.8;" x="326.470776" xlink:href="#m1bf90b9793" y="293.76"/>
      </g>
     </g>
     <g id="text_3">
      <!-- 4 -->
      <g transform="translate(320.108276 315.956875)scale(0.2 -0.2)">
       <use xlink:href="#DejaVuSans-34"/>
      </g>
     </g>
    </g>
    <g id="xtick_4">
     <g id="line2d_7">
      <path clip-path="url(#p841ddb2776)" d="M 435.333571 293.76 
L 435.333571 3.456 
" style="fill:none;stroke:#b0b0b0;stroke-linecap:square;stroke-width:0.8;"/>
     </g>
     <g id="line2d_8">
      <g>
       <use style="stroke:#000000;stroke-width:0.8;" x="435.333571" xlink:href="#m1bf90b9793" y="293.76"/>
      </g>
     </g>
     <g id="text_4">
      <!-- 8 -->
      <g transform="translate(428.971071 315.956875)scale(0.2 -0.2)">
       <defs>
        <path d="M 2034 2216 
Q 1584 2216 1326 1975 
Q 1069 1734 1069 1313 
Q 1069 891 1326 650 
Q 1584 409 2034 409 
Q 2484 409 2743 651 
Q 3003 894 3003 1313 
Q 3003 1734 2745 1975 
Q 2488 2216 2034 2216 
z
M 1403 2484 
Q 997 2584 770 2862 
Q 544 3141 544 3541 
Q 544 4100 942 4425 
Q 1341 4750 2034 4750 
Q 2731 4750 3128 4425 
Q 3525 4100 3525 3541 
Q 3525 3141 3298 2862 
Q 3072 2584 2669 2484 
Q 3125 2378 3379 2068 
Q 3634 1759 3634 1313 
Q 3634 634 3220 271 
Q 2806 -91 2034 -91 
Q 1263 -91 848 271 
Q 434 634 434 1313 
Q 434 1759 690 2068 
Q 947 2378 1403 2484 
z
M 1172 3481 
Q 1172 3119 1398 2916 
Q 1625 2713 2034 2713 
Q 2441 2713 2670 2916 
Q 2900 3119 2900 3481 
Q 2900 3844 2670 4047 
Q 2441 4250 2034 4250 
Q 1625 4250 1398 4047 
Q 1172 3844 1172 3481 
z
" id="DejaVuSans-38" transform="scale(0.015625)"/>
       </defs>
       <use xlink:href="#DejaVuSans-38"/>
      </g>
     </g>
    </g>
    <g id="text_5">
     <!-- log10 of Df -->
     <g transform="translate(175.214063 339.313125)scale(0.2 -0.2)">
      <defs>
       <path d="M 603 4863 
L 1178 4863 
L 1178 0 
L 603 0 
L 603 4863 
z
" id="DejaVuSans-6c" transform="scale(0.015625)"/>
       <path d="M 1959 3097 
Q 1497 3097 1228 2736 
Q 959 2375 959 1747 
Q 959 1119 1226 758 
Q 1494 397 1959 397 
Q 2419 397 2687 759 
Q 2956 1122 2956 1747 
Q 2956 2369 2687 2733 
Q 2419 3097 1959 3097 
z
M 1959 3584 
Q 2709 3584 3137 3096 
Q 3566 2609 3566 1747 
Q 3566 888 3137 398 
Q 2709 -91 1959 -91 
Q 1206 -91 779 398 
Q 353 888 353 1747 
Q 353 2609 779 3096 
Q 1206 3584 1959 3584 
z
" id="DejaVuSans-6f" transform="scale(0.015625)"/>
       <path d="M 2906 1791 
Q 2906 2416 2648 2759 
Q 2391 3103 1925 3103 
Q 1463 3103 1205 2759 
Q 947 2416 947 1791 
Q 947 1169 1205 825 
Q 1463 481 1925 481 
Q 2391 481 2648 825 
Q 2906 1169 2906 1791 
z
M 3481 434 
Q 3481 -459 3084 -895 
Q 2688 -1331 1869 -1331 
Q 1566 -1331 1297 -1286 
Q 1028 -1241 775 -1147 
L 775 -588 
Q 1028 -725 1275 -790 
Q 1522 -856 1778 -856 
Q 2344 -856 2625 -561 
Q 2906 -266 2906 331 
L 2906 616 
Q 2728 306 2450 153 
Q 2172 0 1784 0 
Q 1141 0 747 490 
Q 353 981 353 1791 
Q 353 2603 747 3093 
Q 1141 3584 1784 3584 
Q 2172 3584 2450 3431 
Q 2728 3278 2906 2969 
L 2906 3500 
L 3481 3500 
L 3481 434 
z
" id="DejaVuSans-67" transform="scale(0.015625)"/>
       <path d="M 794 531 
L 1825 531 
L 1825 4091 
L 703 3866 
L 703 4441 
L 1819 4666 
L 2450 4666 
L 2450 531 
L 3481 531 
L 3481 0 
L 794 0 
L 794 531 
z
" id="DejaVuSans-31" transform="scale(0.015625)"/>
       <path id="DejaVuSans-20" transform="scale(0.015625)"/>
       <path d="M 2375 4863 
L 2375 4384 
L 1825 4384 
Q 1516 4384 1395 4259 
Q 1275 4134 1275 3809 
L 1275 3500 
L 2222 3500 
L 2222 3053 
L 1275 3053 
L 1275 0 
L 697 0 
L 697 3053 
L 147 3053 
L 147 3500 
L 697 3500 
L 697 3744 
Q 697 4328 969 4595 
Q 1241 4863 1831 4863 
L 2375 4863 
z
" id="DejaVuSans-66" transform="scale(0.015625)"/>
       <path d="M 1259 4147 
L 1259 519 
L 2022 519 
Q 2988 519 3436 956 
Q 3884 1394 3884 2338 
Q 3884 3275 3436 3711 
Q 2988 4147 2022 4147 
L 1259 4147 
z
M 628 4666 
L 1925 4666 
Q 3281 4666 3915 4102 
Q 4550 3538 4550 2338 
Q 4550 1131 3912 565 
Q 3275 0 1925 0 
L 628 0 
L 628 4666 
z
" id="DejaVuSans-44" transform="scale(0.015625)"/>
      </defs>
      <use xlink:href="#DejaVuSans-6c"/>
      <use x="27.783203" xlink:href="#DejaVuSans-6f"/>
      <use x="88.964844" xlink:href="#DejaVuSans-67"/>
      <use x="152.441406" xlink:href="#DejaVuSans-31"/>
      <use x="216.064453" xlink:href="#DejaVuSans-30"/>
      <use x="279.6875" xlink:href="#DejaVuSans-20"/>
      <use x="311.474609" xlink:href="#DejaVuSans-6f"/>
      <use x="372.65625" xlink:href="#DejaVuSans-66"/>
      <use x="407.861328" xlink:href="#DejaVuSans-20"/>
      <use x="439.648438" xlink:href="#DejaVuSans-44"/>
      <use x="516.650391" xlink:href="#DejaVuSans-66"/>
     </g>
    </g>
   </g>
   <g id="matplotlib.axis_2">
    <g id="ytick_1">
     <g id="line2d_9">
      <path clip-path="url(#p841ddb2776)" d="M 0 293.76 
L 460.8 293.76 
" style="fill:none;stroke:#b0b0b0;stroke-linecap:square;stroke-width:0.8;"/>
     </g>
     <g id="line2d_10">
      <defs>
       <path d="M 0 0 
L -3.5 0 
" id="mbbfb992cb4" style="stroke:#000000;stroke-width:0.8;"/>
      </defs>
      <g>
       <use style="stroke:#000000;stroke-width:0.8;" x="0" xlink:href="#mbbfb992cb4" y="293.76"/>
      </g>
     </g>
    </g>
    <g id="ytick_2">
     <g id="line2d_11">
      <path clip-path="url(#p841ddb2776)" d="M 0 236.274059 
L 460.8 236.274059 
" style="fill:none;stroke:#b0b0b0;stroke-linecap:square;stroke-width:0.8;"/>
     </g>
     <g id="line2d_12">
      <g>
       <use style="stroke:#000000;stroke-width:0.8;" x="0" xlink:href="#mbbfb992cb4" y="236.274059"/>
      </g>
     </g>
    </g>
    <g id="ytick_3">
     <g id="line2d_13">
      <path clip-path="url(#p841ddb2776)" d="M 0 178.788119 
L 460.8 178.788119 
" style="fill:none;stroke:#b0b0b0;stroke-linecap:square;stroke-width:0.8;"/>
     </g>
     <g id="line2d_14">
      <g>
       <use style="stroke:#000000;stroke-width:0.8;" x="0" xlink:href="#mbbfb992cb4" y="178.788119"/>
      </g>
     </g>
    </g>
    <g id="ytick_4">
     <g id="line2d_15">
      <path clip-path="url(#p841ddb2776)" d="M 0 121.302178 
L 460.8 121.302178 
" style="fill:none;stroke:#b0b0b0;stroke-linecap:square;stroke-width:0.8;"/>
     </g>
     <g id="line2d_16">
      <g>
       <use style="stroke:#000000;stroke-width:0.8;" x="0" xlink:href="#mbbfb992cb4" y="121.302178"/>
      </g>
     </g>
    </g>
    <g id="ytick_5">
     <g id="line2d_17">
      <path clip-path="url(#p841ddb2776)" d="M 0 63.816238 
L 460.8 63.816238 
" style="fill:none;stroke:#b0b0b0;stroke-linecap:square;stroke-width:0.8;"/>
     </g>
     <g id="line2d_18">
      <g>
       <use style="stroke:#000000;stroke-width:0.8;" x="0" xlink:href="#mbbfb992cb4" y="63.816238"/>
      </g>
     </g>
    </g>
    <g id="ytick_6">
     <g id="line2d_19">
      <path clip-path="url(#p841ddb2776)" d="M 0 6.330297 
L 460.8 6.330297 
" style="fill:none;stroke:#b0b0b0;stroke-linecap:square;stroke-width:0.8;"/>
     </g>
     <g id="line2d_20">
      <g>
       <use style="stroke:#000000;stroke-width:0.8;" x="0" xlink:href="#mbbfb992cb4" y="6.330297"/>
      </g>
     </g>
    </g>
   </g>
   <g id="line2d_21">
    <path clip-path="url(#p841ddb2776)" d="M 259.434638 293.76 
L 259.434638 289.927604 
L 262.958782 289.927604 
L 262.958782 286.095208 
L 264.279434 286.095208 
L 264.279434 282.262812 
L 265.038183 282.262812 
L 265.123355 274.59802 
L 265.633153 274.59802 
L 265.633153 270.765624 
L 266.633638 270.765624 
L 266.633638 266.933228 
L 267.019522 266.933228 
L 267.019522 263.100832 
L 267.882036 263.100832 
L 267.882036 259.268436 
L 268.701751 259.268436 
L 268.701751 255.43604 
L 268.949376 255.43604 
L 268.949376 251.603644 
L 269.33639 251.603644 
L 269.390554 243.938851 
L 269.91887 243.938851 
L 269.91887 240.106455 
L 270.342427 240.106455 
L 270.342427 236.274059 
L 281.628681 236.274059 
L 281.628681 232.441663 
L 282.044806 232.441663 
L 282.044806 228.609267 
L 282.325515 228.609267 
L 282.417081 220.944475 
L 282.497895 220.944475 
L 282.497895 217.112079 
L 282.870211 217.112079 
L 282.933745 205.614891 
L 283.093795 205.614891 
L 283.093795 201.782495 
L 283.20668 201.782495 
L 283.216314 194.117703 
L 283.37009 194.117703 
L 283.37009 190.285307 
L 283.483717 190.285307 
L 283.550525 182.620515 
L 283.787274 182.620515 
L 283.787274 178.788119 
L 286.279463 178.788119 
L 286.279463 174.955723 
L 286.973477 174.955723 
L 286.973477 171.123327 
L 288.086197 171.123327 
L 288.086197 167.290931 
L 288.451652 167.290931 
L 288.451652 163.458535 
L 288.788157 163.458535 
L 288.788157 159.626139 
L 288.997522 159.626139 
L 289.0478 148.12895 
L 289.283525 148.12895 
L 289.330315 140.464158 
L 289.425793 140.464158 
L 289.425793 136.631762 
L 289.661716 136.631762 
L 289.662353 128.96697 
L 289.972994 128.96697 
L 290.000841 117.469782 
L 290.252179 117.469782 
L 290.269539 109.80499 
L 290.498186 109.80499 
L 290.498186 105.972594 
L 291.05478 105.972594 
L 291.05478 102.140198 
L 291.211003 102.140198 
L 291.255308 94.475406 
L 291.409968 94.475406 
L 291.409968 90.64301 
L 291.668115 90.64301 
L 291.738121 82.978218 
L 291.966622 82.978218 
L 291.966622 79.145822 
L 292.302982 79.145822 
L 292.302982 75.313426 
L 292.434053 75.313426 
L 292.533838 67.648634 
L 292.804929 67.648634 
L 292.804929 63.816238 
L 370.246495 63.816238 
L 370.246495 59.983842 
L 370.60235 59.983842 
L 370.60235 56.151446 
L 371.261748 56.151446 
L 371.261748 52.31905 
L 373.795375 52.31905 
L 373.795375 48.486653 
L 374.258471 48.486653 
L 374.258471 44.654257 
L 375.72714 44.654257 
L 375.72714 40.821861 
L 376.168628 40.821861 
L 376.168628 36.989465 
L 377.208162 36.989465 
L 377.208162 33.157069 
L 377.969887 33.157069 
L 377.969887 29.324673 
L 379.307694 29.324673 
L 379.406741 21.659881 
L 380.842929 21.659881 
L 380.842929 17.827485 
L 380.975451 17.827485 
L 380.975451 13.995089 
L 381.146232 13.995089 
L 381.146232 10.162693 
L 381.917231 10.162693 
L 381.917231 6.330297 
L 381.917231 6.330297 
L 460.8 6.330297 
L 460.8 6.330297 
" style="fill:none;stroke:#ff0000;stroke-linecap:square;stroke-width:3;"/>
   </g>
   <g id="line2d_22">
    <path clip-path="url(#p841ddb2776)" d="M 265.123355 293.76 
L 265.123355 289.927604 
L 266.606902 289.927604 
L 266.606902 286.095208 
L 269.118959 286.095208 
L 269.118959 282.262812 
L 269.361086 282.262812 
L 269.462768 274.59802 
L 270.041116 274.59802 
L 270.041116 270.765624 
L 270.282639 270.765624 
L 270.282639 266.933228 
L 270.44779 266.933228 
L 270.44779 263.100832 
L 271.206939 263.100832 
L 271.206939 259.268436 
L 272.427376 259.268436 
L 272.427376 255.43604 
L 272.729545 255.43604 
L 272.729545 251.603644 
L 273.035289 251.603644 
L 273.035289 247.771248 
L 273.740801 247.771248 
L 273.740801 243.938851 
L 274.321349 243.938851 
L 274.321349 240.106455 
L 274.806161 240.106455 
L 274.806161 236.274059 
L 286.549427 236.274059 
L 286.549427 232.441663 
L 287.003155 232.441663 
L 287.111365 220.944475 
L 287.234371 220.944475 
L 287.331739 205.614891 
L 287.401168 205.614891 
L 287.501155 194.117703 
L 287.592177 194.117703 
L 287.658501 182.620515 
L 287.720483 182.620515 
L 287.720483 178.788119 
L 289.839398 178.788119 
L 289.839398 174.955723 
L 290.272709 174.955723 
L 290.272709 171.123327 
L 290.955306 171.123327 
L 290.955306 167.290931 
L 291.317171 167.290931 
L 291.376756 159.626139 
L 291.504 159.626139 
L 291.566317 151.961347 
L 292.331498 151.961347 
L 292.331498 148.12895 
L 293.19347 148.12895 
L 293.19347 144.296554 
L 293.378318 144.296554 
L 293.378318 140.464158 
L 293.826904 140.464158 
L 293.858476 132.799366 
L 293.938484 132.799366 
L 293.944968 125.134574 
L 294.087932 125.134574 
L 294.087932 121.302178 
L 294.271591 121.302178 
L 294.312579 113.637386 
L 294.541968 113.637386 
L 294.649981 105.972594 
L 294.7816 105.972594 
L 294.876065 98.307802 
L 295.280427 98.307802 
L 295.336167 90.64301 
L 295.490666 90.64301 
L 295.490666 86.810614 
L 295.965647 86.810614 
L 295.987202 79.145822 
L 296.413269 79.145822 
L 296.413269 75.313426 
L 296.76404 75.313426 
L 296.76404 71.48103 
L 296.912901 71.48103 
L 296.912901 67.648634 
L 297.975142 67.648634 
L 297.975142 63.816238 
L 390.72291 63.816238 
L 390.72291 59.983842 
L 394.550355 59.983842 
L 394.550355 56.151446 
L 395.513867 56.151446 
L 395.513867 52.31905 
L 396.065926 52.31905 
L 396.065926 48.486653 
L 397.822276 48.486653 
L 397.822276 44.654257 
L 398.281433 44.654257 
L 398.281433 40.821861 
L 398.628321 40.821861 
L 398.628321 36.989465 
L 400.191973 36.989465 
L 400.191973 33.157069 
L 401.426621 33.157069 
L 401.426621 29.324673 
L 402.400279 29.324673 
L 402.400279 25.492277 
L 402.756911 25.492277 
L 402.756911 21.659881 
L 403.751216 21.659881 
L 403.751216 17.827485 
L 404.170549 17.827485 
L 404.170549 13.995089 
L 407.112312 13.995089 
L 407.112312 10.162693 
L 410.940361 10.162693 
L 410.940361 6.330297 
L 410.940361 6.330297 
L 460.8 6.330297 
L 460.8 6.330297 
" style="fill:none;stroke:#00bfbf;stroke-linecap:square;stroke-width:1.5;"/>
   </g>
   <g id="line2d_23">
    <path clip-path="url(#p841ddb2776)" d="M 265.038183 293.76 
L 265.123355 286.095208 
L 266.606902 286.095208 
L 266.606902 282.262812 
L 269.118959 282.262812 
L 269.118959 278.430416 
L 269.351442 278.430416 
L 269.361086 270.765624 
L 269.462768 270.765624 
L 269.462768 266.933228 
L 270.041116 266.933228 
L 270.041116 263.100832 
L 270.282639 263.100832 
L 270.282639 259.268436 
L 271.622573 259.268436 
L 271.622573 255.43604 
L 272.427376 255.43604 
L 272.427376 251.603644 
L 272.634477 251.603644 
L 272.634477 247.771248 
L 273.035289 247.771248 
L 273.035289 243.938851 
L 273.728009 243.938851 
L 273.740801 236.274059 
L 285.409012 236.274059 
L 285.409012 232.441663 
L 285.689716 232.441663 
L 285.689716 228.609267 
L 285.826742 228.609267 
L 285.826742 224.776871 
L 286.24409 224.776871 
L 286.24409 220.944475 
L 286.4325 220.944475 
L 286.4325 217.112079 
L 286.549427 217.112079 
L 286.608437 209.447287 
L 286.680824 209.447287 
L 286.680824 205.614891 
L 287.091621 205.614891 
L 287.091621 201.782495 
L 287.233721 201.782495 
L 287.331739 186.452911 
L 287.658501 186.452911 
L 287.720483 178.788119 
L 289.839398 178.788119 
L 289.839398 174.955723 
L 290.272709 174.955723 
L 290.272709 171.123327 
L 290.863561 171.123327 
L 290.955306 163.458535 
L 291.317171 163.458535 
L 291.376756 155.793743 
L 291.566317 155.793743 
L 291.566317 151.961347 
L 292.040174 151.961347 
L 292.040174 148.12895 
L 292.331498 148.12895 
L 292.331498 144.296554 
L 293.19347 144.296554 
L 293.19347 140.464158 
L 293.686845 140.464158 
L 293.686845 136.631762 
L 293.826904 136.631762 
L 293.858476 128.96697 
L 293.938484 128.96697 
L 293.944968 121.302178 
L 294.087932 121.302178 
L 294.087932 117.469782 
L 294.271591 117.469782 
L 294.312579 109.80499 
L 294.427985 109.80499 
L 294.427985 105.972594 
L 294.649981 105.972594 
L 294.649981 102.140198 
L 294.7816 102.140198 
L 294.876065 94.475406 
L 295.080861 94.475406 
L 295.080861 90.64301 
L 295.280427 90.64301 
L 295.336167 79.145822 
L 295.965647 79.145822 
L 296.000416 67.648634 
L 296.912901 67.648634 
L 296.912901 63.816238 
L 380.975451 63.816238 
L 380.975451 59.983842 
L 389.510634 59.983842 
L 389.510634 56.151446 
L 393.920609 56.151446 
L 393.920609 52.31905 
L 394.550355 52.31905 
L 394.550355 48.486653 
L 395.468826 48.486653 
L 395.513867 40.821861 
L 396.4932 40.821861 
L 396.4932 36.989465 
L 397.822276 36.989465 
L 397.822276 33.157069 
L 398.281433 33.157069 
L 398.281433 29.324673 
L 399.359563 29.324673 
L 399.359563 25.492277 
L 400.404049 25.492277 
L 400.404049 21.659881 
L 402.756911 21.659881 
L 402.756911 17.827485 
L 403.625004 17.827485 
L 403.625004 13.995089 
L 403.751216 13.995089 
L 403.751216 10.162693 
L 404.170549 10.162693 
L 404.170549 6.330297 
L 404.170549 6.330297 
L 460.8 6.330297 
L 460.8 6.330297 
" style="fill:none;stroke:#bf00bf;stroke-linecap:square;stroke-width:1.5;"/>
   </g>
   <g id="line2d_24">
    <path clip-path="url(#p841ddb2776)" d="M 265.038183 293.76 
L 265.123355 286.095208 
L 266.606902 286.095208 
L 266.606902 282.262812 
L 268.360696 282.262812 
L 268.360696 278.430416 
L 269.351442 278.430416 
L 269.361086 270.765624 
L 269.462768 270.765624 
L 269.462768 266.933228 
L 270.041116 266.933228 
L 270.041116 263.100832 
L 270.282639 263.100832 
L 270.282639 259.268436 
L 270.757619 259.268436 
L 270.845163 251.603644 
L 271.622573 251.603644 
L 271.622573 247.771248 
L 272.427376 247.771248 
L 272.427376 243.938851 
L 272.634477 243.938851 
L 272.634477 240.106455 
L 273.035289 240.106455 
L 273.035289 236.274059 
L 283.726848 236.274059 
L 283.726848 232.441663 
L 284.043404 232.441663 
L 284.043404 228.609267 
L 284.240805 228.609267 
L 284.240805 224.776871 
L 284.371296 224.776871 
L 284.371296 220.944475 
L 284.537389 220.944475 
L 284.537389 217.112079 
L 284.916723 217.112079 
L 284.958342 209.447287 
L 285.358551 209.447287 
L 285.409012 201.782495 
L 285.689716 201.782495 
L 285.763926 190.285307 
L 285.826742 190.285307 
L 285.826742 186.452911 
L 286.301946 186.452911 
L 286.301946 182.620515 
L 286.549427 182.620515 
L 286.549427 178.788119 
L 289.707973 178.788119 
L 289.707973 174.955723 
L 290.272709 174.955723 
L 290.272709 171.123327 
L 290.863561 171.123327 
L 290.955306 163.458535 
L 291.312014 163.458535 
L 291.376756 151.961347 
L 291.566317 151.961347 
L 291.566317 148.12895 
L 291.679502 148.12895 
L 291.679502 144.296554 
L 292.040174 144.296554 
L 292.040174 140.464158 
L 292.331498 140.464158 
L 292.331498 136.631762 
L 292.751521 136.631762 
L 292.751521 132.799366 
L 293.19347 132.799366 
L 293.19347 128.96697 
L 293.826904 128.96697 
L 293.858476 121.302178 
L 293.938484 121.302178 
L 293.944968 113.637386 
L 294.087932 113.637386 
L 294.087932 109.80499 
L 294.233694 109.80499 
L 294.312579 98.307802 
L 294.427985 98.307802 
L 294.427985 94.475406 
L 294.649981 94.475406 
L 294.649981 90.64301 
L 294.7816 90.64301 
L 294.876065 82.978218 
L 295.080861 82.978218 
L 295.080861 79.145822 
L 295.280427 79.145822 
L 295.36746 71.48103 
L 295.987202 71.48103 
L 295.987202 67.648634 
L 296.912901 67.648634 
L 296.912901 63.816238 
L 380.975451 63.816238 
L 380.975451 59.983842 
L 383.249714 59.983842 
L 383.249714 56.151446 
L 389.510634 56.151446 
L 389.543814 48.486653 
L 390.538791 48.486653 
L 390.538791 44.654257 
L 391.400698 44.654257 
L 391.400698 40.821861 
L 392.704445 40.821861 
L 392.704445 36.989465 
L 394.550355 36.989465 
L 394.562684 29.324673 
L 395.104459 29.324673 
L 395.104459 25.492277 
L 395.513867 25.492277 
L 395.513867 21.659881 
L 396.50026 21.659881 
L 396.50026 17.827485 
L 396.776385 17.827485 
L 396.776385 13.995089 
L 397.822276 13.995089 
L 397.822276 10.162693 
L 399.215261 10.162693 
L 399.215261 6.330297 
L 399.215261 6.330297 
L 460.8 6.330297 
L 460.8 6.330297 
" style="fill:none;stroke:#000000;stroke-linecap:square;stroke-width:1.5;"/>
   </g>
   <g id="line2d_25">
    <path clip-path="url(#p841ddb2776)" d="M 265.038183 293.76 
L 265.123355 286.095208 
L 266.606902 286.095208 
L 266.606902 282.262812 
L 268.360696 282.262812 
L 268.360696 278.430416 
L 269.351442 278.430416 
L 269.361086 270.765624 
L 269.462768 270.765624 
L 269.462768 266.933228 
L 270.041116 266.933228 
L 270.041116 263.100832 
L 270.282639 263.100832 
L 270.282639 259.268436 
L 270.757619 259.268436 
L 270.845163 251.603644 
L 271.622573 251.603644 
L 271.622573 247.771248 
L 272.427376 247.771248 
L 272.427376 243.938851 
L 272.634477 243.938851 
L 272.634477 240.106455 
L 273.035289 240.106455 
L 273.035289 236.274059 
L 283.392923 236.274059 
L 283.495908 228.609267 
L 283.726848 228.609267 
L 283.726848 224.776871 
L 284.043404 224.776871 
L 284.043404 220.944475 
L 284.289373 220.944475 
L 284.289373 217.112079 
L 284.469121 217.112079 
L 284.569989 209.447287 
L 284.63271 209.447287 
L 284.73706 201.782495 
L 284.851868 201.782495 
L 284.958342 190.285307 
L 285.409012 190.285307 
L 285.49677 182.620515 
L 285.826742 182.620515 
L 285.826742 178.788119 
L 289.662353 178.788119 
L 289.707973 171.123327 
L 290.272709 171.123327 
L 290.272709 167.290931 
L 290.863561 167.290931 
L 290.955306 159.626139 
L 291.312014 159.626139 
L 291.376756 148.12895 
L 291.566317 148.12895 
L 291.566317 144.296554 
L 291.679502 144.296554 
L 291.679502 140.464158 
L 291.951169 140.464158 
L 292.040174 132.799366 
L 292.085474 132.799366 
L 292.158767 125.134574 
L 292.277397 125.134574 
L 292.351748 109.80499 
L 292.751521 109.80499 
L 292.751521 105.972594 
L 293.493418 105.972594 
L 293.493418 102.140198 
L 293.637849 102.140198 
L 293.637849 98.307802 
L 293.826904 98.307802 
L 293.826904 94.475406 
L 293.944968 94.475406 
L 293.944968 90.64301 
L 294.312579 90.64301 
L 294.312579 86.810614 
L 294.695745 86.810614 
L 294.7816 79.145822 
L 294.810401 79.145822 
L 294.876065 71.48103 
L 295.030718 71.48103 
L 295.030718 67.648634 
L 295.280427 67.648634 
L 295.280427 63.816238 
L 380.975451 63.816238 
L 380.975451 59.983842 
L 381.184416 59.983842 
L 381.184416 56.151446 
L 382.255107 56.151446 
L 382.255107 52.31905 
L 382.480354 52.31905 
L 382.480354 48.486653 
L 383.249714 48.486653 
L 383.249714 44.654257 
L 383.606696 44.654257 
L 383.606696 40.821861 
L 385.852694 40.821861 
L 385.852694 36.989465 
L 386.998505 36.989465 
L 386.998505 33.157069 
L 388.32419 33.157069 
L 388.32419 29.324673 
L 389.412384 29.324673 
L 389.412384 25.492277 
L 391.400698 25.492277 
L 391.400698 21.659881 
L 393.167241 21.659881 
L 393.167241 17.827485 
L 395.104459 17.827485 
L 395.104459 13.995089 
L 395.217555 13.995089 
L 395.217555 10.162693 
L 398.492257 10.162693 
L 398.492257 6.330297 
L 398.492257 6.330297 
L 460.8 6.330297 
L 460.8 6.330297 
" style="fill:none;stroke:#00bfbf;stroke-linecap:square;stroke-width:1.5;"/>
   </g>
   <g id="line2d_26">
    <path clip-path="url(#p841ddb2776)" d="M 259.434638 293.76 
L 259.434638 289.927604 
L 262.958782 289.927604 
L 262.958782 286.095208 
L 264.279434 286.095208 
L 264.279434 282.262812 
L 265.038183 282.262812 
L 265.123355 274.59802 
L 265.633153 274.59802 
L 265.633153 270.765624 
L 266.633638 270.765624 
L 266.633638 266.933228 
L 267.019522 266.933228 
L 267.019522 263.100832 
L 267.882036 263.100832 
L 267.882036 259.268436 
L 268.701751 259.268436 
L 268.701751 255.43604 
L 268.949376 255.43604 
L 268.949376 251.603644 
L 269.33639 251.603644 
L 269.390554 243.938851 
L 269.91887 243.938851 
L 269.91887 240.106455 
L 270.342427 240.106455 
L 270.342427 236.274059 
L 281.628681 236.274059 
L 281.628681 232.441663 
L 282.044806 232.441663 
L 282.044806 228.609267 
L 282.325515 228.609267 
L 282.417081 220.944475 
L 282.497895 220.944475 
L 282.497895 217.112079 
L 282.870211 217.112079 
L 282.933745 205.614891 
L 283.093795 205.614891 
L 283.093795 201.782495 
L 283.20668 201.782495 
L 283.216314 194.117703 
L 283.37009 194.117703 
L 283.37009 190.285307 
L 283.483717 190.285307 
L 283.550525 182.620515 
L 283.787274 182.620515 
L 283.787274 178.788119 
L 286.279463 178.788119 
L 286.279463 174.955723 
L 286.973477 174.955723 
L 286.973477 171.123327 
L 288.086197 171.123327 
L 288.086197 167.290931 
L 288.451652 167.290931 
L 288.451652 163.458535 
L 288.788157 163.458535 
L 288.788157 159.626139 
L 288.997522 159.626139 
L 289.0478 148.12895 
L 289.283525 148.12895 
L 289.330315 140.464158 
L 289.425793 140.464158 
L 289.425793 136.631762 
L 289.661716 136.631762 
L 289.662353 128.96697 
L 289.972994 128.96697 
L 290.000841 117.469782 
L 290.252179 117.469782 
L 290.269539 109.80499 
L 290.498186 109.80499 
L 290.498186 105.972594 
L 291.05478 105.972594 
L 291.05478 102.140198 
L 291.211003 102.140198 
L 291.255308 94.475406 
L 291.409968 94.475406 
L 291.409968 90.64301 
L 291.668115 90.64301 
L 291.738121 82.978218 
L 291.966622 82.978218 
L 291.966622 79.145822 
L 292.302982 79.145822 
L 292.302982 75.313426 
L 292.434053 75.313426 
L 292.533838 67.648634 
L 292.804929 67.648634 
L 292.804929 63.816238 
L 370.246495 63.816238 
L 370.246495 59.983842 
L 370.60235 59.983842 
L 370.60235 56.151446 
L 371.261748 56.151446 
L 371.261748 52.31905 
L 373.795375 52.31905 
L 373.795375 48.486653 
L 374.258471 48.486653 
L 374.258471 44.654257 
L 375.72714 44.654257 
L 375.72714 40.821861 
L 376.168628 40.821861 
L 376.168628 36.989465 
L 377.208162 36.989465 
L 377.208162 33.157069 
L 377.969887 33.157069 
L 377.969887 29.324673 
L 379.307694 29.324673 
L 379.406741 21.659881 
L 380.842929 21.659881 
L 380.842929 17.827485 
L 380.975451 17.827485 
L 380.975451 13.995089 
L 381.146232 13.995089 
L 381.146232 10.162693 
L 381.917231 10.162693 
L 381.917231 6.330297 
L 381.917231 6.330297 
L 460.8 6.330297 
L 460.8 6.330297 
" style="fill:none;stroke:#bf00bf;stroke-linecap:square;stroke-width:1.5;"/>
   </g>
   <g id="patch_3">
    <path d="M 0 293.76 
L 0 3.456 
" style="fill:none;stroke:#000000;stroke-linecap:square;stroke-linejoin:miter;stroke-width:0.8;"/>
   </g>
   <g id="patch_4">
    <path d="M 460.8 293.76 
L 460.8 3.456 
" style="fill:none;stroke:#000000;stroke-linecap:square;stroke-linejoin:miter;stroke-width:0.8;"/>
   </g>
   <g id="patch_5">
    <path d="M 0 293.76 
L 460.8 293.76 
" style="fill:none;stroke:#000000;stroke-linecap:square;stroke-linejoin:miter;stroke-width:0.8;"/>
   </g>
   <g id="patch_6">
    <path d="M 0 3.456 
L 460.8 3.456 
" style="fill:none;stroke:#000000;stroke-linecap:square;stroke-linejoin:miter;stroke-width:0.8;"/>
   </g>
   <g id="text_6">
    <!-- {f1-f5}, 20-D -->
    <g transform="translate(318.609 287.95392)scale(0.2 -0.2)">
     <defs>
      <path d="M 3272 -594 
L 3272 -1044 
L 3078 -1044 
Q 2300 -1044 2036 -812 
Q 1772 -581 1772 109 
L 1772 856 
Q 1772 1328 1603 1509 
Q 1434 1691 991 1691 
L 800 1691 
L 800 2138 
L 991 2138 
Q 1438 2138 1605 2317 
Q 1772 2497 1772 2963 
L 1772 3713 
Q 1772 4403 2036 4633 
Q 2300 4863 3078 4863 
L 3272 4863 
L 3272 4416 
L 3059 4416 
Q 2619 4416 2484 4278 
Q 2350 4141 2350 3700 
L 2350 2925 
Q 2350 2434 2208 2212 
Q 2066 1991 1722 1913 
Q 2069 1828 2209 1606 
Q 2350 1384 2350 897 
L 2350 122 
Q 2350 -319 2484 -456 
Q 2619 -594 3059 -594 
L 3272 -594 
z
" id="DejaVuSans-7b" transform="scale(0.015625)"/>
      <path d="M 691 4666 
L 3169 4666 
L 3169 4134 
L 1269 4134 
L 1269 2991 
Q 1406 3038 1543 3061 
Q 1681 3084 1819 3084 
Q 2600 3084 3056 2656 
Q 3513 2228 3513 1497 
Q 3513 744 3044 326 
Q 2575 -91 1722 -91 
Q 1428 -91 1123 -41 
Q 819 9 494 109 
L 494 744 
Q 775 591 1075 516 
Q 1375 441 1709 441 
Q 2250 441 2565 725 
Q 2881 1009 2881 1497 
Q 2881 1984 2565 2268 
Q 2250 2553 1709 2553 
Q 1456 2553 1204 2497 
Q 953 2441 691 2322 
L 691 4666 
z
" id="DejaVuSans-35" transform="scale(0.015625)"/>
      <path d="M 800 -594 
L 1019 -594 
Q 1456 -594 1589 -459 
Q 1722 -325 1722 122 
L 1722 897 
Q 1722 1384 1862 1606 
Q 2003 1828 2350 1913 
Q 2003 1991 1862 2212 
Q 1722 2434 1722 2925 
L 1722 3700 
Q 1722 4144 1589 4280 
Q 1456 4416 1019 4416 
L 800 4416 
L 800 4863 
L 997 4863 
Q 1775 4863 2036 4633 
Q 2297 4403 2297 3713 
L 2297 2963 
Q 2297 2497 2465 2317 
Q 2634 2138 3078 2138 
L 3272 2138 
L 3272 1691 
L 3078 1691 
Q 2634 1691 2465 1509 
Q 2297 1328 2297 856 
L 2297 109 
Q 2297 -581 2036 -812 
Q 1775 -1044 997 -1044 
L 800 -1044 
L 800 -594 
z
" id="DejaVuSans-7d" transform="scale(0.015625)"/>
      <path d="M 750 794 
L 1409 794 
L 1409 256 
L 897 -744 
L 494 -744 
L 750 256 
L 750 794 
z
" id="DejaVuSans-2c" transform="scale(0.015625)"/>
      <path d="M 1228 531 
L 3431 531 
L 3431 0 
L 469 0 
L 469 531 
Q 828 903 1448 1529 
Q 2069 2156 2228 2338 
Q 2531 2678 2651 2914 
Q 2772 3150 2772 3378 
Q 2772 3750 2511 3984 
Q 2250 4219 1831 4219 
Q 1534 4219 1204 4116 
Q 875 4013 500 3803 
L 500 4441 
Q 881 4594 1212 4672 
Q 1544 4750 1819 4750 
Q 2544 4750 2975 4387 
Q 3406 4025 3406 3419 
Q 3406 3131 3298 2873 
Q 3191 2616 2906 2266 
Q 2828 2175 2409 1742 
Q 1991 1309 1228 531 
z
" id="DejaVuSans-32" transform="scale(0.015625)"/>
     </defs>
     <use xlink:href="#DejaVuSans-7b"/>
     <use x="63.623047" xlink:href="#DejaVuSans-66"/>
     <use x="98.828125" xlink:href="#DejaVuSans-31"/>
     <use x="162.451172" xlink:href="#DejaVuSans-2d"/>
     <use x="198.535156" xlink:href="#DejaVuSans-66"/>
     <use x="233.740234" xlink:href="#DejaVuSans-35"/>
     <use x="297.363281" xlink:href="#DejaVuSans-7d"/>
     <use x="360.986328" xlink:href="#DejaVuSans-2c"/>
     <use x="392.773438" xlink:href="#DejaVuSans-20"/>
     <use x="424.560547" xlink:href="#DejaVuSans-32"/>
     <use x="488.183594" xlink:href="#DejaVuSans-30"/>
     <use x="551.806641" xlink:href="#DejaVuSans-2d"/>
     <use x="587.890625" xlink:href="#DejaVuSans-44"/>
    </g>
   </g>
   <g id="text_7">
    <!-- v2.4 -->
    <g style="fill:#808080;" transform="translate(219.489063 288.777272)scale(0.1 -0.1)">
     <defs>
      <path d="M 191 3500 
L 800 3500 
L 1894 563 
L 2988 3500 
L 3597 3500 
L 2284 0 
L 1503 0 
L 191 3500 
z
" id="DejaVuSans-76" transform="scale(0.015625)"/>
      <path d="M 684 794 
L 1344 794 
L 1344 0 
L 684 0 
L 684 794 
z
" id="DejaVuSans-2e" transform="scale(0.015625)"/>
     </defs>
     <use xlink:href="#DejaVuSans-76"/>
     <use x="59.179688" xlink:href="#DejaVuSans-32"/>
     <use x="122.802734" xlink:href="#DejaVuSans-2e"/>
     <use x="154.589844" xlink:href="#DejaVuSans-34"/>
    </g>
   </g>
  </g>
 </g>
 <defs>
  <clipPath id="p841ddb2776">
   <rect height="290.304" width="460.8" x="0" y="3.456"/>
  </clipPath>
 </defs>
</svg>
