<?xml version="1.0" encoding="utf-8" standalone="no"?>
<!DOCTYPE svg PUBLIC "-//W3C//DTD SVG 1.1//EN"
  "http://www.w3.org/Graphics/SVG/1.1/DTD/svg11.dtd">
<svg height="345.6pt" version="1.1" viewBox="0 0 460.8 345.6" width="460.8pt" xmlns="http://www.w3.org/2000/svg" xmlns:xlink="http://www.w3.org/1999/xlink">
 <metadata>
  <rdf:RDF xmlns:cc="http://creativecommons.org/ns#" xmlns:dc="http://purl.org/dc/elements/1.1/" xmlns:rdf="http://www.w3.org/1999/02/22-rdf-syntax-ns#">
   <cc:Work>
    <dc:type rdf:resource="http://purl.org/dc/dcmitype/StillImage"/>
    <dc:date>2021-06-14T12:33:37.393158</dc:date>
    <dc:format>image/svg+xml</dc:format>
    <dc:creator>
     <cc:Agent>
      <dc:title>Matplotlib v3.4.2, https://matplotlib.org/</dc:title>
     </cc:Agent>
    </dc:creator>
   </cc:Work>
  </rdf:RDF>
 </metadata>
 <defs>
  <style type="text/css">*{stroke-linecap:butt;stroke-linejoin:round;}</style>
 </defs>
 <g id="figure_1">
  <g id="patch_1">
   <path d="M 0 345.6 
L 460.8 345.6 
L 460.8 0 
L 0 0 
z
" style="fill:#ffffff;"/>
  </g>
  <g id="axes_1">
   <g id="patch_2">
    <path d="M 0 293.76 
L 460.8 293.76 
L 460.8 3.456 
L 0 3.456 
z
" style="fill:#ffffff;"/>
   </g>
   <g id="matplotlib.axis_1">
    <g id="xtick_1">
     <g id="line2d_1">
      <path clip-path="url(#pc33407051a)" d="M 109.321328 293.76 
L 109.321328 3.456 
" style="fill:none;stroke:#b0b0b0;stroke-linecap:square;stroke-width:0.8;"/>
     </g>
     <g id="line2d_2">
      <defs>
       <path d="M 0 0 
L 0 3.5 
" id="m232394a9c0" style="stroke:#000000;stroke-width:0.8;"/>
      </defs>
      <g>
       <use style="stroke:#000000;stroke-width:0.8;" x="109.321328" xlink:href="#m232394a9c0" y="293.76"/>
      </g>
     </g>
     <g id="text_1">
      <!-- -4 -->
      <g transform="translate(99.351016 315.956875)scale(0.2 -0.2)">
       <defs>
        <path d="M 313 2009 
L 1997 2009 
L 1997 1497 
L 313 1497 
L 313 2009 
z
" id="DejaVuSans-2d" transform="scale(0.015625)"/>
        <path d="M 2419 4116 
L 825 1625 
L 2419 1625 
L 2419 4116 
z
M 2253 4666 
L 3047 4666 
L 3047 1625 
L 3713 1625 
L 3713 1100 
L 3047 1100 
L 3047 0 
L 2419 0 
L 2419 1100 
L 313 1100 
L 313 1709 
L 2253 4666 
z
" id="DejaVuSans-34" transform="scale(0.015625)"/>
       </defs>
       <use xlink:href="#DejaVuSans-2d"/>
       <use x="36.083984" xlink:href="#DejaVuSans-34"/>
      </g>
     </g>
    </g>
    <g id="xtick_2">
     <g id="line2d_3">
      <path clip-path="url(#pc33407051a)" d="M 218.760889 293.76 
L 218.760889 3.456 
" style="fill:none;stroke:#b0b0b0;stroke-linecap:square;stroke-width:0.8;"/>
     </g>
     <g id="line2d_4">
      <g>
       <use style="stroke:#000000;stroke-width:0.8;" x="218.760889" xlink:href="#m232394a9c0" y="293.76"/>
      </g>
     </g>
     <g id="text_2">
      <!-- 0 -->
      <g transform="translate(212.398389 315.956875)scale(0.2 -0.2)">
       <defs>
        <path d="M 2034 4250 
Q 1547 4250 1301 3770 
Q 1056 3291 1056 2328 
Q 1056 1369 1301 889 
Q 1547 409 2034 409 
Q 2525 409 2770 889 
Q 3016 1369 3016 2328 
Q 3016 3291 2770 3770 
Q 2525 4250 2034 4250 
z
M 2034 4750 
Q 2819 4750 3233 4129 
Q 3647 3509 3647 2328 
Q 3647 1150 3233 529 
Q 2819 -91 2034 -91 
Q 1250 -91 836 529 
Q 422 1150 422 2328 
Q 422 3509 836 4129 
Q 1250 4750 2034 4750 
z
" id="DejaVuSans-30" transform="scale(0.015625)"/>
       </defs>
       <use xlink:href="#DejaVuSans-30"/>
      </g>
     </g>
    </g>
    <g id="xtick_3">
     <g id="line2d_5">
      <path clip-path="url(#pc33407051a)" d="M 328.20045 293.76 
L 328.20045 3.456 
" style="fill:none;stroke:#b0b0b0;stroke-linecap:square;stroke-width:0.8;"/>
     </g>
     <g id="line2d_6">
      <g>
       <use style="stroke:#000000;stroke-width:0.8;" x="328.20045" xlink:href="#m232394a9c0" y="293.76"/>
      </g>
     </g>
     <g id="text_3">
      <!-- 4 -->
      <g transform="translate(321.83795 315.956875)scale(0.2 -0.2)">
       <use xlink:href="#DejaVuSans-34"/>
      </g>
     </g>
    </g>
    <g id="xtick_4">
     <g id="line2d_7">
      <path clip-path="url(#pc33407051a)" d="M 437.640011 293.76 
L 437.640011 3.456 
" style="fill:none;stroke:#b0b0b0;stroke-linecap:square;stroke-width:0.8;"/>
     </g>
     <g id="line2d_8">
      <g>
       <use style="stroke:#000000;stroke-width:0.8;" x="437.640011" xlink:href="#m232394a9c0" y="293.76"/>
      </g>
     </g>
     <g id="text_4">
      <!-- 8 -->
      <g transform="translate(431.277511 315.956875)scale(0.2 -0.2)">
       <defs>
        <path d="M 2034 2216 
Q 1584 2216 1326 1975 
Q 1069 1734 1069 1313 
Q 1069 891 1326 650 
Q 1584 409 2034 409 
Q 2484 409 2743 651 
Q 3003 894 3003 1313 
Q 3003 1734 2745 1975 
Q 2488 2216 2034 2216 
z
M 1403 2484 
Q 997 2584 770 2862 
Q 544 3141 544 3541 
Q 544 4100 942 4425 
Q 1341 4750 2034 4750 
Q 2731 4750 3128 4425 
Q 3525 4100 3525 3541 
Q 3525 3141 3298 2862 
Q 3072 2584 2669 2484 
Q 3125 2378 3379 2068 
Q 3634 1759 3634 1313 
Q 3634 634 3220 271 
Q 2806 -91 2034 -91 
Q 1263 -91 848 271 
Q 434 634 434 1313 
Q 434 1759 690 2068 
Q 947 2378 1403 2484 
z
M 1172 3481 
Q 1172 3119 1398 2916 
Q 1625 2713 2034 2713 
Q 2441 2713 2670 2916 
Q 2900 3119 2900 3481 
Q 2900 3844 2670 4047 
Q 2441 4250 2034 4250 
Q 1625 4250 1398 4047 
Q 1172 3844 1172 3481 
z
" id="DejaVuSans-38" transform="scale(0.015625)"/>
       </defs>
       <use xlink:href="#DejaVuSans-38"/>
      </g>
     </g>
    </g>
    <g id="text_5">
     <!-- log10 of Df -->
     <g transform="translate(175.214063 339.313125)scale(0.2 -0.2)">
      <defs>
       <path d="M 603 4863 
L 1178 4863 
L 1178 0 
L 603 0 
L 603 4863 
z
" id="DejaVuSans-6c" transform="scale(0.015625)"/>
       <path d="M 1959 3097 
Q 1497 3097 1228 2736 
Q 959 2375 959 1747 
Q 959 1119 1226 758 
Q 1494 397 1959 397 
Q 2419 397 2687 759 
Q 2956 1122 2956 1747 
Q 2956 2369 2687 2733 
Q 2419 3097 1959 3097 
z
M 1959 3584 
Q 2709 3584 3137 3096 
Q 3566 2609 3566 1747 
Q 3566 888 3137 398 
Q 2709 -91 1959 -91 
Q 1206 -91 779 398 
Q 353 888 353 1747 
Q 353 2609 779 3096 
Q 1206 3584 1959 3584 
z
" id="DejaVuSans-6f" transform="scale(0.015625)"/>
       <path d="M 2906 1791 
Q 2906 2416 2648 2759 
Q 2391 3103 1925 3103 
Q 1463 3103 1205 2759 
Q 947 2416 947 1791 
Q 947 1169 1205 825 
Q 1463 481 1925 481 
Q 2391 481 2648 825 
Q 2906 1169 2906 1791 
z
M 3481 434 
Q 3481 -459 3084 -895 
Q 2688 -1331 1869 -1331 
Q 1566 -1331 1297 -1286 
Q 1028 -1241 775 -1147 
L 775 -588 
Q 1028 -725 1275 -790 
Q 1522 -856 1778 -856 
Q 2344 -856 2625 -561 
Q 2906 -266 2906 331 
L 2906 616 
Q 2728 306 2450 153 
Q 2172 0 1784 0 
Q 1141 0 747 490 
Q 353 981 353 1791 
Q 353 2603 747 3093 
Q 1141 3584 1784 3584 
Q 2172 3584 2450 3431 
Q 2728 3278 2906 2969 
L 2906 3500 
L 3481 3500 
L 3481 434 
z
" id="DejaVuSans-67" transform="scale(0.015625)"/>
       <path d="M 794 531 
L 1825 531 
L 1825 4091 
L 703 3866 
L 703 4441 
L 1819 4666 
L 2450 4666 
L 2450 531 
L 3481 531 
L 3481 0 
L 794 0 
L 794 531 
z
" id="DejaVuSans-31" transform="scale(0.015625)"/>
       <path id="DejaVuSans-20" transform="scale(0.015625)"/>
       <path d="M 2375 4863 
L 2375 4384 
L 1825 4384 
Q 1516 4384 1395 4259 
Q 1275 4134 1275 3809 
L 1275 3500 
L 2222 3500 
L 2222 3053 
L 1275 3053 
L 1275 0 
L 697 0 
L 697 3053 
L 147 3053 
L 147 3500 
L 697 3500 
L 697 3744 
Q 697 4328 969 4595 
Q 1241 4863 1831 4863 
L 2375 4863 
z
" id="DejaVuSans-66" transform="scale(0.015625)"/>
       <path d="M 1259 4147 
L 1259 519 
L 2022 519 
Q 2988 519 3436 956 
Q 3884 1394 3884 2338 
Q 3884 3275 3436 3711 
Q 2988 4147 2022 4147 
L 1259 4147 
z
M 628 4666 
L 1925 4666 
Q 3281 4666 3915 4102 
Q 4550 3538 4550 2338 
Q 4550 1131 3912 565 
Q 3275 0 1925 0 
L 628 0 
L 628 4666 
z
" id="DejaVuSans-44" transform="scale(0.015625)"/>
      </defs>
      <use xlink:href="#DejaVuSans-6c"/>
      <use x="27.783203" xlink:href="#DejaVuSans-6f"/>
      <use x="88.964844" xlink:href="#DejaVuSans-67"/>
      <use x="152.441406" xlink:href="#DejaVuSans-31"/>
      <use x="216.064453" xlink:href="#DejaVuSans-30"/>
      <use x="279.6875" xlink:href="#DejaVuSans-20"/>
      <use x="311.474609" xlink:href="#DejaVuSans-6f"/>
      <use x="372.65625" xlink:href="#DejaVuSans-66"/>
      <use x="407.861328" xlink:href="#DejaVuSans-20"/>
      <use x="439.648438" xlink:href="#DejaVuSans-44"/>
      <use x="516.650391" xlink:href="#DejaVuSans-66"/>
     </g>
    </g>
   </g>
   <g id="matplotlib.axis_2">
    <g id="ytick_1">
     <g id="line2d_9">
      <path clip-path="url(#pc33407051a)" d="M 0 293.76 
L 460.8 293.76 
" style="fill:none;stroke:#b0b0b0;stroke-linecap:square;stroke-width:0.8;"/>
     </g>
     <g id="line2d_10">
      <defs>
       <path d="M 0 0 
L -3.5 0 
" id="m458ccb0a23" style="stroke:#000000;stroke-width:0.8;"/>
      </defs>
      <g>
       <use style="stroke:#000000;stroke-width:0.8;" x="0" xlink:href="#m458ccb0a23" y="293.76"/>
      </g>
     </g>
    </g>
    <g id="ytick_2">
     <g id="line2d_11">
      <path clip-path="url(#pc33407051a)" d="M 0 236.274059 
L 460.8 236.274059 
" style="fill:none;stroke:#b0b0b0;stroke-linecap:square;stroke-width:0.8;"/>
     </g>
     <g id="line2d_12">
      <g>
       <use style="stroke:#000000;stroke-width:0.8;" x="0" xlink:href="#m458ccb0a23" y="236.274059"/>
      </g>
     </g>
    </g>
    <g id="ytick_3">
     <g id="line2d_13">
      <path clip-path="url(#pc33407051a)" d="M 0 178.788119 
L 460.8 178.788119 
" style="fill:none;stroke:#b0b0b0;stroke-linecap:square;stroke-width:0.8;"/>
     </g>
     <g id="line2d_14">
      <g>
       <use style="stroke:#000000;stroke-width:0.8;" x="0" xlink:href="#m458ccb0a23" y="178.788119"/>
      </g>
     </g>
    </g>
    <g id="ytick_4">
     <g id="line2d_15">
      <path clip-path="url(#pc33407051a)" d="M 0 121.302178 
L 460.8 121.302178 
" style="fill:none;stroke:#b0b0b0;stroke-linecap:square;stroke-width:0.8;"/>
     </g>
     <g id="line2d_16">
      <g>
       <use style="stroke:#000000;stroke-width:0.8;" x="0" xlink:href="#m458ccb0a23" y="121.302178"/>
      </g>
     </g>
    </g>
    <g id="ytick_5">
     <g id="line2d_17">
      <path clip-path="url(#pc33407051a)" d="M 0 63.816238 
L 460.8 63.816238 
" style="fill:none;stroke:#b0b0b0;stroke-linecap:square;stroke-width:0.8;"/>
     </g>
     <g id="line2d_18">
      <g>
       <use style="stroke:#000000;stroke-width:0.8;" x="0" xlink:href="#m458ccb0a23" y="63.816238"/>
      </g>
     </g>
    </g>
    <g id="ytick_6">
     <g id="line2d_19">
      <path clip-path="url(#pc33407051a)" d="M 0 6.330297 
L 460.8 6.330297 
" style="fill:none;stroke:#b0b0b0;stroke-linecap:square;stroke-width:0.8;"/>
     </g>
     <g id="line2d_20">
      <g>
       <use style="stroke:#000000;stroke-width:0.8;" x="0" xlink:href="#m458ccb0a23" y="6.330297"/>
      </g>
     </g>
    </g>
   </g>
   <g id="line2d_21">
    <path clip-path="url(#pc33407051a)" d="M 215.930641 293.76 
L 215.930641 289.927604 
L 218.579199 289.927604 
L 218.579199 286.095208 
L 220.03278 286.095208 
L 220.03278 282.262812 
L 220.970513 282.262812 
L 220.970513 278.430416 
L 225.329562 278.430416 
L 225.329562 274.59802 
L 225.897092 274.59802 
L 225.897092 270.765624 
L 227.169953 270.765624 
L 227.169953 266.933228 
L 228.179136 266.933228 
L 228.179136 263.100832 
L 231.037899 263.100832 
L 231.037899 259.268436 
L 232.670037 259.268436 
L 232.670037 255.43604 
L 233.017207 255.43604 
L 233.017207 251.603644 
L 233.676766 251.603644 
L 233.676766 247.771248 
L 235.384965 247.771248 
L 235.384965 243.938851 
L 239.613356 243.938851 
L 239.613356 240.106455 
L 240.614407 240.106455 
L 240.614407 236.274059 
L 254.002636 236.274059 
L 254.002636 232.441663 
L 261.362962 232.441663 
L 261.362962 228.609267 
L 264.325863 228.609267 
L 264.325863 224.776871 
L 266.979237 224.776871 
L 266.979237 220.944475 
L 267.995401 220.944475 
L 267.995401 217.112079 
L 269.348973 217.112079 
L 269.348973 213.279683 
L 269.821677 213.279683 
L 269.821677 209.447287 
L 272.244223 209.447287 
L 272.244223 205.614891 
L 272.757155 205.614891 
L 272.757155 201.782495 
L 274.767217 201.782495 
L 274.767217 197.950099 
L 276.973217 197.950099 
L 276.973217 194.117703 
L 277.200372 194.117703 
L 277.200372 190.285307 
L 277.938954 190.285307 
L 277.938954 186.452911 
L 281.134112 186.452911 
L 281.134112 182.620515 
L 281.407861 182.620515 
L 281.407861 178.788119 
L 282.381396 178.788119 
L 282.381396 174.955723 
L 282.599091 174.955723 
L 282.599091 171.123327 
L 282.746522 171.123327 
L 282.746522 167.290931 
L 283.164705 167.290931 
L 283.164705 163.458535 
L 283.614757 163.458535 
L 283.614757 159.626139 
L 283.853031 159.626139 
L 283.853031 155.793743 
L 284.065842 155.793743 
L 284.065842 151.961347 
L 285.754811 151.961347 
L 285.754811 148.12895 
L 285.885338 148.12895 
L 285.885338 144.296554 
L 288.566295 144.296554 
L 288.566295 140.464158 
L 292.310278 140.464158 
L 292.310278 136.631762 
L 293.581712 136.631762 
L 293.581712 132.799366 
L 294.037242 132.799366 
L 294.037242 128.96697 
L 296.631763 128.96697 
L 296.631763 125.134574 
L 315.257192 125.134574 
L 315.257192 121.302178 
L 320.970091 121.302178 
L 320.983666 113.637386 
L 324.669237 113.637386 
L 324.726084 105.972594 
L 325.428502 105.972594 
L 325.428502 102.140198 
L 327.222197 102.140198 
L 327.222197 98.307802 
L 329.089782 98.307802 
L 329.089782 94.475406 
L 331.13954 94.475406 
L 331.13954 90.64301 
L 335.971413 90.64301 
L 335.971413 86.810614 
L 338.769938 86.810614 
L 338.769938 82.978218 
L 339.663103 82.978218 
L 339.663103 79.145822 
L 348.352195 79.145822 
L 348.352195 75.313426 
L 350.946295 75.313426 
L 350.946295 71.48103 
L 354.386866 71.48103 
L 354.386866 67.648634 
L 369.643526 67.648634 
L 369.643526 63.816238 
L 375.814858 63.816238 
L 375.814858 59.983842 
L 377.172025 59.983842 
L 377.172025 56.151446 
L 377.295553 56.151446 
L 377.295553 52.31905 
L 384.066633 52.31905 
L 384.066633 48.486653 
L 385.057335 48.486653 
L 385.057335 44.654257 
L 385.841055 44.654257 
L 385.841055 40.821861 
L 389.794406 40.821861 
L 389.794406 36.989465 
L 391.954034 36.989465 
L 391.954034 33.157069 
L 392.604282 33.157069 
L 392.604282 29.324673 
L 395.291726 29.324673 
L 395.291726 25.492277 
L 398.132233 25.492277 
L 398.132233 21.659881 
L 401.128509 21.659881 
L 401.146608 13.995089 
L 401.286196 13.995089 
L 401.286196 10.162693 
L 404.861572 10.162693 
L 404.861572 6.330297 
L 404.861572 6.330297 
L 460.8 6.330297 
L 460.8 6.330297 
" style="fill:none;stroke:#ff0000;stroke-linecap:square;stroke-width:3;"/>
   </g>
   <g id="line2d_22">
    <path clip-path="url(#pc33407051a)" d="M 230.589479 293.76 
L 230.589479 289.927604 
L 231.541207 289.927604 
L 231.541207 286.095208 
L 239.114191 286.095208 
L 239.114191 282.262812 
L 240.695178 282.262812 
L 240.695178 278.430416 
L 246.42785 278.430416 
L 246.42785 274.59802 
L 249.888276 274.59802 
L 249.888276 270.765624 
L 250.9754 270.765624 
L 250.9754 266.933228 
L 253.762311 266.933228 
L 253.762311 263.100832 
L 254.661458 263.100832 
L 254.661458 259.268436 
L 256.165728 259.268436 
L 256.165728 255.43604 
L 259.116836 255.43604 
L 259.116836 251.603644 
L 259.803071 251.603644 
L 259.803071 247.771248 
L 260.05692 247.771248 
L 260.05692 243.938851 
L 262.715085 243.938851 
L 262.715085 240.106455 
L 269.593503 240.106455 
L 269.593503 236.274059 
L 279.561523 236.274059 
L 279.561523 232.441663 
L 289.384779 232.441663 
L 289.384779 228.609267 
L 293.596354 228.609267 
L 293.596354 224.776871 
L 295.751348 224.776871 
L 295.751348 220.944475 
L 296.944419 220.944475 
L 296.944419 217.112079 
L 297.141271 217.112079 
L 297.141271 213.279683 
L 297.44126 213.279683 
L 297.44126 209.447287 
L 297.581639 209.447287 
L 297.581639 205.614891 
L 299.029961 205.614891 
L 299.029961 201.782495 
L 299.70927 201.782495 
L 299.70927 197.950099 
L 301.303014 197.950099 
L 301.303014 194.117703 
L 303.07435 194.117703 
L 303.07435 190.285307 
L 303.807479 190.285307 
L 303.807479 186.452911 
L 305.624011 186.452911 
L 305.624011 182.620515 
L 307.830586 182.620515 
L 307.830586 178.788119 
L 308.460097 178.788119 
L 308.460097 174.955723 
L 315.019311 174.955723 
L 315.019311 171.123327 
L 339.847334 171.123327 
L 339.847334 167.290931 
L 355.975692 167.290931 
L 355.975692 163.458535 
L 357.131679 163.458535 
L 357.213813 155.793743 
L 357.547072 155.793743 
L 357.547072 151.961347 
L 371.780242 151.961347 
L 371.780242 148.12895 
L 372.279479 148.12895 
L 372.279479 144.296554 
L 372.881234 144.296554 
L 372.881234 140.464158 
L 374.409479 140.464158 
L 374.409479 136.631762 
L 377.053209 136.631762 
L 377.053209 132.799366 
L 378.063769 132.799366 
L 378.063769 128.96697 
L 384.679486 128.96697 
L 384.679486 125.134574 
L 386.846335 125.134574 
L 386.846335 121.302178 
L 389.143338 121.302178 
L 389.143338 117.469782 
L 391.884368 117.469782 
L 391.884368 113.637386 
L 392.806618 113.637386 
L 392.806618 109.80499 
L 395.839936 109.80499 
L 395.839936 105.972594 
L 398.821612 105.972594 
L 398.821612 102.140198 
L 399.280081 102.140198 
L 399.280081 98.307802 
L 402.068065 98.307802 
L 402.068065 94.475406 
L 402.292249 94.475406 
L 402.292249 90.64301 
L 402.612474 90.64301 
L 402.612474 86.810614 
L 403.708844 86.810614 
L 403.708844 82.978218 
L 404.872893 82.978218 
L 404.910341 75.313426 
L 405.336361 75.313426 
L 405.336361 71.48103 
L 406.824748 71.48103 
L 406.824748 67.648634 
L 408.550849 67.648634 
L 408.550849 63.816238 
L 408.693401 63.816238 
L 408.693401 59.983842 
L 409.91142 59.983842 
L 409.91142 56.151446 
L 410.117042 56.151446 
L 410.117042 52.31905 
L 410.262964 52.31905 
L 410.262964 48.486653 
L 412.943466 48.486653 
L 412.943466 44.654257 
L 414.363747 44.654257 
L 414.363747 40.821861 
L 423.413517 40.821861 
L 423.431772 33.157069 
L 426.769839 33.157069 
L 426.769839 29.324673 
L 428.138082 29.324673 
L 428.138082 25.492277 
L 432.572937 25.492277 
L 432.572937 21.659881 
L 439.451226 21.659881 
L 439.451226 17.827485 
L 440.606385 17.827485 
L 440.606385 13.995089 
L 443.780227 13.995089 
L 443.780227 10.162693 
L 448.880977 10.162693 
L 448.880977 6.330297 
L 448.880977 6.330297 
L 460.8 6.330297 
L 460.8 6.330297 
" style="fill:none;stroke:#00bfbf;stroke-linecap:square;stroke-width:1.5;"/>
   </g>
   <g id="line2d_23">
    <path clip-path="url(#pc33407051a)" d="M 230.589479 293.76 
L 230.589479 289.927604 
L 231.541207 289.927604 
L 231.541207 286.095208 
L 236.825933 286.095208 
L 236.825933 282.262812 
L 237.480598 282.262812 
L 237.480598 278.430416 
L 239.114191 278.430416 
L 239.114191 274.59802 
L 242.232068 274.59802 
L 242.232068 270.765624 
L 242.78442 270.765624 
L 242.78442 266.933228 
L 246.42785 266.933228 
L 246.42785 263.100832 
L 250.297216 263.100832 
L 250.297216 259.268436 
L 252.78475 259.268436 
L 252.78475 255.43604 
L 253.762311 255.43604 
L 253.762311 251.603644 
L 253.939558 251.603644 
L 253.939558 247.771248 
L 254.661458 247.771248 
L 254.661458 243.938851 
L 258.812047 243.938851 
L 258.812047 240.106455 
L 267.28668 240.106455 
L 267.28668 236.274059 
L 279.561523 236.274059 
L 279.561523 232.441663 
L 287.120309 232.441663 
L 287.120309 228.609267 
L 287.88674 228.609267 
L 287.88674 224.776871 
L 289.891036 224.776871 
L 289.891036 220.944475 
L 293.393333 220.944475 
L 293.393333 217.112079 
L 293.862321 217.112079 
L 293.862321 213.279683 
L 295.963914 213.279683 
L 295.963914 209.447287 
L 296.944419 209.447287 
L 296.944419 205.614891 
L 297.562889 205.614891 
L 297.581639 197.950099 
L 299.70927 197.950099 
L 299.80521 190.285307 
L 300.486102 190.285307 
L 300.486102 186.452911 
L 303.07435 186.452911 
L 303.121903 178.788119 
L 306.104798 178.788119 
L 306.104798 174.955723 
L 306.467899 174.955723 
L 306.467899 171.123327 
L 315.019311 171.123327 
L 315.019311 167.290931 
L 321.647042 167.290931 
L 321.647042 163.458535 
L 327.517309 163.458535 
L 327.517309 159.626139 
L 338.686782 159.626139 
L 338.686782 155.793743 
L 339.847334 155.793743 
L 339.847334 151.961347 
L 343.585517 151.961347 
L 343.585517 148.12895 
L 355.428353 148.12895 
L 355.428353 144.296554 
L 357.131679 144.296554 
L 357.131679 140.464158 
L 357.547072 140.464158 
L 357.547072 136.631762 
L 357.958672 136.631762 
L 357.958672 132.799366 
L 364.309162 132.799366 
L 364.309162 128.96697 
L 365.392015 128.96697 
L 365.392015 125.134574 
L 368.642775 125.134574 
L 368.642775 121.302178 
L 373.636311 121.302178 
L 373.636311 117.469782 
L 375.236981 117.469782 
L 375.236981 113.637386 
L 386.218647 113.637386 
L 386.218647 109.80499 
L 389.143338 109.80499 
L 389.143338 105.972594 
L 389.824457 105.972594 
L 389.824457 102.140198 
L 391.458147 102.140198 
L 391.458147 98.307802 
L 391.884368 98.307802 
L 391.884368 94.475406 
L 392.806618 94.475406 
L 392.806618 90.64301 
L 394.773546 90.64301 
L 394.773546 86.810614 
L 395.839936 86.810614 
L 395.839936 82.978218 
L 398.811591 82.978218 
L 398.811591 79.145822 
L 399.280081 79.145822 
L 399.280081 75.313426 
L 401.528748 75.313426 
L 401.528748 71.48103 
L 402.068065 71.48103 
L 402.068065 67.648634 
L 402.301179 67.648634 
L 402.301179 63.816238 
L 403.708844 63.816238 
L 403.708844 59.983842 
L 407.96479 59.983842 
L 407.96479 56.151446 
L 408.693401 56.151446 
L 408.693401 52.31905 
L 410.262964 52.31905 
L 410.262964 48.486653 
L 410.735624 48.486653 
L 410.735624 44.654257 
L 414.363747 44.654257 
L 414.363747 40.821861 
L 414.479883 40.821861 
L 414.479883 36.989465 
L 415.381315 36.989465 
L 415.381315 33.157069 
L 419.284612 33.157069 
L 419.284612 29.324673 
L 422.463796 29.324673 
L 422.463796 25.492277 
L 423.413517 25.492277 
L 423.431772 17.827485 
L 435.332782 17.827485 
L 435.332782 13.995089 
L 435.670726 13.995089 
L 435.670726 10.162693 
L 439.451226 10.162693 
L 439.451226 6.330297 
L 439.451226 6.330297 
L 460.8 6.330297 
L 460.8 6.330297 
" style="fill:none;stroke:#bf00bf;stroke-linecap:square;stroke-width:1.5;"/>
   </g>
   <g id="line2d_24">
    <path clip-path="url(#pc33407051a)" d="M 218.579199 293.76 
L 218.579199 289.927604 
L 223.485933 289.927604 
L 223.485933 286.095208 
L 231.541207 286.095208 
L 231.541207 282.262812 
L 236.322803 282.262812 
L 236.322803 278.430416 
L 236.825933 278.430416 
L 236.825933 274.59802 
L 237.480598 274.59802 
L 237.480598 270.765624 
L 242.20925 270.765624 
L 242.232068 263.100832 
L 245.736898 263.100832 
L 245.736898 259.268436 
L 246.42785 259.268436 
L 246.42785 255.43604 
L 248.149082 255.43604 
L 248.149082 251.603644 
L 250.297216 251.603644 
L 250.297216 247.771248 
L 253.426983 247.771248 
L 253.426983 243.938851 
L 253.939558 243.938851 
L 253.939558 240.106455 
L 258.812047 240.106455 
L 258.812047 236.274059 
L 273.064068 236.274059 
L 273.064068 232.441663 
L 287.120309 232.441663 
L 287.120309 228.609267 
L 287.88674 228.609267 
L 287.88674 224.776871 
L 289.891036 224.776871 
L 289.891036 220.944475 
L 290.998636 220.944475 
L 290.998636 217.112079 
L 293.862321 217.112079 
L 293.862321 213.279683 
L 294.061335 213.279683 
L 294.061335 209.447287 
L 294.823069 209.447287 
L 294.823069 205.614891 
L 295.215364 205.614891 
L 295.215364 201.782495 
L 295.79834 201.782495 
L 295.79834 197.950099 
L 295.963914 197.950099 
L 295.963914 194.117703 
L 296.321316 194.117703 
L 296.321316 190.285307 
L 299.492045 190.285307 
L 299.492045 186.452911 
L 300.486102 186.452911 
L 300.486102 182.620515 
L 300.695093 182.620515 
L 300.695093 178.788119 
L 303.07435 178.788119 
L 303.07435 174.955723 
L 306.299812 174.955723 
L 306.299812 171.123327 
L 315.019311 171.123327 
L 315.019311 167.290931 
L 319.305194 167.290931 
L 319.305194 163.458535 
L 321.647042 163.458535 
L 321.647042 159.626139 
L 322.428378 159.626139 
L 322.428378 155.793743 
L 338.686782 155.793743 
L 338.686782 151.961347 
L 339.663103 151.961347 
L 339.663103 148.12895 
L 339.919956 148.12895 
L 339.919956 144.296554 
L 343.585517 144.296554 
L 343.585517 140.464158 
L 349.319274 140.464158 
L 349.319274 136.631762 
L 353.187927 136.631762 
L 353.187927 132.799366 
L 354.707657 132.799366 
L 354.707657 128.96697 
L 356.663858 128.96697 
L 356.663858 125.134574 
L 357.131679 125.134574 
L 357.131679 121.302178 
L 357.547072 121.302178 
L 357.547072 117.469782 
L 357.958672 117.469782 
L 357.958672 113.637386 
L 366.336279 113.637386 
L 366.336279 109.80499 
L 373.636311 109.80499 
L 373.636311 105.972594 
L 378.229157 105.972594 
L 378.229157 102.140198 
L 381.476801 102.140198 
L 381.476801 98.307802 
L 382.176852 98.307802 
L 382.176852 94.475406 
L 386.218647 94.475406 
L 386.218647 90.64301 
L 389.143338 90.64301 
L 389.143338 86.810614 
L 390.968156 86.810614 
L 390.968156 82.978218 
L 393.152525 82.978218 
L 393.152525 79.145822 
L 395.528036 79.145822 
L 395.528036 75.313426 
L 398.206241 75.313426 
L 398.206241 71.48103 
L 399.280081 71.48103 
L 399.280081 67.648634 
L 401.528748 67.648634 
L 401.528748 63.816238 
L 402.068065 63.816238 
L 402.068065 59.983842 
L 407.462281 59.983842 
L 407.462281 56.151446 
L 407.96479 56.151446 
L 407.985315 48.486653 
L 408.693401 48.486653 
L 408.693401 44.654257 
L 410.185617 44.654257 
L 410.185617 40.821861 
L 414.363747 40.821861 
L 414.363747 36.989465 
L 414.479883 36.989465 
L 414.479883 33.157069 
L 415.381315 33.157069 
L 415.381315 29.324673 
L 417.325453 29.324673 
L 417.325453 25.492277 
L 419.284612 25.492277 
L 419.284612 21.659881 
L 423.413517 21.659881 
L 423.413517 17.827485 
L 425.022178 17.827485 
L 425.022178 13.995089 
L 425.271256 13.995089 
L 425.271256 10.162693 
L 426.41101 10.162693 
L 426.41101 6.330297 
L 426.41101 6.330297 
L 460.8 6.330297 
L 460.8 6.330297 
" style="fill:none;stroke:#000000;stroke-linecap:square;stroke-width:1.5;"/>
   </g>
   <g id="line2d_25">
    <path clip-path="url(#pc33407051a)" d="M 218.579199 293.76 
L 218.579199 289.927604 
L 223.330256 289.927604 
L 223.330256 286.095208 
L 223.485933 286.095208 
L 223.485933 282.262812 
L 229.516421 282.262812 
L 229.516421 278.430416 
L 230.915762 278.430416 
L 230.915762 274.59802 
L 232.670037 274.59802 
L 232.670037 270.765624 
L 235.63632 270.765624 
L 235.63632 266.933228 
L 237.480598 266.933228 
L 237.480598 263.100832 
L 242.20925 263.100832 
L 242.20925 259.268436 
L 245.736898 259.268436 
L 245.777536 251.603644 
L 246.112726 251.603644 
L 246.112726 247.771248 
L 248.149082 247.771248 
L 248.149082 243.938851 
L 250.870978 243.938851 
L 250.883931 236.274059 
L 269.348973 236.274059 
L 269.348973 232.441663 
L 273.064068 232.441663 
L 273.064068 228.609267 
L 277.26959 228.609267 
L 277.26959 224.776871 
L 282.381396 224.776871 
L 282.381396 220.944475 
L 283.842287 220.944475 
L 283.842287 217.112079 
L 285.2943 217.112079 
L 285.2943 213.279683 
L 287.120309 213.279683 
L 287.120309 209.447287 
L 287.88674 209.447287 
L 287.88674 205.614891 
L 288.414611 205.614891 
L 288.449278 197.950099 
L 289.891036 197.950099 
L 289.891036 194.117703 
L 290.549283 194.117703 
L 290.549283 190.285307 
L 293.752908 190.285307 
L 293.752908 186.452911 
L 294.061335 186.452911 
L 294.061335 182.620515 
L 295.374208 182.620515 
L 295.374208 178.788119 
L 295.944238 178.788119 
L 295.963914 171.123327 
L 298.803141 171.123327 
L 298.803141 167.290931 
L 299.450483 167.290931 
L 299.450483 163.458535 
L 301.555607 163.458535 
L 301.555607 159.626139 
L 301.97545 159.626139 
L 301.97545 155.793743 
L 315.019311 155.793743 
L 315.019311 151.961347 
L 319.305194 151.961347 
L 319.305194 148.12895 
L 319.693199 148.12895 
L 319.693199 144.296554 
L 321.647042 144.296554 
L 321.647042 140.464158 
L 323.656463 140.464158 
L 323.656463 136.631762 
L 332.153624 136.631762 
L 332.153624 132.799366 
L 333.379848 132.799366 
L 333.379848 128.96697 
L 337.617905 128.96697 
L 337.617905 125.134574 
L 339.663103 125.134574 
L 339.663103 121.302178 
L 339.919956 121.302178 
L 339.919956 117.469782 
L 343.924492 117.469782 
L 343.924492 113.637386 
L 349.319274 113.637386 
L 349.319274 109.80499 
L 351.387144 109.80499 
L 351.387144 105.972594 
L 354.620859 105.972594 
L 354.620859 102.140198 
L 355.686513 102.140198 
L 355.686513 98.307802 
L 356.663858 98.307802 
L 356.663858 94.475406 
L 357.958672 94.475406 
L 357.958672 90.64301 
L 365.669236 90.64301 
L 365.669236 86.810614 
L 369.643526 86.810614 
L 369.643526 82.978218 
L 374.863123 82.978218 
L 374.863123 79.145822 
L 375.814858 79.145822 
L 375.814858 75.313426 
L 379.698685 75.313426 
L 379.698685 71.48103 
L 390.968156 71.48103 
L 390.968156 67.648634 
L 393.152525 67.648634 
L 393.152525 63.816238 
L 395.528036 63.816238 
L 395.528036 59.983842 
L 401.528748 59.983842 
L 401.528748 56.151446 
L 402.068065 56.151446 
L 402.068065 52.31905 
L 403.410592 52.31905 
L 403.410592 48.486653 
L 404.745835 48.486653 
L 404.745835 44.654257 
L 404.887155 44.654257 
L 404.887155 40.821861 
L 406.798932 40.821861 
L 406.798932 36.989465 
L 407.96479 36.989465 
L 407.96479 33.157069 
L 414.363747 33.157069 
L 414.363747 29.324673 
L 415.381315 29.324673 
L 415.381315 25.492277 
L 417.129739 25.492277 
L 417.129739 21.659881 
L 419.284612 21.659881 
L 419.284612 17.827485 
L 420.197251 17.827485 
L 420.197251 13.995089 
L 424.532606 13.995089 
L 424.532606 10.162693 
L 424.857978 10.162693 
L 424.857978 6.330297 
L 424.857978 6.330297 
L 460.8 6.330297 
L 460.8 6.330297 
" style="fill:none;stroke:#00bfbf;stroke-linecap:square;stroke-width:1.5;"/>
   </g>
   <g id="line2d_26">
    <path clip-path="url(#pc33407051a)" d="M 215.930641 293.76 
L 215.930641 289.927604 
L 218.579199 289.927604 
L 218.579199 286.095208 
L 220.03278 286.095208 
L 220.03278 282.262812 
L 220.970513 282.262812 
L 220.970513 278.430416 
L 225.329562 278.430416 
L 225.329562 274.59802 
L 225.897092 274.59802 
L 225.897092 270.765624 
L 227.169953 270.765624 
L 227.169953 266.933228 
L 228.179136 266.933228 
L 228.179136 263.100832 
L 231.037899 263.100832 
L 231.037899 259.268436 
L 232.670037 259.268436 
L 232.670037 255.43604 
L 233.017207 255.43604 
L 233.017207 251.603644 
L 233.676766 251.603644 
L 233.676766 247.771248 
L 235.384965 247.771248 
L 235.384965 243.938851 
L 239.613356 243.938851 
L 239.613356 240.106455 
L 240.614407 240.106455 
L 240.614407 236.274059 
L 254.002636 236.274059 
L 254.002636 232.441663 
L 261.362962 232.441663 
L 261.362962 228.609267 
L 264.325863 228.609267 
L 264.325863 224.776871 
L 266.979237 224.776871 
L 266.979237 220.944475 
L 267.995401 220.944475 
L 267.995401 217.112079 
L 269.348973 217.112079 
L 269.348973 213.279683 
L 269.821677 213.279683 
L 269.821677 209.447287 
L 272.244223 209.447287 
L 272.244223 205.614891 
L 272.757155 205.614891 
L 272.757155 201.782495 
L 274.767217 201.782495 
L 274.767217 197.950099 
L 276.973217 197.950099 
L 276.973217 194.117703 
L 277.200372 194.117703 
L 277.200372 190.285307 
L 277.938954 190.285307 
L 277.938954 186.452911 
L 281.134112 186.452911 
L 281.134112 182.620515 
L 281.407861 182.620515 
L 281.407861 178.788119 
L 282.381396 178.788119 
L 282.381396 174.955723 
L 282.599091 174.955723 
L 282.599091 171.123327 
L 282.746522 171.123327 
L 282.746522 167.290931 
L 283.164705 167.290931 
L 283.164705 163.458535 
L 283.614757 163.458535 
L 283.614757 159.626139 
L 283.853031 159.626139 
L 283.853031 155.793743 
L 284.065842 155.793743 
L 284.065842 151.961347 
L 285.754811 151.961347 
L 285.754811 148.12895 
L 285.885338 148.12895 
L 285.885338 144.296554 
L 288.566295 144.296554 
L 288.566295 140.464158 
L 292.310278 140.464158 
L 292.310278 136.631762 
L 293.581712 136.631762 
L 293.581712 132.799366 
L 294.037242 132.799366 
L 294.037242 128.96697 
L 296.631763 128.96697 
L 296.631763 125.134574 
L 315.257192 125.134574 
L 315.257192 121.302178 
L 320.970091 121.302178 
L 320.983666 113.637386 
L 324.669237 113.637386 
L 324.726084 105.972594 
L 325.428502 105.972594 
L 325.428502 102.140198 
L 327.222197 102.140198 
L 327.222197 98.307802 
L 329.089782 98.307802 
L 329.089782 94.475406 
L 331.13954 94.475406 
L 331.13954 90.64301 
L 335.971413 90.64301 
L 335.971413 86.810614 
L 338.769938 86.810614 
L 338.769938 82.978218 
L 339.663103 82.978218 
L 339.663103 79.145822 
L 348.352195 79.145822 
L 348.352195 75.313426 
L 350.946295 75.313426 
L 350.946295 71.48103 
L 354.386866 71.48103 
L 354.386866 67.648634 
L 369.643526 67.648634 
L 369.643526 63.816238 
L 375.814858 63.816238 
L 375.814858 59.983842 
L 377.172025 59.983842 
L 377.172025 56.151446 
L 377.295553 56.151446 
L 377.295553 52.31905 
L 384.066633 52.31905 
L 384.066633 48.486653 
L 385.057335 48.486653 
L 385.057335 44.654257 
L 385.841055 44.654257 
L 385.841055 40.821861 
L 389.794406 40.821861 
L 389.794406 36.989465 
L 391.954034 36.989465 
L 391.954034 33.157069 
L 392.604282 33.157069 
L 392.604282 29.324673 
L 395.291726 29.324673 
L 395.291726 25.492277 
L 398.132233 25.492277 
L 398.132233 21.659881 
L 401.128509 21.659881 
L 401.146608 13.995089 
L 401.286196 13.995089 
L 401.286196 10.162693 
L 404.861572 10.162693 
L 404.861572 6.330297 
L 404.861572 6.330297 
L 460.8 6.330297 
L 460.8 6.330297 
" style="fill:none;stroke:#bf00bf;stroke-linecap:square;stroke-width:1.5;"/>
   </g>
   <g id="patch_3">
    <path d="M 0 293.76 
L 0 3.456 
" style="fill:none;stroke:#000000;stroke-linecap:square;stroke-linejoin:miter;stroke-width:0.8;"/>
   </g>
   <g id="patch_4">
    <path d="M 460.8 293.76 
L 460.8 3.456 
" style="fill:none;stroke:#000000;stroke-linecap:square;stroke-linejoin:miter;stroke-width:0.8;"/>
   </g>
   <g id="patch_5">
    <path d="M 0 293.76 
L 460.8 293.76 
" style="fill:none;stroke:#000000;stroke-linecap:square;stroke-linejoin:miter;stroke-width:0.8;"/>
   </g>
   <g id="patch_6">
    <path d="M 0 3.456 
L 460.8 3.456 
" style="fill:none;stroke:#000000;stroke-linecap:square;stroke-linejoin:miter;stroke-width:0.8;"/>
   </g>
   <g id="text_6">
    <!-- {f10-f14}, 5-D -->
    <g transform="translate(305.884 287.95392)scale(0.2 -0.2)">
     <defs>
      <path d="M 3272 -594 
L 3272 -1044 
L 3078 -1044 
Q 2300 -1044 2036 -812 
Q 1772 -581 1772 109 
L 1772 856 
Q 1772 1328 1603 1509 
Q 1434 1691 991 1691 
L 800 1691 
L 800 2138 
L 991 2138 
Q 1438 2138 1605 2317 
Q 1772 2497 1772 2963 
L 1772 3713 
Q 1772 4403 2036 4633 
Q 2300 4863 3078 4863 
L 3272 4863 
L 3272 4416 
L 3059 4416 
Q 2619 4416 2484 4278 
Q 2350 4141 2350 3700 
L 2350 2925 
Q 2350 2434 2208 2212 
Q 2066 1991 1722 1913 
Q 2069 1828 2209 1606 
Q 2350 1384 2350 897 
L 2350 122 
Q 2350 -319 2484 -456 
Q 2619 -594 3059 -594 
L 3272 -594 
z
" id="DejaVuSans-7b" transform="scale(0.015625)"/>
      <path d="M 800 -594 
L 1019 -594 
Q 1456 -594 1589 -459 
Q 1722 -325 1722 122 
L 1722 897 
Q 1722 1384 1862 1606 
Q 2003 1828 2350 1913 
Q 2003 1991 1862 2212 
Q 1722 2434 1722 2925 
L 1722 3700 
Q 1722 4144 1589 4280 
Q 1456 4416 1019 4416 
L 800 4416 
L 800 4863 
L 997 4863 
Q 1775 4863 2036 4633 
Q 2297 4403 2297 3713 
L 2297 2963 
Q 2297 2497 2465 2317 
Q 2634 2138 3078 2138 
L 3272 2138 
L 3272 1691 
L 3078 1691 
Q 2634 1691 2465 1509 
Q 2297 1328 2297 856 
L 2297 109 
Q 2297 -581 2036 -812 
Q 1775 -1044 997 -1044 
L 800 -1044 
L 800 -594 
z
" id="DejaVuSans-7d" transform="scale(0.015625)"/>
      <path d="M 750 794 
L 1409 794 
L 1409 256 
L 897 -744 
L 494 -744 
L 750 256 
L 750 794 
z
" id="DejaVuSans-2c" transform="scale(0.015625)"/>
      <path d="M 691 4666 
L 3169 4666 
L 3169 4134 
L 1269 4134 
L 1269 2991 
Q 1406 3038 1543 3061 
Q 1681 3084 1819 3084 
Q 2600 3084 3056 2656 
Q 3513 2228 3513 1497 
Q 3513 744 3044 326 
Q 2575 -91 1722 -91 
Q 1428 -91 1123 -41 
Q 819 9 494 109 
L 494 744 
Q 775 591 1075 516 
Q 1375 441 1709 441 
Q 2250 441 2565 725 
Q 2881 1009 2881 1497 
Q 2881 1984 2565 2268 
Q 2250 2553 1709 2553 
Q 1456 2553 1204 2497 
Q 953 2441 691 2322 
L 691 4666 
z
" id="DejaVuSans-35" transform="scale(0.015625)"/>
     </defs>
     <use xlink:href="#DejaVuSans-7b"/>
     <use x="63.623047" xlink:href="#DejaVuSans-66"/>
     <use x="98.828125" xlink:href="#DejaVuSans-31"/>
     <use x="162.451172" xlink:href="#DejaVuSans-30"/>
     <use x="226.074219" xlink:href="#DejaVuSans-2d"/>
     <use x="262.158203" xlink:href="#DejaVuSans-66"/>
     <use x="297.363281" xlink:href="#DejaVuSans-31"/>
     <use x="360.986328" xlink:href="#DejaVuSans-34"/>
     <use x="424.609375" xlink:href="#DejaVuSans-7d"/>
     <use x="488.232422" xlink:href="#DejaVuSans-2c"/>
     <use x="520.019531" xlink:href="#DejaVuSans-20"/>
     <use x="551.806641" xlink:href="#DejaVuSans-35"/>
     <use x="615.429688" xlink:href="#DejaVuSans-2d"/>
     <use x="651.513672" xlink:href="#DejaVuSans-44"/>
    </g>
   </g>
   <g id="text_7">
    <!-- v2.4 -->
    <g style="fill:#808080;" transform="translate(219.489063 288.777272)scale(0.1 -0.1)">
     <defs>
      <path d="M 191 3500 
L 800 3500 
L 1894 563 
L 2988 3500 
L 3597 3500 
L 2284 0 
L 1503 0 
L 191 3500 
z
" id="DejaVuSans-76" transform="scale(0.015625)"/>
      <path d="M 1228 531 
L 3431 531 
L 3431 0 
L 469 0 
L 469 531 
Q 828 903 1448 1529 
Q 2069 2156 2228 2338 
Q 2531 2678 2651 2914 
Q 2772 3150 2772 3378 
Q 2772 3750 2511 3984 
Q 2250 4219 1831 4219 
Q 1534 4219 1204 4116 
Q 875 4013 500 3803 
L 500 4441 
Q 881 4594 1212 4672 
Q 1544 4750 1819 4750 
Q 2544 4750 2975 4387 
Q 3406 4025 3406 3419 
Q 3406 3131 3298 2873 
Q 3191 2616 2906 2266 
Q 2828 2175 2409 1742 
Q 1991 1309 1228 531 
z
" id="DejaVuSans-32" transform="scale(0.015625)"/>
      <path d="M 684 794 
L 1344 794 
L 1344 0 
L 684 0 
L 684 794 
z
" id="DejaVuSans-2e" transform="scale(0.015625)"/>
     </defs>
     <use xlink:href="#DejaVuSans-76"/>
     <use x="59.179688" xlink:href="#DejaVuSans-32"/>
     <use x="122.802734" xlink:href="#DejaVuSans-2e"/>
     <use x="154.589844" xlink:href="#DejaVuSans-34"/>
    </g>
   </g>
  </g>
 </g>
 <defs>
  <clipPath id="pc33407051a">
   <rect height="290.304" width="460.8" x="0" y="3.456"/>
  </clipPath>
 </defs>
</svg>
