<?xml version="1.0" encoding="utf-8" standalone="no"?>
<!DOCTYPE svg PUBLIC "-//W3C//DTD SVG 1.1//EN"
  "http://www.w3.org/Graphics/SVG/1.1/DTD/svg11.dtd">
<svg height="345.6pt" version="1.1" viewBox="0 0 460.8 345.6" width="460.8pt" xmlns="http://www.w3.org/2000/svg" xmlns:xlink="http://www.w3.org/1999/xlink">
 <metadata>
  <rdf:RDF xmlns:cc="http://creativecommons.org/ns#" xmlns:dc="http://purl.org/dc/elements/1.1/" xmlns:rdf="http://www.w3.org/1999/02/22-rdf-syntax-ns#">
   <cc:Work>
    <dc:type rdf:resource="http://purl.org/dc/dcmitype/StillImage"/>
    <dc:date>2021-06-14T12:33:43.069900</dc:date>
    <dc:format>image/svg+xml</dc:format>
    <dc:creator>
     <cc:Agent>
      <dc:title>Matplotlib v3.4.2, https://matplotlib.org/</dc:title>
     </cc:Agent>
    </dc:creator>
   </cc:Work>
  </rdf:RDF>
 </metadata>
 <defs>
  <style type="text/css">*{stroke-linecap:butt;stroke-linejoin:round;}</style>
 </defs>
 <g id="figure_1">
  <g id="patch_1">
   <path d="M 0 345.6 
L 460.8 345.6 
L 460.8 0 
L 0 0 
z
" style="fill:#ffffff;"/>
  </g>
  <g id="axes_1">
   <g id="patch_2">
    <path d="M 0 293.76 
L 460.8 293.76 
L 460.8 3.456 
L 0 3.456 
z
" style="fill:#ffffff;"/>
   </g>
   <g id="matplotlib.axis_1">
    <g id="xtick_1">
     <g id="line2d_1">
      <path clip-path="url(#p9063d00ac4)" d="M 108.745186 293.76 
L 108.745186 3.456 
" style="fill:none;stroke:#b0b0b0;stroke-linecap:square;stroke-width:0.8;"/>
     </g>
     <g id="line2d_2">
      <defs>
       <path d="M 0 0 
L 0 3.5 
" id="mbcdb41fde6" style="stroke:#000000;stroke-width:0.8;"/>
      </defs>
      <g>
       <use style="stroke:#000000;stroke-width:0.8;" x="108.745186" xlink:href="#mbcdb41fde6" y="293.76"/>
      </g>
     </g>
     <g id="text_1">
      <!-- -4 -->
      <g transform="translate(98.774873 315.956875)scale(0.2 -0.2)">
       <defs>
        <path d="M 313 2009 
L 1997 2009 
L 1997 1497 
L 313 1497 
L 313 2009 
z
" id="DejaVuSans-2d" transform="scale(0.015625)"/>
        <path d="M 2419 4116 
L 825 1625 
L 2419 1625 
L 2419 4116 
z
M 2253 4666 
L 3047 4666 
L 3047 1625 
L 3713 1625 
L 3713 1100 
L 3047 1100 
L 3047 0 
L 2419 0 
L 2419 1100 
L 313 1100 
L 313 1709 
L 2253 4666 
z
" id="DejaVuSans-34" transform="scale(0.015625)"/>
       </defs>
       <use xlink:href="#DejaVuSans-2d"/>
       <use x="36.083984" xlink:href="#DejaVuSans-34"/>
      </g>
     </g>
    </g>
    <g id="xtick_2">
     <g id="line2d_3">
      <path clip-path="url(#p9063d00ac4)" d="M 217.607981 293.76 
L 217.607981 3.456 
" style="fill:none;stroke:#b0b0b0;stroke-linecap:square;stroke-width:0.8;"/>
     </g>
     <g id="line2d_4">
      <g>
       <use style="stroke:#000000;stroke-width:0.8;" x="217.607981" xlink:href="#mbcdb41fde6" y="293.76"/>
      </g>
     </g>
     <g id="text_2">
      <!-- 0 -->
      <g transform="translate(211.245481 315.956875)scale(0.2 -0.2)">
       <defs>
        <path d="M 2034 4250 
Q 1547 4250 1301 3770 
Q 1056 3291 1056 2328 
Q 1056 1369 1301 889 
Q 1547 409 2034 409 
Q 2525 409 2770 889 
Q 3016 1369 3016 2328 
Q 3016 3291 2770 3770 
Q 2525 4250 2034 4250 
z
M 2034 4750 
Q 2819 4750 3233 4129 
Q 3647 3509 3647 2328 
Q 3647 1150 3233 529 
Q 2819 -91 2034 -91 
Q 1250 -91 836 529 
Q 422 1150 422 2328 
Q 422 3509 836 4129 
Q 1250 4750 2034 4750 
z
" id="DejaVuSans-30" transform="scale(0.015625)"/>
       </defs>
       <use xlink:href="#DejaVuSans-30"/>
      </g>
     </g>
    </g>
    <g id="xtick_3">
     <g id="line2d_5">
      <path clip-path="url(#p9063d00ac4)" d="M 326.470776 293.76 
L 326.470776 3.456 
" style="fill:none;stroke:#b0b0b0;stroke-linecap:square;stroke-width:0.8;"/>
     </g>
     <g id="line2d_6">
      <g>
       <use style="stroke:#000000;stroke-width:0.8;" x="326.470776" xlink:href="#mbcdb41fde6" y="293.76"/>
      </g>
     </g>
     <g id="text_3">
      <!-- 4 -->
      <g transform="translate(320.108276 315.956875)scale(0.2 -0.2)">
       <use xlink:href="#DejaVuSans-34"/>
      </g>
     </g>
    </g>
    <g id="xtick_4">
     <g id="line2d_7">
      <path clip-path="url(#p9063d00ac4)" d="M 435.333571 293.76 
L 435.333571 3.456 
" style="fill:none;stroke:#b0b0b0;stroke-linecap:square;stroke-width:0.8;"/>
     </g>
     <g id="line2d_8">
      <g>
       <use style="stroke:#000000;stroke-width:0.8;" x="435.333571" xlink:href="#mbcdb41fde6" y="293.76"/>
      </g>
     </g>
     <g id="text_4">
      <!-- 8 -->
      <g transform="translate(428.971071 315.956875)scale(0.2 -0.2)">
       <defs>
        <path d="M 2034 2216 
Q 1584 2216 1326 1975 
Q 1069 1734 1069 1313 
Q 1069 891 1326 650 
Q 1584 409 2034 409 
Q 2484 409 2743 651 
Q 3003 894 3003 1313 
Q 3003 1734 2745 1975 
Q 2488 2216 2034 2216 
z
M 1403 2484 
Q 997 2584 770 2862 
Q 544 3141 544 3541 
Q 544 4100 942 4425 
Q 1341 4750 2034 4750 
Q 2731 4750 3128 4425 
Q 3525 4100 3525 3541 
Q 3525 3141 3298 2862 
Q 3072 2584 2669 2484 
Q 3125 2378 3379 2068 
Q 3634 1759 3634 1313 
Q 3634 634 3220 271 
Q 2806 -91 2034 -91 
Q 1263 -91 848 271 
Q 434 634 434 1313 
Q 434 1759 690 2068 
Q 947 2378 1403 2484 
z
M 1172 3481 
Q 1172 3119 1398 2916 
Q 1625 2713 2034 2713 
Q 2441 2713 2670 2916 
Q 2900 3119 2900 3481 
Q 2900 3844 2670 4047 
Q 2441 4250 2034 4250 
Q 1625 4250 1398 4047 
Q 1172 3844 1172 3481 
z
" id="DejaVuSans-38" transform="scale(0.015625)"/>
       </defs>
       <use xlink:href="#DejaVuSans-38"/>
      </g>
     </g>
    </g>
    <g id="text_5">
     <!-- log10 of Df -->
     <g transform="translate(175.214063 339.313125)scale(0.2 -0.2)">
      <defs>
       <path d="M 603 4863 
L 1178 4863 
L 1178 0 
L 603 0 
L 603 4863 
z
" id="DejaVuSans-6c" transform="scale(0.015625)"/>
       <path d="M 1959 3097 
Q 1497 3097 1228 2736 
Q 959 2375 959 1747 
Q 959 1119 1226 758 
Q 1494 397 1959 397 
Q 2419 397 2687 759 
Q 2956 1122 2956 1747 
Q 2956 2369 2687 2733 
Q 2419 3097 1959 3097 
z
M 1959 3584 
Q 2709 3584 3137 3096 
Q 3566 2609 3566 1747 
Q 3566 888 3137 398 
Q 2709 -91 1959 -91 
Q 1206 -91 779 398 
Q 353 888 353 1747 
Q 353 2609 779 3096 
Q 1206 3584 1959 3584 
z
" id="DejaVuSans-6f" transform="scale(0.015625)"/>
       <path d="M 2906 1791 
Q 2906 2416 2648 2759 
Q 2391 3103 1925 3103 
Q 1463 3103 1205 2759 
Q 947 2416 947 1791 
Q 947 1169 1205 825 
Q 1463 481 1925 481 
Q 2391 481 2648 825 
Q 2906 1169 2906 1791 
z
M 3481 434 
Q 3481 -459 3084 -895 
Q 2688 -1331 1869 -1331 
Q 1566 -1331 1297 -1286 
Q 1028 -1241 775 -1147 
L 775 -588 
Q 1028 -725 1275 -790 
Q 1522 -856 1778 -856 
Q 2344 -856 2625 -561 
Q 2906 -266 2906 331 
L 2906 616 
Q 2728 306 2450 153 
Q 2172 0 1784 0 
Q 1141 0 747 490 
Q 353 981 353 1791 
Q 353 2603 747 3093 
Q 1141 3584 1784 3584 
Q 2172 3584 2450 3431 
Q 2728 3278 2906 2969 
L 2906 3500 
L 3481 3500 
L 3481 434 
z
" id="DejaVuSans-67" transform="scale(0.015625)"/>
       <path d="M 794 531 
L 1825 531 
L 1825 4091 
L 703 3866 
L 703 4441 
L 1819 4666 
L 2450 4666 
L 2450 531 
L 3481 531 
L 3481 0 
L 794 0 
L 794 531 
z
" id="DejaVuSans-31" transform="scale(0.015625)"/>
       <path id="DejaVuSans-20" transform="scale(0.015625)"/>
       <path d="M 2375 4863 
L 2375 4384 
L 1825 4384 
Q 1516 4384 1395 4259 
Q 1275 4134 1275 3809 
L 1275 3500 
L 2222 3500 
L 2222 3053 
L 1275 3053 
L 1275 0 
L 697 0 
L 697 3053 
L 147 3053 
L 147 3500 
L 697 3500 
L 697 3744 
Q 697 4328 969 4595 
Q 1241 4863 1831 4863 
L 2375 4863 
z
" id="DejaVuSans-66" transform="scale(0.015625)"/>
       <path d="M 1259 4147 
L 1259 519 
L 2022 519 
Q 2988 519 3436 956 
Q 3884 1394 3884 2338 
Q 3884 3275 3436 3711 
Q 2988 4147 2022 4147 
L 1259 4147 
z
M 628 4666 
L 1925 4666 
Q 3281 4666 3915 4102 
Q 4550 3538 4550 2338 
Q 4550 1131 3912 565 
Q 3275 0 1925 0 
L 628 0 
L 628 4666 
z
" id="DejaVuSans-44" transform="scale(0.015625)"/>
      </defs>
      <use xlink:href="#DejaVuSans-6c"/>
      <use x="27.783203" xlink:href="#DejaVuSans-6f"/>
      <use x="88.964844" xlink:href="#DejaVuSans-67"/>
      <use x="152.441406" xlink:href="#DejaVuSans-31"/>
      <use x="216.064453" xlink:href="#DejaVuSans-30"/>
      <use x="279.6875" xlink:href="#DejaVuSans-20"/>
      <use x="311.474609" xlink:href="#DejaVuSans-6f"/>
      <use x="372.65625" xlink:href="#DejaVuSans-66"/>
      <use x="407.861328" xlink:href="#DejaVuSans-20"/>
      <use x="439.648438" xlink:href="#DejaVuSans-44"/>
      <use x="516.650391" xlink:href="#DejaVuSans-66"/>
     </g>
    </g>
   </g>
   <g id="matplotlib.axis_2">
    <g id="ytick_1">
     <g id="line2d_9">
      <path clip-path="url(#p9063d00ac4)" d="M 0 293.76 
L 460.8 293.76 
" style="fill:none;stroke:#b0b0b0;stroke-linecap:square;stroke-width:0.8;"/>
     </g>
     <g id="line2d_10">
      <defs>
       <path d="M 0 0 
L -3.5 0 
" id="mc9415cdbfb" style="stroke:#000000;stroke-width:0.8;"/>
      </defs>
      <g>
       <use style="stroke:#000000;stroke-width:0.8;" x="0" xlink:href="#mc9415cdbfb" y="293.76"/>
      </g>
     </g>
    </g>
    <g id="ytick_2">
     <g id="line2d_11">
      <path clip-path="url(#p9063d00ac4)" d="M 0 236.274059 
L 460.8 236.274059 
" style="fill:none;stroke:#b0b0b0;stroke-linecap:square;stroke-width:0.8;"/>
     </g>
     <g id="line2d_12">
      <g>
       <use style="stroke:#000000;stroke-width:0.8;" x="0" xlink:href="#mc9415cdbfb" y="236.274059"/>
      </g>
     </g>
    </g>
    <g id="ytick_3">
     <g id="line2d_13">
      <path clip-path="url(#p9063d00ac4)" d="M 0 178.788119 
L 460.8 178.788119 
" style="fill:none;stroke:#b0b0b0;stroke-linecap:square;stroke-width:0.8;"/>
     </g>
     <g id="line2d_14">
      <g>
       <use style="stroke:#000000;stroke-width:0.8;" x="0" xlink:href="#mc9415cdbfb" y="178.788119"/>
      </g>
     </g>
    </g>
    <g id="ytick_4">
     <g id="line2d_15">
      <path clip-path="url(#p9063d00ac4)" d="M 0 121.302178 
L 460.8 121.302178 
" style="fill:none;stroke:#b0b0b0;stroke-linecap:square;stroke-width:0.8;"/>
     </g>
     <g id="line2d_16">
      <g>
       <use style="stroke:#000000;stroke-width:0.8;" x="0" xlink:href="#mc9415cdbfb" y="121.302178"/>
      </g>
     </g>
    </g>
    <g id="ytick_5">
     <g id="line2d_17">
      <path clip-path="url(#p9063d00ac4)" d="M 0 63.816238 
L 460.8 63.816238 
" style="fill:none;stroke:#b0b0b0;stroke-linecap:square;stroke-width:0.8;"/>
     </g>
     <g id="line2d_18">
      <g>
       <use style="stroke:#000000;stroke-width:0.8;" x="0" xlink:href="#mc9415cdbfb" y="63.816238"/>
      </g>
     </g>
    </g>
    <g id="ytick_6">
     <g id="line2d_19">
      <path clip-path="url(#p9063d00ac4)" d="M 0 6.330297 
L 460.8 6.330297 
" style="fill:none;stroke:#b0b0b0;stroke-linecap:square;stroke-width:0.8;"/>
     </g>
     <g id="line2d_20">
      <g>
       <use style="stroke:#000000;stroke-width:0.8;" x="0" xlink:href="#mc9415cdbfb" y="6.330297"/>
      </g>
     </g>
    </g>
   </g>
   <g id="line2d_21">
    <path clip-path="url(#p9063d00ac4)" d="M 277.663286 293.76 
L 277.663286 288.969505 
L 279.618728 288.969505 
L 279.618728 284.17901 
L 280.876753 284.17901 
L 280.876753 279.388515 
L 282.812158 279.388515 
L 282.812158 274.59802 
L 283.697095 274.59802 
L 283.697095 269.807525 
L 283.97883 269.807525 
L 283.97883 265.01703 
L 284.571661 265.01703 
L 284.571661 260.226535 
L 285.993614 260.226535 
L 285.993614 255.43604 
L 286.011695 255.43604 
L 286.011695 250.645545 
L 286.140689 250.645545 
L 286.140689 245.85505 
L 286.374418 245.85505 
L 286.374418 241.064554 
L 286.443829 241.064554 
L 286.443829 236.274059 
L 289.482865 236.274059 
L 289.482865 231.483564 
L 291.053162 231.483564 
L 291.053162 226.693069 
L 292.560903 226.693069 
L 292.560903 221.902574 
L 303.453282 221.902574 
L 303.453282 217.112079 
L 304.496187 217.112079 
L 304.496187 212.321584 
L 309.05758 212.321584 
L 309.05758 207.531089 
L 309.986062 207.531089 
L 309.986062 202.740594 
L 310.554277 202.740594 
L 310.554277 197.950099 
L 310.831594 197.950099 
L 310.831594 193.159604 
L 311.668244 193.159604 
L 311.668244 188.369109 
L 312.220272 188.369109 
L 312.220272 183.578614 
L 312.234719 183.578614 
L 312.234719 178.788119 
L 312.605127 178.788119 
L 312.605127 173.997624 
L 313.228204 173.997624 
L 313.228204 169.207129 
L 314.745638 169.207129 
L 314.745638 164.416634 
L 314.924321 164.416634 
L 314.924321 159.626139 
L 315.237427 159.626139 
L 315.237427 154.835644 
L 317.748906 154.835644 
L 317.748906 150.045149 
L 318.791548 150.045149 
L 318.791548 145.254653 
L 330.258954 145.254653 
L 330.258954 140.464158 
L 332.766696 140.464158 
L 332.766696 135.673663 
L 334.537895 135.673663 
L 334.537895 130.883168 
L 336.092143 130.883168 
L 336.092143 126.092673 
L 336.115544 126.092673 
L 336.115544 121.302178 
L 336.323177 121.302178 
L 336.323177 116.511683 
L 336.461481 116.511683 
L 336.461481 111.721188 
L 336.631355 111.721188 
L 336.631355 106.930693 
L 337.764403 106.930693 
L 337.764403 102.140198 
L 339.963647 102.140198 
L 339.963647 97.349703 
L 340.4164 97.349703 
L 340.4164 92.559208 
L 340.518039 92.559208 
L 340.518039 87.768713 
L 340.978355 87.768713 
L 340.978355 82.978218 
L 342.550288 82.978218 
L 342.550288 78.187723 
L 345.695216 78.187723 
L 345.695216 73.397228 
L 347.842782 73.397228 
L 347.842782 68.606733 
L 351.232511 68.606733 
L 351.232511 63.816238 
L 351.995014 63.816238 
L 351.995014 59.025743 
L 352.014648 59.025743 
L 352.014648 54.235248 
L 352.701803 54.235248 
L 352.701803 49.444752 
L 353.742606 49.444752 
L 353.742606 44.654257 
L 357.569091 44.654257 
L 357.569091 39.863762 
L 360.82503 39.863762 
L 360.82503 35.073267 
L 360.868699 35.073267 
L 360.868699 30.282772 
L 361.623053 30.282772 
L 361.623053 25.492277 
L 366.265538 25.492277 
L 366.265538 20.701782 
L 367.012104 20.701782 
L 367.012104 15.911287 
L 368.647783 15.911287 
L 368.647783 11.120792 
L 370.995398 11.120792 
L 370.995398 6.330297 
L 370.995398 6.330297 
L 370.995398 6.330297 
L 460.8 6.330297 
" style="fill:none;stroke:#ff0000;stroke-linecap:square;stroke-width:3;"/>
   </g>
   <g id="line2d_22">
    <path clip-path="url(#p9063d00ac4)" d="M 287.095193 293.76 
L 287.095193 288.969505 
L 290.22437 288.969505 
L 290.22437 284.17901 
L 290.939125 284.17901 
L 290.939125 279.388515 
L 292.231918 279.388515 
L 292.231918 274.59802 
L 293.194403 274.59802 
L 293.194403 269.807525 
L 294.042939 269.807525 
L 294.042939 265.01703 
L 294.767666 265.01703 
L 294.767666 260.226535 
L 296.039621 260.226535 
L 296.039621 255.43604 
L 297.235811 255.43604 
L 297.235811 250.645545 
L 297.644784 250.645545 
L 297.644784 245.85505 
L 298.636097 245.85505 
L 298.636097 241.064554 
L 302.712463 241.064554 
L 302.712463 236.274059 
L 302.771263 236.274059 
L 302.771263 231.483564 
L 303.453282 231.483564 
L 303.453282 226.693069 
L 303.477541 226.693069 
L 303.477541 221.902574 
L 304.496187 221.902574 
L 304.496187 217.112079 
L 307.42286 217.112079 
L 307.42286 212.321584 
L 309.05758 212.321584 
L 309.05758 207.531089 
L 309.986062 207.531089 
L 309.986062 202.740594 
L 311.668244 202.740594 
L 311.668244 197.950099 
L 312.220272 197.950099 
L 312.220272 193.159604 
L 312.234719 193.159604 
L 312.234719 188.369109 
L 312.605127 188.369109 
L 312.605127 183.578614 
L 313.053262 183.578614 
L 313.053262 178.788119 
L 314.745638 178.788119 
L 314.745638 173.997624 
L 314.924321 173.997624 
L 314.924321 169.207129 
L 315.237427 169.207129 
L 315.237427 164.416634 
L 315.345309 164.416634 
L 315.345309 159.626139 
L 316.146519 159.626139 
L 316.146519 154.835644 
L 319.788715 154.835644 
L 319.788715 150.045149 
L 330.328738 150.045149 
L 330.328738 145.254653 
L 335.900038 145.254653 
L 335.900038 140.464158 
L 336.092143 140.464158 
L 336.092143 135.673663 
L 337.764403 135.673663 
L 337.764403 130.883168 
L 339.179844 130.883168 
L 339.179844 126.092673 
L 340.4164 126.092673 
L 340.4164 121.302178 
L 341.05549 121.302178 
L 341.05549 116.511683 
L 344.205283 116.511683 
L 344.205283 111.721188 
L 344.491253 111.721188 
L 344.491253 106.930693 
L 345.008913 106.930693 
L 345.008913 102.140198 
L 345.695216 102.140198 
L 345.695216 97.349703 
L 346.401557 97.349703 
L 346.401557 92.559208 
L 348.505424 92.559208 
L 348.505424 87.768713 
L 352.750687 87.768713 
L 352.750687 82.978218 
L 353.137962 82.978218 
L 353.137962 78.187723 
L 356.434633 78.187723 
L 356.434633 73.397228 
L 357.542414 73.397228 
L 357.542414 68.606733 
L 361.827345 68.606733 
L 361.827345 63.816238 
L 363.476782 63.816238 
L 363.476782 59.025743 
L 366.363802 59.025743 
L 366.363802 54.235248 
L 367.574725 54.235248 
L 367.574725 49.444752 
L 367.893391 49.444752 
L 367.893391 44.654257 
L 367.971383 44.654257 
L 367.971383 39.863762 
L 369.557603 39.863762 
L 369.557603 35.073267 
L 372.395031 35.073267 
L 372.395031 30.282772 
L 373.02406 30.282772 
L 373.02406 25.492277 
L 374.253932 25.492277 
L 374.253932 20.701782 
L 374.441839 20.701782 
L 374.441839 15.911287 
L 375.468493 15.911287 
L 375.468493 11.120792 
L 381.377546 11.120792 
L 381.377546 6.330297 
L 381.377546 6.330297 
L 381.377546 6.330297 
L 460.8 6.330297 
" style="fill:none;stroke:#00bfbf;stroke-linecap:square;stroke-width:1.5;"/>
   </g>
   <g id="line2d_23">
    <path clip-path="url(#p9063d00ac4)" d="M 278.293465 293.76 
L 278.293465 288.969505 
L 288.687179 288.969505 
L 288.687179 284.17901 
L 290.22437 284.17901 
L 290.22437 279.388515 
L 290.939125 279.388515 
L 290.939125 274.59802 
L 292.231918 274.59802 
L 292.231918 269.807525 
L 292.914769 269.807525 
L 292.914769 265.01703 
L 293.194403 265.01703 
L 293.194403 260.226535 
L 294.042939 260.226535 
L 294.042939 255.43604 
L 296.039621 255.43604 
L 296.039621 250.645545 
L 297.235811 250.645545 
L 297.235811 245.85505 
L 298.636097 245.85505 
L 298.636097 241.064554 
L 302.712463 241.064554 
L 302.712463 236.274059 
L 302.771263 236.274059 
L 302.771263 231.483564 
L 303.453282 231.483564 
L 303.453282 226.693069 
L 303.477541 226.693069 
L 303.477541 221.902574 
L 304.496187 221.902574 
L 304.496187 217.112079 
L 307.42286 217.112079 
L 307.42286 212.321584 
L 309.05758 212.321584 
L 309.05758 207.531089 
L 309.986062 207.531089 
L 309.986062 202.740594 
L 310.554277 202.740594 
L 310.554277 197.950099 
L 310.831594 197.950099 
L 310.831594 193.159604 
L 311.668244 193.159604 
L 311.668244 188.369109 
L 312.220272 188.369109 
L 312.220272 183.578614 
L 312.234719 183.578614 
L 312.234719 178.788119 
L 312.605127 178.788119 
L 312.605127 173.997624 
L 313.228204 173.997624 
L 313.228204 169.207129 
L 314.745638 169.207129 
L 314.745638 164.416634 
L 314.924321 164.416634 
L 314.924321 159.626139 
L 315.237427 159.626139 
L 315.237427 154.835644 
L 318.791548 154.835644 
L 318.791548 150.045149 
L 330.258954 150.045149 
L 330.258954 145.254653 
L 334.774499 145.254653 
L 334.774499 140.464158 
L 335.900038 140.464158 
L 335.900038 135.673663 
L 336.092143 135.673663 
L 336.092143 130.883168 
L 337.764403 130.883168 
L 337.764403 126.092673 
L 339.179844 126.092673 
L 339.179844 121.302178 
L 340.4164 121.302178 
L 340.4164 116.511683 
L 341.05549 116.511683 
L 341.05549 111.721188 
L 344.491253 111.721188 
L 344.491253 106.930693 
L 345.008913 106.930693 
L 345.008913 102.140198 
L 345.695216 102.140198 
L 345.695216 97.349703 
L 346.401557 97.349703 
L 346.401557 92.559208 
L 348.505424 92.559208 
L 348.505424 87.768713 
L 350.546752 87.768713 
L 350.546752 82.978218 
L 352.750687 82.978218 
L 352.750687 78.187723 
L 353.247337 78.187723 
L 353.247337 73.397228 
L 356.434633 73.397228 
L 356.434633 68.606733 
L 361.827345 68.606733 
L 361.827345 63.816238 
L 362.725249 63.816238 
L 362.725249 59.025743 
L 363.476782 59.025743 
L 363.476782 54.235248 
L 367.574725 54.235248 
L 367.574725 49.444752 
L 367.893391 49.444752 
L 367.893391 44.654257 
L 367.971383 44.654257 
L 367.971383 39.863762 
L 369.557603 39.863762 
L 369.557603 35.073267 
L 372.395031 35.073267 
L 372.395031 30.282772 
L 373.02406 30.282772 
L 373.02406 25.492277 
L 374.253932 25.492277 
L 374.253932 20.701782 
L 374.441839 20.701782 
L 374.441839 15.911287 
L 374.758821 15.911287 
L 374.758821 11.120792 
L 379.863895 11.120792 
L 379.863895 6.330297 
L 379.863895 6.330297 
L 379.863895 6.330297 
L 460.8 6.330297 
" style="fill:none;stroke:#bf00bf;stroke-linecap:square;stroke-width:1.5;"/>
   </g>
   <g id="line2d_24">
    <path clip-path="url(#p9063d00ac4)" d="M 278.293465 293.76 
L 278.293465 288.969505 
L 288.227102 288.969505 
L 288.227102 284.17901 
L 288.687179 284.17901 
L 288.687179 279.388515 
L 290.22437 279.388515 
L 290.22437 274.59802 
L 290.589323 274.59802 
L 290.589323 269.807525 
L 292.231918 269.807525 
L 292.231918 265.01703 
L 293.194403 265.01703 
L 293.194403 260.226535 
L 294.042939 260.226535 
L 294.042939 255.43604 
L 296.039621 255.43604 
L 296.039621 250.645545 
L 296.57999 250.645545 
L 296.57999 245.85505 
L 297.235811 245.85505 
L 297.235811 241.064554 
L 298.386527 241.064554 
L 298.386527 236.274059 
L 300.158133 236.274059 
L 300.158133 231.483564 
L 302.712463 231.483564 
L 302.712463 226.693069 
L 303.453282 226.693069 
L 303.453282 221.902574 
L 304.496187 221.902574 
L 304.496187 217.112079 
L 307.036876 217.112079 
L 307.036876 212.321584 
L 309.05758 212.321584 
L 309.05758 207.531089 
L 309.986062 207.531089 
L 309.986062 202.740594 
L 310.554277 202.740594 
L 310.554277 197.950099 
L 310.831594 197.950099 
L 310.831594 193.159604 
L 311.668244 193.159604 
L 311.668244 188.369109 
L 312.220272 188.369109 
L 312.220272 183.578614 
L 312.234719 183.578614 
L 312.234719 178.788119 
L 312.605127 178.788119 
L 312.605127 173.997624 
L 313.228204 173.997624 
L 313.228204 169.207129 
L 314.745638 169.207129 
L 314.745638 164.416634 
L 314.924321 164.416634 
L 314.924321 159.626139 
L 315.237427 159.626139 
L 315.237427 154.835644 
L 318.791548 154.835644 
L 318.791548 150.045149 
L 330.258954 150.045149 
L 330.258954 145.254653 
L 334.774499 145.254653 
L 334.774499 140.464158 
L 335.900038 140.464158 
L 335.900038 135.673663 
L 336.092143 135.673663 
L 336.092143 130.883168 
L 337.764403 130.883168 
L 337.764403 126.092673 
L 339.179844 126.092673 
L 339.179844 121.302178 
L 340.4164 121.302178 
L 340.4164 116.511683 
L 341.05549 116.511683 
L 341.05549 111.721188 
L 341.350551 111.721188 
L 341.350551 106.930693 
L 345.008913 106.930693 
L 345.008913 102.140198 
L 345.068309 102.140198 
L 345.068309 97.349703 
L 345.695216 97.349703 
L 345.695216 92.559208 
L 346.401557 92.559208 
L 346.401557 87.768713 
L 348.505424 87.768713 
L 348.505424 82.978218 
L 350.546752 82.978218 
L 350.546752 78.187723 
L 352.750687 78.187723 
L 352.750687 73.397228 
L 355.410823 73.397228 
L 355.410823 68.606733 
L 356.434633 68.606733 
L 356.434633 63.816238 
L 360.427203 63.816238 
L 360.427203 59.025743 
L 361.827345 59.025743 
L 361.827345 54.235248 
L 362.725249 54.235248 
L 362.725249 49.444752 
L 363.476782 49.444752 
L 363.476782 44.654257 
L 366.429324 44.654257 
L 366.429324 39.863762 
L 367.574725 39.863762 
L 367.574725 35.073267 
L 370.591255 35.073267 
L 370.591255 30.282772 
L 372.032813 30.282772 
L 372.032813 25.492277 
L 372.395031 25.492277 
L 372.395031 20.701782 
L 374.253932 20.701782 
L 374.253932 15.911287 
L 374.441839 15.911287 
L 374.441839 11.120792 
L 379.863895 11.120792 
L 379.863895 6.330297 
L 379.863895 6.330297 
L 379.863895 6.330297 
L 460.8 6.330297 
" style="fill:none;stroke:#000000;stroke-linecap:square;stroke-width:1.5;"/>
   </g>
   <g id="line2d_25">
    <path clip-path="url(#p9063d00ac4)" d="M 278.293465 293.76 
L 278.293465 288.969505 
L 284.772906 288.969505 
L 284.772906 284.17901 
L 285.584659 284.17901 
L 285.584659 279.388515 
L 287.026486 279.388515 
L 287.026486 274.59802 
L 288.687179 274.59802 
L 288.687179 269.807525 
L 290.589323 269.807525 
L 290.589323 265.01703 
L 290.724814 265.01703 
L 290.724814 260.226535 
L 291.431003 260.226535 
L 291.431003 255.43604 
L 291.868289 255.43604 
L 291.868289 250.645545 
L 293.194403 250.645545 
L 293.194403 245.85505 
L 295.852008 245.85505 
L 295.852008 241.064554 
L 296.491522 241.064554 
L 296.491522 236.274059 
L 297.377565 236.274059 
L 297.377565 231.483564 
L 298.331419 231.483564 
L 298.331419 226.693069 
L 300.252223 226.693069 
L 300.252223 221.902574 
L 303.453282 221.902574 
L 303.453282 217.112079 
L 304.496187 217.112079 
L 304.496187 212.321584 
L 309.05758 212.321584 
L 309.05758 207.531089 
L 309.986062 207.531089 
L 309.986062 202.740594 
L 310.554277 202.740594 
L 310.554277 197.950099 
L 310.831594 197.950099 
L 310.831594 193.159604 
L 311.668244 193.159604 
L 311.668244 188.369109 
L 312.220272 188.369109 
L 312.220272 183.578614 
L 312.234719 183.578614 
L 312.234719 178.788119 
L 312.605127 178.788119 
L 312.605127 173.997624 
L 313.228204 173.997624 
L 313.228204 169.207129 
L 314.745638 169.207129 
L 314.745638 164.416634 
L 314.924321 164.416634 
L 314.924321 159.626139 
L 315.237427 159.626139 
L 315.237427 154.835644 
L 318.791548 154.835644 
L 318.791548 150.045149 
L 330.258954 150.045149 
L 330.258954 145.254653 
L 334.774499 145.254653 
L 334.774499 140.464158 
L 335.900038 140.464158 
L 335.900038 135.673663 
L 336.092143 135.673663 
L 336.092143 130.883168 
L 337.764403 130.883168 
L 337.764403 126.092673 
L 339.179844 126.092673 
L 339.179844 121.302178 
L 340.4164 121.302178 
L 340.4164 116.511683 
L 341.05549 116.511683 
L 341.05549 111.721188 
L 341.350551 111.721188 
L 341.350551 106.930693 
L 344.045832 106.930693 
L 344.045832 102.140198 
L 344.748257 102.140198 
L 344.748257 97.349703 
L 345.068309 97.349703 
L 345.068309 92.559208 
L 345.695216 92.559208 
L 345.695216 87.768713 
L 346.401557 87.768713 
L 346.401557 82.978218 
L 350.546752 82.978218 
L 350.546752 78.187723 
L 352.750687 78.187723 
L 352.750687 73.397228 
L 355.410823 73.397228 
L 355.410823 68.606733 
L 355.990821 68.606733 
L 355.990821 63.816238 
L 357.882873 63.816238 
L 357.882873 59.025743 
L 360.427203 59.025743 
L 360.427203 54.235248 
L 362.589295 54.235248 
L 362.589295 49.444752 
L 363.476782 49.444752 
L 363.476782 44.654257 
L 363.600036 44.654257 
L 363.600036 39.863762 
L 365.858167 39.863762 
L 365.858167 35.073267 
L 366.76092 35.073267 
L 366.76092 30.282772 
L 369.246904 30.282772 
L 369.246904 25.492277 
L 369.81814 25.492277 
L 369.81814 20.701782 
L 372.395031 20.701782 
L 372.395031 15.911287 
L 372.571914 15.911287 
L 372.571914 11.120792 
L 375.91976 11.120792 
L 375.91976 6.330297 
L 375.91976 6.330297 
L 375.91976 6.330297 
L 460.8 6.330297 
" style="fill:none;stroke:#00bfbf;stroke-linecap:square;stroke-width:1.5;"/>
   </g>
   <g id="line2d_26">
    <path clip-path="url(#p9063d00ac4)" d="M 277.663286 293.76 
L 277.663286 288.969505 
L 279.618728 288.969505 
L 279.618728 284.17901 
L 280.876753 284.17901 
L 280.876753 279.388515 
L 282.812158 279.388515 
L 282.812158 274.59802 
L 283.697095 274.59802 
L 283.697095 269.807525 
L 283.97883 269.807525 
L 283.97883 265.01703 
L 284.571661 265.01703 
L 284.571661 260.226535 
L 285.993614 260.226535 
L 285.993614 255.43604 
L 286.011695 255.43604 
L 286.011695 250.645545 
L 286.140689 250.645545 
L 286.140689 245.85505 
L 286.374418 245.85505 
L 286.374418 241.064554 
L 286.443829 241.064554 
L 286.443829 236.274059 
L 289.482865 236.274059 
L 289.482865 231.483564 
L 291.053162 231.483564 
L 291.053162 226.693069 
L 292.560903 226.693069 
L 292.560903 221.902574 
L 303.453282 221.902574 
L 303.453282 217.112079 
L 304.496187 217.112079 
L 304.496187 212.321584 
L 309.05758 212.321584 
L 309.05758 207.531089 
L 309.986062 207.531089 
L 309.986062 202.740594 
L 310.554277 202.740594 
L 310.554277 197.950099 
L 310.831594 197.950099 
L 310.831594 193.159604 
L 311.668244 193.159604 
L 311.668244 188.369109 
L 312.220272 188.369109 
L 312.220272 183.578614 
L 312.234719 183.578614 
L 312.234719 178.788119 
L 312.605127 178.788119 
L 312.605127 173.997624 
L 313.228204 173.997624 
L 313.228204 169.207129 
L 314.745638 169.207129 
L 314.745638 164.416634 
L 314.924321 164.416634 
L 314.924321 159.626139 
L 315.237427 159.626139 
L 315.237427 154.835644 
L 317.748906 154.835644 
L 317.748906 150.045149 
L 318.791548 150.045149 
L 318.791548 145.254653 
L 330.258954 145.254653 
L 330.258954 140.464158 
L 332.766696 140.464158 
L 332.766696 135.673663 
L 334.537895 135.673663 
L 334.537895 130.883168 
L 336.092143 130.883168 
L 336.092143 126.092673 
L 336.115544 126.092673 
L 336.115544 121.302178 
L 336.323177 121.302178 
L 336.323177 116.511683 
L 336.461481 116.511683 
L 336.461481 111.721188 
L 336.631355 111.721188 
L 336.631355 106.930693 
L 337.764403 106.930693 
L 337.764403 102.140198 
L 339.963647 102.140198 
L 339.963647 97.349703 
L 340.4164 97.349703 
L 340.4164 92.559208 
L 340.518039 92.559208 
L 340.518039 87.768713 
L 340.978355 87.768713 
L 340.978355 82.978218 
L 342.550288 82.978218 
L 342.550288 78.187723 
L 345.695216 78.187723 
L 345.695216 73.397228 
L 347.842782 73.397228 
L 347.842782 68.606733 
L 351.232511 68.606733 
L 351.232511 63.816238 
L 351.995014 63.816238 
L 351.995014 59.025743 
L 352.014648 59.025743 
L 352.014648 54.235248 
L 352.701803 54.235248 
L 352.701803 49.444752 
L 353.742606 49.444752 
L 353.742606 44.654257 
L 357.569091 44.654257 
L 357.569091 39.863762 
L 360.82503 39.863762 
L 360.82503 35.073267 
L 360.868699 35.073267 
L 360.868699 30.282772 
L 361.623053 30.282772 
L 361.623053 25.492277 
L 366.265538 25.492277 
L 366.265538 20.701782 
L 367.012104 20.701782 
L 367.012104 15.911287 
L 368.647783 15.911287 
L 368.647783 11.120792 
L 370.995398 11.120792 
L 370.995398 6.330297 
L 370.995398 6.330297 
L 370.995398 6.330297 
L 460.8 6.330297 
" style="fill:none;stroke:#bf00bf;stroke-linecap:square;stroke-width:1.5;"/>
   </g>
   <g id="patch_3">
    <path d="M 0 293.76 
L 0 3.456 
" style="fill:none;stroke:#000000;stroke-linecap:square;stroke-linejoin:miter;stroke-width:0.8;"/>
   </g>
   <g id="patch_4">
    <path d="M 460.8 293.76 
L 460.8 3.456 
" style="fill:none;stroke:#000000;stroke-linecap:square;stroke-linejoin:miter;stroke-width:0.8;"/>
   </g>
   <g id="patch_5">
    <path d="M 0 293.76 
L 460.8 293.76 
" style="fill:none;stroke:#000000;stroke-linecap:square;stroke-linejoin:miter;stroke-width:0.8;"/>
   </g>
   <g id="patch_6">
    <path d="M 0 3.456 
L 460.8 3.456 
" style="fill:none;stroke:#000000;stroke-linecap:square;stroke-linejoin:miter;stroke-width:0.8;"/>
   </g>
   <g id="text_6">
    <!-- {f6-f9}, 20-D -->
    <g transform="translate(318.609 287.95392)scale(0.2 -0.2)">
     <defs>
      <path d="M 3272 -594 
L 3272 -1044 
L 3078 -1044 
Q 2300 -1044 2036 -812 
Q 1772 -581 1772 109 
L 1772 856 
Q 1772 1328 1603 1509 
Q 1434 1691 991 1691 
L 800 1691 
L 800 2138 
L 991 2138 
Q 1438 2138 1605 2317 
Q 1772 2497 1772 2963 
L 1772 3713 
Q 1772 4403 2036 4633 
Q 2300 4863 3078 4863 
L 3272 4863 
L 3272 4416 
L 3059 4416 
Q 2619 4416 2484 4278 
Q 2350 4141 2350 3700 
L 2350 2925 
Q 2350 2434 2208 2212 
Q 2066 1991 1722 1913 
Q 2069 1828 2209 1606 
Q 2350 1384 2350 897 
L 2350 122 
Q 2350 -319 2484 -456 
Q 2619 -594 3059 -594 
L 3272 -594 
z
" id="DejaVuSans-7b" transform="scale(0.015625)"/>
      <path d="M 2113 2584 
Q 1688 2584 1439 2293 
Q 1191 2003 1191 1497 
Q 1191 994 1439 701 
Q 1688 409 2113 409 
Q 2538 409 2786 701 
Q 3034 994 3034 1497 
Q 3034 2003 2786 2293 
Q 2538 2584 2113 2584 
z
M 3366 4563 
L 3366 3988 
Q 3128 4100 2886 4159 
Q 2644 4219 2406 4219 
Q 1781 4219 1451 3797 
Q 1122 3375 1075 2522 
Q 1259 2794 1537 2939 
Q 1816 3084 2150 3084 
Q 2853 3084 3261 2657 
Q 3669 2231 3669 1497 
Q 3669 778 3244 343 
Q 2819 -91 2113 -91 
Q 1303 -91 875 529 
Q 447 1150 447 2328 
Q 447 3434 972 4092 
Q 1497 4750 2381 4750 
Q 2619 4750 2861 4703 
Q 3103 4656 3366 4563 
z
" id="DejaVuSans-36" transform="scale(0.015625)"/>
      <path d="M 703 97 
L 703 672 
Q 941 559 1184 500 
Q 1428 441 1663 441 
Q 2288 441 2617 861 
Q 2947 1281 2994 2138 
Q 2813 1869 2534 1725 
Q 2256 1581 1919 1581 
Q 1219 1581 811 2004 
Q 403 2428 403 3163 
Q 403 3881 828 4315 
Q 1253 4750 1959 4750 
Q 2769 4750 3195 4129 
Q 3622 3509 3622 2328 
Q 3622 1225 3098 567 
Q 2575 -91 1691 -91 
Q 1453 -91 1209 -44 
Q 966 3 703 97 
z
M 1959 2075 
Q 2384 2075 2632 2365 
Q 2881 2656 2881 3163 
Q 2881 3666 2632 3958 
Q 2384 4250 1959 4250 
Q 1534 4250 1286 3958 
Q 1038 3666 1038 3163 
Q 1038 2656 1286 2365 
Q 1534 2075 1959 2075 
z
" id="DejaVuSans-39" transform="scale(0.015625)"/>
      <path d="M 800 -594 
L 1019 -594 
Q 1456 -594 1589 -459 
Q 1722 -325 1722 122 
L 1722 897 
Q 1722 1384 1862 1606 
Q 2003 1828 2350 1913 
Q 2003 1991 1862 2212 
Q 1722 2434 1722 2925 
L 1722 3700 
Q 1722 4144 1589 4280 
Q 1456 4416 1019 4416 
L 800 4416 
L 800 4863 
L 997 4863 
Q 1775 4863 2036 4633 
Q 2297 4403 2297 3713 
L 2297 2963 
Q 2297 2497 2465 2317 
Q 2634 2138 3078 2138 
L 3272 2138 
L 3272 1691 
L 3078 1691 
Q 2634 1691 2465 1509 
Q 2297 1328 2297 856 
L 2297 109 
Q 2297 -581 2036 -812 
Q 1775 -1044 997 -1044 
L 800 -1044 
L 800 -594 
z
" id="DejaVuSans-7d" transform="scale(0.015625)"/>
      <path d="M 750 794 
L 1409 794 
L 1409 256 
L 897 -744 
L 494 -744 
L 750 256 
L 750 794 
z
" id="DejaVuSans-2c" transform="scale(0.015625)"/>
      <path d="M 1228 531 
L 3431 531 
L 3431 0 
L 469 0 
L 469 531 
Q 828 903 1448 1529 
Q 2069 2156 2228 2338 
Q 2531 2678 2651 2914 
Q 2772 3150 2772 3378 
Q 2772 3750 2511 3984 
Q 2250 4219 1831 4219 
Q 1534 4219 1204 4116 
Q 875 4013 500 3803 
L 500 4441 
Q 881 4594 1212 4672 
Q 1544 4750 1819 4750 
Q 2544 4750 2975 4387 
Q 3406 4025 3406 3419 
Q 3406 3131 3298 2873 
Q 3191 2616 2906 2266 
Q 2828 2175 2409 1742 
Q 1991 1309 1228 531 
z
" id="DejaVuSans-32" transform="scale(0.015625)"/>
     </defs>
     <use xlink:href="#DejaVuSans-7b"/>
     <use x="63.623047" xlink:href="#DejaVuSans-66"/>
     <use x="98.828125" xlink:href="#DejaVuSans-36"/>
     <use x="162.451172" xlink:href="#DejaVuSans-2d"/>
     <use x="198.535156" xlink:href="#DejaVuSans-66"/>
     <use x="233.740234" xlink:href="#DejaVuSans-39"/>
     <use x="297.363281" xlink:href="#DejaVuSans-7d"/>
     <use x="360.986328" xlink:href="#DejaVuSans-2c"/>
     <use x="392.773438" xlink:href="#DejaVuSans-20"/>
     <use x="424.560547" xlink:href="#DejaVuSans-32"/>
     <use x="488.183594" xlink:href="#DejaVuSans-30"/>
     <use x="551.806641" xlink:href="#DejaVuSans-2d"/>
     <use x="587.890625" xlink:href="#DejaVuSans-44"/>
    </g>
   </g>
   <g id="text_7">
    <!-- v2.4 -->
    <g style="fill:#808080;" transform="translate(219.489063 288.777272)scale(0.1 -0.1)">
     <defs>
      <path d="M 191 3500 
L 800 3500 
L 1894 563 
L 2988 3500 
L 3597 3500 
L 2284 0 
L 1503 0 
L 191 3500 
z
" id="DejaVuSans-76" transform="scale(0.015625)"/>
      <path d="M 684 794 
L 1344 794 
L 1344 0 
L 684 0 
L 684 794 
z
" id="DejaVuSans-2e" transform="scale(0.015625)"/>
     </defs>
     <use xlink:href="#DejaVuSans-76"/>
     <use x="59.179688" xlink:href="#DejaVuSans-32"/>
     <use x="122.802734" xlink:href="#DejaVuSans-2e"/>
     <use x="154.589844" xlink:href="#DejaVuSans-34"/>
    </g>
   </g>
  </g>
 </g>
 <defs>
  <clipPath id="p9063d00ac4">
   <rect height="290.304" width="460.8" x="0" y="3.456"/>
  </clipPath>
 </defs>
</svg>
