<?xml version="1.0" encoding="utf-8" standalone="no"?>
<!DOCTYPE svg PUBLIC "-//W3C//DTD SVG 1.1//EN"
  "http://www.w3.org/Graphics/SVG/1.1/DTD/svg11.dtd">
<svg height="345.6pt" version="1.1" viewBox="0 0 460.8 345.6" width="460.8pt" xmlns="http://www.w3.org/2000/svg" xmlns:xlink="http://www.w3.org/1999/xlink">
 <metadata>
  <rdf:RDF xmlns:cc="http://creativecommons.org/ns#" xmlns:dc="http://purl.org/dc/elements/1.1/" xmlns:rdf="http://www.w3.org/1999/02/22-rdf-syntax-ns#">
   <cc:Work>
    <dc:type rdf:resource="http://purl.org/dc/dcmitype/StillImage"/>
    <dc:date>2021-06-14T12:33:42.311550</dc:date>
    <dc:format>image/svg+xml</dc:format>
    <dc:creator>
     <cc:Agent>
      <dc:title>Matplotlib v3.4.2, https://matplotlib.org/</dc:title>
     </cc:Agent>
    </dc:creator>
   </cc:Work>
  </rdf:RDF>
 </metadata>
 <defs>
  <style type="text/css">*{stroke-linecap:butt;stroke-linejoin:round;}</style>
 </defs>
 <g id="figure_1">
  <g id="patch_1">
   <path d="M 0 345.6 
L 460.8 345.6 
L 460.8 0 
L 0 0 
z
" style="fill:#ffffff;"/>
  </g>
  <g id="axes_1">
   <g id="patch_2">
    <path d="M 0 293.76 
L 460.8 293.76 
L 460.8 3.456 
L 0 3.456 
z
" style="fill:#ffffff;"/>
   </g>
   <g id="matplotlib.axis_1">
    <g id="xtick_1">
     <g id="line2d_1">
      <path clip-path="url(#p5292946420)" d="M 108.745186 293.76 
L 108.745186 3.456 
" style="fill:none;stroke:#b0b0b0;stroke-linecap:square;stroke-width:0.8;"/>
     </g>
     <g id="line2d_2">
      <defs>
       <path d="M 0 0 
L 0 3.5 
" id="m57d2f2353b" style="stroke:#000000;stroke-width:0.8;"/>
      </defs>
      <g>
       <use style="stroke:#000000;stroke-width:0.8;" x="108.745186" xlink:href="#m57d2f2353b" y="293.76"/>
      </g>
     </g>
     <g id="text_1">
      <!-- -4 -->
      <g transform="translate(98.774873 315.956875)scale(0.2 -0.2)">
       <defs>
        <path d="M 313 2009 
L 1997 2009 
L 1997 1497 
L 313 1497 
L 313 2009 
z
" id="DejaVuSans-2d" transform="scale(0.015625)"/>
        <path d="M 2419 4116 
L 825 1625 
L 2419 1625 
L 2419 4116 
z
M 2253 4666 
L 3047 4666 
L 3047 1625 
L 3713 1625 
L 3713 1100 
L 3047 1100 
L 3047 0 
L 2419 0 
L 2419 1100 
L 313 1100 
L 313 1709 
L 2253 4666 
z
" id="DejaVuSans-34" transform="scale(0.015625)"/>
       </defs>
       <use xlink:href="#DejaVuSans-2d"/>
       <use x="36.083984" xlink:href="#DejaVuSans-34"/>
      </g>
     </g>
    </g>
    <g id="xtick_2">
     <g id="line2d_3">
      <path clip-path="url(#p5292946420)" d="M 217.607981 293.76 
L 217.607981 3.456 
" style="fill:none;stroke:#b0b0b0;stroke-linecap:square;stroke-width:0.8;"/>
     </g>
     <g id="line2d_4">
      <g>
       <use style="stroke:#000000;stroke-width:0.8;" x="217.607981" xlink:href="#m57d2f2353b" y="293.76"/>
      </g>
     </g>
     <g id="text_2">
      <!-- 0 -->
      <g transform="translate(211.245481 315.956875)scale(0.2 -0.2)">
       <defs>
        <path d="M 2034 4250 
Q 1547 4250 1301 3770 
Q 1056 3291 1056 2328 
Q 1056 1369 1301 889 
Q 1547 409 2034 409 
Q 2525 409 2770 889 
Q 3016 1369 3016 2328 
Q 3016 3291 2770 3770 
Q 2525 4250 2034 4250 
z
M 2034 4750 
Q 2819 4750 3233 4129 
Q 3647 3509 3647 2328 
Q 3647 1150 3233 529 
Q 2819 -91 2034 -91 
Q 1250 -91 836 529 
Q 422 1150 422 2328 
Q 422 3509 836 4129 
Q 1250 4750 2034 4750 
z
" id="DejaVuSans-30" transform="scale(0.015625)"/>
       </defs>
       <use xlink:href="#DejaVuSans-30"/>
      </g>
     </g>
    </g>
    <g id="xtick_3">
     <g id="line2d_5">
      <path clip-path="url(#p5292946420)" d="M 326.470776 293.76 
L 326.470776 3.456 
" style="fill:none;stroke:#b0b0b0;stroke-linecap:square;stroke-width:0.8;"/>
     </g>
     <g id="line2d_6">
      <g>
       <use style="stroke:#000000;stroke-width:0.8;" x="326.470776" xlink:href="#m57d2f2353b" y="293.76"/>
      </g>
     </g>
     <g id="text_3">
      <!-- 4 -->
      <g transform="translate(320.108276 315.956875)scale(0.2 -0.2)">
       <use xlink:href="#DejaVuSans-34"/>
      </g>
     </g>
    </g>
    <g id="xtick_4">
     <g id="line2d_7">
      <path clip-path="url(#p5292946420)" d="M 435.333571 293.76 
L 435.333571 3.456 
" style="fill:none;stroke:#b0b0b0;stroke-linecap:square;stroke-width:0.8;"/>
     </g>
     <g id="line2d_8">
      <g>
       <use style="stroke:#000000;stroke-width:0.8;" x="435.333571" xlink:href="#m57d2f2353b" y="293.76"/>
      </g>
     </g>
     <g id="text_4">
      <!-- 8 -->
      <g transform="translate(428.971071 315.956875)scale(0.2 -0.2)">
       <defs>
        <path d="M 2034 2216 
Q 1584 2216 1326 1975 
Q 1069 1734 1069 1313 
Q 1069 891 1326 650 
Q 1584 409 2034 409 
Q 2484 409 2743 651 
Q 3003 894 3003 1313 
Q 3003 1734 2745 1975 
Q 2488 2216 2034 2216 
z
M 1403 2484 
Q 997 2584 770 2862 
Q 544 3141 544 3541 
Q 544 4100 942 4425 
Q 1341 4750 2034 4750 
Q 2731 4750 3128 4425 
Q 3525 4100 3525 3541 
Q 3525 3141 3298 2862 
Q 3072 2584 2669 2484 
Q 3125 2378 3379 2068 
Q 3634 1759 3634 1313 
Q 3634 634 3220 271 
Q 2806 -91 2034 -91 
Q 1263 -91 848 271 
Q 434 634 434 1313 
Q 434 1759 690 2068 
Q 947 2378 1403 2484 
z
M 1172 3481 
Q 1172 3119 1398 2916 
Q 1625 2713 2034 2713 
Q 2441 2713 2670 2916 
Q 2900 3119 2900 3481 
Q 2900 3844 2670 4047 
Q 2441 4250 2034 4250 
Q 1625 4250 1398 4047 
Q 1172 3844 1172 3481 
z
" id="DejaVuSans-38" transform="scale(0.015625)"/>
       </defs>
       <use xlink:href="#DejaVuSans-38"/>
      </g>
     </g>
    </g>
    <g id="text_5">
     <!-- log10 of Df -->
     <g transform="translate(175.214063 339.313125)scale(0.2 -0.2)">
      <defs>
       <path d="M 603 4863 
L 1178 4863 
L 1178 0 
L 603 0 
L 603 4863 
z
" id="DejaVuSans-6c" transform="scale(0.015625)"/>
       <path d="M 1959 3097 
Q 1497 3097 1228 2736 
Q 959 2375 959 1747 
Q 959 1119 1226 758 
Q 1494 397 1959 397 
Q 2419 397 2687 759 
Q 2956 1122 2956 1747 
Q 2956 2369 2687 2733 
Q 2419 3097 1959 3097 
z
M 1959 3584 
Q 2709 3584 3137 3096 
Q 3566 2609 3566 1747 
Q 3566 888 3137 398 
Q 2709 -91 1959 -91 
Q 1206 -91 779 398 
Q 353 888 353 1747 
Q 353 2609 779 3096 
Q 1206 3584 1959 3584 
z
" id="DejaVuSans-6f" transform="scale(0.015625)"/>
       <path d="M 2906 1791 
Q 2906 2416 2648 2759 
Q 2391 3103 1925 3103 
Q 1463 3103 1205 2759 
Q 947 2416 947 1791 
Q 947 1169 1205 825 
Q 1463 481 1925 481 
Q 2391 481 2648 825 
Q 2906 1169 2906 1791 
z
M 3481 434 
Q 3481 -459 3084 -895 
Q 2688 -1331 1869 -1331 
Q 1566 -1331 1297 -1286 
Q 1028 -1241 775 -1147 
L 775 -588 
Q 1028 -725 1275 -790 
Q 1522 -856 1778 -856 
Q 2344 -856 2625 -561 
Q 2906 -266 2906 331 
L 2906 616 
Q 2728 306 2450 153 
Q 2172 0 1784 0 
Q 1141 0 747 490 
Q 353 981 353 1791 
Q 353 2603 747 3093 
Q 1141 3584 1784 3584 
Q 2172 3584 2450 3431 
Q 2728 3278 2906 2969 
L 2906 3500 
L 3481 3500 
L 3481 434 
z
" id="DejaVuSans-67" transform="scale(0.015625)"/>
       <path d="M 794 531 
L 1825 531 
L 1825 4091 
L 703 3866 
L 703 4441 
L 1819 4666 
L 2450 4666 
L 2450 531 
L 3481 531 
L 3481 0 
L 794 0 
L 794 531 
z
" id="DejaVuSans-31" transform="scale(0.015625)"/>
       <path id="DejaVuSans-20" transform="scale(0.015625)"/>
       <path d="M 2375 4863 
L 2375 4384 
L 1825 4384 
Q 1516 4384 1395 4259 
Q 1275 4134 1275 3809 
L 1275 3500 
L 2222 3500 
L 2222 3053 
L 1275 3053 
L 1275 0 
L 697 0 
L 697 3053 
L 147 3053 
L 147 3500 
L 697 3500 
L 697 3744 
Q 697 4328 969 4595 
Q 1241 4863 1831 4863 
L 2375 4863 
z
" id="DejaVuSans-66" transform="scale(0.015625)"/>
       <path d="M 1259 4147 
L 1259 519 
L 2022 519 
Q 2988 519 3436 956 
Q 3884 1394 3884 2338 
Q 3884 3275 3436 3711 
Q 2988 4147 2022 4147 
L 1259 4147 
z
M 628 4666 
L 1925 4666 
Q 3281 4666 3915 4102 
Q 4550 3538 4550 2338 
Q 4550 1131 3912 565 
Q 3275 0 1925 0 
L 628 0 
L 628 4666 
z
" id="DejaVuSans-44" transform="scale(0.015625)"/>
      </defs>
      <use xlink:href="#DejaVuSans-6c"/>
      <use x="27.783203" xlink:href="#DejaVuSans-6f"/>
      <use x="88.964844" xlink:href="#DejaVuSans-67"/>
      <use x="152.441406" xlink:href="#DejaVuSans-31"/>
      <use x="216.064453" xlink:href="#DejaVuSans-30"/>
      <use x="279.6875" xlink:href="#DejaVuSans-20"/>
      <use x="311.474609" xlink:href="#DejaVuSans-6f"/>
      <use x="372.65625" xlink:href="#DejaVuSans-66"/>
      <use x="407.861328" xlink:href="#DejaVuSans-20"/>
      <use x="439.648438" xlink:href="#DejaVuSans-44"/>
      <use x="516.650391" xlink:href="#DejaVuSans-66"/>
     </g>
    </g>
   </g>
   <g id="matplotlib.axis_2">
    <g id="ytick_1">
     <g id="line2d_9">
      <path clip-path="url(#p5292946420)" d="M 0 293.76 
L 460.8 293.76 
" style="fill:none;stroke:#b0b0b0;stroke-linecap:square;stroke-width:0.8;"/>
     </g>
     <g id="line2d_10">
      <defs>
       <path d="M 0 0 
L -3.5 0 
" id="m3d7d2ddd4b" style="stroke:#000000;stroke-width:0.8;"/>
      </defs>
      <g>
       <use style="stroke:#000000;stroke-width:0.8;" x="0" xlink:href="#m3d7d2ddd4b" y="293.76"/>
      </g>
     </g>
    </g>
    <g id="ytick_2">
     <g id="line2d_11">
      <path clip-path="url(#p5292946420)" d="M 0 236.274059 
L 460.8 236.274059 
" style="fill:none;stroke:#b0b0b0;stroke-linecap:square;stroke-width:0.8;"/>
     </g>
     <g id="line2d_12">
      <g>
       <use style="stroke:#000000;stroke-width:0.8;" x="0" xlink:href="#m3d7d2ddd4b" y="236.274059"/>
      </g>
     </g>
    </g>
    <g id="ytick_3">
     <g id="line2d_13">
      <path clip-path="url(#p5292946420)" d="M 0 178.788119 
L 460.8 178.788119 
" style="fill:none;stroke:#b0b0b0;stroke-linecap:square;stroke-width:0.8;"/>
     </g>
     <g id="line2d_14">
      <g>
       <use style="stroke:#000000;stroke-width:0.8;" x="0" xlink:href="#m3d7d2ddd4b" y="178.788119"/>
      </g>
     </g>
    </g>
    <g id="ytick_4">
     <g id="line2d_15">
      <path clip-path="url(#p5292946420)" d="M 0 121.302178 
L 460.8 121.302178 
" style="fill:none;stroke:#b0b0b0;stroke-linecap:square;stroke-width:0.8;"/>
     </g>
     <g id="line2d_16">
      <g>
       <use style="stroke:#000000;stroke-width:0.8;" x="0" xlink:href="#m3d7d2ddd4b" y="121.302178"/>
      </g>
     </g>
    </g>
    <g id="ytick_5">
     <g id="line2d_17">
      <path clip-path="url(#p5292946420)" d="M 0 63.816238 
L 460.8 63.816238 
" style="fill:none;stroke:#b0b0b0;stroke-linecap:square;stroke-width:0.8;"/>
     </g>
     <g id="line2d_18">
      <g>
       <use style="stroke:#000000;stroke-width:0.8;" x="0" xlink:href="#m3d7d2ddd4b" y="63.816238"/>
      </g>
     </g>
    </g>
    <g id="ytick_6">
     <g id="line2d_19">
      <path clip-path="url(#p5292946420)" d="M 0 6.330297 
L 460.8 6.330297 
" style="fill:none;stroke:#b0b0b0;stroke-linecap:square;stroke-width:0.8;"/>
     </g>
     <g id="line2d_20">
      <g>
       <use style="stroke:#000000;stroke-width:0.8;" x="0" xlink:href="#m3d7d2ddd4b" y="6.330297"/>
      </g>
     </g>
    </g>
   </g>
   <g id="line2d_21">
    <path clip-path="url(#p5292946420)" d="M 245.177813 293.76 
L 245.177813 289.927604 
L 247.912683 289.927604 
L 247.912683 286.095208 
L 248.243804 286.095208 
L 248.271943 278.430416 
L 248.818405 278.430416 
L 248.818405 274.59802 
L 249.311374 274.59802 
L 249.311374 270.765624 
L 250.68159 270.765624 
L 250.68159 266.933228 
L 252.467745 266.933228 
L 252.467745 263.100832 
L 252.807663 263.100832 
L 252.807663 259.268436 
L 253.775924 259.268436 
L 253.775924 255.43604 
L 254.844517 255.43604 
L 254.844517 251.603644 
L 255.225258 251.603644 
L 255.225258 247.771248 
L 256.198363 247.771248 
L 256.198363 243.938851 
L 256.609808 243.938851 
L 256.609808 240.106455 
L 257.560286 240.106455 
L 257.560286 236.274059 
L 273.161518 236.274059 
L 273.161518 232.441663 
L 273.420158 232.441663 
L 273.420158 228.609267 
L 273.595264 228.609267 
L 273.595264 224.776871 
L 274.864714 224.776871 
L 274.864714 220.944475 
L 277.618784 220.944475 
L 277.711056 213.279683 
L 277.774741 213.279683 
L 277.774741 209.447287 
L 278.1009 209.447287 
L 278.155724 201.782495 
L 278.568025 201.782495 
L 278.568025 197.950099 
L 278.821951 197.950099 
L 278.821951 194.117703 
L 278.992091 194.117703 
L 278.992091 190.285307 
L 279.651904 190.285307 
L 279.651904 186.452911 
L 282.495964 186.452911 
L 282.495964 182.620515 
L 290.541852 182.620515 
L 290.541852 178.788119 
L 299.902775 178.788119 
L 299.902775 174.955723 
L 302.115502 174.955723 
L 302.115502 171.123327 
L 302.324294 171.123327 
L 302.324294 167.290931 
L 302.946558 167.290931 
L 302.946558 163.458535 
L 303.101424 163.458535 
L 303.101424 159.626139 
L 303.52695 159.626139 
L 303.52695 155.793743 
L 303.67484 155.793743 
L 303.67484 151.961347 
L 304.249563 151.961347 
L 304.249563 148.12895 
L 304.484893 148.12895 
L 304.486364 140.464158 
L 304.734968 140.464158 
L 304.734968 136.631762 
L 305.111441 136.631762 
L 305.111441 132.799366 
L 305.30401 132.799366 
L 305.31707 125.134574 
L 306.456407 125.134574 
L 306.456407 121.302178 
L 369.707629 121.302178 
L 369.707629 117.469782 
L 371.114548 117.469782 
L 371.114548 113.637386 
L 372.006903 113.637386 
L 372.006903 109.80499 
L 373.891817 109.80499 
L 373.891817 105.972594 
L 374.419486 105.972594 
L 374.495512 98.307802 
L 374.95549 98.307802 
L 374.95549 94.475406 
L 376.502721 94.475406 
L 376.613064 86.810614 
L 377.574668 86.810614 
L 377.574668 82.978218 
L 379.5483 82.978218 
L 379.5483 79.145822 
L 380.728375 79.145822 
L 380.728375 75.313426 
L 382.750319 75.313426 
L 382.750319 71.48103 
L 384.198809 71.48103 
L 384.198809 67.648634 
L 396.357015 67.648634 
L 396.357015 63.816238 
L 416.278022 63.816238 
L 416.278022 59.983842 
L 425.64849 59.983842 
L 425.64849 56.151446 
L 428.179342 56.151446 
L 428.179342 52.31905 
L 431.439358 52.31905 
L 431.439358 48.486653 
L 431.566801 48.486653 
L 431.566801 44.654257 
L 432.425027 44.654257 
L 432.425027 40.821861 
L 433.763007 40.821861 
L 433.763007 36.989465 
L 434.197194 36.989465 
L 434.197194 33.157069 
L 435.412825 33.157069 
L 435.515397 25.492277 
L 437.354967 25.492277 
L 437.453716 17.827485 
L 437.481581 17.827485 
L 437.481581 13.995089 
L 437.877803 13.995089 
L 437.877803 10.162693 
L 438.02608 10.162693 
L 438.02608 6.330297 
L 438.02608 6.330297 
L 460.8 6.330297 
L 460.8 6.330297 
" style="fill:none;stroke:#ff0000;stroke-linecap:square;stroke-width:3;"/>
   </g>
   <g id="line2d_22">
    <path clip-path="url(#p5292946420)" d="M 251.406268 293.76 
L 251.406268 289.927604 
L 252.106913 289.927604 
L 252.106913 286.095208 
L 252.218869 286.095208 
L 252.218869 282.262812 
L 256.211955 282.262812 
L 256.211955 278.430416 
L 256.735871 278.430416 
L 256.735871 274.59802 
L 257.041723 274.59802 
L 257.041723 270.765624 
L 257.379503 270.765624 
L 257.379503 266.933228 
L 258.670286 266.933228 
L 258.670286 263.100832 
L 259.811771 263.100832 
L 259.811771 259.268436 
L 261.654982 259.268436 
L 261.654982 255.43604 
L 261.9157 255.43604 
L 261.9157 251.603644 
L 262.087356 251.603644 
L 262.087356 247.771248 
L 263.284566 247.771248 
L 263.284566 243.938851 
L 263.899436 243.938851 
L 263.899436 240.106455 
L 275.828343 240.106455 
L 275.828343 236.274059 
L 300.830263 236.274059 
L 300.830263 232.441663 
L 301.357056 232.441663 
L 301.357056 228.609267 
L 301.638705 228.609267 
L 301.638705 224.776871 
L 303.559522 224.776871 
L 303.559522 220.944475 
L 305.111441 220.944475 
L 305.1758 213.279683 
L 306.643885 213.279683 
L 306.643885 209.447287 
L 306.982168 209.447287 
L 306.982168 205.614891 
L 307.257029 205.614891 
L 307.257029 201.782495 
L 307.505408 201.782495 
L 307.505408 197.950099 
L 307.974311 197.950099 
L 307.974311 194.117703 
L 308.302571 194.117703 
L 308.302571 190.285307 
L 308.507766 190.285307 
L 308.507766 186.452911 
L 309.034981 186.452911 
L 309.086544 178.788119 
L 309.360324 178.788119 
L 309.360324 174.955723 
L 309.730197 174.955723 
L 309.730197 171.123327 
L 322.460498 171.123327 
L 322.460498 167.290931 
L 330.229051 167.290931 
L 330.229051 163.458535 
L 341.122647 163.458535 
L 341.122647 159.626139 
L 343.664731 159.626139 
L 343.664731 155.793743 
L 346.753378 155.793743 
L 346.753378 151.961347 
L 350.800292 151.961347 
L 350.800292 148.12895 
L 359.68045 148.12895 
L 359.68045 144.296554 
L 366.274316 144.296554 
L 366.274316 140.464158 
L 372.290608 140.464158 
L 372.290608 136.631762 
L 372.671517 136.631762 
L 372.671517 132.799366 
L 373.821942 132.799366 
L 373.821942 128.96697 
L 378.898761 128.96697 
L 378.898761 125.134574 
L 386.626126 125.134574 
L 386.626126 121.302178 
L 387.760606 121.302178 
L 387.760606 117.469782 
L 389.223713 117.469782 
L 389.223713 113.637386 
L 390.781122 113.637386 
L 390.781122 109.80499 
L 391.716477 109.80499 
L 391.716477 105.972594 
L 392.049768 105.972594 
L 392.049768 102.140198 
L 392.74985 102.140198 
L 392.74985 98.307802 
L 395.361807 98.307802 
L 395.361807 94.475406 
L 396.941132 94.475406 
L 396.941132 90.64301 
L 397.136302 90.64301 
L 397.136302 86.810614 
L 399.348847 86.810614 
L 399.348847 82.978218 
L 401.541127 82.978218 
L 401.541127 79.145822 
L 401.813786 79.145822 
L 401.813786 75.313426 
L 402.632524 75.313426 
L 402.632524 71.48103 
L 404.328274 71.48103 
L 404.328274 67.648634 
L 415.003454 67.648634 
L 415.003454 63.816238 
L 429.088723 63.816238 
L 429.088723 59.983842 
L 432.115204 59.983842 
L 432.115204 56.151446 
L 432.696488 56.151446 
L 432.696488 52.31905 
L 438.844116 52.31905 
L 438.844116 48.486653 
L 439.374471 48.486653 
L 439.374471 44.654257 
L 440.905404 44.654257 
L 440.905404 40.821861 
L 441.264826 40.821861 
L 441.264826 36.989465 
L 441.390778 36.989465 
L 441.390778 33.157069 
L 441.669833 33.157069 
L 441.669833 29.324673 
L 443.925216 29.324673 
L 443.925216 25.492277 
L 447.937196 25.492277 
L 447.937196 21.659881 
L 448.210335 21.659881 
L 448.210335 17.827485 
L 448.913965 17.827485 
L 448.913965 13.995089 
L 449.700763 13.995089 
L 449.701146 6.330297 
L 449.701146 6.330297 
L 460.8 6.330297 
L 460.8 6.330297 
" style="fill:none;stroke:#00bfbf;stroke-linecap:square;stroke-width:1.5;"/>
   </g>
   <g id="line2d_23">
    <path clip-path="url(#p5292946420)" d="M 250.946917 293.76 
L 250.946917 289.927604 
L 252.106913 289.927604 
L 252.106913 286.095208 
L 252.218869 286.095208 
L 252.218869 282.262812 
L 256.211955 282.262812 
L 256.211955 278.430416 
L 256.735871 278.430416 
L 256.735871 274.59802 
L 257.041723 274.59802 
L 257.041723 270.765624 
L 257.379503 270.765624 
L 257.379503 266.933228 
L 258.035534 266.933228 
L 258.035534 263.100832 
L 259.811771 263.100832 
L 259.811771 259.268436 
L 260.490258 259.268436 
L 260.490258 255.43604 
L 261.9157 255.43604 
L 261.9157 251.603644 
L 262.087356 251.603644 
L 262.087356 247.771248 
L 263.284566 247.771248 
L 263.284566 243.938851 
L 263.899436 243.938851 
L 263.899436 240.106455 
L 273.626976 240.106455 
L 273.626976 236.274059 
L 281.039739 236.274059 
L 281.039739 232.441663 
L 298.99646 232.441663 
L 298.99646 228.609267 
L 300.830263 228.609267 
L 300.905731 220.944475 
L 301.357056 220.944475 
L 301.397855 213.279683 
L 301.638705 213.279683 
L 301.638705 209.447287 
L 303.559522 209.447287 
L 303.559522 205.614891 
L 304.314078 205.614891 
L 304.314078 201.782495 
L 305.111441 201.782495 
L 305.1758 194.117703 
L 306.643885 194.117703 
L 306.643885 190.285307 
L 306.982168 190.285307 
L 306.982168 186.452911 
L 307.505408 186.452911 
L 307.505408 182.620515 
L 307.771195 182.620515 
L 307.771195 178.788119 
L 307.926791 178.788119 
L 307.974311 171.123327 
L 308.507766 171.123327 
L 308.507766 167.290931 
L 309.086544 167.290931 
L 309.086544 163.458535 
L 309.360324 163.458535 
L 309.360324 159.626139 
L 309.730197 159.626139 
L 309.730197 155.793743 
L 314.584844 155.793743 
L 314.584844 151.961347 
L 322.460498 151.961347 
L 322.460498 148.12895 
L 337.876649 148.12895 
L 337.876649 144.296554 
L 350.800292 144.296554 
L 350.800292 140.464158 
L 352.643289 140.464158 
L 352.643289 136.631762 
L 359.68045 136.631762 
L 359.68045 132.799366 
L 362.582639 132.799366 
L 362.582639 128.96697 
L 366.274316 128.96697 
L 366.274316 125.134574 
L 378.898761 125.134574 
L 378.898761 121.302178 
L 386.626126 121.302178 
L 386.626126 117.469782 
L 387.760606 117.469782 
L 387.760606 113.637386 
L 388.511984 113.637386 
L 388.511984 109.80499 
L 389.223713 109.80499 
L 389.223713 105.972594 
L 390.781122 105.972594 
L 390.781122 102.140198 
L 392.049768 102.140198 
L 392.049768 98.307802 
L 394.057639 98.307802 
L 394.057639 94.475406 
L 394.500898 94.475406 
L 394.500898 90.64301 
L 395.361807 90.64301 
L 395.361807 86.810614 
L 396.979934 86.810614 
L 396.979934 82.978218 
L 397.865709 82.978218 
L 397.865709 79.145822 
L 399.348847 79.145822 
L 399.348847 75.313426 
L 401.541127 75.313426 
L 401.541127 71.48103 
L 402.632524 71.48103 
L 402.632524 67.648634 
L 415.003454 67.648634 
L 415.003454 63.816238 
L 429.088723 63.816238 
L 429.088723 59.983842 
L 432.115204 59.983842 
L 432.115204 56.151446 
L 432.696488 56.151446 
L 432.696488 52.31905 
L 437.208445 52.31905 
L 437.208445 48.486653 
L 437.730313 48.486653 
L 437.730313 44.654257 
L 438.844116 44.654257 
L 438.844116 40.821861 
L 441.264826 40.821861 
L 441.264826 36.989465 
L 441.390778 36.989465 
L 441.390778 33.157069 
L 441.669833 33.157069 
L 441.669833 29.324673 
L 443.925216 29.324673 
L 443.925216 25.492277 
L 447.937196 25.492277 
L 447.937196 21.659881 
L 448.210335 21.659881 
L 448.257319 13.995089 
L 449.700763 13.995089 
L 449.701146 6.330297 
L 449.701146 6.330297 
L 460.8 6.330297 
L 460.8 6.330297 
" style="fill:none;stroke:#bf00bf;stroke-linecap:square;stroke-width:1.5;"/>
   </g>
   <g id="line2d_24">
    <path clip-path="url(#p5292946420)" d="M 250.946917 293.76 
L 250.946917 289.927604 
L 252.106913 289.927604 
L 252.106913 286.095208 
L 252.218869 286.095208 
L 252.218869 282.262812 
L 256.211955 282.262812 
L 256.211955 278.430416 
L 256.735871 278.430416 
L 256.735871 274.59802 
L 257.041723 274.59802 
L 257.041723 270.765624 
L 257.379503 270.765624 
L 257.379503 266.933228 
L 258.035534 266.933228 
L 258.111779 259.268436 
L 258.811669 259.268436 
L 258.811669 255.43604 
L 259.811771 255.43604 
L 259.811771 251.603644 
L 260.490258 251.603644 
L 260.490258 247.771248 
L 261.9157 247.771248 
L 261.9157 243.938851 
L 262.087356 243.938851 
L 262.087356 240.106455 
L 263.284566 240.106455 
L 263.284566 236.274059 
L 277.318647 236.274059 
L 277.318647 232.441663 
L 284.409187 232.441663 
L 284.409187 228.609267 
L 298.382359 228.609267 
L 298.382359 224.776871 
L 298.99646 224.776871 
L 298.99646 220.944475 
L 300.830263 220.944475 
L 300.905731 213.279683 
L 301.357056 213.279683 
L 301.397855 205.614891 
L 303.302874 205.614891 
L 303.366434 197.950099 
L 303.559522 197.950099 
L 303.559522 194.117703 
L 303.923993 194.117703 
L 303.923993 190.285307 
L 305.111441 190.285307 
L 305.1758 182.620515 
L 306.643885 182.620515 
L 306.643885 178.788119 
L 306.982168 178.788119 
L 306.982168 174.955723 
L 307.505408 174.955723 
L 307.505408 171.123327 
L 307.709365 171.123327 
L 307.771195 163.458535 
L 307.926791 163.458535 
L 307.974311 155.793743 
L 308.507766 155.793743 
L 308.507766 151.961347 
L 309.086544 151.961347 
L 309.086544 148.12895 
L 309.211316 148.12895 
L 309.211316 144.296554 
L 309.730197 144.296554 
L 309.730197 140.464158 
L 316.169896 140.464158 
L 316.169896 136.631762 
L 350.800292 136.631762 
L 350.800292 132.799366 
L 359.68045 132.799366 
L 359.68045 128.96697 
L 362.582639 128.96697 
L 362.582639 125.134574 
L 365.558881 125.134574 
L 365.558881 121.302178 
L 372.857659 121.302178 
L 372.857659 117.469782 
L 378.898761 117.469782 
L 378.898761 113.637386 
L 381.543406 113.637386 
L 381.543406 109.80499 
L 388.511984 109.80499 
L 388.511984 105.972594 
L 389.223713 105.972594 
L 389.223713 102.140198 
L 389.981834 102.140198 
L 389.981834 98.307802 
L 390.270528 98.307802 
L 390.270528 94.475406 
L 394.057639 94.475406 
L 394.057639 90.64301 
L 394.500898 90.64301 
L 394.500898 86.810614 
L 394.651906 86.810614 
L 394.710489 79.145822 
L 397.865709 79.145822 
L 397.865709 75.313426 
L 399.348847 75.313426 
L 399.348847 71.48103 
L 402.632524 71.48103 
L 402.632524 67.648634 
L 403.81276 67.648634 
L 403.81276 63.816238 
L 429.088723 63.816238 
L 429.088723 59.983842 
L 432.115204 59.983842 
L 432.115204 56.151446 
L 432.696488 56.151446 
L 432.696488 52.31905 
L 436.405956 52.31905 
L 436.405956 48.486653 
L 437.730313 48.486653 
L 437.730313 44.654257 
L 438.844116 44.654257 
L 438.844116 40.821861 
L 439.354939 40.821861 
L 439.354939 36.989465 
L 440.6821 36.989465 
L 440.6821 33.157069 
L 441.264826 33.157069 
L 441.264826 29.324673 
L 443.925216 29.324673 
L 443.925216 25.492277 
L 447.937196 25.492277 
L 447.937196 21.659881 
L 448.210335 21.659881 
L 448.257319 13.995089 
L 448.862981 13.995089 
L 448.862981 10.162693 
L 449.701146 10.162693 
L 449.701146 6.330297 
L 449.701146 6.330297 
L 460.8 6.330297 
L 460.8 6.330297 
" style="fill:none;stroke:#000000;stroke-linecap:square;stroke-width:1.5;"/>
   </g>
   <g id="line2d_25">
    <path clip-path="url(#p5292946420)" d="M 248.243804 293.76 
L 248.243804 289.927604 
L 250.68159 289.927604 
L 250.68159 286.095208 
L 250.946917 286.095208 
L 250.946917 282.262812 
L 252.218869 282.262812 
L 252.218869 278.430416 
L 252.467745 278.430416 
L 252.467745 274.59802 
L 255.836943 274.59802 
L 255.942976 266.933228 
L 256.211955 266.933228 
L 256.211955 263.100832 
L 256.557414 263.100832 
L 256.557414 259.268436 
L 256.735871 259.268436 
L 256.735871 255.43604 
L 257.041723 255.43604 
L 257.041723 251.603644 
L 257.557341 251.603644 
L 257.557341 247.771248 
L 258.111779 247.771248 
L 258.111779 243.938851 
L 259.707482 243.938851 
L 259.707482 240.106455 
L 260.073984 240.106455 
L 260.073984 236.274059 
L 277.318647 236.274059 
L 277.318647 232.441663 
L 278.1009 232.441663 
L 278.1009 228.609267 
L 279.651904 228.609267 
L 279.651904 224.776871 
L 282.097713 224.776871 
L 282.097713 220.944475 
L 284.409187 220.944475 
L 284.409187 217.112079 
L 288.619418 217.112079 
L 288.619418 213.279683 
L 290.773904 213.279683 
L 290.773904 209.447287 
L 293.346357 209.447287 
L 293.346357 205.614891 
L 298.99646 205.614891 
L 298.99646 201.782495 
L 300.830263 201.782495 
L 300.830263 197.950099 
L 301.357056 197.950099 
L 301.397855 190.285307 
L 303.302874 190.285307 
L 303.366434 178.788119 
L 303.559522 178.788119 
L 303.559522 174.955723 
L 304.782569 174.955723 
L 304.782569 171.123327 
L 305.111441 171.123327 
L 305.1758 159.626139 
L 306.083035 159.626139 
L 306.083035 155.793743 
L 306.217179 155.793743 
L 306.217179 151.961347 
L 306.425487 151.961347 
L 306.425487 148.12895 
L 306.643885 148.12895 
L 306.702091 140.464158 
L 307.505408 140.464158 
L 307.505408 136.631762 
L 307.926791 136.631762 
L 307.974311 128.96697 
L 308.482527 128.96697 
L 308.482527 125.134574 
L 344.466036 125.134574 
L 344.466036 121.302178 
L 372.857659 121.302178 
L 372.857659 117.469782 
L 376.225045 117.469782 
L 376.225045 113.637386 
L 378.898761 113.637386 
L 378.898761 109.80499 
L 381.543406 109.80499 
L 381.543406 105.972594 
L 382.473073 105.972594 
L 382.473073 102.140198 
L 384.157462 102.140198 
L 384.157462 98.307802 
L 387.285506 98.307802 
L 387.285506 94.475406 
L 387.993787 94.475406 
L 387.993787 90.64301 
L 388.210634 90.64301 
L 388.210634 86.810614 
L 390.979771 86.810614 
L 390.979771 82.978218 
L 391.396766 82.978218 
L 391.396766 79.145822 
L 394.651906 79.145822 
L 394.710489 71.48103 
L 397.859384 71.48103 
L 397.859384 67.648634 
L 401.489037 67.648634 
L 401.489037 63.816238 
L 429.088723 63.816238 
L 429.088723 59.983842 
L 432.115204 59.983842 
L 432.115204 56.151446 
L 432.696488 56.151446 
L 432.696488 52.31905 
L 434.760441 52.31905 
L 434.760441 48.486653 
L 436.405956 48.486653 
L 436.405956 44.654257 
L 437.219793 44.654257 
L 437.219793 40.821861 
L 437.509409 40.821861 
L 437.512878 33.157069 
L 437.730313 33.157069 
L 437.730313 29.324673 
L 441.264826 29.324673 
L 441.264826 25.492277 
L 441.461289 25.492277 
L 441.461289 21.659881 
L 442.76825 21.659881 
L 442.76825 17.827485 
L 443.034813 17.827485 
L 443.034813 13.995089 
L 444.594518 13.995089 
L 444.594518 10.162693 
L 445.177221 10.162693 
L 445.177221 6.330297 
L 445.177221 6.330297 
L 460.8 6.330297 
L 460.8 6.330297 
" style="fill:none;stroke:#00bfbf;stroke-linecap:square;stroke-width:1.5;"/>
   </g>
   <g id="line2d_26">
    <path clip-path="url(#p5292946420)" d="M 245.177813 293.76 
L 245.177813 289.927604 
L 247.912683 289.927604 
L 247.912683 286.095208 
L 248.243804 286.095208 
L 248.271943 278.430416 
L 248.818405 278.430416 
L 248.818405 274.59802 
L 249.311374 274.59802 
L 249.311374 270.765624 
L 250.68159 270.765624 
L 250.68159 266.933228 
L 252.467745 266.933228 
L 252.467745 263.100832 
L 252.807663 263.100832 
L 252.807663 259.268436 
L 253.775924 259.268436 
L 253.775924 255.43604 
L 254.844517 255.43604 
L 254.844517 251.603644 
L 255.225258 251.603644 
L 255.225258 247.771248 
L 256.198363 247.771248 
L 256.198363 243.938851 
L 256.609808 243.938851 
L 256.609808 240.106455 
L 257.560286 240.106455 
L 257.560286 236.274059 
L 273.161518 236.274059 
L 273.161518 232.441663 
L 273.420158 232.441663 
L 273.420158 228.609267 
L 273.595264 228.609267 
L 273.595264 224.776871 
L 274.864714 224.776871 
L 274.864714 220.944475 
L 277.618784 220.944475 
L 277.711056 213.279683 
L 277.774741 213.279683 
L 277.774741 209.447287 
L 278.1009 209.447287 
L 278.155724 201.782495 
L 278.568025 201.782495 
L 278.568025 197.950099 
L 278.821951 197.950099 
L 278.821951 194.117703 
L 278.992091 194.117703 
L 278.992091 190.285307 
L 279.651904 190.285307 
L 279.651904 186.452911 
L 282.495964 186.452911 
L 282.495964 182.620515 
L 290.541852 182.620515 
L 290.541852 178.788119 
L 299.902775 178.788119 
L 299.902775 174.955723 
L 302.115502 174.955723 
L 302.115502 171.123327 
L 302.324294 171.123327 
L 302.324294 167.290931 
L 302.946558 167.290931 
L 302.946558 163.458535 
L 303.101424 163.458535 
L 303.101424 159.626139 
L 303.52695 159.626139 
L 303.52695 155.793743 
L 303.67484 155.793743 
L 303.67484 151.961347 
L 304.249563 151.961347 
L 304.249563 148.12895 
L 304.484893 148.12895 
L 304.486364 140.464158 
L 304.734968 140.464158 
L 304.734968 136.631762 
L 305.111441 136.631762 
L 305.111441 132.799366 
L 305.30401 132.799366 
L 305.31707 125.134574 
L 306.456407 125.134574 
L 306.456407 121.302178 
L 369.707629 121.302178 
L 369.707629 117.469782 
L 371.114548 117.469782 
L 371.114548 113.637386 
L 372.006903 113.637386 
L 372.006903 109.80499 
L 373.891817 109.80499 
L 373.891817 105.972594 
L 374.419486 105.972594 
L 374.495512 98.307802 
L 374.95549 98.307802 
L 374.95549 94.475406 
L 376.502721 94.475406 
L 376.613064 86.810614 
L 377.574668 86.810614 
L 377.574668 82.978218 
L 379.5483 82.978218 
L 379.5483 79.145822 
L 380.728375 79.145822 
L 380.728375 75.313426 
L 382.750319 75.313426 
L 382.750319 71.48103 
L 384.198809 71.48103 
L 384.198809 67.648634 
L 396.357015 67.648634 
L 396.357015 63.816238 
L 416.278022 63.816238 
L 416.278022 59.983842 
L 425.64849 59.983842 
L 425.64849 56.151446 
L 428.179342 56.151446 
L 428.179342 52.31905 
L 431.439358 52.31905 
L 431.439358 48.486653 
L 431.566801 48.486653 
L 431.566801 44.654257 
L 432.425027 44.654257 
L 432.425027 40.821861 
L 433.763007 40.821861 
L 433.763007 36.989465 
L 434.197194 36.989465 
L 434.197194 33.157069 
L 435.412825 33.157069 
L 435.515397 25.492277 
L 437.354967 25.492277 
L 437.453716 17.827485 
L 437.481581 17.827485 
L 437.481581 13.995089 
L 437.877803 13.995089 
L 437.877803 10.162693 
L 438.02608 10.162693 
L 438.02608 6.330297 
L 438.02608 6.330297 
L 460.8 6.330297 
L 460.8 6.330297 
" style="fill:none;stroke:#bf00bf;stroke-linecap:square;stroke-width:1.5;"/>
   </g>
   <g id="patch_3">
    <path d="M 0 293.76 
L 0 3.456 
" style="fill:none;stroke:#000000;stroke-linecap:square;stroke-linejoin:miter;stroke-width:0.8;"/>
   </g>
   <g id="patch_4">
    <path d="M 460.8 293.76 
L 460.8 3.456 
" style="fill:none;stroke:#000000;stroke-linecap:square;stroke-linejoin:miter;stroke-width:0.8;"/>
   </g>
   <g id="patch_5">
    <path d="M 0 293.76 
L 460.8 293.76 
" style="fill:none;stroke:#000000;stroke-linecap:square;stroke-linejoin:miter;stroke-width:0.8;"/>
   </g>
   <g id="patch_6">
    <path d="M 0 3.456 
L 460.8 3.456 
" style="fill:none;stroke:#000000;stroke-linecap:square;stroke-linejoin:miter;stroke-width:0.8;"/>
   </g>
   <g id="text_6">
    <!-- {f10-f14}, 20-D -->
    <g transform="translate(293.159 287.95392)scale(0.2 -0.2)">
     <defs>
      <path d="M 3272 -594 
L 3272 -1044 
L 3078 -1044 
Q 2300 -1044 2036 -812 
Q 1772 -581 1772 109 
L 1772 856 
Q 1772 1328 1603 1509 
Q 1434 1691 991 1691 
L 800 1691 
L 800 2138 
L 991 2138 
Q 1438 2138 1605 2317 
Q 1772 2497 1772 2963 
L 1772 3713 
Q 1772 4403 2036 4633 
Q 2300 4863 3078 4863 
L 3272 4863 
L 3272 4416 
L 3059 4416 
Q 2619 4416 2484 4278 
Q 2350 4141 2350 3700 
L 2350 2925 
Q 2350 2434 2208 2212 
Q 2066 1991 1722 1913 
Q 2069 1828 2209 1606 
Q 2350 1384 2350 897 
L 2350 122 
Q 2350 -319 2484 -456 
Q 2619 -594 3059 -594 
L 3272 -594 
z
" id="DejaVuSans-7b" transform="scale(0.015625)"/>
      <path d="M 800 -594 
L 1019 -594 
Q 1456 -594 1589 -459 
Q 1722 -325 1722 122 
L 1722 897 
Q 1722 1384 1862 1606 
Q 2003 1828 2350 1913 
Q 2003 1991 1862 2212 
Q 1722 2434 1722 2925 
L 1722 3700 
Q 1722 4144 1589 4280 
Q 1456 4416 1019 4416 
L 800 4416 
L 800 4863 
L 997 4863 
Q 1775 4863 2036 4633 
Q 2297 4403 2297 3713 
L 2297 2963 
Q 2297 2497 2465 2317 
Q 2634 2138 3078 2138 
L 3272 2138 
L 3272 1691 
L 3078 1691 
Q 2634 1691 2465 1509 
Q 2297 1328 2297 856 
L 2297 109 
Q 2297 -581 2036 -812 
Q 1775 -1044 997 -1044 
L 800 -1044 
L 800 -594 
z
" id="DejaVuSans-7d" transform="scale(0.015625)"/>
      <path d="M 750 794 
L 1409 794 
L 1409 256 
L 897 -744 
L 494 -744 
L 750 256 
L 750 794 
z
" id="DejaVuSans-2c" transform="scale(0.015625)"/>
      <path d="M 1228 531 
L 3431 531 
L 3431 0 
L 469 0 
L 469 531 
Q 828 903 1448 1529 
Q 2069 2156 2228 2338 
Q 2531 2678 2651 2914 
Q 2772 3150 2772 3378 
Q 2772 3750 2511 3984 
Q 2250 4219 1831 4219 
Q 1534 4219 1204 4116 
Q 875 4013 500 3803 
L 500 4441 
Q 881 4594 1212 4672 
Q 1544 4750 1819 4750 
Q 2544 4750 2975 4387 
Q 3406 4025 3406 3419 
Q 3406 3131 3298 2873 
Q 3191 2616 2906 2266 
Q 2828 2175 2409 1742 
Q 1991 1309 1228 531 
z
" id="DejaVuSans-32" transform="scale(0.015625)"/>
     </defs>
     <use xlink:href="#DejaVuSans-7b"/>
     <use x="63.623047" xlink:href="#DejaVuSans-66"/>
     <use x="98.828125" xlink:href="#DejaVuSans-31"/>
     <use x="162.451172" xlink:href="#DejaVuSans-30"/>
     <use x="226.074219" xlink:href="#DejaVuSans-2d"/>
     <use x="262.158203" xlink:href="#DejaVuSans-66"/>
     <use x="297.363281" xlink:href="#DejaVuSans-31"/>
     <use x="360.986328" xlink:href="#DejaVuSans-34"/>
     <use x="424.609375" xlink:href="#DejaVuSans-7d"/>
     <use x="488.232422" xlink:href="#DejaVuSans-2c"/>
     <use x="520.019531" xlink:href="#DejaVuSans-20"/>
     <use x="551.806641" xlink:href="#DejaVuSans-32"/>
     <use x="615.429688" xlink:href="#DejaVuSans-30"/>
     <use x="679.052734" xlink:href="#DejaVuSans-2d"/>
     <use x="715.136719" xlink:href="#DejaVuSans-44"/>
    </g>
   </g>
   <g id="text_7">
    <!-- v2.4 -->
    <g style="fill:#808080;" transform="translate(219.489063 288.777272)scale(0.1 -0.1)">
     <defs>
      <path d="M 191 3500 
L 800 3500 
L 1894 563 
L 2988 3500 
L 3597 3500 
L 2284 0 
L 1503 0 
L 191 3500 
z
" id="DejaVuSans-76" transform="scale(0.015625)"/>
      <path d="M 684 794 
L 1344 794 
L 1344 0 
L 684 0 
L 684 794 
z
" id="DejaVuSans-2e" transform="scale(0.015625)"/>
     </defs>
     <use xlink:href="#DejaVuSans-76"/>
     <use x="59.179688" xlink:href="#DejaVuSans-32"/>
     <use x="122.802734" xlink:href="#DejaVuSans-2e"/>
     <use x="154.589844" xlink:href="#DejaVuSans-34"/>
    </g>
   </g>
  </g>
 </g>
 <defs>
  <clipPath id="p5292946420">
   <rect height="290.304" width="460.8" x="0" y="3.456"/>
  </clipPath>
 </defs>
</svg>
