<?xml version="1.0" encoding="utf-8" standalone="no"?>
<!DOCTYPE svg PUBLIC "-//W3C//DTD SVG 1.1//EN"
  "http://www.w3.org/Graphics/SVG/1.1/DTD/svg11.dtd">
<svg height="345.6pt" version="1.1" viewBox="0 0 460.8 345.6" width="460.8pt" xmlns="http://www.w3.org/2000/svg" xmlns:xlink="http://www.w3.org/1999/xlink">
 <metadata>
  <rdf:RDF xmlns:cc="http://creativecommons.org/ns#" xmlns:dc="http://purl.org/dc/elements/1.1/" xmlns:rdf="http://www.w3.org/1999/02/22-rdf-syntax-ns#">
   <cc:Work>
    <dc:type rdf:resource="http://purl.org/dc/dcmitype/StillImage"/>
    <dc:date>2021-06-14T12:33:38.284346</dc:date>
    <dc:format>image/svg+xml</dc:format>
    <dc:creator>
     <cc:Agent>
      <dc:title>Matplotlib v3.4.2, https://matplotlib.org/</dc:title>
     </cc:Agent>
    </dc:creator>
   </cc:Work>
  </rdf:RDF>
 </metadata>
 <defs>
  <style type="text/css">*{stroke-linecap:butt;stroke-linejoin:round;}</style>
 </defs>
 <g id="figure_1">
  <g id="patch_1">
   <path d="M 0 345.6 
L 460.8 345.6 
L 460.8 0 
L 0 0 
z
" style="fill:#ffffff;"/>
  </g>
  <g id="axes_1">
   <g id="patch_2">
    <path d="M 0 293.76 
L 460.8 293.76 
L 460.8 3.456 
L 0 3.456 
z
" style="fill:#ffffff;"/>
   </g>
   <g id="matplotlib.axis_1">
    <g id="xtick_1">
     <g id="line2d_1">
      <path clip-path="url(#p1562eacd7d)" d="M 109.321328 293.76 
L 109.321328 3.456 
" style="fill:none;stroke:#b0b0b0;stroke-linecap:square;stroke-width:0.8;"/>
     </g>
     <g id="line2d_2">
      <defs>
       <path d="M 0 0 
L 0 3.5 
" id="m4384bf1058" style="stroke:#000000;stroke-width:0.8;"/>
      </defs>
      <g>
       <use style="stroke:#000000;stroke-width:0.8;" x="109.321328" xlink:href="#m4384bf1058" y="293.76"/>
      </g>
     </g>
     <g id="text_1">
      <!-- -4 -->
      <g transform="translate(99.351016 315.956875)scale(0.2 -0.2)">
       <defs>
        <path d="M 313 2009 
L 1997 2009 
L 1997 1497 
L 313 1497 
L 313 2009 
z
" id="DejaVuSans-2d" transform="scale(0.015625)"/>
        <path d="M 2419 4116 
L 825 1625 
L 2419 1625 
L 2419 4116 
z
M 2253 4666 
L 3047 4666 
L 3047 1625 
L 3713 1625 
L 3713 1100 
L 3047 1100 
L 3047 0 
L 2419 0 
L 2419 1100 
L 313 1100 
L 313 1709 
L 2253 4666 
z
" id="DejaVuSans-34" transform="scale(0.015625)"/>
       </defs>
       <use xlink:href="#DejaVuSans-2d"/>
       <use x="36.083984" xlink:href="#DejaVuSans-34"/>
      </g>
     </g>
    </g>
    <g id="xtick_2">
     <g id="line2d_3">
      <path clip-path="url(#p1562eacd7d)" d="M 218.760889 293.76 
L 218.760889 3.456 
" style="fill:none;stroke:#b0b0b0;stroke-linecap:square;stroke-width:0.8;"/>
     </g>
     <g id="line2d_4">
      <g>
       <use style="stroke:#000000;stroke-width:0.8;" x="218.760889" xlink:href="#m4384bf1058" y="293.76"/>
      </g>
     </g>
     <g id="text_2">
      <!-- 0 -->
      <g transform="translate(212.398389 315.956875)scale(0.2 -0.2)">
       <defs>
        <path d="M 2034 4250 
Q 1547 4250 1301 3770 
Q 1056 3291 1056 2328 
Q 1056 1369 1301 889 
Q 1547 409 2034 409 
Q 2525 409 2770 889 
Q 3016 1369 3016 2328 
Q 3016 3291 2770 3770 
Q 2525 4250 2034 4250 
z
M 2034 4750 
Q 2819 4750 3233 4129 
Q 3647 3509 3647 2328 
Q 3647 1150 3233 529 
Q 2819 -91 2034 -91 
Q 1250 -91 836 529 
Q 422 1150 422 2328 
Q 422 3509 836 4129 
Q 1250 4750 2034 4750 
z
" id="DejaVuSans-30" transform="scale(0.015625)"/>
       </defs>
       <use xlink:href="#DejaVuSans-30"/>
      </g>
     </g>
    </g>
    <g id="xtick_3">
     <g id="line2d_5">
      <path clip-path="url(#p1562eacd7d)" d="M 328.20045 293.76 
L 328.20045 3.456 
" style="fill:none;stroke:#b0b0b0;stroke-linecap:square;stroke-width:0.8;"/>
     </g>
     <g id="line2d_6">
      <g>
       <use style="stroke:#000000;stroke-width:0.8;" x="328.20045" xlink:href="#m4384bf1058" y="293.76"/>
      </g>
     </g>
     <g id="text_3">
      <!-- 4 -->
      <g transform="translate(321.83795 315.956875)scale(0.2 -0.2)">
       <use xlink:href="#DejaVuSans-34"/>
      </g>
     </g>
    </g>
    <g id="xtick_4">
     <g id="line2d_7">
      <path clip-path="url(#p1562eacd7d)" d="M 437.640011 293.76 
L 437.640011 3.456 
" style="fill:none;stroke:#b0b0b0;stroke-linecap:square;stroke-width:0.8;"/>
     </g>
     <g id="line2d_8">
      <g>
       <use style="stroke:#000000;stroke-width:0.8;" x="437.640011" xlink:href="#m4384bf1058" y="293.76"/>
      </g>
     </g>
     <g id="text_4">
      <!-- 8 -->
      <g transform="translate(431.277511 315.956875)scale(0.2 -0.2)">
       <defs>
        <path d="M 2034 2216 
Q 1584 2216 1326 1975 
Q 1069 1734 1069 1313 
Q 1069 891 1326 650 
Q 1584 409 2034 409 
Q 2484 409 2743 651 
Q 3003 894 3003 1313 
Q 3003 1734 2745 1975 
Q 2488 2216 2034 2216 
z
M 1403 2484 
Q 997 2584 770 2862 
Q 544 3141 544 3541 
Q 544 4100 942 4425 
Q 1341 4750 2034 4750 
Q 2731 4750 3128 4425 
Q 3525 4100 3525 3541 
Q 3525 3141 3298 2862 
Q 3072 2584 2669 2484 
Q 3125 2378 3379 2068 
Q 3634 1759 3634 1313 
Q 3634 634 3220 271 
Q 2806 -91 2034 -91 
Q 1263 -91 848 271 
Q 434 634 434 1313 
Q 434 1759 690 2068 
Q 947 2378 1403 2484 
z
M 1172 3481 
Q 1172 3119 1398 2916 
Q 1625 2713 2034 2713 
Q 2441 2713 2670 2916 
Q 2900 3119 2900 3481 
Q 2900 3844 2670 4047 
Q 2441 4250 2034 4250 
Q 1625 4250 1398 4047 
Q 1172 3844 1172 3481 
z
" id="DejaVuSans-38" transform="scale(0.015625)"/>
       </defs>
       <use xlink:href="#DejaVuSans-38"/>
      </g>
     </g>
    </g>
    <g id="text_5">
     <!-- log10 of Df -->
     <g transform="translate(175.214063 339.313125)scale(0.2 -0.2)">
      <defs>
       <path d="M 603 4863 
L 1178 4863 
L 1178 0 
L 603 0 
L 603 4863 
z
" id="DejaVuSans-6c" transform="scale(0.015625)"/>
       <path d="M 1959 3097 
Q 1497 3097 1228 2736 
Q 959 2375 959 1747 
Q 959 1119 1226 758 
Q 1494 397 1959 397 
Q 2419 397 2687 759 
Q 2956 1122 2956 1747 
Q 2956 2369 2687 2733 
Q 2419 3097 1959 3097 
z
M 1959 3584 
Q 2709 3584 3137 3096 
Q 3566 2609 3566 1747 
Q 3566 888 3137 398 
Q 2709 -91 1959 -91 
Q 1206 -91 779 398 
Q 353 888 353 1747 
Q 353 2609 779 3096 
Q 1206 3584 1959 3584 
z
" id="DejaVuSans-6f" transform="scale(0.015625)"/>
       <path d="M 2906 1791 
Q 2906 2416 2648 2759 
Q 2391 3103 1925 3103 
Q 1463 3103 1205 2759 
Q 947 2416 947 1791 
Q 947 1169 1205 825 
Q 1463 481 1925 481 
Q 2391 481 2648 825 
Q 2906 1169 2906 1791 
z
M 3481 434 
Q 3481 -459 3084 -895 
Q 2688 -1331 1869 -1331 
Q 1566 -1331 1297 -1286 
Q 1028 -1241 775 -1147 
L 775 -588 
Q 1028 -725 1275 -790 
Q 1522 -856 1778 -856 
Q 2344 -856 2625 -561 
Q 2906 -266 2906 331 
L 2906 616 
Q 2728 306 2450 153 
Q 2172 0 1784 0 
Q 1141 0 747 490 
Q 353 981 353 1791 
Q 353 2603 747 3093 
Q 1141 3584 1784 3584 
Q 2172 3584 2450 3431 
Q 2728 3278 2906 2969 
L 2906 3500 
L 3481 3500 
L 3481 434 
z
" id="DejaVuSans-67" transform="scale(0.015625)"/>
       <path d="M 794 531 
L 1825 531 
L 1825 4091 
L 703 3866 
L 703 4441 
L 1819 4666 
L 2450 4666 
L 2450 531 
L 3481 531 
L 3481 0 
L 794 0 
L 794 531 
z
" id="DejaVuSans-31" transform="scale(0.015625)"/>
       <path id="DejaVuSans-20" transform="scale(0.015625)"/>
       <path d="M 2375 4863 
L 2375 4384 
L 1825 4384 
Q 1516 4384 1395 4259 
Q 1275 4134 1275 3809 
L 1275 3500 
L 2222 3500 
L 2222 3053 
L 1275 3053 
L 1275 0 
L 697 0 
L 697 3053 
L 147 3053 
L 147 3500 
L 697 3500 
L 697 3744 
Q 697 4328 969 4595 
Q 1241 4863 1831 4863 
L 2375 4863 
z
" id="DejaVuSans-66" transform="scale(0.015625)"/>
       <path d="M 1259 4147 
L 1259 519 
L 2022 519 
Q 2988 519 3436 956 
Q 3884 1394 3884 2338 
Q 3884 3275 3436 3711 
Q 2988 4147 2022 4147 
L 1259 4147 
z
M 628 4666 
L 1925 4666 
Q 3281 4666 3915 4102 
Q 4550 3538 4550 2338 
Q 4550 1131 3912 565 
Q 3275 0 1925 0 
L 628 0 
L 628 4666 
z
" id="DejaVuSans-44" transform="scale(0.015625)"/>
      </defs>
      <use xlink:href="#DejaVuSans-6c"/>
      <use x="27.783203" xlink:href="#DejaVuSans-6f"/>
      <use x="88.964844" xlink:href="#DejaVuSans-67"/>
      <use x="152.441406" xlink:href="#DejaVuSans-31"/>
      <use x="216.064453" xlink:href="#DejaVuSans-30"/>
      <use x="279.6875" xlink:href="#DejaVuSans-20"/>
      <use x="311.474609" xlink:href="#DejaVuSans-6f"/>
      <use x="372.65625" xlink:href="#DejaVuSans-66"/>
      <use x="407.861328" xlink:href="#DejaVuSans-20"/>
      <use x="439.648438" xlink:href="#DejaVuSans-44"/>
      <use x="516.650391" xlink:href="#DejaVuSans-66"/>
     </g>
    </g>
   </g>
   <g id="matplotlib.axis_2">
    <g id="ytick_1">
     <g id="line2d_9">
      <path clip-path="url(#p1562eacd7d)" d="M 0 293.76 
L 460.8 293.76 
" style="fill:none;stroke:#b0b0b0;stroke-linecap:square;stroke-width:0.8;"/>
     </g>
     <g id="line2d_10">
      <defs>
       <path d="M 0 0 
L -3.5 0 
" id="m4840907dba" style="stroke:#000000;stroke-width:0.8;"/>
      </defs>
      <g>
       <use style="stroke:#000000;stroke-width:0.8;" x="0" xlink:href="#m4840907dba" y="293.76"/>
      </g>
     </g>
    </g>
    <g id="ytick_2">
     <g id="line2d_11">
      <path clip-path="url(#p1562eacd7d)" d="M 0 236.274059 
L 460.8 236.274059 
" style="fill:none;stroke:#b0b0b0;stroke-linecap:square;stroke-width:0.8;"/>
     </g>
     <g id="line2d_12">
      <g>
       <use style="stroke:#000000;stroke-width:0.8;" x="0" xlink:href="#m4840907dba" y="236.274059"/>
      </g>
     </g>
    </g>
    <g id="ytick_3">
     <g id="line2d_13">
      <path clip-path="url(#p1562eacd7d)" d="M 0 178.788119 
L 460.8 178.788119 
" style="fill:none;stroke:#b0b0b0;stroke-linecap:square;stroke-width:0.8;"/>
     </g>
     <g id="line2d_14">
      <g>
       <use style="stroke:#000000;stroke-width:0.8;" x="0" xlink:href="#m4840907dba" y="178.788119"/>
      </g>
     </g>
    </g>
    <g id="ytick_4">
     <g id="line2d_15">
      <path clip-path="url(#p1562eacd7d)" d="M 0 121.302178 
L 460.8 121.302178 
" style="fill:none;stroke:#b0b0b0;stroke-linecap:square;stroke-width:0.8;"/>
     </g>
     <g id="line2d_16">
      <g>
       <use style="stroke:#000000;stroke-width:0.8;" x="0" xlink:href="#m4840907dba" y="121.302178"/>
      </g>
     </g>
    </g>
    <g id="ytick_5">
     <g id="line2d_17">
      <path clip-path="url(#p1562eacd7d)" d="M 0 63.816238 
L 460.8 63.816238 
" style="fill:none;stroke:#b0b0b0;stroke-linecap:square;stroke-width:0.8;"/>
     </g>
     <g id="line2d_18">
      <g>
       <use style="stroke:#000000;stroke-width:0.8;" x="0" xlink:href="#m4840907dba" y="63.816238"/>
      </g>
     </g>
    </g>
    <g id="ytick_6">
     <g id="line2d_19">
      <path clip-path="url(#p1562eacd7d)" d="M 0 6.330297 
L 460.8 6.330297 
" style="fill:none;stroke:#b0b0b0;stroke-linecap:square;stroke-width:0.8;"/>
     </g>
     <g id="line2d_20">
      <g>
       <use style="stroke:#000000;stroke-width:0.8;" x="0" xlink:href="#m4840907dba" y="6.330297"/>
      </g>
     </g>
    </g>
   </g>
   <g id="line2d_21">
    <path clip-path="url(#p1562eacd7d)" d="M 229.280812 293.76 
L 229.280812 288.969505 
L 230.845266 288.969505 
L 230.845266 284.17901 
L 231.463128 284.17901 
L 231.463128 279.388515 
L 232.20715 279.388515 
L 232.20715 274.59802 
L 235.745541 274.59802 
L 235.745541 269.807525 
L 239.663088 269.807525 
L 239.663088 265.01703 
L 239.95161 265.01703 
L 239.95161 260.226535 
L 244.047062 260.226535 
L 244.047062 255.43604 
L 244.647293 255.43604 
L 244.647293 250.645545 
L 246.125352 250.645545 
L 246.125352 245.85505 
L 246.170853 245.85505 
L 246.170853 241.064554 
L 246.821958 241.064554 
L 246.821958 236.274059 
L 248.131664 236.274059 
L 248.131664 231.483564 
L 248.708751 231.483564 
L 248.708751 226.693069 
L 249.163546 226.693069 
L 249.163546 221.902574 
L 252.918863 221.902574 
L 252.918863 217.112079 
L 255.727516 217.112079 
L 255.727516 212.321584 
L 256.505672 212.321584 
L 256.505672 207.531089 
L 259.027487 207.531089 
L 259.027487 202.740594 
L 261.558289 202.740594 
L 261.558289 197.950099 
L 261.70051 197.950099 
L 261.70051 193.159604 
L 262.578263 193.159604 
L 262.578263 188.369109 
L 264.125037 188.369109 
L 264.125037 183.578614 
L 264.976735 183.578614 
L 264.976735 178.788119 
L 266.168841 178.788119 
L 266.168841 173.997624 
L 266.585365 173.997624 
L 266.585365 169.207129 
L 266.73784 169.207129 
L 266.73784 164.416634 
L 267.997292 164.416634 
L 267.997292 159.626139 
L 268.333468 159.626139 
L 268.333468 154.835644 
L 270.041535 154.835644 
L 270.041535 150.045149 
L 270.169806 150.045149 
L 270.169806 145.254653 
L 270.371565 145.254653 
L 270.371565 140.464158 
L 271.120531 140.464158 
L 271.120531 135.673663 
L 271.138707 135.673663 
L 271.138707 130.883168 
L 271.552947 130.883168 
L 271.552947 126.092673 
L 272.048304 126.092673 
L 272.048304 121.302178 
L 272.235706 121.302178 
L 272.235706 116.511683 
L 272.869682 116.511683 
L 272.869682 111.721188 
L 272.958864 111.721188 
L 272.958864 106.930693 
L 273.412728 106.930693 
L 273.412728 102.140198 
L 274.323169 102.140198 
L 274.323169 97.349703 
L 274.46036 97.349703 
L 274.46036 92.559208 
L 275.295807 92.559208 
L 275.295807 87.768713 
L 275.354094 87.768713 
L 275.354094 82.978218 
L 276.628817 82.978218 
L 276.628817 78.187723 
L 276.771768 78.187723 
L 276.771768 73.397228 
L 277.353712 73.397228 
L 277.353712 68.606733 
L 277.982117 68.606733 
L 277.982117 63.816238 
L 280.132151 63.816238 
L 280.132151 59.025743 
L 281.170042 59.025743 
L 281.170042 54.235248 
L 283.110879 54.235248 
L 283.110879 49.444752 
L 283.603422 49.444752 
L 283.603422 44.654257 
L 283.810227 44.654257 
L 283.810227 39.863762 
L 285.945185 39.863762 
L 285.945185 35.073267 
L 288.726043 35.073267 
L 288.726043 30.282772 
L 289.830924 30.282772 
L 289.830924 25.492277 
L 298.18731 25.492277 
L 298.18731 20.701782 
L 316.111063 20.701782 
L 316.111063 15.911287 
L 331.218261 15.911287 
L 331.218261 11.120792 
L 346.933807 11.120792 
L 346.933807 6.330297 
L 346.933807 6.330297 
L 346.933807 6.330297 
L 460.8 6.330297 
" style="fill:none;stroke:#ff0000;stroke-linecap:square;stroke-width:3;"/>
   </g>
   <g id="line2d_22">
    <path clip-path="url(#p1562eacd7d)" d="M 244.047062 293.76 
L 244.047062 288.969505 
L 248.115031 288.969505 
L 248.115031 284.17901 
L 259.803888 284.17901 
L 259.803888 279.388515 
L 265.493694 279.388515 
L 265.493694 274.59802 
L 266.392265 274.59802 
L 266.392265 269.807525 
L 266.538882 269.807525 
L 266.538882 265.01703 
L 271.303258 265.01703 
L 271.303258 260.226535 
L 275.009187 260.226535 
L 275.009187 255.43604 
L 276.600067 255.43604 
L 276.600067 250.645545 
L 277.902237 250.645545 
L 277.902237 245.85505 
L 278.018862 245.85505 
L 278.018862 241.064554 
L 279.990489 241.064554 
L 279.990489 236.274059 
L 280.140423 236.274059 
L 280.140423 231.483564 
L 280.991175 231.483564 
L 280.991175 226.693069 
L 283.568694 226.693069 
L 283.568694 221.902574 
L 283.610433 221.902574 
L 283.610433 217.112079 
L 285.981905 217.112079 
L 285.981905 212.321584 
L 286.421472 212.321584 
L 286.421472 207.531089 
L 287.821407 207.531089 
L 287.821407 202.740594 
L 291.309601 202.740594 
L 291.309601 197.950099 
L 292.712469 197.950099 
L 292.712469 193.159604 
L 293.758335 193.159604 
L 293.758335 188.369109 
L 293.91282 188.369109 
L 293.91282 183.578614 
L 296.618787 183.578614 
L 296.618787 178.788119 
L 297.03165 178.788119 
L 297.03165 173.997624 
L 297.439627 173.997624 
L 297.439627 169.207129 
L 299.008133 169.207129 
L 299.008133 164.416634 
L 299.318185 164.416634 
L 299.318185 159.626139 
L 300.387623 159.626139 
L 300.387623 154.835644 
L 300.451011 154.835644 
L 300.451011 150.045149 
L 302.770375 150.045149 
L 302.770375 145.254653 
L 307.488973 145.254653 
L 307.488973 140.464158 
L 307.80456 140.464158 
L 307.80456 135.673663 
L 308.425596 135.673663 
L 308.425596 130.883168 
L 309.313659 130.883168 
L 309.313659 126.092673 
L 310.532487 126.092673 
L 310.532487 121.302178 
L 310.767417 121.302178 
L 310.767417 116.511683 
L 312.717236 116.511683 
L 312.717236 111.721188 
L 312.914332 111.721188 
L 312.914332 106.930693 
L 315.498122 106.930693 
L 315.498122 102.140198 
L 316.406463 102.140198 
L 316.406463 97.349703 
L 326.488503 97.349703 
L 326.488503 92.559208 
L 332.098937 92.559208 
L 332.098937 87.768713 
L 333.482715 87.768713 
L 333.482715 82.978218 
L 334.565177 82.978218 
L 334.565177 78.187723 
L 336.959538 78.187723 
L 336.959538 73.397228 
L 343.34056 73.397228 
L 343.34056 68.606733 
L 343.39295 68.606733 
L 343.39295 63.816238 
L 345.607176 63.816238 
L 345.607176 59.025743 
L 347.343148 59.025743 
L 347.343148 54.235248 
L 353.28811 54.235248 
L 353.28811 49.444752 
L 354.909033 49.444752 
L 354.909033 44.654257 
L 357.587703 44.654257 
L 357.587703 39.863762 
L 358.225865 39.863762 
L 358.225865 35.073267 
L 359.119099 35.073267 
L 359.119099 30.282772 
L 364.906326 30.282772 
L 364.906326 25.492277 
L 367.954966 25.492277 
L 367.954966 20.701782 
L 368.63597 20.701782 
L 368.63597 15.911287 
L 368.764121 15.911287 
L 368.764121 11.120792 
L 376.425867 11.120792 
L 376.425867 6.330297 
L 376.425867 6.330297 
L 376.425867 6.330297 
L 460.8 6.330297 
" style="fill:none;stroke:#00bfbf;stroke-linecap:square;stroke-width:1.5;"/>
   </g>
   <g id="line2d_23">
    <path clip-path="url(#p1562eacd7d)" d="M 244.047062 293.76 
L 244.047062 288.969505 
L 248.115031 288.969505 
L 248.115031 284.17901 
L 251.809684 284.17901 
L 251.809684 279.388515 
L 259.803888 279.388515 
L 259.803888 274.59802 
L 260.129115 274.59802 
L 260.129115 269.807525 
L 264.013517 269.807525 
L 264.013517 265.01703 
L 266.538882 265.01703 
L 266.538882 260.226535 
L 268.440244 260.226535 
L 268.440244 255.43604 
L 271.303258 255.43604 
L 271.303258 250.645545 
L 271.552947 250.645545 
L 271.552947 245.85505 
L 272.110584 245.85505 
L 272.110584 241.064554 
L 273.661734 241.064554 
L 273.661734 236.274059 
L 274.46036 236.274059 
L 274.46036 231.483564 
L 275.354094 231.483564 
L 275.354094 226.693069 
L 275.509124 226.693069 
L 275.509124 221.902574 
L 276.097144 221.902574 
L 276.097144 217.112079 
L 276.600067 217.112079 
L 276.600067 212.321584 
L 277.902237 212.321584 
L 277.902237 207.531089 
L 278.018862 207.531089 
L 278.018862 202.740594 
L 278.921557 202.740594 
L 278.921557 197.950099 
L 279.810368 197.950099 
L 279.810368 193.159604 
L 280.140423 193.159604 
L 280.140423 188.369109 
L 282.190605 188.369109 
L 282.190605 183.578614 
L 282.991808 183.578614 
L 282.991808 178.788119 
L 284.166023 178.788119 
L 284.166023 173.997624 
L 285.09317 173.997624 
L 285.09317 169.207129 
L 285.981905 169.207129 
L 285.981905 164.416634 
L 287.260716 164.416634 
L 287.260716 159.626139 
L 289.642979 159.626139 
L 289.642979 154.835644 
L 290.438128 154.835644 
L 290.438128 150.045149 
L 293.086031 150.045149 
L 293.086031 145.254653 
L 295.932437 145.254653 
L 295.932437 140.464158 
L 296.618787 140.464158 
L 296.618787 135.673663 
L 298.653171 135.673663 
L 298.653171 130.883168 
L 300.383762 130.883168 
L 300.383762 126.092673 
L 300.387623 126.092673 
L 300.387623 121.302178 
L 307.80456 121.302178 
L 307.80456 116.511683 
L 307.824884 116.511683 
L 307.824884 111.721188 
L 308.425596 111.721188 
L 308.425596 106.930693 
L 309.313659 106.930693 
L 309.313659 102.140198 
L 312.717236 102.140198 
L 312.717236 97.349703 
L 315.498122 97.349703 
L 315.498122 92.559208 
L 320.439265 92.559208 
L 320.439265 87.768713 
L 321.095894 87.768713 
L 321.095894 82.978218 
L 321.971221 82.978218 
L 321.971221 78.187723 
L 326.488503 78.187723 
L 326.488503 73.397228 
L 328.037249 73.397228 
L 328.037249 68.606733 
L 332.356308 68.606733 
L 332.356308 63.816238 
L 332.764227 63.816238 
L 332.764227 59.025743 
L 332.778743 59.025743 
L 332.778743 54.235248 
L 349.14353 54.235248 
L 349.14353 49.444752 
L 349.801521 49.444752 
L 349.801521 44.654257 
L 350.066473 44.654257 
L 350.066473 39.863762 
L 350.104989 39.863762 
L 350.104989 35.073267 
L 354.220032 35.073267 
L 354.220032 30.282772 
L 358.235521 30.282772 
L 358.235521 25.492277 
L 363.230949 25.492277 
L 363.230949 20.701782 
L 366.442438 20.701782 
L 366.442438 15.911287 
L 367.954966 15.911287 
L 367.954966 11.120792 
L 372.467285 11.120792 
L 372.467285 6.330297 
L 372.467285 6.330297 
L 372.467285 6.330297 
L 460.8 6.330297 
" style="fill:none;stroke:#bf00bf;stroke-linecap:square;stroke-width:1.5;"/>
   </g>
   <g id="line2d_24">
    <path clip-path="url(#p1562eacd7d)" d="M 244.047062 293.76 
L 244.047062 288.969505 
L 244.737867 288.969505 
L 244.737867 284.17901 
L 248.115031 284.17901 
L 248.115031 279.388515 
L 251.809684 279.388515 
L 251.809684 274.59802 
L 259.803888 274.59802 
L 259.803888 269.807525 
L 260.129115 269.807525 
L 260.129115 265.01703 
L 260.780878 265.01703 
L 260.780878 260.226535 
L 262.578263 260.226535 
L 262.578263 255.43604 
L 264.013517 255.43604 
L 264.013517 250.645545 
L 266.538882 250.645545 
L 266.538882 245.85505 
L 268.440244 245.85505 
L 268.440244 241.064554 
L 271.303258 241.064554 
L 271.303258 236.274059 
L 271.552947 236.274059 
L 271.552947 231.483564 
L 273.143772 231.483564 
L 273.143772 226.693069 
L 273.661734 226.693069 
L 273.661734 221.902574 
L 274.46036 221.902574 
L 274.46036 217.112079 
L 275.354094 217.112079 
L 275.354094 212.321584 
L 275.509124 212.321584 
L 275.509124 207.531089 
L 276.097144 207.531089 
L 276.097144 202.740594 
L 277.902237 202.740594 
L 277.902237 197.950099 
L 278.018862 197.950099 
L 278.018862 193.159604 
L 278.921557 193.159604 
L 278.921557 188.369109 
L 279.810368 188.369109 
L 279.810368 183.578614 
L 280.140423 183.578614 
L 280.140423 178.788119 
L 280.167434 178.788119 
L 280.167434 173.997624 
L 281.176122 173.997624 
L 281.176122 169.207129 
L 281.176513 169.207129 
L 281.176513 164.416634 
L 282.568342 164.416634 
L 282.568342 159.626139 
L 282.647244 159.626139 
L 282.647244 154.835644 
L 283.460472 154.835644 
L 283.460472 150.045149 
L 285.09317 150.045149 
L 285.09317 145.254653 
L 288.447156 145.254653 
L 288.447156 140.464158 
L 288.91684 140.464158 
L 288.91684 135.673663 
L 290.438128 135.673663 
L 290.438128 130.883168 
L 293.086031 130.883168 
L 293.086031 126.092673 
L 296.618787 126.092673 
L 296.618787 121.302178 
L 298.653171 121.302178 
L 298.653171 116.511683 
L 306.333203 116.511683 
L 306.333203 111.721188 
L 307.435246 111.721188 
L 307.435246 106.930693 
L 307.634045 106.930693 
L 307.634045 102.140198 
L 308.425596 102.140198 
L 308.425596 97.349703 
L 309.313659 97.349703 
L 309.313659 92.559208 
L 315.498122 92.559208 
L 315.498122 87.768713 
L 315.912268 87.768713 
L 315.912268 82.978218 
L 319.473157 82.978218 
L 319.473157 78.187723 
L 320.439265 78.187723 
L 320.439265 73.397228 
L 321.971221 73.397228 
L 321.971221 68.606733 
L 323.63048 68.606733 
L 323.63048 63.816238 
L 327.728589 63.816238 
L 327.728589 59.025743 
L 332.356308 59.025743 
L 332.356308 54.235248 
L 332.778743 54.235248 
L 332.778743 49.444752 
L 349.14353 49.444752 
L 349.14353 44.654257 
L 349.801521 44.654257 
L 349.801521 39.863762 
L 350.066473 39.863762 
L 350.066473 35.073267 
L 350.104989 35.073267 
L 350.104989 30.282772 
L 354.220032 30.282772 
L 354.220032 25.492277 
L 354.677264 25.492277 
L 354.677264 20.701782 
L 357.797534 20.701782 
L 357.797534 15.911287 
L 358.26365 15.911287 
L 358.26365 11.120792 
L 363.230949 11.120792 
L 363.230949 6.330297 
L 363.230949 6.330297 
L 363.230949 6.330297 
L 460.8 6.330297 
" style="fill:none;stroke:#000000;stroke-linecap:square;stroke-width:1.5;"/>
   </g>
   <g id="line2d_25">
    <path clip-path="url(#p1562eacd7d)" d="M 244.047062 293.76 
L 244.047062 288.969505 
L 244.737867 288.969505 
L 244.737867 284.17901 
L 248.115031 284.17901 
L 248.115031 279.388515 
L 251.809684 279.388515 
L 251.809684 274.59802 
L 253.027794 274.59802 
L 253.027794 269.807525 
L 256.471911 269.807525 
L 256.471911 265.01703 
L 257.629219 265.01703 
L 257.629219 260.226535 
L 259.803888 260.226535 
L 259.803888 255.43604 
L 260.780878 255.43604 
L 260.780878 250.645545 
L 261.70051 250.645545 
L 261.70051 245.85505 
L 262.0107 245.85505 
L 262.0107 241.064554 
L 262.578263 241.064554 
L 262.578263 236.274059 
L 263.358342 236.274059 
L 263.358342 231.483564 
L 264.013517 231.483564 
L 264.013517 226.693069 
L 264.976735 226.693069 
L 264.976735 221.902574 
L 266.538882 221.902574 
L 266.538882 217.112079 
L 267.680525 217.112079 
L 267.680525 212.321584 
L 268.440244 212.321584 
L 268.440244 207.531089 
L 269.544784 207.531089 
L 269.544784 202.740594 
L 271.552947 202.740594 
L 271.552947 197.950099 
L 272.235706 197.950099 
L 272.235706 193.159604 
L 273.143772 193.159604 
L 273.143772 188.369109 
L 274.46036 188.369109 
L 274.46036 183.578614 
L 274.618436 183.578614 
L 274.618436 178.788119 
L 275.021277 178.788119 
L 275.021277 173.997624 
L 275.354094 173.997624 
L 275.354094 169.207129 
L 276.097144 169.207129 
L 276.097144 164.416634 
L 277.902237 164.416634 
L 277.902237 159.626139 
L 277.982117 159.626139 
L 277.982117 154.835644 
L 278.018862 154.835644 
L 278.018862 150.045149 
L 278.921557 150.045149 
L 278.921557 145.254653 
L 280.167434 145.254653 
L 280.167434 140.464158 
L 281.176513 140.464158 
L 281.176513 135.673663 
L 282.647244 135.673663 
L 282.647244 130.883168 
L 283.460472 130.883168 
L 283.460472 126.092673 
L 285.09317 126.092673 
L 285.09317 121.302178 
L 288.91684 121.302178 
L 288.91684 116.511683 
L 289.205155 116.511683 
L 289.205155 111.721188 
L 290.438128 111.721188 
L 290.438128 106.930693 
L 293.086031 106.930693 
L 293.086031 102.140198 
L 294.323217 102.140198 
L 294.323217 97.349703 
L 296.618787 97.349703 
L 296.618787 92.559208 
L 297.905828 92.559208 
L 297.905828 87.768713 
L 298.653171 87.768713 
L 298.653171 82.978218 
L 300.197256 82.978218 
L 300.197256 78.187723 
L 301.929672 78.187723 
L 301.929672 73.397228 
L 304.993422 73.397228 
L 304.993422 68.606733 
L 307.634045 68.606733 
L 307.634045 63.816238 
L 311.221831 63.816238 
L 311.221831 59.025743 
L 314.614035 59.025743 
L 314.614035 54.235248 
L 315.811084 54.235248 
L 315.811084 49.444752 
L 317.019325 49.444752 
L 317.019325 44.654257 
L 323.381795 44.654257 
L 323.381795 39.863762 
L 327.728589 39.863762 
L 327.728589 35.073267 
L 336.900029 35.073267 
L 336.900029 30.282772 
L 337.526842 30.282772 
L 337.526842 25.492277 
L 349.14353 25.492277 
L 349.14353 20.701782 
L 350.104989 20.701782 
L 350.104989 15.911287 
L 357.208747 15.911287 
L 357.208747 11.120792 
L 358.26365 11.120792 
L 358.26365 6.330297 
L 358.26365 6.330297 
L 358.26365 6.330297 
L 460.8 6.330297 
" style="fill:none;stroke:#00bfbf;stroke-linecap:square;stroke-width:1.5;"/>
   </g>
   <g id="line2d_26">
    <path clip-path="url(#p1562eacd7d)" d="M 229.280812 293.76 
L 229.280812 288.969505 
L 230.845266 288.969505 
L 230.845266 284.17901 
L 231.463128 284.17901 
L 231.463128 279.388515 
L 232.20715 279.388515 
L 232.20715 274.59802 
L 235.745541 274.59802 
L 235.745541 269.807525 
L 239.663088 269.807525 
L 239.663088 265.01703 
L 239.95161 265.01703 
L 239.95161 260.226535 
L 244.047062 260.226535 
L 244.047062 255.43604 
L 244.647293 255.43604 
L 244.647293 250.645545 
L 246.125352 250.645545 
L 246.125352 245.85505 
L 246.170853 245.85505 
L 246.170853 241.064554 
L 246.821958 241.064554 
L 246.821958 236.274059 
L 248.131664 236.274059 
L 248.131664 231.483564 
L 248.708751 231.483564 
L 248.708751 226.693069 
L 249.163546 226.693069 
L 249.163546 221.902574 
L 252.918863 221.902574 
L 252.918863 217.112079 
L 255.727516 217.112079 
L 255.727516 212.321584 
L 256.505672 212.321584 
L 256.505672 207.531089 
L 259.027487 207.531089 
L 259.027487 202.740594 
L 261.558289 202.740594 
L 261.558289 197.950099 
L 261.70051 197.950099 
L 261.70051 193.159604 
L 262.578263 193.159604 
L 262.578263 188.369109 
L 264.125037 188.369109 
L 264.125037 183.578614 
L 264.976735 183.578614 
L 264.976735 178.788119 
L 266.168841 178.788119 
L 266.168841 173.997624 
L 266.585365 173.997624 
L 266.585365 169.207129 
L 266.73784 169.207129 
L 266.73784 164.416634 
L 267.997292 164.416634 
L 267.997292 159.626139 
L 268.333468 159.626139 
L 268.333468 154.835644 
L 270.041535 154.835644 
L 270.041535 150.045149 
L 270.169806 150.045149 
L 270.169806 145.254653 
L 270.371565 145.254653 
L 270.371565 140.464158 
L 271.120531 140.464158 
L 271.120531 135.673663 
L 271.138707 135.673663 
L 271.138707 130.883168 
L 271.552947 130.883168 
L 271.552947 126.092673 
L 272.048304 126.092673 
L 272.048304 121.302178 
L 272.235706 121.302178 
L 272.235706 116.511683 
L 272.869682 116.511683 
L 272.869682 111.721188 
L 272.958864 111.721188 
L 272.958864 106.930693 
L 273.412728 106.930693 
L 273.412728 102.140198 
L 274.323169 102.140198 
L 274.323169 97.349703 
L 274.46036 97.349703 
L 274.46036 92.559208 
L 275.295807 92.559208 
L 275.295807 87.768713 
L 275.354094 87.768713 
L 275.354094 82.978218 
L 276.628817 82.978218 
L 276.628817 78.187723 
L 276.771768 78.187723 
L 276.771768 73.397228 
L 277.353712 73.397228 
L 277.353712 68.606733 
L 277.982117 68.606733 
L 277.982117 63.816238 
L 280.132151 63.816238 
L 280.132151 59.025743 
L 281.170042 59.025743 
L 281.170042 54.235248 
L 283.110879 54.235248 
L 283.110879 49.444752 
L 283.603422 49.444752 
L 283.603422 44.654257 
L 283.810227 44.654257 
L 283.810227 39.863762 
L 285.945185 39.863762 
L 285.945185 35.073267 
L 288.726043 35.073267 
L 288.726043 30.282772 
L 289.830924 30.282772 
L 289.830924 25.492277 
L 298.18731 25.492277 
L 298.18731 20.701782 
L 316.111063 20.701782 
L 316.111063 15.911287 
L 331.218261 15.911287 
L 331.218261 11.120792 
L 346.933807 11.120792 
L 346.933807 6.330297 
L 346.933807 6.330297 
L 346.933807 6.330297 
L 460.8 6.330297 
" style="fill:none;stroke:#bf00bf;stroke-linecap:square;stroke-width:1.5;"/>
   </g>
   <g id="patch_3">
    <path d="M 0 293.76 
L 0 3.456 
" style="fill:none;stroke:#000000;stroke-linecap:square;stroke-linejoin:miter;stroke-width:0.8;"/>
   </g>
   <g id="patch_4">
    <path d="M 460.8 293.76 
L 460.8 3.456 
" style="fill:none;stroke:#000000;stroke-linecap:square;stroke-linejoin:miter;stroke-width:0.8;"/>
   </g>
   <g id="patch_5">
    <path d="M 0 293.76 
L 460.8 293.76 
" style="fill:none;stroke:#000000;stroke-linecap:square;stroke-linejoin:miter;stroke-width:0.8;"/>
   </g>
   <g id="patch_6">
    <path d="M 0 3.456 
L 460.8 3.456 
" style="fill:none;stroke:#000000;stroke-linecap:square;stroke-linejoin:miter;stroke-width:0.8;"/>
   </g>
   <g id="text_6">
    <!-- {f6-f9}, 5-D -->
    <g transform="translate(331.334 287.95392)scale(0.2 -0.2)">
     <defs>
      <path d="M 3272 -594 
L 3272 -1044 
L 3078 -1044 
Q 2300 -1044 2036 -812 
Q 1772 -581 1772 109 
L 1772 856 
Q 1772 1328 1603 1509 
Q 1434 1691 991 1691 
L 800 1691 
L 800 2138 
L 991 2138 
Q 1438 2138 1605 2317 
Q 1772 2497 1772 2963 
L 1772 3713 
Q 1772 4403 2036 4633 
Q 2300 4863 3078 4863 
L 3272 4863 
L 3272 4416 
L 3059 4416 
Q 2619 4416 2484 4278 
Q 2350 4141 2350 3700 
L 2350 2925 
Q 2350 2434 2208 2212 
Q 2066 1991 1722 1913 
Q 2069 1828 2209 1606 
Q 2350 1384 2350 897 
L 2350 122 
Q 2350 -319 2484 -456 
Q 2619 -594 3059 -594 
L 3272 -594 
z
" id="DejaVuSans-7b" transform="scale(0.015625)"/>
      <path d="M 2113 2584 
Q 1688 2584 1439 2293 
Q 1191 2003 1191 1497 
Q 1191 994 1439 701 
Q 1688 409 2113 409 
Q 2538 409 2786 701 
Q 3034 994 3034 1497 
Q 3034 2003 2786 2293 
Q 2538 2584 2113 2584 
z
M 3366 4563 
L 3366 3988 
Q 3128 4100 2886 4159 
Q 2644 4219 2406 4219 
Q 1781 4219 1451 3797 
Q 1122 3375 1075 2522 
Q 1259 2794 1537 2939 
Q 1816 3084 2150 3084 
Q 2853 3084 3261 2657 
Q 3669 2231 3669 1497 
Q 3669 778 3244 343 
Q 2819 -91 2113 -91 
Q 1303 -91 875 529 
Q 447 1150 447 2328 
Q 447 3434 972 4092 
Q 1497 4750 2381 4750 
Q 2619 4750 2861 4703 
Q 3103 4656 3366 4563 
z
" id="DejaVuSans-36" transform="scale(0.015625)"/>
      <path d="M 703 97 
L 703 672 
Q 941 559 1184 500 
Q 1428 441 1663 441 
Q 2288 441 2617 861 
Q 2947 1281 2994 2138 
Q 2813 1869 2534 1725 
Q 2256 1581 1919 1581 
Q 1219 1581 811 2004 
Q 403 2428 403 3163 
Q 403 3881 828 4315 
Q 1253 4750 1959 4750 
Q 2769 4750 3195 4129 
Q 3622 3509 3622 2328 
Q 3622 1225 3098 567 
Q 2575 -91 1691 -91 
Q 1453 -91 1209 -44 
Q 966 3 703 97 
z
M 1959 2075 
Q 2384 2075 2632 2365 
Q 2881 2656 2881 3163 
Q 2881 3666 2632 3958 
Q 2384 4250 1959 4250 
Q 1534 4250 1286 3958 
Q 1038 3666 1038 3163 
Q 1038 2656 1286 2365 
Q 1534 2075 1959 2075 
z
" id="DejaVuSans-39" transform="scale(0.015625)"/>
      <path d="M 800 -594 
L 1019 -594 
Q 1456 -594 1589 -459 
Q 1722 -325 1722 122 
L 1722 897 
Q 1722 1384 1862 1606 
Q 2003 1828 2350 1913 
Q 2003 1991 1862 2212 
Q 1722 2434 1722 2925 
L 1722 3700 
Q 1722 4144 1589 4280 
Q 1456 4416 1019 4416 
L 800 4416 
L 800 4863 
L 997 4863 
Q 1775 4863 2036 4633 
Q 2297 4403 2297 3713 
L 2297 2963 
Q 2297 2497 2465 2317 
Q 2634 2138 3078 2138 
L 3272 2138 
L 3272 1691 
L 3078 1691 
Q 2634 1691 2465 1509 
Q 2297 1328 2297 856 
L 2297 109 
Q 2297 -581 2036 -812 
Q 1775 -1044 997 -1044 
L 800 -1044 
L 800 -594 
z
" id="DejaVuSans-7d" transform="scale(0.015625)"/>
      <path d="M 750 794 
L 1409 794 
L 1409 256 
L 897 -744 
L 494 -744 
L 750 256 
L 750 794 
z
" id="DejaVuSans-2c" transform="scale(0.015625)"/>
      <path d="M 691 4666 
L 3169 4666 
L 3169 4134 
L 1269 4134 
L 1269 2991 
Q 1406 3038 1543 3061 
Q 1681 3084 1819 3084 
Q 2600 3084 3056 2656 
Q 3513 2228 3513 1497 
Q 3513 744 3044 326 
Q 2575 -91 1722 -91 
Q 1428 -91 1123 -41 
Q 819 9 494 109 
L 494 744 
Q 775 591 1075 516 
Q 1375 441 1709 441 
Q 2250 441 2565 725 
Q 2881 1009 2881 1497 
Q 2881 1984 2565 2268 
Q 2250 2553 1709 2553 
Q 1456 2553 1204 2497 
Q 953 2441 691 2322 
L 691 4666 
z
" id="DejaVuSans-35" transform="scale(0.015625)"/>
     </defs>
     <use xlink:href="#DejaVuSans-7b"/>
     <use x="63.623047" xlink:href="#DejaVuSans-66"/>
     <use x="98.828125" xlink:href="#DejaVuSans-36"/>
     <use x="162.451172" xlink:href="#DejaVuSans-2d"/>
     <use x="198.535156" xlink:href="#DejaVuSans-66"/>
     <use x="233.740234" xlink:href="#DejaVuSans-39"/>
     <use x="297.363281" xlink:href="#DejaVuSans-7d"/>
     <use x="360.986328" xlink:href="#DejaVuSans-2c"/>
     <use x="392.773438" xlink:href="#DejaVuSans-20"/>
     <use x="424.560547" xlink:href="#DejaVuSans-35"/>
     <use x="488.183594" xlink:href="#DejaVuSans-2d"/>
     <use x="524.267578" xlink:href="#DejaVuSans-44"/>
    </g>
   </g>
   <g id="text_7">
    <!-- v2.4 -->
    <g style="fill:#808080;" transform="translate(219.489063 288.777272)scale(0.1 -0.1)">
     <defs>
      <path d="M 191 3500 
L 800 3500 
L 1894 563 
L 2988 3500 
L 3597 3500 
L 2284 0 
L 1503 0 
L 191 3500 
z
" id="DejaVuSans-76" transform="scale(0.015625)"/>
      <path d="M 1228 531 
L 3431 531 
L 3431 0 
L 469 0 
L 469 531 
Q 828 903 1448 1529 
Q 2069 2156 2228 2338 
Q 2531 2678 2651 2914 
Q 2772 3150 2772 3378 
Q 2772 3750 2511 3984 
Q 2250 4219 1831 4219 
Q 1534 4219 1204 4116 
Q 875 4013 500 3803 
L 500 4441 
Q 881 4594 1212 4672 
Q 1544 4750 1819 4750 
Q 2544 4750 2975 4387 
Q 3406 4025 3406 3419 
Q 3406 3131 3298 2873 
Q 3191 2616 2906 2266 
Q 2828 2175 2409 1742 
Q 1991 1309 1228 531 
z
" id="DejaVuSans-32" transform="scale(0.015625)"/>
      <path d="M 684 794 
L 1344 794 
L 1344 0 
L 684 0 
L 684 794 
z
" id="DejaVuSans-2e" transform="scale(0.015625)"/>
     </defs>
     <use xlink:href="#DejaVuSans-76"/>
     <use x="59.179688" xlink:href="#DejaVuSans-32"/>
     <use x="122.802734" xlink:href="#DejaVuSans-2e"/>
     <use x="154.589844" xlink:href="#DejaVuSans-34"/>
    </g>
   </g>
  </g>
 </g>
 <defs>
  <clipPath id="p1562eacd7d">
   <rect height="290.304" width="460.8" x="0" y="3.456"/>
  </clipPath>
 </defs>
</svg>
