<?xml version="1.0" encoding="utf-8" standalone="no"?>
<!DOCTYPE svg PUBLIC "-//W3C//DTD SVG 1.1//EN"
  "http://www.w3.org/Graphics/SVG/1.1/DTD/svg11.dtd">
<svg height="345.6pt" version="1.1" viewBox="0 0 460.8 345.6" width="460.8pt" xmlns="http://www.w3.org/2000/svg" xmlns:xlink="http://www.w3.org/1999/xlink">
 <metadata>
  <rdf:RDF xmlns:cc="http://creativecommons.org/ns#" xmlns:dc="http://purl.org/dc/elements/1.1/" xmlns:rdf="http://www.w3.org/1999/02/22-rdf-syntax-ns#">
   <cc:Work>
    <dc:type rdf:resource="http://purl.org/dc/dcmitype/StillImage"/>
    <dc:date>2021-06-14T12:33:39.907191</dc:date>
    <dc:format>image/svg+xml</dc:format>
    <dc:creator>
     <cc:Agent>
      <dc:title>Matplotlib v3.4.2, https://matplotlib.org/</dc:title>
     </cc:Agent>
    </dc:creator>
   </cc:Work>
  </rdf:RDF>
 </metadata>
 <defs>
  <style type="text/css">*{stroke-linecap:butt;stroke-linejoin:round;}</style>
 </defs>
 <g id="figure_1">
  <g id="patch_1">
   <path d="M 0 345.6 
L 460.8 345.6 
L 460.8 0 
L 0 0 
z
" style="fill:#ffffff;"/>
  </g>
  <g id="axes_1">
   <g id="patch_2">
    <path d="M 0 293.76 
L 460.8 293.76 
L 460.8 3.456 
L 0 3.456 
z
" style="fill:#ffffff;"/>
   </g>
   <g id="matplotlib.axis_1">
    <g id="xtick_1">
     <g id="line2d_1">
      <path clip-path="url(#pa8463fd7c7)" d="M 109.321328 293.76 
L 109.321328 3.456 
" style="fill:none;stroke:#b0b0b0;stroke-linecap:square;stroke-width:0.8;"/>
     </g>
     <g id="line2d_2">
      <defs>
       <path d="M 0 0 
L 0 3.5 
" id="mbb7b21631b" style="stroke:#000000;stroke-width:0.8;"/>
      </defs>
      <g>
       <use style="stroke:#000000;stroke-width:0.8;" x="109.321328" xlink:href="#mbb7b21631b" y="293.76"/>
      </g>
     </g>
     <g id="text_1">
      <!-- -4 -->
      <g transform="translate(99.351016 315.956875)scale(0.2 -0.2)">
       <defs>
        <path d="M 313 2009 
L 1997 2009 
L 1997 1497 
L 313 1497 
L 313 2009 
z
" id="DejaVuSans-2d" transform="scale(0.015625)"/>
        <path d="M 2419 4116 
L 825 1625 
L 2419 1625 
L 2419 4116 
z
M 2253 4666 
L 3047 4666 
L 3047 1625 
L 3713 1625 
L 3713 1100 
L 3047 1100 
L 3047 0 
L 2419 0 
L 2419 1100 
L 313 1100 
L 313 1709 
L 2253 4666 
z
" id="DejaVuSans-34" transform="scale(0.015625)"/>
       </defs>
       <use xlink:href="#DejaVuSans-2d"/>
       <use x="36.083984" xlink:href="#DejaVuSans-34"/>
      </g>
     </g>
    </g>
    <g id="xtick_2">
     <g id="line2d_3">
      <path clip-path="url(#pa8463fd7c7)" d="M 218.760889 293.76 
L 218.760889 3.456 
" style="fill:none;stroke:#b0b0b0;stroke-linecap:square;stroke-width:0.8;"/>
     </g>
     <g id="line2d_4">
      <g>
       <use style="stroke:#000000;stroke-width:0.8;" x="218.760889" xlink:href="#mbb7b21631b" y="293.76"/>
      </g>
     </g>
     <g id="text_2">
      <!-- 0 -->
      <g transform="translate(212.398389 315.956875)scale(0.2 -0.2)">
       <defs>
        <path d="M 2034 4250 
Q 1547 4250 1301 3770 
Q 1056 3291 1056 2328 
Q 1056 1369 1301 889 
Q 1547 409 2034 409 
Q 2525 409 2770 889 
Q 3016 1369 3016 2328 
Q 3016 3291 2770 3770 
Q 2525 4250 2034 4250 
z
M 2034 4750 
Q 2819 4750 3233 4129 
Q 3647 3509 3647 2328 
Q 3647 1150 3233 529 
Q 2819 -91 2034 -91 
Q 1250 -91 836 529 
Q 422 1150 422 2328 
Q 422 3509 836 4129 
Q 1250 4750 2034 4750 
z
" id="DejaVuSans-30" transform="scale(0.015625)"/>
       </defs>
       <use xlink:href="#DejaVuSans-30"/>
      </g>
     </g>
    </g>
    <g id="xtick_3">
     <g id="line2d_5">
      <path clip-path="url(#pa8463fd7c7)" d="M 328.20045 293.76 
L 328.20045 3.456 
" style="fill:none;stroke:#b0b0b0;stroke-linecap:square;stroke-width:0.8;"/>
     </g>
     <g id="line2d_6">
      <g>
       <use style="stroke:#000000;stroke-width:0.8;" x="328.20045" xlink:href="#mbb7b21631b" y="293.76"/>
      </g>
     </g>
     <g id="text_3">
      <!-- 4 -->
      <g transform="translate(321.83795 315.956875)scale(0.2 -0.2)">
       <use xlink:href="#DejaVuSans-34"/>
      </g>
     </g>
    </g>
    <g id="xtick_4">
     <g id="line2d_7">
      <path clip-path="url(#pa8463fd7c7)" d="M 437.640011 293.76 
L 437.640011 3.456 
" style="fill:none;stroke:#b0b0b0;stroke-linecap:square;stroke-width:0.8;"/>
     </g>
     <g id="line2d_8">
      <g>
       <use style="stroke:#000000;stroke-width:0.8;" x="437.640011" xlink:href="#mbb7b21631b" y="293.76"/>
      </g>
     </g>
     <g id="text_4">
      <!-- 8 -->
      <g transform="translate(431.277511 315.956875)scale(0.2 -0.2)">
       <defs>
        <path d="M 2034 2216 
Q 1584 2216 1326 1975 
Q 1069 1734 1069 1313 
Q 1069 891 1326 650 
Q 1584 409 2034 409 
Q 2484 409 2743 651 
Q 3003 894 3003 1313 
Q 3003 1734 2745 1975 
Q 2488 2216 2034 2216 
z
M 1403 2484 
Q 997 2584 770 2862 
Q 544 3141 544 3541 
Q 544 4100 942 4425 
Q 1341 4750 2034 4750 
Q 2731 4750 3128 4425 
Q 3525 4100 3525 3541 
Q 3525 3141 3298 2862 
Q 3072 2584 2669 2484 
Q 3125 2378 3379 2068 
Q 3634 1759 3634 1313 
Q 3634 634 3220 271 
Q 2806 -91 2034 -91 
Q 1263 -91 848 271 
Q 434 634 434 1313 
Q 434 1759 690 2068 
Q 947 2378 1403 2484 
z
M 1172 3481 
Q 1172 3119 1398 2916 
Q 1625 2713 2034 2713 
Q 2441 2713 2670 2916 
Q 2900 3119 2900 3481 
Q 2900 3844 2670 4047 
Q 2441 4250 2034 4250 
Q 1625 4250 1398 4047 
Q 1172 3844 1172 3481 
z
" id="DejaVuSans-38" transform="scale(0.015625)"/>
       </defs>
       <use xlink:href="#DejaVuSans-38"/>
      </g>
     </g>
    </g>
    <g id="text_5">
     <!-- log10 of Df -->
     <g transform="translate(175.214063 339.313125)scale(0.2 -0.2)">
      <defs>
       <path d="M 603 4863 
L 1178 4863 
L 1178 0 
L 603 0 
L 603 4863 
z
" id="DejaVuSans-6c" transform="scale(0.015625)"/>
       <path d="M 1959 3097 
Q 1497 3097 1228 2736 
Q 959 2375 959 1747 
Q 959 1119 1226 758 
Q 1494 397 1959 397 
Q 2419 397 2687 759 
Q 2956 1122 2956 1747 
Q 2956 2369 2687 2733 
Q 2419 3097 1959 3097 
z
M 1959 3584 
Q 2709 3584 3137 3096 
Q 3566 2609 3566 1747 
Q 3566 888 3137 398 
Q 2709 -91 1959 -91 
Q 1206 -91 779 398 
Q 353 888 353 1747 
Q 353 2609 779 3096 
Q 1206 3584 1959 3584 
z
" id="DejaVuSans-6f" transform="scale(0.015625)"/>
       <path d="M 2906 1791 
Q 2906 2416 2648 2759 
Q 2391 3103 1925 3103 
Q 1463 3103 1205 2759 
Q 947 2416 947 1791 
Q 947 1169 1205 825 
Q 1463 481 1925 481 
Q 2391 481 2648 825 
Q 2906 1169 2906 1791 
z
M 3481 434 
Q 3481 -459 3084 -895 
Q 2688 -1331 1869 -1331 
Q 1566 -1331 1297 -1286 
Q 1028 -1241 775 -1147 
L 775 -588 
Q 1028 -725 1275 -790 
Q 1522 -856 1778 -856 
Q 2344 -856 2625 -561 
Q 2906 -266 2906 331 
L 2906 616 
Q 2728 306 2450 153 
Q 2172 0 1784 0 
Q 1141 0 747 490 
Q 353 981 353 1791 
Q 353 2603 747 3093 
Q 1141 3584 1784 3584 
Q 2172 3584 2450 3431 
Q 2728 3278 2906 2969 
L 2906 3500 
L 3481 3500 
L 3481 434 
z
" id="DejaVuSans-67" transform="scale(0.015625)"/>
       <path d="M 794 531 
L 1825 531 
L 1825 4091 
L 703 3866 
L 703 4441 
L 1819 4666 
L 2450 4666 
L 2450 531 
L 3481 531 
L 3481 0 
L 794 0 
L 794 531 
z
" id="DejaVuSans-31" transform="scale(0.015625)"/>
       <path id="DejaVuSans-20" transform="scale(0.015625)"/>
       <path d="M 2375 4863 
L 2375 4384 
L 1825 4384 
Q 1516 4384 1395 4259 
Q 1275 4134 1275 3809 
L 1275 3500 
L 2222 3500 
L 2222 3053 
L 1275 3053 
L 1275 0 
L 697 0 
L 697 3053 
L 147 3053 
L 147 3500 
L 697 3500 
L 697 3744 
Q 697 4328 969 4595 
Q 1241 4863 1831 4863 
L 2375 4863 
z
" id="DejaVuSans-66" transform="scale(0.015625)"/>
       <path d="M 1259 4147 
L 1259 519 
L 2022 519 
Q 2988 519 3436 956 
Q 3884 1394 3884 2338 
Q 3884 3275 3436 3711 
Q 2988 4147 2022 4147 
L 1259 4147 
z
M 628 4666 
L 1925 4666 
Q 3281 4666 3915 4102 
Q 4550 3538 4550 2338 
Q 4550 1131 3912 565 
Q 3275 0 1925 0 
L 628 0 
L 628 4666 
z
" id="DejaVuSans-44" transform="scale(0.015625)"/>
      </defs>
      <use xlink:href="#DejaVuSans-6c"/>
      <use x="27.783203" xlink:href="#DejaVuSans-6f"/>
      <use x="88.964844" xlink:href="#DejaVuSans-67"/>
      <use x="152.441406" xlink:href="#DejaVuSans-31"/>
      <use x="216.064453" xlink:href="#DejaVuSans-30"/>
      <use x="279.6875" xlink:href="#DejaVuSans-20"/>
      <use x="311.474609" xlink:href="#DejaVuSans-6f"/>
      <use x="372.65625" xlink:href="#DejaVuSans-66"/>
      <use x="407.861328" xlink:href="#DejaVuSans-20"/>
      <use x="439.648438" xlink:href="#DejaVuSans-44"/>
      <use x="516.650391" xlink:href="#DejaVuSans-66"/>
     </g>
    </g>
   </g>
   <g id="matplotlib.axis_2">
    <g id="ytick_1">
     <g id="line2d_9">
      <path clip-path="url(#pa8463fd7c7)" d="M 0 293.76 
L 460.8 293.76 
" style="fill:none;stroke:#b0b0b0;stroke-linecap:square;stroke-width:0.8;"/>
     </g>
     <g id="line2d_10">
      <defs>
       <path d="M 0 0 
L -3.5 0 
" id="mb17dbdc39e" style="stroke:#000000;stroke-width:0.8;"/>
      </defs>
      <g>
       <use style="stroke:#000000;stroke-width:0.8;" x="0" xlink:href="#mb17dbdc39e" y="293.76"/>
      </g>
     </g>
    </g>
    <g id="ytick_2">
     <g id="line2d_11">
      <path clip-path="url(#pa8463fd7c7)" d="M 0 236.274059 
L 460.8 236.274059 
" style="fill:none;stroke:#b0b0b0;stroke-linecap:square;stroke-width:0.8;"/>
     </g>
     <g id="line2d_12">
      <g>
       <use style="stroke:#000000;stroke-width:0.8;" x="0" xlink:href="#mb17dbdc39e" y="236.274059"/>
      </g>
     </g>
    </g>
    <g id="ytick_3">
     <g id="line2d_13">
      <path clip-path="url(#pa8463fd7c7)" d="M 0 178.788119 
L 460.8 178.788119 
" style="fill:none;stroke:#b0b0b0;stroke-linecap:square;stroke-width:0.8;"/>
     </g>
     <g id="line2d_14">
      <g>
       <use style="stroke:#000000;stroke-width:0.8;" x="0" xlink:href="#mb17dbdc39e" y="178.788119"/>
      </g>
     </g>
    </g>
    <g id="ytick_4">
     <g id="line2d_15">
      <path clip-path="url(#pa8463fd7c7)" d="M 0 121.302178 
L 460.8 121.302178 
" style="fill:none;stroke:#b0b0b0;stroke-linecap:square;stroke-width:0.8;"/>
     </g>
     <g id="line2d_16">
      <g>
       <use style="stroke:#000000;stroke-width:0.8;" x="0" xlink:href="#mb17dbdc39e" y="121.302178"/>
      </g>
     </g>
    </g>
    <g id="ytick_5">
     <g id="line2d_17">
      <path clip-path="url(#pa8463fd7c7)" d="M 0 63.816238 
L 460.8 63.816238 
" style="fill:none;stroke:#b0b0b0;stroke-linecap:square;stroke-width:0.8;"/>
     </g>
     <g id="line2d_18">
      <g>
       <use style="stroke:#000000;stroke-width:0.8;" x="0" xlink:href="#mb17dbdc39e" y="63.816238"/>
      </g>
     </g>
    </g>
    <g id="ytick_6">
     <g id="line2d_19">
      <path clip-path="url(#pa8463fd7c7)" d="M 0 6.330297 
L 460.8 6.330297 
" style="fill:none;stroke:#b0b0b0;stroke-linecap:square;stroke-width:0.8;"/>
     </g>
     <g id="line2d_20">
      <g>
       <use style="stroke:#000000;stroke-width:0.8;" x="0" xlink:href="#mb17dbdc39e" y="6.330297"/>
      </g>
     </g>
    </g>
   </g>
   <g id="line2d_21">
    <path clip-path="url(#pa8463fd7c7)" d="M 223.152335 293.76 
L 223.152335 289.927604 
L 224.332334 289.927604 
L 224.332334 286.095208 
L 224.936349 286.095208 
L 224.936349 282.262812 
L 226.154338 282.262812 
L 226.229145 274.59802 
L 226.382464 274.59802 
L 226.382464 270.765624 
L 226.57461 270.765624 
L 226.57461 266.933228 
L 227.534323 266.933228 
L 227.534323 263.100832 
L 228.771682 263.100832 
L 228.771682 259.268436 
L 229.65179 259.268436 
L 229.65179 255.43604 
L 229.894603 255.43604 
L 229.997239 247.771248 
L 230.530479 247.771248 
L 230.530479 243.938851 
L 230.745473 243.938851 
L 230.745473 240.106455 
L 231.395782 240.106455 
L 231.47918 228.609267 
L 232.083779 228.609267 
L 232.083779 224.776871 
L 232.965573 224.776871 
L 232.992643 217.112079 
L 233.163697 217.112079 
L 233.274174 205.614891 
L 233.739326 205.614891 
L 233.739326 201.782495 
L 234.311839 201.782495 
L 234.311839 197.950099 
L 234.794913 197.950099 
L 234.794913 194.117703 
L 234.950668 194.117703 
L 234.950668 190.285307 
L 235.4742 190.285307 
L 235.4742 186.452911 
L 235.674477 186.452911 
L 235.674477 182.620515 
L 237.081046 182.620515 
L 237.081046 178.788119 
L 237.502807 178.788119 
L 237.502807 174.955723 
L 239.188724 174.955723 
L 239.188724 171.123327 
L 241.049215 171.123327 
L 241.064334 163.458535 
L 241.334572 163.458535 
L 241.417957 155.793743 
L 241.446602 155.793743 
L 241.446602 151.961347 
L 241.746336 151.961347 
L 241.746336 148.12895 
L 241.989348 148.12895 
L 241.989348 144.296554 
L 242.624757 144.296554 
L 242.649126 136.631762 
L 242.973393 136.631762 
L 242.973393 132.799366 
L 243.804557 132.799366 
L 243.831561 125.134574 
L 243.94439 125.134574 
L 243.961696 117.469782 
L 245.485454 117.469782 
L 245.594687 109.80499 
L 245.60339 109.80499 
L 245.60339 105.972594 
L 246.473408 105.972594 
L 246.473408 102.140198 
L 247.002003 102.140198 
L 247.002003 98.307802 
L 247.213195 98.307802 
L 247.213195 94.475406 
L 249.313362 94.475406 
L 249.313362 90.64301 
L 249.778467 90.64301 
L 249.778467 86.810614 
L 250.294353 86.810614 
L 250.294353 82.978218 
L 250.425586 82.978218 
L 250.425586 79.145822 
L 250.67825 79.145822 
L 250.67825 75.313426 
L 251.23479 75.313426 
L 251.23479 71.48103 
L 251.540101 71.48103 
L 251.540101 67.648634 
L 252.667571 67.648634 
L 252.667571 63.816238 
L 256.719987 63.816238 
L 256.719987 59.983842 
L 261.1772 59.983842 
L 261.1772 56.151446 
L 262.772 56.151446 
L 262.772 52.31905 
L 263.244501 52.31905 
L 263.244501 48.486653 
L 263.385724 48.486653 
L 263.385724 44.654257 
L 264.297338 44.654257 
L 264.297338 40.821861 
L 264.476802 40.821861 
L 264.476802 36.989465 
L 265.20485 36.989465 
L 265.21001 29.324673 
L 265.887712 29.324673 
L 265.887712 25.492277 
L 266.289697 25.492277 
L 266.323824 17.827485 
L 266.960166 17.827485 
L 266.960166 13.995089 
L 269.02254 13.995089 
L 269.02254 10.162693 
L 270.389757 10.162693 
L 270.389757 6.330297 
L 270.389757 6.330297 
L 460.8 6.330297 
L 460.8 6.330297 
" style="fill:none;stroke:#ff0000;stroke-linecap:square;stroke-width:3;"/>
   </g>
   <g id="line2d_22">
    <path clip-path="url(#pa8463fd7c7)" d="M 233.498959 293.76 
L 233.498959 289.927604 
L 237.354326 289.927604 
L 237.354326 286.095208 
L 239.901211 286.095208 
L 239.901211 282.262812 
L 240.582831 282.262812 
L 240.582831 278.430416 
L 240.929757 278.430416 
L 240.929757 274.59802 
L 241.161794 274.59802 
L 241.161794 270.765624 
L 241.932319 270.765624 
L 241.932319 266.933228 
L 243.507309 266.933228 
L 243.507309 263.100832 
L 243.645026 263.100832 
L 243.645026 259.268436 
L 243.971181 259.268436 
L 243.971181 255.43604 
L 244.313587 255.43604 
L 244.313587 251.603644 
L 244.910836 251.603644 
L 244.910836 247.771248 
L 245.84451 247.771248 
L 245.84451 243.938851 
L 246.486463 243.938851 
L 246.486463 240.106455 
L 246.608093 240.106455 
L 246.608093 236.274059 
L 247.210104 236.274059 
L 247.210104 232.441663 
L 247.352703 232.441663 
L 247.398572 224.776871 
L 248.141922 224.776871 
L 248.141922 220.944475 
L 248.423762 220.944475 
L 248.423762 217.112079 
L 249.474395 217.112079 
L 249.474395 213.279683 
L 249.711885 213.279683 
L 249.711885 209.447287 
L 250.773322 209.447287 
L 250.861609 201.782495 
L 251.146483 201.782495 
L 251.233021 194.117703 
L 252.715463 194.117703 
L 252.715463 190.285307 
L 252.889862 190.285307 
L 252.889862 186.452911 
L 254.750412 186.452911 
L 254.750412 182.620515 
L 255.743571 182.620515 
L 255.743571 178.788119 
L 257.477067 178.788119 
L 257.477067 174.955723 
L 258.125352 174.955723 
L 258.125352 171.123327 
L 259.434839 171.123327 
L 259.434839 167.290931 
L 259.936355 167.290931 
L 259.936355 163.458535 
L 260.481772 163.458535 
L 260.481772 159.626139 
L 263.351858 159.626139 
L 263.351858 155.793743 
L 264.605816 155.793743 
L 264.605816 151.961347 
L 265.63115 151.961347 
L 265.69965 144.296554 
L 266.167773 144.296554 
L 266.167773 140.464158 
L 266.618357 140.464158 
L 266.664362 132.799366 
L 266.914815 132.799366 
L 266.918176 125.134574 
L 267.700857 125.134574 
L 267.702687 117.469782 
L 268.077549 117.469782 
L 268.077549 113.637386 
L 268.765049 113.637386 
L 268.835778 105.972594 
L 269.098736 105.972594 
L 269.098736 102.140198 
L 269.23107 102.140198 
L 269.23107 98.307802 
L 269.615292 98.307802 
L 269.615292 94.475406 
L 270.264902 94.475406 
L 270.264902 90.64301 
L 270.590791 90.64301 
L 270.677911 82.978218 
L 271.380184 82.978218 
L 271.474443 75.313426 
L 272.105668 75.313426 
L 272.105668 71.48103 
L 273.014972 71.48103 
L 273.014972 67.648634 
L 273.333304 67.648634 
L 273.333304 63.816238 
L 274.567579 63.816238 
L 274.618365 56.151446 
L 274.915487 56.151446 
L 274.915487 52.31905 
L 275.424777 52.31905 
L 275.424777 48.486653 
L 277.233781 48.486653 
L 277.307113 40.821861 
L 277.588353 40.821861 
L 277.631855 33.157069 
L 277.721862 33.157069 
L 277.721862 29.324673 
L 279.644798 29.324673 
L 279.644798 25.492277 
L 280.377234 25.492277 
L 280.377234 21.659881 
L 280.873682 21.659881 
L 280.873682 17.827485 
L 281.782821 17.827485 
L 281.782821 13.995089 
L 287.412221 13.995089 
L 287.412221 10.162693 
L 294.638304 10.162693 
L 294.638304 6.330297 
L 294.638304 6.330297 
L 460.8 6.330297 
L 460.8 6.330297 
" style="fill:none;stroke:#00bfbf;stroke-linecap:square;stroke-width:1.5;"/>
   </g>
   <g id="line2d_23">
    <path clip-path="url(#pa8463fd7c7)" d="M 227.534323 293.76 
L 227.534323 289.927604 
L 228.294466 289.927604 
L 228.294466 286.095208 
L 230.189439 286.095208 
L 230.189439 282.262812 
L 232.965573 282.262812 
L 232.965573 278.430416 
L 233.498959 278.430416 
L 233.498959 274.59802 
L 233.739326 274.59802 
L 233.739326 270.765624 
L 235.146653 270.765624 
L 235.146653 266.933228 
L 236.812057 266.933228 
L 236.812057 263.100832 
L 237.472197 263.100832 
L 237.472197 259.268436 
L 239.901211 259.268436 
L 239.901211 255.43604 
L 240.402654 255.43604 
L 240.402654 251.603644 
L 241.024483 251.603644 
L 241.024483 247.771248 
L 241.161794 247.771248 
L 241.161794 243.938851 
L 241.932319 243.938851 
L 241.932319 240.106455 
L 242.41989 240.106455 
L 242.41989 236.274059 
L 243.313005 236.274059 
L 243.313005 232.441663 
L 243.971181 232.441663 
L 243.971181 228.609267 
L 244.757671 228.609267 
L 244.757671 224.776871 
L 244.910836 224.776871 
L 244.910836 220.944475 
L 245.066806 220.944475 
L 245.066806 217.112079 
L 245.464083 217.112079 
L 245.464083 213.279683 
L 246.486463 213.279683 
L 246.486463 209.447287 
L 246.608093 209.447287 
L 246.608093 205.614891 
L 247.350206 205.614891 
L 247.398572 197.950099 
L 248.516009 197.950099 
L 248.516009 194.117703 
L 249.474395 194.117703 
L 249.474395 190.285307 
L 250.899307 190.285307 
L 250.899307 186.452911 
L 252.715463 186.452911 
L 252.715463 182.620515 
L 253.098442 182.620515 
L 253.098442 178.788119 
L 254.739695 178.788119 
L 254.750412 171.123327 
L 255.743571 171.123327 
L 255.743571 167.290931 
L 256.1066 167.290931 
L 256.1066 163.458535 
L 256.271238 163.458535 
L 256.271238 159.626139 
L 256.722542 159.626139 
L 256.812618 151.961347 
L 256.866796 151.961347 
L 256.866796 148.12895 
L 257.035844 148.12895 
L 257.035844 144.296554 
L 258.125352 144.296554 
L 258.125352 140.464158 
L 258.676963 140.464158 
L 258.676963 136.631762 
L 261.512811 136.631762 
L 261.527651 128.96697 
L 261.837077 128.96697 
L 261.837077 125.134574 
L 263.351858 125.134574 
L 263.351858 121.302178 
L 263.721353 121.302178 
L 263.721353 117.469782 
L 264.216603 117.469782 
L 264.216603 113.637386 
L 265.220885 113.637386 
L 265.220885 109.80499 
L 265.896166 109.80499 
L 265.896166 105.972594 
L 267.834873 105.972594 
L 267.834873 102.140198 
L 268.012605 102.140198 
L 268.077549 90.64301 
L 268.757223 90.64301 
L 268.757223 86.810614 
L 268.962491 86.810614 
L 268.962491 82.978218 
L 269.23107 82.978218 
L 269.23107 79.145822 
L 269.706412 79.145822 
L 269.706412 75.313426 
L 270.07231 75.313426 
L 270.07231 71.48103 
L 270.995965 71.48103 
L 270.995965 67.648634 
L 271.282601 67.648634 
L 271.282601 63.816238 
L 271.970469 63.816238 
L 272.037285 56.151446 
L 272.219219 56.151446 
L 272.219219 52.31905 
L 273.014972 52.31905 
L 273.014972 48.486653 
L 273.65639 48.486653 
L 273.65639 44.654257 
L 274.567579 44.654257 
L 274.567579 40.821861 
L 274.725167 40.821861 
L 274.725167 36.989465 
L 275.629699 36.989465 
L 275.629699 33.157069 
L 276.054751 33.157069 
L 276.054751 29.324673 
L 276.256061 29.324673 
L 276.256061 25.492277 
L 277.233781 25.492277 
L 277.233781 21.659881 
L 277.479953 21.659881 
L 277.479953 17.827485 
L 280.165296 17.827485 
L 280.165296 13.995089 
L 280.873682 13.995089 
L 280.873682 10.162693 
L 284.461725 10.162693 
L 284.461725 6.330297 
L 284.461725 6.330297 
L 460.8 6.330297 
L 460.8 6.330297 
" style="fill:none;stroke:#bf00bf;stroke-linecap:square;stroke-width:1.5;"/>
   </g>
   <g id="line2d_24">
    <path clip-path="url(#pa8463fd7c7)" d="M 227.534323 293.76 
L 227.534323 289.927604 
L 228.294466 289.927604 
L 228.294466 286.095208 
L 230.189439 286.095208 
L 230.189439 282.262812 
L 232.965573 282.262812 
L 232.965573 278.430416 
L 233.498959 278.430416 
L 233.498959 274.59802 
L 233.739326 274.59802 
L 233.739326 270.765624 
L 235.146653 270.765624 
L 235.146653 266.933228 
L 236.275762 266.933228 
L 236.275762 263.100832 
L 236.812057 263.100832 
L 236.861524 255.43604 
L 239.304728 255.43604 
L 239.304728 251.603644 
L 239.901211 251.603644 
L 239.901211 247.771248 
L 240.402654 247.771248 
L 240.402654 243.938851 
L 241.024483 243.938851 
L 241.024483 240.106455 
L 241.161794 240.106455 
L 241.161794 236.274059 
L 241.87216 236.274059 
L 241.87216 232.441663 
L 242.41989 232.441663 
L 242.41989 228.609267 
L 243.313005 228.609267 
L 243.313005 224.776871 
L 243.971181 224.776871 
L 243.971181 220.944475 
L 244.910836 220.944475 
L 244.910836 217.112079 
L 245.066806 217.112079 
L 245.066806 213.279683 
L 245.464083 213.279683 
L 245.464083 209.447287 
L 246.03723 209.447287 
L 246.03723 205.614891 
L 246.486463 205.614891 
L 246.486463 201.782495 
L 246.608093 201.782495 
L 246.608093 197.950099 
L 247.398572 197.950099 
L 247.398572 194.117703 
L 247.527367 194.117703 
L 247.527367 190.285307 
L 248.516009 190.285307 
L 248.516009 186.452911 
L 248.947693 186.452911 
L 248.947693 182.620515 
L 249.201244 182.620515 
L 249.201244 178.788119 
L 249.474395 178.788119 
L 249.474395 174.955723 
L 250.682915 174.955723 
L 250.682915 171.123327 
L 250.899307 171.123327 
L 250.899307 167.290931 
L 251.485345 167.290931 
L 251.591678 155.793743 
L 251.855324 155.793743 
L 251.855324 151.961347 
L 252.715463 151.961347 
L 252.715463 148.12895 
L 253.368901 148.12895 
L 253.368901 144.296554 
L 254.428877 144.296554 
L 254.428877 140.464158 
L 255.743571 140.464158 
L 255.743571 136.631762 
L 256.1066 136.631762 
L 256.1066 132.799366 
L 256.356134 132.799366 
L 256.356134 128.96697 
L 256.577462 128.96697 
L 256.577462 125.134574 
L 257.035844 125.134574 
L 257.035844 121.302178 
L 257.736251 121.302178 
L 257.736251 117.469782 
L 257.95469 117.469782 
L 257.95469 113.637386 
L 258.125352 113.637386 
L 258.147348 105.972594 
L 258.676963 105.972594 
L 258.676963 102.140198 
L 259.801633 102.140198 
L 259.801633 98.307802 
L 263.489471 98.307802 
L 263.489471 94.475406 
L 265.220885 94.475406 
L 265.220885 90.64301 
L 265.610636 90.64301 
L 265.610636 86.810614 
L 265.821393 86.810614 
L 265.821393 82.978218 
L 266.359827 82.978218 
L 266.359827 79.145822 
L 267.693487 79.145822 
L 267.693487 75.313426 
L 268.012605 75.313426 
L 268.077549 67.648634 
L 269.037475 67.648634 
L 269.037475 63.816238 
L 271.117494 63.816238 
L 271.117494 59.983842 
L 271.282601 59.983842 
L 271.282601 56.151446 
L 271.970469 56.151446 
L 272.037285 48.486653 
L 272.219219 48.486653 
L 272.219219 44.654257 
L 273.217607 44.654257 
L 273.217607 40.821861 
L 274.081243 40.821861 
L 274.081243 36.989465 
L 274.567579 36.989465 
L 274.567579 33.157069 
L 275.623392 33.157069 
L 275.629699 25.492277 
L 276.054751 25.492277 
L 276.054751 21.659881 
L 276.256061 21.659881 
L 276.256061 17.827485 
L 277.035389 17.827485 
L 277.035389 13.995089 
L 280.165296 13.995089 
L 280.165296 10.162693 
L 282.269527 10.162693 
L 282.269527 6.330297 
L 282.269527 6.330297 
L 460.8 6.330297 
L 460.8 6.330297 
" style="fill:none;stroke:#000000;stroke-linecap:square;stroke-width:1.5;"/>
   </g>
   <g id="line2d_25">
    <path clip-path="url(#pa8463fd7c7)" d="M 227.534323 293.76 
L 227.534323 289.927604 
L 228.294466 289.927604 
L 228.294466 286.095208 
L 229.621495 286.095208 
L 229.65179 278.430416 
L 230.189439 278.430416 
L 230.189439 274.59802 
L 231.199119 274.59802 
L 231.199119 270.765624 
L 231.395782 270.765624 
L 231.440797 263.100832 
L 232.965573 263.100832 
L 232.965573 259.268436 
L 233.498959 259.268436 
L 233.498959 255.43604 
L 233.739326 255.43604 
L 233.739326 251.603644 
L 234.713027 251.603644 
L 234.713027 247.771248 
L 235.738633 247.771248 
L 235.738633 243.938851 
L 236.572855 243.938851 
L 236.572855 240.106455 
L 237.60505 240.106455 
L 237.60505 236.274059 
L 238.457871 236.274059 
L 238.457871 232.441663 
L 238.824995 232.441663 
L 238.824995 228.609267 
L 239.161118 228.609267 
L 239.228468 220.944475 
L 240.190979 220.944475 
L 240.190979 217.112079 
L 240.678978 217.112079 
L 240.678978 213.279683 
L 241.161794 213.279683 
L 241.192068 205.614891 
L 242.190347 205.614891 
L 242.190347 201.782495 
L 242.41989 201.782495 
L 242.41989 197.950099 
L 242.649126 197.950099 
L 242.649126 194.117703 
L 242.920398 194.117703 
L 242.920398 190.285307 
L 243.971181 190.285307 
L 243.971181 186.452911 
L 244.309182 186.452911 
L 244.309182 182.620515 
L 244.802766 182.620515 
L 244.802766 178.788119 
L 245.093358 178.788119 
L 245.093358 174.955723 
L 246.03723 174.955723 
L 246.03723 171.123327 
L 246.473408 171.123327 
L 246.473408 167.290931 
L 247.002003 167.290931 
L 247.002003 163.458535 
L 247.162727 163.458535 
L 247.162727 159.626139 
L 247.398572 159.626139 
L 247.398572 155.793743 
L 247.527367 155.793743 
L 247.527367 151.961347 
L 248.717057 151.961347 
L 248.717057 148.12895 
L 248.947693 148.12895 
L 248.947693 144.296554 
L 249.201244 144.296554 
L 249.201244 140.464158 
L 251.485345 140.464158 
L 251.485345 136.631762 
L 251.699585 136.631762 
L 251.699585 132.799366 
L 251.855324 132.799366 
L 251.855324 128.96697 
L 252.121536 128.96697 
L 252.121536 125.134574 
L 253.553139 125.134574 
L 253.553139 121.302178 
L 254.071355 121.302178 
L 254.071355 117.469782 
L 254.372842 117.469782 
L 254.408623 109.80499 
L 254.605437 109.80499 
L 254.605437 105.972594 
L 255.56557 105.972594 
L 255.56557 102.140198 
L 255.946316 102.140198 
L 255.946316 98.307802 
L 256.356134 98.307802 
L 256.356134 94.475406 
L 256.642704 94.475406 
L 256.642704 90.64301 
L 257.281529 90.64301 
L 257.281529 86.810614 
L 257.736251 86.810614 
L 257.79954 79.145822 
L 257.95469 79.145822 
L 257.95469 75.313426 
L 258.147348 75.313426 
L 258.147348 71.48103 
L 260.958683 71.48103 
L 260.958683 67.648634 
L 265.821393 67.648634 
L 265.821393 63.816238 
L 267.079543 63.816238 
L 267.079543 59.983842 
L 267.624808 59.983842 
L 267.637274 52.31905 
L 269.037475 52.31905 
L 269.037475 48.486653 
L 269.642689 48.486653 
L 269.642689 44.654257 
L 271.117494 44.654257 
L 271.117494 40.821861 
L 272.823053 40.821861 
L 272.823053 36.989465 
L 273.16825 36.989465 
L 273.16825 33.157069 
L 273.406132 33.157069 
L 273.406132 29.324673 
L 273.897005 29.324673 
L 273.897005 25.492277 
L 274.081243 25.492277 
L 274.161003 17.827485 
L 275.629699 17.827485 
L 275.629699 13.995089 
L 275.764329 13.995089 
L 275.764329 10.162693 
L 278.998071 10.162693 
L 278.998071 6.330297 
L 278.998071 6.330297 
L 460.8 6.330297 
L 460.8 6.330297 
" style="fill:none;stroke:#00bfbf;stroke-linecap:square;stroke-width:1.5;"/>
   </g>
   <g id="line2d_26">
    <path clip-path="url(#pa8463fd7c7)" d="M 223.152335 293.76 
L 223.152335 289.927604 
L 224.332334 289.927604 
L 224.332334 286.095208 
L 224.936349 286.095208 
L 224.936349 282.262812 
L 226.154338 282.262812 
L 226.229145 274.59802 
L 226.382464 274.59802 
L 226.382464 270.765624 
L 226.57461 270.765624 
L 226.57461 266.933228 
L 227.534323 266.933228 
L 227.534323 263.100832 
L 228.771682 263.100832 
L 228.771682 259.268436 
L 229.65179 259.268436 
L 229.65179 255.43604 
L 229.894603 255.43604 
L 229.997239 247.771248 
L 230.530479 247.771248 
L 230.530479 243.938851 
L 230.745473 243.938851 
L 230.745473 240.106455 
L 231.395782 240.106455 
L 231.47918 228.609267 
L 232.083779 228.609267 
L 232.083779 224.776871 
L 232.965573 224.776871 
L 232.992643 217.112079 
L 233.163697 217.112079 
L 233.274174 205.614891 
L 233.739326 205.614891 
L 233.739326 201.782495 
L 234.311839 201.782495 
L 234.311839 197.950099 
L 234.794913 197.950099 
L 234.794913 194.117703 
L 234.950668 194.117703 
L 234.950668 190.285307 
L 235.4742 190.285307 
L 235.4742 186.452911 
L 235.674477 186.452911 
L 235.674477 182.620515 
L 237.081046 182.620515 
L 237.081046 178.788119 
L 237.502807 178.788119 
L 237.502807 174.955723 
L 239.188724 174.955723 
L 239.188724 171.123327 
L 241.049215 171.123327 
L 241.064334 163.458535 
L 241.334572 163.458535 
L 241.417957 155.793743 
L 241.446602 155.793743 
L 241.446602 151.961347 
L 241.746336 151.961347 
L 241.746336 148.12895 
L 241.989348 148.12895 
L 241.989348 144.296554 
L 242.624757 144.296554 
L 242.649126 136.631762 
L 242.973393 136.631762 
L 242.973393 132.799366 
L 243.804557 132.799366 
L 243.831561 125.134574 
L 243.94439 125.134574 
L 243.961696 117.469782 
L 245.485454 117.469782 
L 245.594687 109.80499 
L 245.60339 109.80499 
L 245.60339 105.972594 
L 246.473408 105.972594 
L 246.473408 102.140198 
L 247.002003 102.140198 
L 247.002003 98.307802 
L 247.213195 98.307802 
L 247.213195 94.475406 
L 249.313362 94.475406 
L 249.313362 90.64301 
L 249.778467 90.64301 
L 249.778467 86.810614 
L 250.294353 86.810614 
L 250.294353 82.978218 
L 250.425586 82.978218 
L 250.425586 79.145822 
L 250.67825 79.145822 
L 250.67825 75.313426 
L 251.23479 75.313426 
L 251.23479 71.48103 
L 251.540101 71.48103 
L 251.540101 67.648634 
L 254.945076 67.648634 
L 254.945076 63.816238 
L 256.719987 63.816238 
L 256.719987 59.983842 
L 261.1772 59.983842 
L 261.1772 56.151446 
L 262.772 56.151446 
L 262.772 52.31905 
L 263.244501 52.31905 
L 263.244501 48.486653 
L 263.385724 48.486653 
L 263.385724 44.654257 
L 264.297338 44.654257 
L 264.297338 40.821861 
L 264.476802 40.821861 
L 264.476802 36.989465 
L 265.20485 36.989465 
L 265.21001 29.324673 
L 265.887712 29.324673 
L 265.887712 25.492277 
L 266.289697 25.492277 
L 266.323824 17.827485 
L 266.960166 17.827485 
L 266.960166 13.995089 
L 269.02254 13.995089 
L 269.02254 10.162693 
L 270.389757 10.162693 
L 270.389757 6.330297 
L 270.389757 6.330297 
L 460.8 6.330297 
L 460.8 6.330297 
" style="fill:none;stroke:#bf00bf;stroke-linecap:square;stroke-width:1.5;"/>
   </g>
   <g id="patch_3">
    <path d="M 0 293.76 
L 0 3.456 
" style="fill:none;stroke:#000000;stroke-linecap:square;stroke-linejoin:miter;stroke-width:0.8;"/>
   </g>
   <g id="patch_4">
    <path d="M 460.8 293.76 
L 460.8 3.456 
" style="fill:none;stroke:#000000;stroke-linecap:square;stroke-linejoin:miter;stroke-width:0.8;"/>
   </g>
   <g id="patch_5">
    <path d="M 0 293.76 
L 460.8 293.76 
" style="fill:none;stroke:#000000;stroke-linecap:square;stroke-linejoin:miter;stroke-width:0.8;"/>
   </g>
   <g id="patch_6">
    <path d="M 0 3.456 
L 460.8 3.456 
" style="fill:none;stroke:#000000;stroke-linecap:square;stroke-linejoin:miter;stroke-width:0.8;"/>
   </g>
   <g id="text_6">
    <!-- {f15-f19}, 5-D -->
    <g transform="translate(305.884 287.95392)scale(0.2 -0.2)">
     <defs>
      <path d="M 3272 -594 
L 3272 -1044 
L 3078 -1044 
Q 2300 -1044 2036 -812 
Q 1772 -581 1772 109 
L 1772 856 
Q 1772 1328 1603 1509 
Q 1434 1691 991 1691 
L 800 1691 
L 800 2138 
L 991 2138 
Q 1438 2138 1605 2317 
Q 1772 2497 1772 2963 
L 1772 3713 
Q 1772 4403 2036 4633 
Q 2300 4863 3078 4863 
L 3272 4863 
L 3272 4416 
L 3059 4416 
Q 2619 4416 2484 4278 
Q 2350 4141 2350 3700 
L 2350 2925 
Q 2350 2434 2208 2212 
Q 2066 1991 1722 1913 
Q 2069 1828 2209 1606 
Q 2350 1384 2350 897 
L 2350 122 
Q 2350 -319 2484 -456 
Q 2619 -594 3059 -594 
L 3272 -594 
z
" id="DejaVuSans-7b" transform="scale(0.015625)"/>
      <path d="M 691 4666 
L 3169 4666 
L 3169 4134 
L 1269 4134 
L 1269 2991 
Q 1406 3038 1543 3061 
Q 1681 3084 1819 3084 
Q 2600 3084 3056 2656 
Q 3513 2228 3513 1497 
Q 3513 744 3044 326 
Q 2575 -91 1722 -91 
Q 1428 -91 1123 -41 
Q 819 9 494 109 
L 494 744 
Q 775 591 1075 516 
Q 1375 441 1709 441 
Q 2250 441 2565 725 
Q 2881 1009 2881 1497 
Q 2881 1984 2565 2268 
Q 2250 2553 1709 2553 
Q 1456 2553 1204 2497 
Q 953 2441 691 2322 
L 691 4666 
z
" id="DejaVuSans-35" transform="scale(0.015625)"/>
      <path d="M 703 97 
L 703 672 
Q 941 559 1184 500 
Q 1428 441 1663 441 
Q 2288 441 2617 861 
Q 2947 1281 2994 2138 
Q 2813 1869 2534 1725 
Q 2256 1581 1919 1581 
Q 1219 1581 811 2004 
Q 403 2428 403 3163 
Q 403 3881 828 4315 
Q 1253 4750 1959 4750 
Q 2769 4750 3195 4129 
Q 3622 3509 3622 2328 
Q 3622 1225 3098 567 
Q 2575 -91 1691 -91 
Q 1453 -91 1209 -44 
Q 966 3 703 97 
z
M 1959 2075 
Q 2384 2075 2632 2365 
Q 2881 2656 2881 3163 
Q 2881 3666 2632 3958 
Q 2384 4250 1959 4250 
Q 1534 4250 1286 3958 
Q 1038 3666 1038 3163 
Q 1038 2656 1286 2365 
Q 1534 2075 1959 2075 
z
" id="DejaVuSans-39" transform="scale(0.015625)"/>
      <path d="M 800 -594 
L 1019 -594 
Q 1456 -594 1589 -459 
Q 1722 -325 1722 122 
L 1722 897 
Q 1722 1384 1862 1606 
Q 2003 1828 2350 1913 
Q 2003 1991 1862 2212 
Q 1722 2434 1722 2925 
L 1722 3700 
Q 1722 4144 1589 4280 
Q 1456 4416 1019 4416 
L 800 4416 
L 800 4863 
L 997 4863 
Q 1775 4863 2036 4633 
Q 2297 4403 2297 3713 
L 2297 2963 
Q 2297 2497 2465 2317 
Q 2634 2138 3078 2138 
L 3272 2138 
L 3272 1691 
L 3078 1691 
Q 2634 1691 2465 1509 
Q 2297 1328 2297 856 
L 2297 109 
Q 2297 -581 2036 -812 
Q 1775 -1044 997 -1044 
L 800 -1044 
L 800 -594 
z
" id="DejaVuSans-7d" transform="scale(0.015625)"/>
      <path d="M 750 794 
L 1409 794 
L 1409 256 
L 897 -744 
L 494 -744 
L 750 256 
L 750 794 
z
" id="DejaVuSans-2c" transform="scale(0.015625)"/>
     </defs>
     <use xlink:href="#DejaVuSans-7b"/>
     <use x="63.623047" xlink:href="#DejaVuSans-66"/>
     <use x="98.828125" xlink:href="#DejaVuSans-31"/>
     <use x="162.451172" xlink:href="#DejaVuSans-35"/>
     <use x="226.074219" xlink:href="#DejaVuSans-2d"/>
     <use x="262.158203" xlink:href="#DejaVuSans-66"/>
     <use x="297.363281" xlink:href="#DejaVuSans-31"/>
     <use x="360.986328" xlink:href="#DejaVuSans-39"/>
     <use x="424.609375" xlink:href="#DejaVuSans-7d"/>
     <use x="488.232422" xlink:href="#DejaVuSans-2c"/>
     <use x="520.019531" xlink:href="#DejaVuSans-20"/>
     <use x="551.806641" xlink:href="#DejaVuSans-35"/>
     <use x="615.429688" xlink:href="#DejaVuSans-2d"/>
     <use x="651.513672" xlink:href="#DejaVuSans-44"/>
    </g>
   </g>
   <g id="text_7">
    <!-- v2.4 -->
    <g style="fill:#808080;" transform="translate(219.489063 288.777272)scale(0.1 -0.1)">
     <defs>
      <path d="M 191 3500 
L 800 3500 
L 1894 563 
L 2988 3500 
L 3597 3500 
L 2284 0 
L 1503 0 
L 191 3500 
z
" id="DejaVuSans-76" transform="scale(0.015625)"/>
      <path d="M 1228 531 
L 3431 531 
L 3431 0 
L 469 0 
L 469 531 
Q 828 903 1448 1529 
Q 2069 2156 2228 2338 
Q 2531 2678 2651 2914 
Q 2772 3150 2772 3378 
Q 2772 3750 2511 3984 
Q 2250 4219 1831 4219 
Q 1534 4219 1204 4116 
Q 875 4013 500 3803 
L 500 4441 
Q 881 4594 1212 4672 
Q 1544 4750 1819 4750 
Q 2544 4750 2975 4387 
Q 3406 4025 3406 3419 
Q 3406 3131 3298 2873 
Q 3191 2616 2906 2266 
Q 2828 2175 2409 1742 
Q 1991 1309 1228 531 
z
" id="DejaVuSans-32" transform="scale(0.015625)"/>
      <path d="M 684 794 
L 1344 794 
L 1344 0 
L 684 0 
L 684 794 
z
" id="DejaVuSans-2e" transform="scale(0.015625)"/>
     </defs>
     <use xlink:href="#DejaVuSans-76"/>
     <use x="59.179688" xlink:href="#DejaVuSans-32"/>
     <use x="122.802734" xlink:href="#DejaVuSans-2e"/>
     <use x="154.589844" xlink:href="#DejaVuSans-34"/>
    </g>
   </g>
  </g>
 </g>
 <defs>
  <clipPath id="pa8463fd7c7">
   <rect height="290.304" width="460.8" x="0" y="3.456"/>
  </clipPath>
 </defs>
</svg>
