<?xml version="1.0" encoding="utf-8" standalone="no"?>
<!DOCTYPE svg PUBLIC "-//W3C//DTD SVG 1.1//EN"
  "http://www.w3.org/Graphics/SVG/1.1/DTD/svg11.dtd">
<svg height="345.6pt" version="1.1" viewBox="0 0 460.8 345.6" width="460.8pt" xmlns="http://www.w3.org/2000/svg" xmlns:xlink="http://www.w3.org/1999/xlink">
 <metadata>
  <rdf:RDF xmlns:cc="http://creativecommons.org/ns#" xmlns:dc="http://purl.org/dc/elements/1.1/" xmlns:rdf="http://www.w3.org/1999/02/22-rdf-syntax-ns#">
   <cc:Work>
    <dc:type rdf:resource="http://purl.org/dc/dcmitype/StillImage"/>
    <dc:date>2021-06-14T12:33:41.572399</dc:date>
    <dc:format>image/svg+xml</dc:format>
    <dc:creator>
     <cc:Agent>
      <dc:title>Matplotlib v3.4.2, https://matplotlib.org/</dc:title>
     </cc:Agent>
    </dc:creator>
   </cc:Work>
  </rdf:RDF>
 </metadata>
 <defs>
  <style type="text/css">*{stroke-linecap:butt;stroke-linejoin:round;}</style>
 </defs>
 <g id="figure_1">
  <g id="patch_1">
   <path d="M 0 345.6 
L 460.8 345.6 
L 460.8 0 
L 0 0 
z
" style="fill:#ffffff;"/>
  </g>
  <g id="axes_1">
   <g id="patch_2">
    <path d="M 0 293.76 
L 460.8 293.76 
L 460.8 3.456 
L 0 3.456 
z
" style="fill:#ffffff;"/>
   </g>
   <g id="matplotlib.axis_1">
    <g id="xtick_1">
     <g id="line2d_1">
      <path clip-path="url(#p03c530017b)" d="M 108.745186 293.76 
L 108.745186 3.456 
" style="fill:none;stroke:#b0b0b0;stroke-linecap:square;stroke-width:0.8;"/>
     </g>
     <g id="line2d_2">
      <defs>
       <path d="M 0 0 
L 0 3.5 
" id="m9d8510e2eb" style="stroke:#000000;stroke-width:0.8;"/>
      </defs>
      <g>
       <use style="stroke:#000000;stroke-width:0.8;" x="108.745186" xlink:href="#m9d8510e2eb" y="293.76"/>
      </g>
     </g>
     <g id="text_1">
      <!-- -4 -->
      <g transform="translate(98.774873 315.956875)scale(0.2 -0.2)">
       <defs>
        <path d="M 313 2009 
L 1997 2009 
L 1997 1497 
L 313 1497 
L 313 2009 
z
" id="DejaVuSans-2d" transform="scale(0.015625)"/>
        <path d="M 2419 4116 
L 825 1625 
L 2419 1625 
L 2419 4116 
z
M 2253 4666 
L 3047 4666 
L 3047 1625 
L 3713 1625 
L 3713 1100 
L 3047 1100 
L 3047 0 
L 2419 0 
L 2419 1100 
L 313 1100 
L 313 1709 
L 2253 4666 
z
" id="DejaVuSans-34" transform="scale(0.015625)"/>
       </defs>
       <use xlink:href="#DejaVuSans-2d"/>
       <use x="36.083984" xlink:href="#DejaVuSans-34"/>
      </g>
     </g>
    </g>
    <g id="xtick_2">
     <g id="line2d_3">
      <path clip-path="url(#p03c530017b)" d="M 217.607981 293.76 
L 217.607981 3.456 
" style="fill:none;stroke:#b0b0b0;stroke-linecap:square;stroke-width:0.8;"/>
     </g>
     <g id="line2d_4">
      <g>
       <use style="stroke:#000000;stroke-width:0.8;" x="217.607981" xlink:href="#m9d8510e2eb" y="293.76"/>
      </g>
     </g>
     <g id="text_2">
      <!-- 0 -->
      <g transform="translate(211.245481 315.956875)scale(0.2 -0.2)">
       <defs>
        <path d="M 2034 4250 
Q 1547 4250 1301 3770 
Q 1056 3291 1056 2328 
Q 1056 1369 1301 889 
Q 1547 409 2034 409 
Q 2525 409 2770 889 
Q 3016 1369 3016 2328 
Q 3016 3291 2770 3770 
Q 2525 4250 2034 4250 
z
M 2034 4750 
Q 2819 4750 3233 4129 
Q 3647 3509 3647 2328 
Q 3647 1150 3233 529 
Q 2819 -91 2034 -91 
Q 1250 -91 836 529 
Q 422 1150 422 2328 
Q 422 3509 836 4129 
Q 1250 4750 2034 4750 
z
" id="DejaVuSans-30" transform="scale(0.015625)"/>
       </defs>
       <use xlink:href="#DejaVuSans-30"/>
      </g>
     </g>
    </g>
    <g id="xtick_3">
     <g id="line2d_5">
      <path clip-path="url(#p03c530017b)" d="M 326.470776 293.76 
L 326.470776 3.456 
" style="fill:none;stroke:#b0b0b0;stroke-linecap:square;stroke-width:0.8;"/>
     </g>
     <g id="line2d_6">
      <g>
       <use style="stroke:#000000;stroke-width:0.8;" x="326.470776" xlink:href="#m9d8510e2eb" y="293.76"/>
      </g>
     </g>
     <g id="text_3">
      <!-- 4 -->
      <g transform="translate(320.108276 315.956875)scale(0.2 -0.2)">
       <use xlink:href="#DejaVuSans-34"/>
      </g>
     </g>
    </g>
    <g id="xtick_4">
     <g id="line2d_7">
      <path clip-path="url(#p03c530017b)" d="M 435.333571 293.76 
L 435.333571 3.456 
" style="fill:none;stroke:#b0b0b0;stroke-linecap:square;stroke-width:0.8;"/>
     </g>
     <g id="line2d_8">
      <g>
       <use style="stroke:#000000;stroke-width:0.8;" x="435.333571" xlink:href="#m9d8510e2eb" y="293.76"/>
      </g>
     </g>
     <g id="text_4">
      <!-- 8 -->
      <g transform="translate(428.971071 315.956875)scale(0.2 -0.2)">
       <defs>
        <path d="M 2034 2216 
Q 1584 2216 1326 1975 
Q 1069 1734 1069 1313 
Q 1069 891 1326 650 
Q 1584 409 2034 409 
Q 2484 409 2743 651 
Q 3003 894 3003 1313 
Q 3003 1734 2745 1975 
Q 2488 2216 2034 2216 
z
M 1403 2484 
Q 997 2584 770 2862 
Q 544 3141 544 3541 
Q 544 4100 942 4425 
Q 1341 4750 2034 4750 
Q 2731 4750 3128 4425 
Q 3525 4100 3525 3541 
Q 3525 3141 3298 2862 
Q 3072 2584 2669 2484 
Q 3125 2378 3379 2068 
Q 3634 1759 3634 1313 
Q 3634 634 3220 271 
Q 2806 -91 2034 -91 
Q 1263 -91 848 271 
Q 434 634 434 1313 
Q 434 1759 690 2068 
Q 947 2378 1403 2484 
z
M 1172 3481 
Q 1172 3119 1398 2916 
Q 1625 2713 2034 2713 
Q 2441 2713 2670 2916 
Q 2900 3119 2900 3481 
Q 2900 3844 2670 4047 
Q 2441 4250 2034 4250 
Q 1625 4250 1398 4047 
Q 1172 3844 1172 3481 
z
" id="DejaVuSans-38" transform="scale(0.015625)"/>
       </defs>
       <use xlink:href="#DejaVuSans-38"/>
      </g>
     </g>
    </g>
    <g id="text_5">
     <!-- log10 of Df -->
     <g transform="translate(175.214063 339.313125)scale(0.2 -0.2)">
      <defs>
       <path d="M 603 4863 
L 1178 4863 
L 1178 0 
L 603 0 
L 603 4863 
z
" id="DejaVuSans-6c" transform="scale(0.015625)"/>
       <path d="M 1959 3097 
Q 1497 3097 1228 2736 
Q 959 2375 959 1747 
Q 959 1119 1226 758 
Q 1494 397 1959 397 
Q 2419 397 2687 759 
Q 2956 1122 2956 1747 
Q 2956 2369 2687 2733 
Q 2419 3097 1959 3097 
z
M 1959 3584 
Q 2709 3584 3137 3096 
Q 3566 2609 3566 1747 
Q 3566 888 3137 398 
Q 2709 -91 1959 -91 
Q 1206 -91 779 398 
Q 353 888 353 1747 
Q 353 2609 779 3096 
Q 1206 3584 1959 3584 
z
" id="DejaVuSans-6f" transform="scale(0.015625)"/>
       <path d="M 2906 1791 
Q 2906 2416 2648 2759 
Q 2391 3103 1925 3103 
Q 1463 3103 1205 2759 
Q 947 2416 947 1791 
Q 947 1169 1205 825 
Q 1463 481 1925 481 
Q 2391 481 2648 825 
Q 2906 1169 2906 1791 
z
M 3481 434 
Q 3481 -459 3084 -895 
Q 2688 -1331 1869 -1331 
Q 1566 -1331 1297 -1286 
Q 1028 -1241 775 -1147 
L 775 -588 
Q 1028 -725 1275 -790 
Q 1522 -856 1778 -856 
Q 2344 -856 2625 -561 
Q 2906 -266 2906 331 
L 2906 616 
Q 2728 306 2450 153 
Q 2172 0 1784 0 
Q 1141 0 747 490 
Q 353 981 353 1791 
Q 353 2603 747 3093 
Q 1141 3584 1784 3584 
Q 2172 3584 2450 3431 
Q 2728 3278 2906 2969 
L 2906 3500 
L 3481 3500 
L 3481 434 
z
" id="DejaVuSans-67" transform="scale(0.015625)"/>
       <path d="M 794 531 
L 1825 531 
L 1825 4091 
L 703 3866 
L 703 4441 
L 1819 4666 
L 2450 4666 
L 2450 531 
L 3481 531 
L 3481 0 
L 794 0 
L 794 531 
z
" id="DejaVuSans-31" transform="scale(0.015625)"/>
       <path id="DejaVuSans-20" transform="scale(0.015625)"/>
       <path d="M 2375 4863 
L 2375 4384 
L 1825 4384 
Q 1516 4384 1395 4259 
Q 1275 4134 1275 3809 
L 1275 3500 
L 2222 3500 
L 2222 3053 
L 1275 3053 
L 1275 0 
L 697 0 
L 697 3053 
L 147 3053 
L 147 3500 
L 697 3500 
L 697 3744 
Q 697 4328 969 4595 
Q 1241 4863 1831 4863 
L 2375 4863 
z
" id="DejaVuSans-66" transform="scale(0.015625)"/>
       <path d="M 1259 4147 
L 1259 519 
L 2022 519 
Q 2988 519 3436 956 
Q 3884 1394 3884 2338 
Q 3884 3275 3436 3711 
Q 2988 4147 2022 4147 
L 1259 4147 
z
M 628 4666 
L 1925 4666 
Q 3281 4666 3915 4102 
Q 4550 3538 4550 2338 
Q 4550 1131 3912 565 
Q 3275 0 1925 0 
L 628 0 
L 628 4666 
z
" id="DejaVuSans-44" transform="scale(0.015625)"/>
      </defs>
      <use xlink:href="#DejaVuSans-6c"/>
      <use x="27.783203" xlink:href="#DejaVuSans-6f"/>
      <use x="88.964844" xlink:href="#DejaVuSans-67"/>
      <use x="152.441406" xlink:href="#DejaVuSans-31"/>
      <use x="216.064453" xlink:href="#DejaVuSans-30"/>
      <use x="279.6875" xlink:href="#DejaVuSans-20"/>
      <use x="311.474609" xlink:href="#DejaVuSans-6f"/>
      <use x="372.65625" xlink:href="#DejaVuSans-66"/>
      <use x="407.861328" xlink:href="#DejaVuSans-20"/>
      <use x="439.648438" xlink:href="#DejaVuSans-44"/>
      <use x="516.650391" xlink:href="#DejaVuSans-66"/>
     </g>
    </g>
   </g>
   <g id="matplotlib.axis_2">
    <g id="ytick_1">
     <g id="line2d_9">
      <path clip-path="url(#p03c530017b)" d="M 0 293.76 
L 460.8 293.76 
" style="fill:none;stroke:#b0b0b0;stroke-linecap:square;stroke-width:0.8;"/>
     </g>
     <g id="line2d_10">
      <defs>
       <path d="M 0 0 
L -3.5 0 
" id="mc56e17c684" style="stroke:#000000;stroke-width:0.8;"/>
      </defs>
      <g>
       <use style="stroke:#000000;stroke-width:0.8;" x="0" xlink:href="#mc56e17c684" y="293.76"/>
      </g>
     </g>
    </g>
    <g id="ytick_2">
     <g id="line2d_11">
      <path clip-path="url(#p03c530017b)" d="M 0 236.274059 
L 460.8 236.274059 
" style="fill:none;stroke:#b0b0b0;stroke-linecap:square;stroke-width:0.8;"/>
     </g>
     <g id="line2d_12">
      <g>
       <use style="stroke:#000000;stroke-width:0.8;" x="0" xlink:href="#mc56e17c684" y="236.274059"/>
      </g>
     </g>
    </g>
    <g id="ytick_3">
     <g id="line2d_13">
      <path clip-path="url(#p03c530017b)" d="M 0 178.788119 
L 460.8 178.788119 
" style="fill:none;stroke:#b0b0b0;stroke-linecap:square;stroke-width:0.8;"/>
     </g>
     <g id="line2d_14">
      <g>
       <use style="stroke:#000000;stroke-width:0.8;" x="0" xlink:href="#mc56e17c684" y="178.788119"/>
      </g>
     </g>
    </g>
    <g id="ytick_4">
     <g id="line2d_15">
      <path clip-path="url(#p03c530017b)" d="M 0 121.302178 
L 460.8 121.302178 
" style="fill:none;stroke:#b0b0b0;stroke-linecap:square;stroke-width:0.8;"/>
     </g>
     <g id="line2d_16">
      <g>
       <use style="stroke:#000000;stroke-width:0.8;" x="0" xlink:href="#mc56e17c684" y="121.302178"/>
      </g>
     </g>
    </g>
    <g id="ytick_5">
     <g id="line2d_17">
      <path clip-path="url(#p03c530017b)" d="M 0 63.816238 
L 460.8 63.816238 
" style="fill:none;stroke:#b0b0b0;stroke-linecap:square;stroke-width:0.8;"/>
     </g>
     <g id="line2d_18">
      <g>
       <use style="stroke:#000000;stroke-width:0.8;" x="0" xlink:href="#mc56e17c684" y="63.816238"/>
      </g>
     </g>
    </g>
    <g id="ytick_6">
     <g id="line2d_19">
      <path clip-path="url(#p03c530017b)" d="M 0 6.330297 
L 460.8 6.330297 
" style="fill:none;stroke:#b0b0b0;stroke-linecap:square;stroke-width:0.8;"/>
     </g>
     <g id="line2d_20">
      <g>
       <use style="stroke:#000000;stroke-width:0.8;" x="0" xlink:href="#mc56e17c684" y="6.330297"/>
      </g>
     </g>
    </g>
   </g>
   <g id="line2d_21">
    <path clip-path="url(#p03c530017b)" d="M 227.724076 293.76 
L 227.724076 292.961584 
L 229.243472 292.961584 
L 229.335656 291.364752 
L 229.52571 291.364752 
L 229.52571 290.566337 
L 229.893207 290.566337 
L 229.893207 289.767921 
L 230.369994 289.767921 
L 230.372909 288.171089 
L 230.888724 288.171089 
L 230.888724 287.372673 
L 231.299452 287.372673 
L 231.299452 286.574257 
L 231.694698 286.574257 
L 231.694698 285.775842 
L 231.906563 285.775842 
L 231.906563 284.977426 
L 232.549104 284.977426 
L 232.549104 284.17901 
L 233.07562 284.17901 
L 233.07562 283.380594 
L 233.84172 283.380594 
L 233.84172 282.582178 
L 234.151426 282.582178 
L 234.151426 281.783762 
L 238.475967 281.783762 
L 238.475967 280.985347 
L 239.417832 280.985347 
L 239.417832 280.186931 
L 240.419881 280.186931 
L 240.419881 279.388515 
L 240.571586 279.388515 
L 240.596647 277.791683 
L 240.703542 277.791683 
L 240.79767 276.194851 
L 240.965134 276.194851 
L 241.047565 274.59802 
L 241.731231 274.59802 
L 241.731231 273.799604 
L 241.84261 273.799604 
L 241.84261 273.001188 
L 241.969411 273.001188 
L 241.969411 272.202772 
L 242.178175 272.202772 
L 242.178175 271.404356 
L 242.335656 271.404356 
L 242.335656 270.605941 
L 242.463976 270.605941 
L 242.463976 269.807525 
L 242.680906 269.807525 
L 242.680906 269.009109 
L 242.804728 269.009109 
L 242.90163 267.412277 
L 242.948351 267.412277 
L 243.024326 265.815446 
L 243.18936 265.815446 
L 243.18936 265.01703 
L 243.39154 265.01703 
L 243.478774 263.420198 
L 243.717374 263.420198 
L 243.717374 262.621782 
L 243.996608 262.621782 
L 243.996608 261.823366 
L 244.522335 261.823366 
L 244.522335 261.02495 
L 244.679913 261.02495 
L 244.679913 260.226535 
L 245.177813 260.226535 
L 245.177813 259.428119 
L 245.444091 259.428119 
L 245.444091 258.629703 
L 246.411943 258.629703 
L 246.411943 257.831287 
L 247.912683 257.831287 
L 247.912683 257.032871 
L 248.243804 257.032871 
L 248.271943 255.43604 
L 248.818405 255.43604 
L 248.818405 254.637624 
L 249.311374 254.637624 
L 249.311374 253.839208 
L 249.809561 253.839208 
L 249.809561 253.040792 
L 250.68159 253.040792 
L 250.68159 252.242376 
L 250.90503 252.242376 
L 250.90503 251.44396 
L 252.467745 251.44396 
L 252.467745 250.645545 
L 252.807663 250.645545 
L 252.807663 249.847129 
L 253.775924 249.847129 
L 253.775924 249.048713 
L 254.572592 249.048713 
L 254.572592 248.250297 
L 254.844517 248.250297 
L 254.852339 246.653465 
L 255.010732 246.653465 
L 255.010732 245.85505 
L 255.129534 245.85505 
L 255.225258 244.258218 
L 256.080063 244.258218 
L 256.080063 243.459802 
L 256.198363 243.459802 
L 256.198363 242.661386 
L 256.470352 242.661386 
L 256.470352 241.86297 
L 256.609808 241.86297 
L 256.609808 241.064554 
L 256.79584 241.064554 
L 256.820813 239.467723 
L 256.970854 239.467723 
L 257.007177 237.870891 
L 257.374281 237.870891 
L 257.455311 236.274059 
L 257.560286 236.274059 
L 257.560286 235.475644 
L 257.724474 235.475644 
L 257.745414 233.878812 
L 257.958895 233.878812 
L 257.958895 233.080396 
L 258.073306 233.080396 
L 258.151609 230.685149 
L 258.32061 230.685149 
L 258.32061 229.886733 
L 258.680067 229.886733 
L 258.680067 229.088317 
L 259.014433 229.088317 
L 259.106392 226.693069 
L 259.293017 226.693069 
L 259.293017 225.894653 
L 259.434638 225.894653 
L 259.434638 225.096238 
L 259.729516 225.096238 
L 259.729516 224.297822 
L 260.738825 224.297822 
L 260.738825 223.499406 
L 261.529765 223.499406 
L 261.560189 221.902574 
L 262.777489 221.902574 
L 262.777489 221.104158 
L 262.958782 221.104158 
L 262.958782 220.305743 
L 263.947171 220.305743 
L 263.947171 219.507327 
L 264.279434 219.507327 
L 264.279434 218.708911 
L 265.038183 218.708911 
L 265.123355 217.112079 
L 265.186994 217.112079 
L 265.186994 216.313663 
L 265.492346 216.313663 
L 265.492346 215.515248 
L 265.633153 215.515248 
L 265.633153 214.716832 
L 265.823725 214.716832 
L 265.852502 213.12 
L 266.080061 213.12 
L 266.133754 210.724752 
L 266.32114 210.724752 
L 266.32114 209.926337 
L 266.527965 209.926337 
L 266.633638 208.329505 
L 266.702098 208.329505 
L 266.718887 205.934257 
L 267.000832 205.934257 
L 267.019522 204.337426 
L 267.262058 204.337426 
L 267.262058 203.53901 
L 267.398574 203.53901 
L 267.49716 200.345347 
L 267.626639 200.345347 
L 267.717233 197.950099 
L 267.882036 197.950099 
L 267.882036 197.151683 
L 268.063691 197.151683 
L 268.091375 194.756436 
L 268.254037 194.756436 
L 268.254037 193.95802 
L 268.42832 193.95802 
L 268.514189 190.764356 
L 268.701751 190.764356 
L 268.701751 189.965941 
L 268.949376 189.965941 
L 268.949376 189.167525 
L 269.33639 189.167525 
L 269.390554 187.570693 
L 269.91887 187.570693 
L 269.91887 186.772277 
L 270.342427 186.772277 
L 270.342427 185.973861 
L 273.161518 185.973861 
L 273.161518 185.175446 
L 273.420158 185.175446 
L 273.420158 184.37703 
L 273.595264 184.37703 
L 273.595264 183.578614 
L 274.864714 183.578614 
L 274.864714 182.780198 
L 277.618784 182.780198 
L 277.711056 180.38495 
L 277.774741 180.38495 
L 277.774741 179.586535 
L 278.1009 179.586535 
L 278.155724 177.989703 
L 278.568025 177.989703 
L 278.568025 177.191287 
L 278.821951 177.191287 
L 278.821951 176.392871 
L 278.992091 176.392871 
L 278.992091 175.594455 
L 279.618728 175.594455 
L 279.651904 173.997624 
L 280.876753 173.997624 
L 280.876753 173.199208 
L 281.346092 173.199208 
L 281.346092 172.400792 
L 281.628681 172.400792 
L 281.628681 171.602376 
L 282.044806 171.602376 
L 282.044806 170.80396 
L 282.17569 170.80396 
L 282.17569 170.005545 
L 282.325515 170.005545 
L 282.417081 168.408713 
L 282.495964 168.408713 
L 282.497895 166.811881 
L 282.812158 166.811881 
L 282.910174 164.416634 
L 282.933745 164.416634 
L 282.933745 163.618218 
L 283.093795 163.618218 
L 283.170892 162.021386 
L 283.20668 162.021386 
L 283.216314 160.424554 
L 283.37009 160.424554 
L 283.450169 158.827723 
L 283.483717 158.827723 
L 283.550525 156.432475 
L 283.617853 156.432475 
L 283.697095 154.835644 
L 283.787274 154.835644 
L 283.787274 154.037228 
L 283.97883 154.037228 
L 283.97883 153.238812 
L 284.178156 153.238812 
L 284.178156 152.440396 
L 284.445303 152.440396 
L 284.543927 150.045149 
L 284.571661 150.045149 
L 284.571661 149.246733 
L 284.900408 149.246733 
L 284.900408 148.448317 
L 285.127185 148.448317 
L 285.231612 146.053069 
L 285.799315 146.053069 
L 285.884236 144.456238 
L 285.993614 144.456238 
L 286.011695 142.859406 
L 286.140689 142.859406 
L 286.155688 141.262574 
L 286.279463 141.262574 
L 286.374418 139.665743 
L 286.443829 139.665743 
L 286.443829 138.867327 
L 286.973477 138.867327 
L 286.973477 138.068911 
L 288.076221 138.068911 
L 288.086197 136.472079 
L 288.308574 136.472079 
L 288.417757 134.076832 
L 288.451652 134.076832 
L 288.451652 133.278416 
L 288.788157 133.278416 
L 288.788157 132.48 
L 288.944066 132.48 
L 289.0478 128.487921 
L 289.12766 128.487921 
L 289.12766 127.689505 
L 289.283525 127.689505 
L 289.330315 126.092673 
L 289.399174 126.092673 
L 289.482865 123.697426 
L 289.661716 123.697426 
L 289.662353 122.100594 
L 289.919738 122.100594 
L 290.000841 118.906931 
L 290.252179 118.906931 
L 290.269539 117.310099 
L 290.498186 117.310099 
L 290.541852 115.713267 
L 291.053162 115.713267 
L 291.05478 114.116436 
L 291.199599 114.116436 
L 291.255308 111.721188 
L 291.409968 111.721188 
L 291.409968 110.922772 
L 291.668115 110.922772 
L 291.738121 108.527525 
L 291.966622 108.527525 
L 291.966622 107.729109 
L 292.302982 107.729109 
L 292.302982 106.930693 
L 292.419854 106.930693 
L 292.434053 105.333861 
L 292.533838 105.333861 
L 292.560903 103.73703 
L 292.804929 103.73703 
L 292.804929 102.938614 
L 293.434021 102.938614 
L 293.434021 102.140198 
L 299.902775 102.140198 
L 299.902775 101.341782 
L 302.115502 101.341782 
L 302.115502 100.543366 
L 302.324294 100.543366 
L 302.324294 99.74495 
L 302.946558 99.74495 
L 302.946558 98.946535 
L 303.101424 98.946535 
L 303.101424 98.148119 
L 303.453282 98.148119 
L 303.52695 96.551287 
L 303.67484 96.551287 
L 303.67484 95.752871 
L 304.249563 95.752871 
L 304.249563 94.954455 
L 304.484893 94.954455 
L 304.496187 92.559208 
L 304.734968 92.559208 
L 304.734968 91.760792 
L 305.111441 91.760792 
L 305.111441 90.962376 
L 305.30401 90.962376 
L 305.31707 89.365545 
L 306.456407 89.365545 
L 306.456407 88.567129 
L 309.05758 88.567129 
L 309.05758 87.768713 
L 309.986062 87.768713 
L 309.986062 86.970297 
L 310.554277 86.970297 
L 310.554277 86.171881 
L 310.831594 86.171881 
L 310.831594 85.373465 
L 311.668244 85.373465 
L 311.668244 84.57505 
L 312.220272 84.57505 
L 312.234719 82.978218 
L 312.605127 82.978218 
L 312.605127 82.179802 
L 313.228204 82.179802 
L 313.228204 81.381386 
L 314.550775 81.381386 
L 314.621128 79.784554 
L 314.745638 79.784554 
L 314.745638 78.986139 
L 314.924321 78.986139 
L 314.924321 78.187723 
L 315.237427 78.187723 
L 315.237427 77.389307 
L 316.256485 77.389307 
L 316.256485 76.590891 
L 317.411199 76.590891 
L 317.411199 75.792475 
L 317.748906 75.792475 
L 317.748906 74.994059 
L 318.057763 74.994059 
L 318.057763 74.195644 
L 318.791548 74.195644 
L 318.791548 73.397228 
L 319.571761 73.397228 
L 319.571761 72.598812 
L 320.116636 72.598812 
L 320.116636 71.800396 
L 320.520838 71.800396 
L 320.540962 70.203564 
L 321.160842 70.203564 
L 321.160842 69.405149 
L 321.693777 69.405149 
L 321.693777 68.606733 
L 322.724531 68.606733 
L 322.724531 67.808317 
L 323.566551 67.808317 
L 323.566551 67.009901 
L 325.947384 67.009901 
L 325.947384 66.211485 
L 326.832759 66.211485 
L 326.832759 65.413069 
L 330.258954 65.413069 
L 330.258954 64.614653 
L 332.766696 64.614653 
L 332.766696 63.816238 
L 334.537895 63.816238 
L 334.537895 63.017822 
L 336.092143 63.017822 
L 336.115544 61.42099 
L 336.323177 61.42099 
L 336.323177 60.622574 
L 336.461481 60.622574 
L 336.461481 59.824158 
L 336.631355 59.824158 
L 336.631355 59.025743 
L 337.764403 59.025743 
L 337.764403 58.227327 
L 339.963647 58.227327 
L 339.963647 57.428911 
L 340.4164 57.428911 
L 340.518039 55.832079 
L 340.978355 55.832079 
L 340.978355 55.033663 
L 342.550288 55.033663 
L 342.550288 54.235248 
L 345.695216 54.235248 
L 345.695216 53.436832 
L 347.842782 53.436832 
L 347.842782 52.638416 
L 351.232511 52.638416 
L 351.232511 51.84 
L 351.995014 51.84 
L 352.014648 50.243168 
L 352.701803 50.243168 
L 352.701803 49.444752 
L 353.742606 49.444752 
L 353.742606 48.646337 
L 357.569091 48.646337 
L 357.569091 47.847921 
L 360.82503 47.847921 
L 360.868699 46.251089 
L 361.623053 46.251089 
L 361.623053 45.452673 
L 366.265538 45.452673 
L 366.265538 44.654257 
L 367.012104 44.654257 
L 367.012104 43.855842 
L 368.647783 43.855842 
L 368.647783 43.057426 
L 369.707629 43.057426 
L 369.707629 42.25901 
L 370.246495 42.25901 
L 370.246495 41.460594 
L 370.60235 41.460594 
L 370.60235 40.662178 
L 370.995398 40.662178 
L 370.995398 39.863762 
L 371.114548 39.863762 
L 371.114548 39.065347 
L 371.261748 39.065347 
L 371.261748 38.266931 
L 372.006903 38.266931 
L 372.006903 37.468515 
L 373.795375 37.468515 
L 373.891817 35.871683 
L 374.258471 35.871683 
L 374.258471 35.073267 
L 374.419486 35.073267 
L 374.495512 33.476436 
L 374.95549 33.476436 
L 374.95549 32.67802 
L 375.72714 32.67802 
L 375.72714 31.879604 
L 376.168628 31.879604 
L 376.168628 31.081188 
L 376.502721 31.081188 
L 376.613064 29.484356 
L 377.208162 29.484356 
L 377.208162 28.685941 
L 377.574668 28.685941 
L 377.574668 27.887525 
L 377.969887 27.887525 
L 377.969887 27.089109 
L 379.307694 27.089109 
L 379.406741 25.492277 
L 379.5483 25.492277 
L 379.5483 24.693861 
L 380.728375 24.693861 
L 380.728375 23.895446 
L 380.842929 23.895446 
L 380.842929 23.09703 
L 380.975451 23.09703 
L 380.975451 22.298614 
L 381.146232 22.298614 
L 381.146232 21.500198 
L 381.917231 21.500198 
L 381.917231 20.701782 
L 382.750319 20.701782 
L 382.750319 19.903366 
L 384.198809 19.903366 
L 384.198809 19.10495 
L 396.357015 19.10495 
L 396.357015 18.306535 
L 416.278022 18.306535 
L 416.278022 17.508119 
L 425.64849 17.508119 
L 425.64849 16.709703 
L 428.179342 16.709703 
L 428.179342 15.911287 
L 431.439358 15.911287 
L 431.439358 15.112871 
L 431.566801 15.112871 
L 431.566801 14.314455 
L 432.425027 14.314455 
L 432.425027 13.51604 
L 433.763007 13.51604 
L 433.763007 12.717624 
L 434.197194 12.717624 
L 434.197194 11.919208 
L 435.412825 11.919208 
L 435.515397 10.322376 
L 437.354967 10.322376 
L 437.453716 8.725545 
L 437.481581 8.725545 
L 437.481581 7.927129 
L 437.877803 7.927129 
L 437.877803 7.128713 
L 438.02608 7.128713 
L 438.02608 6.330297 
L 438.02608 6.330297 
L 460.8 6.330297 
L 460.8 6.330297 
" style="fill:none;stroke:#ff0000;stroke-linecap:square;stroke-width:3;"/>
   </g>
   <g id="line2d_22">
    <path clip-path="url(#p03c530017b)" d="M 235.180102 293.76 
L 235.180102 292.961584 
L 238.397894 292.961584 
L 238.397894 292.163168 
L 238.815275 292.163168 
L 238.815275 291.364752 
L 240.703542 291.364752 
L 240.79767 289.767921 
L 240.965134 289.767921 
L 241.047565 288.171089 
L 241.731231 288.171089 
L 241.731231 287.372673 
L 241.84261 287.372673 
L 241.84261 286.574257 
L 242.475165 286.574257 
L 242.566483 284.977426 
L 242.802454 284.977426 
L 242.90163 282.582178 
L 242.928291 282.582178 
L 243.010227 280.985347 
L 243.072863 280.985347 
L 243.072863 280.186931 
L 243.328136 280.186931 
L 243.328136 279.388515 
L 243.478774 279.388515 
L 243.50602 277.791683 
L 243.662762 277.791683 
L 243.715256 275.396436 
L 243.799048 275.396436 
L 243.891624 273.001188 
L 243.997913 273.001188 
L 243.997913 272.202772 
L 244.258781 272.202772 
L 244.343035 270.605941 
L 244.522335 270.605941 
L 244.522335 269.807525 
L 245.059234 269.807525 
L 245.059234 269.009109 
L 245.271947 269.009109 
L 245.284624 267.412277 
L 245.84783 267.412277 
L 245.84783 266.613861 
L 246.509726 266.613861 
L 246.509726 265.815446 
L 246.88692 265.815446 
L 246.995918 262.621782 
L 247.852613 262.621782 
L 247.852613 261.823366 
L 250.235274 261.823366 
L 250.235274 261.02495 
L 250.90816 261.02495 
L 250.90816 260.226535 
L 251.406268 260.226535 
L 251.406268 259.428119 
L 252.106913 259.428119 
L 252.106913 258.629703 
L 252.218869 258.629703 
L 252.218869 257.831287 
L 254.960829 257.831287 
L 254.960829 257.032871 
L 256.211955 257.032871 
L 256.211955 256.234455 
L 256.735871 256.234455 
L 256.817412 254.637624 
L 257.041723 254.637624 
L 257.041723 253.839208 
L 257.379503 253.839208 
L 257.403658 252.242376 
L 257.83573 252.242376 
L 257.83573 251.44396 
L 258.427798 251.44396 
L 258.427798 250.645545 
L 258.670286 250.645545 
L 258.670286 249.847129 
L 258.982706 249.847129 
L 259.07209 248.250297 
L 259.811771 248.250297 
L 259.811771 247.451881 
L 260.370772 247.451881 
L 260.406768 245.85505 
L 260.731828 245.85505 
L 260.731828 245.056634 
L 260.991513 245.056634 
L 260.991513 244.258218 
L 261.654982 244.258218 
L 261.688865 242.661386 
L 261.9157 242.661386 
L 261.9157 241.86297 
L 262.065669 241.86297 
L 262.087356 240.266139 
L 262.344689 240.266139 
L 262.344689 239.467723 
L 263.284566 239.467723 
L 263.284566 238.669307 
L 263.639675 238.669307 
L 263.685104 237.072475 
L 263.75418 237.072475 
L 263.75418 236.274059 
L 263.899436 236.274059 
L 263.899436 235.475644 
L 264.554376 235.475644 
L 264.662512 233.080396 
L 264.834013 233.080396 
L 264.834013 232.28198 
L 264.956891 232.28198 
L 264.956891 231.483564 
L 265.123355 231.483564 
L 265.218913 229.886733 
L 265.599571 229.886733 
L 265.600159 228.289901 
L 266.379636 228.289901 
L 266.379636 227.491485 
L 266.606902 227.491485 
L 266.606902 226.693069 
L 266.853068 226.693069 
L 266.853068 225.894653 
L 267.355036 225.894653 
L 267.355036 225.096238 
L 267.49716 225.096238 
L 267.501904 223.499406 
L 267.619709 223.499406 
L 267.619709 222.70099 
L 267.788016 222.70099 
L 267.788016 221.902574 
L 267.913628 221.902574 
L 267.993201 220.305743 
L 268.260358 220.305743 
L 268.283311 218.708911 
L 268.385603 218.708911 
L 268.430315 217.112079 
L 268.560967 217.112079 
L 268.656387 215.515248 
L 268.681874 215.515248 
L 268.702891 213.918416 
L 268.815181 213.918416 
L 268.908016 209.926337 
L 269.085525 209.926337 
L 269.129628 206.732673 
L 269.199553 206.732673 
L 269.293205 204.337426 
L 269.333505 204.337426 
L 269.361086 201.942178 
L 269.450327 201.942178 
L 269.462768 200.345347 
L 269.63698 200.345347 
L 269.644243 198.748515 
L 269.813989 198.748515 
L 269.871383 197.151683 
L 270.041116 197.151683 
L 270.041116 196.353267 
L 270.282639 196.353267 
L 270.282639 195.554851 
L 270.44779 195.554851 
L 270.44779 194.756436 
L 271.206939 194.756436 
L 271.206939 193.95802 
L 271.552274 193.95802 
L 271.552274 193.159604 
L 272.427376 193.159604 
L 272.427376 192.361188 
L 272.729545 192.361188 
L 272.729545 191.562772 
L 273.035289 191.562772 
L 273.035289 190.764356 
L 273.740801 190.764356 
L 273.740801 189.965941 
L 274.321349 189.965941 
L 274.321349 189.167525 
L 274.806161 189.167525 
L 274.806161 188.369109 
L 275.130216 188.369109 
L 275.130216 187.570693 
L 275.828343 187.570693 
L 275.828343 186.772277 
L 276.567902 186.772277 
L 276.567902 185.973861 
L 282.17569 185.973861 
L 282.17569 185.175446 
L 283.170892 185.175446 
L 283.170892 184.37703 
L 283.450169 184.37703 
L 283.450169 183.578614 
L 283.617853 183.578614 
L 283.617853 182.780198 
L 284.178156 182.780198 
L 284.178156 181.981782 
L 284.445303 181.981782 
L 284.543927 180.38495 
L 284.900408 180.38495 
L 284.900408 179.586535 
L 285.288257 179.586535 
L 285.288257 178.788119 
L 285.65224 178.788119 
L 285.65224 177.989703 
L 285.83296 177.989703 
L 285.849635 176.392871 
L 286.064378 176.392871 
L 286.064378 175.594455 
L 286.413898 175.594455 
L 286.413898 174.79604 
L 286.549427 174.79604 
L 286.56406 173.199208 
L 286.768056 173.199208 
L 286.768056 172.400792 
L 287.003155 172.400792 
L 287.111365 169.207129 
L 287.234371 169.207129 
L 287.331739 166.013465 
L 287.401168 166.013465 
L 287.501155 163.618218 
L 287.592177 163.618218 
L 287.658501 161.22297 
L 287.720483 161.22297 
L 287.720483 160.424554 
L 289.839398 160.424554 
L 289.839398 159.626139 
L 290.22437 159.626139 
L 290.272709 158.029307 
L 290.939125 158.029307 
L 290.955306 156.432475 
L 291.317171 156.432475 
L 291.376756 154.835644 
L 291.504 154.835644 
L 291.566317 153.238812 
L 291.928185 153.238812 
L 291.928185 152.440396 
L 292.07181 152.440396 
L 292.172327 150.843564 
L 292.231918 150.843564 
L 292.339226 148.448317 
L 292.363307 148.448317 
L 292.461387 146.851485 
L 292.610913 146.851485 
L 292.610913 146.053069 
L 292.843575 146.053069 
L 292.843575 145.254653 
L 293.060972 145.254653 
L 293.060972 144.456238 
L 293.19347 144.456238 
L 293.194403 142.859406 
L 293.378318 142.859406 
L 293.378318 142.06099 
L 293.826904 142.06099 
L 293.858476 140.464158 
L 293.938484 140.464158 
L 294.042939 138.068911 
L 294.087932 138.068911 
L 294.087932 137.270495 
L 294.271591 137.270495 
L 294.312579 134.875248 
L 294.541968 134.875248 
L 294.649981 133.278416 
L 294.767666 133.278416 
L 294.876065 130.883168 
L 295.216702 130.883168 
L 295.280427 129.286337 
L 295.336167 129.286337 
L 295.336167 128.487921 
L 295.490666 128.487921 
L 295.499997 126.891089 
L 295.965647 126.891089 
L 296.039621 124.495842 
L 296.413269 124.495842 
L 296.413269 123.697426 
L 296.76404 123.697426 
L 296.76404 122.89901 
L 296.912901 122.89901 
L 296.912901 122.100594 
L 297.235811 122.100594 
L 297.235811 121.302178 
L 297.644784 121.302178 
L 297.644784 120.503762 
L 297.975142 120.503762 
L 297.975142 119.705347 
L 298.636097 119.705347 
L 298.636097 118.906931 
L 298.762937 118.906931 
L 298.762937 118.108515 
L 299.086907 118.108515 
L 299.086907 117.310099 
L 300.830263 117.310099 
L 300.830263 116.511683 
L 301.357056 116.511683 
L 301.357056 115.713267 
L 301.638705 115.713267 
L 301.638705 114.914851 
L 302.712463 114.914851 
L 302.771263 113.31802 
L 303.453282 113.31802 
L 303.559522 110.922772 
L 304.496187 110.922772 
L 304.496187 110.124356 
L 305.111441 110.124356 
L 305.1758 108.527525 
L 306.643885 108.527525 
L 306.643885 107.729109 
L 306.982168 107.729109 
L 306.982168 106.930693 
L 307.257029 106.930693 
L 307.257029 106.132277 
L 307.42286 106.132277 
L 307.505408 104.535446 
L 307.974311 104.535446 
L 307.974311 103.73703 
L 308.302571 103.73703 
L 308.302571 102.938614 
L 308.507766 102.938614 
L 308.507766 102.140198 
L 309.034981 102.140198 
L 309.086544 99.74495 
L 309.360324 99.74495 
L 309.360324 98.946535 
L 309.730197 98.946535 
L 309.730197 98.148119 
L 309.986062 98.148119 
L 309.986062 97.349703 
L 311.668244 97.349703 
L 311.668244 96.551287 
L 312.220272 96.551287 
L 312.234719 94.954455 
L 312.605127 94.954455 
L 312.605127 94.15604 
L 313.053262 94.15604 
L 313.053262 93.357624 
L 314.745638 93.357624 
L 314.745638 92.559208 
L 314.924321 92.559208 
L 314.924321 91.760792 
L 315.237427 91.760792 
L 315.345309 90.16396 
L 316.146519 90.16396 
L 316.146519 89.365545 
L 319.788715 89.365545 
L 319.788715 88.567129 
L 321.160842 88.567129 
L 321.160842 87.768713 
L 322.460498 87.768713 
L 322.460498 86.970297 
L 324.08024 86.970297 
L 324.08024 86.171881 
L 325.947384 86.171881 
L 325.947384 85.373465 
L 326.990022 85.373465 
L 326.996732 83.776634 
L 328.808909 83.776634 
L 328.808909 82.978218 
L 330.229051 82.978218 
L 330.328738 81.381386 
L 330.961237 81.381386 
L 330.961237 80.58297 
L 331.341171 80.58297 
L 331.341171 79.784554 
L 331.803642 79.784554 
L 331.832026 78.187723 
L 333.003866 78.187723 
L 333.003866 77.389307 
L 334.076423 77.389307 
L 334.076423 76.590891 
L 335.571632 76.590891 
L 335.571632 75.792475 
L 335.900038 75.792475 
L 335.900038 74.994059 
L 336.045259 74.994059 
L 336.092143 73.397228 
L 337.764403 73.397228 
L 337.764403 72.598812 
L 339.179844 72.598812 
L 339.179844 71.800396 
L 340.187101 71.800396 
L 340.187101 71.00198 
L 340.4164 71.00198 
L 340.4164 70.203564 
L 341.05549 70.203564 
L 341.122647 68.606733 
L 343.664731 68.606733 
L 343.664731 67.808317 
L 344.205283 67.808317 
L 344.205283 67.009901 
L 344.491253 67.009901 
L 344.491253 66.211485 
L 345.008913 66.211485 
L 345.008913 65.413069 
L 345.695216 65.413069 
L 345.695216 64.614653 
L 346.401557 64.614653 
L 346.401557 63.816238 
L 346.753378 63.816238 
L 346.753378 63.017822 
L 348.505424 63.017822 
L 348.505424 62.219406 
L 350.800292 62.219406 
L 350.800292 61.42099 
L 352.750687 61.42099 
L 352.750687 60.622574 
L 353.137962 60.622574 
L 353.137962 59.824158 
L 356.434633 59.824158 
L 356.434633 59.025743 
L 357.542414 59.025743 
L 357.542414 58.227327 
L 359.68045 58.227327 
L 359.68045 57.428911 
L 361.827345 57.428911 
L 361.827345 56.630495 
L 363.476782 56.630495 
L 363.476782 55.832079 
L 366.274316 55.832079 
L 366.363802 54.235248 
L 367.574725 54.235248 
L 367.574725 53.436832 
L 367.893391 53.436832 
L 367.971383 51.84 
L 369.557603 51.84 
L 369.557603 51.041584 
L 372.290608 51.041584 
L 372.395031 49.444752 
L 372.671517 49.444752 
L 372.671517 48.646337 
L 373.02406 48.646337 
L 373.02406 47.847921 
L 373.821942 47.847921 
L 373.821942 47.049505 
L 374.253932 47.049505 
L 374.253932 46.251089 
L 374.441839 46.251089 
L 374.441839 45.452673 
L 375.468493 45.452673 
L 375.468493 44.654257 
L 378.898761 44.654257 
L 378.898761 43.855842 
L 381.377546 43.855842 
L 381.377546 43.057426 
L 386.626126 43.057426 
L 386.626126 42.25901 
L 387.760606 42.25901 
L 387.760606 41.460594 
L 389.223713 41.460594 
L 389.223713 40.662178 
L 390.72291 40.662178 
L 390.781122 39.065347 
L 391.716477 39.065347 
L 391.716477 38.266931 
L 392.049768 38.266931 
L 392.049768 37.468515 
L 392.74985 37.468515 
L 392.74985 36.670099 
L 394.550355 36.670099 
L 394.550355 35.871683 
L 395.361807 35.871683 
L 395.361807 35.073267 
L 395.513867 35.073267 
L 395.513867 34.274851 
L 396.065926 34.274851 
L 396.065926 33.476436 
L 396.941132 33.476436 
L 396.941132 32.67802 
L 397.136302 32.67802 
L 397.136302 31.879604 
L 397.822276 31.879604 
L 397.822276 31.081188 
L 398.281433 31.081188 
L 398.281433 30.282772 
L 398.628321 30.282772 
L 398.628321 29.484356 
L 399.348847 29.484356 
L 399.348847 28.685941 
L 400.191973 28.685941 
L 400.191973 27.887525 
L 401.426621 27.887525 
L 401.426621 27.089109 
L 401.541127 27.089109 
L 401.541127 26.290693 
L 401.813786 26.290693 
L 401.813786 25.492277 
L 402.400279 25.492277 
L 402.400279 24.693861 
L 402.632524 24.693861 
L 402.632524 23.895446 
L 402.756911 23.895446 
L 402.756911 23.09703 
L 403.751216 23.09703 
L 403.751216 22.298614 
L 404.170549 22.298614 
L 404.170549 21.500198 
L 404.328274 21.500198 
L 404.328274 20.701782 
L 407.112312 20.701782 
L 407.112312 19.903366 
L 410.940361 19.903366 
L 410.940361 19.10495 
L 415.003454 19.10495 
L 415.003454 18.306535 
L 429.088723 18.306535 
L 429.088723 17.508119 
L 432.115204 17.508119 
L 432.115204 16.709703 
L 432.696488 16.709703 
L 432.696488 15.911287 
L 438.844116 15.911287 
L 438.844116 15.112871 
L 439.374471 15.112871 
L 439.374471 14.314455 
L 440.905404 14.314455 
L 440.905404 13.51604 
L 441.264826 13.51604 
L 441.264826 12.717624 
L 441.390778 12.717624 
L 441.390778 11.919208 
L 441.669833 11.919208 
L 441.669833 11.120792 
L 443.925216 11.120792 
L 443.925216 10.322376 
L 447.937196 10.322376 
L 447.937196 9.52396 
L 448.210335 9.52396 
L 448.210335 8.725545 
L 448.913965 8.725545 
L 448.913965 7.927129 
L 449.700763 7.927129 
L 449.701146 6.330297 
L 449.701146 6.330297 
L 460.8 6.330297 
L 460.8 6.330297 
" style="fill:none;stroke:#00bfbf;stroke-linecap:square;stroke-width:1.5;"/>
   </g>
   <g id="line2d_23">
    <path clip-path="url(#p03c530017b)" d="M 235.180102 293.76 
L 235.180102 292.961584 
L 238.267287 292.961584 
L 238.267287 292.163168 
L 238.397894 292.163168 
L 238.397894 291.364752 
L 238.815275 291.364752 
L 238.815417 289.767921 
L 239.417832 289.767921 
L 239.417832 288.969505 
L 240.282959 288.969505 
L 240.282959 288.171089 
L 240.419881 288.171089 
L 240.419881 287.372673 
L 240.703542 287.372673 
L 240.79767 285.775842 
L 240.965134 285.775842 
L 241.047565 283.380594 
L 241.318785 283.380594 
L 241.318785 282.582178 
L 241.665059 282.582178 
L 241.731231 280.985347 
L 241.84261 280.985347 
L 241.874243 279.388515 
L 242.680906 279.388515 
L 242.680906 278.590099 
L 242.802454 278.590099 
L 242.90163 276.993267 
L 243.010227 276.993267 
L 243.010227 276.194851 
L 243.197904 276.194851 
L 243.197904 275.396436 
L 243.328136 275.396436 
L 243.39154 273.799604 
L 243.478774 273.799604 
L 243.50602 272.202772 
L 243.666405 272.202772 
L 243.728025 269.807525 
L 243.799048 269.807525 
L 243.799048 269.009109 
L 243.997913 269.009109 
L 243.997913 268.210693 
L 244.258781 268.210693 
L 244.343035 266.613861 
L 244.497164 266.613861 
L 244.522335 265.01703 
L 245.84783 265.01703 
L 245.84783 264.218614 
L 246.88692 264.218614 
L 246.903843 262.621782 
L 247.852613 262.621782 
L 247.852613 261.823366 
L 247.986574 261.823366 
L 247.986574 261.02495 
L 250.235274 261.02495 
L 250.235274 260.226535 
L 250.90816 260.226535 
L 250.946917 258.629703 
L 252.106913 258.629703 
L 252.106913 257.831287 
L 252.218869 257.831287 
L 252.218869 257.032871 
L 253.204466 257.032871 
L 253.204466 256.234455 
L 256.211955 256.234455 
L 256.211955 255.43604 
L 256.735871 255.43604 
L 256.735871 254.637624 
L 257.041723 254.637624 
L 257.041723 253.839208 
L 257.379503 253.839208 
L 257.403658 252.242376 
L 257.83573 252.242376 
L 257.83573 251.44396 
L 258.035534 251.44396 
L 258.035534 250.645545 
L 258.387335 250.645545 
L 258.427798 249.048713 
L 258.982706 249.048713 
L 259.07209 246.653465 
L 259.11725 246.653465 
L 259.11725 245.85505 
L 259.811771 245.85505 
L 259.913102 244.258218 
L 260.370772 244.258218 
L 260.406768 242.661386 
L 260.490258 242.661386 
L 260.490258 241.86297 
L 260.731828 241.86297 
L 260.731828 241.064554 
L 260.991513 241.064554 
L 260.991513 240.266139 
L 261.688865 240.266139 
L 261.688865 239.467723 
L 261.9157 239.467723 
L 261.9157 238.669307 
L 262.065669 238.669307 
L 262.087356 237.072475 
L 262.344689 237.072475 
L 262.344689 236.274059 
L 262.850657 236.274059 
L 262.850657 235.475644 
L 263.284566 235.475644 
L 263.368271 233.878812 
L 263.639675 233.878812 
L 263.685104 231.483564 
L 263.899436 231.483564 
L 263.899436 230.685149 
L 264.254397 230.685149 
L 264.254397 229.886733 
L 264.554376 229.886733 
L 264.662512 228.289901 
L 265.038183 228.289901 
L 265.123355 226.693069 
L 265.218913 226.693069 
L 265.218913 225.894653 
L 265.600159 225.894653 
L 265.600159 225.096238 
L 266.379636 225.096238 
L 266.379636 224.297822 
L 266.606902 224.297822 
L 266.606902 223.499406 
L 266.853068 223.499406 
L 266.853068 222.70099 
L 267.49716 222.70099 
L 267.501904 221.104158 
L 267.788016 221.104158 
L 267.80745 219.507327 
L 267.913628 219.507327 
L 267.993201 217.910495 
L 268.091375 217.910495 
L 268.091375 217.112079 
L 268.283311 217.112079 
L 268.283311 216.313663 
L 268.430315 216.313663 
L 268.451718 214.716832 
L 268.656387 214.716832 
L 268.742053 211.523168 
L 268.815181 211.523168 
L 268.908016 205.934257 
L 269.101539 205.934257 
L 269.207817 201.942178 
L 269.28136 201.942178 
L 269.361086 197.950099 
L 269.450327 197.950099 
L 269.462768 196.353267 
L 269.644243 196.353267 
L 269.644243 195.554851 
L 269.985796 195.554851 
L 270.041116 193.95802 
L 270.282639 193.95802 
L 270.282639 193.159604 
L 271.552274 193.159604 
L 271.622573 191.562772 
L 272.427376 191.562772 
L 272.427376 190.764356 
L 272.634477 190.764356 
L 272.634477 189.965941 
L 273.035289 189.965941 
L 273.035289 189.167525 
L 273.626976 189.167525 
L 273.728009 187.570693 
L 273.740801 187.570693 
L 273.740801 186.772277 
L 276.567902 186.772277 
L 276.567902 185.973861 
L 278.293465 185.973861 
L 278.293465 185.175446 
L 281.039739 185.175446 
L 281.039739 184.37703 
L 281.346092 184.37703 
L 281.346092 183.578614 
L 282.17569 183.578614 
L 282.17569 182.780198 
L 283.170892 182.780198 
L 283.170892 181.981782 
L 283.450169 181.981782 
L 283.450169 181.183366 
L 283.617853 181.183366 
L 283.617853 180.38495 
L 284.178156 180.38495 
L 284.178156 179.586535 
L 284.445303 179.586535 
L 284.543927 177.989703 
L 284.900408 177.989703 
L 284.900408 177.191287 
L 285.288257 177.191287 
L 285.288257 176.392871 
L 285.409012 176.392871 
L 285.409012 175.594455 
L 285.689716 175.594455 
L 285.689716 174.79604 
L 285.826742 174.79604 
L 285.849635 172.400792 
L 286.064378 172.400792 
L 286.064378 171.602376 
L 286.24409 171.602376 
L 286.24409 170.80396 
L 286.413898 170.80396 
L 286.4325 169.207129 
L 286.549427 169.207129 
L 286.608437 166.811881 
L 286.680824 166.811881 
L 286.768056 165.21505 
L 287.091621 165.21505 
L 287.091621 164.416634 
L 287.233721 164.416634 
L 287.331739 161.22297 
L 287.658501 161.22297 
L 287.720483 159.626139 
L 287.996562 159.626139 
L 287.996562 158.827723 
L 288.687179 158.827723 
L 288.687179 158.029307 
L 289.839398 158.029307 
L 289.839398 157.230891 
L 290.22437 157.230891 
L 290.272709 155.634059 
L 290.863561 155.634059 
L 290.955306 153.238812 
L 291.317171 153.238812 
L 291.376756 151.64198 
L 291.566317 151.64198 
L 291.566317 150.843564 
L 291.928185 150.843564 
L 291.928185 150.045149 
L 292.040174 150.045149 
L 292.07181 148.448317 
L 292.172327 148.448317 
L 292.231918 146.851485 
L 292.331498 146.851485 
L 292.363307 144.456238 
L 292.461387 144.456238 
L 292.461387 143.657822 
L 292.610913 143.657822 
L 292.610913 142.859406 
L 292.843575 142.859406 
L 292.914769 141.262574 
L 293.19347 141.262574 
L 293.194403 139.665743 
L 293.686845 139.665743 
L 293.686845 138.867327 
L 293.826904 138.867327 
L 293.858476 137.270495 
L 293.938484 137.270495 
L 294.042939 134.875248 
L 294.087932 134.875248 
L 294.155051 133.278416 
L 294.271591 133.278416 
L 294.312579 131.681584 
L 294.427985 131.681584 
L 294.427985 130.883168 
L 294.649981 130.883168 
L 294.649981 130.084752 
L 294.7816 130.084752 
L 294.876065 128.487921 
L 295.080861 128.487921 
L 295.080861 127.689505 
L 295.216702 127.689505 
L 295.320169 125.294257 
L 295.336167 125.294257 
L 295.336167 124.495842 
L 295.499997 124.495842 
L 295.499997 123.697426 
L 295.965647 123.697426 
L 296.039621 120.503762 
L 296.912901 120.503762 
L 296.912901 119.705347 
L 297.235811 119.705347 
L 297.235811 118.906931 
L 298.636097 118.906931 
L 298.636097 118.108515 
L 298.762937 118.108515 
L 298.762937 117.310099 
L 298.99646 117.310099 
L 299.086907 115.713267 
L 300.830263 115.713267 
L 300.905731 114.116436 
L 301.357056 114.116436 
L 301.397855 112.519604 
L 301.638705 112.519604 
L 301.638705 111.721188 
L 302.712463 111.721188 
L 302.771263 110.124356 
L 303.453282 110.124356 
L 303.559522 107.729109 
L 304.314078 107.729109 
L 304.314078 106.930693 
L 304.496187 106.930693 
L 304.496187 106.132277 
L 305.111441 106.132277 
L 305.1758 104.535446 
L 306.643885 104.535446 
L 306.643885 103.73703 
L 306.982168 103.73703 
L 306.982168 102.938614 
L 307.42286 102.938614 
L 307.505408 101.341782 
L 307.771195 101.341782 
L 307.771195 100.543366 
L 307.926791 100.543366 
L 307.974311 98.946535 
L 308.507766 98.946535 
L 308.507766 98.148119 
L 309.05758 98.148119 
L 309.086544 96.551287 
L 309.360324 96.551287 
L 309.360324 95.752871 
L 309.730197 95.752871 
L 309.730197 94.954455 
L 309.986062 94.954455 
L 309.986062 94.15604 
L 310.554277 94.15604 
L 310.554277 93.357624 
L 310.831594 93.357624 
L 310.831594 92.559208 
L 311.668244 92.559208 
L 311.668244 91.760792 
L 312.220272 91.760792 
L 312.234719 90.16396 
L 312.605127 90.16396 
L 312.605127 89.365545 
L 313.228204 89.365545 
L 313.228204 88.567129 
L 314.584844 88.567129 
L 314.584844 87.768713 
L 314.745638 87.768713 
L 314.745638 86.970297 
L 314.924321 86.970297 
L 314.924321 86.171881 
L 315.237427 86.171881 
L 315.237427 85.373465 
L 318.791548 85.373465 
L 318.791548 84.57505 
L 320.540962 84.57505 
L 320.540962 83.776634 
L 321.160842 83.776634 
L 321.160842 82.978218 
L 322.460498 82.978218 
L 322.460498 82.179802 
L 324.08024 82.179802 
L 324.08024 81.381386 
L 325.947384 81.381386 
L 325.947384 80.58297 
L 326.990022 80.58297 
L 326.996732 78.986139 
L 328.808909 78.986139 
L 328.808909 78.187723 
L 330.258954 78.187723 
L 330.258954 77.389307 
L 331.341171 77.389307 
L 331.341171 76.590891 
L 331.803642 76.590891 
L 331.832026 74.994059 
L 333.003866 74.994059 
L 333.003866 74.195644 
L 333.196279 74.195644 
L 333.196279 73.397228 
L 334.076423 73.397228 
L 334.076423 72.598812 
L 334.774499 72.598812 
L 334.774499 71.800396 
L 335.571632 71.800396 
L 335.571632 71.00198 
L 335.900038 71.00198 
L 335.900038 70.203564 
L 336.092143 70.203564 
L 336.092143 69.405149 
L 337.764403 69.405149 
L 337.764403 68.606733 
L 337.876649 68.606733 
L 337.876649 67.808317 
L 339.179844 67.808317 
L 339.179844 67.009901 
L 340.187101 67.009901 
L 340.187101 66.211485 
L 340.4164 66.211485 
L 340.4164 65.413069 
L 341.05549 65.413069 
L 341.05549 64.614653 
L 344.491253 64.614653 
L 344.491253 63.816238 
L 345.008913 63.816238 
L 345.008913 63.017822 
L 345.695216 63.017822 
L 345.695216 62.219406 
L 346.401557 62.219406 
L 346.401557 61.42099 
L 348.505424 61.42099 
L 348.505424 60.622574 
L 350.546752 60.622574 
L 350.546752 59.824158 
L 350.800292 59.824158 
L 350.800292 59.025743 
L 352.643289 59.025743 
L 352.750687 57.428911 
L 353.247337 57.428911 
L 353.247337 56.630495 
L 356.434633 56.630495 
L 356.434633 55.832079 
L 359.68045 55.832079 
L 359.68045 55.033663 
L 361.827345 55.033663 
L 361.827345 54.235248 
L 362.582639 54.235248 
L 362.582639 53.436832 
L 362.725249 53.436832 
L 362.725249 52.638416 
L 363.476782 52.638416 
L 363.476782 51.84 
L 366.274316 51.84 
L 366.274316 51.041584 
L 367.574725 51.041584 
L 367.574725 50.243168 
L 367.893391 50.243168 
L 367.971383 48.646337 
L 369.557603 48.646337 
L 369.557603 47.847921 
L 372.395031 47.847921 
L 372.395031 47.049505 
L 373.02406 47.049505 
L 373.02406 46.251089 
L 374.253932 46.251089 
L 374.253932 45.452673 
L 374.441839 45.452673 
L 374.441839 44.654257 
L 374.758821 44.654257 
L 374.758821 43.855842 
L 378.898761 43.855842 
L 378.898761 43.057426 
L 379.863895 43.057426 
L 379.863895 42.25901 
L 380.975451 42.25901 
L 380.975451 41.460594 
L 386.626126 41.460594 
L 386.626126 40.662178 
L 387.760606 40.662178 
L 387.760606 39.863762 
L 388.511984 39.863762 
L 388.511984 39.065347 
L 389.223713 39.065347 
L 389.223713 38.266931 
L 389.510634 38.266931 
L 389.510634 37.468515 
L 390.781122 37.468515 
L 390.781122 36.670099 
L 392.049768 36.670099 
L 392.049768 35.871683 
L 393.920609 35.871683 
L 393.920609 35.073267 
L 394.057639 35.073267 
L 394.057639 34.274851 
L 394.500898 34.274851 
L 394.550355 32.67802 
L 395.361807 32.67802 
L 395.468826 31.081188 
L 395.513867 31.081188 
L 395.513867 30.282772 
L 396.4932 30.282772 
L 396.4932 29.484356 
L 396.979934 29.484356 
L 396.979934 28.685941 
L 397.822276 28.685941 
L 397.865709 27.089109 
L 398.281433 27.089109 
L 398.281433 26.290693 
L 399.348847 26.290693 
L 399.359563 24.693861 
L 400.404049 24.693861 
L 400.404049 23.895446 
L 401.541127 23.895446 
L 401.541127 23.09703 
L 402.632524 23.09703 
L 402.632524 22.298614 
L 402.756911 22.298614 
L 402.756911 21.500198 
L 403.625004 21.500198 
L 403.625004 20.701782 
L 403.751216 20.701782 
L 403.751216 19.903366 
L 404.170549 19.903366 
L 404.170549 19.10495 
L 415.003454 19.10495 
L 415.003454 18.306535 
L 429.088723 18.306535 
L 429.088723 17.508119 
L 432.115204 17.508119 
L 432.115204 16.709703 
L 432.696488 16.709703 
L 432.696488 15.911287 
L 437.208445 15.911287 
L 437.208445 15.112871 
L 437.730313 15.112871 
L 437.730313 14.314455 
L 438.844116 14.314455 
L 438.844116 13.51604 
L 441.264826 13.51604 
L 441.264826 12.717624 
L 441.390778 12.717624 
L 441.390778 11.919208 
L 441.669833 11.919208 
L 441.669833 11.120792 
L 443.925216 11.120792 
L 443.925216 10.322376 
L 447.937196 10.322376 
L 447.937196 9.52396 
L 448.210335 9.52396 
L 448.257319 7.927129 
L 449.700763 7.927129 
L 449.701146 6.330297 
L 449.701146 6.330297 
L 460.8 6.330297 
L 460.8 6.330297 
" style="fill:none;stroke:#bf00bf;stroke-linecap:square;stroke-width:1.5;"/>
   </g>
   <g id="line2d_24">
    <path clip-path="url(#p03c530017b)" d="M 234.571322 293.76 
L 234.576404 292.163168 
L 235.137448 292.163168 
L 235.180102 290.566337 
L 236.102111 290.566337 
L 236.102111 289.767921 
L 236.640282 289.767921 
L 236.640282 288.969505 
L 238.48513 288.969505 
L 238.48513 288.171089 
L 238.815275 288.171089 
L 238.815275 287.372673 
L 238.951139 287.372673 
L 238.951139 286.574257 
L 239.361683 286.574257 
L 239.417832 284.977426 
L 239.566595 284.977426 
L 239.566595 284.17901 
L 240.306266 284.17901 
L 240.306266 283.380594 
L 240.419881 283.380594 
L 240.419881 282.582178 
L 240.703542 282.582178 
L 240.79767 280.186931 
L 240.965134 280.186931 
L 241.047565 278.590099 
L 241.201132 278.590099 
L 241.201132 277.791683 
L 241.731231 277.791683 
L 241.731231 276.993267 
L 241.84261 276.993267 
L 241.84261 276.194851 
L 242.680906 276.194851 
L 242.680906 275.396436 
L 242.802454 275.396436 
L 242.90163 273.799604 
L 243.010227 273.799604 
L 243.024326 272.202772 
L 243.39154 272.202772 
L 243.478774 270.605941 
L 243.50602 270.605941 
L 243.50602 269.807525 
L 243.799048 269.807525 
L 243.799048 269.009109 
L 243.997913 269.009109 
L 243.997913 268.210693 
L 244.258781 268.210693 
L 244.343035 266.613861 
L 244.497164 266.613861 
L 244.550295 264.218614 
L 245.84783 264.218614 
L 245.84783 263.420198 
L 246.3896 263.420198 
L 246.3896 262.621782 
L 246.88692 262.621782 
L 246.903843 261.02495 
L 249.392024 261.02495 
L 249.392024 260.226535 
L 250.90816 260.226535 
L 250.946917 258.629703 
L 252.106913 258.629703 
L 252.106913 257.831287 
L 252.218869 257.831287 
L 252.274625 256.234455 
L 252.761723 256.234455 
L 252.761723 255.43604 
L 256.211955 255.43604 
L 256.211955 254.637624 
L 256.735871 254.637624 
L 256.735871 253.839208 
L 257.041723 253.839208 
L 257.041723 253.040792 
L 257.379503 253.040792 
L 257.403658 251.44396 
L 257.83573 251.44396 
L 257.83573 250.645545 
L 258.035534 250.645545 
L 258.111779 249.048713 
L 258.387335 249.048713 
L 258.387335 248.250297 
L 258.811669 248.250297 
L 258.811669 247.451881 
L 258.982706 247.451881 
L 259.07209 245.056634 
L 259.11725 245.056634 
L 259.11725 244.258218 
L 259.39743 244.258218 
L 259.39743 243.459802 
L 259.811771 243.459802 
L 259.913102 241.86297 
L 260.009627 241.86297 
L 260.009627 241.064554 
L 260.370772 241.064554 
L 260.406768 239.467723 
L 260.490258 239.467723 
L 260.490258 238.669307 
L 260.731828 238.669307 
L 260.731828 237.870891 
L 260.991513 237.870891 
L 260.991513 237.072475 
L 261.394876 237.072475 
L 261.454623 235.475644 
L 261.688865 235.475644 
L 261.688865 234.677228 
L 261.9157 234.677228 
L 261.9157 233.878812 
L 262.065669 233.878812 
L 262.119441 231.483564 
L 262.691527 231.483564 
L 262.715567 229.886733 
L 263.284566 229.886733 
L 263.368271 227.491485 
L 264.254397 227.491485 
L 264.254397 226.693069 
L 264.554376 226.693069 
L 264.662512 225.096238 
L 265.038183 225.096238 
L 265.123355 223.499406 
L 265.218913 223.499406 
L 265.218913 222.70099 
L 266.606902 222.70099 
L 266.606902 221.902574 
L 266.853068 221.902574 
L 266.853068 221.104158 
L 267.327981 221.104158 
L 267.327981 220.305743 
L 267.446177 220.305743 
L 267.501904 217.910495 
L 267.717233 217.910495 
L 267.80745 215.515248 
L 267.993201 215.515248 
L 268.091375 213.918416 
L 268.217819 213.918416 
L 268.3095 210.724752 
L 268.360696 210.724752 
L 268.430315 209.127921 
L 268.536793 209.127921 
L 268.564928 207.531089 
L 268.681874 207.531089 
L 268.742053 204.337426 
L 268.831103 204.337426 
L 268.834968 201.942178 
L 269.06706 201.942178 
L 269.160238 200.345347 
L 269.199553 200.345347 
L 269.28136 197.151683 
L 269.351442 197.151683 
L 269.361086 195.554851 
L 269.462768 195.554851 
L 269.462768 194.756436 
L 269.644243 194.756436 
L 269.644243 193.95802 
L 269.911879 193.95802 
L 269.911879 193.159604 
L 270.041116 193.159604 
L 270.041116 192.361188 
L 270.282639 192.361188 
L 270.282639 191.562772 
L 270.757619 191.562772 
L 270.845163 189.965941 
L 271.622573 189.965941 
L 271.622573 189.167525 
L 272.427376 189.167525 
L 272.427376 188.369109 
L 272.634477 188.369109 
L 272.634477 187.570693 
L 273.035289 187.570693 
L 273.035289 186.772277 
L 276.567902 186.772277 
L 276.567902 185.973861 
L 277.318647 185.973861 
L 277.318647 185.175446 
L 278.293465 185.175446 
L 278.293465 184.37703 
L 281.346092 184.37703 
L 281.346092 183.578614 
L 282.17569 183.578614 
L 282.17569 182.780198 
L 283.170892 182.780198 
L 283.170892 181.981782 
L 283.450169 181.981782 
L 283.450169 181.183366 
L 283.617853 181.183366 
L 283.726848 179.586535 
L 284.043404 179.586535 
L 284.043404 178.788119 
L 284.178156 178.788119 
L 284.240805 177.191287 
L 284.371296 177.191287 
L 284.445303 174.79604 
L 284.537389 174.79604 
L 284.543927 173.199208 
L 284.900408 173.199208 
L 284.958342 170.80396 
L 285.288257 170.80396 
L 285.358551 169.207129 
L 285.409012 169.207129 
L 285.409012 168.408713 
L 285.689716 168.408713 
L 285.763926 166.013465 
L 285.826742 166.013465 
L 285.849635 163.618218 
L 286.064378 163.618218 
L 286.064378 162.819802 
L 286.301946 162.819802 
L 286.301946 162.021386 
L 286.413898 162.021386 
L 286.413898 161.22297 
L 286.549427 161.22297 
L 286.56406 159.626139 
L 286.768056 159.626139 
L 286.768056 158.827723 
L 287.996562 158.827723 
L 287.996562 158.029307 
L 288.227102 158.029307 
L 288.227102 157.230891 
L 288.687179 157.230891 
L 288.687179 156.432475 
L 289.707973 156.432475 
L 289.707973 155.634059 
L 290.22437 155.634059 
L 290.272709 154.037228 
L 290.521871 154.037228 
L 290.589323 152.440396 
L 290.863561 152.440396 
L 290.955306 150.843564 
L 291.312014 150.843564 
L 291.376756 148.448317 
L 291.566317 148.448317 
L 291.566317 147.649901 
L 291.679502 147.649901 
L 291.682208 146.053069 
L 291.928185 146.053069 
L 291.928185 145.254653 
L 292.040174 145.254653 
L 292.07181 143.657822 
L 292.231918 143.657822 
L 292.339226 141.262574 
L 292.363307 141.262574 
L 292.363307 140.464158 
L 292.610913 140.464158 
L 292.610913 139.665743 
L 292.751521 139.665743 
L 292.843575 138.068911 
L 293.19347 138.068911 
L 293.216925 135.673663 
L 293.826904 135.673663 
L 293.858476 134.076832 
L 293.938484 134.076832 
L 294.042939 131.681584 
L 294.087932 131.681584 
L 294.087932 130.883168 
L 294.233694 130.883168 
L 294.312579 128.487921 
L 294.427985 128.487921 
L 294.427985 127.689505 
L 294.649981 127.689505 
L 294.649981 126.891089 
L 294.7816 126.891089 
L 294.876065 125.294257 
L 295.080861 125.294257 
L 295.096097 123.697426 
L 295.216702 123.697426 
L 295.280427 122.100594 
L 295.36746 122.100594 
L 295.36746 121.302178 
L 295.499997 121.302178 
L 295.499997 120.503762 
L 295.987202 120.503762 
L 296.039621 118.906931 
L 296.57999 118.906931 
L 296.57999 118.108515 
L 296.912901 118.108515 
L 296.912901 117.310099 
L 297.235811 117.310099 
L 297.235811 116.511683 
L 298.382359 116.511683 
L 298.395451 114.116436 
L 298.99646 114.116436 
L 298.99646 113.31802 
L 300.158133 113.31802 
L 300.158133 112.519604 
L 300.830263 112.519604 
L 300.905731 110.922772 
L 301.357056 110.922772 
L 301.397855 109.325941 
L 302.712463 109.325941 
L 302.712463 108.527525 
L 303.302874 108.527525 
L 303.366434 106.930693 
L 303.453282 106.930693 
L 303.559522 105.333861 
L 303.923993 105.333861 
L 303.923993 104.535446 
L 304.496187 104.535446 
L 304.496187 103.73703 
L 305.111441 103.73703 
L 305.1758 102.140198 
L 306.643885 102.140198 
L 306.643885 101.341782 
L 306.982168 101.341782 
L 307.036876 99.74495 
L 307.505408 99.74495 
L 307.505408 98.946535 
L 307.709365 98.946535 
L 307.771195 97.349703 
L 307.926791 97.349703 
L 307.974311 95.752871 
L 308.507766 95.752871 
L 308.507766 94.954455 
L 309.05758 94.954455 
L 309.086544 93.357624 
L 309.211316 93.357624 
L 309.211316 92.559208 
L 309.730197 92.559208 
L 309.730197 91.760792 
L 309.986062 91.760792 
L 309.986062 90.962376 
L 310.554277 90.962376 
L 310.554277 90.16396 
L 310.831594 90.16396 
L 310.831594 89.365545 
L 311.668244 89.365545 
L 311.668244 88.567129 
L 312.220272 88.567129 
L 312.234719 86.970297 
L 312.605127 86.970297 
L 312.605127 86.171881 
L 313.228204 86.171881 
L 313.228204 85.373465 
L 314.745638 85.373465 
L 314.745638 84.57505 
L 314.924321 84.57505 
L 314.924321 83.776634 
L 315.237427 83.776634 
L 315.237427 82.978218 
L 316.169896 82.978218 
L 316.169896 82.179802 
L 318.791548 82.179802 
L 318.791548 81.381386 
L 320.540962 81.381386 
L 320.540962 80.58297 
L 321.160842 80.58297 
L 321.160842 79.784554 
L 324.08024 79.784554 
L 324.08024 78.986139 
L 325.947384 78.986139 
L 325.947384 78.187723 
L 326.990022 78.187723 
L 326.996732 76.590891 
L 328.808909 76.590891 
L 328.808909 75.792475 
L 330.258954 75.792475 
L 330.258954 74.994059 
L 330.55446 74.994059 
L 330.55446 74.195644 
L 331.341171 74.195644 
L 331.341171 73.397228 
L 331.803642 73.397228 
L 331.803642 72.598812 
L 333.003866 72.598812 
L 333.003866 71.800396 
L 333.196279 71.800396 
L 333.196279 71.00198 
L 334.076423 71.00198 
L 334.076423 70.203564 
L 334.774499 70.203564 
L 334.774499 69.405149 
L 335.571632 69.405149 
L 335.571632 68.606733 
L 335.900038 68.606733 
L 335.900038 67.808317 
L 336.092143 67.808317 
L 336.092143 67.009901 
L 337.548535 67.009901 
L 337.548535 66.211485 
L 337.764403 66.211485 
L 337.764403 65.413069 
L 339.179844 65.413069 
L 339.179844 64.614653 
L 340.4164 64.614653 
L 340.4164 63.816238 
L 341.05549 63.816238 
L 341.05549 63.017822 
L 341.350551 63.017822 
L 341.350551 62.219406 
L 345.008913 62.219406 
L 345.068309 60.622574 
L 345.695216 60.622574 
L 345.695216 59.824158 
L 346.401557 59.824158 
L 346.401557 59.025743 
L 348.505424 59.025743 
L 348.505424 58.227327 
L 350.546752 58.227327 
L 350.546752 57.428911 
L 350.800292 57.428911 
L 350.800292 56.630495 
L 352.750687 56.630495 
L 352.750687 55.832079 
L 355.410823 55.832079 
L 355.410823 55.033663 
L 356.434633 55.033663 
L 356.434633 54.235248 
L 359.68045 54.235248 
L 359.68045 53.436832 
L 360.427203 53.436832 
L 360.427203 52.638416 
L 361.827345 52.638416 
L 361.827345 51.84 
L 362.582639 51.84 
L 362.582639 51.041584 
L 362.725249 51.041584 
L 362.725249 50.243168 
L 363.476782 50.243168 
L 363.476782 49.444752 
L 365.558881 49.444752 
L 365.558881 48.646337 
L 366.429324 48.646337 
L 366.429324 47.847921 
L 367.574725 47.847921 
L 367.574725 47.049505 
L 370.591255 47.049505 
L 370.591255 46.251089 
L 372.032813 46.251089 
L 372.032813 45.452673 
L 372.395031 45.452673 
L 372.395031 44.654257 
L 372.857659 44.654257 
L 372.857659 43.855842 
L 374.253932 43.855842 
L 374.253932 43.057426 
L 374.441839 43.057426 
L 374.441839 42.25901 
L 378.898761 42.25901 
L 378.898761 41.460594 
L 379.863895 41.460594 
L 379.863895 40.662178 
L 380.975451 40.662178 
L 380.975451 39.863762 
L 381.543406 39.863762 
L 381.543406 39.065347 
L 383.249714 39.065347 
L 383.249714 38.266931 
L 388.511984 38.266931 
L 388.511984 37.468515 
L 389.223713 37.468515 
L 389.223713 36.670099 
L 389.510634 36.670099 
L 389.543814 35.073267 
L 389.981834 35.073267 
L 389.981834 34.274851 
L 390.270528 34.274851 
L 390.270528 33.476436 
L 390.538791 33.476436 
L 390.538791 32.67802 
L 391.400698 32.67802 
L 391.400698 31.879604 
L 392.704445 31.879604 
L 392.704445 31.081188 
L 394.057639 31.081188 
L 394.057639 30.282772 
L 394.500898 30.282772 
L 394.562684 27.887525 
L 394.651906 27.887525 
L 394.710489 26.290693 
L 395.104459 26.290693 
L 395.104459 25.492277 
L 395.513867 25.492277 
L 395.513867 24.693861 
L 396.50026 24.693861 
L 396.50026 23.895446 
L 396.776385 23.895446 
L 396.776385 23.09703 
L 397.822276 23.09703 
L 397.865709 21.500198 
L 399.215261 21.500198 
L 399.215261 20.701782 
L 399.348847 20.701782 
L 399.348847 19.903366 
L 402.632524 19.903366 
L 402.632524 19.10495 
L 403.81276 19.10495 
L 403.81276 18.306535 
L 429.088723 18.306535 
L 429.088723 17.508119 
L 432.115204 17.508119 
L 432.115204 16.709703 
L 432.696488 16.709703 
L 432.696488 15.911287 
L 436.405956 15.911287 
L 436.405956 15.112871 
L 437.730313 15.112871 
L 437.730313 14.314455 
L 438.844116 14.314455 
L 438.844116 13.51604 
L 439.354939 13.51604 
L 439.354939 12.717624 
L 440.6821 12.717624 
L 440.6821 11.919208 
L 441.264826 11.919208 
L 441.264826 11.120792 
L 443.925216 11.120792 
L 443.925216 10.322376 
L 447.937196 10.322376 
L 447.937196 9.52396 
L 448.210335 9.52396 
L 448.257319 7.927129 
L 448.862981 7.927129 
L 448.862981 7.128713 
L 449.701146 7.128713 
L 449.701146 6.330297 
L 449.701146 6.330297 
L 460.8 6.330297 
L 460.8 6.330297 
" style="fill:none;stroke:#000000;stroke-linecap:square;stroke-width:1.5;"/>
   </g>
   <g id="line2d_25">
    <path clip-path="url(#p03c530017b)" d="M 227.724076 293.76 
L 227.724076 292.961584 
L 231.913413 292.961584 
L 231.913413 292.163168 
L 232.667963 292.163168 
L 232.667963 291.364752 
L 232.95725 291.364752 
L 232.95725 290.566337 
L 233.499499 290.566337 
L 233.499499 289.767921 
L 235.137448 289.767921 
L 235.180102 288.171089 
L 236.102111 288.171089 
L 236.185878 286.574257 
L 236.721512 286.574257 
L 236.721512 285.775842 
L 237.10986 285.775842 
L 237.10986 284.977426 
L 237.424053 284.977426 
L 237.462209 283.380594 
L 238.114682 283.380594 
L 238.114682 282.582178 
L 238.391096 282.582178 
L 238.391096 281.783762 
L 239.417832 281.783762 
L 239.417832 280.985347 
L 240.419881 280.985347 
L 240.419881 280.186931 
L 240.703542 280.186931 
L 240.79767 278.590099 
L 240.965134 278.590099 
L 241.047565 276.993267 
L 241.731231 276.993267 
L 241.731231 276.194851 
L 241.84261 276.194851 
L 241.84261 275.396436 
L 241.969411 275.396436 
L 241.969411 274.59802 
L 242.335656 274.59802 
L 242.335656 273.799604 
L 242.680906 273.799604 
L 242.680906 273.001188 
L 242.90163 273.001188 
L 243.010227 271.404356 
L 243.024326 271.404356 
L 243.024326 270.605941 
L 243.39154 270.605941 
L 243.478774 269.009109 
L 243.50602 269.009109 
L 243.50602 268.210693 
L 243.769615 268.210693 
L 243.799048 266.613861 
L 244.258781 266.613861 
L 244.343035 265.01703 
L 244.497164 265.01703 
L 244.522335 263.420198 
L 245.438944 263.420198 
L 245.449207 261.823366 
L 245.556205 261.823366 
L 245.556205 261.02495 
L 246.078073 261.02495 
L 246.078073 260.226535 
L 248.243804 260.226535 
L 248.329218 258.629703 
L 248.737759 258.629703 
L 248.737759 257.831287 
L 250.68159 257.831287 
L 250.68159 257.032871 
L 250.946917 257.032871 
L 250.946917 256.234455 
L 252.218869 256.234455 
L 252.218869 255.43604 
L 252.467745 255.43604 
L 252.467745 254.637624 
L 252.761723 254.637624 
L 252.761723 253.839208 
L 255.836943 253.839208 
L 255.942976 252.242376 
L 256.211955 252.242376 
L 256.211955 251.44396 
L 256.557414 251.44396 
L 256.557414 250.645545 
L 256.735871 250.645545 
L 256.735871 249.847129 
L 257.041723 249.847129 
L 257.041723 249.048713 
L 257.403658 249.048713 
L 257.403658 248.250297 
L 257.557341 248.250297 
L 257.617494 246.653465 
L 257.83573 246.653465 
L 257.83573 245.85505 
L 258.111779 245.85505 
L 258.111779 245.056634 
L 258.385204 245.056634 
L 258.387335 243.459802 
L 258.676264 243.459802 
L 258.676264 242.661386 
L 258.982706 242.661386 
L 259.07209 239.467723 
L 259.11725 239.467723 
L 259.11725 238.669307 
L 259.28902 238.669307 
L 259.39743 237.072475 
L 259.449608 237.072475 
L 259.449608 236.274059 
L 259.707482 236.274059 
L 259.710266 234.677228 
L 260.073984 234.677228 
L 260.073984 233.878812 
L 260.370772 233.878812 
L 260.406768 231.483564 
L 260.526386 231.483564 
L 260.526386 230.685149 
L 260.731828 230.685149 
L 260.731828 229.886733 
L 260.991513 229.886733 
L 261.093117 228.289901 
L 261.255774 228.289901 
L 261.255774 227.491485 
L 262.065178 227.491485 
L 262.065178 226.693069 
L 262.568569 226.693069 
L 262.568569 225.894653 
L 263.34968 225.894653 
L 263.34968 225.096238 
L 263.739208 225.096238 
L 263.739208 224.297822 
L 265.038183 224.297822 
L 265.123355 222.70099 
L 265.275031 222.70099 
L 265.275031 221.902574 
L 266.606902 221.902574 
L 266.606902 221.104158 
L 266.853068 221.104158 
L 266.853068 220.305743 
L 267.039672 220.305743 
L 267.039672 219.507327 
L 267.327981 219.507327 
L 267.327981 218.708911 
L 267.446177 218.708911 
L 267.501904 216.313663 
L 267.62325 216.313663 
L 267.717233 213.918416 
L 267.742178 213.918416 
L 267.788016 211.523168 
L 267.906905 211.523168 
L 267.993201 209.926337 
L 268.06727 209.926337 
L 268.091375 208.329505 
L 268.188816 208.329505 
L 268.285465 204.337426 
L 268.360696 204.337426 
L 268.450879 202.740594 
L 268.474938 202.740594 
L 268.572875 199.546931 
L 268.626713 199.546931 
L 268.72625 197.151683 
L 268.831552 197.151683 
L 268.831552 196.353267 
L 269.160238 196.353267 
L 269.160238 195.554851 
L 269.351442 195.554851 
L 269.361086 193.95802 
L 269.462768 193.95802 
L 269.462768 193.159604 
L 270.041116 193.159604 
L 270.041116 192.361188 
L 270.282639 192.361188 
L 270.282639 191.562772 
L 270.757619 191.562772 
L 270.845163 189.965941 
L 271.463848 189.965941 
L 271.463848 189.167525 
L 271.622573 189.167525 
L 271.622573 188.369109 
L 272.427376 188.369109 
L 272.427376 187.570693 
L 272.634477 187.570693 
L 272.634477 186.772277 
L 273.035289 186.772277 
L 273.035289 185.973861 
L 277.318647 185.973861 
L 277.318647 185.175446 
L 278.1009 185.175446 
L 278.1009 184.37703 
L 278.293465 184.37703 
L 278.293465 183.578614 
L 279.651904 183.578614 
L 279.651904 182.780198 
L 281.346092 182.780198 
L 281.346092 181.981782 
L 282.097713 181.981782 
L 282.17569 180.38495 
L 283.170892 180.38495 
L 283.170892 179.586535 
L 283.392923 179.586535 
L 283.495908 177.191287 
L 283.617853 177.191287 
L 283.726848 175.594455 
L 284.043404 175.594455 
L 284.043404 174.79604 
L 284.178156 174.79604 
L 284.178156 173.997624 
L 284.289373 173.997624 
L 284.289373 173.199208 
L 284.409187 173.199208 
L 284.469121 170.80396 
L 284.543927 170.80396 
L 284.63271 168.408713 
L 284.67746 168.408713 
L 284.772906 166.013465 
L 284.851868 166.013465 
L 284.958342 162.021386 
L 285.231612 162.021386 
L 285.288257 160.424554 
L 285.409012 160.424554 
L 285.49677 158.827723 
L 285.584659 158.827723 
L 285.584659 158.029307 
L 285.826742 158.029307 
L 285.849635 156.432475 
L 286.56406 156.432475 
L 286.56406 155.634059 
L 286.768056 155.634059 
L 286.768056 154.835644 
L 287.026486 154.835644 
L 287.026486 154.037228 
L 287.996562 154.037228 
L 288.076221 152.440396 
L 288.619418 152.440396 
L 288.687179 150.843564 
L 289.662353 150.843564 
L 289.707973 149.246733 
L 290.272709 149.246733 
L 290.272709 148.448317 
L 290.521871 148.448317 
L 290.589323 146.851485 
L 290.724814 146.851485 
L 290.773904 145.254653 
L 290.852492 145.254653 
L 290.955306 142.859406 
L 291.013418 142.859406 
L 291.013418 142.06099 
L 291.312014 142.06099 
L 291.376756 139.665743 
L 291.431003 139.665743 
L 291.431003 138.867327 
L 291.566317 138.867327 
L 291.566317 138.068911 
L 291.677663 138.068911 
L 291.679502 136.472079 
L 291.868289 136.472079 
L 291.951169 134.875248 
L 292.040174 134.875248 
L 292.085474 132.48 
L 292.158767 132.48 
L 292.158767 131.681584 
L 292.277397 131.681584 
L 292.363307 126.891089 
L 292.610913 126.891089 
L 292.610913 126.092673 
L 292.751521 126.092673 
L 292.843575 124.495842 
L 293.194403 124.495842 
L 293.216925 122.89901 
L 293.346357 122.89901 
L 293.346357 122.100594 
L 293.493418 122.100594 
L 293.493418 121.302178 
L 293.637849 121.302178 
L 293.637849 120.503762 
L 293.783778 120.503762 
L 293.826904 118.906931 
L 293.944968 118.906931 
L 293.944968 118.108515 
L 294.312579 118.108515 
L 294.312579 117.310099 
L 294.695745 117.310099 
L 294.7816 115.713267 
L 294.810401 115.713267 
L 294.876065 114.116436 
L 295.030718 114.116436 
L 295.096097 112.519604 
L 295.280427 112.519604 
L 295.280427 111.721188 
L 295.852008 111.721188 
L 295.852008 110.922772 
L 296.491522 110.922772 
L 296.491522 110.124356 
L 297.377565 110.124356 
L 297.377565 109.325941 
L 298.331419 109.325941 
L 298.331419 108.527525 
L 298.99646 108.527525 
L 298.99646 107.729109 
L 300.252223 107.729109 
L 300.252223 106.930693 
L 300.830263 106.930693 
L 300.830263 106.132277 
L 301.357056 106.132277 
L 301.397855 104.535446 
L 303.302874 104.535446 
L 303.366434 102.140198 
L 303.453282 102.140198 
L 303.559522 100.543366 
L 304.496187 100.543366 
L 304.496187 99.74495 
L 304.782569 99.74495 
L 304.782569 98.946535 
L 305.111441 98.946535 
L 305.1758 96.551287 
L 306.083035 96.551287 
L 306.083035 95.752871 
L 306.217179 95.752871 
L 306.217179 94.954455 
L 306.425487 94.954455 
L 306.425487 94.15604 
L 306.643885 94.15604 
L 306.702091 92.559208 
L 307.505408 92.559208 
L 307.505408 91.760792 
L 307.926791 91.760792 
L 307.974311 90.16396 
L 308.482527 90.16396 
L 308.482527 89.365545 
L 309.05758 89.365545 
L 309.05758 88.567129 
L 309.986062 88.567129 
L 309.986062 87.768713 
L 310.554277 87.768713 
L 310.554277 86.970297 
L 310.831594 86.970297 
L 310.831594 86.171881 
L 311.668244 86.171881 
L 311.668244 85.373465 
L 312.220272 85.373465 
L 312.234719 83.776634 
L 312.605127 83.776634 
L 312.605127 82.978218 
L 313.228204 82.978218 
L 313.228204 82.179802 
L 314.745638 82.179802 
L 314.745638 81.381386 
L 314.924321 81.381386 
L 314.924321 80.58297 
L 315.237427 80.58297 
L 315.237427 79.784554 
L 318.791548 79.784554 
L 318.791548 78.986139 
L 320.540962 78.986139 
L 320.540962 78.187723 
L 320.879541 78.187723 
L 320.879541 77.389307 
L 321.160842 77.389307 
L 321.160842 76.590891 
L 321.693777 76.590891 
L 321.693777 75.792475 
L 324.08024 75.792475 
L 324.08024 74.994059 
L 325.947384 74.994059 
L 325.947384 74.195644 
L 326.560475 74.195644 
L 326.560475 73.397228 
L 326.990022 73.397228 
L 326.996732 71.800396 
L 327.101999 71.800396 
L 327.101999 71.00198 
L 327.762552 71.00198 
L 327.762552 70.203564 
L 328.808909 70.203564 
L 328.808909 69.405149 
L 330.258954 69.405149 
L 330.258954 68.606733 
L 330.558511 68.606733 
L 330.558511 67.808317 
L 333.196279 67.808317 
L 333.196279 67.009901 
L 333.338726 67.009901 
L 333.338726 66.211485 
L 334.774499 66.211485 
L 334.774499 65.413069 
L 335.900038 65.413069 
L 335.900038 64.614653 
L 336.092143 64.614653 
L 336.092143 63.816238 
L 337.764403 63.816238 
L 337.764403 63.017822 
L 339.179844 63.017822 
L 339.179844 62.219406 
L 340.4164 62.219406 
L 340.4164 61.42099 
L 341.05549 61.42099 
L 341.05549 60.622574 
L 341.350551 60.622574 
L 341.350551 59.824158 
L 344.045832 59.824158 
L 344.045832 59.025743 
L 344.466036 59.025743 
L 344.466036 58.227327 
L 344.748257 58.227327 
L 344.748257 57.428911 
L 345.068309 57.428911 
L 345.068309 56.630495 
L 345.695216 56.630495 
L 345.695216 55.832079 
L 346.401557 55.832079 
L 346.401557 55.033663 
L 350.546752 55.033663 
L 350.546752 54.235248 
L 352.750687 54.235248 
L 352.750687 53.436832 
L 355.410823 53.436832 
L 355.410823 52.638416 
L 355.990821 52.638416 
L 355.990821 51.84 
L 357.882873 51.84 
L 357.882873 51.041584 
L 360.427203 51.041584 
L 360.427203 50.243168 
L 362.589295 50.243168 
L 362.589295 49.444752 
L 363.476782 49.444752 
L 363.476782 48.646337 
L 363.600036 48.646337 
L 363.600036 47.847921 
L 365.858167 47.847921 
L 365.858167 47.049505 
L 366.76092 47.049505 
L 366.76092 46.251089 
L 369.246904 46.251089 
L 369.246904 45.452673 
L 369.81814 45.452673 
L 369.81814 44.654257 
L 372.395031 44.654257 
L 372.395031 43.855842 
L 372.571914 43.855842 
L 372.571914 43.057426 
L 372.857659 43.057426 
L 372.857659 42.25901 
L 375.91976 42.25901 
L 375.91976 41.460594 
L 376.225045 41.460594 
L 376.225045 40.662178 
L 378.898761 40.662178 
L 378.898761 39.863762 
L 380.975451 39.863762 
L 380.975451 39.065347 
L 381.184416 39.065347 
L 381.184416 38.266931 
L 381.543406 38.266931 
L 381.543406 37.468515 
L 382.255107 37.468515 
L 382.255107 36.670099 
L 382.473073 36.670099 
L 382.480354 35.073267 
L 383.249714 35.073267 
L 383.249714 34.274851 
L 383.606696 34.274851 
L 383.606696 33.476436 
L 384.157462 33.476436 
L 384.157462 32.67802 
L 385.852694 32.67802 
L 385.852694 31.879604 
L 386.998505 31.879604 
L 386.998505 31.081188 
L 387.285506 31.081188 
L 387.285506 30.282772 
L 387.993787 30.282772 
L 387.993787 29.484356 
L 388.210634 29.484356 
L 388.210634 28.685941 
L 388.32419 28.685941 
L 388.32419 27.887525 
L 389.412384 27.887525 
L 389.412384 27.089109 
L 390.979771 27.089109 
L 390.979771 26.290693 
L 391.396766 26.290693 
L 391.400698 24.693861 
L 393.167241 24.693861 
L 393.167241 23.895446 
L 394.651906 23.895446 
L 394.710489 22.298614 
L 395.104459 22.298614 
L 395.104459 21.500198 
L 395.217555 21.500198 
L 395.217555 20.701782 
L 397.859384 20.701782 
L 397.859384 19.903366 
L 398.492257 19.903366 
L 398.492257 19.10495 
L 401.489037 19.10495 
L 401.489037 18.306535 
L 429.088723 18.306535 
L 429.088723 17.508119 
L 432.115204 17.508119 
L 432.115204 16.709703 
L 432.696488 16.709703 
L 432.696488 15.911287 
L 434.760441 15.911287 
L 434.760441 15.112871 
L 436.405956 15.112871 
L 436.405956 14.314455 
L 437.219793 14.314455 
L 437.219793 13.51604 
L 437.509409 13.51604 
L 437.512878 11.919208 
L 437.730313 11.919208 
L 437.730313 11.120792 
L 441.264826 11.120792 
L 441.264826 10.322376 
L 441.461289 10.322376 
L 441.461289 9.52396 
L 442.76825 9.52396 
L 442.76825 8.725545 
L 443.034813 8.725545 
L 443.034813 7.927129 
L 444.594518 7.927129 
L 444.594518 7.128713 
L 445.177221 7.128713 
L 445.177221 6.330297 
L 445.177221 6.330297 
L 460.8 6.330297 
L 460.8 6.330297 
" style="fill:none;stroke:#00bfbf;stroke-linecap:square;stroke-width:1.5;"/>
   </g>
   <g id="line2d_26">
    <path clip-path="url(#p03c530017b)" d="M 227.724076 293.76 
L 227.724076 292.961584 
L 229.243472 292.961584 
L 229.335656 291.364752 
L 229.52571 291.364752 
L 229.52571 290.566337 
L 229.893207 290.566337 
L 229.893207 289.767921 
L 230.369994 289.767921 
L 230.372909 288.171089 
L 230.888724 288.171089 
L 230.888724 287.372673 
L 231.299452 287.372673 
L 231.299452 286.574257 
L 231.694698 286.574257 
L 231.694698 285.775842 
L 231.906563 285.775842 
L 231.906563 284.977426 
L 232.549104 284.977426 
L 232.549104 284.17901 
L 233.07562 284.17901 
L 233.07562 283.380594 
L 233.84172 283.380594 
L 233.84172 282.582178 
L 234.151426 282.582178 
L 234.151426 281.783762 
L 238.475967 281.783762 
L 238.475967 280.985347 
L 239.417832 280.985347 
L 239.417832 280.186931 
L 240.419881 280.186931 
L 240.419881 279.388515 
L 240.571586 279.388515 
L 240.596647 277.791683 
L 240.703542 277.791683 
L 240.79767 276.194851 
L 240.965134 276.194851 
L 241.047565 274.59802 
L 241.731231 274.59802 
L 241.731231 273.799604 
L 241.84261 273.799604 
L 241.84261 273.001188 
L 241.969411 273.001188 
L 241.969411 272.202772 
L 242.178175 272.202772 
L 242.178175 271.404356 
L 242.335656 271.404356 
L 242.335656 270.605941 
L 242.463976 270.605941 
L 242.463976 269.807525 
L 242.680906 269.807525 
L 242.680906 269.009109 
L 242.804728 269.009109 
L 242.90163 267.412277 
L 242.948351 267.412277 
L 243.024326 265.815446 
L 243.18936 265.815446 
L 243.18936 265.01703 
L 243.39154 265.01703 
L 243.478774 263.420198 
L 243.717374 263.420198 
L 243.717374 262.621782 
L 243.996608 262.621782 
L 243.996608 261.823366 
L 244.522335 261.823366 
L 244.522335 261.02495 
L 244.679913 261.02495 
L 244.679913 260.226535 
L 245.177813 260.226535 
L 245.177813 259.428119 
L 245.444091 259.428119 
L 245.444091 258.629703 
L 246.411943 258.629703 
L 246.411943 257.831287 
L 247.912683 257.831287 
L 247.912683 257.032871 
L 248.243804 257.032871 
L 248.271943 255.43604 
L 248.818405 255.43604 
L 248.818405 254.637624 
L 249.311374 254.637624 
L 249.311374 253.839208 
L 249.809561 253.839208 
L 249.809561 253.040792 
L 250.68159 253.040792 
L 250.68159 252.242376 
L 250.90503 252.242376 
L 250.90503 251.44396 
L 252.467745 251.44396 
L 252.467745 250.645545 
L 252.807663 250.645545 
L 252.807663 249.847129 
L 253.775924 249.847129 
L 253.775924 249.048713 
L 254.572592 249.048713 
L 254.572592 248.250297 
L 254.844517 248.250297 
L 254.852339 246.653465 
L 255.010732 246.653465 
L 255.010732 245.85505 
L 255.129534 245.85505 
L 255.225258 244.258218 
L 256.080063 244.258218 
L 256.080063 243.459802 
L 256.198363 243.459802 
L 256.198363 242.661386 
L 256.470352 242.661386 
L 256.470352 241.86297 
L 256.609808 241.86297 
L 256.609808 241.064554 
L 256.79584 241.064554 
L 256.820813 239.467723 
L 256.970854 239.467723 
L 257.007177 237.870891 
L 257.374281 237.870891 
L 257.455311 236.274059 
L 257.560286 236.274059 
L 257.560286 235.475644 
L 257.724474 235.475644 
L 257.745414 233.878812 
L 257.958895 233.878812 
L 257.958895 233.080396 
L 258.073306 233.080396 
L 258.151609 230.685149 
L 258.32061 230.685149 
L 258.32061 229.886733 
L 258.680067 229.886733 
L 258.680067 229.088317 
L 259.014433 229.088317 
L 259.106392 226.693069 
L 259.293017 226.693069 
L 259.293017 225.894653 
L 259.434638 225.894653 
L 259.434638 225.096238 
L 259.729516 225.096238 
L 259.729516 224.297822 
L 260.738825 224.297822 
L 260.738825 223.499406 
L 261.529765 223.499406 
L 261.560189 221.902574 
L 262.777489 221.902574 
L 262.777489 221.104158 
L 262.958782 221.104158 
L 262.958782 220.305743 
L 263.947171 220.305743 
L 263.947171 219.507327 
L 264.279434 219.507327 
L 264.279434 218.708911 
L 265.038183 218.708911 
L 265.123355 217.112079 
L 265.186994 217.112079 
L 265.186994 216.313663 
L 265.492346 216.313663 
L 265.492346 215.515248 
L 265.633153 215.515248 
L 265.633153 214.716832 
L 265.823725 214.716832 
L 265.852502 213.12 
L 266.080061 213.12 
L 266.133754 210.724752 
L 266.32114 210.724752 
L 266.32114 209.926337 
L 266.527965 209.926337 
L 266.633638 208.329505 
L 266.702098 208.329505 
L 266.718887 205.934257 
L 267.000832 205.934257 
L 267.019522 204.337426 
L 267.262058 204.337426 
L 267.262058 203.53901 
L 267.398574 203.53901 
L 267.49716 200.345347 
L 267.626639 200.345347 
L 267.717233 197.950099 
L 267.882036 197.950099 
L 267.882036 197.151683 
L 268.063691 197.151683 
L 268.091375 194.756436 
L 268.254037 194.756436 
L 268.254037 193.95802 
L 268.42832 193.95802 
L 268.514189 190.764356 
L 268.701751 190.764356 
L 268.701751 189.965941 
L 268.949376 189.965941 
L 268.949376 189.167525 
L 269.33639 189.167525 
L 269.390554 187.570693 
L 269.91887 187.570693 
L 269.91887 186.772277 
L 270.342427 186.772277 
L 270.342427 185.973861 
L 273.161518 185.973861 
L 273.161518 185.175446 
L 273.420158 185.175446 
L 273.420158 184.37703 
L 273.595264 184.37703 
L 273.595264 183.578614 
L 274.864714 183.578614 
L 274.864714 182.780198 
L 277.618784 182.780198 
L 277.711056 180.38495 
L 277.774741 180.38495 
L 277.774741 179.586535 
L 278.1009 179.586535 
L 278.155724 177.989703 
L 278.568025 177.989703 
L 278.568025 177.191287 
L 278.821951 177.191287 
L 278.821951 176.392871 
L 278.992091 176.392871 
L 278.992091 175.594455 
L 279.618728 175.594455 
L 279.651904 173.997624 
L 280.876753 173.997624 
L 280.876753 173.199208 
L 281.346092 173.199208 
L 281.346092 172.400792 
L 281.628681 172.400792 
L 281.628681 171.602376 
L 282.044806 171.602376 
L 282.044806 170.80396 
L 282.17569 170.80396 
L 282.17569 170.005545 
L 282.325515 170.005545 
L 282.417081 168.408713 
L 282.495964 168.408713 
L 282.497895 166.811881 
L 282.812158 166.811881 
L 282.910174 164.416634 
L 282.933745 164.416634 
L 282.933745 163.618218 
L 283.093795 163.618218 
L 283.170892 162.021386 
L 283.20668 162.021386 
L 283.216314 160.424554 
L 283.37009 160.424554 
L 283.450169 158.827723 
L 283.483717 158.827723 
L 283.550525 156.432475 
L 283.617853 156.432475 
L 283.697095 154.835644 
L 283.787274 154.835644 
L 283.787274 154.037228 
L 283.97883 154.037228 
L 283.97883 153.238812 
L 284.178156 153.238812 
L 284.178156 152.440396 
L 284.445303 152.440396 
L 284.543927 150.045149 
L 284.571661 150.045149 
L 284.571661 149.246733 
L 284.900408 149.246733 
L 284.900408 148.448317 
L 285.127185 148.448317 
L 285.231612 146.053069 
L 285.799315 146.053069 
L 285.884236 144.456238 
L 285.993614 144.456238 
L 286.011695 142.859406 
L 286.140689 142.859406 
L 286.155688 141.262574 
L 286.279463 141.262574 
L 286.374418 139.665743 
L 286.443829 139.665743 
L 286.443829 138.867327 
L 286.973477 138.867327 
L 286.973477 138.068911 
L 288.076221 138.068911 
L 288.086197 136.472079 
L 288.308574 136.472079 
L 288.417757 134.076832 
L 288.451652 134.076832 
L 288.451652 133.278416 
L 288.788157 133.278416 
L 288.788157 132.48 
L 288.944066 132.48 
L 289.0478 128.487921 
L 289.12766 128.487921 
L 289.12766 127.689505 
L 289.283525 127.689505 
L 289.330315 126.092673 
L 289.399174 126.092673 
L 289.482865 123.697426 
L 289.661716 123.697426 
L 289.662353 122.100594 
L 289.919738 122.100594 
L 290.000841 118.906931 
L 290.252179 118.906931 
L 290.269539 117.310099 
L 290.498186 117.310099 
L 290.541852 115.713267 
L 291.053162 115.713267 
L 291.05478 114.116436 
L 291.199599 114.116436 
L 291.255308 111.721188 
L 291.409968 111.721188 
L 291.409968 110.922772 
L 291.668115 110.922772 
L 291.738121 108.527525 
L 291.966622 108.527525 
L 291.966622 107.729109 
L 292.302982 107.729109 
L 292.302982 106.930693 
L 292.419854 106.930693 
L 292.434053 105.333861 
L 292.533838 105.333861 
L 292.560903 103.73703 
L 292.804929 103.73703 
L 292.804929 102.938614 
L 293.434021 102.938614 
L 293.434021 102.140198 
L 299.902775 102.140198 
L 299.902775 101.341782 
L 302.115502 101.341782 
L 302.115502 100.543366 
L 302.324294 100.543366 
L 302.324294 99.74495 
L 302.946558 99.74495 
L 302.946558 98.946535 
L 303.101424 98.946535 
L 303.101424 98.148119 
L 303.453282 98.148119 
L 303.52695 96.551287 
L 303.67484 96.551287 
L 303.67484 95.752871 
L 304.249563 95.752871 
L 304.249563 94.954455 
L 304.484893 94.954455 
L 304.496187 92.559208 
L 304.734968 92.559208 
L 304.734968 91.760792 
L 305.111441 91.760792 
L 305.111441 90.962376 
L 305.30401 90.962376 
L 305.31707 89.365545 
L 306.456407 89.365545 
L 306.456407 88.567129 
L 309.05758 88.567129 
L 309.05758 87.768713 
L 309.986062 87.768713 
L 309.986062 86.970297 
L 310.554277 86.970297 
L 310.554277 86.171881 
L 310.831594 86.171881 
L 310.831594 85.373465 
L 311.668244 85.373465 
L 311.668244 84.57505 
L 312.220272 84.57505 
L 312.234719 82.978218 
L 312.605127 82.978218 
L 312.605127 82.179802 
L 313.228204 82.179802 
L 313.228204 81.381386 
L 314.550775 81.381386 
L 314.621128 79.784554 
L 314.745638 79.784554 
L 314.745638 78.986139 
L 314.924321 78.986139 
L 314.924321 78.187723 
L 315.237427 78.187723 
L 315.237427 77.389307 
L 316.256485 77.389307 
L 316.256485 76.590891 
L 317.411199 76.590891 
L 317.411199 75.792475 
L 317.748906 75.792475 
L 317.748906 74.994059 
L 318.057763 74.994059 
L 318.057763 74.195644 
L 318.791548 74.195644 
L 318.791548 73.397228 
L 319.571761 73.397228 
L 319.571761 72.598812 
L 320.116636 72.598812 
L 320.116636 71.800396 
L 320.520838 71.800396 
L 320.540962 70.203564 
L 321.160842 70.203564 
L 321.160842 69.405149 
L 321.693777 69.405149 
L 321.693777 68.606733 
L 322.724531 68.606733 
L 322.724531 67.808317 
L 323.566551 67.808317 
L 323.566551 67.009901 
L 325.947384 67.009901 
L 325.947384 66.211485 
L 326.832759 66.211485 
L 326.832759 65.413069 
L 330.258954 65.413069 
L 330.258954 64.614653 
L 332.766696 64.614653 
L 332.766696 63.816238 
L 334.537895 63.816238 
L 334.537895 63.017822 
L 336.092143 63.017822 
L 336.115544 61.42099 
L 336.323177 61.42099 
L 336.323177 60.622574 
L 336.461481 60.622574 
L 336.461481 59.824158 
L 336.631355 59.824158 
L 336.631355 59.025743 
L 337.764403 59.025743 
L 337.764403 58.227327 
L 339.963647 58.227327 
L 339.963647 57.428911 
L 340.4164 57.428911 
L 340.518039 55.832079 
L 340.978355 55.832079 
L 340.978355 55.033663 
L 342.550288 55.033663 
L 342.550288 54.235248 
L 345.695216 54.235248 
L 345.695216 53.436832 
L 347.842782 53.436832 
L 347.842782 52.638416 
L 351.232511 52.638416 
L 351.232511 51.84 
L 351.995014 51.84 
L 352.014648 50.243168 
L 352.701803 50.243168 
L 352.701803 49.444752 
L 353.742606 49.444752 
L 353.742606 48.646337 
L 357.569091 48.646337 
L 357.569091 47.847921 
L 360.82503 47.847921 
L 360.868699 46.251089 
L 361.623053 46.251089 
L 361.623053 45.452673 
L 366.265538 45.452673 
L 366.265538 44.654257 
L 367.012104 44.654257 
L 367.012104 43.855842 
L 368.647783 43.855842 
L 368.647783 43.057426 
L 369.707629 43.057426 
L 369.707629 42.25901 
L 370.246495 42.25901 
L 370.246495 41.460594 
L 370.60235 41.460594 
L 370.60235 40.662178 
L 370.995398 40.662178 
L 370.995398 39.863762 
L 371.114548 39.863762 
L 371.114548 39.065347 
L 371.261748 39.065347 
L 371.261748 38.266931 
L 372.006903 38.266931 
L 372.006903 37.468515 
L 373.795375 37.468515 
L 373.891817 35.871683 
L 374.258471 35.871683 
L 374.258471 35.073267 
L 374.419486 35.073267 
L 374.495512 33.476436 
L 374.95549 33.476436 
L 374.95549 32.67802 
L 375.72714 32.67802 
L 375.72714 31.879604 
L 376.168628 31.879604 
L 376.168628 31.081188 
L 376.502721 31.081188 
L 376.613064 29.484356 
L 377.208162 29.484356 
L 377.208162 28.685941 
L 377.574668 28.685941 
L 377.574668 27.887525 
L 377.969887 27.887525 
L 377.969887 27.089109 
L 379.307694 27.089109 
L 379.406741 25.492277 
L 379.5483 25.492277 
L 379.5483 24.693861 
L 380.728375 24.693861 
L 380.728375 23.895446 
L 380.842929 23.895446 
L 380.842929 23.09703 
L 380.975451 23.09703 
L 380.975451 22.298614 
L 381.146232 22.298614 
L 381.146232 21.500198 
L 381.917231 21.500198 
L 381.917231 20.701782 
L 382.750319 20.701782 
L 382.750319 19.903366 
L 384.198809 19.903366 
L 384.198809 19.10495 
L 396.357015 19.10495 
L 396.357015 18.306535 
L 416.278022 18.306535 
L 416.278022 17.508119 
L 425.64849 17.508119 
L 425.64849 16.709703 
L 428.179342 16.709703 
L 428.179342 15.911287 
L 431.439358 15.911287 
L 431.439358 15.112871 
L 431.566801 15.112871 
L 431.566801 14.314455 
L 432.425027 14.314455 
L 432.425027 13.51604 
L 433.763007 13.51604 
L 433.763007 12.717624 
L 434.197194 12.717624 
L 434.197194 11.919208 
L 435.412825 11.919208 
L 435.515397 10.322376 
L 437.354967 10.322376 
L 437.453716 8.725545 
L 437.481581 8.725545 
L 437.481581 7.927129 
L 437.877803 7.927129 
L 437.877803 7.128713 
L 438.02608 7.128713 
L 438.02608 6.330297 
L 438.02608 6.330297 
L 460.8 6.330297 
L 460.8 6.330297 
" style="fill:none;stroke:#bf00bf;stroke-linecap:square;stroke-width:1.5;"/>
   </g>
   <g id="patch_3">
    <path d="M 0 293.76 
L 0 3.456 
" style="fill:none;stroke:#000000;stroke-linecap:square;stroke-linejoin:miter;stroke-width:0.8;"/>
   </g>
   <g id="patch_4">
    <path d="M 460.8 293.76 
L 460.8 3.456 
" style="fill:none;stroke:#000000;stroke-linecap:square;stroke-linejoin:miter;stroke-width:0.8;"/>
   </g>
   <g id="patch_5">
    <path d="M 0 293.76 
L 460.8 293.76 
" style="fill:none;stroke:#000000;stroke-linecap:square;stroke-linejoin:miter;stroke-width:0.8;"/>
   </g>
   <g id="patch_6">
    <path d="M 0 3.456 
L 460.8 3.456 
" style="fill:none;stroke:#000000;stroke-linecap:square;stroke-linejoin:miter;stroke-width:0.8;"/>
   </g>
   <g id="text_6">
    <!-- {f1-f24}, 20-D -->
    <g transform="translate(305.884 287.95392)scale(0.2 -0.2)">
     <defs>
      <path d="M 3272 -594 
L 3272 -1044 
L 3078 -1044 
Q 2300 -1044 2036 -812 
Q 1772 -581 1772 109 
L 1772 856 
Q 1772 1328 1603 1509 
Q 1434 1691 991 1691 
L 800 1691 
L 800 2138 
L 991 2138 
Q 1438 2138 1605 2317 
Q 1772 2497 1772 2963 
L 1772 3713 
Q 1772 4403 2036 4633 
Q 2300 4863 3078 4863 
L 3272 4863 
L 3272 4416 
L 3059 4416 
Q 2619 4416 2484 4278 
Q 2350 4141 2350 3700 
L 2350 2925 
Q 2350 2434 2208 2212 
Q 2066 1991 1722 1913 
Q 2069 1828 2209 1606 
Q 2350 1384 2350 897 
L 2350 122 
Q 2350 -319 2484 -456 
Q 2619 -594 3059 -594 
L 3272 -594 
z
" id="DejaVuSans-7b" transform="scale(0.015625)"/>
      <path d="M 1228 531 
L 3431 531 
L 3431 0 
L 469 0 
L 469 531 
Q 828 903 1448 1529 
Q 2069 2156 2228 2338 
Q 2531 2678 2651 2914 
Q 2772 3150 2772 3378 
Q 2772 3750 2511 3984 
Q 2250 4219 1831 4219 
Q 1534 4219 1204 4116 
Q 875 4013 500 3803 
L 500 4441 
Q 881 4594 1212 4672 
Q 1544 4750 1819 4750 
Q 2544 4750 2975 4387 
Q 3406 4025 3406 3419 
Q 3406 3131 3298 2873 
Q 3191 2616 2906 2266 
Q 2828 2175 2409 1742 
Q 1991 1309 1228 531 
z
" id="DejaVuSans-32" transform="scale(0.015625)"/>
      <path d="M 800 -594 
L 1019 -594 
Q 1456 -594 1589 -459 
Q 1722 -325 1722 122 
L 1722 897 
Q 1722 1384 1862 1606 
Q 2003 1828 2350 1913 
Q 2003 1991 1862 2212 
Q 1722 2434 1722 2925 
L 1722 3700 
Q 1722 4144 1589 4280 
Q 1456 4416 1019 4416 
L 800 4416 
L 800 4863 
L 997 4863 
Q 1775 4863 2036 4633 
Q 2297 4403 2297 3713 
L 2297 2963 
Q 2297 2497 2465 2317 
Q 2634 2138 3078 2138 
L 3272 2138 
L 3272 1691 
L 3078 1691 
Q 2634 1691 2465 1509 
Q 2297 1328 2297 856 
L 2297 109 
Q 2297 -581 2036 -812 
Q 1775 -1044 997 -1044 
L 800 -1044 
L 800 -594 
z
" id="DejaVuSans-7d" transform="scale(0.015625)"/>
      <path d="M 750 794 
L 1409 794 
L 1409 256 
L 897 -744 
L 494 -744 
L 750 256 
L 750 794 
z
" id="DejaVuSans-2c" transform="scale(0.015625)"/>
     </defs>
     <use xlink:href="#DejaVuSans-7b"/>
     <use x="63.623047" xlink:href="#DejaVuSans-66"/>
     <use x="98.828125" xlink:href="#DejaVuSans-31"/>
     <use x="162.451172" xlink:href="#DejaVuSans-2d"/>
     <use x="198.535156" xlink:href="#DejaVuSans-66"/>
     <use x="233.740234" xlink:href="#DejaVuSans-32"/>
     <use x="297.363281" xlink:href="#DejaVuSans-34"/>
     <use x="360.986328" xlink:href="#DejaVuSans-7d"/>
     <use x="424.609375" xlink:href="#DejaVuSans-2c"/>
     <use x="456.396484" xlink:href="#DejaVuSans-20"/>
     <use x="488.183594" xlink:href="#DejaVuSans-32"/>
     <use x="551.806641" xlink:href="#DejaVuSans-30"/>
     <use x="615.429688" xlink:href="#DejaVuSans-2d"/>
     <use x="651.513672" xlink:href="#DejaVuSans-44"/>
    </g>
   </g>
   <g id="text_7">
    <!-- v2.4 -->
    <g style="fill:#808080;" transform="translate(219.489063 288.777272)scale(0.1 -0.1)">
     <defs>
      <path d="M 191 3500 
L 800 3500 
L 1894 563 
L 2988 3500 
L 3597 3500 
L 2284 0 
L 1503 0 
L 191 3500 
z
" id="DejaVuSans-76" transform="scale(0.015625)"/>
      <path d="M 684 794 
L 1344 794 
L 1344 0 
L 684 0 
L 684 794 
z
" id="DejaVuSans-2e" transform="scale(0.015625)"/>
     </defs>
     <use xlink:href="#DejaVuSans-76"/>
     <use x="59.179688" xlink:href="#DejaVuSans-32"/>
     <use x="122.802734" xlink:href="#DejaVuSans-2e"/>
     <use x="154.589844" xlink:href="#DejaVuSans-34"/>
    </g>
   </g>
  </g>
 </g>
 <defs>
  <clipPath id="p03c530017b">
   <rect height="290.304" width="460.8" x="0" y="3.456"/>
  </clipPath>
 </defs>
</svg>
