<?xml version="1.0" encoding="utf-8" standalone="no"?>
<!DOCTYPE svg PUBLIC "-//W3C//DTD SVG 1.1//EN"
  "http://www.w3.org/Graphics/SVG/1.1/DTD/svg11.dtd">
<svg height="345.6pt" version="1.1" viewBox="0 0 460.8 345.6" width="460.8pt" xmlns="http://www.w3.org/2000/svg" xmlns:xlink="http://www.w3.org/1999/xlink">
 <metadata>
  <rdf:RDF xmlns:cc="http://creativecommons.org/ns#" xmlns:dc="http://purl.org/dc/elements/1.1/" xmlns:rdf="http://www.w3.org/1999/02/22-rdf-syntax-ns#">
   <cc:Work>
    <dc:type rdf:resource="http://purl.org/dc/dcmitype/StillImage"/>
    <dc:date>2021-06-14T12:33:40.706315</dc:date>
    <dc:format>image/svg+xml</dc:format>
    <dc:creator>
     <cc:Agent>
      <dc:title>Matplotlib v3.4.2, https://matplotlib.org/</dc:title>
     </cc:Agent>
    </dc:creator>
   </cc:Work>
  </rdf:RDF>
 </metadata>
 <defs>
  <style type="text/css">*{stroke-linecap:butt;stroke-linejoin:round;}</style>
 </defs>
 <g id="figure_1">
  <g id="patch_1">
   <path d="M 0 345.6 
L 460.8 345.6 
L 460.8 0 
L 0 0 
z
" style="fill:#ffffff;"/>
  </g>
  <g id="axes_1">
   <g id="patch_2">
    <path d="M 0 293.76 
L 460.8 293.76 
L 460.8 3.456 
L 0 3.456 
z
" style="fill:#ffffff;"/>
   </g>
   <g id="matplotlib.axis_1">
    <g id="xtick_1">
     <g id="line2d_1">
      <path clip-path="url(#p7fef867ecb)" d="M 109.321328 293.76 
L 109.321328 3.456 
" style="fill:none;stroke:#b0b0b0;stroke-linecap:square;stroke-width:0.8;"/>
     </g>
     <g id="line2d_2">
      <defs>
       <path d="M 0 0 
L 0 3.5 
" id="m5bf97f74df" style="stroke:#000000;stroke-width:0.8;"/>
      </defs>
      <g>
       <use style="stroke:#000000;stroke-width:0.8;" x="109.321328" xlink:href="#m5bf97f74df" y="293.76"/>
      </g>
     </g>
     <g id="text_1">
      <!-- -4 -->
      <g transform="translate(99.351016 315.956875)scale(0.2 -0.2)">
       <defs>
        <path d="M 313 2009 
L 1997 2009 
L 1997 1497 
L 313 1497 
L 313 2009 
z
" id="DejaVuSans-2d" transform="scale(0.015625)"/>
        <path d="M 2419 4116 
L 825 1625 
L 2419 1625 
L 2419 4116 
z
M 2253 4666 
L 3047 4666 
L 3047 1625 
L 3713 1625 
L 3713 1100 
L 3047 1100 
L 3047 0 
L 2419 0 
L 2419 1100 
L 313 1100 
L 313 1709 
L 2253 4666 
z
" id="DejaVuSans-34" transform="scale(0.015625)"/>
       </defs>
       <use xlink:href="#DejaVuSans-2d"/>
       <use x="36.083984" xlink:href="#DejaVuSans-34"/>
      </g>
     </g>
    </g>
    <g id="xtick_2">
     <g id="line2d_3">
      <path clip-path="url(#p7fef867ecb)" d="M 218.760889 293.76 
L 218.760889 3.456 
" style="fill:none;stroke:#b0b0b0;stroke-linecap:square;stroke-width:0.8;"/>
     </g>
     <g id="line2d_4">
      <g>
       <use style="stroke:#000000;stroke-width:0.8;" x="218.760889" xlink:href="#m5bf97f74df" y="293.76"/>
      </g>
     </g>
     <g id="text_2">
      <!-- 0 -->
      <g transform="translate(212.398389 315.956875)scale(0.2 -0.2)">
       <defs>
        <path d="M 2034 4250 
Q 1547 4250 1301 3770 
Q 1056 3291 1056 2328 
Q 1056 1369 1301 889 
Q 1547 409 2034 409 
Q 2525 409 2770 889 
Q 3016 1369 3016 2328 
Q 3016 3291 2770 3770 
Q 2525 4250 2034 4250 
z
M 2034 4750 
Q 2819 4750 3233 4129 
Q 3647 3509 3647 2328 
Q 3647 1150 3233 529 
Q 2819 -91 2034 -91 
Q 1250 -91 836 529 
Q 422 1150 422 2328 
Q 422 3509 836 4129 
Q 1250 4750 2034 4750 
z
" id="DejaVuSans-30" transform="scale(0.015625)"/>
       </defs>
       <use xlink:href="#DejaVuSans-30"/>
      </g>
     </g>
    </g>
    <g id="xtick_3">
     <g id="line2d_5">
      <path clip-path="url(#p7fef867ecb)" d="M 328.20045 293.76 
L 328.20045 3.456 
" style="fill:none;stroke:#b0b0b0;stroke-linecap:square;stroke-width:0.8;"/>
     </g>
     <g id="line2d_6">
      <g>
       <use style="stroke:#000000;stroke-width:0.8;" x="328.20045" xlink:href="#m5bf97f74df" y="293.76"/>
      </g>
     </g>
     <g id="text_3">
      <!-- 4 -->
      <g transform="translate(321.83795 315.956875)scale(0.2 -0.2)">
       <use xlink:href="#DejaVuSans-34"/>
      </g>
     </g>
    </g>
    <g id="xtick_4">
     <g id="line2d_7">
      <path clip-path="url(#p7fef867ecb)" d="M 437.640011 293.76 
L 437.640011 3.456 
" style="fill:none;stroke:#b0b0b0;stroke-linecap:square;stroke-width:0.8;"/>
     </g>
     <g id="line2d_8">
      <g>
       <use style="stroke:#000000;stroke-width:0.8;" x="437.640011" xlink:href="#m5bf97f74df" y="293.76"/>
      </g>
     </g>
     <g id="text_4">
      <!-- 8 -->
      <g transform="translate(431.277511 315.956875)scale(0.2 -0.2)">
       <defs>
        <path d="M 2034 2216 
Q 1584 2216 1326 1975 
Q 1069 1734 1069 1313 
Q 1069 891 1326 650 
Q 1584 409 2034 409 
Q 2484 409 2743 651 
Q 3003 894 3003 1313 
Q 3003 1734 2745 1975 
Q 2488 2216 2034 2216 
z
M 1403 2484 
Q 997 2584 770 2862 
Q 544 3141 544 3541 
Q 544 4100 942 4425 
Q 1341 4750 2034 4750 
Q 2731 4750 3128 4425 
Q 3525 4100 3525 3541 
Q 3525 3141 3298 2862 
Q 3072 2584 2669 2484 
Q 3125 2378 3379 2068 
Q 3634 1759 3634 1313 
Q 3634 634 3220 271 
Q 2806 -91 2034 -91 
Q 1263 -91 848 271 
Q 434 634 434 1313 
Q 434 1759 690 2068 
Q 947 2378 1403 2484 
z
M 1172 3481 
Q 1172 3119 1398 2916 
Q 1625 2713 2034 2713 
Q 2441 2713 2670 2916 
Q 2900 3119 2900 3481 
Q 2900 3844 2670 4047 
Q 2441 4250 2034 4250 
Q 1625 4250 1398 4047 
Q 1172 3844 1172 3481 
z
" id="DejaVuSans-38" transform="scale(0.015625)"/>
       </defs>
       <use xlink:href="#DejaVuSans-38"/>
      </g>
     </g>
    </g>
    <g id="text_5">
     <!-- log10 of Df -->
     <g transform="translate(175.214063 339.313125)scale(0.2 -0.2)">
      <defs>
       <path d="M 603 4863 
L 1178 4863 
L 1178 0 
L 603 0 
L 603 4863 
z
" id="DejaVuSans-6c" transform="scale(0.015625)"/>
       <path d="M 1959 3097 
Q 1497 3097 1228 2736 
Q 959 2375 959 1747 
Q 959 1119 1226 758 
Q 1494 397 1959 397 
Q 2419 397 2687 759 
Q 2956 1122 2956 1747 
Q 2956 2369 2687 2733 
Q 2419 3097 1959 3097 
z
M 1959 3584 
Q 2709 3584 3137 3096 
Q 3566 2609 3566 1747 
Q 3566 888 3137 398 
Q 2709 -91 1959 -91 
Q 1206 -91 779 398 
Q 353 888 353 1747 
Q 353 2609 779 3096 
Q 1206 3584 1959 3584 
z
" id="DejaVuSans-6f" transform="scale(0.015625)"/>
       <path d="M 2906 1791 
Q 2906 2416 2648 2759 
Q 2391 3103 1925 3103 
Q 1463 3103 1205 2759 
Q 947 2416 947 1791 
Q 947 1169 1205 825 
Q 1463 481 1925 481 
Q 2391 481 2648 825 
Q 2906 1169 2906 1791 
z
M 3481 434 
Q 3481 -459 3084 -895 
Q 2688 -1331 1869 -1331 
Q 1566 -1331 1297 -1286 
Q 1028 -1241 775 -1147 
L 775 -588 
Q 1028 -725 1275 -790 
Q 1522 -856 1778 -856 
Q 2344 -856 2625 -561 
Q 2906 -266 2906 331 
L 2906 616 
Q 2728 306 2450 153 
Q 2172 0 1784 0 
Q 1141 0 747 490 
Q 353 981 353 1791 
Q 353 2603 747 3093 
Q 1141 3584 1784 3584 
Q 2172 3584 2450 3431 
Q 2728 3278 2906 2969 
L 2906 3500 
L 3481 3500 
L 3481 434 
z
" id="DejaVuSans-67" transform="scale(0.015625)"/>
       <path d="M 794 531 
L 1825 531 
L 1825 4091 
L 703 3866 
L 703 4441 
L 1819 4666 
L 2450 4666 
L 2450 531 
L 3481 531 
L 3481 0 
L 794 0 
L 794 531 
z
" id="DejaVuSans-31" transform="scale(0.015625)"/>
       <path id="DejaVuSans-20" transform="scale(0.015625)"/>
       <path d="M 2375 4863 
L 2375 4384 
L 1825 4384 
Q 1516 4384 1395 4259 
Q 1275 4134 1275 3809 
L 1275 3500 
L 2222 3500 
L 2222 3053 
L 1275 3053 
L 1275 0 
L 697 0 
L 697 3053 
L 147 3053 
L 147 3500 
L 697 3500 
L 697 3744 
Q 697 4328 969 4595 
Q 1241 4863 1831 4863 
L 2375 4863 
z
" id="DejaVuSans-66" transform="scale(0.015625)"/>
       <path d="M 1259 4147 
L 1259 519 
L 2022 519 
Q 2988 519 3436 956 
Q 3884 1394 3884 2338 
Q 3884 3275 3436 3711 
Q 2988 4147 2022 4147 
L 1259 4147 
z
M 628 4666 
L 1925 4666 
Q 3281 4666 3915 4102 
Q 4550 3538 4550 2338 
Q 4550 1131 3912 565 
Q 3275 0 1925 0 
L 628 0 
L 628 4666 
z
" id="DejaVuSans-44" transform="scale(0.015625)"/>
      </defs>
      <use xlink:href="#DejaVuSans-6c"/>
      <use x="27.783203" xlink:href="#DejaVuSans-6f"/>
      <use x="88.964844" xlink:href="#DejaVuSans-67"/>
      <use x="152.441406" xlink:href="#DejaVuSans-31"/>
      <use x="216.064453" xlink:href="#DejaVuSans-30"/>
      <use x="279.6875" xlink:href="#DejaVuSans-20"/>
      <use x="311.474609" xlink:href="#DejaVuSans-6f"/>
      <use x="372.65625" xlink:href="#DejaVuSans-66"/>
      <use x="407.861328" xlink:href="#DejaVuSans-20"/>
      <use x="439.648438" xlink:href="#DejaVuSans-44"/>
      <use x="516.650391" xlink:href="#DejaVuSans-66"/>
     </g>
    </g>
   </g>
   <g id="matplotlib.axis_2">
    <g id="ytick_1">
     <g id="line2d_9">
      <path clip-path="url(#p7fef867ecb)" d="M 0 293.76 
L 460.8 293.76 
" style="fill:none;stroke:#b0b0b0;stroke-linecap:square;stroke-width:0.8;"/>
     </g>
     <g id="line2d_10">
      <defs>
       <path d="M 0 0 
L -3.5 0 
" id="m178d088ccd" style="stroke:#000000;stroke-width:0.8;"/>
      </defs>
      <g>
       <use style="stroke:#000000;stroke-width:0.8;" x="0" xlink:href="#m178d088ccd" y="293.76"/>
      </g>
     </g>
    </g>
    <g id="ytick_2">
     <g id="line2d_11">
      <path clip-path="url(#p7fef867ecb)" d="M 0 236.274059 
L 460.8 236.274059 
" style="fill:none;stroke:#b0b0b0;stroke-linecap:square;stroke-width:0.8;"/>
     </g>
     <g id="line2d_12">
      <g>
       <use style="stroke:#000000;stroke-width:0.8;" x="0" xlink:href="#m178d088ccd" y="236.274059"/>
      </g>
     </g>
    </g>
    <g id="ytick_3">
     <g id="line2d_13">
      <path clip-path="url(#p7fef867ecb)" d="M 0 178.788119 
L 460.8 178.788119 
" style="fill:none;stroke:#b0b0b0;stroke-linecap:square;stroke-width:0.8;"/>
     </g>
     <g id="line2d_14">
      <g>
       <use style="stroke:#000000;stroke-width:0.8;" x="0" xlink:href="#m178d088ccd" y="178.788119"/>
      </g>
     </g>
    </g>
    <g id="ytick_4">
     <g id="line2d_15">
      <path clip-path="url(#p7fef867ecb)" d="M 0 121.302178 
L 460.8 121.302178 
" style="fill:none;stroke:#b0b0b0;stroke-linecap:square;stroke-width:0.8;"/>
     </g>
     <g id="line2d_16">
      <g>
       <use style="stroke:#000000;stroke-width:0.8;" x="0" xlink:href="#m178d088ccd" y="121.302178"/>
      </g>
     </g>
    </g>
    <g id="ytick_5">
     <g id="line2d_17">
      <path clip-path="url(#p7fef867ecb)" d="M 0 63.816238 
L 460.8 63.816238 
" style="fill:none;stroke:#b0b0b0;stroke-linecap:square;stroke-width:0.8;"/>
     </g>
     <g id="line2d_18">
      <g>
       <use style="stroke:#000000;stroke-width:0.8;" x="0" xlink:href="#m178d088ccd" y="63.816238"/>
      </g>
     </g>
    </g>
    <g id="ytick_6">
     <g id="line2d_19">
      <path clip-path="url(#p7fef867ecb)" d="M 0 6.330297 
L 460.8 6.330297 
" style="fill:none;stroke:#b0b0b0;stroke-linecap:square;stroke-width:0.8;"/>
     </g>
     <g id="line2d_20">
      <g>
       <use style="stroke:#000000;stroke-width:0.8;" x="0" xlink:href="#m178d088ccd" y="6.330297"/>
      </g>
     </g>
    </g>
   </g>
   <g id="line2d_21">
    <path clip-path="url(#p7fef867ecb)" d="M 222.460058 293.76 
L 222.491678 286.095208 
L 223.205661 286.095208 
L 223.205661 282.262812 
L 227.192488 282.262812 
L 227.192488 278.430416 
L 227.678261 278.430416 
L 227.678261 274.59802 
L 229.616734 274.59802 
L 229.616734 270.765624 
L 232.470637 270.765624 
L 232.470637 266.933228 
L 235.96779 266.933228 
L 235.96779 263.100832 
L 237.907541 263.100832 
L 237.907541 259.268436 
L 238.224853 259.268436 
L 238.224853 255.43604 
L 240.584432 255.43604 
L 240.584432 251.603644 
L 240.701351 251.603644 
L 240.701351 247.771248 
L 244.935689 247.771248 
L 244.935689 243.938851 
L 245.269655 243.938851 
L 245.269655 240.106455 
L 250.160423 240.106455 
L 250.160423 236.274059 
L 255.341083 236.274059 
L 255.341083 232.441663 
L 256.886326 232.441663 
L 256.886326 228.609267 
L 257.828949 228.609267 
L 257.828949 224.776871 
L 259.047367 224.776871 
L 259.047367 220.944475 
L 260.425163 220.944475 
L 260.495966 209.447287 
L 260.784752 209.447287 
L 260.784752 205.614891 
L 261.105984 205.614891 
L 261.105984 201.782495 
L 261.438382 201.782495 
L 261.457404 194.117703 
L 261.752629 194.117703 
L 261.752629 190.285307 
L 262.123124 190.285307 
L 262.211069 182.620515 
L 262.926741 182.620515 
L 262.943226 174.955723 
L 263.134692 174.955723 
L 263.200562 167.290931 
L 263.289538 167.290931 
L 263.347835 159.626139 
L 264.022941 159.626139 
L 264.022941 155.793743 
L 264.55646 155.793743 
L 264.643626 148.12895 
L 264.72248 148.12895 
L 264.72248 144.296554 
L 264.875868 144.296554 
L 264.875868 140.464158 
L 265.074944 140.464158 
L 265.17046 132.799366 
L 265.254956 132.799366 
L 265.3392 121.302178 
L 265.377994 121.302178 
L 265.377994 117.469782 
L 266.06161 117.469782 
L 266.141817 105.972594 
L 266.417054 105.972594 
L 266.417054 102.140198 
L 266.761652 102.140198 
L 266.774822 94.475406 
L 267.078881 94.475406 
L 267.078881 90.64301 
L 268.343499 90.64301 
L 268.343499 86.810614 
L 268.884854 86.810614 
L 268.884854 82.978218 
L 269.574672 82.978218 
L 269.574672 79.145822 
L 269.798996 79.145822 
L 269.798996 75.313426 
L 270.046558 75.313426 
L 270.046558 71.48103 
L 270.920905 71.48103 
L 270.920905 67.648634 
L 271.07706 67.648634 
L 271.07706 63.816238 
L 303.124236 63.816238 
L 303.124236 59.983842 
L 311.217769 59.983842 
L 311.217769 56.151446 
L 314.729795 56.151446 
L 314.729795 52.31905 
L 323.959868 52.31905 
L 323.959868 48.486653 
L 331.100072 48.486653 
L 331.100072 44.654257 
L 331.982723 44.654257 
L 331.982723 40.821861 
L 332.424204 40.821861 
L 332.424204 36.989465 
L 334.401113 36.989465 
L 334.401113 33.157069 
L 336.588221 33.157069 
L 336.588221 29.324673 
L 338.742608 29.324673 
L 338.742608 25.492277 
L 339.58448 25.492277 
L 339.58448 21.659881 
L 341.279557 21.659881 
L 341.279557 17.827485 
L 343.991961 17.827485 
L 343.991961 13.995089 
L 344.721976 13.995089 
L 344.721976 10.162693 
L 346.111518 10.162693 
L 346.111518 6.330297 
L 346.111518 6.330297 
L 460.8 6.330297 
L 460.8 6.330297 
" style="fill:none;stroke:#ff0000;stroke-linecap:square;stroke-width:3;"/>
   </g>
   <g id="line2d_22">
    <path clip-path="url(#p7fef867ecb)" d="M 244.45272 293.76 
L 244.45272 289.927604 
L 249.732919 289.927604 
L 249.732919 286.095208 
L 251.096641 286.095208 
L 251.096641 282.262812 
L 252.388556 282.262812 
L 252.388556 278.430416 
L 257.08884 278.430416 
L 257.08884 274.59802 
L 257.411735 274.59802 
L 257.509574 266.933228 
L 257.803511 266.933228 
L 257.803511 263.100832 
L 260.237279 263.100832 
L 260.237279 259.268436 
L 263.571378 259.268436 
L 263.571378 255.43604 
L 264.007593 255.43604 
L 264.068779 247.771248 
L 264.329165 247.771248 
L 264.329165 243.938851 
L 267.450745 243.938851 
L 267.450745 240.106455 
L 268.258044 240.106455 
L 268.258044 236.274059 
L 269.831263 236.274059 
L 269.831263 232.441663 
L 270.965782 232.441663 
L 270.965782 228.609267 
L 271.854638 228.609267 
L 271.854638 224.776871 
L 272.024792 224.776871 
L 272.024792 220.944475 
L 272.363176 220.944475 
L 272.387329 209.447287 
L 272.489257 209.447287 
L 272.489257 205.614891 
L 272.668135 205.614891 
L 272.708402 197.950099 
L 272.848492 197.950099 
L 272.848492 194.117703 
L 273.215945 194.117703 
L 273.215945 190.285307 
L 273.721109 190.285307 
L 273.814501 174.955723 
L 273.891721 174.955723 
L 273.891721 171.123327 
L 274.116054 171.123327 
L 274.21945 163.458535 
L 274.486871 163.458535 
L 274.488408 155.793743 
L 275.289539 155.793743 
L 275.289539 151.961347 
L 275.443391 151.961347 
L 275.443391 148.12895 
L 275.685115 148.12895 
L 275.785527 132.799366 
L 275.890314 132.799366 
L 275.890314 128.96697 
L 276.063109 128.96697 
L 276.063109 125.134574 
L 276.653521 125.134574 
L 276.653521 121.302178 
L 277.822436 121.302178 
L 277.822436 117.469782 
L 278.530928 117.469782 
L 278.530928 113.637386 
L 278.653499 113.637386 
L 278.653499 109.80499 
L 279.88566 109.80499 
L 279.88566 105.972594 
L 280.028392 105.972594 
L 280.028392 102.140198 
L 281.433343 102.140198 
L 281.433343 98.307802 
L 282.048475 98.307802 
L 282.048475 94.475406 
L 282.181473 94.475406 
L 282.181473 90.64301 
L 282.452334 90.64301 
L 282.452334 86.810614 
L 283.318562 86.810614 
L 283.318562 82.978218 
L 284.099187 82.978218 
L 284.099187 79.145822 
L 285.281502 79.145822 
L 285.281502 75.313426 
L 287.146615 75.313426 
L 287.146615 71.48103 
L 289.295636 71.48103 
L 289.295636 67.648634 
L 302.357844 67.648634 
L 302.357844 63.816238 
L 347.660401 63.816238 
L 347.660401 59.983842 
L 355.077975 59.983842 
L 355.077975 56.151446 
L 363.760131 56.151446 
L 363.760131 52.31905 
L 373.347337 52.31905 
L 373.347337 48.486653 
L 383.492553 48.486653 
L 383.492553 44.654257 
L 384.28354 44.654257 
L 384.28354 40.821861 
L 397.507475 40.821861 
L 397.507475 36.989465 
L 400.260579 36.989465 
L 400.260579 33.157069 
L 405.497513 33.157069 
L 405.497513 29.324673 
L 409.712031 29.324673 
L 409.796588 21.659881 
L 411.372945 21.659881 
L 411.372945 17.827485 
L 412.991902 17.827485 
L 412.991902 13.995089 
L 416.128238 13.995089 
L 416.128238 10.162693 
L 419.491633 10.162693 
L 419.491633 6.330297 
L 419.491633 6.330297 
L 460.8 6.330297 
L 460.8 6.330297 
" style="fill:none;stroke:#00bfbf;stroke-linecap:square;stroke-width:1.5;"/>
   </g>
   <g id="line2d_23">
    <path clip-path="url(#p7fef867ecb)" d="M 235.280841 293.76 
L 235.280841 289.927604 
L 243.851515 289.927604 
L 243.851515 286.095208 
L 244.45272 286.095208 
L 244.45272 282.262812 
L 249.377399 282.262812 
L 249.377399 278.430416 
L 249.732919 278.430416 
L 249.732919 274.59802 
L 250.518088 274.59802 
L 250.518088 270.765624 
L 251.480624 270.765624 
L 251.480624 266.933228 
L 254.659082 266.933228 
L 254.659082 263.100832 
L 257.411735 263.100832 
L 257.411735 259.268436 
L 257.637918 259.268436 
L 257.637918 255.43604 
L 261.075227 255.43604 
L 261.075227 251.603644 
L 261.973489 251.603644 
L 261.973489 247.771248 
L 262.182848 247.771248 
L 262.182848 243.938851 
L 262.970608 243.938851 
L 262.970608 240.106455 
L 263.594579 240.106455 
L 263.594579 236.274059 
L 265.265305 236.274059 
L 265.265305 232.441663 
L 265.692721 232.441663 
L 265.692721 228.609267 
L 268.354839 228.609267 
L 268.354839 224.776871 
L 268.659581 224.776871 
L 268.659581 220.944475 
L 269.831263 220.944475 
L 269.831263 217.112079 
L 270.340657 217.112079 
L 270.425293 209.447287 
L 270.525695 209.447287 
L 270.525695 205.614891 
L 270.725876 205.614891 
L 270.725876 201.782495 
L 270.937692 201.782495 
L 270.937692 197.950099 
L 271.446755 197.950099 
L 271.446755 194.117703 
L 271.65308 194.117703 
L 271.65308 190.285307 
L 271.854638 190.285307 
L 271.854638 186.452911 
L 272.024792 186.452911 
L 272.024792 182.620515 
L 272.156948 182.620515 
L 272.156948 178.788119 
L 272.299159 178.788119 
L 272.391336 167.290931 
L 272.410942 167.290931 
L 272.489257 159.626139 
L 272.678523 159.626139 
L 272.789607 151.961347 
L 272.802576 151.961347 
L 272.818423 144.296554 
L 273.321053 144.296554 
L 273.321053 140.464158 
L 273.829648 140.464158 
L 273.888319 132.799366 
L 274.333687 132.799366 
L 274.333687 128.96697 
L 274.76503 128.96697 
L 274.76503 125.134574 
L 274.995558 125.134574 
L 274.995558 121.302178 
L 275.418203 121.302178 
L 275.443391 113.637386 
L 275.685115 113.637386 
L 275.69396 105.972594 
L 275.890314 105.972594 
L 275.890314 102.140198 
L 276.063109 102.140198 
L 276.063109 98.307802 
L 276.459508 98.307802 
L 276.459508 94.475406 
L 277.207899 94.475406 
L 277.207899 90.64301 
L 279.058776 90.64301 
L 279.058776 86.810614 
L 279.381903 86.810614 
L 279.381903 82.978218 
L 279.627782 82.978218 
L 279.627782 79.145822 
L 279.757414 79.145822 
L 279.757414 75.313426 
L 282.181473 75.313426 
L 282.181473 71.48103 
L 283.968111 71.48103 
L 283.968111 67.648634 
L 284.170912 67.648634 
L 284.170912 63.816238 
L 337.676914 63.816238 
L 337.676914 59.983842 
L 345.50344 59.983842 
L 345.50344 56.151446 
L 355.077975 56.151446 
L 355.077975 52.31905 
L 355.57373 52.31905 
L 355.57373 48.486653 
L 364.242259 48.486653 
L 364.242259 44.654257 
L 370.275023 44.654257 
L 370.275023 40.821861 
L 377.754853 40.821861 
L 377.754853 36.989465 
L 383.627371 36.989465 
L 383.627371 33.157069 
L 387.031802 33.157069 
L 387.031802 29.324673 
L 392.016413 29.324673 
L 392.016413 25.492277 
L 393.917334 25.492277 
L 393.917334 21.659881 
L 407.176883 21.659881 
L 407.176883 17.827485 
L 408.375181 17.827485 
L 408.375181 13.995089 
L 409.083355 13.995089 
L 409.083355 10.162693 
L 409.712031 10.162693 
L 409.712031 6.330297 
L 409.712031 6.330297 
L 460.8 6.330297 
L 460.8 6.330297 
" style="fill:none;stroke:#bf00bf;stroke-linecap:square;stroke-width:1.5;"/>
   </g>
   <g id="line2d_24">
    <path clip-path="url(#p7fef867ecb)" d="M 235.280841 293.76 
L 235.280841 289.927604 
L 239.441754 289.927604 
L 239.441754 286.095208 
L 239.890672 286.095208 
L 239.890672 282.262812 
L 243.851515 282.262812 
L 243.851515 278.430416 
L 244.45272 278.430416 
L 244.45272 274.59802 
L 244.895952 274.59802 
L 244.895952 270.765624 
L 247.668775 270.765624 
L 247.668775 266.933228 
L 250.160423 266.933228 
L 250.160423 263.100832 
L 251.480624 263.100832 
L 251.480624 259.268436 
L 252.999538 259.268436 
L 252.999538 255.43604 
L 254.901397 255.43604 
L 254.901397 251.603644 
L 257.411735 251.603644 
L 257.411735 247.771248 
L 257.637918 247.771248 
L 257.637918 243.938851 
L 258.083846 243.938851 
L 258.083846 240.106455 
L 261.438382 240.106455 
L 261.438382 236.274059 
L 261.973489 236.274059 
L 261.973489 232.441663 
L 263.594579 232.441663 
L 263.594579 228.609267 
L 265.265305 228.609267 
L 265.265305 224.776871 
L 265.62436 224.776871 
L 265.62436 220.944475 
L 265.915236 220.944475 
L 265.915236 217.112079 
L 267.679515 217.112079 
L 267.679515 213.279683 
L 268.354839 213.279683 
L 268.43844 205.614891 
L 268.517078 205.614891 
L 268.517078 201.782495 
L 268.659581 201.782495 
L 268.659581 197.950099 
L 269.831263 197.950099 
L 269.921563 186.452911 
L 270.340657 186.452911 
L 270.431526 174.955723 
L 270.525695 174.955723 
L 270.525695 171.123327 
L 270.725876 171.123327 
L 270.725876 167.290931 
L 270.937692 167.290931 
L 270.937692 163.458535 
L 271.446755 163.458535 
L 271.446755 159.626139 
L 271.65308 159.626139 
L 271.65308 155.793743 
L 271.795227 155.793743 
L 271.854638 148.12895 
L 272.024792 148.12895 
L 272.024792 144.296554 
L 272.299159 144.296554 
L 272.391336 132.799366 
L 272.410942 132.799366 
L 272.445841 125.134574 
L 272.678523 125.134574 
L 272.678523 121.302178 
L 274.333687 121.302178 
L 274.333687 117.469782 
L 274.76503 117.469782 
L 274.76503 113.637386 
L 274.995558 113.637386 
L 274.995558 109.80499 
L 275.123345 109.80499 
L 275.123345 105.972594 
L 275.562028 105.972594 
L 275.577921 98.307802 
L 275.69396 98.307802 
L 275.69396 94.475406 
L 275.890314 94.475406 
L 275.890314 90.64301 
L 276.063109 90.64301 
L 276.063109 86.810614 
L 276.459508 86.810614 
L 276.459508 82.978218 
L 276.774985 82.978218 
L 276.774985 79.145822 
L 277.112824 79.145822 
L 277.112824 75.313426 
L 278.498355 75.313426 
L 278.498355 71.48103 
L 279.058776 71.48103 
L 279.058776 67.648634 
L 279.381903 67.648634 
L 279.381903 63.816238 
L 337.676914 63.816238 
L 337.676914 59.983842 
L 343.205683 59.983842 
L 343.205683 56.151446 
L 344.285008 56.151446 
L 344.285008 52.31905 
L 345.50344 52.31905 
L 345.50344 48.486653 
L 355.57373 48.486653 
L 355.57373 44.654257 
L 363.475018 44.654257 
L 363.475018 40.821861 
L 364.242259 40.821861 
L 364.242259 36.989465 
L 368.274154 36.989465 
L 368.274154 33.157069 
L 368.752923 33.157069 
L 368.752923 29.324673 
L 370.275023 29.324673 
L 370.275023 25.492277 
L 371.324967 25.492277 
L 371.324967 21.659881 
L 377.709575 21.659881 
L 377.754853 13.995089 
L 403.44066 13.995089 
L 403.44066 10.162693 
L 409.083355 10.162693 
L 409.083355 6.330297 
L 409.083355 6.330297 
L 460.8 6.330297 
L 460.8 6.330297 
" style="fill:none;stroke:#000000;stroke-linecap:square;stroke-width:1.5;"/>
   </g>
   <g id="line2d_25">
    <path clip-path="url(#p7fef867ecb)" d="M 222.460058 293.76 
L 222.460058 289.927604 
L 234.85632 289.927604 
L 234.85632 286.095208 
L 239.441754 286.095208 
L 239.441754 282.262812 
L 239.890672 282.262812 
L 239.890672 278.430416 
L 240.701351 278.430416 
L 240.701351 274.59802 
L 243.702962 274.59802 
L 243.702962 270.765624 
L 243.851515 270.765624 
L 243.851515 266.933228 
L 244.45272 266.933228 
L 244.45272 263.100832 
L 244.895952 263.100832 
L 244.895952 259.268436 
L 250.160423 259.268436 
L 250.160423 255.43604 
L 251.434653 255.43604 
L 251.434653 251.603644 
L 252.999538 251.603644 
L 252.999538 247.771248 
L 254.901397 247.771248 
L 254.901397 243.938851 
L 257.637918 243.938851 
L 257.637918 240.106455 
L 260.961062 240.106455 
L 260.961062 236.274059 
L 261.105984 236.274059 
L 261.105984 232.441663 
L 261.438382 232.441663 
L 261.491855 224.776871 
L 263.134692 224.776871 
L 263.134692 220.944475 
L 264.160156 220.944475 
L 264.160156 217.112079 
L 264.875868 217.112079 
L 264.898431 209.447287 
L 265.265305 209.447287 
L 265.265305 205.614891 
L 265.62436 205.614891 
L 265.62436 201.782495 
L 265.915236 201.782495 
L 265.915236 197.950099 
L 266.491284 197.950099 
L 266.491284 194.117703 
L 266.689102 194.117703 
L 266.689102 190.285307 
L 267.047398 190.285307 
L 267.078881 182.620515 
L 267.424026 182.620515 
L 267.424026 178.788119 
L 267.679515 178.788119 
L 267.679515 174.955723 
L 267.964872 174.955723 
L 267.964872 171.123327 
L 268.335245 171.123327 
L 268.43844 163.458535 
L 268.655976 163.458535 
L 268.655976 159.626139 
L 268.81237 159.626139 
L 268.81237 155.793743 
L 269.812308 155.793743 
L 269.917117 144.296554 
L 270.027896 144.296554 
L 270.027896 140.464158 
L 270.340657 140.464158 
L 270.400512 132.799366 
L 270.525695 132.799366 
L 270.636011 125.134574 
L 270.937692 125.134574 
L 270.937692 121.302178 
L 271.095052 121.302178 
L 271.095052 117.469782 
L 271.447976 117.469782 
L 271.511534 109.80499 
L 271.816831 109.80499 
L 271.816831 105.972594 
L 272.024792 105.972594 
L 272.024792 102.140198 
L 272.299159 102.140198 
L 272.299159 98.307802 
L 272.720113 98.307802 
L 272.720113 94.475406 
L 274.995558 94.475406 
L 275.028357 86.810614 
L 275.123345 86.810614 
L 275.123345 82.978218 
L 275.456899 82.978218 
L 275.456899 79.145822 
L 275.69396 79.145822 
L 275.69396 75.313426 
L 275.913391 75.313426 
L 275.913391 71.48103 
L 276.318049 71.48103 
L 276.318049 67.648634 
L 277.236215 67.648634 
L 277.236215 63.816238 
L 335.209687 63.816238 
L 335.209687 59.983842 
L 337.676914 59.983842 
L 337.676914 56.151446 
L 339.58448 56.151446 
L 339.58448 52.31905 
L 341.482 52.31905 
L 341.482 48.486653 
L 342.256218 48.486653 
L 342.256218 44.654257 
L 343.205683 44.654257 
L 343.205683 40.821861 
L 344.721976 40.821861 
L 344.721976 36.989465 
L 345.50344 36.989465 
L 345.50344 33.157069 
L 347.707068 33.157069 
L 347.707068 29.324673 
L 351.639214 29.324673 
L 351.639214 25.492277 
L 352.054851 25.492277 
L 352.054851 21.659881 
L 353.009349 21.659881 
L 353.009349 17.827485 
L 362.277208 17.827485 
L 362.277208 13.995089 
L 362.808884 13.995089 
L 362.808884 10.162693 
L 377.709575 10.162693 
L 377.709575 6.330297 
L 377.709575 6.330297 
L 460.8 6.330297 
L 460.8 6.330297 
" style="fill:none;stroke:#00bfbf;stroke-linecap:square;stroke-width:1.5;"/>
   </g>
   <g id="line2d_26">
    <path clip-path="url(#p7fef867ecb)" d="M 222.460058 293.76 
L 222.491678 286.095208 
L 223.205661 286.095208 
L 223.205661 282.262812 
L 227.192488 282.262812 
L 227.192488 278.430416 
L 229.616734 278.430416 
L 229.616734 274.59802 
L 232.092417 274.59802 
L 232.092417 270.765624 
L 232.470637 270.765624 
L 232.470637 266.933228 
L 235.96779 266.933228 
L 235.96779 263.100832 
L 237.907541 263.100832 
L 237.907541 259.268436 
L 238.224853 259.268436 
L 238.224853 255.43604 
L 240.584432 255.43604 
L 240.584432 251.603644 
L 240.701351 251.603644 
L 240.701351 247.771248 
L 244.935689 247.771248 
L 244.935689 243.938851 
L 245.269655 243.938851 
L 245.269655 240.106455 
L 250.160423 240.106455 
L 250.160423 236.274059 
L 255.341083 236.274059 
L 255.341083 232.441663 
L 256.886326 232.441663 
L 256.886326 228.609267 
L 257.828949 228.609267 
L 257.828949 224.776871 
L 259.047367 224.776871 
L 259.047367 220.944475 
L 260.425163 220.944475 
L 260.495966 209.447287 
L 260.784752 209.447287 
L 260.784752 205.614891 
L 261.105984 205.614891 
L 261.105984 201.782495 
L 261.438382 201.782495 
L 261.457404 194.117703 
L 261.752629 194.117703 
L 261.752629 190.285307 
L 262.123124 190.285307 
L 262.211069 182.620515 
L 262.926741 182.620515 
L 262.943226 174.955723 
L 263.134692 174.955723 
L 263.200562 167.290931 
L 263.289538 167.290931 
L 263.347835 159.626139 
L 264.022941 159.626139 
L 264.022941 155.793743 
L 264.55646 155.793743 
L 264.643626 148.12895 
L 264.72248 148.12895 
L 264.72248 144.296554 
L 264.875868 144.296554 
L 264.875868 140.464158 
L 265.074944 140.464158 
L 265.17046 132.799366 
L 265.254956 132.799366 
L 265.3392 121.302178 
L 265.377994 121.302178 
L 265.377994 117.469782 
L 266.06161 117.469782 
L 266.141817 105.972594 
L 266.417054 105.972594 
L 266.417054 102.140198 
L 266.761652 102.140198 
L 266.774822 94.475406 
L 267.078881 94.475406 
L 267.078881 90.64301 
L 268.343499 90.64301 
L 268.343499 86.810614 
L 268.884854 86.810614 
L 268.884854 82.978218 
L 269.574672 82.978218 
L 269.574672 79.145822 
L 269.798996 79.145822 
L 269.798996 75.313426 
L 270.046558 75.313426 
L 270.046558 71.48103 
L 270.920905 71.48103 
L 270.920905 67.648634 
L 271.07706 67.648634 
L 271.07706 63.816238 
L 303.124236 63.816238 
L 303.124236 59.983842 
L 311.217769 59.983842 
L 311.217769 56.151446 
L 314.729795 56.151446 
L 314.729795 52.31905 
L 323.959868 52.31905 
L 323.959868 48.486653 
L 331.100072 48.486653 
L 331.100072 44.654257 
L 331.982723 44.654257 
L 331.982723 40.821861 
L 332.424204 40.821861 
L 332.424204 36.989465 
L 334.401113 36.989465 
L 334.401113 33.157069 
L 336.588221 33.157069 
L 336.588221 29.324673 
L 338.742608 29.324673 
L 338.742608 25.492277 
L 339.58448 25.492277 
L 339.58448 21.659881 
L 341.279557 21.659881 
L 341.279557 17.827485 
L 343.991961 17.827485 
L 343.991961 13.995089 
L 344.721976 13.995089 
L 344.721976 10.162693 
L 346.111518 10.162693 
L 346.111518 6.330297 
L 346.111518 6.330297 
L 460.8 6.330297 
L 460.8 6.330297 
" style="fill:none;stroke:#bf00bf;stroke-linecap:square;stroke-width:1.5;"/>
   </g>
   <g id="patch_3">
    <path d="M 0 293.76 
L 0 3.456 
" style="fill:none;stroke:#000000;stroke-linecap:square;stroke-linejoin:miter;stroke-width:0.8;"/>
   </g>
   <g id="patch_4">
    <path d="M 460.8 293.76 
L 460.8 3.456 
" style="fill:none;stroke:#000000;stroke-linecap:square;stroke-linejoin:miter;stroke-width:0.8;"/>
   </g>
   <g id="patch_5">
    <path d="M 0 293.76 
L 460.8 293.76 
" style="fill:none;stroke:#000000;stroke-linecap:square;stroke-linejoin:miter;stroke-width:0.8;"/>
   </g>
   <g id="patch_6">
    <path d="M 0 3.456 
L 460.8 3.456 
" style="fill:none;stroke:#000000;stroke-linecap:square;stroke-linejoin:miter;stroke-width:0.8;"/>
   </g>
   <g id="text_6">
    <!-- {f1-f5}, 5-D -->
    <g transform="translate(331.334 287.95392)scale(0.2 -0.2)">
     <defs>
      <path d="M 3272 -594 
L 3272 -1044 
L 3078 -1044 
Q 2300 -1044 2036 -812 
Q 1772 -581 1772 109 
L 1772 856 
Q 1772 1328 1603 1509 
Q 1434 1691 991 1691 
L 800 1691 
L 800 2138 
L 991 2138 
Q 1438 2138 1605 2317 
Q 1772 2497 1772 2963 
L 1772 3713 
Q 1772 4403 2036 4633 
Q 2300 4863 3078 4863 
L 3272 4863 
L 3272 4416 
L 3059 4416 
Q 2619 4416 2484 4278 
Q 2350 4141 2350 3700 
L 2350 2925 
Q 2350 2434 2208 2212 
Q 2066 1991 1722 1913 
Q 2069 1828 2209 1606 
Q 2350 1384 2350 897 
L 2350 122 
Q 2350 -319 2484 -456 
Q 2619 -594 3059 -594 
L 3272 -594 
z
" id="DejaVuSans-7b" transform="scale(0.015625)"/>
      <path d="M 691 4666 
L 3169 4666 
L 3169 4134 
L 1269 4134 
L 1269 2991 
Q 1406 3038 1543 3061 
Q 1681 3084 1819 3084 
Q 2600 3084 3056 2656 
Q 3513 2228 3513 1497 
Q 3513 744 3044 326 
Q 2575 -91 1722 -91 
Q 1428 -91 1123 -41 
Q 819 9 494 109 
L 494 744 
Q 775 591 1075 516 
Q 1375 441 1709 441 
Q 2250 441 2565 725 
Q 2881 1009 2881 1497 
Q 2881 1984 2565 2268 
Q 2250 2553 1709 2553 
Q 1456 2553 1204 2497 
Q 953 2441 691 2322 
L 691 4666 
z
" id="DejaVuSans-35" transform="scale(0.015625)"/>
      <path d="M 800 -594 
L 1019 -594 
Q 1456 -594 1589 -459 
Q 1722 -325 1722 122 
L 1722 897 
Q 1722 1384 1862 1606 
Q 2003 1828 2350 1913 
Q 2003 1991 1862 2212 
Q 1722 2434 1722 2925 
L 1722 3700 
Q 1722 4144 1589 4280 
Q 1456 4416 1019 4416 
L 800 4416 
L 800 4863 
L 997 4863 
Q 1775 4863 2036 4633 
Q 2297 4403 2297 3713 
L 2297 2963 
Q 2297 2497 2465 2317 
Q 2634 2138 3078 2138 
L 3272 2138 
L 3272 1691 
L 3078 1691 
Q 2634 1691 2465 1509 
Q 2297 1328 2297 856 
L 2297 109 
Q 2297 -581 2036 -812 
Q 1775 -1044 997 -1044 
L 800 -1044 
L 800 -594 
z
" id="DejaVuSans-7d" transform="scale(0.015625)"/>
      <path d="M 750 794 
L 1409 794 
L 1409 256 
L 897 -744 
L 494 -744 
L 750 256 
L 750 794 
z
" id="DejaVuSans-2c" transform="scale(0.015625)"/>
     </defs>
     <use xlink:href="#DejaVuSans-7b"/>
     <use x="63.623047" xlink:href="#DejaVuSans-66"/>
     <use x="98.828125" xlink:href="#DejaVuSans-31"/>
     <use x="162.451172" xlink:href="#DejaVuSans-2d"/>
     <use x="198.535156" xlink:href="#DejaVuSans-66"/>
     <use x="233.740234" xlink:href="#DejaVuSans-35"/>
     <use x="297.363281" xlink:href="#DejaVuSans-7d"/>
     <use x="360.986328" xlink:href="#DejaVuSans-2c"/>
     <use x="392.773438" xlink:href="#DejaVuSans-20"/>
     <use x="424.560547" xlink:href="#DejaVuSans-35"/>
     <use x="488.183594" xlink:href="#DejaVuSans-2d"/>
     <use x="524.267578" xlink:href="#DejaVuSans-44"/>
    </g>
   </g>
   <g id="text_7">
    <!-- v2.4 -->
    <g style="fill:#808080;" transform="translate(219.489063 288.777272)scale(0.1 -0.1)">
     <defs>
      <path d="M 191 3500 
L 800 3500 
L 1894 563 
L 2988 3500 
L 3597 3500 
L 2284 0 
L 1503 0 
L 191 3500 
z
" id="DejaVuSans-76" transform="scale(0.015625)"/>
      <path d="M 1228 531 
L 3431 531 
L 3431 0 
L 469 0 
L 469 531 
Q 828 903 1448 1529 
Q 2069 2156 2228 2338 
Q 2531 2678 2651 2914 
Q 2772 3150 2772 3378 
Q 2772 3750 2511 3984 
Q 2250 4219 1831 4219 
Q 1534 4219 1204 4116 
Q 875 4013 500 3803 
L 500 4441 
Q 881 4594 1212 4672 
Q 1544 4750 1819 4750 
Q 2544 4750 2975 4387 
Q 3406 4025 3406 3419 
Q 3406 3131 3298 2873 
Q 3191 2616 2906 2266 
Q 2828 2175 2409 1742 
Q 1991 1309 1228 531 
z
" id="DejaVuSans-32" transform="scale(0.015625)"/>
      <path d="M 684 794 
L 1344 794 
L 1344 0 
L 684 0 
L 684 794 
z
" id="DejaVuSans-2e" transform="scale(0.015625)"/>
     </defs>
     <use xlink:href="#DejaVuSans-76"/>
     <use x="59.179688" xlink:href="#DejaVuSans-32"/>
     <use x="122.802734" xlink:href="#DejaVuSans-2e"/>
     <use x="154.589844" xlink:href="#DejaVuSans-34"/>
    </g>
   </g>
  </g>
 </g>
 <defs>
  <clipPath id="p7fef867ecb">
   <rect height="290.304" width="460.8" x="0" y="3.456"/>
  </clipPath>
 </defs>
</svg>
