<?xml version="1.0" encoding="utf-8" standalone="no"?>
<!DOCTYPE svg PUBLIC "-//W3C//DTD SVG 1.1//EN"
  "http://www.w3.org/Graphics/SVG/1.1/DTD/svg11.dtd">
<svg height="345.6pt" version="1.1" viewBox="0 0 460.8 345.6" width="460.8pt" xmlns="http://www.w3.org/2000/svg" xmlns:xlink="http://www.w3.org/1999/xlink">
 <metadata>
  <rdf:RDF xmlns:cc="http://creativecommons.org/ns#" xmlns:dc="http://purl.org/dc/elements/1.1/" xmlns:rdf="http://www.w3.org/1999/02/22-rdf-syntax-ns#">
   <cc:Work>
    <dc:type rdf:resource="http://purl.org/dc/dcmitype/StillImage"/>
    <dc:date>2021-06-14T12:33:44.644298</dc:date>
    <dc:format>image/svg+xml</dc:format>
    <dc:creator>
     <cc:Agent>
      <dc:title>Matplotlib v3.4.2, https://matplotlib.org/</dc:title>
     </cc:Agent>
    </dc:creator>
   </cc:Work>
  </rdf:RDF>
 </metadata>
 <defs>
  <style type="text/css">*{stroke-linecap:butt;stroke-linejoin:round;}</style>
 </defs>
 <g id="figure_1">
  <g id="patch_1">
   <path d="M 0 345.6 
L 460.8 345.6 
L 460.8 0 
L 0 0 
z
" style="fill:#ffffff;"/>
  </g>
  <g id="axes_1">
   <g id="patch_2">
    <path d="M 0 293.76 
L 460.8 293.76 
L 460.8 3.456 
L 0 3.456 
z
" style="fill:#ffffff;"/>
   </g>
   <g id="matplotlib.axis_1">
    <g id="xtick_1">
     <g id="line2d_1">
      <path clip-path="url(#pc805fbf5ec)" d="M 108.745186 293.76 
L 108.745186 3.456 
" style="fill:none;stroke:#b0b0b0;stroke-linecap:square;stroke-width:0.8;"/>
     </g>
     <g id="line2d_2">
      <defs>
       <path d="M 0 0 
L 0 3.5 
" id="m66805f001d" style="stroke:#000000;stroke-width:0.8;"/>
      </defs>
      <g>
       <use style="stroke:#000000;stroke-width:0.8;" x="108.745186" xlink:href="#m66805f001d" y="293.76"/>
      </g>
     </g>
     <g id="text_1">
      <!-- -4 -->
      <g transform="translate(98.774873 315.956875)scale(0.2 -0.2)">
       <defs>
        <path d="M 313 2009 
L 1997 2009 
L 1997 1497 
L 313 1497 
L 313 2009 
z
" id="DejaVuSans-2d" transform="scale(0.015625)"/>
        <path d="M 2419 4116 
L 825 1625 
L 2419 1625 
L 2419 4116 
z
M 2253 4666 
L 3047 4666 
L 3047 1625 
L 3713 1625 
L 3713 1100 
L 3047 1100 
L 3047 0 
L 2419 0 
L 2419 1100 
L 313 1100 
L 313 1709 
L 2253 4666 
z
" id="DejaVuSans-34" transform="scale(0.015625)"/>
       </defs>
       <use xlink:href="#DejaVuSans-2d"/>
       <use x="36.083984" xlink:href="#DejaVuSans-34"/>
      </g>
     </g>
    </g>
    <g id="xtick_2">
     <g id="line2d_3">
      <path clip-path="url(#pc805fbf5ec)" d="M 217.607981 293.76 
L 217.607981 3.456 
" style="fill:none;stroke:#b0b0b0;stroke-linecap:square;stroke-width:0.8;"/>
     </g>
     <g id="line2d_4">
      <g>
       <use style="stroke:#000000;stroke-width:0.8;" x="217.607981" xlink:href="#m66805f001d" y="293.76"/>
      </g>
     </g>
     <g id="text_2">
      <!-- 0 -->
      <g transform="translate(211.245481 315.956875)scale(0.2 -0.2)">
       <defs>
        <path d="M 2034 4250 
Q 1547 4250 1301 3770 
Q 1056 3291 1056 2328 
Q 1056 1369 1301 889 
Q 1547 409 2034 409 
Q 2525 409 2770 889 
Q 3016 1369 3016 2328 
Q 3016 3291 2770 3770 
Q 2525 4250 2034 4250 
z
M 2034 4750 
Q 2819 4750 3233 4129 
Q 3647 3509 3647 2328 
Q 3647 1150 3233 529 
Q 2819 -91 2034 -91 
Q 1250 -91 836 529 
Q 422 1150 422 2328 
Q 422 3509 836 4129 
Q 1250 4750 2034 4750 
z
" id="DejaVuSans-30" transform="scale(0.015625)"/>
       </defs>
       <use xlink:href="#DejaVuSans-30"/>
      </g>
     </g>
    </g>
    <g id="xtick_3">
     <g id="line2d_5">
      <path clip-path="url(#pc805fbf5ec)" d="M 326.470776 293.76 
L 326.470776 3.456 
" style="fill:none;stroke:#b0b0b0;stroke-linecap:square;stroke-width:0.8;"/>
     </g>
     <g id="line2d_6">
      <g>
       <use style="stroke:#000000;stroke-width:0.8;" x="326.470776" xlink:href="#m66805f001d" y="293.76"/>
      </g>
     </g>
     <g id="text_3">
      <!-- 4 -->
      <g transform="translate(320.108276 315.956875)scale(0.2 -0.2)">
       <use xlink:href="#DejaVuSans-34"/>
      </g>
     </g>
    </g>
    <g id="xtick_4">
     <g id="line2d_7">
      <path clip-path="url(#pc805fbf5ec)" d="M 435.333571 293.76 
L 435.333571 3.456 
" style="fill:none;stroke:#b0b0b0;stroke-linecap:square;stroke-width:0.8;"/>
     </g>
     <g id="line2d_8">
      <g>
       <use style="stroke:#000000;stroke-width:0.8;" x="435.333571" xlink:href="#m66805f001d" y="293.76"/>
      </g>
     </g>
     <g id="text_4">
      <!-- 8 -->
      <g transform="translate(428.971071 315.956875)scale(0.2 -0.2)">
       <defs>
        <path d="M 2034 2216 
Q 1584 2216 1326 1975 
Q 1069 1734 1069 1313 
Q 1069 891 1326 650 
Q 1584 409 2034 409 
Q 2484 409 2743 651 
Q 3003 894 3003 1313 
Q 3003 1734 2745 1975 
Q 2488 2216 2034 2216 
z
M 1403 2484 
Q 997 2584 770 2862 
Q 544 3141 544 3541 
Q 544 4100 942 4425 
Q 1341 4750 2034 4750 
Q 2731 4750 3128 4425 
Q 3525 4100 3525 3541 
Q 3525 3141 3298 2862 
Q 3072 2584 2669 2484 
Q 3125 2378 3379 2068 
Q 3634 1759 3634 1313 
Q 3634 634 3220 271 
Q 2806 -91 2034 -91 
Q 1263 -91 848 271 
Q 434 634 434 1313 
Q 434 1759 690 2068 
Q 947 2378 1403 2484 
z
M 1172 3481 
Q 1172 3119 1398 2916 
Q 1625 2713 2034 2713 
Q 2441 2713 2670 2916 
Q 2900 3119 2900 3481 
Q 2900 3844 2670 4047 
Q 2441 4250 2034 4250 
Q 1625 4250 1398 4047 
Q 1172 3844 1172 3481 
z
" id="DejaVuSans-38" transform="scale(0.015625)"/>
       </defs>
       <use xlink:href="#DejaVuSans-38"/>
      </g>
     </g>
    </g>
    <g id="text_5">
     <!-- log10 of Df -->
     <g transform="translate(175.214063 339.313125)scale(0.2 -0.2)">
      <defs>
       <path d="M 603 4863 
L 1178 4863 
L 1178 0 
L 603 0 
L 603 4863 
z
" id="DejaVuSans-6c" transform="scale(0.015625)"/>
       <path d="M 1959 3097 
Q 1497 3097 1228 2736 
Q 959 2375 959 1747 
Q 959 1119 1226 758 
Q 1494 397 1959 397 
Q 2419 397 2687 759 
Q 2956 1122 2956 1747 
Q 2956 2369 2687 2733 
Q 2419 3097 1959 3097 
z
M 1959 3584 
Q 2709 3584 3137 3096 
Q 3566 2609 3566 1747 
Q 3566 888 3137 398 
Q 2709 -91 1959 -91 
Q 1206 -91 779 398 
Q 353 888 353 1747 
Q 353 2609 779 3096 
Q 1206 3584 1959 3584 
z
" id="DejaVuSans-6f" transform="scale(0.015625)"/>
       <path d="M 2906 1791 
Q 2906 2416 2648 2759 
Q 2391 3103 1925 3103 
Q 1463 3103 1205 2759 
Q 947 2416 947 1791 
Q 947 1169 1205 825 
Q 1463 481 1925 481 
Q 2391 481 2648 825 
Q 2906 1169 2906 1791 
z
M 3481 434 
Q 3481 -459 3084 -895 
Q 2688 -1331 1869 -1331 
Q 1566 -1331 1297 -1286 
Q 1028 -1241 775 -1147 
L 775 -588 
Q 1028 -725 1275 -790 
Q 1522 -856 1778 -856 
Q 2344 -856 2625 -561 
Q 2906 -266 2906 331 
L 2906 616 
Q 2728 306 2450 153 
Q 2172 0 1784 0 
Q 1141 0 747 490 
Q 353 981 353 1791 
Q 353 2603 747 3093 
Q 1141 3584 1784 3584 
Q 2172 3584 2450 3431 
Q 2728 3278 2906 2969 
L 2906 3500 
L 3481 3500 
L 3481 434 
z
" id="DejaVuSans-67" transform="scale(0.015625)"/>
       <path d="M 794 531 
L 1825 531 
L 1825 4091 
L 703 3866 
L 703 4441 
L 1819 4666 
L 2450 4666 
L 2450 531 
L 3481 531 
L 3481 0 
L 794 0 
L 794 531 
z
" id="DejaVuSans-31" transform="scale(0.015625)"/>
       <path id="DejaVuSans-20" transform="scale(0.015625)"/>
       <path d="M 2375 4863 
L 2375 4384 
L 1825 4384 
Q 1516 4384 1395 4259 
Q 1275 4134 1275 3809 
L 1275 3500 
L 2222 3500 
L 2222 3053 
L 1275 3053 
L 1275 0 
L 697 0 
L 697 3053 
L 147 3053 
L 147 3500 
L 697 3500 
L 697 3744 
Q 697 4328 969 4595 
Q 1241 4863 1831 4863 
L 2375 4863 
z
" id="DejaVuSans-66" transform="scale(0.015625)"/>
       <path d="M 1259 4147 
L 1259 519 
L 2022 519 
Q 2988 519 3436 956 
Q 3884 1394 3884 2338 
Q 3884 3275 3436 3711 
Q 2988 4147 2022 4147 
L 1259 4147 
z
M 628 4666 
L 1925 4666 
Q 3281 4666 3915 4102 
Q 4550 3538 4550 2338 
Q 4550 1131 3912 565 
Q 3275 0 1925 0 
L 628 0 
L 628 4666 
z
" id="DejaVuSans-44" transform="scale(0.015625)"/>
      </defs>
      <use xlink:href="#DejaVuSans-6c"/>
      <use x="27.783203" xlink:href="#DejaVuSans-6f"/>
      <use x="88.964844" xlink:href="#DejaVuSans-67"/>
      <use x="152.441406" xlink:href="#DejaVuSans-31"/>
      <use x="216.064453" xlink:href="#DejaVuSans-30"/>
      <use x="279.6875" xlink:href="#DejaVuSans-20"/>
      <use x="311.474609" xlink:href="#DejaVuSans-6f"/>
      <use x="372.65625" xlink:href="#DejaVuSans-66"/>
      <use x="407.861328" xlink:href="#DejaVuSans-20"/>
      <use x="439.648438" xlink:href="#DejaVuSans-44"/>
      <use x="516.650391" xlink:href="#DejaVuSans-66"/>
     </g>
    </g>
   </g>
   <g id="matplotlib.axis_2">
    <g id="ytick_1">
     <g id="line2d_9">
      <path clip-path="url(#pc805fbf5ec)" d="M 0 293.76 
L 460.8 293.76 
" style="fill:none;stroke:#b0b0b0;stroke-linecap:square;stroke-width:0.8;"/>
     </g>
     <g id="line2d_10">
      <defs>
       <path d="M 0 0 
L -3.5 0 
" id="me60a97cb13" style="stroke:#000000;stroke-width:0.8;"/>
      </defs>
      <g>
       <use style="stroke:#000000;stroke-width:0.8;" x="0" xlink:href="#me60a97cb13" y="293.76"/>
      </g>
     </g>
    </g>
    <g id="ytick_2">
     <g id="line2d_11">
      <path clip-path="url(#pc805fbf5ec)" d="M 0 236.274059 
L 460.8 236.274059 
" style="fill:none;stroke:#b0b0b0;stroke-linecap:square;stroke-width:0.8;"/>
     </g>
     <g id="line2d_12">
      <g>
       <use style="stroke:#000000;stroke-width:0.8;" x="0" xlink:href="#me60a97cb13" y="236.274059"/>
      </g>
     </g>
    </g>
    <g id="ytick_3">
     <g id="line2d_13">
      <path clip-path="url(#pc805fbf5ec)" d="M 0 178.788119 
L 460.8 178.788119 
" style="fill:none;stroke:#b0b0b0;stroke-linecap:square;stroke-width:0.8;"/>
     </g>
     <g id="line2d_14">
      <g>
       <use style="stroke:#000000;stroke-width:0.8;" x="0" xlink:href="#me60a97cb13" y="178.788119"/>
      </g>
     </g>
    </g>
    <g id="ytick_4">
     <g id="line2d_15">
      <path clip-path="url(#pc805fbf5ec)" d="M 0 121.302178 
L 460.8 121.302178 
" style="fill:none;stroke:#b0b0b0;stroke-linecap:square;stroke-width:0.8;"/>
     </g>
     <g id="line2d_16">
      <g>
       <use style="stroke:#000000;stroke-width:0.8;" x="0" xlink:href="#me60a97cb13" y="121.302178"/>
      </g>
     </g>
    </g>
    <g id="ytick_5">
     <g id="line2d_17">
      <path clip-path="url(#pc805fbf5ec)" d="M 0 63.816238 
L 460.8 63.816238 
" style="fill:none;stroke:#b0b0b0;stroke-linecap:square;stroke-width:0.8;"/>
     </g>
     <g id="line2d_18">
      <g>
       <use style="stroke:#000000;stroke-width:0.8;" x="0" xlink:href="#me60a97cb13" y="63.816238"/>
      </g>
     </g>
    </g>
    <g id="ytick_6">
     <g id="line2d_19">
      <path clip-path="url(#pc805fbf5ec)" d="M 0 6.330297 
L 460.8 6.330297 
" style="fill:none;stroke:#b0b0b0;stroke-linecap:square;stroke-width:0.8;"/>
     </g>
     <g id="line2d_20">
      <g>
       <use style="stroke:#000000;stroke-width:0.8;" x="0" xlink:href="#me60a97cb13" y="6.330297"/>
      </g>
     </g>
    </g>
   </g>
   <g id="line2d_21">
    <path clip-path="url(#pc805fbf5ec)" d="M 238.475967 293.76 
L 238.475967 289.927604 
L 239.417832 289.927604 
L 239.417832 286.095208 
L 240.419881 286.095208 
L 240.419881 282.262812 
L 240.571586 282.262812 
L 240.596647 274.59802 
L 240.703542 274.59802 
L 240.79767 266.933228 
L 240.965134 266.933228 
L 241.047565 259.268436 
L 241.731231 259.268436 
L 241.731231 255.43604 
L 241.84261 255.43604 
L 241.84261 251.603644 
L 241.969411 251.603644 
L 241.969411 247.771248 
L 242.178175 247.771248 
L 242.178175 243.938851 
L 242.335656 243.938851 
L 242.335656 240.106455 
L 242.463976 240.106455 
L 242.463976 236.274059 
L 242.680906 236.274059 
L 242.680906 232.441663 
L 242.804728 232.441663 
L 242.90163 224.776871 
L 242.948351 224.776871 
L 243.024326 217.112079 
L 243.18936 217.112079 
L 243.18936 213.279683 
L 243.39154 213.279683 
L 243.478774 205.614891 
L 243.717374 205.614891 
L 243.717374 201.782495 
L 243.996608 201.782495 
L 243.996608 197.950099 
L 244.522335 197.950099 
L 244.522335 194.117703 
L 244.679913 194.117703 
L 244.679913 190.285307 
L 245.444091 190.285307 
L 245.444091 186.452911 
L 246.411943 186.452911 
L 246.411943 182.620515 
L 249.809561 182.620515 
L 249.809561 178.788119 
L 250.90503 178.788119 
L 250.90503 174.955723 
L 254.572592 174.955723 
L 254.572592 171.123327 
L 254.852339 171.123327 
L 254.852339 167.290931 
L 255.010732 167.290931 
L 255.010732 163.458535 
L 255.129534 163.458535 
L 255.129534 159.626139 
L 256.080063 159.626139 
L 256.080063 155.793743 
L 256.470352 155.793743 
L 256.470352 151.961347 
L 256.79584 151.961347 
L 256.820813 144.296554 
L 256.970854 144.296554 
L 257.007177 136.631762 
L 257.374281 136.631762 
L 257.455311 128.96697 
L 257.724474 128.96697 
L 257.745414 121.302178 
L 257.958895 121.302178 
L 257.958895 117.469782 
L 258.073306 117.469782 
L 258.151609 105.972594 
L 258.32061 105.972594 
L 258.32061 102.140198 
L 258.680067 102.140198 
L 258.680067 98.307802 
L 259.014433 98.307802 
L 259.106392 86.810614 
L 259.293017 86.810614 
L 259.293017 82.978218 
L 259.729516 82.978218 
L 259.729516 79.145822 
L 260.738825 79.145822 
L 260.738825 75.313426 
L 261.529765 75.313426 
L 261.560189 67.648634 
L 265.186994 67.648634 
L 265.186994 63.816238 
L 285.884236 63.816238 
L 285.884236 59.983842 
L 286.155688 59.983842 
L 286.155688 56.151446 
L 288.076221 56.151446 
L 288.076221 52.31905 
L 288.308574 52.31905 
L 288.417757 40.821861 
L 288.944066 40.821861 
L 289.002912 33.157069 
L 289.12766 33.157069 
L 289.12766 29.324673 
L 289.399174 29.324673 
L 289.399174 25.492277 
L 289.919738 25.492277 
L 289.919738 21.659881 
L 291.199599 21.659881 
L 291.199599 17.827485 
L 291.677663 17.827485 
L 291.677663 13.995089 
L 292.419854 13.995089 
L 292.419854 10.162693 
L 293.434021 10.162693 
L 293.434021 6.330297 
L 293.434021 6.330297 
L 460.8 6.330297 
L 460.8 6.330297 
" style="fill:none;stroke:#ff0000;stroke-linecap:square;stroke-width:3;"/>
   </g>
   <g id="line2d_22">
    <path clip-path="url(#pc805fbf5ec)" d="M 240.703542 293.76 
L 240.79767 286.095208 
L 240.965134 286.095208 
L 241.047565 278.430416 
L 241.731231 278.430416 
L 241.731231 274.59802 
L 241.84261 274.59802 
L 241.84261 270.765624 
L 242.894816 270.765624 
L 242.90163 263.100832 
L 243.010227 263.100832 
L 243.010227 259.268436 
L 243.478774 259.268436 
L 243.50602 251.603644 
L 243.715256 251.603644 
L 243.799048 243.938851 
L 243.891624 243.938851 
L 243.997913 236.274059 
L 244.258781 236.274059 
L 244.343035 228.609267 
L 244.522335 228.609267 
L 244.522335 224.776871 
L 245.059234 224.776871 
L 245.059234 220.944475 
L 245.84783 220.944475 
L 245.84783 217.112079 
L 246.509726 217.112079 
L 246.509726 213.279683 
L 246.88692 213.279683 
L 246.995918 201.782495 
L 247.852613 201.782495 
L 247.852613 197.950099 
L 250.235274 197.950099 
L 250.235274 194.117703 
L 250.90816 194.117703 
L 250.90816 190.285307 
L 254.960829 190.285307 
L 254.960829 186.452911 
L 256.817412 186.452911 
L 256.817412 182.620515 
L 257.403658 182.620515 
L 257.403658 178.788119 
L 257.83573 178.788119 
L 257.83573 174.955723 
L 258.427798 174.955723 
L 258.427798 171.123327 
L 258.982706 171.123327 
L 259.07209 163.458535 
L 260.370772 163.458535 
L 260.406768 155.793743 
L 260.731828 155.793743 
L 260.731828 151.961347 
L 260.991513 151.961347 
L 260.991513 148.12895 
L 261.688865 148.12895 
L 261.688865 144.296554 
L 262.065669 144.296554 
L 262.065669 140.464158 
L 262.344689 140.464158 
L 262.344689 136.631762 
L 263.639675 136.631762 
L 263.685104 128.96697 
L 263.75418 128.96697 
L 263.75418 125.134574 
L 264.554376 125.134574 
L 264.662512 113.637386 
L 264.834013 113.637386 
L 264.834013 109.80499 
L 264.956891 109.80499 
L 264.956891 105.972594 
L 265.218913 105.972594 
L 265.218913 102.140198 
L 265.599571 102.140198 
L 265.600159 94.475406 
L 266.379636 94.475406 
L 266.379636 90.64301 
L 266.853068 90.64301 
L 266.853068 86.810614 
L 267.355036 86.810614 
L 267.355036 82.978218 
L 267.619709 82.978218 
L 267.619709 79.145822 
L 268.385603 79.145822 
L 268.385603 75.313426 
L 271.552274 75.313426 
L 271.552274 71.48103 
L 275.130216 71.48103 
L 275.130216 67.648634 
L 276.567902 67.648634 
L 276.567902 63.816238 
L 286.768056 63.816238 
L 286.768056 59.983842 
L 291.928185 59.983842 
L 291.928185 56.151446 
L 292.07181 56.151446 
L 292.172327 48.486653 
L 292.339226 48.486653 
L 292.363307 40.821861 
L 292.461387 40.821861 
L 292.461387 36.989465 
L 292.610913 36.989465 
L 292.610913 33.157069 
L 292.843575 33.157069 
L 292.843575 29.324673 
L 293.060972 29.324673 
L 293.060972 25.492277 
L 294.276025 25.492277 
L 294.276025 21.659881 
L 295.216702 21.659881 
L 295.216702 17.827485 
L 295.499997 17.827485 
L 295.499997 13.995089 
L 298.762937 13.995089 
L 298.762937 10.162693 
L 299.086907 10.162693 
L 299.086907 6.330297 
L 299.086907 6.330297 
L 460.8 6.330297 
L 460.8 6.330297 
" style="fill:none;stroke:#00bfbf;stroke-linecap:square;stroke-width:1.5;"/>
   </g>
   <g id="line2d_23">
    <path clip-path="url(#pc805fbf5ec)" d="M 239.417832 293.76 
L 239.417832 289.927604 
L 240.419881 289.927604 
L 240.419881 286.095208 
L 240.703542 286.095208 
L 240.79767 278.430416 
L 240.965134 278.430416 
L 241.047565 270.765624 
L 241.731231 270.765624 
L 241.731231 266.933228 
L 241.84261 266.933228 
L 241.84261 263.100832 
L 242.680906 263.100832 
L 242.680906 259.268436 
L 242.90163 259.268436 
L 243.010227 251.603644 
L 243.39154 251.603644 
L 243.478774 243.938851 
L 243.50602 243.938851 
L 243.50602 240.106455 
L 243.715256 240.106455 
L 243.799048 232.441663 
L 243.997913 232.441663 
L 243.997913 228.609267 
L 244.258781 228.609267 
L 244.343035 220.944475 
L 244.497164 220.944475 
L 244.522335 213.279683 
L 245.84783 213.279683 
L 245.84783 209.447287 
L 246.88692 209.447287 
L 246.903843 201.782495 
L 247.852613 201.782495 
L 247.852613 197.950099 
L 247.986574 197.950099 
L 247.986574 194.117703 
L 250.235274 194.117703 
L 250.235274 190.285307 
L 250.90816 190.285307 
L 250.90816 186.452911 
L 253.204466 186.452911 
L 253.204466 182.620515 
L 257.403658 182.620515 
L 257.403658 178.788119 
L 257.83573 178.788119 
L 257.83573 174.955723 
L 258.387335 174.955723 
L 258.427798 167.290931 
L 258.982706 167.290931 
L 259.07209 155.793743 
L 259.11725 155.793743 
L 259.11725 151.961347 
L 259.913102 151.961347 
L 259.913102 148.12895 
L 260.370772 148.12895 
L 260.406768 140.464158 
L 260.731828 140.464158 
L 260.731828 136.631762 
L 260.991513 136.631762 
L 260.991513 132.799366 
L 261.688865 132.799366 
L 261.688865 128.96697 
L 262.065669 128.96697 
L 262.065669 125.134574 
L 262.344689 125.134574 
L 262.344689 121.302178 
L 262.850657 121.302178 
L 262.850657 117.469782 
L 263.368271 117.469782 
L 263.368271 113.637386 
L 263.639675 113.637386 
L 263.685104 102.140198 
L 264.254397 102.140198 
L 264.254397 98.307802 
L 264.554376 98.307802 
L 264.662512 90.64301 
L 265.218913 90.64301 
L 265.218913 86.810614 
L 265.600159 86.810614 
L 265.600159 82.978218 
L 266.379636 82.978218 
L 266.379636 79.145822 
L 266.853068 79.145822 
L 266.853068 75.313426 
L 269.985796 75.313426 
L 269.985796 71.48103 
L 271.552274 71.48103 
L 271.552274 67.648634 
L 276.567902 67.648634 
L 276.567902 63.816238 
L 286.768056 63.816238 
L 286.768056 59.983842 
L 287.996562 59.983842 
L 287.996562 56.151446 
L 291.928185 56.151446 
L 291.928185 52.31905 
L 292.07181 52.31905 
L 292.172327 44.654257 
L 292.339226 44.654257 
L 292.363307 36.989465 
L 292.461387 36.989465 
L 292.461387 33.157069 
L 292.610913 33.157069 
L 292.610913 29.324673 
L 292.843575 29.324673 
L 292.843575 25.492277 
L 294.155051 25.492277 
L 294.155051 21.659881 
L 295.216702 21.659881 
L 295.216702 17.827485 
L 295.499997 17.827485 
L 295.499997 13.995089 
L 298.762937 13.995089 
L 298.762937 10.162693 
L 299.086907 10.162693 
L 299.086907 6.330297 
L 299.086907 6.330297 
L 460.8 6.330297 
L 460.8 6.330297 
" style="fill:none;stroke:#bf00bf;stroke-linecap:square;stroke-width:1.5;"/>
   </g>
   <g id="line2d_24">
    <path clip-path="url(#pc805fbf5ec)" d="M 239.417832 293.76 
L 239.417832 289.927604 
L 240.419881 289.927604 
L 240.419881 286.095208 
L 240.703542 286.095208 
L 240.79767 278.430416 
L 240.965134 278.430416 
L 241.047565 270.765624 
L 241.731231 270.765624 
L 241.731231 266.933228 
L 241.84261 266.933228 
L 241.84261 263.100832 
L 242.680906 263.100832 
L 242.680906 259.268436 
L 242.90163 259.268436 
L 243.010227 251.603644 
L 243.024326 251.603644 
L 243.024326 247.771248 
L 243.39154 247.771248 
L 243.478774 240.106455 
L 243.50602 240.106455 
L 243.50602 236.274059 
L 243.799048 236.274059 
L 243.799048 232.441663 
L 243.997913 232.441663 
L 243.997913 228.609267 
L 244.258781 228.609267 
L 244.343035 220.944475 
L 244.497164 220.944475 
L 244.550295 209.447287 
L 245.84783 209.447287 
L 245.84783 205.614891 
L 246.3896 205.614891 
L 246.3896 201.782495 
L 246.88692 201.782495 
L 246.903843 194.117703 
L 249.392024 194.117703 
L 249.392024 190.285307 
L 250.90816 190.285307 
L 250.90816 186.452911 
L 252.274625 186.452911 
L 252.274625 182.620515 
L 252.761723 182.620515 
L 252.761723 178.788119 
L 257.403658 178.788119 
L 257.403658 174.955723 
L 257.83573 174.955723 
L 257.83573 171.123327 
L 258.387335 171.123327 
L 258.387335 167.290931 
L 258.982706 167.290931 
L 259.07209 155.793743 
L 259.11725 155.793743 
L 259.11725 151.961347 
L 259.39743 151.961347 
L 259.39743 148.12895 
L 259.913102 148.12895 
L 260.009627 140.464158 
L 260.370772 140.464158 
L 260.406768 132.799366 
L 260.731828 132.799366 
L 260.731828 128.96697 
L 260.991513 128.96697 
L 260.991513 125.134574 
L 261.394876 125.134574 
L 261.454623 117.469782 
L 261.688865 117.469782 
L 261.688865 113.637386 
L 262.065669 113.637386 
L 262.119441 105.972594 
L 262.691527 105.972594 
L 262.715567 98.307802 
L 263.34968 98.307802 
L 263.368271 90.64301 
L 264.254397 90.64301 
L 264.254397 86.810614 
L 264.554376 86.810614 
L 264.662512 79.145822 
L 265.218913 79.145822 
L 265.218913 75.313426 
L 266.853068 75.313426 
L 266.853068 71.48103 
L 269.911879 71.48103 
L 269.911879 67.648634 
L 276.567902 67.648634 
L 276.567902 63.816238 
L 286.768056 63.816238 
L 286.768056 59.983842 
L 287.996562 59.983842 
L 287.996562 56.151446 
L 290.521871 56.151446 
L 290.521871 52.31905 
L 291.682208 52.31905 
L 291.682208 48.486653 
L 291.928185 48.486653 
L 291.928185 44.654257 
L 292.07181 44.654257 
L 292.07181 40.821861 
L 292.339226 40.821861 
L 292.363307 33.157069 
L 292.610913 33.157069 
L 292.610913 29.324673 
L 292.843575 29.324673 
L 292.843575 25.492277 
L 293.216925 25.492277 
L 293.216925 21.659881 
L 295.096097 21.659881 
L 295.096097 17.827485 
L 295.216702 17.827485 
L 295.216702 13.995089 
L 295.499997 13.995089 
L 295.499997 10.162693 
L 298.395451 10.162693 
L 298.395451 6.330297 
L 298.395451 6.330297 
L 460.8 6.330297 
L 460.8 6.330297 
" style="fill:none;stroke:#000000;stroke-linecap:square;stroke-width:1.5;"/>
   </g>
   <g id="line2d_25">
    <path clip-path="url(#pc805fbf5ec)" d="M 239.417832 293.76 
L 239.417832 289.927604 
L 240.419881 289.927604 
L 240.419881 286.095208 
L 240.703542 286.095208 
L 240.79767 278.430416 
L 240.965134 278.430416 
L 241.047565 270.765624 
L 241.731231 270.765624 
L 241.731231 266.933228 
L 241.84261 266.933228 
L 241.84261 263.100832 
L 241.969411 263.100832 
L 241.969411 259.268436 
L 242.335656 259.268436 
L 242.335656 255.43604 
L 242.680906 255.43604 
L 242.680906 251.603644 
L 242.90163 251.603644 
L 243.010227 243.938851 
L 243.024326 243.938851 
L 243.024326 240.106455 
L 243.39154 240.106455 
L 243.478774 232.441663 
L 243.50602 232.441663 
L 243.50602 228.609267 
L 243.769615 228.609267 
L 243.799048 220.944475 
L 244.258781 220.944475 
L 244.343035 213.279683 
L 244.497164 213.279683 
L 244.522335 205.614891 
L 245.438944 205.614891 
L 245.449207 197.950099 
L 245.556205 197.950099 
L 245.556205 194.117703 
L 246.078073 194.117703 
L 246.078073 190.285307 
L 248.329218 190.285307 
L 248.329218 186.452911 
L 248.737759 186.452911 
L 248.737759 182.620515 
L 252.761723 182.620515 
L 252.761723 178.788119 
L 257.403658 178.788119 
L 257.403658 174.955723 
L 257.617494 174.955723 
L 257.617494 171.123327 
L 257.83573 171.123327 
L 257.83573 167.290931 
L 258.385204 167.290931 
L 258.387335 159.626139 
L 258.676264 159.626139 
L 258.676264 155.793743 
L 258.982706 155.793743 
L 259.07209 140.464158 
L 259.11725 140.464158 
L 259.11725 136.631762 
L 259.28902 136.631762 
L 259.39743 128.96697 
L 259.449608 128.96697 
L 259.449608 125.134574 
L 259.710266 125.134574 
L 259.710266 121.302178 
L 260.370772 121.302178 
L 260.406768 109.80499 
L 260.526386 109.80499 
L 260.526386 105.972594 
L 260.731828 105.972594 
L 260.731828 102.140198 
L 260.991513 102.140198 
L 261.093117 94.475406 
L 261.255774 94.475406 
L 261.255774 90.64301 
L 262.065178 90.64301 
L 262.065178 86.810614 
L 262.568569 86.810614 
L 262.568569 82.978218 
L 263.34968 82.978218 
L 263.34968 79.145822 
L 263.739208 79.145822 
L 263.739208 75.313426 
L 265.275031 75.313426 
L 265.275031 71.48103 
L 266.853068 71.48103 
L 266.853068 67.648634 
L 271.463848 67.648634 
L 271.463848 63.816238 
L 286.768056 63.816238 
L 286.768056 59.983842 
L 287.996562 59.983842 
L 288.076221 52.31905 
L 290.521871 52.31905 
L 290.521871 48.486653 
L 290.852492 48.486653 
L 290.852492 44.654257 
L 291.013418 44.654257 
L 291.013418 40.821861 
L 291.677663 40.821861 
L 291.677663 36.989465 
L 292.07181 36.989465 
L 292.07181 33.157069 
L 292.339226 33.157069 
L 292.363307 25.492277 
L 292.610913 25.492277 
L 292.610913 21.659881 
L 292.843575 21.659881 
L 292.843575 17.827485 
L 293.216925 17.827485 
L 293.216925 13.995089 
L 293.783778 13.995089 
L 293.783778 10.162693 
L 295.096097 10.162693 
L 295.096097 6.330297 
L 295.096097 6.330297 
L 460.8 6.330297 
L 460.8 6.330297 
" style="fill:none;stroke:#00bfbf;stroke-linecap:square;stroke-width:1.5;"/>
   </g>
   <g id="line2d_26">
    <path clip-path="url(#pc805fbf5ec)" d="M 238.475967 293.76 
L 238.475967 289.927604 
L 239.417832 289.927604 
L 239.417832 286.095208 
L 240.419881 286.095208 
L 240.419881 282.262812 
L 240.571586 282.262812 
L 240.596647 274.59802 
L 240.703542 274.59802 
L 240.79767 266.933228 
L 240.965134 266.933228 
L 241.047565 259.268436 
L 241.731231 259.268436 
L 241.731231 255.43604 
L 241.84261 255.43604 
L 241.84261 251.603644 
L 241.969411 251.603644 
L 241.969411 247.771248 
L 242.178175 247.771248 
L 242.178175 243.938851 
L 242.335656 243.938851 
L 242.335656 240.106455 
L 242.463976 240.106455 
L 242.463976 236.274059 
L 242.680906 236.274059 
L 242.680906 232.441663 
L 242.804728 232.441663 
L 242.90163 224.776871 
L 242.948351 224.776871 
L 243.024326 217.112079 
L 243.18936 217.112079 
L 243.18936 213.279683 
L 243.39154 213.279683 
L 243.478774 205.614891 
L 243.717374 205.614891 
L 243.717374 201.782495 
L 243.996608 201.782495 
L 243.996608 197.950099 
L 244.522335 197.950099 
L 244.522335 194.117703 
L 244.679913 194.117703 
L 244.679913 190.285307 
L 245.444091 190.285307 
L 245.444091 186.452911 
L 246.411943 186.452911 
L 246.411943 182.620515 
L 249.809561 182.620515 
L 249.809561 178.788119 
L 250.90503 178.788119 
L 250.90503 174.955723 
L 254.572592 174.955723 
L 254.572592 171.123327 
L 254.852339 171.123327 
L 254.852339 167.290931 
L 255.010732 167.290931 
L 255.010732 163.458535 
L 255.129534 163.458535 
L 255.129534 159.626139 
L 256.080063 159.626139 
L 256.080063 155.793743 
L 256.470352 155.793743 
L 256.470352 151.961347 
L 256.79584 151.961347 
L 256.820813 144.296554 
L 256.970854 144.296554 
L 257.007177 136.631762 
L 257.374281 136.631762 
L 257.455311 128.96697 
L 257.724474 128.96697 
L 257.745414 121.302178 
L 257.958895 121.302178 
L 257.958895 117.469782 
L 258.073306 117.469782 
L 258.151609 105.972594 
L 258.32061 105.972594 
L 258.32061 102.140198 
L 258.680067 102.140198 
L 258.680067 98.307802 
L 259.014433 98.307802 
L 259.106392 86.810614 
L 259.293017 86.810614 
L 259.293017 82.978218 
L 259.729516 82.978218 
L 259.729516 79.145822 
L 260.738825 79.145822 
L 260.738825 75.313426 
L 261.529765 75.313426 
L 261.560189 67.648634 
L 265.186994 67.648634 
L 265.186994 63.816238 
L 285.884236 63.816238 
L 285.884236 59.983842 
L 286.155688 59.983842 
L 286.155688 56.151446 
L 288.076221 56.151446 
L 288.076221 52.31905 
L 288.308574 52.31905 
L 288.417757 40.821861 
L 288.944066 40.821861 
L 289.002912 33.157069 
L 289.12766 33.157069 
L 289.12766 29.324673 
L 289.399174 29.324673 
L 289.399174 25.492277 
L 289.919738 25.492277 
L 289.919738 21.659881 
L 291.199599 21.659881 
L 291.199599 17.827485 
L 291.677663 17.827485 
L 291.677663 13.995089 
L 292.419854 13.995089 
L 292.419854 10.162693 
L 293.434021 10.162693 
L 293.434021 6.330297 
L 293.434021 6.330297 
L 460.8 6.330297 
L 460.8 6.330297 
" style="fill:none;stroke:#bf00bf;stroke-linecap:square;stroke-width:1.5;"/>
   </g>
   <g id="patch_3">
    <path d="M 0 293.76 
L 0 3.456 
" style="fill:none;stroke:#000000;stroke-linecap:square;stroke-linejoin:miter;stroke-width:0.8;"/>
   </g>
   <g id="patch_4">
    <path d="M 460.8 293.76 
L 460.8 3.456 
" style="fill:none;stroke:#000000;stroke-linecap:square;stroke-linejoin:miter;stroke-width:0.8;"/>
   </g>
   <g id="patch_5">
    <path d="M 0 293.76 
L 460.8 293.76 
" style="fill:none;stroke:#000000;stroke-linecap:square;stroke-linejoin:miter;stroke-width:0.8;"/>
   </g>
   <g id="patch_6">
    <path d="M 0 3.456 
L 460.8 3.456 
" style="fill:none;stroke:#000000;stroke-linecap:square;stroke-linejoin:miter;stroke-width:0.8;"/>
   </g>
   <g id="text_6">
    <!-- {f15-f19}, 20-D -->
    <g transform="translate(293.159 287.95392)scale(0.2 -0.2)">
     <defs>
      <path d="M 3272 -594 
L 3272 -1044 
L 3078 -1044 
Q 2300 -1044 2036 -812 
Q 1772 -581 1772 109 
L 1772 856 
Q 1772 1328 1603 1509 
Q 1434 1691 991 1691 
L 800 1691 
L 800 2138 
L 991 2138 
Q 1438 2138 1605 2317 
Q 1772 2497 1772 2963 
L 1772 3713 
Q 1772 4403 2036 4633 
Q 2300 4863 3078 4863 
L 3272 4863 
L 3272 4416 
L 3059 4416 
Q 2619 4416 2484 4278 
Q 2350 4141 2350 3700 
L 2350 2925 
Q 2350 2434 2208 2212 
Q 2066 1991 1722 1913 
Q 2069 1828 2209 1606 
Q 2350 1384 2350 897 
L 2350 122 
Q 2350 -319 2484 -456 
Q 2619 -594 3059 -594 
L 3272 -594 
z
" id="DejaVuSans-7b" transform="scale(0.015625)"/>
      <path d="M 691 4666 
L 3169 4666 
L 3169 4134 
L 1269 4134 
L 1269 2991 
Q 1406 3038 1543 3061 
Q 1681 3084 1819 3084 
Q 2600 3084 3056 2656 
Q 3513 2228 3513 1497 
Q 3513 744 3044 326 
Q 2575 -91 1722 -91 
Q 1428 -91 1123 -41 
Q 819 9 494 109 
L 494 744 
Q 775 591 1075 516 
Q 1375 441 1709 441 
Q 2250 441 2565 725 
Q 2881 1009 2881 1497 
Q 2881 1984 2565 2268 
Q 2250 2553 1709 2553 
Q 1456 2553 1204 2497 
Q 953 2441 691 2322 
L 691 4666 
z
" id="DejaVuSans-35" transform="scale(0.015625)"/>
      <path d="M 703 97 
L 703 672 
Q 941 559 1184 500 
Q 1428 441 1663 441 
Q 2288 441 2617 861 
Q 2947 1281 2994 2138 
Q 2813 1869 2534 1725 
Q 2256 1581 1919 1581 
Q 1219 1581 811 2004 
Q 403 2428 403 3163 
Q 403 3881 828 4315 
Q 1253 4750 1959 4750 
Q 2769 4750 3195 4129 
Q 3622 3509 3622 2328 
Q 3622 1225 3098 567 
Q 2575 -91 1691 -91 
Q 1453 -91 1209 -44 
Q 966 3 703 97 
z
M 1959 2075 
Q 2384 2075 2632 2365 
Q 2881 2656 2881 3163 
Q 2881 3666 2632 3958 
Q 2384 4250 1959 4250 
Q 1534 4250 1286 3958 
Q 1038 3666 1038 3163 
Q 1038 2656 1286 2365 
Q 1534 2075 1959 2075 
z
" id="DejaVuSans-39" transform="scale(0.015625)"/>
      <path d="M 800 -594 
L 1019 -594 
Q 1456 -594 1589 -459 
Q 1722 -325 1722 122 
L 1722 897 
Q 1722 1384 1862 1606 
Q 2003 1828 2350 1913 
Q 2003 1991 1862 2212 
Q 1722 2434 1722 2925 
L 1722 3700 
Q 1722 4144 1589 4280 
Q 1456 4416 1019 4416 
L 800 4416 
L 800 4863 
L 997 4863 
Q 1775 4863 2036 4633 
Q 2297 4403 2297 3713 
L 2297 2963 
Q 2297 2497 2465 2317 
Q 2634 2138 3078 2138 
L 3272 2138 
L 3272 1691 
L 3078 1691 
Q 2634 1691 2465 1509 
Q 2297 1328 2297 856 
L 2297 109 
Q 2297 -581 2036 -812 
Q 1775 -1044 997 -1044 
L 800 -1044 
L 800 -594 
z
" id="DejaVuSans-7d" transform="scale(0.015625)"/>
      <path d="M 750 794 
L 1409 794 
L 1409 256 
L 897 -744 
L 494 -744 
L 750 256 
L 750 794 
z
" id="DejaVuSans-2c" transform="scale(0.015625)"/>
      <path d="M 1228 531 
L 3431 531 
L 3431 0 
L 469 0 
L 469 531 
Q 828 903 1448 1529 
Q 2069 2156 2228 2338 
Q 2531 2678 2651 2914 
Q 2772 3150 2772 3378 
Q 2772 3750 2511 3984 
Q 2250 4219 1831 4219 
Q 1534 4219 1204 4116 
Q 875 4013 500 3803 
L 500 4441 
Q 881 4594 1212 4672 
Q 1544 4750 1819 4750 
Q 2544 4750 2975 4387 
Q 3406 4025 3406 3419 
Q 3406 3131 3298 2873 
Q 3191 2616 2906 2266 
Q 2828 2175 2409 1742 
Q 1991 1309 1228 531 
z
" id="DejaVuSans-32" transform="scale(0.015625)"/>
     </defs>
     <use xlink:href="#DejaVuSans-7b"/>
     <use x="63.623047" xlink:href="#DejaVuSans-66"/>
     <use x="98.828125" xlink:href="#DejaVuSans-31"/>
     <use x="162.451172" xlink:href="#DejaVuSans-35"/>
     <use x="226.074219" xlink:href="#DejaVuSans-2d"/>
     <use x="262.158203" xlink:href="#DejaVuSans-66"/>
     <use x="297.363281" xlink:href="#DejaVuSans-31"/>
     <use x="360.986328" xlink:href="#DejaVuSans-39"/>
     <use x="424.609375" xlink:href="#DejaVuSans-7d"/>
     <use x="488.232422" xlink:href="#DejaVuSans-2c"/>
     <use x="520.019531" xlink:href="#DejaVuSans-20"/>
     <use x="551.806641" xlink:href="#DejaVuSans-32"/>
     <use x="615.429688" xlink:href="#DejaVuSans-30"/>
     <use x="679.052734" xlink:href="#DejaVuSans-2d"/>
     <use x="715.136719" xlink:href="#DejaVuSans-44"/>
    </g>
   </g>
   <g id="text_7">
    <!-- v2.4 -->
    <g style="fill:#808080;" transform="translate(219.489063 288.777272)scale(0.1 -0.1)">
     <defs>
      <path d="M 191 3500 
L 800 3500 
L 1894 563 
L 2988 3500 
L 3597 3500 
L 2284 0 
L 1503 0 
L 191 3500 
z
" id="DejaVuSans-76" transform="scale(0.015625)"/>
      <path d="M 684 794 
L 1344 794 
L 1344 0 
L 684 0 
L 684 794 
z
" id="DejaVuSans-2e" transform="scale(0.015625)"/>
     </defs>
     <use xlink:href="#DejaVuSans-76"/>
     <use x="59.179688" xlink:href="#DejaVuSans-32"/>
     <use x="122.802734" xlink:href="#DejaVuSans-2e"/>
     <use x="154.589844" xlink:href="#DejaVuSans-34"/>
    </g>
   </g>
  </g>
 </g>
 <defs>
  <clipPath id="pc805fbf5ec">
   <rect height="290.304" width="460.8" x="0" y="3.456"/>
  </clipPath>
 </defs>
</svg>
