<?xml version="1.0" encoding="utf-8" standalone="no"?>
<!DOCTYPE svg PUBLIC "-//W3C//DTD SVG 1.1//EN"
  "http://www.w3.org/Graphics/SVG/1.1/DTD/svg11.dtd">
<svg height="345.6pt" version="1.1" viewBox="0 0 460.8 345.6" width="460.8pt" xmlns="http://www.w3.org/2000/svg" xmlns:xlink="http://www.w3.org/1999/xlink">
 <metadata>
  <rdf:RDF xmlns:cc="http://creativecommons.org/ns#" xmlns:dc="http://purl.org/dc/elements/1.1/" xmlns:rdf="http://www.w3.org/1999/02/22-rdf-syntax-ns#">
   <cc:Work>
    <dc:type rdf:resource="http://purl.org/dc/dcmitype/StillImage"/>
    <dc:date>2021-06-14T12:33:39.111350</dc:date>
    <dc:format>image/svg+xml</dc:format>
    <dc:creator>
     <cc:Agent>
      <dc:title>Matplotlib v3.4.2, https://matplotlib.org/</dc:title>
     </cc:Agent>
    </dc:creator>
   </cc:Work>
  </rdf:RDF>
 </metadata>
 <defs>
  <style type="text/css">*{stroke-linecap:butt;stroke-linejoin:round;}</style>
 </defs>
 <g id="figure_1">
  <g id="patch_1">
   <path d="M 0 345.6 
L 460.8 345.6 
L 460.8 0 
L 0 0 
z
" style="fill:#ffffff;"/>
  </g>
  <g id="axes_1">
   <g id="patch_2">
    <path d="M 0 293.76 
L 460.8 293.76 
L 460.8 3.456 
L 0 3.456 
z
" style="fill:#ffffff;"/>
   </g>
   <g id="matplotlib.axis_1">
    <g id="xtick_1">
     <g id="line2d_1">
      <path clip-path="url(#pd69eb5258c)" d="M 109.321328 293.76 
L 109.321328 3.456 
" style="fill:none;stroke:#b0b0b0;stroke-linecap:square;stroke-width:0.8;"/>
     </g>
     <g id="line2d_2">
      <defs>
       <path d="M 0 0 
L 0 3.5 
" id="meca408b989" style="stroke:#000000;stroke-width:0.8;"/>
      </defs>
      <g>
       <use style="stroke:#000000;stroke-width:0.8;" x="109.321328" xlink:href="#meca408b989" y="293.76"/>
      </g>
     </g>
     <g id="text_1">
      <!-- -4 -->
      <g transform="translate(99.351016 315.956875)scale(0.2 -0.2)">
       <defs>
        <path d="M 313 2009 
L 1997 2009 
L 1997 1497 
L 313 1497 
L 313 2009 
z
" id="DejaVuSans-2d" transform="scale(0.015625)"/>
        <path d="M 2419 4116 
L 825 1625 
L 2419 1625 
L 2419 4116 
z
M 2253 4666 
L 3047 4666 
L 3047 1625 
L 3713 1625 
L 3713 1100 
L 3047 1100 
L 3047 0 
L 2419 0 
L 2419 1100 
L 313 1100 
L 313 1709 
L 2253 4666 
z
" id="DejaVuSans-34" transform="scale(0.015625)"/>
       </defs>
       <use xlink:href="#DejaVuSans-2d"/>
       <use x="36.083984" xlink:href="#DejaVuSans-34"/>
      </g>
     </g>
    </g>
    <g id="xtick_2">
     <g id="line2d_3">
      <path clip-path="url(#pd69eb5258c)" d="M 218.760889 293.76 
L 218.760889 3.456 
" style="fill:none;stroke:#b0b0b0;stroke-linecap:square;stroke-width:0.8;"/>
     </g>
     <g id="line2d_4">
      <g>
       <use style="stroke:#000000;stroke-width:0.8;" x="218.760889" xlink:href="#meca408b989" y="293.76"/>
      </g>
     </g>
     <g id="text_2">
      <!-- 0 -->
      <g transform="translate(212.398389 315.956875)scale(0.2 -0.2)">
       <defs>
        <path d="M 2034 4250 
Q 1547 4250 1301 3770 
Q 1056 3291 1056 2328 
Q 1056 1369 1301 889 
Q 1547 409 2034 409 
Q 2525 409 2770 889 
Q 3016 1369 3016 2328 
Q 3016 3291 2770 3770 
Q 2525 4250 2034 4250 
z
M 2034 4750 
Q 2819 4750 3233 4129 
Q 3647 3509 3647 2328 
Q 3647 1150 3233 529 
Q 2819 -91 2034 -91 
Q 1250 -91 836 529 
Q 422 1150 422 2328 
Q 422 3509 836 4129 
Q 1250 4750 2034 4750 
z
" id="DejaVuSans-30" transform="scale(0.015625)"/>
       </defs>
       <use xlink:href="#DejaVuSans-30"/>
      </g>
     </g>
    </g>
    <g id="xtick_3">
     <g id="line2d_5">
      <path clip-path="url(#pd69eb5258c)" d="M 328.20045 293.76 
L 328.20045 3.456 
" style="fill:none;stroke:#b0b0b0;stroke-linecap:square;stroke-width:0.8;"/>
     </g>
     <g id="line2d_6">
      <g>
       <use style="stroke:#000000;stroke-width:0.8;" x="328.20045" xlink:href="#meca408b989" y="293.76"/>
      </g>
     </g>
     <g id="text_3">
      <!-- 4 -->
      <g transform="translate(321.83795 315.956875)scale(0.2 -0.2)">
       <use xlink:href="#DejaVuSans-34"/>
      </g>
     </g>
    </g>
    <g id="xtick_4">
     <g id="line2d_7">
      <path clip-path="url(#pd69eb5258c)" d="M 437.640011 293.76 
L 437.640011 3.456 
" style="fill:none;stroke:#b0b0b0;stroke-linecap:square;stroke-width:0.8;"/>
     </g>
     <g id="line2d_8">
      <g>
       <use style="stroke:#000000;stroke-width:0.8;" x="437.640011" xlink:href="#meca408b989" y="293.76"/>
      </g>
     </g>
     <g id="text_4">
      <!-- 8 -->
      <g transform="translate(431.277511 315.956875)scale(0.2 -0.2)">
       <defs>
        <path d="M 2034 2216 
Q 1584 2216 1326 1975 
Q 1069 1734 1069 1313 
Q 1069 891 1326 650 
Q 1584 409 2034 409 
Q 2484 409 2743 651 
Q 3003 894 3003 1313 
Q 3003 1734 2745 1975 
Q 2488 2216 2034 2216 
z
M 1403 2484 
Q 997 2584 770 2862 
Q 544 3141 544 3541 
Q 544 4100 942 4425 
Q 1341 4750 2034 4750 
Q 2731 4750 3128 4425 
Q 3525 4100 3525 3541 
Q 3525 3141 3298 2862 
Q 3072 2584 2669 2484 
Q 3125 2378 3379 2068 
Q 3634 1759 3634 1313 
Q 3634 634 3220 271 
Q 2806 -91 2034 -91 
Q 1263 -91 848 271 
Q 434 634 434 1313 
Q 434 1759 690 2068 
Q 947 2378 1403 2484 
z
M 1172 3481 
Q 1172 3119 1398 2916 
Q 1625 2713 2034 2713 
Q 2441 2713 2670 2916 
Q 2900 3119 2900 3481 
Q 2900 3844 2670 4047 
Q 2441 4250 2034 4250 
Q 1625 4250 1398 4047 
Q 1172 3844 1172 3481 
z
" id="DejaVuSans-38" transform="scale(0.015625)"/>
       </defs>
       <use xlink:href="#DejaVuSans-38"/>
      </g>
     </g>
    </g>
    <g id="text_5">
     <!-- log10 of Df -->
     <g transform="translate(175.214063 339.313125)scale(0.2 -0.2)">
      <defs>
       <path d="M 603 4863 
L 1178 4863 
L 1178 0 
L 603 0 
L 603 4863 
z
" id="DejaVuSans-6c" transform="scale(0.015625)"/>
       <path d="M 1959 3097 
Q 1497 3097 1228 2736 
Q 959 2375 959 1747 
Q 959 1119 1226 758 
Q 1494 397 1959 397 
Q 2419 397 2687 759 
Q 2956 1122 2956 1747 
Q 2956 2369 2687 2733 
Q 2419 3097 1959 3097 
z
M 1959 3584 
Q 2709 3584 3137 3096 
Q 3566 2609 3566 1747 
Q 3566 888 3137 398 
Q 2709 -91 1959 -91 
Q 1206 -91 779 398 
Q 353 888 353 1747 
Q 353 2609 779 3096 
Q 1206 3584 1959 3584 
z
" id="DejaVuSans-6f" transform="scale(0.015625)"/>
       <path d="M 2906 1791 
Q 2906 2416 2648 2759 
Q 2391 3103 1925 3103 
Q 1463 3103 1205 2759 
Q 947 2416 947 1791 
Q 947 1169 1205 825 
Q 1463 481 1925 481 
Q 2391 481 2648 825 
Q 2906 1169 2906 1791 
z
M 3481 434 
Q 3481 -459 3084 -895 
Q 2688 -1331 1869 -1331 
Q 1566 -1331 1297 -1286 
Q 1028 -1241 775 -1147 
L 775 -588 
Q 1028 -725 1275 -790 
Q 1522 -856 1778 -856 
Q 2344 -856 2625 -561 
Q 2906 -266 2906 331 
L 2906 616 
Q 2728 306 2450 153 
Q 2172 0 1784 0 
Q 1141 0 747 490 
Q 353 981 353 1791 
Q 353 2603 747 3093 
Q 1141 3584 1784 3584 
Q 2172 3584 2450 3431 
Q 2728 3278 2906 2969 
L 2906 3500 
L 3481 3500 
L 3481 434 
z
" id="DejaVuSans-67" transform="scale(0.015625)"/>
       <path d="M 794 531 
L 1825 531 
L 1825 4091 
L 703 3866 
L 703 4441 
L 1819 4666 
L 2450 4666 
L 2450 531 
L 3481 531 
L 3481 0 
L 794 0 
L 794 531 
z
" id="DejaVuSans-31" transform="scale(0.015625)"/>
       <path id="DejaVuSans-20" transform="scale(0.015625)"/>
       <path d="M 2375 4863 
L 2375 4384 
L 1825 4384 
Q 1516 4384 1395 4259 
Q 1275 4134 1275 3809 
L 1275 3500 
L 2222 3500 
L 2222 3053 
L 1275 3053 
L 1275 0 
L 697 0 
L 697 3053 
L 147 3053 
L 147 3500 
L 697 3500 
L 697 3744 
Q 697 4328 969 4595 
Q 1241 4863 1831 4863 
L 2375 4863 
z
" id="DejaVuSans-66" transform="scale(0.015625)"/>
       <path d="M 1259 4147 
L 1259 519 
L 2022 519 
Q 2988 519 3436 956 
Q 3884 1394 3884 2338 
Q 3884 3275 3436 3711 
Q 2988 4147 2022 4147 
L 1259 4147 
z
M 628 4666 
L 1925 4666 
Q 3281 4666 3915 4102 
Q 4550 3538 4550 2338 
Q 4550 1131 3912 565 
Q 3275 0 1925 0 
L 628 0 
L 628 4666 
z
" id="DejaVuSans-44" transform="scale(0.015625)"/>
      </defs>
      <use xlink:href="#DejaVuSans-6c"/>
      <use x="27.783203" xlink:href="#DejaVuSans-6f"/>
      <use x="88.964844" xlink:href="#DejaVuSans-67"/>
      <use x="152.441406" xlink:href="#DejaVuSans-31"/>
      <use x="216.064453" xlink:href="#DejaVuSans-30"/>
      <use x="279.6875" xlink:href="#DejaVuSans-20"/>
      <use x="311.474609" xlink:href="#DejaVuSans-6f"/>
      <use x="372.65625" xlink:href="#DejaVuSans-66"/>
      <use x="407.861328" xlink:href="#DejaVuSans-20"/>
      <use x="439.648438" xlink:href="#DejaVuSans-44"/>
      <use x="516.650391" xlink:href="#DejaVuSans-66"/>
     </g>
    </g>
   </g>
   <g id="matplotlib.axis_2">
    <g id="ytick_1">
     <g id="line2d_9">
      <path clip-path="url(#pd69eb5258c)" d="M 0 293.76 
L 460.8 293.76 
" style="fill:none;stroke:#b0b0b0;stroke-linecap:square;stroke-width:0.8;"/>
     </g>
     <g id="line2d_10">
      <defs>
       <path d="M 0 0 
L -3.5 0 
" id="m6efdb9b48e" style="stroke:#000000;stroke-width:0.8;"/>
      </defs>
      <g>
       <use style="stroke:#000000;stroke-width:0.8;" x="0" xlink:href="#m6efdb9b48e" y="293.76"/>
      </g>
     </g>
    </g>
    <g id="ytick_2">
     <g id="line2d_11">
      <path clip-path="url(#pd69eb5258c)" d="M 0 236.274059 
L 460.8 236.274059 
" style="fill:none;stroke:#b0b0b0;stroke-linecap:square;stroke-width:0.8;"/>
     </g>
     <g id="line2d_12">
      <g>
       <use style="stroke:#000000;stroke-width:0.8;" x="0" xlink:href="#m6efdb9b48e" y="236.274059"/>
      </g>
     </g>
    </g>
    <g id="ytick_3">
     <g id="line2d_13">
      <path clip-path="url(#pd69eb5258c)" d="M 0 178.788119 
L 460.8 178.788119 
" style="fill:none;stroke:#b0b0b0;stroke-linecap:square;stroke-width:0.8;"/>
     </g>
     <g id="line2d_14">
      <g>
       <use style="stroke:#000000;stroke-width:0.8;" x="0" xlink:href="#m6efdb9b48e" y="178.788119"/>
      </g>
     </g>
    </g>
    <g id="ytick_4">
     <g id="line2d_15">
      <path clip-path="url(#pd69eb5258c)" d="M 0 121.302178 
L 460.8 121.302178 
" style="fill:none;stroke:#b0b0b0;stroke-linecap:square;stroke-width:0.8;"/>
     </g>
     <g id="line2d_16">
      <g>
       <use style="stroke:#000000;stroke-width:0.8;" x="0" xlink:href="#m6efdb9b48e" y="121.302178"/>
      </g>
     </g>
    </g>
    <g id="ytick_5">
     <g id="line2d_17">
      <path clip-path="url(#pd69eb5258c)" d="M 0 63.816238 
L 460.8 63.816238 
" style="fill:none;stroke:#b0b0b0;stroke-linecap:square;stroke-width:0.8;"/>
     </g>
     <g id="line2d_18">
      <g>
       <use style="stroke:#000000;stroke-width:0.8;" x="0" xlink:href="#m6efdb9b48e" y="63.816238"/>
      </g>
     </g>
    </g>
    <g id="ytick_6">
     <g id="line2d_19">
      <path clip-path="url(#pd69eb5258c)" d="M 0 6.330297 
L 460.8 6.330297 
" style="fill:none;stroke:#b0b0b0;stroke-linecap:square;stroke-width:0.8;"/>
     </g>
     <g id="line2d_20">
      <g>
       <use style="stroke:#000000;stroke-width:0.8;" x="0" xlink:href="#m6efdb9b48e" y="6.330297"/>
      </g>
     </g>
    </g>
   </g>
   <g id="line2d_21">
    <path clip-path="url(#pd69eb5258c)" d="M 210.500517 293.76 
L 210.500517 289.927604 
L 223.400987 289.927604 
L 223.400987 286.095208 
L 226.172232 286.095208 
L 226.172232 282.262812 
L 226.379405 282.262812 
L 226.379405 278.430416 
L 226.959009 278.430416 
L 226.959009 274.59802 
L 227.129208 274.59802 
L 227.171131 266.933228 
L 227.264957 266.933228 
L 227.308463 259.268436 
L 227.676162 259.268436 
L 227.676162 255.43604 
L 227.878249 255.43604 
L 227.878249 251.603644 
L 228.324651 251.603644 
L 228.39172 240.106455 
L 228.735984 240.106455 
L 228.735984 236.274059 
L 229.282207 236.274059 
L 229.282207 232.441663 
L 230.791163 232.441663 
L 230.870059 220.944475 
L 231.00008 220.944475 
L 231.100826 209.447287 
L 231.155017 209.447287 
L 231.155017 205.614891 
L 231.490122 205.614891 
L 231.585465 194.117703 
L 231.970358 194.117703 
L 232.014724 186.452911 
L 232.090372 186.452911 
L 232.192301 178.788119 
L 232.954637 178.788119 
L 232.954637 174.955723 
L 233.163472 174.955723 
L 233.163472 171.123327 
L 234.190974 171.123327 
L 234.190974 167.290931 
L 234.684215 167.290931 
L 234.684215 163.458535 
L 234.80183 163.458535 
L 234.80183 159.626139 
L 235.19724 159.626139 
L 235.279607 148.12895 
L 235.54567 148.12895 
L 235.54567 144.296554 
L 236.618617 144.296554 
L 236.618617 140.464158 
L 236.812922 140.464158 
L 236.812922 136.631762 
L 236.973627 136.631762 
L 236.973627 132.799366 
L 237.764435 132.799366 
L 237.764435 128.96697 
L 237.958543 128.96697 
L 237.958543 125.134574 
L 238.070808 125.134574 
L 238.070808 121.302178 
L 238.934364 121.302178 
L 238.934364 117.469782 
L 239.257484 117.469782 
L 239.257484 113.637386 
L 240.481318 113.637386 
L 240.481318 109.80499 
L 240.644572 109.80499 
L 240.644572 105.972594 
L 241.343033 105.972594 
L 241.343033 102.140198 
L 241.954669 102.140198 
L 241.954669 98.307802 
L 242.399625 98.307802 
L 242.399625 94.475406 
L 243.633602 94.475406 
L 243.649128 86.810614 
L 244.932695 86.810614 
L 244.932695 82.978218 
L 246.348935 82.978218 
L 246.348935 79.145822 
L 250.183619 79.145822 
L 250.183619 75.313426 
L 251.581949 75.313426 
L 251.581949 71.48103 
L 252.425038 71.48103 
L 252.425038 67.648634 
L 253.259107 67.648634 
L 253.259107 63.816238 
L 257.50505 63.816238 
L 257.50505 59.983842 
L 258.601451 59.983842 
L 258.601451 56.151446 
L 258.735181 56.151446 
L 258.735181 52.31905 
L 259.592905 52.31905 
L 259.618001 44.654257 
L 260.581402 44.654257 
L 260.581402 40.821861 
L 260.85828 40.821861 
L 260.902293 33.157069 
L 261.23443 33.157069 
L 261.23443 29.324673 
L 261.79419 29.324673 
L 261.837078 21.659881 
L 262.801097 21.659881 
L 262.801097 17.827485 
L 263.028949 17.827485 
L 263.028949 13.995089 
L 263.561453 13.995089 
L 263.561453 10.162693 
L 263.782529 10.162693 
L 263.782529 6.330297 
L 263.782529 6.330297 
L 460.8 6.330297 
L 460.8 6.330297 
" style="fill:none;stroke:#ff0000;stroke-linecap:square;stroke-width:3;"/>
   </g>
   <g id="line2d_22">
    <path clip-path="url(#pd69eb5258c)" d="M 240.73752 293.76 
L 240.73752 289.927604 
L 246.695269 289.927604 
L 246.695269 286.095208 
L 246.936235 286.095208 
L 246.956146 278.430416 
L 247.811532 278.430416 
L 247.811532 274.59802 
L 248.498243 274.59802 
L 248.498243 270.765624 
L 250.148878 270.765624 
L 250.148878 266.933228 
L 250.536882 266.933228 
L 250.536882 263.100832 
L 251.156512 263.100832 
L 251.156512 259.268436 
L 251.353945 259.268436 
L 251.353945 255.43604 
L 253.341432 255.43604 
L 253.415215 247.771248 
L 254.69988 247.771248 
L 254.722477 240.106455 
L 255.263401 240.106455 
L 255.263401 236.274059 
L 256.806664 236.274059 
L 256.806664 232.441663 
L 257.190222 232.441663 
L 257.190222 228.609267 
L 258.27571 228.609267 
L 258.27571 224.776871 
L 260.542594 224.776871 
L 260.572332 217.112079 
L 261.623689 217.112079 
L 261.623689 213.279683 
L 262.171892 213.279683 
L 262.171892 209.447287 
L 262.649046 209.447287 
L 262.649046 205.614891 
L 263.22394 205.614891 
L 263.235305 197.950099 
L 263.709154 197.950099 
L 263.709154 194.117703 
L 264.006401 194.117703 
L 264.006401 190.285307 
L 264.64365 190.285307 
L 264.64365 186.452911 
L 265.048087 186.452911 
L 265.048087 182.620515 
L 265.352538 182.620515 
L 265.352538 178.788119 
L 266.342255 178.788119 
L 266.342255 174.955723 
L 267.683223 174.955723 
L 267.683223 171.123327 
L 268.025625 171.123327 
L 268.1087 163.458535 
L 268.189978 163.458535 
L 268.262879 155.793743 
L 268.399835 155.793743 
L 268.509565 144.296554 
L 268.850586 144.296554 
L 268.850586 140.464158 
L 269.067815 140.464158 
L 269.15494 125.134574 
L 269.180251 125.134574 
L 269.180251 121.302178 
L 269.333817 121.302178 
L 269.412957 105.972594 
L 269.643854 105.972594 
L 269.733608 98.307802 
L 270.035711 98.307802 
L 270.078274 90.64301 
L 270.396624 90.64301 
L 270.396624 86.810614 
L 270.676896 86.810614 
L 270.712285 79.145822 
L 271.645852 79.145822 
L 271.645852 75.313426 
L 271.935714 75.313426 
L 271.935714 71.48103 
L 272.297779 71.48103 
L 272.297779 67.648634 
L 272.898549 67.648634 
L 272.898549 63.816238 
L 273.036452 63.816238 
L 273.036452 59.983842 
L 295.345047 59.983842 
L 295.345047 56.151446 
L 295.721736 56.151446 
L 295.721736 52.31905 
L 303.994581 52.31905 
L 303.994581 48.486653 
L 306.096536 48.486653 
L 306.096536 44.654257 
L 308.257864 44.654257 
L 308.257864 40.821861 
L 309.300401 40.821861 
L 309.300401 36.989465 
L 311.348131 36.989465 
L 311.348131 33.157069 
L 315.653117 33.157069 
L 315.653117 29.324673 
L 317.878603 29.324673 
L 317.878603 25.492277 
L 320.055483 25.492277 
L 320.055483 21.659881 
L 321.35672 21.659881 
L 321.35672 17.827485 
L 324.434105 17.827485 
L 324.434105 13.995089 
L 324.599483 13.995089 
L 324.599483 10.162693 
L 326.526721 10.162693 
L 326.526721 6.330297 
L 326.526721 6.330297 
L 460.8 6.330297 
L 460.8 6.330297 
" style="fill:none;stroke:#00bfbf;stroke-linecap:square;stroke-width:1.5;"/>
   </g>
   <g id="line2d_23">
    <path clip-path="url(#pd69eb5258c)" d="M 226.959009 293.76 
L 226.959009 289.927604 
L 238.658037 289.927604 
L 238.658037 286.095208 
L 240.73752 286.095208 
L 240.73752 282.262812 
L 240.885002 282.262812 
L 240.904992 274.59802 
L 241.01515 274.59802 
L 241.11102 266.933228 
L 241.450885 266.933228 
L 241.450885 263.100832 
L 243.88974 263.100832 
L 243.88974 259.268436 
L 244.088805 259.268436 
L 244.088805 255.43604 
L 245.219309 255.43604 
L 245.219309 251.603644 
L 245.343909 251.603644 
L 245.343909 247.771248 
L 246.48409 247.771248 
L 246.48409 243.938851 
L 246.695269 243.938851 
L 246.695269 240.106455 
L 246.936235 240.106455 
L 246.936235 236.274059 
L 247.73619 236.274059 
L 247.73619 232.441663 
L 248.249512 232.441663 
L 248.249512 228.609267 
L 248.498243 228.609267 
L 248.498243 224.776871 
L 249.257986 224.776871 
L 249.257986 220.944475 
L 250.536882 220.944475 
L 250.536882 217.112079 
L 251.051917 217.112079 
L 251.051917 213.279683 
L 251.353945 213.279683 
L 251.418304 205.614891 
L 253.341432 205.614891 
L 253.365906 197.950099 
L 256.953989 197.950099 
L 256.953989 194.117703 
L 257.546441 194.117703 
L 257.546441 190.285307 
L 258.27571 190.285307 
L 258.27571 186.452911 
L 260.482981 186.452911 
L 260.572332 178.788119 
L 261.90111 178.788119 
L 261.90111 174.955723 
L 262.523071 174.955723 
L 262.523071 171.123327 
L 262.649046 171.123327 
L 262.649046 167.290931 
L 263.556215 167.290931 
L 263.556215 163.458535 
L 263.709154 163.458535 
L 263.709154 159.626139 
L 263.875058 159.626139 
L 263.875058 155.793743 
L 264.208431 155.793743 
L 264.302741 148.12895 
L 264.517324 148.12895 
L 264.526003 140.464158 
L 264.779936 140.464158 
L 264.831947 132.799366 
L 264.979028 132.799366 
L 264.979028 128.96697 
L 265.435805 128.96697 
L 265.465843 121.302178 
L 266.160456 121.302178 
L 266.160456 117.469782 
L 266.34348 117.469782 
L 266.440218 109.80499 
L 266.481145 109.80499 
L 266.481145 105.972594 
L 266.612516 105.972594 
L 266.641278 98.307802 
L 267.273433 98.307802 
L 267.273433 94.475406 
L 267.883763 94.475406 
L 267.902361 86.810614 
L 268.015942 86.810614 
L 268.1087 75.313426 
L 268.189978 75.313426 
L 268.189978 71.48103 
L 268.496138 71.48103 
L 268.496138 67.648634 
L 268.760274 67.648634 
L 268.760274 63.816238 
L 269.026376 63.816238 
L 269.067815 56.151446 
L 269.180251 56.151446 
L 269.180251 52.31905 
L 269.386211 52.31905 
L 269.386211 48.486653 
L 288.916657 48.486653 
L 288.916657 44.654257 
L 295.345047 44.654257 
L 295.345047 40.821861 
L 295.721736 40.821861 
L 295.721736 36.989465 
L 300.863173 36.989465 
L 300.863173 33.157069 
L 302.770916 33.157069 
L 302.770916 29.324673 
L 304.366426 29.324673 
L 304.366426 25.492277 
L 305.586029 25.492277 
L 305.586029 21.659881 
L 306.063543 21.659881 
L 306.096536 13.995089 
L 309.300401 13.995089 
L 309.300401 10.162693 
L 311.030194 10.162693 
L 311.030194 6.330297 
L 311.030194 6.330297 
L 460.8 6.330297 
L 460.8 6.330297 
" style="fill:none;stroke:#bf00bf;stroke-linecap:square;stroke-width:1.5;"/>
   </g>
   <g id="line2d_24">
    <path clip-path="url(#pd69eb5258c)" d="M 226.959009 293.76 
L 226.959009 289.927604 
L 233.718465 289.927604 
L 233.718465 286.095208 
L 234.906889 286.095208 
L 234.906889 282.262812 
L 235.19724 282.262812 
L 235.19724 278.430416 
L 236.988296 278.430416 
L 236.988296 274.59802 
L 238.070808 274.59802 
L 238.1464 266.933228 
L 240.50554 266.933228 
L 240.50554 263.100832 
L 240.73752 263.100832 
L 240.73752 259.268436 
L 240.885002 259.268436 
L 240.904992 251.603644 
L 241.01515 251.603644 
L 241.11102 243.938851 
L 241.52266 243.938851 
L 241.52266 240.106455 
L 241.743208 240.106455 
L 241.802486 232.441663 
L 242.060795 232.441663 
L 242.060795 228.609267 
L 243.416245 228.609267 
L 243.416245 224.776871 
L 243.88974 224.776871 
L 243.88974 220.944475 
L 244.088805 220.944475 
L 244.088805 217.112079 
L 244.341889 217.112079 
L 244.341889 213.279683 
L 244.951405 213.279683 
L 244.987381 205.614891 
L 246.474873 205.614891 
L 246.474873 201.782495 
L 246.936235 201.782495 
L 246.936235 197.950099 
L 247.538074 197.950099 
L 247.538074 194.117703 
L 248.31734 194.117703 
L 248.31734 190.285307 
L 249.257986 190.285307 
L 249.257986 186.452911 
L 251.051917 186.452911 
L 251.051917 182.620515 
L 251.370358 182.620515 
L 251.370358 178.788119 
L 253.365906 178.788119 
L 253.365906 174.955723 
L 253.520585 174.955723 
L 253.520585 171.123327 
L 253.860739 171.123327 
L 253.860739 167.290931 
L 255.172133 167.290931 
L 255.172133 163.458535 
L 255.655514 163.458535 
L 255.655514 159.626139 
L 255.830898 159.626139 
L 255.830898 155.793743 
L 257.546441 155.793743 
L 257.546441 151.961347 
L 258.27571 151.961347 
L 258.27571 148.12895 
L 259.618001 148.12895 
L 259.618293 140.464158 
L 260.572332 140.464158 
L 260.572332 136.631762 
L 261.02292 136.631762 
L 261.02292 132.799366 
L 261.90111 132.799366 
L 261.90111 128.96697 
L 262.649046 128.96697 
L 262.649046 125.134574 
L 262.826461 125.134574 
L 262.826461 121.302178 
L 263.191506 121.302178 
L 263.257957 113.637386 
L 263.875058 113.637386 
L 263.875058 109.80499 
L 264.106474 109.80499 
L 264.106474 105.972594 
L 264.302741 105.972594 
L 264.302741 102.140198 
L 264.779936 102.140198 
L 264.831947 94.475406 
L 264.979028 94.475406 
L 264.979028 90.64301 
L 265.435805 90.64301 
L 265.465843 82.978218 
L 265.784399 82.978218 
L 265.784399 79.145822 
L 266.019131 79.145822 
L 266.019131 75.313426 
L 266.160456 75.313426 
L 266.160456 71.48103 
L 266.481145 71.48103 
L 266.481145 67.648634 
L 266.641278 67.648634 
L 266.641278 63.816238 
L 266.8069 63.816238 
L 266.8069 59.983842 
L 266.939245 59.983842 
L 266.939245 56.151446 
L 267.189276 56.151446 
L 267.273433 48.486653 
L 267.629926 48.486653 
L 267.629926 44.654257 
L 267.875131 44.654257 
L 267.902361 36.989465 
L 268.1087 36.989465 
L 268.1087 33.157069 
L 268.496138 33.157069 
L 268.496138 29.324673 
L 292.930442 29.324673 
L 292.930442 25.492277 
L 295.345047 25.492277 
L 295.345047 21.659881 
L 295.721736 21.659881 
L 295.721736 17.827485 
L 300.863173 17.827485 
L 300.863173 13.995089 
L 302.770916 13.995089 
L 302.770916 10.162693 
L 311.030194 10.162693 
L 311.030194 6.330297 
L 311.030194 6.330297 
L 460.8 6.330297 
L 460.8 6.330297 
" style="fill:none;stroke:#000000;stroke-linecap:square;stroke-width:1.5;"/>
   </g>
   <g id="line2d_25">
    <path clip-path="url(#pd69eb5258c)" d="M 226.959009 293.76 
L 226.959009 289.927604 
L 230.468721 289.927604 
L 230.468721 286.095208 
L 232.328541 286.095208 
L 232.328541 282.262812 
L 232.954637 282.262812 
L 232.954637 278.430416 
L 233.114303 278.430416 
L 233.114303 274.59802 
L 233.695899 274.59802 
L 233.695899 270.765624 
L 234.027125 270.765624 
L 234.027125 266.933228 
L 234.667321 266.933228 
L 234.667321 263.100832 
L 235.19724 263.100832 
L 235.19724 259.268436 
L 235.533875 259.268436 
L 235.533875 255.43604 
L 236.988296 255.43604 
L 236.988296 251.603644 
L 237.339742 251.603644 
L 237.339742 247.771248 
L 237.958543 247.771248 
L 237.958543 243.938851 
L 238.070808 243.938851 
L 238.1464 236.274059 
L 238.478364 236.274059 
L 238.478364 232.441663 
L 238.826583 232.441663 
L 238.879782 224.776871 
L 239.04781 224.776871 
L 239.04781 220.944475 
L 239.235674 220.944475 
L 239.291102 213.279683 
L 239.400652 213.279683 
L 239.400652 209.447287 
L 239.866575 209.447287 
L 239.866575 205.614891 
L 240.885002 205.614891 
L 240.885002 201.782495 
L 241.01515 201.782495 
L 241.01515 197.950099 
L 241.743208 197.950099 
L 241.743208 194.117703 
L 242.892275 194.117703 
L 242.892275 190.285307 
L 243.416245 190.285307 
L 243.416245 186.452911 
L 244.088805 186.452911 
L 244.088805 182.620515 
L 246.557305 182.620515 
L 246.557305 178.788119 
L 246.936235 178.788119 
L 246.936235 174.955723 
L 248.31734 174.955723 
L 248.31734 171.123327 
L 249.257986 171.123327 
L 249.257986 167.290931 
L 250.336122 167.290931 
L 250.336122 163.458535 
L 251.051917 163.458535 
L 251.051917 159.626139 
L 251.208051 159.626139 
L 251.2788 151.961347 
L 251.370358 151.961347 
L 251.370358 148.12895 
L 252.455345 148.12895 
L 252.455345 144.296554 
L 253.193734 144.296554 
L 253.193734 140.464158 
L 253.582555 140.464158 
L 253.582555 136.631762 
L 253.860739 136.631762 
L 253.860739 132.799366 
L 254.094001 132.799366 
L 254.094001 128.96697 
L 254.244085 128.96697 
L 254.244085 125.134574 
L 254.520183 125.134574 
L 254.520183 121.302178 
L 257.510328 121.302178 
L 257.58316 109.80499 
L 258.420512 109.80499 
L 258.420512 105.972594 
L 258.623399 105.972594 
L 258.623399 102.140198 
L 259.618001 102.140198 
L 259.618001 98.307802 
L 260.572332 98.307802 
L 260.572332 94.475406 
L 261.90111 94.475406 
L 261.90111 90.64301 
L 262.470206 90.64301 
L 262.470206 86.810614 
L 262.826461 86.810614 
L 262.826461 82.978218 
L 263.191506 82.978218 
L 263.191506 79.145822 
L 263.879133 79.145822 
L 263.879133 75.313426 
L 264.159452 75.313426 
L 264.159452 71.48103 
L 264.302741 71.48103 
L 264.302741 67.648634 
L 264.779936 67.648634 
L 264.861291 56.151446 
L 265.114241 56.151446 
L 265.114241 52.31905 
L 265.435805 52.31905 
L 265.465843 44.654257 
L 265.784399 44.654257 
L 265.784399 40.821861 
L 266.160456 40.821861 
L 266.160456 36.989465 
L 266.312123 36.989465 
L 266.312123 33.157069 
L 266.481145 33.157069 
L 266.481145 29.324673 
L 266.939245 29.324673 
L 266.939245 25.492277 
L 267.189276 25.492277 
L 267.273433 17.827485 
L 284.020519 17.827485 
L 284.020519 13.995089 
L 292.930442 13.995089 
L 292.930442 10.162693 
L 298.78084 10.162693 
L 298.78084 6.330297 
L 298.78084 6.330297 
L 460.8 6.330297 
L 460.8 6.330297 
" style="fill:none;stroke:#00bfbf;stroke-linecap:square;stroke-width:1.5;"/>
   </g>
   <g id="line2d_26">
    <path clip-path="url(#pd69eb5258c)" d="M 210.500517 293.76 
L 210.500517 289.927604 
L 223.400987 289.927604 
L 223.400987 286.095208 
L 226.172232 286.095208 
L 226.172232 282.262812 
L 226.379405 282.262812 
L 226.379405 278.430416 
L 226.959009 278.430416 
L 226.959009 274.59802 
L 227.129208 274.59802 
L 227.171131 266.933228 
L 227.264957 266.933228 
L 227.308463 259.268436 
L 227.676162 259.268436 
L 227.676162 255.43604 
L 227.878249 255.43604 
L 227.878249 251.603644 
L 228.324651 251.603644 
L 228.39172 240.106455 
L 228.735984 240.106455 
L 228.735984 236.274059 
L 229.282207 236.274059 
L 229.282207 232.441663 
L 230.791163 232.441663 
L 230.870059 220.944475 
L 231.00008 220.944475 
L 231.100826 209.447287 
L 231.155017 209.447287 
L 231.155017 205.614891 
L 231.490122 205.614891 
L 231.585465 194.117703 
L 231.970358 194.117703 
L 232.014724 186.452911 
L 232.090372 186.452911 
L 232.192301 178.788119 
L 232.954637 178.788119 
L 232.954637 174.955723 
L 233.163472 174.955723 
L 233.163472 171.123327 
L 234.190974 171.123327 
L 234.190974 167.290931 
L 234.684215 167.290931 
L 234.684215 163.458535 
L 234.80183 163.458535 
L 234.80183 159.626139 
L 235.19724 159.626139 
L 235.279607 148.12895 
L 235.54567 148.12895 
L 235.54567 144.296554 
L 236.618617 144.296554 
L 236.618617 140.464158 
L 236.812922 140.464158 
L 236.812922 136.631762 
L 236.973627 136.631762 
L 236.973627 132.799366 
L 237.764435 132.799366 
L 237.764435 128.96697 
L 237.958543 128.96697 
L 237.958543 125.134574 
L 238.070808 125.134574 
L 238.070808 121.302178 
L 238.934364 121.302178 
L 238.934364 117.469782 
L 239.257484 117.469782 
L 239.257484 113.637386 
L 240.481318 113.637386 
L 240.481318 109.80499 
L 240.644572 109.80499 
L 240.644572 105.972594 
L 241.343033 105.972594 
L 241.343033 102.140198 
L 241.954669 102.140198 
L 241.954669 98.307802 
L 242.399625 98.307802 
L 242.399625 94.475406 
L 243.633602 94.475406 
L 243.649128 86.810614 
L 244.932695 86.810614 
L 244.932695 82.978218 
L 246.348935 82.978218 
L 246.348935 79.145822 
L 250.183619 79.145822 
L 250.183619 75.313426 
L 251.581949 75.313426 
L 251.581949 71.48103 
L 252.425038 71.48103 
L 252.425038 67.648634 
L 253.259107 67.648634 
L 253.259107 63.816238 
L 257.50505 63.816238 
L 257.50505 59.983842 
L 258.601451 59.983842 
L 258.601451 56.151446 
L 258.735181 56.151446 
L 258.735181 52.31905 
L 259.592905 52.31905 
L 259.618001 44.654257 
L 260.581402 44.654257 
L 260.581402 40.821861 
L 260.85828 40.821861 
L 260.902293 33.157069 
L 261.23443 33.157069 
L 261.23443 29.324673 
L 261.79419 29.324673 
L 261.837078 21.659881 
L 262.801097 21.659881 
L 262.801097 17.827485 
L 263.028949 17.827485 
L 263.028949 13.995089 
L 263.561453 13.995089 
L 263.561453 10.162693 
L 263.782529 10.162693 
L 263.782529 6.330297 
L 263.782529 6.330297 
L 460.8 6.330297 
L 460.8 6.330297 
" style="fill:none;stroke:#bf00bf;stroke-linecap:square;stroke-width:1.5;"/>
   </g>
   <g id="patch_3">
    <path d="M 0 293.76 
L 0 3.456 
" style="fill:none;stroke:#000000;stroke-linecap:square;stroke-linejoin:miter;stroke-width:0.8;"/>
   </g>
   <g id="patch_4">
    <path d="M 460.8 293.76 
L 460.8 3.456 
" style="fill:none;stroke:#000000;stroke-linecap:square;stroke-linejoin:miter;stroke-width:0.8;"/>
   </g>
   <g id="patch_5">
    <path d="M 0 293.76 
L 460.8 293.76 
" style="fill:none;stroke:#000000;stroke-linecap:square;stroke-linejoin:miter;stroke-width:0.8;"/>
   </g>
   <g id="patch_6">
    <path d="M 0 3.456 
L 460.8 3.456 
" style="fill:none;stroke:#000000;stroke-linecap:square;stroke-linejoin:miter;stroke-width:0.8;"/>
   </g>
   <g id="text_6">
    <!-- {f20-f24}, 5-D -->
    <g transform="translate(305.884 287.95392)scale(0.2 -0.2)">
     <defs>
      <path d="M 3272 -594 
L 3272 -1044 
L 3078 -1044 
Q 2300 -1044 2036 -812 
Q 1772 -581 1772 109 
L 1772 856 
Q 1772 1328 1603 1509 
Q 1434 1691 991 1691 
L 800 1691 
L 800 2138 
L 991 2138 
Q 1438 2138 1605 2317 
Q 1772 2497 1772 2963 
L 1772 3713 
Q 1772 4403 2036 4633 
Q 2300 4863 3078 4863 
L 3272 4863 
L 3272 4416 
L 3059 4416 
Q 2619 4416 2484 4278 
Q 2350 4141 2350 3700 
L 2350 2925 
Q 2350 2434 2208 2212 
Q 2066 1991 1722 1913 
Q 2069 1828 2209 1606 
Q 2350 1384 2350 897 
L 2350 122 
Q 2350 -319 2484 -456 
Q 2619 -594 3059 -594 
L 3272 -594 
z
" id="DejaVuSans-7b" transform="scale(0.015625)"/>
      <path d="M 1228 531 
L 3431 531 
L 3431 0 
L 469 0 
L 469 531 
Q 828 903 1448 1529 
Q 2069 2156 2228 2338 
Q 2531 2678 2651 2914 
Q 2772 3150 2772 3378 
Q 2772 3750 2511 3984 
Q 2250 4219 1831 4219 
Q 1534 4219 1204 4116 
Q 875 4013 500 3803 
L 500 4441 
Q 881 4594 1212 4672 
Q 1544 4750 1819 4750 
Q 2544 4750 2975 4387 
Q 3406 4025 3406 3419 
Q 3406 3131 3298 2873 
Q 3191 2616 2906 2266 
Q 2828 2175 2409 1742 
Q 1991 1309 1228 531 
z
" id="DejaVuSans-32" transform="scale(0.015625)"/>
      <path d="M 800 -594 
L 1019 -594 
Q 1456 -594 1589 -459 
Q 1722 -325 1722 122 
L 1722 897 
Q 1722 1384 1862 1606 
Q 2003 1828 2350 1913 
Q 2003 1991 1862 2212 
Q 1722 2434 1722 2925 
L 1722 3700 
Q 1722 4144 1589 4280 
Q 1456 4416 1019 4416 
L 800 4416 
L 800 4863 
L 997 4863 
Q 1775 4863 2036 4633 
Q 2297 4403 2297 3713 
L 2297 2963 
Q 2297 2497 2465 2317 
Q 2634 2138 3078 2138 
L 3272 2138 
L 3272 1691 
L 3078 1691 
Q 2634 1691 2465 1509 
Q 2297 1328 2297 856 
L 2297 109 
Q 2297 -581 2036 -812 
Q 1775 -1044 997 -1044 
L 800 -1044 
L 800 -594 
z
" id="DejaVuSans-7d" transform="scale(0.015625)"/>
      <path d="M 750 794 
L 1409 794 
L 1409 256 
L 897 -744 
L 494 -744 
L 750 256 
L 750 794 
z
" id="DejaVuSans-2c" transform="scale(0.015625)"/>
      <path d="M 691 4666 
L 3169 4666 
L 3169 4134 
L 1269 4134 
L 1269 2991 
Q 1406 3038 1543 3061 
Q 1681 3084 1819 3084 
Q 2600 3084 3056 2656 
Q 3513 2228 3513 1497 
Q 3513 744 3044 326 
Q 2575 -91 1722 -91 
Q 1428 -91 1123 -41 
Q 819 9 494 109 
L 494 744 
Q 775 591 1075 516 
Q 1375 441 1709 441 
Q 2250 441 2565 725 
Q 2881 1009 2881 1497 
Q 2881 1984 2565 2268 
Q 2250 2553 1709 2553 
Q 1456 2553 1204 2497 
Q 953 2441 691 2322 
L 691 4666 
z
" id="DejaVuSans-35" transform="scale(0.015625)"/>
     </defs>
     <use xlink:href="#DejaVuSans-7b"/>
     <use x="63.623047" xlink:href="#DejaVuSans-66"/>
     <use x="98.828125" xlink:href="#DejaVuSans-32"/>
     <use x="162.451172" xlink:href="#DejaVuSans-30"/>
     <use x="226.074219" xlink:href="#DejaVuSans-2d"/>
     <use x="262.158203" xlink:href="#DejaVuSans-66"/>
     <use x="297.363281" xlink:href="#DejaVuSans-32"/>
     <use x="360.986328" xlink:href="#DejaVuSans-34"/>
     <use x="424.609375" xlink:href="#DejaVuSans-7d"/>
     <use x="488.232422" xlink:href="#DejaVuSans-2c"/>
     <use x="520.019531" xlink:href="#DejaVuSans-20"/>
     <use x="551.806641" xlink:href="#DejaVuSans-35"/>
     <use x="615.429688" xlink:href="#DejaVuSans-2d"/>
     <use x="651.513672" xlink:href="#DejaVuSans-44"/>
    </g>
   </g>
   <g id="text_7">
    <!-- v2.4 -->
    <g style="fill:#808080;" transform="translate(219.489063 288.777272)scale(0.1 -0.1)">
     <defs>
      <path d="M 191 3500 
L 800 3500 
L 1894 563 
L 2988 3500 
L 3597 3500 
L 2284 0 
L 1503 0 
L 191 3500 
z
" id="DejaVuSans-76" transform="scale(0.015625)"/>
      <path d="M 684 794 
L 1344 794 
L 1344 0 
L 684 0 
L 684 794 
z
" id="DejaVuSans-2e" transform="scale(0.015625)"/>
     </defs>
     <use xlink:href="#DejaVuSans-76"/>
     <use x="59.179688" xlink:href="#DejaVuSans-32"/>
     <use x="122.802734" xlink:href="#DejaVuSans-2e"/>
     <use x="154.589844" xlink:href="#DejaVuSans-34"/>
    </g>
   </g>
  </g>
 </g>
 <defs>
  <clipPath id="pd69eb5258c">
   <rect height="290.304" width="460.8" x="0" y="3.456"/>
  </clipPath>
 </defs>
</svg>
