<?xml version="1.0" encoding="utf-8" standalone="no"?>
<!DOCTYPE svg PUBLIC "-//W3C//DTD SVG 1.1//EN"
  "http://www.w3.org/Graphics/SVG/1.1/DTD/svg11.dtd">
<svg height="345.6pt" version="1.1" viewBox="0 0 460.8 345.6" width="460.8pt" xmlns="http://www.w3.org/2000/svg" xmlns:xlink="http://www.w3.org/1999/xlink">
 <metadata>
  <rdf:RDF xmlns:cc="http://creativecommons.org/ns#" xmlns:dc="http://purl.org/dc/elements/1.1/" xmlns:rdf="http://www.w3.org/1999/02/22-rdf-syntax-ns#">
   <cc:Work>
    <dc:type rdf:resource="http://purl.org/dc/dcmitype/StillImage"/>
    <dc:date>2021-06-14T12:33:36.584454</dc:date>
    <dc:format>image/svg+xml</dc:format>
    <dc:creator>
     <cc:Agent>
      <dc:title>Matplotlib v3.4.2, https://matplotlib.org/</dc:title>
     </cc:Agent>
    </dc:creator>
   </cc:Work>
  </rdf:RDF>
 </metadata>
 <defs>
  <style type="text/css">*{stroke-linecap:butt;stroke-linejoin:round;}</style>
 </defs>
 <g id="figure_1">
  <g id="patch_1">
   <path d="M 0 345.6 
L 460.8 345.6 
L 460.8 0 
L 0 0 
z
" style="fill:#ffffff;"/>
  </g>
  <g id="axes_1">
   <g id="patch_2">
    <path d="M 0 293.76 
L 460.8 293.76 
L 460.8 3.456 
L 0 3.456 
z
" style="fill:#ffffff;"/>
   </g>
   <g id="matplotlib.axis_1">
    <g id="xtick_1">
     <g id="line2d_1">
      <path clip-path="url(#p050bf06c4c)" d="M 109.321328 293.76 
L 109.321328 3.456 
" style="fill:none;stroke:#b0b0b0;stroke-linecap:square;stroke-width:0.8;"/>
     </g>
     <g id="line2d_2">
      <defs>
       <path d="M 0 0 
L 0 3.5 
" id="mb4644e8b3d" style="stroke:#000000;stroke-width:0.8;"/>
      </defs>
      <g>
       <use style="stroke:#000000;stroke-width:0.8;" x="109.321328" xlink:href="#mb4644e8b3d" y="293.76"/>
      </g>
     </g>
     <g id="text_1">
      <!-- -4 -->
      <g transform="translate(99.351016 315.956875)scale(0.2 -0.2)">
       <defs>
        <path d="M 313 2009 
L 1997 2009 
L 1997 1497 
L 313 1497 
L 313 2009 
z
" id="DejaVuSans-2d" transform="scale(0.015625)"/>
        <path d="M 2419 4116 
L 825 1625 
L 2419 1625 
L 2419 4116 
z
M 2253 4666 
L 3047 4666 
L 3047 1625 
L 3713 1625 
L 3713 1100 
L 3047 1100 
L 3047 0 
L 2419 0 
L 2419 1100 
L 313 1100 
L 313 1709 
L 2253 4666 
z
" id="DejaVuSans-34" transform="scale(0.015625)"/>
       </defs>
       <use xlink:href="#DejaVuSans-2d"/>
       <use x="36.083984" xlink:href="#DejaVuSans-34"/>
      </g>
     </g>
    </g>
    <g id="xtick_2">
     <g id="line2d_3">
      <path clip-path="url(#p050bf06c4c)" d="M 218.760889 293.76 
L 218.760889 3.456 
" style="fill:none;stroke:#b0b0b0;stroke-linecap:square;stroke-width:0.8;"/>
     </g>
     <g id="line2d_4">
      <g>
       <use style="stroke:#000000;stroke-width:0.8;" x="218.760889" xlink:href="#mb4644e8b3d" y="293.76"/>
      </g>
     </g>
     <g id="text_2">
      <!-- 0 -->
      <g transform="translate(212.398389 315.956875)scale(0.2 -0.2)">
       <defs>
        <path d="M 2034 4250 
Q 1547 4250 1301 3770 
Q 1056 3291 1056 2328 
Q 1056 1369 1301 889 
Q 1547 409 2034 409 
Q 2525 409 2770 889 
Q 3016 1369 3016 2328 
Q 3016 3291 2770 3770 
Q 2525 4250 2034 4250 
z
M 2034 4750 
Q 2819 4750 3233 4129 
Q 3647 3509 3647 2328 
Q 3647 1150 3233 529 
Q 2819 -91 2034 -91 
Q 1250 -91 836 529 
Q 422 1150 422 2328 
Q 422 3509 836 4129 
Q 1250 4750 2034 4750 
z
" id="DejaVuSans-30" transform="scale(0.015625)"/>
       </defs>
       <use xlink:href="#DejaVuSans-30"/>
      </g>
     </g>
    </g>
    <g id="xtick_3">
     <g id="line2d_5">
      <path clip-path="url(#p050bf06c4c)" d="M 328.20045 293.76 
L 328.20045 3.456 
" style="fill:none;stroke:#b0b0b0;stroke-linecap:square;stroke-width:0.8;"/>
     </g>
     <g id="line2d_6">
      <g>
       <use style="stroke:#000000;stroke-width:0.8;" x="328.20045" xlink:href="#mb4644e8b3d" y="293.76"/>
      </g>
     </g>
     <g id="text_3">
      <!-- 4 -->
      <g transform="translate(321.83795 315.956875)scale(0.2 -0.2)">
       <use xlink:href="#DejaVuSans-34"/>
      </g>
     </g>
    </g>
    <g id="xtick_4">
     <g id="line2d_7">
      <path clip-path="url(#p050bf06c4c)" d="M 437.640011 293.76 
L 437.640011 3.456 
" style="fill:none;stroke:#b0b0b0;stroke-linecap:square;stroke-width:0.8;"/>
     </g>
     <g id="line2d_8">
      <g>
       <use style="stroke:#000000;stroke-width:0.8;" x="437.640011" xlink:href="#mb4644e8b3d" y="293.76"/>
      </g>
     </g>
     <g id="text_4">
      <!-- 8 -->
      <g transform="translate(431.277511 315.956875)scale(0.2 -0.2)">
       <defs>
        <path d="M 2034 2216 
Q 1584 2216 1326 1975 
Q 1069 1734 1069 1313 
Q 1069 891 1326 650 
Q 1584 409 2034 409 
Q 2484 409 2743 651 
Q 3003 894 3003 1313 
Q 3003 1734 2745 1975 
Q 2488 2216 2034 2216 
z
M 1403 2484 
Q 997 2584 770 2862 
Q 544 3141 544 3541 
Q 544 4100 942 4425 
Q 1341 4750 2034 4750 
Q 2731 4750 3128 4425 
Q 3525 4100 3525 3541 
Q 3525 3141 3298 2862 
Q 3072 2584 2669 2484 
Q 3125 2378 3379 2068 
Q 3634 1759 3634 1313 
Q 3634 634 3220 271 
Q 2806 -91 2034 -91 
Q 1263 -91 848 271 
Q 434 634 434 1313 
Q 434 1759 690 2068 
Q 947 2378 1403 2484 
z
M 1172 3481 
Q 1172 3119 1398 2916 
Q 1625 2713 2034 2713 
Q 2441 2713 2670 2916 
Q 2900 3119 2900 3481 
Q 2900 3844 2670 4047 
Q 2441 4250 2034 4250 
Q 1625 4250 1398 4047 
Q 1172 3844 1172 3481 
z
" id="DejaVuSans-38" transform="scale(0.015625)"/>
       </defs>
       <use xlink:href="#DejaVuSans-38"/>
      </g>
     </g>
    </g>
    <g id="text_5">
     <!-- log10 of Df -->
     <g transform="translate(175.214063 339.313125)scale(0.2 -0.2)">
      <defs>
       <path d="M 603 4863 
L 1178 4863 
L 1178 0 
L 603 0 
L 603 4863 
z
" id="DejaVuSans-6c" transform="scale(0.015625)"/>
       <path d="M 1959 3097 
Q 1497 3097 1228 2736 
Q 959 2375 959 1747 
Q 959 1119 1226 758 
Q 1494 397 1959 397 
Q 2419 397 2687 759 
Q 2956 1122 2956 1747 
Q 2956 2369 2687 2733 
Q 2419 3097 1959 3097 
z
M 1959 3584 
Q 2709 3584 3137 3096 
Q 3566 2609 3566 1747 
Q 3566 888 3137 398 
Q 2709 -91 1959 -91 
Q 1206 -91 779 398 
Q 353 888 353 1747 
Q 353 2609 779 3096 
Q 1206 3584 1959 3584 
z
" id="DejaVuSans-6f" transform="scale(0.015625)"/>
       <path d="M 2906 1791 
Q 2906 2416 2648 2759 
Q 2391 3103 1925 3103 
Q 1463 3103 1205 2759 
Q 947 2416 947 1791 
Q 947 1169 1205 825 
Q 1463 481 1925 481 
Q 2391 481 2648 825 
Q 2906 1169 2906 1791 
z
M 3481 434 
Q 3481 -459 3084 -895 
Q 2688 -1331 1869 -1331 
Q 1566 -1331 1297 -1286 
Q 1028 -1241 775 -1147 
L 775 -588 
Q 1028 -725 1275 -790 
Q 1522 -856 1778 -856 
Q 2344 -856 2625 -561 
Q 2906 -266 2906 331 
L 2906 616 
Q 2728 306 2450 153 
Q 2172 0 1784 0 
Q 1141 0 747 490 
Q 353 981 353 1791 
Q 353 2603 747 3093 
Q 1141 3584 1784 3584 
Q 2172 3584 2450 3431 
Q 2728 3278 2906 2969 
L 2906 3500 
L 3481 3500 
L 3481 434 
z
" id="DejaVuSans-67" transform="scale(0.015625)"/>
       <path d="M 794 531 
L 1825 531 
L 1825 4091 
L 703 3866 
L 703 4441 
L 1819 4666 
L 2450 4666 
L 2450 531 
L 3481 531 
L 3481 0 
L 794 0 
L 794 531 
z
" id="DejaVuSans-31" transform="scale(0.015625)"/>
       <path id="DejaVuSans-20" transform="scale(0.015625)"/>
       <path d="M 2375 4863 
L 2375 4384 
L 1825 4384 
Q 1516 4384 1395 4259 
Q 1275 4134 1275 3809 
L 1275 3500 
L 2222 3500 
L 2222 3053 
L 1275 3053 
L 1275 0 
L 697 0 
L 697 3053 
L 147 3053 
L 147 3500 
L 697 3500 
L 697 3744 
Q 697 4328 969 4595 
Q 1241 4863 1831 4863 
L 2375 4863 
z
" id="DejaVuSans-66" transform="scale(0.015625)"/>
       <path d="M 1259 4147 
L 1259 519 
L 2022 519 
Q 2988 519 3436 956 
Q 3884 1394 3884 2338 
Q 3884 3275 3436 3711 
Q 2988 4147 2022 4147 
L 1259 4147 
z
M 628 4666 
L 1925 4666 
Q 3281 4666 3915 4102 
Q 4550 3538 4550 2338 
Q 4550 1131 3912 565 
Q 3275 0 1925 0 
L 628 0 
L 628 4666 
z
" id="DejaVuSans-44" transform="scale(0.015625)"/>
      </defs>
      <use xlink:href="#DejaVuSans-6c"/>
      <use x="27.783203" xlink:href="#DejaVuSans-6f"/>
      <use x="88.964844" xlink:href="#DejaVuSans-67"/>
      <use x="152.441406" xlink:href="#DejaVuSans-31"/>
      <use x="216.064453" xlink:href="#DejaVuSans-30"/>
      <use x="279.6875" xlink:href="#DejaVuSans-20"/>
      <use x="311.474609" xlink:href="#DejaVuSans-6f"/>
      <use x="372.65625" xlink:href="#DejaVuSans-66"/>
      <use x="407.861328" xlink:href="#DejaVuSans-20"/>
      <use x="439.648438" xlink:href="#DejaVuSans-44"/>
      <use x="516.650391" xlink:href="#DejaVuSans-66"/>
     </g>
    </g>
   </g>
   <g id="matplotlib.axis_2">
    <g id="ytick_1">
     <g id="line2d_9">
      <path clip-path="url(#p050bf06c4c)" d="M 0 293.76 
L 460.8 293.76 
" style="fill:none;stroke:#b0b0b0;stroke-linecap:square;stroke-width:0.8;"/>
     </g>
     <g id="line2d_10">
      <defs>
       <path d="M 0 0 
L -3.5 0 
" id="m018a84cd70" style="stroke:#000000;stroke-width:0.8;"/>
      </defs>
      <g>
       <use style="stroke:#000000;stroke-width:0.8;" x="0" xlink:href="#m018a84cd70" y="293.76"/>
      </g>
     </g>
    </g>
    <g id="ytick_2">
     <g id="line2d_11">
      <path clip-path="url(#p050bf06c4c)" d="M 0 236.274059 
L 460.8 236.274059 
" style="fill:none;stroke:#b0b0b0;stroke-linecap:square;stroke-width:0.8;"/>
     </g>
     <g id="line2d_12">
      <g>
       <use style="stroke:#000000;stroke-width:0.8;" x="0" xlink:href="#m018a84cd70" y="236.274059"/>
      </g>
     </g>
    </g>
    <g id="ytick_3">
     <g id="line2d_13">
      <path clip-path="url(#p050bf06c4c)" d="M 0 178.788119 
L 460.8 178.788119 
" style="fill:none;stroke:#b0b0b0;stroke-linecap:square;stroke-width:0.8;"/>
     </g>
     <g id="line2d_14">
      <g>
       <use style="stroke:#000000;stroke-width:0.8;" x="0" xlink:href="#m018a84cd70" y="178.788119"/>
      </g>
     </g>
    </g>
    <g id="ytick_4">
     <g id="line2d_15">
      <path clip-path="url(#p050bf06c4c)" d="M 0 121.302178 
L 460.8 121.302178 
" style="fill:none;stroke:#b0b0b0;stroke-linecap:square;stroke-width:0.8;"/>
     </g>
     <g id="line2d_16">
      <g>
       <use style="stroke:#000000;stroke-width:0.8;" x="0" xlink:href="#m018a84cd70" y="121.302178"/>
      </g>
     </g>
    </g>
    <g id="ytick_5">
     <g id="line2d_17">
      <path clip-path="url(#p050bf06c4c)" d="M 0 63.816238 
L 460.8 63.816238 
" style="fill:none;stroke:#b0b0b0;stroke-linecap:square;stroke-width:0.8;"/>
     </g>
     <g id="line2d_18">
      <g>
       <use style="stroke:#000000;stroke-width:0.8;" x="0" xlink:href="#m018a84cd70" y="63.816238"/>
      </g>
     </g>
    </g>
    <g id="ytick_6">
     <g id="line2d_19">
      <path clip-path="url(#p050bf06c4c)" d="M 0 6.330297 
L 460.8 6.330297 
" style="fill:none;stroke:#b0b0b0;stroke-linecap:square;stroke-width:0.8;"/>
     </g>
     <g id="line2d_20">
      <g>
       <use style="stroke:#000000;stroke-width:0.8;" x="0" xlink:href="#m018a84cd70" y="6.330297"/>
      </g>
     </g>
    </g>
   </g>
   <g id="line2d_21">
    <path clip-path="url(#p050bf06c4c)" d="M 210.500517 293.76 
L 210.500517 292.961584 
L 215.930641 292.961584 
L 215.930641 292.163168 
L 218.579199 292.163168 
L 218.579199 291.364752 
L 220.03278 291.364752 
L 220.03278 290.566337 
L 220.970513 290.566337 
L 220.970513 289.767921 
L 222.460058 289.767921 
L 222.491678 288.171089 
L 223.152335 288.171089 
L 223.205661 286.574257 
L 223.400987 286.574257 
L 223.400987 285.775842 
L 224.332334 285.775842 
L 224.332334 284.977426 
L 224.936349 284.977426 
L 224.936349 284.17901 
L 225.329562 284.17901 
L 225.329562 283.380594 
L 225.897092 283.380594 
L 225.897092 282.582178 
L 226.154338 282.582178 
L 226.229145 280.186931 
L 226.379405 280.186931 
L 226.382464 278.590099 
L 226.57461 278.590099 
L 226.57461 277.791683 
L 226.959009 277.791683 
L 226.959009 276.993267 
L 227.129208 276.993267 
L 227.192488 273.799604 
L 227.264957 273.799604 
L 227.308463 272.202772 
L 227.534323 272.202772 
L 227.534323 271.404356 
L 227.676162 271.404356 
L 227.678261 269.807525 
L 227.878249 269.807525 
L 227.878249 269.009109 
L 228.179136 269.009109 
L 228.179136 268.210693 
L 228.324651 268.210693 
L 228.39172 265.815446 
L 228.735984 265.815446 
L 228.771682 264.218614 
L 229.280812 264.218614 
L 229.282207 262.621782 
L 229.616734 262.621782 
L 229.65179 261.02495 
L 229.894603 261.02495 
L 229.997239 259.428119 
L 230.530479 259.428119 
L 230.530479 258.629703 
L 230.745473 258.629703 
L 230.845266 255.43604 
L 230.870059 255.43604 
L 230.870059 254.637624 
L 231.00008 254.637624 
L 231.100826 251.44396 
L 231.155017 251.44396 
L 231.155017 250.645545 
L 231.395782 250.645545 
L 231.490122 246.653465 
L 231.545932 246.653465 
L 231.585465 245.056634 
L 231.970358 245.056634 
L 232.014724 243.459802 
L 232.083779 243.459802 
L 232.192301 241.064554 
L 232.20715 241.064554 
L 232.20715 240.266139 
L 232.470637 240.266139 
L 232.470637 239.467723 
L 232.670037 239.467723 
L 232.670037 238.669307 
L 232.954637 238.669307 
L 233.017207 235.475644 
L 233.163472 235.475644 
L 233.274174 232.28198 
L 233.676766 232.28198 
L 233.739326 230.685149 
L 234.190974 230.685149 
L 234.190974 229.886733 
L 234.311839 229.886733 
L 234.311839 229.088317 
L 234.684215 229.088317 
L 234.794913 227.491485 
L 234.80183 227.491485 
L 234.80183 226.693069 
L 234.950668 226.693069 
L 234.950668 225.894653 
L 235.19724 225.894653 
L 235.279607 223.499406 
L 235.384965 223.499406 
L 235.4742 221.902574 
L 235.54567 221.902574 
L 235.54567 221.104158 
L 235.674477 221.104158 
L 235.745541 219.507327 
L 235.96779 219.507327 
L 235.96779 218.708911 
L 236.618617 218.708911 
L 236.618617 217.910495 
L 236.812922 217.910495 
L 236.812922 217.112079 
L 236.973627 217.112079 
L 237.081046 215.515248 
L 237.502807 215.515248 
L 237.502807 214.716832 
L 237.764435 214.716832 
L 237.764435 213.918416 
L 237.907541 213.918416 
L 237.958543 212.321584 
L 238.070808 212.321584 
L 238.070808 211.523168 
L 238.224853 211.523168 
L 238.224853 210.724752 
L 238.934364 210.724752 
L 238.934364 209.926337 
L 239.188724 209.926337 
L 239.257484 208.329505 
L 239.613356 208.329505 
L 239.663088 206.732673 
L 239.95161 206.732673 
L 239.95161 205.934257 
L 240.481318 205.934257 
L 240.584432 204.337426 
L 240.614407 204.337426 
L 240.701351 201.942178 
L 241.049215 201.942178 
L 241.064334 200.345347 
L 241.334572 200.345347 
L 241.417957 197.950099 
L 241.446602 197.950099 
L 241.446602 197.151683 
L 241.746336 197.151683 
L 241.746336 196.353267 
L 241.954669 196.353267 
L 241.989348 194.756436 
L 242.399625 194.756436 
L 242.399625 193.95802 
L 242.624757 193.95802 
L 242.649126 192.361188 
L 242.973393 192.361188 
L 242.973393 191.562772 
L 243.633602 191.562772 
L 243.649128 189.965941 
L 243.804557 189.965941 
L 243.831561 188.369109 
L 243.94439 188.369109 
L 244.047062 185.973861 
L 244.647293 185.973861 
L 244.647293 185.175446 
L 244.932695 185.175446 
L 244.935689 183.578614 
L 245.269655 183.578614 
L 245.269655 182.780198 
L 245.485454 182.780198 
L 245.594687 181.183366 
L 245.60339 181.183366 
L 245.60339 180.38495 
L 246.125352 180.38495 
L 246.170853 178.788119 
L 246.348935 178.788119 
L 246.348935 177.989703 
L 246.473408 177.989703 
L 246.473408 177.191287 
L 246.821958 177.191287 
L 246.821958 176.392871 
L 247.002003 176.392871 
L 247.002003 175.594455 
L 247.213195 175.594455 
L 247.213195 174.79604 
L 248.131664 174.79604 
L 248.131664 173.997624 
L 248.708751 173.997624 
L 248.708751 173.199208 
L 249.163546 173.199208 
L 249.163546 172.400792 
L 249.313362 172.400792 
L 249.313362 171.602376 
L 249.778467 171.602376 
L 249.778467 170.80396 
L 250.160423 170.80396 
L 250.183619 169.207129 
L 250.294353 169.207129 
L 250.294353 168.408713 
L 250.425586 168.408713 
L 250.425586 167.610297 
L 250.67825 167.610297 
L 250.67825 166.811881 
L 251.23479 166.811881 
L 251.23479 166.013465 
L 251.540101 166.013465 
L 251.581949 164.416634 
L 252.425038 164.416634 
L 252.425038 163.618218 
L 252.667571 163.618218 
L 252.667571 162.819802 
L 252.918863 162.819802 
L 252.918863 162.021386 
L 253.259107 162.021386 
L 253.259107 161.22297 
L 254.002636 161.22297 
L 254.002636 160.424554 
L 255.341083 160.424554 
L 255.341083 159.626139 
L 255.727516 159.626139 
L 255.727516 158.827723 
L 256.505672 158.827723 
L 256.505672 158.029307 
L 256.719987 158.029307 
L 256.719987 157.230891 
L 256.886326 157.230891 
L 256.886326 156.432475 
L 257.50505 156.432475 
L 257.50505 155.634059 
L 257.828949 155.634059 
L 257.828949 154.835644 
L 258.601451 154.835644 
L 258.601451 154.037228 
L 258.735181 154.037228 
L 258.735181 153.238812 
L 259.027487 153.238812 
L 259.047367 151.64198 
L 259.592905 151.64198 
L 259.618001 150.045149 
L 260.425163 150.045149 
L 260.495966 147.649901 
L 260.581402 147.649901 
L 260.581402 146.851485 
L 260.784752 146.851485 
L 260.85828 145.254653 
L 260.902293 145.254653 
L 260.902293 144.456238 
L 261.105984 144.456238 
L 261.1772 142.859406 
L 261.23443 142.859406 
L 261.23443 142.06099 
L 261.362962 142.06099 
L 261.457404 139.665743 
L 261.558289 139.665743 
L 261.558289 138.867327 
L 261.70051 138.867327 
L 261.79419 136.472079 
L 261.837078 136.472079 
L 261.837078 135.673663 
L 262.123124 135.673663 
L 262.211069 134.076832 
L 262.578263 134.076832 
L 262.578263 133.278416 
L 262.772 133.278416 
L 262.801097 131.681584 
L 262.926741 131.681584 
L 263.028949 129.286337 
L 263.134692 129.286337 
L 263.244501 126.891089 
L 263.289538 126.891089 
L 263.385724 124.495842 
L 263.561453 124.495842 
L 263.561453 123.697426 
L 263.782529 123.697426 
L 263.782529 122.89901 
L 264.022941 122.89901 
L 264.125037 121.302178 
L 264.297338 121.302178 
L 264.325863 119.705347 
L 264.476802 119.705347 
L 264.55646 118.108515 
L 264.643626 118.108515 
L 264.72248 116.511683 
L 264.875868 116.511683 
L 264.976735 114.914851 
L 265.074944 114.914851 
L 265.17046 113.31802 
L 265.20485 113.31802 
L 265.265305 110.124356 
L 265.3392 110.124356 
L 265.377994 108.527525 
L 265.887712 108.527525 
L 265.887712 107.729109 
L 266.06161 107.729109 
L 266.168841 104.535446 
L 266.289697 104.535446 
L 266.323824 102.938614 
L 266.417054 102.938614 
L 266.417054 102.140198 
L 266.585365 102.140198 
L 266.585365 101.341782 
L 266.73784 101.341782 
L 266.774822 98.946535 
L 266.960166 98.946535 
L 266.979237 97.349703 
L 267.078881 97.349703 
L 267.078881 96.551287 
L 267.995401 96.551287 
L 267.997292 94.954455 
L 268.333468 94.954455 
L 268.343499 93.357624 
L 268.884854 93.357624 
L 268.884854 92.559208 
L 269.02254 92.559208 
L 269.02254 91.760792 
L 269.348973 91.760792 
L 269.348973 90.962376 
L 269.574672 90.962376 
L 269.574672 90.16396 
L 269.798996 90.16396 
L 269.821677 88.567129 
L 270.041535 88.567129 
L 270.046558 86.970297 
L 270.169806 86.970297 
L 270.169806 86.171881 
L 270.371565 86.171881 
L 270.389757 84.57505 
L 270.920905 84.57505 
L 270.920905 83.776634 
L 271.07706 83.776634 
L 271.138707 81.381386 
L 271.552947 81.381386 
L 271.552947 80.58297 
L 272.048304 80.58297 
L 272.048304 79.784554 
L 272.235706 79.784554 
L 272.244223 78.187723 
L 272.757155 78.187723 
L 272.757155 77.389307 
L 272.869682 77.389307 
L 272.958864 75.792475 
L 273.412728 75.792475 
L 273.412728 74.994059 
L 274.323169 74.994059 
L 274.323169 74.195644 
L 274.46036 74.195644 
L 274.46036 73.397228 
L 274.767217 73.397228 
L 274.767217 72.598812 
L 275.295807 72.598812 
L 275.354094 71.00198 
L 276.628817 71.00198 
L 276.628817 70.203564 
L 276.771768 70.203564 
L 276.771768 69.405149 
L 276.973217 69.405149 
L 276.973217 68.606733 
L 277.200372 68.606733 
L 277.200372 67.808317 
L 277.353712 67.808317 
L 277.353712 67.009901 
L 277.938954 67.009901 
L 277.982117 65.413069 
L 280.132151 65.413069 
L 280.132151 64.614653 
L 281.134112 64.614653 
L 281.170042 63.017822 
L 281.407861 63.017822 
L 281.407861 62.219406 
L 282.381396 62.219406 
L 282.381396 61.42099 
L 282.599091 61.42099 
L 282.599091 60.622574 
L 282.746522 60.622574 
L 282.746522 59.824158 
L 283.110879 59.824158 
L 283.164705 58.227327 
L 283.603422 58.227327 
L 283.614757 56.630495 
L 283.810227 56.630495 
L 283.853031 55.033663 
L 284.065842 55.033663 
L 284.065842 54.235248 
L 285.754811 54.235248 
L 285.754811 53.436832 
L 285.885338 53.436832 
L 285.945185 51.84 
L 288.566295 51.84 
L 288.566295 51.041584 
L 288.726043 51.041584 
L 288.726043 50.243168 
L 289.830924 50.243168 
L 289.830924 49.444752 
L 292.310278 49.444752 
L 292.310278 48.646337 
L 293.581712 48.646337 
L 293.581712 47.847921 
L 294.037242 47.847921 
L 294.037242 47.049505 
L 296.631763 47.049505 
L 296.631763 46.251089 
L 298.18731 46.251089 
L 298.18731 45.452673 
L 303.124236 45.452673 
L 303.124236 44.654257 
L 311.217769 44.654257 
L 311.217769 43.855842 
L 314.729795 43.855842 
L 314.729795 43.057426 
L 315.257192 43.057426 
L 315.257192 42.25901 
L 316.111063 42.25901 
L 316.111063 41.460594 
L 320.970091 41.460594 
L 320.983666 39.863762 
L 323.959868 39.863762 
L 323.959868 39.065347 
L 324.669237 39.065347 
L 324.726084 37.468515 
L 325.428502 37.468515 
L 325.428502 36.670099 
L 327.222197 36.670099 
L 327.222197 35.871683 
L 329.089782 35.871683 
L 329.089782 35.073267 
L 331.100072 35.073267 
L 331.13954 33.476436 
L 331.218261 33.476436 
L 331.218261 32.67802 
L 331.982723 32.67802 
L 331.982723 31.879604 
L 332.424204 31.879604 
L 332.424204 31.081188 
L 334.401113 31.081188 
L 334.401113 30.282772 
L 335.971413 30.282772 
L 335.971413 29.484356 
L 336.588221 29.484356 
L 336.588221 28.685941 
L 338.742608 28.685941 
L 338.769938 27.089109 
L 339.58448 27.089109 
L 339.663103 25.492277 
L 341.279557 25.492277 
L 341.279557 24.693861 
L 343.991961 24.693861 
L 343.991961 23.895446 
L 344.721976 23.895446 
L 344.721976 23.09703 
L 346.111518 23.09703 
L 346.111518 22.298614 
L 346.933807 22.298614 
L 346.933807 21.500198 
L 348.352195 21.500198 
L 348.352195 20.701782 
L 350.946295 20.701782 
L 350.946295 19.903366 
L 354.386866 19.903366 
L 354.386866 19.10495 
L 369.643526 19.10495 
L 369.643526 18.306535 
L 375.814858 18.306535 
L 375.814858 17.508119 
L 377.172025 17.508119 
L 377.172025 16.709703 
L 377.295553 16.709703 
L 377.295553 15.911287 
L 384.066633 15.911287 
L 384.066633 15.112871 
L 385.057335 15.112871 
L 385.057335 14.314455 
L 385.841055 14.314455 
L 385.841055 13.51604 
L 389.794406 13.51604 
L 389.794406 12.717624 
L 391.954034 12.717624 
L 391.954034 11.919208 
L 392.604282 11.919208 
L 392.604282 11.120792 
L 395.291726 11.120792 
L 395.291726 10.322376 
L 398.132233 10.322376 
L 398.132233 9.52396 
L 401.128509 9.52396 
L 401.146608 7.927129 
L 401.286196 7.927129 
L 401.286196 7.128713 
L 404.861572 7.128713 
L 404.861572 6.330297 
L 404.861572 6.330297 
L 460.8 6.330297 
L 460.8 6.330297 
" style="fill:none;stroke:#ff0000;stroke-linecap:square;stroke-width:3;"/>
   </g>
   <g id="line2d_22">
    <path clip-path="url(#p050bf06c4c)" d="M 230.589479 293.76 
L 230.589479 292.961584 
L 231.541207 292.961584 
L 231.541207 292.163168 
L 233.498959 292.163168 
L 233.498959 291.364752 
L 237.354326 291.364752 
L 237.354326 290.566337 
L 239.114191 290.566337 
L 239.114191 289.767921 
L 239.901211 289.767921 
L 239.901211 288.969505 
L 240.582831 288.969505 
L 240.582831 288.171089 
L 240.695178 288.171089 
L 240.73752 286.574257 
L 240.929757 286.574257 
L 240.929757 285.775842 
L 241.161794 285.775842 
L 241.161794 284.977426 
L 241.932319 284.977426 
L 241.932319 284.17901 
L 243.507309 284.17901 
L 243.507309 283.380594 
L 243.645026 283.380594 
L 243.645026 282.582178 
L 243.971181 282.582178 
L 244.047062 280.985347 
L 244.313587 280.985347 
L 244.313587 280.186931 
L 244.45272 280.186931 
L 244.45272 279.388515 
L 244.910836 279.388515 
L 244.910836 278.590099 
L 245.84451 278.590099 
L 245.84451 277.791683 
L 246.42785 277.791683 
L 246.486463 276.194851 
L 246.608093 276.194851 
L 246.695269 274.59802 
L 246.936235 274.59802 
L 246.956146 273.001188 
L 247.210104 273.001188 
L 247.210104 272.202772 
L 247.352703 272.202772 
L 247.398572 270.605941 
L 247.811532 270.605941 
L 247.811532 269.807525 
L 248.115031 269.807525 
L 248.141922 268.210693 
L 248.423762 268.210693 
L 248.498243 266.613861 
L 249.474395 266.613861 
L 249.474395 265.815446 
L 249.711885 265.815446 
L 249.732919 264.218614 
L 249.888276 264.218614 
L 249.888276 263.420198 
L 250.148878 263.420198 
L 250.148878 262.621782 
L 250.536882 262.621782 
L 250.536882 261.823366 
L 250.773322 261.823366 
L 250.861609 260.226535 
L 250.9754 260.226535 
L 250.9754 259.428119 
L 251.096641 259.428119 
L 251.156512 257.032871 
L 251.233021 257.032871 
L 251.233021 256.234455 
L 251.353945 256.234455 
L 251.353945 255.43604 
L 252.388556 255.43604 
L 252.388556 254.637624 
L 252.715463 254.637624 
L 252.715463 253.839208 
L 252.889862 253.839208 
L 252.889862 253.040792 
L 253.341432 253.040792 
L 253.415215 251.44396 
L 253.762311 251.44396 
L 253.762311 250.645545 
L 254.661458 250.645545 
L 254.750412 247.451881 
L 255.263401 247.451881 
L 255.263401 246.653465 
L 255.743571 246.653465 
L 255.743571 245.85505 
L 256.165728 245.85505 
L 256.165728 245.056634 
L 256.806664 245.056634 
L 256.806664 244.258218 
L 257.08884 244.258218 
L 257.190222 242.661386 
L 257.411735 242.661386 
L 257.509574 240.266139 
L 257.803511 240.266139 
L 257.803511 239.467723 
L 258.125352 239.467723 
L 258.125352 238.669307 
L 258.27571 238.669307 
L 258.27571 237.870891 
L 259.116836 237.870891 
L 259.116836 237.072475 
L 259.434839 237.072475 
L 259.434839 236.274059 
L 259.803071 236.274059 
L 259.803888 234.677228 
L 259.936355 234.677228 
L 259.936355 233.878812 
L 260.05692 233.878812 
L 260.05692 233.080396 
L 260.237279 233.080396 
L 260.237279 232.28198 
L 260.481772 232.28198 
L 260.572332 229.886733 
L 261.623689 229.886733 
L 261.623689 229.088317 
L 262.171892 229.088317 
L 262.171892 228.289901 
L 262.649046 228.289901 
L 262.715085 226.693069 
L 263.22394 226.693069 
L 263.235305 225.096238 
L 263.351858 225.096238 
L 263.351858 224.297822 
L 263.571378 224.297822 
L 263.571378 223.499406 
L 263.709154 223.499406 
L 263.709154 222.70099 
L 264.006401 222.70099 
L 264.068779 220.305743 
L 264.329165 220.305743 
L 264.329165 219.507327 
L 264.605816 219.507327 
L 264.64365 217.910495 
L 265.048087 217.910495 
L 265.048087 217.112079 
L 265.352538 217.112079 
L 265.352538 216.313663 
L 265.493694 216.313663 
L 265.493694 215.515248 
L 265.63115 215.515248 
L 265.69965 213.918416 
L 266.167773 213.918416 
L 266.167773 213.12 
L 266.342255 213.12 
L 266.392265 211.523168 
L 266.538882 211.523168 
L 266.618357 209.926337 
L 266.664362 209.926337 
L 266.664362 209.127921 
L 266.914815 209.127921 
L 266.918176 207.531089 
L 267.450745 207.531089 
L 267.450745 206.732673 
L 267.683223 206.732673 
L 267.702687 204.337426 
L 268.025625 204.337426 
L 268.1087 201.942178 
L 268.189978 201.942178 
L 268.262879 199.546931 
L 268.399835 199.546931 
L 268.509565 197.151683 
L 268.765049 197.151683 
L 268.850586 194.756436 
L 269.067815 194.756436 
L 269.15494 190.764356 
L 269.180251 190.764356 
L 269.23107 189.167525 
L 269.333817 189.167525 
L 269.412957 185.973861 
L 269.593503 185.973861 
L 269.643854 183.578614 
L 269.733608 183.578614 
L 269.831263 181.981782 
L 270.035711 181.981782 
L 270.078274 180.38495 
L 270.264902 180.38495 
L 270.264902 179.586535 
L 270.396624 179.586535 
L 270.396624 178.788119 
L 270.590791 178.788119 
L 270.677911 176.392871 
L 270.712285 176.392871 
L 270.712285 175.594455 
L 270.965782 175.594455 
L 270.965782 174.79604 
L 271.303258 174.79604 
L 271.380184 173.199208 
L 271.474443 173.199208 
L 271.474443 172.400792 
L 271.645852 172.400792 
L 271.645852 171.602376 
L 271.854638 171.602376 
L 271.935714 170.005545 
L 272.024792 170.005545 
L 272.105668 168.408713 
L 272.297779 168.408713 
L 272.387329 165.21505 
L 272.489257 165.21505 
L 272.489257 164.416634 
L 272.668135 164.416634 
L 272.708402 162.819802 
L 272.848492 162.819802 
L 272.898549 161.22297 
L 273.014972 161.22297 
L 273.036452 159.626139 
L 273.215945 159.626139 
L 273.215945 158.827723 
L 273.333304 158.827723 
L 273.333304 158.029307 
L 273.721109 158.029307 
L 273.814501 154.835644 
L 273.891721 154.835644 
L 273.891721 154.037228 
L 274.116054 154.037228 
L 274.21945 152.440396 
L 274.486871 152.440396 
L 274.567579 150.045149 
L 274.618365 150.045149 
L 274.618365 149.246733 
L 274.915487 149.246733 
L 275.009187 147.649901 
L 275.289539 147.649901 
L 275.289539 146.851485 
L 275.424777 146.851485 
L 275.443391 145.254653 
L 275.685115 145.254653 
L 275.785527 142.06099 
L 275.890314 142.06099 
L 275.890314 141.262574 
L 276.063109 141.262574 
L 276.063109 140.464158 
L 276.600067 140.464158 
L 276.653521 138.867327 
L 277.233781 138.867327 
L 277.307113 137.270495 
L 277.588353 137.270495 
L 277.631855 135.673663 
L 277.721862 135.673663 
L 277.822436 134.076832 
L 277.902237 134.076832 
L 277.902237 133.278416 
L 278.018862 133.278416 
L 278.018862 132.48 
L 278.530928 132.48 
L 278.530928 131.681584 
L 278.653499 131.681584 
L 278.653499 130.883168 
L 279.561523 130.883168 
L 279.644798 129.286337 
L 279.88566 129.286337 
L 279.990489 127.689505 
L 280.028392 127.689505 
L 280.028392 126.891089 
L 280.140423 126.891089 
L 280.140423 126.092673 
L 280.377234 126.092673 
L 280.377234 125.294257 
L 280.873682 125.294257 
L 280.873682 124.495842 
L 280.991175 124.495842 
L 280.991175 123.697426 
L 281.433343 123.697426 
L 281.433343 122.89901 
L 281.782821 122.89901 
L 281.782821 122.100594 
L 282.048475 122.100594 
L 282.048475 121.302178 
L 282.181473 121.302178 
L 282.181473 120.503762 
L 282.452334 120.503762 
L 282.452334 119.705347 
L 283.318562 119.705347 
L 283.318562 118.906931 
L 283.568694 118.906931 
L 283.610433 117.310099 
L 284.099187 117.310099 
L 284.099187 116.511683 
L 285.281502 116.511683 
L 285.281502 115.713267 
L 285.981905 115.713267 
L 285.981905 114.914851 
L 286.421472 114.914851 
L 286.421472 114.116436 
L 287.146615 114.116436 
L 287.146615 113.31802 
L 287.412221 113.31802 
L 287.412221 112.519604 
L 287.821407 112.519604 
L 287.821407 111.721188 
L 289.295636 111.721188 
L 289.384779 110.124356 
L 291.309601 110.124356 
L 291.309601 109.325941 
L 292.712469 109.325941 
L 292.712469 108.527525 
L 293.596354 108.527525 
L 293.596354 107.729109 
L 293.758335 107.729109 
L 293.758335 106.930693 
L 293.91282 106.930693 
L 293.91282 106.132277 
L 294.638304 106.132277 
L 294.638304 105.333861 
L 295.345047 105.333861 
L 295.345047 104.535446 
L 295.721736 104.535446 
L 295.751348 102.938614 
L 296.618787 102.938614 
L 296.618787 102.140198 
L 296.944419 102.140198 
L 297.03165 100.543366 
L 297.141271 100.543366 
L 297.141271 99.74495 
L 297.439627 99.74495 
L 297.44126 98.148119 
L 297.581639 98.148119 
L 297.581639 97.349703 
L 299.008133 97.349703 
L 299.029961 95.752871 
L 299.318185 95.752871 
L 299.318185 94.954455 
L 299.70927 94.954455 
L 299.70927 94.15604 
L 300.387623 94.15604 
L 300.451011 92.559208 
L 301.303014 92.559208 
L 301.303014 91.760792 
L 302.357844 91.760792 
L 302.357844 90.962376 
L 302.770375 90.962376 
L 302.770375 90.16396 
L 303.07435 90.16396 
L 303.07435 89.365545 
L 303.807479 89.365545 
L 303.807479 88.567129 
L 303.994581 88.567129 
L 303.994581 87.768713 
L 305.624011 87.768713 
L 305.624011 86.970297 
L 306.096536 86.970297 
L 306.096536 86.171881 
L 307.488973 86.171881 
L 307.488973 85.373465 
L 307.80456 85.373465 
L 307.830586 83.776634 
L 308.257864 83.776634 
L 308.257864 82.978218 
L 308.425596 82.978218 
L 308.460097 81.381386 
L 309.300401 81.381386 
L 309.313659 79.784554 
L 310.532487 79.784554 
L 310.532487 78.986139 
L 310.767417 78.986139 
L 310.767417 78.187723 
L 311.348131 78.187723 
L 311.348131 77.389307 
L 312.717236 77.389307 
L 312.717236 76.590891 
L 312.914332 76.590891 
L 312.914332 75.792475 
L 315.019311 75.792475 
L 315.019311 74.994059 
L 315.498122 74.994059 
L 315.498122 74.195644 
L 315.653117 74.195644 
L 315.653117 73.397228 
L 316.406463 73.397228 
L 316.406463 72.598812 
L 317.878603 72.598812 
L 317.878603 71.800396 
L 320.055483 71.800396 
L 320.055483 71.00198 
L 321.35672 71.00198 
L 321.35672 70.203564 
L 324.434105 70.203564 
L 324.434105 69.405149 
L 324.599483 69.405149 
L 324.599483 68.606733 
L 326.488503 68.606733 
L 326.526721 67.009901 
L 332.098937 67.009901 
L 332.098937 66.211485 
L 333.482715 66.211485 
L 333.482715 65.413069 
L 334.565177 65.413069 
L 334.565177 64.614653 
L 336.959538 64.614653 
L 336.959538 63.816238 
L 339.847334 63.816238 
L 339.847334 63.017822 
L 343.34056 63.017822 
L 343.39295 61.42099 
L 345.607176 61.42099 
L 345.607176 60.622574 
L 347.343148 60.622574 
L 347.343148 59.824158 
L 347.660401 59.824158 
L 347.660401 59.025743 
L 353.28811 59.025743 
L 353.28811 58.227327 
L 354.909033 58.227327 
L 354.909033 57.428911 
L 355.077975 57.428911 
L 355.077975 56.630495 
L 355.975692 56.630495 
L 355.975692 55.832079 
L 357.131679 55.832079 
L 357.213813 54.235248 
L 357.547072 54.235248 
L 357.587703 52.638416 
L 358.225865 52.638416 
L 358.225865 51.84 
L 359.119099 51.84 
L 359.119099 51.041584 
L 363.760131 51.041584 
L 363.760131 50.243168 
L 364.906326 50.243168 
L 364.906326 49.444752 
L 367.954966 49.444752 
L 367.954966 48.646337 
L 368.63597 48.646337 
L 368.63597 47.847921 
L 368.764121 47.847921 
L 368.764121 47.049505 
L 371.780242 47.049505 
L 371.780242 46.251089 
L 372.279479 46.251089 
L 372.279479 45.452673 
L 372.881234 45.452673 
L 372.881234 44.654257 
L 373.347337 44.654257 
L 373.347337 43.855842 
L 374.409479 43.855842 
L 374.409479 43.057426 
L 376.425867 43.057426 
L 376.425867 42.25901 
L 377.053209 42.25901 
L 377.053209 41.460594 
L 378.063769 41.460594 
L 378.063769 40.662178 
L 383.492553 40.662178 
L 383.492553 39.863762 
L 384.28354 39.863762 
L 384.28354 39.065347 
L 384.679486 39.065347 
L 384.679486 38.266931 
L 386.846335 38.266931 
L 386.846335 37.468515 
L 389.143338 37.468515 
L 389.143338 36.670099 
L 391.884368 36.670099 
L 391.884368 35.871683 
L 392.806618 35.871683 
L 392.806618 35.073267 
L 395.839936 35.073267 
L 395.839936 34.274851 
L 397.507475 34.274851 
L 397.507475 33.476436 
L 398.821612 33.476436 
L 398.821612 32.67802 
L 399.280081 32.67802 
L 399.280081 31.879604 
L 400.260579 31.879604 
L 400.260579 31.081188 
L 402.068065 31.081188 
L 402.068065 30.282772 
L 402.292249 30.282772 
L 402.292249 29.484356 
L 402.612474 29.484356 
L 402.612474 28.685941 
L 403.708844 28.685941 
L 403.708844 27.887525 
L 404.872893 27.887525 
L 404.910341 26.290693 
L 405.336361 26.290693 
L 405.336361 25.492277 
L 405.497513 25.492277 
L 405.497513 24.693861 
L 406.824748 24.693861 
L 406.824748 23.895446 
L 408.550849 23.895446 
L 408.550849 23.09703 
L 408.693401 23.09703 
L 408.693401 22.298614 
L 409.712031 22.298614 
L 409.796588 20.701782 
L 409.91142 20.701782 
L 409.91142 19.903366 
L 410.117042 19.903366 
L 410.117042 19.10495 
L 410.262964 19.10495 
L 410.262964 18.306535 
L 411.372945 18.306535 
L 411.372945 17.508119 
L 412.943466 17.508119 
L 412.991902 15.911287 
L 414.363747 15.911287 
L 414.363747 15.112871 
L 416.128238 15.112871 
L 416.128238 14.314455 
L 419.491633 14.314455 
L 419.491633 13.51604 
L 423.413517 13.51604 
L 423.431772 11.919208 
L 426.769839 11.919208 
L 426.769839 11.120792 
L 428.138082 11.120792 
L 428.138082 10.322376 
L 432.572937 10.322376 
L 432.572937 9.52396 
L 439.451226 9.52396 
L 439.451226 8.725545 
L 440.606385 8.725545 
L 440.606385 7.927129 
L 443.780227 7.927129 
L 443.780227 7.128713 
L 448.880977 7.128713 
L 448.880977 6.330297 
L 448.880977 6.330297 
L 460.8 6.330297 
L 460.8 6.330297 
" style="fill:none;stroke:#00bfbf;stroke-linecap:square;stroke-width:1.5;"/>
   </g>
   <g id="line2d_23">
    <path clip-path="url(#p050bf06c4c)" d="M 226.959009 293.76 
L 226.959009 292.961584 
L 227.534323 292.961584 
L 227.534323 292.163168 
L 228.294466 292.163168 
L 228.294466 291.364752 
L 230.189439 291.364752 
L 230.189439 290.566337 
L 230.589479 290.566337 
L 230.589479 289.767921 
L 231.541207 289.767921 
L 231.541207 288.969505 
L 232.965573 288.969505 
L 232.965573 288.171089 
L 233.498959 288.171089 
L 233.498959 287.372673 
L 233.739326 287.372673 
L 233.739326 286.574257 
L 235.146653 286.574257 
L 235.146653 285.775842 
L 235.280841 285.775842 
L 235.280841 284.977426 
L 236.812057 284.977426 
L 236.825933 283.380594 
L 237.472197 283.380594 
L 237.480598 281.783762 
L 238.658037 281.783762 
L 238.658037 280.985347 
L 239.114191 280.985347 
L 239.114191 280.186931 
L 239.901211 280.186931 
L 239.901211 279.388515 
L 240.402654 279.388515 
L 240.402654 278.590099 
L 240.73752 278.590099 
L 240.73752 277.791683 
L 240.885002 277.791683 
L 240.904992 276.194851 
L 241.01515 276.194851 
L 241.11102 273.799604 
L 241.161794 273.799604 
L 241.161794 273.001188 
L 241.450885 273.001188 
L 241.450885 272.202772 
L 241.932319 272.202772 
L 241.932319 271.404356 
L 242.232068 271.404356 
L 242.232068 270.605941 
L 242.41989 270.605941 
L 242.41989 269.807525 
L 242.78442 269.807525 
L 242.78442 269.009109 
L 243.313005 269.009109 
L 243.313005 268.210693 
L 243.851515 268.210693 
L 243.88974 266.613861 
L 243.971181 266.613861 
L 244.047062 265.01703 
L 244.088805 265.01703 
L 244.088805 264.218614 
L 244.45272 264.218614 
L 244.45272 263.420198 
L 244.757671 263.420198 
L 244.757671 262.621782 
L 244.910836 262.621782 
L 244.910836 261.823366 
L 245.066806 261.823366 
L 245.066806 261.02495 
L 245.219309 261.02495 
L 245.219309 260.226535 
L 245.343909 260.226535 
L 245.343909 259.428119 
L 245.464083 259.428119 
L 245.464083 258.629703 
L 246.42785 258.629703 
L 246.486463 256.234455 
L 246.608093 256.234455 
L 246.695269 254.637624 
L 246.936235 254.637624 
L 246.936235 253.839208 
L 247.350206 253.839208 
L 247.398572 252.242376 
L 247.73619 252.242376 
L 247.73619 251.44396 
L 248.115031 251.44396 
L 248.115031 250.645545 
L 248.249512 250.645545 
L 248.249512 249.847129 
L 248.498243 249.847129 
L 248.516009 248.250297 
L 249.257986 248.250297 
L 249.257986 247.451881 
L 249.377399 247.451881 
L 249.474395 245.85505 
L 249.732919 245.85505 
L 249.732919 245.056634 
L 250.297216 245.056634 
L 250.297216 244.258218 
L 250.518088 244.258218 
L 250.536882 242.661386 
L 250.899307 242.661386 
L 250.899307 241.86297 
L 251.051917 241.86297 
L 251.051917 241.064554 
L 251.353945 241.064554 
L 251.418304 239.467723 
L 251.480624 239.467723 
L 251.480624 238.669307 
L 251.809684 238.669307 
L 251.809684 237.870891 
L 252.715463 237.870891 
L 252.78475 236.274059 
L 253.098442 236.274059 
L 253.098442 235.475644 
L 253.341432 235.475644 
L 253.365906 233.878812 
L 253.762311 233.878812 
L 253.762311 233.080396 
L 253.939558 233.080396 
L 253.939558 232.28198 
L 254.659082 232.28198 
L 254.750412 229.088317 
L 255.743571 229.088317 
L 255.743571 228.289901 
L 256.1066 228.289901 
L 256.1066 227.491485 
L 256.271238 227.491485 
L 256.271238 226.693069 
L 256.722542 226.693069 
L 256.812618 225.096238 
L 256.866796 225.096238 
L 256.953989 223.499406 
L 257.035844 223.499406 
L 257.035844 222.70099 
L 257.411735 222.70099 
L 257.411735 221.902574 
L 257.546441 221.902574 
L 257.637918 220.305743 
L 258.125352 220.305743 
L 258.125352 219.507327 
L 258.27571 219.507327 
L 258.27571 218.708911 
L 258.676963 218.708911 
L 258.676963 217.910495 
L 258.812047 217.910495 
L 258.812047 217.112079 
L 259.803888 217.112079 
L 259.803888 216.313663 
L 260.129115 216.313663 
L 260.129115 215.515248 
L 260.482981 215.515248 
L 260.572332 213.918416 
L 261.075227 213.918416 
L 261.075227 213.12 
L 261.512811 213.12 
L 261.527651 211.523168 
L 261.837077 211.523168 
L 261.90111 209.926337 
L 261.973489 209.926337 
L 261.973489 209.127921 
L 262.182848 209.127921 
L 262.182848 208.329505 
L 262.523071 208.329505 
L 262.523071 207.531089 
L 262.649046 207.531089 
L 262.649046 206.732673 
L 262.970608 206.732673 
L 262.970608 205.934257 
L 263.351858 205.934257 
L 263.351858 205.135842 
L 263.556215 205.135842 
L 263.594579 203.53901 
L 263.709154 203.53901 
L 263.721353 201.942178 
L 263.875058 201.942178 
L 263.875058 201.143762 
L 264.013517 201.143762 
L 264.013517 200.345347 
L 264.208431 200.345347 
L 264.302741 197.950099 
L 264.517324 197.950099 
L 264.526003 196.353267 
L 264.779936 196.353267 
L 264.831947 194.756436 
L 264.979028 194.756436 
L 264.979028 193.95802 
L 265.220885 193.95802 
L 265.265305 192.361188 
L 265.435805 192.361188 
L 265.465843 190.764356 
L 265.692721 190.764356 
L 265.692721 189.965941 
L 265.896166 189.965941 
L 265.896166 189.167525 
L 266.160456 189.167525 
L 266.160456 188.369109 
L 266.34348 188.369109 
L 266.440218 186.772277 
L 266.481145 186.772277 
L 266.538882 185.175446 
L 266.612516 185.175446 
L 266.641278 183.578614 
L 267.273433 183.578614 
L 267.28668 181.981782 
L 267.834873 181.981782 
L 267.902361 179.586535 
L 268.012605 179.586535 
L 268.1087 174.79604 
L 268.189978 174.79604 
L 268.189978 173.997624 
L 268.354839 173.997624 
L 268.440244 172.400792 
L 268.496138 172.400792 
L 268.496138 171.602376 
L 268.659581 171.602376 
L 268.760274 169.207129 
L 268.962491 169.207129 
L 269.067815 166.811881 
L 269.180251 166.811881 
L 269.23107 165.21505 
L 269.386211 165.21505 
L 269.386211 164.416634 
L 269.706412 164.416634 
L 269.706412 163.618218 
L 269.831263 163.618218 
L 269.831263 162.819802 
L 270.07231 162.819802 
L 270.07231 162.021386 
L 270.340657 162.021386 
L 270.425293 160.424554 
L 270.525695 160.424554 
L 270.525695 159.626139 
L 270.725876 159.626139 
L 270.725876 158.827723 
L 270.937692 158.827723 
L 270.995965 157.230891 
L 271.282601 157.230891 
L 271.303258 155.634059 
L 271.446755 155.634059 
L 271.552947 154.037228 
L 271.65308 154.037228 
L 271.65308 153.238812 
L 271.854638 153.238812 
L 271.854638 152.440396 
L 271.970469 152.440396 
L 272.037285 150.045149 
L 272.110584 150.045149 
L 272.219219 147.649901 
L 272.299159 147.649901 
L 272.391336 145.254653 
L 272.410942 145.254653 
L 272.489257 143.657822 
L 272.678523 143.657822 
L 272.789607 142.06099 
L 272.802576 142.06099 
L 272.818423 140.464158 
L 273.014972 140.464158 
L 273.014972 139.665743 
L 273.321053 139.665743 
L 273.321053 138.867327 
L 273.65639 138.867327 
L 273.661734 137.270495 
L 273.829648 137.270495 
L 273.888319 135.673663 
L 274.333687 135.673663 
L 274.333687 134.875248 
L 274.46036 134.875248 
L 274.567579 133.278416 
L 274.725167 133.278416 
L 274.76503 131.681584 
L 274.995558 131.681584 
L 274.995558 130.883168 
L 275.354094 130.883168 
L 275.443391 128.487921 
L 275.509124 128.487921 
L 275.509124 127.689505 
L 275.629699 127.689505 
L 275.69396 125.294257 
L 275.890314 125.294257 
L 275.890314 124.495842 
L 276.054751 124.495842 
L 276.097144 122.100594 
L 276.256061 122.100594 
L 276.256061 121.302178 
L 276.459508 121.302178 
L 276.459508 120.503762 
L 276.600067 120.503762 
L 276.600067 119.705347 
L 277.207899 119.705347 
L 277.233781 118.108515 
L 277.479953 118.108515 
L 277.479953 117.310099 
L 277.902237 117.310099 
L 277.902237 116.511683 
L 278.018862 116.511683 
L 278.018862 115.713267 
L 278.921557 115.713267 
L 278.921557 114.914851 
L 279.058776 114.914851 
L 279.058776 114.116436 
L 279.381903 114.116436 
L 279.381903 113.31802 
L 279.561523 113.31802 
L 279.627782 111.721188 
L 279.757414 111.721188 
L 279.810368 110.124356 
L 280.140423 110.124356 
L 280.165296 108.527525 
L 280.873682 108.527525 
L 280.873682 107.729109 
L 282.181473 107.729109 
L 282.190605 106.132277 
L 282.991808 106.132277 
L 282.991808 105.333861 
L 283.968111 105.333861 
L 283.968111 104.535446 
L 284.166023 104.535446 
L 284.170912 102.938614 
L 284.461725 102.938614 
L 284.461725 102.140198 
L 285.09317 102.140198 
L 285.09317 101.341782 
L 285.981905 101.341782 
L 285.981905 100.543366 
L 287.120309 100.543366 
L 287.120309 99.74495 
L 287.260716 99.74495 
L 287.260716 98.946535 
L 287.88674 98.946535 
L 287.88674 98.148119 
L 288.916657 98.148119 
L 288.916657 97.349703 
L 289.642979 97.349703 
L 289.642979 96.551287 
L 289.891036 96.551287 
L 289.891036 95.752871 
L 290.438128 95.752871 
L 290.438128 94.954455 
L 293.086031 94.954455 
L 293.086031 94.15604 
L 293.393333 94.15604 
L 293.393333 93.357624 
L 293.862321 93.357624 
L 293.862321 92.559208 
L 295.345047 92.559208 
L 295.345047 91.760792 
L 295.721736 91.760792 
L 295.721736 90.962376 
L 295.932437 90.962376 
L 295.963914 89.365545 
L 296.618787 89.365545 
L 296.618787 88.567129 
L 296.944419 88.567129 
L 296.944419 87.768713 
L 297.562889 87.768713 
L 297.581639 86.171881 
L 298.653171 86.171881 
L 298.653171 85.373465 
L 299.70927 85.373465 
L 299.80521 83.776634 
L 300.383762 83.776634 
L 300.486102 81.381386 
L 300.863173 81.381386 
L 300.863173 80.58297 
L 302.770916 80.58297 
L 302.770916 79.784554 
L 303.07435 79.784554 
L 303.121903 78.187723 
L 304.366426 78.187723 
L 304.366426 77.389307 
L 305.586029 77.389307 
L 305.586029 76.590891 
L 306.063543 76.590891 
L 306.104798 74.195644 
L 306.467899 74.195644 
L 306.467899 73.397228 
L 307.80456 73.397228 
L 307.824884 71.800396 
L 308.425596 71.800396 
L 308.425596 71.00198 
L 309.300401 71.00198 
L 309.313659 69.405149 
L 311.030194 69.405149 
L 311.030194 68.606733 
L 312.717236 68.606733 
L 312.717236 67.808317 
L 315.019311 67.808317 
L 315.019311 67.009901 
L 315.498122 67.009901 
L 315.498122 66.211485 
L 320.439265 66.211485 
L 320.439265 65.413069 
L 321.095894 65.413069 
L 321.095894 64.614653 
L 321.647042 64.614653 
L 321.647042 63.816238 
L 321.971221 63.816238 
L 321.971221 63.017822 
L 326.488503 63.017822 
L 326.488503 62.219406 
L 327.517309 62.219406 
L 327.517309 61.42099 
L 328.037249 61.42099 
L 328.037249 60.622574 
L 332.356308 60.622574 
L 332.356308 59.824158 
L 332.764227 59.824158 
L 332.778743 58.227327 
L 337.676914 58.227327 
L 337.676914 57.428911 
L 338.686782 57.428911 
L 338.686782 56.630495 
L 339.847334 56.630495 
L 339.847334 55.832079 
L 343.585517 55.832079 
L 343.585517 55.033663 
L 345.50344 55.033663 
L 345.50344 54.235248 
L 349.14353 54.235248 
L 349.14353 53.436832 
L 349.801521 53.436832 
L 349.801521 52.638416 
L 350.066473 52.638416 
L 350.104989 51.041584 
L 354.220032 51.041584 
L 354.220032 50.243168 
L 355.077975 50.243168 
L 355.077975 49.444752 
L 355.428353 49.444752 
L 355.428353 48.646337 
L 355.57373 48.646337 
L 355.57373 47.847921 
L 357.131679 47.847921 
L 357.131679 47.049505 
L 357.547072 47.049505 
L 357.547072 46.251089 
L 357.958672 46.251089 
L 357.958672 45.452673 
L 358.235521 45.452673 
L 358.235521 44.654257 
L 363.230949 44.654257 
L 363.230949 43.855842 
L 364.242259 43.855842 
L 364.309162 42.25901 
L 365.392015 42.25901 
L 365.392015 41.460594 
L 366.442438 41.460594 
L 366.442438 40.662178 
L 367.954966 40.662178 
L 367.954966 39.863762 
L 368.642775 39.863762 
L 368.642775 39.065347 
L 370.275023 39.065347 
L 370.275023 38.266931 
L 372.467285 38.266931 
L 372.467285 37.468515 
L 373.636311 37.468515 
L 373.636311 36.670099 
L 375.236981 36.670099 
L 375.236981 35.871683 
L 377.754853 35.871683 
L 377.754853 35.073267 
L 383.627371 35.073267 
L 383.627371 34.274851 
L 386.218647 34.274851 
L 386.218647 33.476436 
L 387.031802 33.476436 
L 387.031802 32.67802 
L 389.143338 32.67802 
L 389.143338 31.879604 
L 389.824457 31.879604 
L 389.824457 31.081188 
L 391.458147 31.081188 
L 391.458147 30.282772 
L 391.884368 30.282772 
L 391.884368 29.484356 
L 392.016413 29.484356 
L 392.016413 28.685941 
L 392.806618 28.685941 
L 392.806618 27.887525 
L 393.917334 27.887525 
L 393.917334 27.089109 
L 394.773546 27.089109 
L 394.773546 26.290693 
L 395.839936 26.290693 
L 395.839936 25.492277 
L 398.811591 25.492277 
L 398.811591 24.693861 
L 399.280081 24.693861 
L 399.280081 23.895446 
L 401.528748 23.895446 
L 401.528748 23.09703 
L 402.068065 23.09703 
L 402.068065 22.298614 
L 402.301179 22.298614 
L 402.301179 21.500198 
L 403.708844 21.500198 
L 403.708844 20.701782 
L 407.176883 20.701782 
L 407.176883 19.903366 
L 407.96479 19.903366 
L 407.96479 19.10495 
L 408.375181 19.10495 
L 408.375181 18.306535 
L 408.693401 18.306535 
L 408.693401 17.508119 
L 409.083355 17.508119 
L 409.083355 16.709703 
L 409.712031 16.709703 
L 409.712031 15.911287 
L 410.262964 15.911287 
L 410.262964 15.112871 
L 410.735624 15.112871 
L 410.735624 14.314455 
L 414.363747 14.314455 
L 414.363747 13.51604 
L 414.479883 13.51604 
L 414.479883 12.717624 
L 415.381315 12.717624 
L 415.381315 11.919208 
L 419.284612 11.919208 
L 419.284612 11.120792 
L 422.463796 11.120792 
L 422.463796 10.322376 
L 423.413517 10.322376 
L 423.431772 8.725545 
L 435.332782 8.725545 
L 435.332782 7.927129 
L 435.670726 7.927129 
L 435.670726 7.128713 
L 439.451226 7.128713 
L 439.451226 6.330297 
L 439.451226 6.330297 
L 460.8 6.330297 
L 460.8 6.330297 
" style="fill:none;stroke:#bf00bf;stroke-linecap:square;stroke-width:1.5;"/>
   </g>
   <g id="line2d_24">
    <path clip-path="url(#p050bf06c4c)" d="M 218.579199 293.76 
L 218.579199 292.961584 
L 223.485933 292.961584 
L 223.485933 292.163168 
L 226.959009 292.163168 
L 226.959009 291.364752 
L 227.534323 291.364752 
L 227.534323 290.566337 
L 228.294466 290.566337 
L 228.294466 289.767921 
L 230.189439 289.767921 
L 230.189439 288.969505 
L 231.541207 288.969505 
L 231.541207 288.171089 
L 232.965573 288.171089 
L 232.965573 287.372673 
L 233.498959 287.372673 
L 233.498959 286.574257 
L 233.718465 286.574257 
L 233.739326 284.977426 
L 234.906889 284.977426 
L 234.906889 284.17901 
L 235.146653 284.17901 
L 235.19724 282.582178 
L 235.280841 282.582178 
L 235.280841 281.783762 
L 236.275762 281.783762 
L 236.322803 280.186931 
L 236.812057 280.186931 
L 236.861524 277.791683 
L 236.988296 277.791683 
L 236.988296 276.993267 
L 237.480598 276.993267 
L 237.480598 276.194851 
L 238.070808 276.194851 
L 238.1464 274.59802 
L 239.304728 274.59802 
L 239.304728 273.799604 
L 239.441754 273.799604 
L 239.441754 273.001188 
L 239.890672 273.001188 
L 239.901211 271.404356 
L 240.402654 271.404356 
L 240.50554 269.807525 
L 240.73752 269.807525 
L 240.73752 269.009109 
L 240.885002 269.009109 
L 240.904992 267.412277 
L 241.01515 267.412277 
L 241.11102 265.01703 
L 241.161794 265.01703 
L 241.161794 264.218614 
L 241.52266 264.218614 
L 241.52266 263.420198 
L 241.743208 263.420198 
L 241.802486 261.823366 
L 241.87216 261.823366 
L 241.87216 261.02495 
L 242.060795 261.02495 
L 242.060795 260.226535 
L 242.20925 260.226535 
L 242.232068 258.629703 
L 242.41989 258.629703 
L 242.41989 257.831287 
L 243.313005 257.831287 
L 243.416245 256.234455 
L 243.851515 256.234455 
L 243.88974 254.637624 
L 243.971181 254.637624 
L 244.047062 253.040792 
L 244.088805 253.040792 
L 244.088805 252.242376 
L 244.341889 252.242376 
L 244.45272 250.645545 
L 244.737867 250.645545 
L 244.737867 249.847129 
L 244.895952 249.847129 
L 244.987381 246.653465 
L 245.066806 246.653465 
L 245.066806 245.85505 
L 245.464083 245.85505 
L 245.464083 245.056634 
L 245.736898 245.056634 
L 245.736898 244.258218 
L 246.03723 244.258218 
L 246.03723 243.459802 
L 246.42785 243.459802 
L 246.486463 241.064554 
L 246.608093 241.064554 
L 246.608093 240.266139 
L 246.936235 240.266139 
L 246.936235 239.467723 
L 247.398572 239.467723 
L 247.398572 238.669307 
L 247.527367 238.669307 
L 247.538074 237.072475 
L 247.668775 237.072475 
L 247.668775 236.274059 
L 248.115031 236.274059 
L 248.149082 234.677228 
L 248.31734 234.677228 
L 248.31734 233.878812 
L 248.516009 233.878812 
L 248.516009 233.080396 
L 248.947693 233.080396 
L 248.947693 232.28198 
L 249.201244 232.28198 
L 249.257986 230.685149 
L 249.474395 230.685149 
L 249.474395 229.886733 
L 250.160423 229.886733 
L 250.160423 229.088317 
L 250.297216 229.088317 
L 250.297216 228.289901 
L 250.682915 228.289901 
L 250.682915 227.491485 
L 250.899307 227.491485 
L 250.899307 226.693069 
L 251.051917 226.693069 
L 251.051917 225.894653 
L 251.370358 225.894653 
L 251.480624 224.297822 
L 251.485345 224.297822 
L 251.591678 221.902574 
L 251.809684 221.902574 
L 251.855324 220.305743 
L 252.715463 220.305743 
L 252.715463 219.507327 
L 252.999538 219.507327 
L 252.999538 218.708911 
L 253.365906 218.708911 
L 253.426983 216.313663 
L 253.520585 216.313663 
L 253.520585 215.515248 
L 253.860739 215.515248 
L 253.939558 213.918416 
L 254.428877 213.918416 
L 254.428877 213.12 
L 254.901397 213.12 
L 254.901397 212.321584 
L 255.172133 212.321584 
L 255.172133 211.523168 
L 255.655514 211.523168 
L 255.743571 209.926337 
L 255.830898 209.926337 
L 255.830898 209.127921 
L 256.1066 209.127921 
L 256.1066 208.329505 
L 256.356134 208.329505 
L 256.356134 207.531089 
L 256.577462 207.531089 
L 256.577462 206.732673 
L 257.035844 206.732673 
L 257.035844 205.934257 
L 257.411735 205.934257 
L 257.411735 205.135842 
L 257.546441 205.135842 
L 257.637918 203.53901 
L 257.736251 203.53901 
L 257.736251 202.740594 
L 257.95469 202.740594 
L 257.95469 201.942178 
L 258.083846 201.942178 
L 258.147348 199.546931 
L 258.27571 199.546931 
L 258.27571 198.748515 
L 258.676963 198.748515 
L 258.676963 197.950099 
L 258.812047 197.950099 
L 258.812047 197.151683 
L 259.618001 197.151683 
L 259.618293 195.554851 
L 259.801633 195.554851 
L 259.803888 193.95802 
L 260.129115 193.95802 
L 260.129115 193.159604 
L 260.572332 193.159604 
L 260.572332 192.361188 
L 260.780878 192.361188 
L 260.780878 191.562772 
L 261.02292 191.562772 
L 261.02292 190.764356 
L 261.438382 190.764356 
L 261.438382 189.965941 
L 261.90111 189.965941 
L 261.973489 188.369109 
L 262.578263 188.369109 
L 262.649046 186.772277 
L 262.826461 186.772277 
L 262.826461 185.973861 
L 263.191506 185.973861 
L 263.257957 184.37703 
L 263.489471 184.37703 
L 263.594579 182.780198 
L 263.875058 182.780198 
L 263.875058 181.981782 
L 264.013517 181.981782 
L 264.106474 180.38495 
L 264.302741 180.38495 
L 264.302741 179.586535 
L 264.779936 179.586535 
L 264.831947 177.989703 
L 264.979028 177.989703 
L 264.979028 177.191287 
L 265.220885 177.191287 
L 265.265305 175.594455 
L 265.435805 175.594455 
L 265.465843 173.997624 
L 265.610636 173.997624 
L 265.62436 172.400792 
L 265.784399 172.400792 
L 265.821393 170.80396 
L 265.915236 170.80396 
L 266.019131 169.207129 
L 266.160456 169.207129 
L 266.160456 168.408713 
L 266.359827 168.408713 
L 266.359827 167.610297 
L 266.481145 167.610297 
L 266.538882 166.013465 
L 266.641278 166.013465 
L 266.641278 165.21505 
L 266.8069 165.21505 
L 266.8069 164.416634 
L 266.939245 164.416634 
L 266.939245 163.618218 
L 267.189276 163.618218 
L 267.273433 162.021386 
L 267.629926 162.021386 
L 267.693487 159.626139 
L 267.875131 159.626139 
L 267.902361 158.029307 
L 268.012605 158.029307 
L 268.1087 155.634059 
L 268.354839 155.634059 
L 268.440244 153.238812 
L 268.496138 153.238812 
L 268.517078 151.64198 
L 268.659581 151.64198 
L 268.659581 150.843564 
L 269.037475 150.843564 
L 269.037475 150.045149 
L 269.831263 150.045149 
L 269.921563 147.649901 
L 270.340657 147.649901 
L 270.431526 145.254653 
L 270.525695 145.254653 
L 270.525695 144.456238 
L 270.725876 144.456238 
L 270.725876 143.657822 
L 270.937692 143.657822 
L 270.937692 142.859406 
L 271.117494 142.859406 
L 271.117494 142.06099 
L 271.282601 142.06099 
L 271.303258 140.464158 
L 271.446755 140.464158 
L 271.552947 138.867327 
L 271.65308 138.867327 
L 271.65308 138.068911 
L 271.795227 138.068911 
L 271.854638 136.472079 
L 271.970469 136.472079 
L 272.037285 134.076832 
L 272.219219 134.076832 
L 272.299159 132.48 
L 272.370218 132.48 
L 272.445841 129.286337 
L 272.678523 129.286337 
L 272.678523 128.487921 
L 273.064068 128.487921 
L 273.143772 126.891089 
L 273.217607 126.891089 
L 273.217607 126.092673 
L 273.661734 126.092673 
L 273.661734 125.294257 
L 274.081243 125.294257 
L 274.081243 124.495842 
L 274.333687 124.495842 
L 274.333687 123.697426 
L 274.46036 123.697426 
L 274.567579 122.100594 
L 274.76503 122.100594 
L 274.76503 121.302178 
L 274.995558 121.302178 
L 274.995558 120.503762 
L 275.123345 120.503762 
L 275.123345 119.705347 
L 275.354094 119.705347 
L 275.354094 118.906931 
L 275.509124 118.906931 
L 275.577921 116.511683 
L 275.623392 116.511683 
L 275.69396 114.116436 
L 275.890314 114.116436 
L 275.890314 113.31802 
L 276.054751 113.31802 
L 276.097144 110.922772 
L 276.256061 110.922772 
L 276.256061 110.124356 
L 276.459508 110.124356 
L 276.459508 109.325941 
L 276.774985 109.325941 
L 276.774985 108.527525 
L 277.035389 108.527525 
L 277.112824 106.930693 
L 277.902237 106.930693 
L 277.902237 106.132277 
L 278.018862 106.132277 
L 278.018862 105.333861 
L 278.498355 105.333861 
L 278.498355 104.535446 
L 278.921557 104.535446 
L 278.921557 103.73703 
L 279.058776 103.73703 
L 279.058776 102.938614 
L 279.381903 102.938614 
L 279.381903 102.140198 
L 279.810368 102.140198 
L 279.810368 101.341782 
L 280.140423 101.341782 
L 280.167434 98.946535 
L 281.176122 98.946535 
L 281.176513 97.349703 
L 282.269527 97.349703 
L 282.269527 96.551287 
L 282.568342 96.551287 
L 282.647244 94.954455 
L 283.460472 94.954455 
L 283.460472 94.15604 
L 285.09317 94.15604 
L 285.09317 93.357624 
L 287.120309 93.357624 
L 287.120309 92.559208 
L 287.88674 92.559208 
L 287.88674 91.760792 
L 288.447156 91.760792 
L 288.447156 90.962376 
L 288.91684 90.962376 
L 288.91684 90.16396 
L 289.891036 90.16396 
L 289.891036 89.365545 
L 290.438128 89.365545 
L 290.438128 88.567129 
L 290.998636 88.567129 
L 290.998636 87.768713 
L 292.930442 87.768713 
L 292.930442 86.970297 
L 293.086031 86.970297 
L 293.086031 86.171881 
L 293.862321 86.171881 
L 293.862321 85.373465 
L 294.061335 85.373465 
L 294.061335 84.57505 
L 294.823069 84.57505 
L 294.823069 83.776634 
L 295.215364 83.776634 
L 295.215364 82.978218 
L 295.345047 82.978218 
L 295.345047 82.179802 
L 295.721736 82.179802 
L 295.79834 80.58297 
L 295.963914 80.58297 
L 295.963914 79.784554 
L 296.321316 79.784554 
L 296.321316 78.986139 
L 296.618787 78.986139 
L 296.618787 78.187723 
L 298.653171 78.187723 
L 298.653171 77.389307 
L 299.492045 77.389307 
L 299.492045 76.590891 
L 300.486102 76.590891 
L 300.486102 75.792475 
L 300.695093 75.792475 
L 300.695093 74.994059 
L 300.863173 74.994059 
L 300.863173 74.195644 
L 302.770916 74.195644 
L 302.770916 73.397228 
L 303.07435 73.397228 
L 303.07435 72.598812 
L 306.299812 72.598812 
L 306.333203 71.00198 
L 307.435246 71.00198 
L 307.435246 70.203564 
L 307.634045 70.203564 
L 307.634045 69.405149 
L 308.425596 69.405149 
L 308.425596 68.606733 
L 309.313659 68.606733 
L 309.313659 67.808317 
L 311.030194 67.808317 
L 311.030194 67.009901 
L 315.019311 67.009901 
L 315.019311 66.211485 
L 315.498122 66.211485 
L 315.498122 65.413069 
L 315.912268 65.413069 
L 315.912268 64.614653 
L 319.305194 64.614653 
L 319.305194 63.816238 
L 319.473157 63.816238 
L 319.473157 63.017822 
L 320.439265 63.017822 
L 320.439265 62.219406 
L 321.647042 62.219406 
L 321.647042 61.42099 
L 321.971221 61.42099 
L 321.971221 60.622574 
L 322.428378 60.622574 
L 322.428378 59.824158 
L 323.63048 59.824158 
L 323.63048 59.025743 
L 327.728589 59.025743 
L 327.728589 58.227327 
L 332.356308 58.227327 
L 332.356308 57.428911 
L 332.778743 57.428911 
L 332.778743 56.630495 
L 337.676914 56.630495 
L 337.676914 55.832079 
L 338.686782 55.832079 
L 338.686782 55.033663 
L 339.663103 55.033663 
L 339.663103 54.235248 
L 339.919956 54.235248 
L 339.919956 53.436832 
L 343.205683 53.436832 
L 343.205683 52.638416 
L 343.585517 52.638416 
L 343.585517 51.84 
L 344.285008 51.84 
L 344.285008 51.041584 
L 345.50344 51.041584 
L 345.50344 50.243168 
L 349.14353 50.243168 
L 349.14353 49.444752 
L 349.319274 49.444752 
L 349.319274 48.646337 
L 349.801521 48.646337 
L 349.801521 47.847921 
L 350.066473 47.847921 
L 350.104989 46.251089 
L 353.187927 46.251089 
L 353.187927 45.452673 
L 354.220032 45.452673 
L 354.220032 44.654257 
L 354.677264 44.654257 
L 354.707657 43.057426 
L 355.57373 43.057426 
L 355.57373 42.25901 
L 356.663858 42.25901 
L 356.663858 41.460594 
L 357.131679 41.460594 
L 357.131679 40.662178 
L 357.547072 40.662178 
L 357.547072 39.863762 
L 357.797534 39.863762 
L 357.797534 39.065347 
L 357.958672 39.065347 
L 357.958672 38.266931 
L 358.26365 38.266931 
L 358.26365 37.468515 
L 363.230949 37.468515 
L 363.230949 36.670099 
L 363.475018 36.670099 
L 363.475018 35.871683 
L 364.242259 35.871683 
L 364.242259 35.073267 
L 366.336279 35.073267 
L 366.336279 34.274851 
L 368.274154 34.274851 
L 368.274154 33.476436 
L 368.752923 33.476436 
L 368.752923 32.67802 
L 370.275023 32.67802 
L 370.275023 31.879604 
L 371.324967 31.879604 
L 371.324967 31.081188 
L 373.636311 31.081188 
L 373.636311 30.282772 
L 377.709575 30.282772 
L 377.754853 28.685941 
L 378.229157 28.685941 
L 378.229157 27.887525 
L 381.476801 27.887525 
L 381.476801 27.089109 
L 382.176852 27.089109 
L 382.176852 26.290693 
L 386.218647 26.290693 
L 386.218647 25.492277 
L 389.143338 25.492277 
L 389.143338 24.693861 
L 390.968156 24.693861 
L 390.968156 23.895446 
L 393.152525 23.895446 
L 393.152525 23.09703 
L 395.528036 23.09703 
L 395.528036 22.298614 
L 398.206241 22.298614 
L 398.206241 21.500198 
L 399.280081 21.500198 
L 399.280081 20.701782 
L 401.528748 20.701782 
L 401.528748 19.903366 
L 402.068065 19.903366 
L 402.068065 19.10495 
L 403.44066 19.10495 
L 403.44066 18.306535 
L 407.462281 18.306535 
L 407.462281 17.508119 
L 407.96479 17.508119 
L 407.985315 15.911287 
L 408.693401 15.911287 
L 408.693401 15.112871 
L 409.083355 15.112871 
L 409.083355 14.314455 
L 410.185617 14.314455 
L 410.185617 13.51604 
L 414.363747 13.51604 
L 414.363747 12.717624 
L 414.479883 12.717624 
L 414.479883 11.919208 
L 415.381315 11.919208 
L 415.381315 11.120792 
L 417.325453 11.120792 
L 417.325453 10.322376 
L 419.284612 10.322376 
L 419.284612 9.52396 
L 423.413517 9.52396 
L 423.413517 8.725545 
L 425.022178 8.725545 
L 425.022178 7.927129 
L 425.271256 7.927129 
L 425.271256 7.128713 
L 426.41101 7.128713 
L 426.41101 6.330297 
L 426.41101 6.330297 
L 460.8 6.330297 
L 460.8 6.330297 
" style="fill:none;stroke:#000000;stroke-linecap:square;stroke-width:1.5;"/>
   </g>
   <g id="line2d_25">
    <path clip-path="url(#p050bf06c4c)" d="M 218.579199 293.76 
L 218.579199 292.961584 
L 222.460058 292.961584 
L 222.460058 292.163168 
L 223.330256 292.163168 
L 223.330256 291.364752 
L 223.485933 291.364752 
L 223.485933 290.566337 
L 226.959009 290.566337 
L 226.959009 289.767921 
L 227.534323 289.767921 
L 227.534323 288.969505 
L 228.294466 288.969505 
L 228.294466 288.171089 
L 229.516421 288.171089 
L 229.621495 286.574257 
L 229.65179 286.574257 
L 229.65179 285.775842 
L 230.189439 285.775842 
L 230.189439 284.977426 
L 230.468721 284.977426 
L 230.468721 284.17901 
L 230.915762 284.17901 
L 230.915762 283.380594 
L 231.199119 283.380594 
L 231.199119 282.582178 
L 231.395782 282.582178 
L 231.440797 280.985347 
L 232.328541 280.985347 
L 232.328541 280.186931 
L 232.670037 280.186931 
L 232.670037 279.388515 
L 232.954637 279.388515 
L 232.965573 277.791683 
L 233.114303 277.791683 
L 233.114303 276.993267 
L 233.498959 276.993267 
L 233.498959 276.194851 
L 233.695899 276.194851 
L 233.739326 274.59802 
L 234.027125 274.59802 
L 234.027125 273.799604 
L 234.667321 273.799604 
L 234.713027 272.202772 
L 234.85632 272.202772 
L 234.85632 271.404356 
L 235.19724 271.404356 
L 235.19724 270.605941 
L 235.533875 270.605941 
L 235.63632 269.009109 
L 235.738633 269.009109 
L 235.738633 268.210693 
L 236.572855 268.210693 
L 236.572855 267.412277 
L 236.988296 267.412277 
L 236.988296 266.613861 
L 237.339742 266.613861 
L 237.339742 265.815446 
L 237.480598 265.815446 
L 237.480598 265.01703 
L 237.60505 265.01703 
L 237.60505 264.218614 
L 237.958543 264.218614 
L 237.958543 263.420198 
L 238.070808 263.420198 
L 238.1464 261.823366 
L 238.457871 261.823366 
L 238.478364 260.226535 
L 238.824995 260.226535 
L 238.879782 257.831287 
L 239.04781 257.831287 
L 239.04781 257.032871 
L 239.161118 257.032871 
L 239.235674 254.637624 
L 239.291102 254.637624 
L 239.400652 253.040792 
L 239.441754 253.040792 
L 239.441754 252.242376 
L 239.866575 252.242376 
L 239.890672 250.645545 
L 240.190979 250.645545 
L 240.190979 249.847129 
L 240.678978 249.847129 
L 240.701351 248.250297 
L 240.885002 248.250297 
L 240.885002 247.451881 
L 241.01515 247.451881 
L 241.01515 246.653465 
L 241.161794 246.653465 
L 241.192068 245.056634 
L 241.743208 245.056634 
L 241.743208 244.258218 
L 242.190347 244.258218 
L 242.20925 242.661386 
L 242.41989 242.661386 
L 242.41989 241.86297 
L 242.649126 241.86297 
L 242.649126 241.064554 
L 242.892275 241.064554 
L 242.920398 239.467723 
L 243.416245 239.467723 
L 243.416245 238.669307 
L 243.702962 238.669307 
L 243.702962 237.870891 
L 243.851515 237.870891 
L 243.851515 237.072475 
L 243.971181 237.072475 
L 244.047062 235.475644 
L 244.088805 235.475644 
L 244.088805 234.677228 
L 244.309182 234.677228 
L 244.309182 233.878812 
L 244.45272 233.878812 
L 244.45272 233.080396 
L 244.737867 233.080396 
L 244.802766 231.483564 
L 244.895952 231.483564 
L 244.895952 230.685149 
L 245.093358 230.685149 
L 245.093358 229.886733 
L 245.736898 229.886733 
L 245.777536 228.289901 
L 246.03723 228.289901 
L 246.112726 226.693069 
L 246.473408 226.693069 
L 246.557305 225.096238 
L 246.936235 225.096238 
L 247.002003 223.499406 
L 247.162727 223.499406 
L 247.162727 222.70099 
L 247.398572 222.70099 
L 247.398572 221.902574 
L 247.527367 221.902574 
L 247.527367 221.104158 
L 248.115031 221.104158 
L 248.149082 219.507327 
L 248.31734 219.507327 
L 248.31734 218.708911 
L 248.717057 218.708911 
L 248.717057 217.910495 
L 248.947693 217.910495 
L 248.947693 217.112079 
L 249.201244 217.112079 
L 249.257986 215.515248 
L 250.160423 215.515248 
L 250.160423 214.716832 
L 250.336122 214.716832 
L 250.336122 213.918416 
L 250.870978 213.918416 
L 250.883931 212.321584 
L 251.051917 212.321584 
L 251.051917 211.523168 
L 251.208051 211.523168 
L 251.2788 209.926337 
L 251.370358 209.926337 
L 251.434653 208.329505 
L 251.485345 208.329505 
L 251.485345 207.531089 
L 251.699585 207.531089 
L 251.809684 205.934257 
L 251.855324 205.934257 
L 251.855324 205.135842 
L 252.121536 205.135842 
L 252.121536 204.337426 
L 252.455345 204.337426 
L 252.455345 203.53901 
L 252.999538 203.53901 
L 253.027794 201.942178 
L 253.193734 201.942178 
L 253.193734 201.143762 
L 253.553139 201.143762 
L 253.582555 199.546931 
L 253.860739 199.546931 
L 253.860739 198.748515 
L 254.071355 198.748515 
L 254.094001 197.151683 
L 254.244085 197.151683 
L 254.244085 196.353267 
L 254.372842 196.353267 
L 254.408623 194.756436 
L 254.520183 194.756436 
L 254.605437 193.159604 
L 254.901397 193.159604 
L 254.901397 192.361188 
L 255.56557 192.361188 
L 255.56557 191.562772 
L 255.946316 191.562772 
L 255.946316 190.764356 
L 256.356134 190.764356 
L 256.356134 189.965941 
L 256.471911 189.965941 
L 256.471911 189.167525 
L 256.642704 189.167525 
L 256.642704 188.369109 
L 257.281529 188.369109 
L 257.281529 187.570693 
L 257.510328 187.570693 
L 257.58316 185.175446 
L 257.629219 185.175446 
L 257.736251 182.780198 
L 257.79954 182.780198 
L 257.79954 181.981782 
L 257.95469 181.981782 
L 257.95469 181.183366 
L 258.147348 181.183366 
L 258.147348 180.38495 
L 258.420512 180.38495 
L 258.420512 179.586535 
L 258.623399 179.586535 
L 258.623399 178.788119 
L 259.618001 178.788119 
L 259.618001 177.989703 
L 259.803888 177.989703 
L 259.803888 177.191287 
L 260.572332 177.191287 
L 260.572332 176.392871 
L 260.780878 176.392871 
L 260.780878 175.594455 
L 260.958683 175.594455 
L 260.961062 173.997624 
L 261.105984 173.997624 
L 261.105984 173.199208 
L 261.438382 173.199208 
L 261.491855 171.602376 
L 261.70051 171.602376 
L 261.70051 170.80396 
L 261.90111 170.80396 
L 262.0107 169.207129 
L 262.470206 169.207129 
L 262.578263 167.610297 
L 262.826461 167.610297 
L 262.826461 166.811881 
L 263.134692 166.811881 
L 263.191506 165.21505 
L 263.358342 165.21505 
L 263.358342 164.416634 
L 263.879133 164.416634 
L 263.879133 163.618218 
L 264.013517 163.618218 
L 264.013517 162.819802 
L 264.159452 162.819802 
L 264.160156 161.22297 
L 264.302741 161.22297 
L 264.302741 160.424554 
L 264.779936 160.424554 
L 264.875868 157.230891 
L 264.898431 157.230891 
L 264.976735 155.634059 
L 265.114241 155.634059 
L 265.114241 154.835644 
L 265.265305 154.835644 
L 265.265305 154.037228 
L 265.435805 154.037228 
L 265.465843 152.440396 
L 265.62436 152.440396 
L 265.62436 151.64198 
L 265.784399 151.64198 
L 265.821393 150.045149 
L 265.915236 150.045149 
L 265.915236 149.246733 
L 266.160456 149.246733 
L 266.160456 148.448317 
L 266.312123 148.448317 
L 266.312123 147.649901 
L 266.481145 147.649901 
L 266.538882 145.254653 
L 266.689102 145.254653 
L 266.689102 144.456238 
L 266.939245 144.456238 
L 267.047398 142.859406 
L 267.078881 142.859406 
L 267.189276 140.464158 
L 267.273433 140.464158 
L 267.273433 139.665743 
L 267.424026 139.665743 
L 267.424026 138.867327 
L 267.624808 138.867327 
L 267.680525 135.673663 
L 267.964872 135.673663 
L 267.964872 134.875248 
L 268.335245 134.875248 
L 268.440244 132.48 
L 268.655976 132.48 
L 268.655976 131.681584 
L 268.81237 131.681584 
L 268.81237 130.883168 
L 269.037475 130.883168 
L 269.037475 130.084752 
L 269.348973 130.084752 
L 269.348973 129.286337 
L 269.544784 129.286337 
L 269.642689 127.689505 
L 269.812308 127.689505 
L 269.917117 125.294257 
L 270.027896 125.294257 
L 270.027896 124.495842 
L 270.340657 124.495842 
L 270.400512 122.89901 
L 270.525695 122.89901 
L 270.636011 121.302178 
L 270.937692 121.302178 
L 270.937692 120.503762 
L 271.095052 120.503762 
L 271.117494 118.906931 
L 271.447976 118.906931 
L 271.552947 116.511683 
L 271.816831 116.511683 
L 271.816831 115.713267 
L 272.024792 115.713267 
L 272.024792 114.914851 
L 272.235706 114.914851 
L 272.299159 113.31802 
L 272.720113 113.31802 
L 272.823053 111.721188 
L 273.064068 111.721188 
L 273.16825 109.325941 
L 273.406132 109.325941 
L 273.406132 108.527525 
L 273.897005 108.527525 
L 273.897005 107.729109 
L 274.081243 107.729109 
L 274.161003 106.132277 
L 274.46036 106.132277 
L 274.46036 105.333861 
L 274.618436 105.333861 
L 274.618436 104.535446 
L 274.995558 104.535446 
L 275.028357 102.140198 
L 275.123345 102.140198 
L 275.123345 101.341782 
L 275.354094 101.341782 
L 275.456899 99.74495 
L 275.629699 99.74495 
L 275.69396 98.148119 
L 275.764329 98.148119 
L 275.764329 97.349703 
L 275.913391 97.349703 
L 275.913391 96.551287 
L 276.097144 96.551287 
L 276.097144 95.752871 
L 276.318049 95.752871 
L 276.318049 94.954455 
L 277.236215 94.954455 
L 277.26959 93.357624 
L 277.902237 93.357624 
L 277.982117 91.760792 
L 278.018862 91.760792 
L 278.018862 90.962376 
L 278.921557 90.962376 
L 278.998071 89.365545 
L 280.167434 89.365545 
L 280.167434 88.567129 
L 281.176513 88.567129 
L 281.176513 87.768713 
L 282.381396 87.768713 
L 282.381396 86.970297 
L 282.647244 86.970297 
L 282.647244 86.171881 
L 283.460472 86.171881 
L 283.460472 85.373465 
L 283.842287 85.373465 
L 283.842287 84.57505 
L 284.020519 84.57505 
L 284.020519 83.776634 
L 285.09317 83.776634 
L 285.09317 82.978218 
L 285.2943 82.978218 
L 285.2943 82.179802 
L 287.120309 82.179802 
L 287.120309 81.381386 
L 287.88674 81.381386 
L 287.88674 80.58297 
L 288.414611 80.58297 
L 288.449278 78.986139 
L 288.91684 78.986139 
L 288.91684 78.187723 
L 289.205155 78.187723 
L 289.205155 77.389307 
L 289.891036 77.389307 
L 289.891036 76.590891 
L 290.438128 76.590891 
L 290.438128 75.792475 
L 290.549283 75.792475 
L 290.549283 74.994059 
L 292.930442 74.994059 
L 292.930442 74.195644 
L 293.086031 74.195644 
L 293.086031 73.397228 
L 293.752908 73.397228 
L 293.752908 72.598812 
L 294.061335 72.598812 
L 294.061335 71.800396 
L 294.323217 71.800396 
L 294.323217 71.00198 
L 295.374208 71.00198 
L 295.374208 70.203564 
L 295.944238 70.203564 
L 295.963914 68.606733 
L 296.618787 68.606733 
L 296.618787 67.808317 
L 297.905828 67.808317 
L 297.905828 67.009901 
L 298.653171 67.009901 
L 298.653171 66.211485 
L 298.78084 66.211485 
L 298.803141 64.614653 
L 299.450483 64.614653 
L 299.450483 63.816238 
L 300.197256 63.816238 
L 300.197256 63.017822 
L 301.555607 63.017822 
L 301.555607 62.219406 
L 301.929672 62.219406 
L 301.97545 60.622574 
L 304.993422 60.622574 
L 304.993422 59.824158 
L 307.634045 59.824158 
L 307.634045 59.025743 
L 311.221831 59.025743 
L 311.221831 58.227327 
L 314.614035 58.227327 
L 314.614035 57.428911 
L 315.019311 57.428911 
L 315.019311 56.630495 
L 315.811084 56.630495 
L 315.811084 55.832079 
L 317.019325 55.832079 
L 317.019325 55.033663 
L 319.305194 55.033663 
L 319.305194 54.235248 
L 319.693199 54.235248 
L 319.693199 53.436832 
L 321.647042 53.436832 
L 321.647042 52.638416 
L 323.381795 52.638416 
L 323.381795 51.84 
L 323.656463 51.84 
L 323.656463 51.041584 
L 327.728589 51.041584 
L 327.728589 50.243168 
L 332.153624 50.243168 
L 332.153624 49.444752 
L 333.379848 49.444752 
L 333.379848 48.646337 
L 335.209687 48.646337 
L 335.209687 47.847921 
L 336.900029 47.847921 
L 336.900029 47.049505 
L 337.526842 47.049505 
L 337.617905 45.452673 
L 337.676914 45.452673 
L 337.676914 44.654257 
L 339.58448 44.654257 
L 339.663103 43.057426 
L 339.919956 43.057426 
L 339.919956 42.25901 
L 341.482 42.25901 
L 341.482 41.460594 
L 342.256218 41.460594 
L 342.256218 40.662178 
L 343.205683 40.662178 
L 343.205683 39.863762 
L 343.924492 39.863762 
L 343.924492 39.065347 
L 344.721976 39.065347 
L 344.721976 38.266931 
L 345.50344 38.266931 
L 345.50344 37.468515 
L 347.707068 37.468515 
L 347.707068 36.670099 
L 349.14353 36.670099 
L 349.14353 35.871683 
L 349.319274 35.871683 
L 349.319274 35.073267 
L 350.104989 35.073267 
L 350.104989 34.274851 
L 351.387144 34.274851 
L 351.387144 33.476436 
L 351.639214 33.476436 
L 351.639214 32.67802 
L 352.054851 32.67802 
L 352.054851 31.879604 
L 353.009349 31.879604 
L 353.009349 31.081188 
L 354.620859 31.081188 
L 354.620859 30.282772 
L 355.686513 30.282772 
L 355.686513 29.484356 
L 356.663858 29.484356 
L 356.663858 28.685941 
L 357.208747 28.685941 
L 357.208747 27.887525 
L 357.958672 27.887525 
L 357.958672 27.089109 
L 358.26365 27.089109 
L 358.26365 26.290693 
L 362.277208 26.290693 
L 362.277208 25.492277 
L 362.808884 25.492277 
L 362.808884 24.693861 
L 365.669236 24.693861 
L 365.669236 23.895446 
L 369.643526 23.895446 
L 369.643526 23.09703 
L 374.863123 23.09703 
L 374.863123 22.298614 
L 375.814858 22.298614 
L 375.814858 21.500198 
L 377.709575 21.500198 
L 377.709575 20.701782 
L 379.698685 20.701782 
L 379.698685 19.903366 
L 390.968156 19.903366 
L 390.968156 19.10495 
L 393.152525 19.10495 
L 393.152525 18.306535 
L 395.528036 18.306535 
L 395.528036 17.508119 
L 401.528748 17.508119 
L 401.528748 16.709703 
L 402.068065 16.709703 
L 402.068065 15.911287 
L 403.410592 15.911287 
L 403.410592 15.112871 
L 404.745835 15.112871 
L 404.745835 14.314455 
L 404.887155 14.314455 
L 404.887155 13.51604 
L 406.798932 13.51604 
L 406.798932 12.717624 
L 407.96479 12.717624 
L 407.96479 11.919208 
L 414.363747 11.919208 
L 414.363747 11.120792 
L 415.381315 11.120792 
L 415.381315 10.322376 
L 417.129739 10.322376 
L 417.129739 9.52396 
L 419.284612 9.52396 
L 419.284612 8.725545 
L 420.197251 8.725545 
L 420.197251 7.927129 
L 424.532606 7.927129 
L 424.532606 7.128713 
L 424.857978 7.128713 
L 424.857978 6.330297 
L 424.857978 6.330297 
L 460.8 6.330297 
L 460.8 6.330297 
" style="fill:none;stroke:#00bfbf;stroke-linecap:square;stroke-width:1.5;"/>
   </g>
   <g id="line2d_26">
    <path clip-path="url(#p050bf06c4c)" d="M 210.500517 293.76 
L 210.500517 292.961584 
L 215.930641 292.961584 
L 215.930641 292.163168 
L 218.579199 292.163168 
L 218.579199 291.364752 
L 220.03278 291.364752 
L 220.03278 290.566337 
L 220.970513 290.566337 
L 220.970513 289.767921 
L 222.460058 289.767921 
L 222.491678 288.171089 
L 223.152335 288.171089 
L 223.205661 286.574257 
L 223.400987 286.574257 
L 223.400987 285.775842 
L 224.332334 285.775842 
L 224.332334 284.977426 
L 224.936349 284.977426 
L 224.936349 284.17901 
L 225.329562 284.17901 
L 225.329562 283.380594 
L 225.897092 283.380594 
L 225.897092 282.582178 
L 226.154338 282.582178 
L 226.229145 280.186931 
L 226.379405 280.186931 
L 226.382464 278.590099 
L 226.57461 278.590099 
L 226.57461 277.791683 
L 226.959009 277.791683 
L 226.959009 276.993267 
L 227.129208 276.993267 
L 227.192488 273.799604 
L 227.264957 273.799604 
L 227.308463 272.202772 
L 227.534323 272.202772 
L 227.534323 271.404356 
L 227.676162 271.404356 
L 227.676162 270.605941 
L 227.878249 270.605941 
L 227.878249 269.807525 
L 228.179136 269.807525 
L 228.179136 269.009109 
L 228.324651 269.009109 
L 228.39172 266.613861 
L 228.735984 266.613861 
L 228.771682 265.01703 
L 229.280812 265.01703 
L 229.282207 263.420198 
L 229.616734 263.420198 
L 229.65179 261.823366 
L 229.894603 261.823366 
L 229.997239 260.226535 
L 230.530479 260.226535 
L 230.530479 259.428119 
L 230.745473 259.428119 
L 230.845266 256.234455 
L 230.870059 256.234455 
L 230.870059 255.43604 
L 231.00008 255.43604 
L 231.100826 252.242376 
L 231.155017 252.242376 
L 231.155017 251.44396 
L 231.395782 251.44396 
L 231.490122 247.451881 
L 231.545932 247.451881 
L 231.585465 245.85505 
L 231.970358 245.85505 
L 232.014724 244.258218 
L 232.083779 244.258218 
L 232.192301 241.064554 
L 232.20715 241.064554 
L 232.20715 240.266139 
L 232.470637 240.266139 
L 232.470637 239.467723 
L 232.670037 239.467723 
L 232.670037 238.669307 
L 232.954637 238.669307 
L 233.017207 235.475644 
L 233.163472 235.475644 
L 233.274174 232.28198 
L 233.676766 232.28198 
L 233.739326 230.685149 
L 234.190974 230.685149 
L 234.190974 229.886733 
L 234.311839 229.886733 
L 234.311839 229.088317 
L 234.684215 229.088317 
L 234.794913 227.491485 
L 234.80183 227.491485 
L 234.80183 226.693069 
L 234.950668 226.693069 
L 234.950668 225.894653 
L 235.19724 225.894653 
L 235.279607 223.499406 
L 235.384965 223.499406 
L 235.4742 221.902574 
L 235.54567 221.902574 
L 235.54567 221.104158 
L 235.674477 221.104158 
L 235.745541 219.507327 
L 235.96779 219.507327 
L 235.96779 218.708911 
L 236.618617 218.708911 
L 236.618617 217.910495 
L 236.812922 217.910495 
L 236.812922 217.112079 
L 236.973627 217.112079 
L 237.081046 215.515248 
L 237.502807 215.515248 
L 237.502807 214.716832 
L 237.764435 214.716832 
L 237.764435 213.918416 
L 237.907541 213.918416 
L 237.958543 212.321584 
L 238.070808 212.321584 
L 238.070808 211.523168 
L 238.224853 211.523168 
L 238.224853 210.724752 
L 238.934364 210.724752 
L 238.934364 209.926337 
L 239.188724 209.926337 
L 239.257484 208.329505 
L 239.613356 208.329505 
L 239.663088 206.732673 
L 239.95161 206.732673 
L 239.95161 205.934257 
L 240.481318 205.934257 
L 240.584432 204.337426 
L 240.614407 204.337426 
L 240.701351 201.942178 
L 241.049215 201.942178 
L 241.064334 200.345347 
L 241.334572 200.345347 
L 241.417957 197.950099 
L 241.446602 197.950099 
L 241.446602 197.151683 
L 241.746336 197.151683 
L 241.746336 196.353267 
L 241.954669 196.353267 
L 241.989348 194.756436 
L 242.399625 194.756436 
L 242.399625 193.95802 
L 242.624757 193.95802 
L 242.649126 192.361188 
L 242.973393 192.361188 
L 242.973393 191.562772 
L 243.633602 191.562772 
L 243.649128 189.965941 
L 243.804557 189.965941 
L 243.831561 188.369109 
L 243.94439 188.369109 
L 244.047062 185.973861 
L 244.647293 185.973861 
L 244.647293 185.175446 
L 244.932695 185.175446 
L 244.935689 183.578614 
L 245.269655 183.578614 
L 245.269655 182.780198 
L 245.485454 182.780198 
L 245.594687 181.183366 
L 245.60339 181.183366 
L 245.60339 180.38495 
L 246.125352 180.38495 
L 246.170853 178.788119 
L 246.348935 178.788119 
L 246.348935 177.989703 
L 246.473408 177.989703 
L 246.473408 177.191287 
L 246.821958 177.191287 
L 246.821958 176.392871 
L 247.002003 176.392871 
L 247.002003 175.594455 
L 247.213195 175.594455 
L 247.213195 174.79604 
L 248.131664 174.79604 
L 248.131664 173.997624 
L 248.708751 173.997624 
L 248.708751 173.199208 
L 249.163546 173.199208 
L 249.163546 172.400792 
L 249.313362 172.400792 
L 249.313362 171.602376 
L 249.778467 171.602376 
L 249.778467 170.80396 
L 250.160423 170.80396 
L 250.183619 169.207129 
L 250.294353 169.207129 
L 250.294353 168.408713 
L 250.425586 168.408713 
L 250.425586 167.610297 
L 250.67825 167.610297 
L 250.67825 166.811881 
L 251.23479 166.811881 
L 251.23479 166.013465 
L 251.540101 166.013465 
L 251.581949 164.416634 
L 252.425038 164.416634 
L 252.425038 163.618218 
L 252.918863 163.618218 
L 252.918863 162.819802 
L 253.259107 162.819802 
L 253.259107 162.021386 
L 254.002636 162.021386 
L 254.002636 161.22297 
L 254.945076 161.22297 
L 254.945076 160.424554 
L 255.341083 160.424554 
L 255.341083 159.626139 
L 255.727516 159.626139 
L 255.727516 158.827723 
L 256.505672 158.827723 
L 256.505672 158.029307 
L 256.719987 158.029307 
L 256.719987 157.230891 
L 256.886326 157.230891 
L 256.886326 156.432475 
L 257.50505 156.432475 
L 257.50505 155.634059 
L 257.828949 155.634059 
L 257.828949 154.835644 
L 258.601451 154.835644 
L 258.601451 154.037228 
L 258.735181 154.037228 
L 258.735181 153.238812 
L 259.027487 153.238812 
L 259.047367 151.64198 
L 259.592905 151.64198 
L 259.618001 150.045149 
L 260.425163 150.045149 
L 260.495966 147.649901 
L 260.581402 147.649901 
L 260.581402 146.851485 
L 260.784752 146.851485 
L 260.85828 145.254653 
L 260.902293 145.254653 
L 260.902293 144.456238 
L 261.105984 144.456238 
L 261.1772 142.859406 
L 261.23443 142.859406 
L 261.23443 142.06099 
L 261.362962 142.06099 
L 261.457404 139.665743 
L 261.558289 139.665743 
L 261.558289 138.867327 
L 261.70051 138.867327 
L 261.79419 136.472079 
L 261.837078 136.472079 
L 261.837078 135.673663 
L 262.123124 135.673663 
L 262.211069 134.076832 
L 262.578263 134.076832 
L 262.578263 133.278416 
L 262.772 133.278416 
L 262.801097 131.681584 
L 262.926741 131.681584 
L 263.028949 129.286337 
L 263.134692 129.286337 
L 263.244501 126.891089 
L 263.289538 126.891089 
L 263.385724 124.495842 
L 263.561453 124.495842 
L 263.561453 123.697426 
L 263.782529 123.697426 
L 263.782529 122.89901 
L 264.022941 122.89901 
L 264.125037 121.302178 
L 264.297338 121.302178 
L 264.325863 119.705347 
L 264.476802 119.705347 
L 264.55646 118.108515 
L 264.643626 118.108515 
L 264.72248 116.511683 
L 264.875868 116.511683 
L 264.976735 114.914851 
L 265.074944 114.914851 
L 265.17046 113.31802 
L 265.20485 113.31802 
L 265.265305 110.124356 
L 265.3392 110.124356 
L 265.377994 108.527525 
L 265.887712 108.527525 
L 265.887712 107.729109 
L 266.06161 107.729109 
L 266.168841 104.535446 
L 266.289697 104.535446 
L 266.323824 102.938614 
L 266.417054 102.938614 
L 266.417054 102.140198 
L 266.585365 102.140198 
L 266.585365 101.341782 
L 266.73784 101.341782 
L 266.774822 98.946535 
L 266.960166 98.946535 
L 266.979237 97.349703 
L 267.078881 97.349703 
L 267.078881 96.551287 
L 267.995401 96.551287 
L 267.997292 94.954455 
L 268.333468 94.954455 
L 268.343499 93.357624 
L 268.884854 93.357624 
L 268.884854 92.559208 
L 269.02254 92.559208 
L 269.02254 91.760792 
L 269.348973 91.760792 
L 269.348973 90.962376 
L 269.574672 90.962376 
L 269.574672 90.16396 
L 269.798996 90.16396 
L 269.821677 88.567129 
L 270.041535 88.567129 
L 270.046558 86.970297 
L 270.169806 86.970297 
L 270.169806 86.171881 
L 270.371565 86.171881 
L 270.389757 84.57505 
L 270.920905 84.57505 
L 270.920905 83.776634 
L 271.07706 83.776634 
L 271.138707 81.381386 
L 271.552947 81.381386 
L 271.552947 80.58297 
L 272.048304 80.58297 
L 272.048304 79.784554 
L 272.235706 79.784554 
L 272.244223 78.187723 
L 272.757155 78.187723 
L 272.757155 77.389307 
L 272.869682 77.389307 
L 272.958864 75.792475 
L 273.412728 75.792475 
L 273.412728 74.994059 
L 274.323169 74.994059 
L 274.323169 74.195644 
L 274.46036 74.195644 
L 274.46036 73.397228 
L 274.767217 73.397228 
L 274.767217 72.598812 
L 275.295807 72.598812 
L 275.354094 71.00198 
L 276.628817 71.00198 
L 276.628817 70.203564 
L 276.771768 70.203564 
L 276.771768 69.405149 
L 276.973217 69.405149 
L 276.973217 68.606733 
L 277.200372 68.606733 
L 277.200372 67.808317 
L 277.353712 67.808317 
L 277.353712 67.009901 
L 277.938954 67.009901 
L 277.982117 65.413069 
L 280.132151 65.413069 
L 280.132151 64.614653 
L 281.134112 64.614653 
L 281.170042 63.017822 
L 281.407861 63.017822 
L 281.407861 62.219406 
L 282.381396 62.219406 
L 282.381396 61.42099 
L 282.599091 61.42099 
L 282.599091 60.622574 
L 282.746522 60.622574 
L 282.746522 59.824158 
L 283.110879 59.824158 
L 283.164705 58.227327 
L 283.603422 58.227327 
L 283.614757 56.630495 
L 283.810227 56.630495 
L 283.853031 55.033663 
L 284.065842 55.033663 
L 284.065842 54.235248 
L 285.754811 54.235248 
L 285.754811 53.436832 
L 285.885338 53.436832 
L 285.945185 51.84 
L 288.566295 51.84 
L 288.566295 51.041584 
L 288.726043 51.041584 
L 288.726043 50.243168 
L 289.830924 50.243168 
L 289.830924 49.444752 
L 292.310278 49.444752 
L 292.310278 48.646337 
L 293.581712 48.646337 
L 293.581712 47.847921 
L 294.037242 47.847921 
L 294.037242 47.049505 
L 296.631763 47.049505 
L 296.631763 46.251089 
L 298.18731 46.251089 
L 298.18731 45.452673 
L 303.124236 45.452673 
L 303.124236 44.654257 
L 311.217769 44.654257 
L 311.217769 43.855842 
L 314.729795 43.855842 
L 314.729795 43.057426 
L 315.257192 43.057426 
L 315.257192 42.25901 
L 316.111063 42.25901 
L 316.111063 41.460594 
L 320.970091 41.460594 
L 320.983666 39.863762 
L 323.959868 39.863762 
L 323.959868 39.065347 
L 324.669237 39.065347 
L 324.726084 37.468515 
L 325.428502 37.468515 
L 325.428502 36.670099 
L 327.222197 36.670099 
L 327.222197 35.871683 
L 329.089782 35.871683 
L 329.089782 35.073267 
L 331.100072 35.073267 
L 331.13954 33.476436 
L 331.218261 33.476436 
L 331.218261 32.67802 
L 331.982723 32.67802 
L 331.982723 31.879604 
L 332.424204 31.879604 
L 332.424204 31.081188 
L 334.401113 31.081188 
L 334.401113 30.282772 
L 335.971413 30.282772 
L 335.971413 29.484356 
L 336.588221 29.484356 
L 336.588221 28.685941 
L 338.742608 28.685941 
L 338.769938 27.089109 
L 339.58448 27.089109 
L 339.663103 25.492277 
L 341.279557 25.492277 
L 341.279557 24.693861 
L 343.991961 24.693861 
L 343.991961 23.895446 
L 344.721976 23.895446 
L 344.721976 23.09703 
L 346.111518 23.09703 
L 346.111518 22.298614 
L 346.933807 22.298614 
L 346.933807 21.500198 
L 348.352195 21.500198 
L 348.352195 20.701782 
L 350.946295 20.701782 
L 350.946295 19.903366 
L 354.386866 19.903366 
L 354.386866 19.10495 
L 369.643526 19.10495 
L 369.643526 18.306535 
L 375.814858 18.306535 
L 375.814858 17.508119 
L 377.172025 17.508119 
L 377.172025 16.709703 
L 377.295553 16.709703 
L 377.295553 15.911287 
L 384.066633 15.911287 
L 384.066633 15.112871 
L 385.057335 15.112871 
L 385.057335 14.314455 
L 385.841055 14.314455 
L 385.841055 13.51604 
L 389.794406 13.51604 
L 389.794406 12.717624 
L 391.954034 12.717624 
L 391.954034 11.919208 
L 392.604282 11.919208 
L 392.604282 11.120792 
L 395.291726 11.120792 
L 395.291726 10.322376 
L 398.132233 10.322376 
L 398.132233 9.52396 
L 401.128509 9.52396 
L 401.146608 7.927129 
L 401.286196 7.927129 
L 401.286196 7.128713 
L 404.861572 7.128713 
L 404.861572 6.330297 
L 404.861572 6.330297 
L 460.8 6.330297 
L 460.8 6.330297 
" style="fill:none;stroke:#bf00bf;stroke-linecap:square;stroke-width:1.5;"/>
   </g>
   <g id="patch_3">
    <path d="M 0 293.76 
L 0 3.456 
" style="fill:none;stroke:#000000;stroke-linecap:square;stroke-linejoin:miter;stroke-width:0.8;"/>
   </g>
   <g id="patch_4">
    <path d="M 460.8 293.76 
L 460.8 3.456 
" style="fill:none;stroke:#000000;stroke-linecap:square;stroke-linejoin:miter;stroke-width:0.8;"/>
   </g>
   <g id="patch_5">
    <path d="M 0 293.76 
L 460.8 293.76 
" style="fill:none;stroke:#000000;stroke-linecap:square;stroke-linejoin:miter;stroke-width:0.8;"/>
   </g>
   <g id="patch_6">
    <path d="M 0 3.456 
L 460.8 3.456 
" style="fill:none;stroke:#000000;stroke-linecap:square;stroke-linejoin:miter;stroke-width:0.8;"/>
   </g>
   <g id="text_6">
    <!-- {f1-f24}, 5-D -->
    <g transform="translate(318.609 287.95392)scale(0.2 -0.2)">
     <defs>
      <path d="M 3272 -594 
L 3272 -1044 
L 3078 -1044 
Q 2300 -1044 2036 -812 
Q 1772 -581 1772 109 
L 1772 856 
Q 1772 1328 1603 1509 
Q 1434 1691 991 1691 
L 800 1691 
L 800 2138 
L 991 2138 
Q 1438 2138 1605 2317 
Q 1772 2497 1772 2963 
L 1772 3713 
Q 1772 4403 2036 4633 
Q 2300 4863 3078 4863 
L 3272 4863 
L 3272 4416 
L 3059 4416 
Q 2619 4416 2484 4278 
Q 2350 4141 2350 3700 
L 2350 2925 
Q 2350 2434 2208 2212 
Q 2066 1991 1722 1913 
Q 2069 1828 2209 1606 
Q 2350 1384 2350 897 
L 2350 122 
Q 2350 -319 2484 -456 
Q 2619 -594 3059 -594 
L 3272 -594 
z
" id="DejaVuSans-7b" transform="scale(0.015625)"/>
      <path d="M 1228 531 
L 3431 531 
L 3431 0 
L 469 0 
L 469 531 
Q 828 903 1448 1529 
Q 2069 2156 2228 2338 
Q 2531 2678 2651 2914 
Q 2772 3150 2772 3378 
Q 2772 3750 2511 3984 
Q 2250 4219 1831 4219 
Q 1534 4219 1204 4116 
Q 875 4013 500 3803 
L 500 4441 
Q 881 4594 1212 4672 
Q 1544 4750 1819 4750 
Q 2544 4750 2975 4387 
Q 3406 4025 3406 3419 
Q 3406 3131 3298 2873 
Q 3191 2616 2906 2266 
Q 2828 2175 2409 1742 
Q 1991 1309 1228 531 
z
" id="DejaVuSans-32" transform="scale(0.015625)"/>
      <path d="M 800 -594 
L 1019 -594 
Q 1456 -594 1589 -459 
Q 1722 -325 1722 122 
L 1722 897 
Q 1722 1384 1862 1606 
Q 2003 1828 2350 1913 
Q 2003 1991 1862 2212 
Q 1722 2434 1722 2925 
L 1722 3700 
Q 1722 4144 1589 4280 
Q 1456 4416 1019 4416 
L 800 4416 
L 800 4863 
L 997 4863 
Q 1775 4863 2036 4633 
Q 2297 4403 2297 3713 
L 2297 2963 
Q 2297 2497 2465 2317 
Q 2634 2138 3078 2138 
L 3272 2138 
L 3272 1691 
L 3078 1691 
Q 2634 1691 2465 1509 
Q 2297 1328 2297 856 
L 2297 109 
Q 2297 -581 2036 -812 
Q 1775 -1044 997 -1044 
L 800 -1044 
L 800 -594 
z
" id="DejaVuSans-7d" transform="scale(0.015625)"/>
      <path d="M 750 794 
L 1409 794 
L 1409 256 
L 897 -744 
L 494 -744 
L 750 256 
L 750 794 
z
" id="DejaVuSans-2c" transform="scale(0.015625)"/>
      <path d="M 691 4666 
L 3169 4666 
L 3169 4134 
L 1269 4134 
L 1269 2991 
Q 1406 3038 1543 3061 
Q 1681 3084 1819 3084 
Q 2600 3084 3056 2656 
Q 3513 2228 3513 1497 
Q 3513 744 3044 326 
Q 2575 -91 1722 -91 
Q 1428 -91 1123 -41 
Q 819 9 494 109 
L 494 744 
Q 775 591 1075 516 
Q 1375 441 1709 441 
Q 2250 441 2565 725 
Q 2881 1009 2881 1497 
Q 2881 1984 2565 2268 
Q 2250 2553 1709 2553 
Q 1456 2553 1204 2497 
Q 953 2441 691 2322 
L 691 4666 
z
" id="DejaVuSans-35" transform="scale(0.015625)"/>
     </defs>
     <use xlink:href="#DejaVuSans-7b"/>
     <use x="63.623047" xlink:href="#DejaVuSans-66"/>
     <use x="98.828125" xlink:href="#DejaVuSans-31"/>
     <use x="162.451172" xlink:href="#DejaVuSans-2d"/>
     <use x="198.535156" xlink:href="#DejaVuSans-66"/>
     <use x="233.740234" xlink:href="#DejaVuSans-32"/>
     <use x="297.363281" xlink:href="#DejaVuSans-34"/>
     <use x="360.986328" xlink:href="#DejaVuSans-7d"/>
     <use x="424.609375" xlink:href="#DejaVuSans-2c"/>
     <use x="456.396484" xlink:href="#DejaVuSans-20"/>
     <use x="488.183594" xlink:href="#DejaVuSans-35"/>
     <use x="551.806641" xlink:href="#DejaVuSans-2d"/>
     <use x="587.890625" xlink:href="#DejaVuSans-44"/>
    </g>
   </g>
   <g id="text_7">
    <!-- v2.4 -->
    <g style="fill:#808080;" transform="translate(219.489063 288.777272)scale(0.1 -0.1)">
     <defs>
      <path d="M 191 3500 
L 800 3500 
L 1894 563 
L 2988 3500 
L 3597 3500 
L 2284 0 
L 1503 0 
L 191 3500 
z
" id="DejaVuSans-76" transform="scale(0.015625)"/>
      <path d="M 684 794 
L 1344 794 
L 1344 0 
L 684 0 
L 684 794 
z
" id="DejaVuSans-2e" transform="scale(0.015625)"/>
     </defs>
     <use xlink:href="#DejaVuSans-76"/>
     <use x="59.179688" xlink:href="#DejaVuSans-32"/>
     <use x="122.802734" xlink:href="#DejaVuSans-2e"/>
     <use x="154.589844" xlink:href="#DejaVuSans-34"/>
    </g>
   </g>
  </g>
 </g>
 <defs>
  <clipPath id="p050bf06c4c">
   <rect height="290.304" width="460.8" x="0" y="3.456"/>
  </clipPath>
 </defs>
</svg>
