<?xml version="1.0" encoding="utf-8" standalone="no"?>
<!DOCTYPE svg PUBLIC "-//W3C//DTD SVG 1.1//EN"
  "http://www.w3.org/Graphics/SVG/1.1/DTD/svg11.dtd">
<svg height="345.6pt" version="1.1" viewBox="0 0 460.8 345.6" width="460.8pt" xmlns="http://www.w3.org/2000/svg" xmlns:xlink="http://www.w3.org/1999/xlink">
 <metadata>
  <rdf:RDF xmlns:cc="http://creativecommons.org/ns#" xmlns:dc="http://purl.org/dc/elements/1.1/" xmlns:rdf="http://www.w3.org/1999/02/22-rdf-syntax-ns#">
   <cc:Work>
    <dc:type rdf:resource="http://purl.org/dc/dcmitype/StillImage"/>
    <dc:date>2021-06-14T12:33:40.164758</dc:date>
    <dc:format>image/svg+xml</dc:format>
    <dc:creator>
     <cc:Agent>
      <dc:title>Matplotlib v3.4.2, https://matplotlib.org/</dc:title>
     </cc:Agent>
    </dc:creator>
   </cc:Work>
  </rdf:RDF>
 </metadata>
 <defs>
  <style type="text/css">*{stroke-linecap:butt;stroke-linejoin:round;}</style>
 </defs>
 <g id="figure_1">
  <g id="patch_1">
   <path d="M 0 345.6 
L 460.8 345.6 
L 460.8 0 
L 0 0 
z
" style="fill:#ffffff;"/>
  </g>
  <g id="axes_1">
   <g id="patch_2">
    <path d="M 62.208 293.76 
L 460.8 293.76 
L 460.8 3.456 
L 62.208 3.456 
z
" style="fill:#ffffff;"/>
   </g>
   <g id="line2d_1">
    <path clip-path="url(#p3d2f781ba4)" d="M 421.626641 293.76 
L 421.626641 289.927604 
L 421.626641 289.927604 
L 421.626641 286.095208 
L 422.160962 286.095208 
L 422.160962 282.262812 
L 422.160962 282.262812 
L 422.160962 278.430416 
L 422.160962 278.430416 
L 422.160962 274.59802 
L 422.426888 274.59802 
L 422.426888 270.765624 
L 422.426888 270.765624 
L 422.426888 266.933228 
L 423.219781 266.933228 
L 423.219781 263.100832 
L 425.555664 263.100832 
L 425.555664 259.268436 
L 425.555664 259.268436 
L 425.555664 255.43604 
L 427.078515 255.43604 
L 427.078515 251.603644 
L 427.82998 251.603644 
L 427.82998 247.771248 
L 430.530681 247.771248 
L 430.530681 243.938851 
L 433.617129 243.938851 
L 433.617129 240.106455 
L 436.14519 240.106455 
L 436.14519 236.274059 
L 455.355526 236.274059 
L 455.355526 232.441663 
L 457.326991 232.441663 
L 457.326991 228.609267 
L 457.856937 228.609267 
L 457.856937 224.776871 
L 457.856937 224.776871 
L 457.856937 220.944475 
L 458.208435 220.944475 
L 458.208435 217.112079 
L 459.080966 217.112079 
L 459.080966 213.279683 
L 459.254419 213.279683 
L 459.254419 209.447287 
L 460.287876 209.447287 
L 460.287876 205.614891 
L 460.287876 205.614891 
L 460.287876 201.782495 
L 461.478138 201.782495 
L 461.478138 197.950099 
L 461.8 197.950099 
" style="fill:none;stroke:#f5deb3;stroke-linecap:square;stroke-width:1.5;"/>
   </g>
   <g id="line2d_2">
    <path clip-path="url(#p3d2f781ba4)" d="M 344.675214 293.76 
L 344.675214 282.262812 
L 344.675214 282.262812 
L 344.675214 270.765624 
L 345.326482 270.765624 
L 345.326482 259.268436 
L 345.326482 259.268436 
L 345.326482 247.771248 
L 345.326482 247.771248 
L 345.326482 236.274059 
L 461.8 236.274059 
" style="fill:none;stroke:#f5deb3;stroke-linecap:square;stroke-width:1.5;"/>
   </g>
   <g id="line2d_3">
    <path clip-path="url(#p3d2f781ba4)" d="M 190.059564 293.76 
L 190.059564 289.927604 
L 190.059564 289.927604 
L 190.059564 286.095208 
L 190.059564 286.095208 
L 190.059564 282.262812 
L 190.059564 282.262812 
L 190.059564 278.430416 
L 190.059564 278.430416 
L 190.059564 274.59802 
L 190.059564 274.59802 
L 190.059564 270.765624 
L 190.059564 270.765624 
L 190.059564 266.933228 
L 190.059564 266.933228 
L 190.059564 263.100832 
L 190.059564 263.100832 
L 190.059564 259.268436 
L 190.059564 259.268436 
L 190.059564 255.43604 
L 190.059564 255.43604 
L 190.059564 251.603644 
L 190.059564 251.603644 
L 190.059564 247.771248 
L 190.059564 247.771248 
L 190.059564 243.938851 
L 190.059564 243.938851 
L 190.059564 240.106455 
L 190.059564 240.106455 
L 190.059564 236.274059 
L 190.059564 236.274059 
L 190.059564 232.441663 
L 190.059564 232.441663 
L 190.059564 228.609267 
L 190.059564 228.609267 
L 190.059564 224.776871 
L 190.059564 224.776871 
L 190.059564 220.944475 
L 193.895423 220.944475 
L 193.895423 217.112079 
L 193.895423 217.112079 
L 193.895423 213.279683 
L 193.895423 213.279683 
L 193.895423 209.447287 
L 197.568005 209.447287 
L 197.568005 205.614891 
L 197.568005 205.614891 
L 197.568005 201.782495 
L 201.090642 201.782495 
L 201.090642 197.950099 
L 201.090642 197.950099 
L 201.090642 194.117703 
L 201.090642 194.117703 
L 201.090642 190.285307 
L 204.475101 190.285307 
L 204.475101 186.452911 
L 207.731814 186.452911 
L 207.731814 182.620515 
L 222.39285 182.620515 
L 222.39285 178.788119 
L 461.8 178.788119 
" style="fill:none;stroke:#f5deb3;stroke-linecap:square;stroke-width:1.5;"/>
   </g>
   <g id="line2d_4">
    <path clip-path="url(#p3d2f781ba4)" d="M 137.754506 293.76 
L 137.754506 289.927604 
L 172.74316 289.927604 
L 172.74316 286.095208 
L 193.895423 286.095208 
L 193.895423 282.262812 
L 197.568005 282.262812 
L 197.568005 278.430416 
L 207.731814 278.430416 
L 207.731814 274.59802 
L 216.82365 274.59802 
L 216.82365 270.765624 
L 222.39285 270.765624 
L 222.39285 266.933228 
L 225.048217 266.933228 
L 225.048217 263.100832 
L 225.048217 263.100832 
L 225.048217 259.268436 
L 225.048217 259.268436 
L 225.048217 255.43604 
L 232.556658 255.43604 
L 232.556658 251.603644 
L 239.463755 251.603644 
L 239.463755 247.771248 
L 241.648495 247.771248 
L 241.648495 243.938851 
L 247.889236 243.938851 
L 247.889236 240.106455 
L 260.904141 240.106455 
L 260.904141 236.274059 
L 436.371383 236.274059 
L 436.371383 232.441663 
L 441.203276 232.441663 
L 441.203276 228.609267 
L 444.142969 228.609267 
L 444.142969 224.776871 
L 445.169053 224.776871 
L 445.169053 220.944475 
L 445.372814 220.944475 
L 445.372814 217.112079 
L 445.981225 217.112079 
L 445.981225 213.279683 
L 446.384462 213.279683 
L 446.384462 209.447287 
L 447.582991 209.447287 
L 447.582991 205.614891 
L 447.978829 205.614891 
L 447.978829 201.782495 
L 448.7651 201.782495 
L 448.7651 197.950099 
L 450.699994 197.950099 
L 450.699994 194.117703 
L 454.992188 194.117703 
L 454.992188 190.285307 
L 455.355526 190.285307 
L 455.355526 186.452911 
L 456.79377 186.452911 
L 456.79377 182.620515 
L 461.478138 182.620515 
L 461.478138 178.788119 
L 461.8 178.788119 
" style="fill:none;stroke:#f5deb3;stroke-linecap:square;stroke-width:1.5;"/>
   </g>
   <g id="line2d_5">
    <path clip-path="url(#p3d2f781ba4)" d="M 446.585377 293.76 
L 446.585377 289.927604 
L 461.8 289.927604 
" style="fill:none;stroke:#f5deb3;stroke-linecap:square;stroke-width:1.5;"/>
   </g>
   <g id="line2d_6"/>
   <g id="line2d_7">
    <path clip-path="url(#p3d2f781ba4)" d="M 338.581438 293.76 
L 338.581438 289.927604 
L 341.343038 289.927604 
L 341.343038 286.095208 
L 347.883488 286.095208 
L 347.883488 282.262812 
L 350.976746 282.262812 
L 350.976746 278.430416 
L 352.780839 278.430416 
L 352.780839 274.59802 
L 356.849258 274.59802 
L 356.849258 266.933228 
L 357.977283 266.933228 
L 357.977283 263.100832 
L 358.535813 263.100832 
L 358.535813 259.268436 
L 359.642144 259.268436 
L 359.642144 255.43604 
L 362.878497 255.43604 
L 362.878497 251.603644 
L 364.970543 251.603644 
L 364.970543 247.771248 
L 365.485724 247.771248 
L 365.485724 243.938851 
L 367.013067 243.938851 
L 367.013067 240.106455 
L 372.865658 240.106455 
L 372.865658 236.274059 
L 461.8 236.274059 
L 461.8 236.274059 
" style="fill:none;stroke:#f5deb3;stroke-linecap:square;stroke-width:1.5;"/>
   </g>
   <g id="line2d_8">
    <path clip-path="url(#p3d2f781ba4)" d="M 0 0 
" style="fill:none;stroke:#f5deb3;stroke-linecap:square;stroke-width:1.5;"/>
   </g>
   <g id="line2d_9">
    <path clip-path="url(#p3d2f781ba4)" d="M 230.125719 293.76 
L 230.125719 289.927604 
L 239.463755 289.927604 
L 239.463755 286.095208 
L 245.858727 286.095208 
L 245.858727 282.262812 
L 255.564749 282.262812 
L 255.564749 278.430416 
L 257.381503 278.430416 
L 257.381503 274.59802 
L 278.063506 274.59802 
L 278.063506 270.765624 
L 283.544245 270.765624 
L 283.544245 266.933228 
L 295.892794 266.933228 
L 295.892794 263.100832 
L 295.892794 263.100832 
L 295.892794 259.268436 
L 301.461994 259.268436 
L 301.461994 255.43604 
L 301.461994 255.43604 
L 301.461994 251.603644 
L 306.693452 251.603644 
L 306.693452 247.771248 
L 307.702734 247.771248 
L 307.702734 243.938851 
L 308.700348 243.938851 
L 308.700348 240.106455 
L 309.68656 240.106455 
L 309.68656 236.274059 
L 461.8 236.274059 
" style="fill:none;stroke:#f5deb3;stroke-linecap:square;stroke-width:1.5;"/>
   </g>
   <g id="line2d_10">
    <path clip-path="url(#p3d2f781ba4)" d="M 321.57628 293.76 
L 321.57628 289.927604 
L 337.166773 289.927604 
L 337.166773 286.095208 
L 337.877004 286.095208 
L 337.877004 274.59802 
L 340.660879 274.59802 
L 340.660879 270.765624 
L 342.691388 270.765624 
L 342.691388 266.933228 
L 351.58231 266.933228 
L 351.58231 263.100832 
L 352.780839 263.100832 
L 352.780839 259.268436 
L 364.452267 259.268436 
L 364.452267 255.43604 
L 370.475127 255.43604 
L 370.475127 251.603644 
L 384.74137 251.603644 
L 384.74137 247.771248 
L 385.151312 247.771248 
L 385.151312 243.938851 
L 399.44092 243.938851 
L 399.44092 240.106455 
L 401.156536 240.106455 
L 401.156536 236.274059 
L 461.8 236.274059 
L 461.8 236.274059 
" style="fill:none;stroke:#f5deb3;stroke-linecap:square;stroke-width:1.5;"/>
   </g>
   <g id="line2d_11">
    <path clip-path="url(#p3d2f781ba4)" d="M 157.010152 293.76 
L 157.010152 289.927604 
L 181.834997 289.927604 
L 181.834997 286.095208 
L 186.045229 286.095208 
L 186.045229 282.262812 
L 186.045229 282.262812 
L 186.045229 278.430416 
L 186.045229 278.430416 
L 186.045229 274.59802 
L 190.059564 274.59802 
L 190.059564 270.765624 
L 190.059564 270.765624 
L 190.059564 266.933228 
L 193.895423 266.933228 
L 193.895423 263.100832 
L 193.895423 263.100832 
L 193.895423 259.268436 
L 207.731814 259.268436 
L 207.731814 255.43604 
L 207.731814 255.43604 
L 207.731814 251.603644 
L 225.048217 251.603644 
L 225.048217 247.771248 
L 225.048217 247.771248 
L 225.048217 243.938851 
L 234.920988 243.938851 
L 234.920988 240.106455 
L 237.222262 240.106455 
L 237.222262 236.274059 
L 423.482468 236.274059 
L 423.482468 232.441663 
L 430.288626 232.441663 
L 430.288626 228.609267 
L 430.288626 228.609267 
L 430.288626 224.776871 
L 431.012764 224.776871 
L 431.012764 220.944475 
L 432.679156 220.944475 
L 432.679156 217.112079 
L 434.08232 217.112079 
L 434.08232 213.279683 
L 434.313978 213.279683 
L 434.313978 209.447287 
L 435.918402 209.447287 
L 435.918402 205.614891 
L 436.371383 205.614891 
L 436.371383 201.782495 
L 440.560098 201.782495 
L 440.560098 197.950099 
L 440.560098 197.950099 
L 440.560098 194.117703 
L 442.2647 194.117703 
L 442.2647 190.285307 
L 442.68564 190.285307 
L 442.68564 186.452911 
L 446.384462 186.452911 
L 446.384462 182.620515 
L 446.985807 182.620515 
L 446.985807 178.788119 
L 461.8 178.788119 
" style="fill:none;stroke:#f5deb3;stroke-linecap:square;stroke-width:1.5;"/>
   </g>
   <g id="line2d_12">
    <path clip-path="url(#p3d2f781ba4)" d="M 144.661603 293.76 
L 144.661603 289.927604 
L 144.661603 289.927604 
L 144.661603 286.095208 
L 144.661603 286.095208 
L 144.661603 282.262812 
L 144.661603 282.262812 
L 144.661603 278.430416 
L 144.661603 278.430416 
L 144.661603 274.59802 
L 144.661603 274.59802 
L 144.661603 270.765624 
L 144.661603 270.765624 
L 144.661603 266.933228 
L 144.661603 266.933228 
L 144.661603 263.100832 
L 144.661603 263.100832 
L 144.661603 259.268436 
L 144.661603 259.268436 
L 144.661603 255.43604 
L 144.661603 255.43604 
L 144.661603 251.603644 
L 144.661603 251.603644 
L 144.661603 247.771248 
L 144.661603 247.771248 
L 144.661603 243.938851 
L 144.661603 243.938851 
L 144.661603 240.106455 
L 144.661603 240.106455 
L 144.661603 236.274059 
L 177.408763 236.274059 
L 177.408763 232.441663 
L 177.408763 232.441663 
L 177.408763 228.609267 
L 201.090642 228.609267 
L 201.090642 224.776871 
L 219.653171 224.776871 
L 219.653171 220.944475 
L 219.653171 220.944475 
L 219.653171 217.112079 
L 219.653171 217.112079 
L 219.653171 213.279683 
L 219.653171 213.279683 
L 219.653171 209.447287 
L 219.653171 209.447287 
L 219.653171 205.614891 
L 219.653171 205.614891 
L 219.653171 201.782495 
L 219.653171 201.782495 
L 219.653171 197.950099 
L 219.653171 197.950099 
L 219.653171 194.117703 
L 234.920988 194.117703 
L 234.920988 190.285307 
L 234.920988 190.285307 
L 234.920988 186.452911 
L 234.920988 186.452911 
L 234.920988 182.620515 
L 247.889236 182.620515 
L 247.889236 178.788119 
L 461.478138 178.788119 
L 461.478138 174.955723 
L 461.8 174.955723 
" style="fill:none;stroke:#f5deb3;stroke-linecap:square;stroke-width:1.5;"/>
   </g>
   <g id="line2d_13">
    <path clip-path="url(#p3d2f781ba4)" d="M 426.320449 293.76 
L 426.320449 289.927604 
L 426.320449 289.927604 
L 426.320449 286.095208 
L 426.320449 286.095208 
L 426.320449 282.262812 
L 433.617129 282.262812 
L 433.617129 278.430416 
L 433.617129 278.430416 
L 433.617129 274.59802 
L 433.617129 274.59802 
L 433.617129 270.765624 
L 434.313978 270.765624 
L 434.313978 266.933228 
L 434.313978 266.933228 
L 434.313978 263.100832 
L 434.313978 263.100832 
L 434.313978 259.268436 
L 449.73797 259.268436 
L 449.73797 255.43604 
L 449.73797 255.43604 
L 449.73797 251.603644 
L 449.73797 251.603644 
L 449.73797 247.771248 
L 459.427524 247.771248 
L 459.427524 243.938851 
L 459.427524 243.938851 
L 459.427524 240.106455 
L 459.427524 240.106455 
L 459.427524 236.274059 
L 461.8 236.274059 
" style="fill:none;stroke:#f5deb3;stroke-linecap:square;stroke-width:1.5;"/>
   </g>
   <g id="line2d_14">
    <path clip-path="url(#p3d2f781ba4)" d="M 230.125719 293.76 
L 230.125719 289.927604 
L 230.125719 289.927604 
L 230.125719 286.095208 
L 232.556658 286.095208 
L 232.556658 282.262812 
L 237.222262 282.262812 
L 237.222262 278.430416 
L 243.779286 278.430416 
L 243.779286 274.59802 
L 243.779286 274.59802 
L 243.779286 270.765624 
L 243.779286 270.765624 
L 243.779286 266.933228 
L 249.873062 266.933228 
L 249.873062 263.100832 
L 253.708922 263.100832 
L 253.708922 259.268436 
L 253.708922 259.268436 
L 253.708922 255.43604 
L 253.708922 255.43604 
L 253.708922 251.603644 
L 253.708922 251.603644 
L 253.708922 247.771248 
L 253.708922 247.771248 
L 253.708922 243.938851 
L 253.708922 243.938851 
L 253.708922 240.106455 
L 253.708922 240.106455 
L 253.708922 236.274059 
L 359.090752 236.274059 
L 359.090752 232.441663 
L 364.970543 232.441663 
L 364.970543 228.609267 
L 369.98897 228.609267 
L 369.98897 224.776871 
L 372.865658 224.776871 
L 372.865658 220.944475 
L 372.865658 220.944475 
L 372.865658 217.112079 
L 374.731517 217.112079 
L 374.731517 213.279683 
L 375.649533 213.279683 
L 375.649533 209.447287 
L 376.557885 209.447287 
L 376.557885 205.614891 
L 380.098592 205.614891 
L 380.098592 201.782495 
L 381.815915 201.782495 
L 381.815915 197.950099 
L 385.559315 197.950099 
L 385.559315 194.117703 
L 386.771878 194.117703 
L 386.771878 190.285307 
L 389.536639 190.285307 
L 389.536639 186.452911 
L 389.536639 186.452911 
L 389.536639 182.620515 
L 403.171242 182.620515 
L 403.171242 178.788119 
L 461.8 178.788119 
" style="fill:none;stroke:#f5deb3;stroke-linecap:square;stroke-width:1.5;"/>
   </g>
   <g id="line2d_15">
    <path clip-path="url(#p3d2f781ba4)" style="fill:none;stroke:#f5deb3;stroke-linecap:square;stroke-width:1.5;"/>
   </g>
   <g id="line2d_16">
    <path clip-path="url(#p3d2f781ba4)" d="M 0 0 
" style="fill:none;stroke:#f5deb3;stroke-linecap:square;stroke-width:1.5;"/>
   </g>
   <g id="line2d_17">
    <path clip-path="url(#p3d2f781ba4)" d="M 337.877004 293.76 
L 337.877004 289.927604 
L 347.251305 289.927604 
L 347.251305 286.095208 
L 367.516233 286.095208 
L 367.516233 282.262812 
L 385.559315 282.262812 
L 385.559315 278.430416 
L 388.362571 278.430416 
L 388.362571 274.59802 
L 412.594337 274.59802 
L 412.594337 270.765624 
L 420.003534 270.765624 
L 420.003534 266.933228 
L 420.276181 266.933228 
L 420.276181 263.100832 
L 425.299222 263.100832 
L 425.299222 259.268436 
L 448.7651 259.268436 
L 448.7651 255.43604 
L 461.8 255.43604 
" style="fill:none;stroke:#f5deb3;stroke-linecap:square;stroke-width:1.5;"/>
   </g>
   <g id="line2d_18">
    <path clip-path="url(#p3d2f781ba4)" d="M 137.754506 293.76 
L 137.754506 289.927604 
L 137.754506 289.927604 
L 137.754506 286.095208 
L 137.754506 286.095208 
L 137.754506 282.262812 
L 137.754506 282.262812 
L 137.754506 278.430416 
L 137.754506 278.430416 
L 137.754506 274.59802 
L 137.754506 274.59802 
L 137.754506 270.765624 
L 137.754506 270.765624 
L 137.754506 266.933228 
L 137.754506 266.933228 
L 137.754506 263.100832 
L 137.754506 263.100832 
L 137.754506 259.268436 
L 137.754506 259.268436 
L 137.754506 255.43604 
L 137.754506 255.43604 
L 137.754506 251.603644 
L 137.754506 251.603644 
L 137.754506 247.771248 
L 137.754506 247.771248 
L 137.754506 243.938851 
L 137.754506 243.938851 
L 137.754506 240.106455 
L 137.754506 240.106455 
L 137.754506 236.274059 
L 144.661603 236.274059 
L 144.661603 232.441663 
L 144.661603 232.441663 
L 144.661603 228.609267 
L 144.661603 228.609267 
L 144.661603 224.776871 
L 144.661603 224.776871 
L 144.661603 220.944475 
L 144.661603 220.944475 
L 144.661603 217.112079 
L 151.056575 217.112079 
L 151.056575 213.279683 
L 157.010152 213.279683 
L 157.010152 209.447287 
L 162.579351 209.447287 
L 162.579351 205.614891 
L 162.579351 205.614891 
L 162.579351 201.782495 
L 167.81081 201.782495 
L 167.81081 197.950099 
L 167.81081 197.950099 
L 167.81081 194.117703 
L 167.81081 194.117703 
L 167.81081 190.285307 
L 167.81081 190.285307 
L 167.81081 186.452911 
L 172.74316 186.452911 
L 172.74316 182.620515 
L 186.045229 182.620515 
L 186.045229 178.788119 
L 461.8 178.788119 
" style="fill:none;stroke:#f5deb3;stroke-linecap:square;stroke-width:1.5;"/>
   </g>
   <g id="line2d_19">
    <path clip-path="url(#p3d2f781ba4)" d="M 0 0 
" style="fill:none;stroke:#f5deb3;stroke-linecap:square;stroke-width:1.5;"/>
   </g>
   <g id="line2d_20">
    <path clip-path="url(#p3d2f781ba4)" d="M 157.010152 293.76 
L 157.010152 289.927604 
L 167.81081 289.927604 
L 167.81081 286.095208 
L 172.74316 286.095208 
L 172.74316 282.262812 
L 172.74316 282.262812 
L 172.74316 278.430416 
L 186.045229 278.430416 
L 186.045229 274.59802 
L 193.895423 274.59802 
L 193.895423 270.765624 
L 197.568005 270.765624 
L 197.568005 266.933228 
L 204.475101 266.933228 
L 204.475101 263.100832 
L 207.731814 263.100832 
L 207.731814 259.268436 
L 207.731814 259.268436 
L 207.731814 255.43604 
L 210.870074 255.43604 
L 210.870074 251.603644 
L 216.82365 251.603644 
L 216.82365 247.771248 
L 222.39285 247.771248 
L 222.39285 243.938851 
L 225.048217 243.938851 
L 225.048217 240.106455 
L 232.556658 240.106455 
L 232.556658 236.274059 
L 377.0085 236.274059 
L 377.0085 232.441663 
L 384.74137 232.441663 
L 384.74137 228.609267 
L 385.151312 228.609267 
L 385.151312 224.776871 
L 386.369581 224.776871 
L 386.369581 220.944475 
L 387.967638 220.944475 
L 387.967638 217.112079 
L 389.924471 217.112079 
L 389.924471 213.279683 
L 391.458603 213.279683 
L 391.458603 209.447287 
L 392.591564 209.447287 
L 392.591564 205.614891 
L 395.903842 205.614891 
L 395.903842 201.782495 
L 396.622951 201.782495 
L 396.622951 197.950099 
L 400.474378 197.950099 
L 400.474378 194.117703 
L 402.504886 194.117703 
L 402.504886 190.285307 
L 406.107759 190.285307 
L 406.107759 186.452911 
L 410.790244 186.452911 
L 410.790244 182.620515 
L 411.093558 182.620515 
L 411.093558 178.788119 
L 445.981225 178.788119 
L 445.981225 174.955723 
L 461.8 174.955723 
" style="fill:none;stroke:#f5deb3;stroke-linecap:square;stroke-width:1.5;"/>
   </g>
   <g id="line2d_21">
    <path clip-path="url(#p3d2f781ba4)" d="M 0 0 
" style="fill:none;stroke:#f5deb3;stroke-linecap:square;stroke-width:1.5;"/>
   </g>
   <g id="line2d_22">
    <path clip-path="url(#p3d2f781ba4)" d="M 172.74316 293.76 
L 172.74316 289.927604 
L 172.74316 289.927604 
L 172.74316 286.095208 
L 186.045229 286.095208 
L 186.045229 282.262812 
L 190.059564 282.262812 
L 190.059564 278.430416 
L 201.090642 278.430416 
L 201.090642 274.59802 
L 201.090642 274.59802 
L 201.090642 270.765624 
L 201.090642 270.765624 
L 201.090642 266.933228 
L 210.870074 266.933228 
L 210.870074 263.100832 
L 232.556658 263.100832 
L 232.556658 259.268436 
L 243.779286 259.268436 
L 243.779286 255.43604 
L 245.858727 255.43604 
L 245.858727 251.603644 
L 255.564749 251.603644 
L 255.564749 247.771248 
L 259.160796 247.771248 
L 259.160796 243.938851 
L 328.942206 243.938851 
L 328.942206 240.106455 
L 343.357744 240.106455 
L 343.357744 236.274059 
L 383.499727 236.274059 
L 383.499727 232.441663 
L 385.151312 232.441663 
L 385.151312 228.609267 
L 386.369581 228.609267 
L 386.369581 224.776871 
L 388.755704 224.776871 
L 388.755704 220.944475 
L 390.694946 220.944475 
L 390.694946 217.112079 
L 392.215561 217.112079 
L 392.215561 213.279683 
L 392.591564 213.279683 
L 392.591564 209.447287 
L 393.338691 209.447287 
L 393.338691 205.614891 
L 393.709843 205.614891 
L 393.709843 201.782495 
L 397.336118 201.782495 
L 397.336118 197.950099 
L 398.043438 197.950099 
L 398.043438 194.117703 
L 400.474378 194.117703 
L 400.474378 190.285307 
L 400.816131 190.285307 
L 400.816131 186.452911 
L 403.5025 186.452911 
L 403.5025 182.620515 
L 408.947627 182.620515 
L 408.947627 178.788119 
L 461.8 178.788119 
" style="fill:none;stroke:#f5deb3;stroke-linecap:square;stroke-width:1.5;"/>
   </g>
   <g id="line2d_23">
    <path clip-path="url(#p3d2f781ba4)" d="M 302.533966 293.76 
L 302.533966 289.927604 
L 333.525193 289.927604 
L 333.525193 286.095208 
L 337.166773 286.095208 
L 337.166773 282.262812 
L 339.280168 282.262812 
L 339.280168 278.430416 
L 350.366901 278.430416 
L 350.366901 274.59802 
L 350.366901 274.59802 
L 350.366901 270.765624 
L 359.642144 270.765624 
L 359.642144 266.933228 
L 360.190036 266.933228 
L 360.190036 263.100832 
L 362.347464 263.100832 
L 362.347464 259.268436 
L 362.878497 259.268436 
L 362.878497 255.43604 
L 363.406283 255.43604 
L 363.406283 251.603644 
L 377.902732 251.603644 
L 377.902732 247.771248 
L 387.57089 247.771248 
L 387.57089 243.938851 
L 394.079405 243.938851 
L 394.079405 240.106455 
L 409.873853 240.106455 
L 409.873853 236.274059 
L 461.8 236.274059 
" style="fill:none;stroke:#f5deb3;stroke-linecap:square;stroke-width:1.5;"/>
   </g>
   <g id="line2d_24">
    <path clip-path="url(#p3d2f781ba4)" d="M 381.815915 293.76 
L 381.815915 289.927604 
L 381.815915 289.927604 
L 381.815915 286.095208 
L 382.239959 286.095208 
L 382.239959 282.262812 
L 398.745008 282.262812 
L 398.745008 278.430416 
L 398.745008 278.430416 
L 398.745008 274.59802 
L 399.093666 274.59802 
L 399.093666 270.765624 
L 414.361483 270.765624 
L 414.361483 266.933228 
L 414.361483 266.933228 
L 414.361483 263.100832 
L 414.652521 263.100832 
L 414.652521 259.268436 
L 414.942581 259.268436 
L 414.942581 255.43604 
L 427.580218 255.43604 
L 427.580218 251.603644 
L 427.580218 251.603644 
L 427.580218 247.771248 
L 427.82998 247.771248 
L 427.82998 243.938851 
L 428.079021 243.938851 
L 428.079021 240.106455 
L 449.155565 240.106455 
L 449.155565 236.274059 
L 461.8 236.274059 
" style="fill:none;stroke:#f5deb3;stroke-linecap:square;stroke-width:1.5;"/>
   </g>
   <g id="line2d_25">
    <path clip-path="url(#p3d2f781ba4)" d="M 323.268346 293.76 
L 323.268346 289.927604 
L 337.877004 289.927604 
L 337.877004 286.095208 
L 341.343038 286.095208 
L 341.343038 282.262812 
L 349.752716 282.262812 
L 349.752716 278.430416 
L 351.58231 278.430416 
L 351.58231 274.59802 
L 362.347464 274.59802 
L 362.347464 270.765624 
L 362.878497 270.765624 
L 362.878497 266.933228 
L 363.93086 266.933228 
L 363.93086 263.100832 
L 363.93086 263.100832 
L 363.93086 259.268436 
L 365.485724 259.268436 
L 365.485724 255.43604 
L 369.008362 255.43604 
L 369.008362 251.603644 
L 370.958561 251.603644 
L 370.958561 247.771248 
L 390.310569 247.771248 
L 390.310569 243.938851 
L 391.458603 243.938851 
L 391.458603 240.106455 
L 392.965936 240.106455 
L 392.965936 236.274059 
L 461.8 236.274059 
" style="fill:none;stroke:#f5deb3;stroke-linecap:square;stroke-width:1.5;"/>
   </g>
   <g id="line2d_26">
    <path clip-path="url(#p3d2f781ba4)" d="M 0 0 
" style="fill:none;stroke:#f5deb3;stroke-linecap:square;stroke-width:1.5;"/>
   </g>
   <g id="line2d_27">
    <path clip-path="url(#p3d2f781ba4)" d="M 355.129082 293.76 
L 355.129082 289.927604 
L 373.803631 289.927604 
L 373.803631 286.095208 
L 374.731517 286.095208 
L 374.731517 282.262812 
L 377.902732 282.262812 
L 377.902732 278.430416 
L 387.57089 278.430416 
L 387.57089 274.59802 
L 387.57089 274.59802 
L 387.57089 270.765624 
L 388.755704 270.765624 
L 388.755704 266.933228 
L 394.813815 266.933228 
L 394.813815 263.100832 
L 409.873853 263.100832 
L 409.873853 259.268436 
L 414.361483 259.268436 
L 414.361483 255.43604 
L 421.358234 255.43604 
L 421.358234 251.603644 
L 425.555664 251.603644 
L 425.555664 247.771248 
L 428.079021 247.771248 
L 428.079021 243.938851 
L 442.895343 243.938851 
L 442.895343 240.106455 
L 461.8 240.106455 
" style="fill:none;stroke:#f5deb3;stroke-linecap:square;stroke-width:1.5;"/>
   </g>
   <g id="line2d_28">
    <path clip-path="url(#p3d2f781ba4)" d="M 251.812304 293.76 
L 251.812304 289.927604 
L 284.861716 289.927604 
L 284.861716 286.095208 
L 307.702734 286.095208 
L 307.702734 282.262812 
L 307.702734 282.262812 
L 307.702734 278.430416 
L 309.68656 278.430416 
L 309.68656 274.59802 
L 318.974294 274.59802 
L 318.974294 270.765624 
L 326.556082 270.765624 
L 326.556082 266.933228 
L 326.556082 266.933228 
L 326.556082 263.100832 
L 327.35881 263.100832 
L 327.35881 259.268436 
L 342.019846 259.268436 
L 342.019846 255.43604 
L 342.691388 255.43604 
L 342.691388 251.603644 
L 342.691388 251.603644 
L 342.691388 247.771248 
L 355.706293 247.771248 
L 355.706293 243.938851 
L 375.191746 243.938851 
L 375.191746 240.106455 
L 385.965399 240.106455 
L 385.965399 236.274059 
L 461.8 236.274059 
" style="fill:none;stroke:#f5deb3;stroke-linecap:square;stroke-width:1.5;"/>
   </g>
   <g id="line2d_29">
    <path clip-path="url(#p3d2f781ba4)" d="M 122.021498 293.76 
L 122.021498 289.927604 
L 122.021498 289.927604 
L 122.021498 286.095208 
L 122.021498 286.095208 
L 122.021498 282.262812 
L 122.021498 282.262812 
L 122.021498 278.430416 
L 122.021498 278.430416 
L 122.021498 274.59802 
L 122.021498 274.59802 
L 122.021498 270.765624 
L 122.021498 270.765624 
L 122.021498 266.933228 
L 122.021498 266.933228 
L 122.021498 263.100832 
L 122.021498 263.100832 
L 122.021498 259.268436 
L 122.021498 259.268436 
L 122.021498 255.43604 
L 122.021498 255.43604 
L 122.021498 251.603644 
L 122.021498 251.603644 
L 122.021498 247.771248 
L 122.021498 247.771248 
L 122.021498 243.938851 
L 122.021498 243.938851 
L 122.021498 240.106455 
L 122.021498 240.106455 
L 122.021498 236.274059 
L 162.579351 236.274059 
L 162.579351 232.441663 
L 162.579351 232.441663 
L 162.579351 228.609267 
L 162.579351 228.609267 
L 162.579351 224.776871 
L 167.81081 224.776871 
L 167.81081 220.944475 
L 167.81081 220.944475 
L 167.81081 217.112079 
L 167.81081 217.112079 
L 167.81081 213.279683 
L 167.81081 213.279683 
L 167.81081 209.447287 
L 167.81081 209.447287 
L 167.81081 205.614891 
L 167.81081 205.614891 
L 167.81081 201.782495 
L 267.545312 201.782495 
L 267.545312 197.950099 
L 267.545312 197.950099 
L 267.545312 194.117703 
L 267.545312 194.117703 
L 267.545312 190.285307 
L 269.128708 190.285307 
L 269.128708 186.452911 
L 269.128708 186.452911 
L 269.128708 182.620515 
L 269.128708 182.620515 
L 269.128708 178.788119 
L 461.8 178.788119 
" style="fill:none;stroke:#f5deb3;stroke-linecap:square;stroke-width:1.5;"/>
   </g>
   <g id="line2d_30">
    <path clip-path="url(#p3d2f781ba4)" d="M 243.779286 293.76 
L 243.779286 289.927604 
L 251.812304 289.927604 
L 251.812304 286.095208 
L 289.939218 286.095208 
L 289.939218 282.262812 
L 291.163247 282.262812 
L 291.163247 278.430416 
L 298.163784 278.430416 
L 298.163784 274.59802 
L 302.533966 274.59802 
L 302.533966 270.765624 
L 304.638768 270.765624 
L 304.638768 266.933228 
L 304.638768 266.933228 
L 304.638768 263.100832 
L 305.672226 263.100832 
L 305.672226 259.268436 
L 305.672226 259.268436 
L 305.672226 255.43604 
L 305.672226 255.43604 
L 305.672226 251.603644 
L 309.68656 251.603644 
L 309.68656 247.771248 
L 310.661629 247.771248 
L 310.661629 243.938851 
L 311.625802 243.938851 
L 311.625802 240.106455 
L 311.625802 240.106455 
L 311.625802 236.274059 
L 311.625802 236.274059 
L 311.625802 232.441663 
L 312.579322 232.441663 
L 312.579322 228.609267 
L 313.52242 228.609267 
L 313.52242 224.776871 
L 313.52242 224.776871 
L 313.52242 220.944475 
L 314.455323 220.944475 
L 314.455323 217.112079 
L 316.291406 217.112079 
L 316.291406 213.279683 
L 317.195002 213.279683 
L 317.195002 209.447287 
L 318.089234 209.447287 
L 318.089234 205.614891 
L 322.42646 205.614891 
L 322.42646 201.782495 
L 324.102098 201.782495 
L 324.102098 197.950099 
L 325.745817 197.950099 
L 325.745817 194.117703 
L 325.745817 194.117703 
L 325.745817 190.285307 
L 327.35881 190.285307 
L 327.35881 186.452911 
L 328.15414 186.452911 
L 328.15414 182.620515 
L 335.728529 182.620515 
L 335.728529 178.788119 
L 350.976746 178.788119 
L 350.976746 174.955723 
L 350.976746 174.955723 
L 350.976746 171.123327 
L 350.976746 171.123327 
L 350.976746 167.290931 
L 350.976746 167.290931 
L 350.976746 163.458535 
L 350.976746 163.458535 
L 350.976746 159.626139 
L 350.976746 159.626139 
L 350.976746 155.793743 
L 350.976746 155.793743 
L 350.976746 151.961347 
L 350.976746 151.961347 
L 350.976746 148.12895 
L 350.976746 148.12895 
L 350.976746 144.296554 
L 350.976746 144.296554 
L 350.976746 140.464158 
L 350.976746 140.464158 
L 350.976746 136.631762 
L 350.976746 136.631762 
L 350.976746 132.799366 
L 350.976746 132.799366 
L 350.976746 128.96697 
L 350.976746 128.96697 
L 350.976746 125.134574 
L 350.976746 125.134574 
L 350.976746 121.302178 
L 350.976746 121.302178 
L 350.976746 121.302178 
L 460.8 121.302178 
" style="fill:none;stroke:#f5deb3;stroke-linecap:square;stroke-width:1.5;"/>
   </g>
   <g id="matplotlib.axis_1">
    <g id="xtick_1">
     <g id="line2d_31">
      <path clip-path="url(#p3d2f781ba4)" d="M 260.904141 293.76 
L 260.904141 3.456 
" style="fill:none;stroke:#b0b0b0;stroke-linecap:square;stroke-width:0.8;"/>
     </g>
     <g id="line2d_32">
      <defs>
       <path d="M 0 0 
L 0 3.5 
" id="m456e8ac5ae" style="stroke:#000000;stroke-width:0.8;"/>
      </defs>
      <g>
       <use style="stroke:#000000;stroke-width:0.8;" x="260.904141" xlink:href="#m456e8ac5ae" y="293.76"/>
      </g>
     </g>
     <g id="text_1">
      <!-- 1 -->
      <g transform="translate(254.541641 315.956875)scale(0.2 -0.2)">
       <defs>
        <path d="M 794 531 
L 1825 531 
L 1825 4091 
L 703 3866 
L 703 4441 
L 1819 4666 
L 2450 4666 
L 2450 531 
L 3481 531 
L 3481 0 
L 794 0 
L 794 531 
z
" id="DejaVuSans-31" transform="scale(0.015625)"/>
       </defs>
       <use xlink:href="#DejaVuSans-31"/>
      </g>
     </g>
    </g>
    <g id="xtick_2">
     <g id="line2d_33">
      <path clip-path="url(#p3d2f781ba4)" d="M 122.021498 293.76 
L 122.021498 3.456 
" style="fill:none;stroke:#b0b0b0;stroke-linecap:square;stroke-width:0.8;"/>
     </g>
     <g id="line2d_34">
      <defs>
       <path d="M 0 0 
L 0 2 
" id="m19e2857dce" style="stroke:#000000;stroke-width:0.6;"/>
      </defs>
      <g>
       <use style="stroke:#000000;stroke-width:0.6;" x="122.021498" xlink:href="#m19e2857dce" y="293.76"/>
      </g>
     </g>
    </g>
    <g id="xtick_3">
     <g id="line2d_35">
      <path clip-path="url(#p3d2f781ba4)" d="M 157.010152 293.76 
L 157.010152 3.456 
" style="fill:none;stroke:#b0b0b0;stroke-linecap:square;stroke-width:0.8;"/>
     </g>
     <g id="line2d_36">
      <g>
       <use style="stroke:#000000;stroke-width:0.6;" x="157.010152" xlink:href="#m19e2857dce" y="293.76"/>
      </g>
     </g>
    </g>
    <g id="xtick_4">
     <g id="line2d_37">
      <path clip-path="url(#p3d2f781ba4)" d="M 181.834997 293.76 
L 181.834997 3.456 
" style="fill:none;stroke:#b0b0b0;stroke-linecap:square;stroke-width:0.8;"/>
     </g>
     <g id="line2d_38">
      <g>
       <use style="stroke:#000000;stroke-width:0.6;" x="181.834997" xlink:href="#m19e2857dce" y="293.76"/>
      </g>
     </g>
    </g>
    <g id="xtick_5">
     <g id="line2d_39">
      <path clip-path="url(#p3d2f781ba4)" d="M 201.090642 293.76 
L 201.090642 3.456 
" style="fill:none;stroke:#b0b0b0;stroke-linecap:square;stroke-width:0.8;"/>
     </g>
     <g id="line2d_40">
      <g>
       <use style="stroke:#000000;stroke-width:0.6;" x="201.090642" xlink:href="#m19e2857dce" y="293.76"/>
      </g>
     </g>
    </g>
    <g id="xtick_6">
     <g id="line2d_41">
      <path clip-path="url(#p3d2f781ba4)" d="M 216.82365 293.76 
L 216.82365 3.456 
" style="fill:none;stroke:#b0b0b0;stroke-linecap:square;stroke-width:0.8;"/>
     </g>
     <g id="line2d_42">
      <g>
       <use style="stroke:#000000;stroke-width:0.6;" x="216.82365" xlink:href="#m19e2857dce" y="293.76"/>
      </g>
     </g>
    </g>
    <g id="xtick_7">
     <g id="line2d_43">
      <path clip-path="url(#p3d2f781ba4)" d="M 230.125719 293.76 
L 230.125719 3.456 
" style="fill:none;stroke:#b0b0b0;stroke-linecap:square;stroke-width:0.8;"/>
     </g>
     <g id="line2d_44">
      <g>
       <use style="stroke:#000000;stroke-width:0.6;" x="230.125719" xlink:href="#m19e2857dce" y="293.76"/>
      </g>
     </g>
    </g>
    <g id="xtick_8">
     <g id="line2d_45">
      <path clip-path="url(#p3d2f781ba4)" d="M 241.648495 293.76 
L 241.648495 3.456 
" style="fill:none;stroke:#b0b0b0;stroke-linecap:square;stroke-width:0.8;"/>
     </g>
     <g id="line2d_46">
      <g>
       <use style="stroke:#000000;stroke-width:0.6;" x="241.648495" xlink:href="#m19e2857dce" y="293.76"/>
      </g>
     </g>
    </g>
    <g id="xtick_9">
     <g id="line2d_47">
      <path clip-path="url(#p3d2f781ba4)" d="M 251.812304 293.76 
L 251.812304 3.456 
" style="fill:none;stroke:#b0b0b0;stroke-linecap:square;stroke-width:0.8;"/>
     </g>
     <g id="line2d_48">
      <g>
       <use style="stroke:#000000;stroke-width:0.6;" x="251.812304" xlink:href="#m19e2857dce" y="293.76"/>
      </g>
     </g>
    </g>
    <g id="xtick_10">
     <g id="line2d_49">
      <path clip-path="url(#p3d2f781ba4)" d="M 320.717639 293.76 
L 320.717639 3.456 
" style="fill:none;stroke:#b0b0b0;stroke-linecap:square;stroke-width:0.8;"/>
     </g>
     <g id="line2d_50">
      <g>
       <use style="stroke:#000000;stroke-width:0.6;" x="320.717639" xlink:href="#m19e2857dce" y="293.76"/>
      </g>
     </g>
    </g>
    <g id="xtick_11">
     <g id="line2d_51">
      <path clip-path="url(#p3d2f781ba4)" d="M 355.706293 293.76 
L 355.706293 3.456 
" style="fill:none;stroke:#b0b0b0;stroke-linecap:square;stroke-width:0.8;"/>
     </g>
     <g id="line2d_52">
      <g>
       <use style="stroke:#000000;stroke-width:0.6;" x="355.706293" xlink:href="#m19e2857dce" y="293.76"/>
      </g>
     </g>
    </g>
    <g id="xtick_12">
     <g id="line2d_53">
      <path clip-path="url(#p3d2f781ba4)" d="M 380.531138 293.76 
L 380.531138 3.456 
" style="fill:none;stroke:#b0b0b0;stroke-linecap:square;stroke-width:0.8;"/>
     </g>
     <g id="line2d_54">
      <g>
       <use style="stroke:#000000;stroke-width:0.6;" x="380.531138" xlink:href="#m19e2857dce" y="293.76"/>
      </g>
     </g>
    </g>
    <g id="xtick_13">
     <g id="line2d_55">
      <path clip-path="url(#p3d2f781ba4)" d="M 399.786783 293.76 
L 399.786783 3.456 
" style="fill:none;stroke:#b0b0b0;stroke-linecap:square;stroke-width:0.8;"/>
     </g>
     <g id="line2d_56">
      <g>
       <use style="stroke:#000000;stroke-width:0.6;" x="399.786783" xlink:href="#m19e2857dce" y="293.76"/>
      </g>
     </g>
    </g>
    <g id="xtick_14">
     <g id="line2d_57">
      <path clip-path="url(#p3d2f781ba4)" d="M 415.519791 293.76 
L 415.519791 3.456 
" style="fill:none;stroke:#b0b0b0;stroke-linecap:square;stroke-width:0.8;"/>
     </g>
     <g id="line2d_58">
      <g>
       <use style="stroke:#000000;stroke-width:0.6;" x="415.519791" xlink:href="#m19e2857dce" y="293.76"/>
      </g>
     </g>
    </g>
    <g id="xtick_15">
     <g id="line2d_59">
      <path clip-path="url(#p3d2f781ba4)" d="M 428.82186 293.76 
L 428.82186 3.456 
" style="fill:none;stroke:#b0b0b0;stroke-linecap:square;stroke-width:0.8;"/>
     </g>
     <g id="line2d_60">
      <g>
       <use style="stroke:#000000;stroke-width:0.6;" x="428.82186" xlink:href="#m19e2857dce" y="293.76"/>
      </g>
     </g>
    </g>
    <g id="xtick_16">
     <g id="line2d_61">
      <path clip-path="url(#p3d2f781ba4)" d="M 440.344636 293.76 
L 440.344636 3.456 
" style="fill:none;stroke:#b0b0b0;stroke-linecap:square;stroke-width:0.8;"/>
     </g>
     <g id="line2d_62">
      <g>
       <use style="stroke:#000000;stroke-width:0.6;" x="440.344636" xlink:href="#m19e2857dce" y="293.76"/>
      </g>
     </g>
    </g>
    <g id="xtick_17">
     <g id="line2d_63">
      <path clip-path="url(#p3d2f781ba4)" d="M 450.508445 293.76 
L 450.508445 3.456 
" style="fill:none;stroke:#b0b0b0;stroke-linecap:square;stroke-width:0.8;"/>
     </g>
     <g id="line2d_64">
      <g>
       <use style="stroke:#000000;stroke-width:0.6;" x="450.508445" xlink:href="#m19e2857dce" y="293.76"/>
      </g>
     </g>
    </g>
    <g id="text_2">
     <!-- log10 of FEvals / DIM -->
     <g transform="translate(156.430563 339.313125)scale(0.2 -0.2)">
      <defs>
       <path d="M 603 4863 
L 1178 4863 
L 1178 0 
L 603 0 
L 603 4863 
z
" id="DejaVuSans-6c" transform="scale(0.015625)"/>
       <path d="M 1959 3097 
Q 1497 3097 1228 2736 
Q 959 2375 959 1747 
Q 959 1119 1226 758 
Q 1494 397 1959 397 
Q 2419 397 2687 759 
Q 2956 1122 2956 1747 
Q 2956 2369 2687 2733 
Q 2419 3097 1959 3097 
z
M 1959 3584 
Q 2709 3584 3137 3096 
Q 3566 2609 3566 1747 
Q 3566 888 3137 398 
Q 2709 -91 1959 -91 
Q 1206 -91 779 398 
Q 353 888 353 1747 
Q 353 2609 779 3096 
Q 1206 3584 1959 3584 
z
" id="DejaVuSans-6f" transform="scale(0.015625)"/>
       <path d="M 2906 1791 
Q 2906 2416 2648 2759 
Q 2391 3103 1925 3103 
Q 1463 3103 1205 2759 
Q 947 2416 947 1791 
Q 947 1169 1205 825 
Q 1463 481 1925 481 
Q 2391 481 2648 825 
Q 2906 1169 2906 1791 
z
M 3481 434 
Q 3481 -459 3084 -895 
Q 2688 -1331 1869 -1331 
Q 1566 -1331 1297 -1286 
Q 1028 -1241 775 -1147 
L 775 -588 
Q 1028 -725 1275 -790 
Q 1522 -856 1778 -856 
Q 2344 -856 2625 -561 
Q 2906 -266 2906 331 
L 2906 616 
Q 2728 306 2450 153 
Q 2172 0 1784 0 
Q 1141 0 747 490 
Q 353 981 353 1791 
Q 353 2603 747 3093 
Q 1141 3584 1784 3584 
Q 2172 3584 2450 3431 
Q 2728 3278 2906 2969 
L 2906 3500 
L 3481 3500 
L 3481 434 
z
" id="DejaVuSans-67" transform="scale(0.015625)"/>
       <path d="M 2034 4250 
Q 1547 4250 1301 3770 
Q 1056 3291 1056 2328 
Q 1056 1369 1301 889 
Q 1547 409 2034 409 
Q 2525 409 2770 889 
Q 3016 1369 3016 2328 
Q 3016 3291 2770 3770 
Q 2525 4250 2034 4250 
z
M 2034 4750 
Q 2819 4750 3233 4129 
Q 3647 3509 3647 2328 
Q 3647 1150 3233 529 
Q 2819 -91 2034 -91 
Q 1250 -91 836 529 
Q 422 1150 422 2328 
Q 422 3509 836 4129 
Q 1250 4750 2034 4750 
z
" id="DejaVuSans-30" transform="scale(0.015625)"/>
       <path id="DejaVuSans-20" transform="scale(0.015625)"/>
       <path d="M 2375 4863 
L 2375 4384 
L 1825 4384 
Q 1516 4384 1395 4259 
Q 1275 4134 1275 3809 
L 1275 3500 
L 2222 3500 
L 2222 3053 
L 1275 3053 
L 1275 0 
L 697 0 
L 697 3053 
L 147 3053 
L 147 3500 
L 697 3500 
L 697 3744 
Q 697 4328 969 4595 
Q 1241 4863 1831 4863 
L 2375 4863 
z
" id="DejaVuSans-66" transform="scale(0.015625)"/>
       <path d="M 628 4666 
L 3309 4666 
L 3309 4134 
L 1259 4134 
L 1259 2759 
L 3109 2759 
L 3109 2228 
L 1259 2228 
L 1259 0 
L 628 0 
L 628 4666 
z
" id="DejaVuSans-46" transform="scale(0.015625)"/>
       <path d="M 628 4666 
L 3578 4666 
L 3578 4134 
L 1259 4134 
L 1259 2753 
L 3481 2753 
L 3481 2222 
L 1259 2222 
L 1259 531 
L 3634 531 
L 3634 0 
L 628 0 
L 628 4666 
z
" id="DejaVuSans-45" transform="scale(0.015625)"/>
       <path d="M 191 3500 
L 800 3500 
L 1894 563 
L 2988 3500 
L 3597 3500 
L 2284 0 
L 1503 0 
L 191 3500 
z
" id="DejaVuSans-76" transform="scale(0.015625)"/>
       <path d="M 2194 1759 
Q 1497 1759 1228 1600 
Q 959 1441 959 1056 
Q 959 750 1161 570 
Q 1363 391 1709 391 
Q 2188 391 2477 730 
Q 2766 1069 2766 1631 
L 2766 1759 
L 2194 1759 
z
M 3341 1997 
L 3341 0 
L 2766 0 
L 2766 531 
Q 2569 213 2275 61 
Q 1981 -91 1556 -91 
Q 1019 -91 701 211 
Q 384 513 384 1019 
Q 384 1609 779 1909 
Q 1175 2209 1959 2209 
L 2766 2209 
L 2766 2266 
Q 2766 2663 2505 2880 
Q 2244 3097 1772 3097 
Q 1472 3097 1187 3025 
Q 903 2953 641 2809 
L 641 3341 
Q 956 3463 1253 3523 
Q 1550 3584 1831 3584 
Q 2591 3584 2966 3190 
Q 3341 2797 3341 1997 
z
" id="DejaVuSans-61" transform="scale(0.015625)"/>
       <path d="M 2834 3397 
L 2834 2853 
Q 2591 2978 2328 3040 
Q 2066 3103 1784 3103 
Q 1356 3103 1142 2972 
Q 928 2841 928 2578 
Q 928 2378 1081 2264 
Q 1234 2150 1697 2047 
L 1894 2003 
Q 2506 1872 2764 1633 
Q 3022 1394 3022 966 
Q 3022 478 2636 193 
Q 2250 -91 1575 -91 
Q 1294 -91 989 -36 
Q 684 19 347 128 
L 347 722 
Q 666 556 975 473 
Q 1284 391 1588 391 
Q 1994 391 2212 530 
Q 2431 669 2431 922 
Q 2431 1156 2273 1281 
Q 2116 1406 1581 1522 
L 1381 1569 
Q 847 1681 609 1914 
Q 372 2147 372 2553 
Q 372 3047 722 3315 
Q 1072 3584 1716 3584 
Q 2034 3584 2315 3537 
Q 2597 3491 2834 3397 
z
" id="DejaVuSans-73" transform="scale(0.015625)"/>
       <path d="M 1625 4666 
L 2156 4666 
L 531 -594 
L 0 -594 
L 1625 4666 
z
" id="DejaVuSans-2f" transform="scale(0.015625)"/>
       <path d="M 1259 4147 
L 1259 519 
L 2022 519 
Q 2988 519 3436 956 
Q 3884 1394 3884 2338 
Q 3884 3275 3436 3711 
Q 2988 4147 2022 4147 
L 1259 4147 
z
M 628 4666 
L 1925 4666 
Q 3281 4666 3915 4102 
Q 4550 3538 4550 2338 
Q 4550 1131 3912 565 
Q 3275 0 1925 0 
L 628 0 
L 628 4666 
z
" id="DejaVuSans-44" transform="scale(0.015625)"/>
       <path d="M 628 4666 
L 1259 4666 
L 1259 0 
L 628 0 
L 628 4666 
z
" id="DejaVuSans-49" transform="scale(0.015625)"/>
       <path d="M 628 4666 
L 1569 4666 
L 2759 1491 
L 3956 4666 
L 4897 4666 
L 4897 0 
L 4281 0 
L 4281 4097 
L 3078 897 
L 2444 897 
L 1241 4097 
L 1241 0 
L 628 0 
L 628 4666 
z
" id="DejaVuSans-4d" transform="scale(0.015625)"/>
      </defs>
      <use xlink:href="#DejaVuSans-6c"/>
      <use x="27.783203" xlink:href="#DejaVuSans-6f"/>
      <use x="88.964844" xlink:href="#DejaVuSans-67"/>
      <use x="152.441406" xlink:href="#DejaVuSans-31"/>
      <use x="216.064453" xlink:href="#DejaVuSans-30"/>
      <use x="279.6875" xlink:href="#DejaVuSans-20"/>
      <use x="311.474609" xlink:href="#DejaVuSans-6f"/>
      <use x="372.65625" xlink:href="#DejaVuSans-66"/>
      <use x="407.861328" xlink:href="#DejaVuSans-20"/>
      <use x="439.648438" xlink:href="#DejaVuSans-46"/>
      <use x="497.167969" xlink:href="#DejaVuSans-45"/>
      <use x="560.351562" xlink:href="#DejaVuSans-76"/>
      <use x="619.53125" xlink:href="#DejaVuSans-61"/>
      <use x="680.810547" xlink:href="#DejaVuSans-6c"/>
      <use x="708.59375" xlink:href="#DejaVuSans-73"/>
      <use x="760.693359" xlink:href="#DejaVuSans-20"/>
      <use x="792.480469" xlink:href="#DejaVuSans-2f"/>
      <use x="826.171875" xlink:href="#DejaVuSans-20"/>
      <use x="857.958984" xlink:href="#DejaVuSans-44"/>
      <use x="934.960938" xlink:href="#DejaVuSans-49"/>
      <use x="964.453125" xlink:href="#DejaVuSans-4d"/>
     </g>
    </g>
   </g>
   <g id="matplotlib.axis_2">
    <g id="ytick_1">
     <g id="line2d_65">
      <path clip-path="url(#p3d2f781ba4)" d="M 62.208 293.76 
L 460.8 293.76 
" style="fill:none;stroke:#b0b0b0;stroke-linecap:square;stroke-width:0.8;"/>
     </g>
     <g id="line2d_66">
      <defs>
       <path d="M 0 0 
L -3.5 0 
" id="m540734707b" style="stroke:#000000;stroke-width:0.8;"/>
      </defs>
      <g>
       <use style="stroke:#000000;stroke-width:0.8;" x="62.208" xlink:href="#m540734707b" y="293.76"/>
      </g>
     </g>
     <g id="text_3">
      <!-- 0.0 -->
      <g transform="translate(29.763 299.83875)scale(0.16 -0.16)">
       <defs>
        <path d="M 684 794 
L 1344 794 
L 1344 0 
L 684 0 
L 684 794 
z
" id="DejaVuSans-2e" transform="scale(0.015625)"/>
       </defs>
       <use xlink:href="#DejaVuSans-30"/>
       <use x="63.623047" xlink:href="#DejaVuSans-2e"/>
       <use x="95.410156" xlink:href="#DejaVuSans-30"/>
      </g>
     </g>
    </g>
    <g id="ytick_2">
     <g id="line2d_67">
      <path clip-path="url(#p3d2f781ba4)" d="M 62.208 236.274059 
L 460.8 236.274059 
" style="fill:none;stroke:#b0b0b0;stroke-linecap:square;stroke-width:0.8;"/>
     </g>
     <g id="line2d_68">
      <g>
       <use style="stroke:#000000;stroke-width:0.8;" x="62.208" xlink:href="#m540734707b" y="236.274059"/>
      </g>
     </g>
     <g id="text_4">
      <!-- 0.2 -->
      <g transform="translate(29.763 242.352809)scale(0.16 -0.16)">
       <defs>
        <path d="M 1228 531 
L 3431 531 
L 3431 0 
L 469 0 
L 469 531 
Q 828 903 1448 1529 
Q 2069 2156 2228 2338 
Q 2531 2678 2651 2914 
Q 2772 3150 2772 3378 
Q 2772 3750 2511 3984 
Q 2250 4219 1831 4219 
Q 1534 4219 1204 4116 
Q 875 4013 500 3803 
L 500 4441 
Q 881 4594 1212 4672 
Q 1544 4750 1819 4750 
Q 2544 4750 2975 4387 
Q 3406 4025 3406 3419 
Q 3406 3131 3298 2873 
Q 3191 2616 2906 2266 
Q 2828 2175 2409 1742 
Q 1991 1309 1228 531 
z
" id="DejaVuSans-32" transform="scale(0.015625)"/>
       </defs>
       <use xlink:href="#DejaVuSans-30"/>
       <use x="63.623047" xlink:href="#DejaVuSans-2e"/>
       <use x="95.410156" xlink:href="#DejaVuSans-32"/>
      </g>
     </g>
    </g>
    <g id="ytick_3">
     <g id="line2d_69">
      <path clip-path="url(#p3d2f781ba4)" d="M 62.208 178.788119 
L 460.8 178.788119 
" style="fill:none;stroke:#b0b0b0;stroke-linecap:square;stroke-width:0.8;"/>
     </g>
     <g id="line2d_70">
      <g>
       <use style="stroke:#000000;stroke-width:0.8;" x="62.208" xlink:href="#m540734707b" y="178.788119"/>
      </g>
     </g>
     <g id="text_5">
      <!-- 0.4 -->
      <g transform="translate(29.763 184.866869)scale(0.16 -0.16)">
       <defs>
        <path d="M 2419 4116 
L 825 1625 
L 2419 1625 
L 2419 4116 
z
M 2253 4666 
L 3047 4666 
L 3047 1625 
L 3713 1625 
L 3713 1100 
L 3047 1100 
L 3047 0 
L 2419 0 
L 2419 1100 
L 313 1100 
L 313 1709 
L 2253 4666 
z
" id="DejaVuSans-34" transform="scale(0.015625)"/>
       </defs>
       <use xlink:href="#DejaVuSans-30"/>
       <use x="63.623047" xlink:href="#DejaVuSans-2e"/>
       <use x="95.410156" xlink:href="#DejaVuSans-34"/>
      </g>
     </g>
    </g>
    <g id="ytick_4">
     <g id="line2d_71">
      <path clip-path="url(#p3d2f781ba4)" d="M 62.208 121.302178 
L 460.8 121.302178 
" style="fill:none;stroke:#b0b0b0;stroke-linecap:square;stroke-width:0.8;"/>
     </g>
     <g id="line2d_72">
      <g>
       <use style="stroke:#000000;stroke-width:0.8;" x="62.208" xlink:href="#m540734707b" y="121.302178"/>
      </g>
     </g>
     <g id="text_6">
      <!-- 0.6 -->
      <g transform="translate(29.763 127.380928)scale(0.16 -0.16)">
       <defs>
        <path d="M 2113 2584 
Q 1688 2584 1439 2293 
Q 1191 2003 1191 1497 
Q 1191 994 1439 701 
Q 1688 409 2113 409 
Q 2538 409 2786 701 
Q 3034 994 3034 1497 
Q 3034 2003 2786 2293 
Q 2538 2584 2113 2584 
z
M 3366 4563 
L 3366 3988 
Q 3128 4100 2886 4159 
Q 2644 4219 2406 4219 
Q 1781 4219 1451 3797 
Q 1122 3375 1075 2522 
Q 1259 2794 1537 2939 
Q 1816 3084 2150 3084 
Q 2853 3084 3261 2657 
Q 3669 2231 3669 1497 
Q 3669 778 3244 343 
Q 2819 -91 2113 -91 
Q 1303 -91 875 529 
Q 447 1150 447 2328 
Q 447 3434 972 4092 
Q 1497 4750 2381 4750 
Q 2619 4750 2861 4703 
Q 3103 4656 3366 4563 
z
" id="DejaVuSans-36" transform="scale(0.015625)"/>
       </defs>
       <use xlink:href="#DejaVuSans-30"/>
       <use x="63.623047" xlink:href="#DejaVuSans-2e"/>
       <use x="95.410156" xlink:href="#DejaVuSans-36"/>
      </g>
     </g>
    </g>
    <g id="ytick_5">
     <g id="line2d_73">
      <path clip-path="url(#p3d2f781ba4)" d="M 62.208 63.816238 
L 460.8 63.816238 
" style="fill:none;stroke:#b0b0b0;stroke-linecap:square;stroke-width:0.8;"/>
     </g>
     <g id="line2d_74">
      <g>
       <use style="stroke:#000000;stroke-width:0.8;" x="62.208" xlink:href="#m540734707b" y="63.816238"/>
      </g>
     </g>
     <g id="text_7">
      <!-- 0.8 -->
      <g transform="translate(29.763 69.894988)scale(0.16 -0.16)">
       <defs>
        <path d="M 2034 2216 
Q 1584 2216 1326 1975 
Q 1069 1734 1069 1313 
Q 1069 891 1326 650 
Q 1584 409 2034 409 
Q 2484 409 2743 651 
Q 3003 894 3003 1313 
Q 3003 1734 2745 1975 
Q 2488 2216 2034 2216 
z
M 1403 2484 
Q 997 2584 770 2862 
Q 544 3141 544 3541 
Q 544 4100 942 4425 
Q 1341 4750 2034 4750 
Q 2731 4750 3128 4425 
Q 3525 4100 3525 3541 
Q 3525 3141 3298 2862 
Q 3072 2584 2669 2484 
Q 3125 2378 3379 2068 
Q 3634 1759 3634 1313 
Q 3634 634 3220 271 
Q 2806 -91 2034 -91 
Q 1263 -91 848 271 
Q 434 634 434 1313 
Q 434 1759 690 2068 
Q 947 2378 1403 2484 
z
M 1172 3481 
Q 1172 3119 1398 2916 
Q 1625 2713 2034 2713 
Q 2441 2713 2670 2916 
Q 2900 3119 2900 3481 
Q 2900 3844 2670 4047 
Q 2441 4250 2034 4250 
Q 1625 4250 1398 4047 
Q 1172 3844 1172 3481 
z
" id="DejaVuSans-38" transform="scale(0.015625)"/>
       </defs>
       <use xlink:href="#DejaVuSans-30"/>
       <use x="63.623047" xlink:href="#DejaVuSans-2e"/>
       <use x="95.410156" xlink:href="#DejaVuSans-38"/>
      </g>
     </g>
    </g>
    <g id="ytick_6">
     <g id="line2d_75">
      <path clip-path="url(#p3d2f781ba4)" d="M 62.208 6.330297 
L 460.8 6.330297 
" style="fill:none;stroke:#b0b0b0;stroke-linecap:square;stroke-width:0.8;"/>
     </g>
     <g id="line2d_76">
      <g>
       <use style="stroke:#000000;stroke-width:0.8;" x="62.208" xlink:href="#m540734707b" y="6.330297"/>
      </g>
     </g>
     <g id="text_8">
      <!-- 1.0 -->
      <g transform="translate(29.763 12.409047)scale(0.16 -0.16)">
       <use xlink:href="#DejaVuSans-31"/>
       <use x="63.623047" xlink:href="#DejaVuSans-2e"/>
       <use x="95.410156" xlink:href="#DejaVuSans-30"/>
      </g>
     </g>
    </g>
    <g id="text_9">
     <!-- proportion of trials -->
     <g transform="translate(21.603625 241.61425)rotate(-90)scale(0.2 -0.2)">
      <defs>
       <path d="M 1159 525 
L 1159 -1331 
L 581 -1331 
L 581 3500 
L 1159 3500 
L 1159 2969 
Q 1341 3281 1617 3432 
Q 1894 3584 2278 3584 
Q 2916 3584 3314 3078 
Q 3713 2572 3713 1747 
Q 3713 922 3314 415 
Q 2916 -91 2278 -91 
Q 1894 -91 1617 61 
Q 1341 213 1159 525 
z
M 3116 1747 
Q 3116 2381 2855 2742 
Q 2594 3103 2138 3103 
Q 1681 3103 1420 2742 
Q 1159 2381 1159 1747 
Q 1159 1113 1420 752 
Q 1681 391 2138 391 
Q 2594 391 2855 752 
Q 3116 1113 3116 1747 
z
" id="DejaVuSans-70" transform="scale(0.015625)"/>
       <path d="M 2631 2963 
Q 2534 3019 2420 3045 
Q 2306 3072 2169 3072 
Q 1681 3072 1420 2755 
Q 1159 2438 1159 1844 
L 1159 0 
L 581 0 
L 581 3500 
L 1159 3500 
L 1159 2956 
Q 1341 3275 1631 3429 
Q 1922 3584 2338 3584 
Q 2397 3584 2469 3576 
Q 2541 3569 2628 3553 
L 2631 2963 
z
" id="DejaVuSans-72" transform="scale(0.015625)"/>
       <path d="M 1172 4494 
L 1172 3500 
L 2356 3500 
L 2356 3053 
L 1172 3053 
L 1172 1153 
Q 1172 725 1289 603 
Q 1406 481 1766 481 
L 2356 481 
L 2356 0 
L 1766 0 
Q 1100 0 847 248 
Q 594 497 594 1153 
L 594 3053 
L 172 3053 
L 172 3500 
L 594 3500 
L 594 4494 
L 1172 4494 
z
" id="DejaVuSans-74" transform="scale(0.015625)"/>
       <path d="M 603 3500 
L 1178 3500 
L 1178 0 
L 603 0 
L 603 3500 
z
M 603 4863 
L 1178 4863 
L 1178 4134 
L 603 4134 
L 603 4863 
z
" id="DejaVuSans-69" transform="scale(0.015625)"/>
       <path d="M 3513 2113 
L 3513 0 
L 2938 0 
L 2938 2094 
Q 2938 2591 2744 2837 
Q 2550 3084 2163 3084 
Q 1697 3084 1428 2787 
Q 1159 2491 1159 1978 
L 1159 0 
L 581 0 
L 581 3500 
L 1159 3500 
L 1159 2956 
Q 1366 3272 1645 3428 
Q 1925 3584 2291 3584 
Q 2894 3584 3203 3211 
Q 3513 2838 3513 2113 
z
" id="DejaVuSans-6e" transform="scale(0.015625)"/>
      </defs>
      <use xlink:href="#DejaVuSans-70"/>
      <use x="63.476562" xlink:href="#DejaVuSans-72"/>
      <use x="102.339844" xlink:href="#DejaVuSans-6f"/>
      <use x="163.521484" xlink:href="#DejaVuSans-70"/>
      <use x="226.998047" xlink:href="#DejaVuSans-6f"/>
      <use x="288.179688" xlink:href="#DejaVuSans-72"/>
      <use x="329.292969" xlink:href="#DejaVuSans-74"/>
      <use x="368.501953" xlink:href="#DejaVuSans-69"/>
      <use x="396.285156" xlink:href="#DejaVuSans-6f"/>
      <use x="457.466797" xlink:href="#DejaVuSans-6e"/>
      <use x="520.845703" xlink:href="#DejaVuSans-20"/>
      <use x="552.632812" xlink:href="#DejaVuSans-6f"/>
      <use x="613.814453" xlink:href="#DejaVuSans-66"/>
      <use x="649.019531" xlink:href="#DejaVuSans-20"/>
      <use x="680.806641" xlink:href="#DejaVuSans-74"/>
      <use x="720.015625" xlink:href="#DejaVuSans-72"/>
      <use x="761.128906" xlink:href="#DejaVuSans-69"/>
      <use x="788.912109" xlink:href="#DejaVuSans-61"/>
      <use x="850.191406" xlink:href="#DejaVuSans-6c"/>
      <use x="877.974609" xlink:href="#DejaVuSans-73"/>
     </g>
    </g>
   </g>
   <g id="line2d_77">
    <path clip-path="url(#p3d2f781ba4)" d="M -1 289.927604 
L 62.208 289.927604 
L 62.208 286.095208 
L 77.941008 286.095208 
L 77.941008 282.262812 
L 102.765853 282.262812 
L 102.765853 278.430416 
L 112.929662 278.430416 
L 112.929662 274.59802 
L 122.021498 274.59802 
L 122.021498 270.765624 
L 219.653171 270.765624 
L 219.653171 266.933228 
L 243.779286 266.933228 
L 243.779286 263.100832 
L 253.708922 263.100832 
L 253.708922 259.268436 
L 319.850369 259.268436 
L 319.850369 255.43604 
L 322.42646 255.43604 
L 322.42646 251.603644 
L 358.535813 251.603644 
L 358.535813 247.771248 
L 385.559315 247.771248 
L 385.559315 243.938851 
L 404.161226 243.938851 
L 404.161226 240.106455 
L 404.161226 240.106455 
L 404.161226 240.106455 
L 460.8 240.106455 
" style="fill:none;stroke:#000000;stroke-linecap:square;stroke-width:1.5;"/>
   </g>
   <g id="line2d_78">
    <path clip-path="url(#p3d2f781ba4)" style="fill:none;stroke:#000000;stroke-linecap:square;stroke-width:1.5;"/>
   </g>
   <g id="line2d_79"/>
   <g id="line2d_80"/>
   <g id="line2d_81"/>
   <g id="line2d_82">
    <path clip-path="url(#p3d2f781ba4)" d="M 460.8 293.76 
L 460.8 3.456 
" style="fill:none;stroke:#000000;stroke-linecap:square;stroke-width:1.5;"/>
   </g>
   <g id="patch_3">
    <path d="M 62.208 293.76 
L 62.208 3.456 
" style="fill:none;stroke:#000000;stroke-linecap:square;stroke-linejoin:miter;stroke-width:0.8;"/>
   </g>
   <g id="patch_4">
    <path d="M 460.8 293.76 
L 460.8 3.456 
" style="fill:none;stroke:#000000;stroke-linecap:square;stroke-linejoin:miter;stroke-width:0.8;"/>
   </g>
   <g id="patch_5">
    <path d="M 62.208 293.76 
L 460.8 293.76 
" style="fill:none;stroke:#000000;stroke-linecap:square;stroke-linejoin:miter;stroke-width:0.8;"/>
   </g>
   <g id="patch_6">
    <path d="M 62.208 3.456 
L 460.8 3.456 
" style="fill:none;stroke:#000000;stroke-linecap:square;stroke-linejoin:miter;stroke-width:0.8;"/>
   </g>
   <g id="text_10">
    <!-- {f1-f5}, 5-D -->
    <g transform="translate(201.379 24.458955)scale(0.2 -0.2)">
     <defs>
      <path d="M 3272 -594 
L 3272 -1044 
L 3078 -1044 
Q 2300 -1044 2036 -812 
Q 1772 -581 1772 109 
L 1772 856 
Q 1772 1328 1603 1509 
Q 1434 1691 991 1691 
L 800 1691 
L 800 2138 
L 991 2138 
Q 1438 2138 1605 2317 
Q 1772 2497 1772 2963 
L 1772 3713 
Q 1772 4403 2036 4633 
Q 2300 4863 3078 4863 
L 3272 4863 
L 3272 4416 
L 3059 4416 
Q 2619 4416 2484 4278 
Q 2350 4141 2350 3700 
L 2350 2925 
Q 2350 2434 2208 2212 
Q 2066 1991 1722 1913 
Q 2069 1828 2209 1606 
Q 2350 1384 2350 897 
L 2350 122 
Q 2350 -319 2484 -456 
Q 2619 -594 3059 -594 
L 3272 -594 
z
" id="DejaVuSans-7b" transform="scale(0.015625)"/>
      <path d="M 313 2009 
L 1997 2009 
L 1997 1497 
L 313 1497 
L 313 2009 
z
" id="DejaVuSans-2d" transform="scale(0.015625)"/>
      <path d="M 691 4666 
L 3169 4666 
L 3169 4134 
L 1269 4134 
L 1269 2991 
Q 1406 3038 1543 3061 
Q 1681 3084 1819 3084 
Q 2600 3084 3056 2656 
Q 3513 2228 3513 1497 
Q 3513 744 3044 326 
Q 2575 -91 1722 -91 
Q 1428 -91 1123 -41 
Q 819 9 494 109 
L 494 744 
Q 775 591 1075 516 
Q 1375 441 1709 441 
Q 2250 441 2565 725 
Q 2881 1009 2881 1497 
Q 2881 1984 2565 2268 
Q 2250 2553 1709 2553 
Q 1456 2553 1204 2497 
Q 953 2441 691 2322 
L 691 4666 
z
" id="DejaVuSans-35" transform="scale(0.015625)"/>
      <path d="M 800 -594 
L 1019 -594 
Q 1456 -594 1589 -459 
Q 1722 -325 1722 122 
L 1722 897 
Q 1722 1384 1862 1606 
Q 2003 1828 2350 1913 
Q 2003 1991 1862 2212 
Q 1722 2434 1722 2925 
L 1722 3700 
Q 1722 4144 1589 4280 
Q 1456 4416 1019 4416 
L 800 4416 
L 800 4863 
L 997 4863 
Q 1775 4863 2036 4633 
Q 2297 4403 2297 3713 
L 2297 2963 
Q 2297 2497 2465 2317 
Q 2634 2138 3078 2138 
L 3272 2138 
L 3272 1691 
L 3078 1691 
Q 2634 1691 2465 1509 
Q 2297 1328 2297 856 
L 2297 109 
Q 2297 -581 2036 -812 
Q 1775 -1044 997 -1044 
L 800 -1044 
L 800 -594 
z
" id="DejaVuSans-7d" transform="scale(0.015625)"/>
      <path d="M 750 794 
L 1409 794 
L 1409 256 
L 897 -744 
L 494 -744 
L 750 256 
L 750 794 
z
" id="DejaVuSans-2c" transform="scale(0.015625)"/>
     </defs>
     <use xlink:href="#DejaVuSans-7b"/>
     <use x="63.623047" xlink:href="#DejaVuSans-66"/>
     <use x="98.828125" xlink:href="#DejaVuSans-31"/>
     <use x="162.451172" xlink:href="#DejaVuSans-2d"/>
     <use x="198.535156" xlink:href="#DejaVuSans-66"/>
     <use x="233.740234" xlink:href="#DejaVuSans-35"/>
     <use x="297.363281" xlink:href="#DejaVuSans-7d"/>
     <use x="360.986328" xlink:href="#DejaVuSans-2c"/>
     <use x="392.773438" xlink:href="#DejaVuSans-20"/>
     <use x="424.560547" xlink:href="#DejaVuSans-35"/>
     <use x="488.183594" xlink:href="#DejaVuSans-2d"/>
     <use x="524.267578" xlink:href="#DejaVuSans-44"/>
    </g>
   </g>
   <g id="text_11">
    <!-- absolute targets -->
    <g transform="translate(62.208 609.932673)scale(0.14 -0.14)">
     <defs>
      <path d="M 3116 1747 
Q 3116 2381 2855 2742 
Q 2594 3103 2138 3103 
Q 1681 3103 1420 2742 
Q 1159 2381 1159 1747 
Q 1159 1113 1420 752 
Q 1681 391 2138 391 
Q 2594 391 2855 752 
Q 3116 1113 3116 1747 
z
M 1159 2969 
Q 1341 3281 1617 3432 
Q 1894 3584 2278 3584 
Q 2916 3584 3314 3078 
Q 3713 2572 3713 1747 
Q 3713 922 3314 415 
Q 2916 -91 2278 -91 
Q 1894 -91 1617 61 
Q 1341 213 1159 525 
L 1159 0 
L 581 0 
L 581 4863 
L 1159 4863 
L 1159 2969 
z
" id="DejaVuSans-62" transform="scale(0.015625)"/>
      <path d="M 544 1381 
L 544 3500 
L 1119 3500 
L 1119 1403 
Q 1119 906 1312 657 
Q 1506 409 1894 409 
Q 2359 409 2629 706 
Q 2900 1003 2900 1516 
L 2900 3500 
L 3475 3500 
L 3475 0 
L 2900 0 
L 2900 538 
Q 2691 219 2414 64 
Q 2138 -91 1772 -91 
Q 1169 -91 856 284 
Q 544 659 544 1381 
z
M 1991 3584 
L 1991 3584 
z
" id="DejaVuSans-75" transform="scale(0.015625)"/>
      <path d="M 3597 1894 
L 3597 1613 
L 953 1613 
Q 991 1019 1311 708 
Q 1631 397 2203 397 
Q 2534 397 2845 478 
Q 3156 559 3463 722 
L 3463 178 
Q 3153 47 2828 -22 
Q 2503 -91 2169 -91 
Q 1331 -91 842 396 
Q 353 884 353 1716 
Q 353 2575 817 3079 
Q 1281 3584 2069 3584 
Q 2775 3584 3186 3129 
Q 3597 2675 3597 1894 
z
M 3022 2063 
Q 3016 2534 2758 2815 
Q 2500 3097 2075 3097 
Q 1594 3097 1305 2825 
Q 1016 2553 972 2059 
L 3022 2063 
z
" id="DejaVuSans-65" transform="scale(0.015625)"/>
     </defs>
     <use xlink:href="#DejaVuSans-61"/>
     <use x="61.279297" xlink:href="#DejaVuSans-62"/>
     <use x="124.755859" xlink:href="#DejaVuSans-73"/>
     <use x="176.855469" xlink:href="#DejaVuSans-6f"/>
     <use x="238.037109" xlink:href="#DejaVuSans-6c"/>
     <use x="265.820312" xlink:href="#DejaVuSans-75"/>
     <use x="329.199219" xlink:href="#DejaVuSans-74"/>
     <use x="368.408203" xlink:href="#DejaVuSans-65"/>
     <use x="429.931641" xlink:href="#DejaVuSans-20"/>
     <use x="461.71875" xlink:href="#DejaVuSans-74"/>
     <use x="500.927734" xlink:href="#DejaVuSans-61"/>
     <use x="562.207031" xlink:href="#DejaVuSans-72"/>
     <use x="601.570312" xlink:href="#DejaVuSans-67"/>
     <use x="665.046875" xlink:href="#DejaVuSans-65"/>
     <use x="726.570312" xlink:href="#DejaVuSans-74"/>
     <use x="765.779297" xlink:href="#DejaVuSans-73"/>
    </g>
   </g>
   <g id="text_12">
    <!-- v2.4 -->
    <g style="fill:#808080;" transform="translate(250.593063 288.777272)scale(0.1 -0.1)">
     <use xlink:href="#DejaVuSans-76"/>
     <use x="59.179688" xlink:href="#DejaVuSans-32"/>
     <use x="122.802734" xlink:href="#DejaVuSans-2e"/>
     <use x="154.589844" xlink:href="#DejaVuSans-34"/>
    </g>
   </g>
   <g id="legend_1">
    <g id="patch_7">
     <path d="M 76.208 136.881 
L 205.429875 136.881 
Q 209.429875 136.881 209.429875 132.881 
L 209.429875 17.456 
Q 209.429875 13.456 205.429875 13.456 
L 76.208 13.456 
Q 72.208 13.456 72.208 17.456 
L 72.208 132.881 
Q 72.208 136.881 76.208 136.881 
z
" style="fill:#ffffff;opacity:0.2;stroke:#cccccc;stroke-linejoin:miter;"/>
    </g>
    <g id="line2d_83">
     <path d="M 80.208 29.652875 
L 120.208 29.652875 
" style="fill:none;stroke:#000000;stroke-linecap:square;stroke-width:1.5;"/>
    </g>
    <g id="line2d_84"/>
    <g id="text_13">
     <!-- 1: 1/5 -->
     <g transform="translate(136.208 36.652875)scale(0.2 -0.2)">
      <defs>
       <path d="M 750 794 
L 1409 794 
L 1409 0 
L 750 0 
L 750 794 
z
M 750 3309 
L 1409 3309 
L 1409 2516 
L 750 2516 
L 750 3309 
z
" id="DejaVuSans-3a" transform="scale(0.015625)"/>
      </defs>
      <use xlink:href="#DejaVuSans-31"/>
      <use x="63.623047" xlink:href="#DejaVuSans-3a"/>
      <use x="97.314453" xlink:href="#DejaVuSans-20"/>
      <use x="129.101562" xlink:href="#DejaVuSans-31"/>
      <use x="192.724609" xlink:href="#DejaVuSans-2f"/>
      <use x="226.416016" xlink:href="#DejaVuSans-35"/>
     </g>
    </g>
    <g id="line2d_85">
     <path d="M 80.208 59.009125 
L 120.208 59.009125 
" style="fill:none;stroke:#00bfbf;stroke-linecap:square;stroke-width:1.5;"/>
    </g>
    <g id="line2d_86"/>
    <g id="text_14">
     <!-- -1: 0/5 -->
     <g transform="translate(136.208 66.009125)scale(0.2 -0.2)">
      <use xlink:href="#DejaVuSans-2d"/>
      <use x="36.083984" xlink:href="#DejaVuSans-31"/>
      <use x="99.707031" xlink:href="#DejaVuSans-3a"/>
      <use x="133.398438" xlink:href="#DejaVuSans-20"/>
      <use x="165.185547" xlink:href="#DejaVuSans-30"/>
      <use x="228.808594" xlink:href="#DejaVuSans-2f"/>
      <use x="262.5" xlink:href="#DejaVuSans-35"/>
     </g>
    </g>
    <g id="line2d_87">
     <path d="M 80.208 88.365375 
L 120.208 88.365375 
" style="fill:none;stroke:#bf00bf;stroke-linecap:square;stroke-width:1.5;"/>
    </g>
    <g id="line2d_88"/>
    <g id="text_15">
     <!-- -4: 0/5 -->
     <g transform="translate(136.208 95.365375)scale(0.2 -0.2)">
      <use xlink:href="#DejaVuSans-2d"/>
      <use x="36.083984" xlink:href="#DejaVuSans-34"/>
      <use x="99.707031" xlink:href="#DejaVuSans-3a"/>
      <use x="133.398438" xlink:href="#DejaVuSans-20"/>
      <use x="165.185547" xlink:href="#DejaVuSans-30"/>
      <use x="228.808594" xlink:href="#DejaVuSans-2f"/>
      <use x="262.5" xlink:href="#DejaVuSans-35"/>
     </g>
    </g>
    <g id="line2d_89">
     <path d="M 80.208 117.721625 
L 120.208 117.721625 
" style="fill:none;stroke:#ff0000;stroke-linecap:square;stroke-width:3;"/>
    </g>
    <g id="line2d_90"/>
    <g id="text_16">
     <!-- -8: 0/5 -->
     <g transform="translate(136.208 124.721625)scale(0.2 -0.2)">
      <use xlink:href="#DejaVuSans-2d"/>
      <use x="36.083984" xlink:href="#DejaVuSans-38"/>
      <use x="99.707031" xlink:href="#DejaVuSans-3a"/>
      <use x="133.398438" xlink:href="#DejaVuSans-20"/>
      <use x="165.185547" xlink:href="#DejaVuSans-30"/>
      <use x="228.808594" xlink:href="#DejaVuSans-2f"/>
      <use x="262.5" xlink:href="#DejaVuSans-35"/>
     </g>
    </g>
   </g>
  </g>
 </g>
 <defs>
  <clipPath id="p3d2f781ba4">
   <rect height="290.304" width="398.592" x="62.208" y="3.456"/>
  </clipPath>
 </defs>
</svg>
