<?xml version="1.0" encoding="utf-8" standalone="no"?>
<!DOCTYPE svg PUBLIC "-//W3C//DTD SVG 1.1//EN"
  "http://www.w3.org/Graphics/SVG/1.1/DTD/svg11.dtd">
<svg height="345.6pt" version="1.1" viewBox="0 0 460.8 345.6" width="460.8pt" xmlns="http://www.w3.org/2000/svg" xmlns:xlink="http://www.w3.org/1999/xlink">
 <metadata>
  <rdf:RDF xmlns:cc="http://creativecommons.org/ns#" xmlns:dc="http://purl.org/dc/elements/1.1/" xmlns:rdf="http://www.w3.org/1999/02/22-rdf-syntax-ns#">
   <cc:Work>
    <dc:type rdf:resource="http://purl.org/dc/dcmitype/StillImage"/>
    <dc:date>2021-06-14T12:33:44.901707</dc:date>
    <dc:format>image/svg+xml</dc:format>
    <dc:creator>
     <cc:Agent>
      <dc:title>Matplotlib v3.4.2, https://matplotlib.org/</dc:title>
     </cc:Agent>
    </dc:creator>
   </cc:Work>
  </rdf:RDF>
 </metadata>
 <defs>
  <style type="text/css">*{stroke-linecap:butt;stroke-linejoin:round;}</style>
 </defs>
 <g id="figure_1">
  <g id="patch_1">
   <path d="M 0 345.6 
L 460.8 345.6 
L 460.8 0 
L 0 0 
z
" style="fill:#ffffff;"/>
  </g>
  <g id="axes_1">
   <g id="patch_2">
    <path d="M 62.208 293.76 
L 460.8 293.76 
L 460.8 3.456 
L 62.208 3.456 
z
" style="fill:#ffffff;"/>
   </g>
   <g id="line2d_1">
    <path clip-path="url(#p983c226fcc)" d="M 307.899275 293.76 
L 307.899275 289.927604 
L 307.899275 289.927604 
L 307.899275 286.095208 
L 307.899275 286.095208 
L 307.899275 282.262812 
L 307.899275 282.262812 
L 307.899275 278.430416 
L 307.899275 278.430416 
L 307.899275 274.59802 
L 307.899275 274.59802 
L 307.899275 270.765624 
L 307.899275 270.765624 
L 307.899275 266.933228 
L 307.899275 266.933228 
L 307.899275 263.100832 
L 307.899275 263.100832 
L 307.899275 259.268436 
L 307.899275 259.268436 
L 307.899275 255.43604 
L 307.899275 255.43604 
L 307.899275 251.603644 
L 307.899275 251.603644 
L 307.899275 247.771248 
L 307.899275 247.771248 
L 307.899275 243.938851 
L 307.899275 243.938851 
L 307.899275 240.106455 
L 307.899275 240.106455 
L 307.899275 236.274059 
L 317.885386 236.274059 
L 317.885386 232.441663 
L 322.476741 232.441663 
L 322.476741 228.609267 
L 322.476741 228.609267 
L 322.476741 224.776871 
L 326.836497 224.776871 
L 326.836497 220.944475 
L 326.836497 220.944475 
L 326.836497 217.112079 
L 326.836497 217.112079 
L 326.836497 213.279683 
L 326.836497 213.279683 
L 326.836497 209.447287 
L 330.986903 209.447287 
L 330.986903 205.614891 
L 330.986903 205.614891 
L 330.986903 201.782495 
L 330.986903 201.782495 
L 330.986903 197.950099 
L 334.947146 197.950099 
L 334.947146 194.117703 
L 334.947146 194.117703 
L 334.947146 190.285307 
L 334.947146 190.285307 
L 334.947146 186.452911 
L 334.947146 186.452911 
L 334.947146 182.620515 
L 338.733891 182.620515 
L 338.733891 178.788119 
L 461.8 178.788119 
" style="fill:none;stroke:#f5deb3;stroke-linecap:square;stroke-width:1.5;"/>
   </g>
   <g id="line2d_2">
    <path clip-path="url(#p983c226fcc)" style="fill:none;stroke:#f5deb3;stroke-linecap:square;stroke-width:1.5;"/>
   </g>
   <g id="line2d_3">
    <path clip-path="url(#p983c226fcc)" d="M 274.46968 293.76 
L 274.46968 289.927604 
L 274.46968 289.927604 
L 274.46968 286.095208 
L 274.46968 286.095208 
L 274.46968 282.262812 
L 274.46968 282.262812 
L 274.46968 278.430416 
L 274.839917 278.430416 
L 274.839917 274.59802 
L 275.208575 274.59802 
L 275.208575 270.765624 
L 275.208575 270.765624 
L 275.208575 266.933228 
L 275.208575 266.933228 
L 275.208575 263.100832 
L 275.208575 263.100832 
L 275.208575 259.268436 
L 275.208575 259.268436 
L 275.208575 255.43604 
L 275.208575 255.43604 
L 275.208575 251.603644 
L 275.208575 251.603644 
L 275.208575 247.771248 
L 275.208575 247.771248 
L 275.208575 243.938851 
L 275.208575 243.938851 
L 275.208575 240.106455 
L 275.575668 240.106455 
L 275.575668 236.274059 
L 275.941208 236.274059 
L 275.941208 232.441663 
L 276.667685 232.441663 
L 276.667685 228.609267 
L 280.211221 228.609267 
L 280.211221 224.776871 
L 281.588942 224.776871 
L 281.588942 220.944475 
L 284.280216 220.944475 
L 284.280216 217.112079 
L 284.280216 217.112079 
L 284.280216 213.279683 
L 285.268229 213.279683 
L 285.268229 209.447287 
L 285.595073 209.447287 
L 285.595073 205.614891 
L 285.920686 205.614891 
L 285.920686 201.782495 
L 287.530606 201.782495 
L 287.530606 197.950099 
L 287.849023 197.950099 
L 287.849023 194.117703 
L 288.797298 194.117703 
L 288.797298 190.285307 
L 291.581266 190.285307 
L 291.581266 186.452911 
L 296.319448 186.452911 
L 296.319448 182.620515 
L 299.986727 182.620515 
L 299.986727 178.788119 
L 299.986727 178.788119 
L 299.986727 178.788119 
L 460.8 178.788119 
" style="fill:none;stroke:#f5deb3;stroke-linecap:square;stroke-width:1.5;"/>
   </g>
   <g id="line2d_4">
    <path clip-path="url(#p983c226fcc)" d="M 211.909947 293.76 
L 211.909947 289.927604 
L 213.426656 289.927604 
L 213.426656 286.095208 
L 215.652964 286.095208 
L 215.652964 282.262812 
L 218.534904 282.262812 
L 218.534904 278.430416 
L 221.323861 278.430416 
L 221.323861 274.59802 
L 231.047604 274.59802 
L 231.047604 270.765624 
L 231.047604 270.765624 
L 231.047604 266.933228 
L 231.658562 266.933228 
L 231.658562 263.100832 
L 235.81848 263.100832 
L 235.81848 259.268436 
L 235.81848 259.268436 
L 235.81848 255.43604 
L 240.888673 255.43604 
L 240.888673 251.603644 
L 246.707089 251.603644 
L 246.707089 247.771248 
L 247.724162 247.771248 
L 247.724162 243.938851 
L 249.723099 243.938851 
L 249.723099 240.106455 
L 284.280216 240.106455 
L 284.280216 236.274059 
L 441.358607 236.274059 
L 441.358607 232.441663 
L 445.252944 232.441663 
L 445.252944 228.609267 
L 445.817142 228.609267 
L 445.817142 224.776871 
L 446.479208 224.776871 
L 446.479208 220.944475 
L 447.437813 220.944475 
L 447.437813 217.112079 
L 449.666673 217.112079 
L 449.666673 213.279683 
L 449.959559 213.279683 
L 449.959559 209.447287 
L 450.105631 209.447287 
L 450.105631 205.614891 
L 450.251456 205.614891 
L 450.251456 201.782495 
L 450.784055 201.782495 
L 450.784055 197.950099 
L 451.073187 197.950099 
L 451.073187 194.117703 
L 451.169349 194.117703 
L 451.169349 190.285307 
L 453.352071 190.285307 
L 453.352071 186.452911 
L 453.726113 186.452911 
L 453.726113 182.620515 
L 454.144984 182.620515 
L 454.144984 178.788119 
L 461.8 178.788119 
" style="fill:none;stroke:#f5deb3;stroke-linecap:square;stroke-width:1.5;"/>
   </g>
   <g id="line2d_5">
    <path clip-path="url(#p983c226fcc)" style="fill:none;stroke:#f5deb3;stroke-linecap:square;stroke-width:1.5;"/>
   </g>
   <g id="line2d_6"/>
   <g id="line2d_7">
    <path clip-path="url(#p983c226fcc)" d="M 272.594331 293.76 
L 272.594331 289.927604 
L 290.355001 289.927604 
L 290.355001 286.095208 
L 291.885133 286.095208 
L 291.885133 282.262812 
L 293.090033 282.262812 
L 293.090033 278.430416 
L 293.388653 278.430416 
L 293.388653 274.59802 
L 294.278371 274.59802 
L 294.278371 270.765624 
L 295.741184 270.765624 
L 295.741184 266.933228 
L 295.741184 266.933228 
L 295.741184 263.100832 
L 296.319448 263.100832 
L 296.319448 259.268436 
L 304.033496 259.268436 
L 304.033496 255.43604 
L 306.629793 255.43604 
L 306.629793 251.603644 
L 308.901608 251.603644 
L 308.901608 247.771248 
L 311.115247 247.771248 
L 311.115247 243.938851 
L 323.324298 243.938851 
L 323.324298 240.106455 
L 323.324298 240.106455 
L 323.324298 236.274059 
L 461.8 236.274059 
" style="fill:none;stroke:#f5deb3;stroke-linecap:square;stroke-width:1.5;"/>
   </g>
   <g id="line2d_8">
    <path clip-path="url(#p983c226fcc)" d="M 0 0 
" style="fill:none;stroke:#f5deb3;stroke-linecap:square;stroke-width:1.5;"/>
   </g>
   <g id="line2d_9">
    <path clip-path="url(#p983c226fcc)" d="M 263.822277 293.76 
L 263.822277 289.927604 
L 266.711097 289.927604 
L 266.711097 286.095208 
L 272.21433 286.095208 
L 272.21433 282.262812 
L 273.724415 282.262812 
L 273.724415 278.430416 
L 274.097851 278.430416 
L 274.097851 274.59802 
L 275.208575 274.59802 
L 275.208575 270.765624 
L 277.388107 270.765624 
L 277.388107 266.933228 
L 277.746079 266.933228 
L 277.746079 263.100832 
L 279.863333 263.100832 
L 279.863333 259.268436 
L 286.568256 259.268436 
L 286.568256 255.43604 
L 288.166272 255.43604 
L 288.166272 251.603644 
L 294.278371 251.603644 
L 294.278371 247.771248 
L 296.319448 247.771248 
L 296.319448 243.938851 
L 299.986727 243.938851 
L 299.986727 240.106455 
L 302.972745 240.106455 
L 302.972745 236.274059 
L 461.8 236.274059 
" style="fill:none;stroke:#f5deb3;stroke-linecap:square;stroke-width:1.5;"/>
   </g>
   <g id="line2d_10">
    <path clip-path="url(#p983c226fcc)" d="M 329.4292 293.76 
L 329.4292 289.927604 
L 332.137034 289.927604 
L 332.137034 286.095208 
L 344.037148 286.095208 
L 344.037148 282.262812 
L 344.037148 282.262812 
L 344.037148 278.430416 
L 350.431943 278.430416 
L 350.431943 274.59802 
L 360.460071 274.59802 
L 360.460071 270.765624 
L 367.316421 270.765624 
L 367.316421 266.933228 
L 461.8 266.933228 
" style="fill:none;stroke:#f5deb3;stroke-linecap:square;stroke-width:1.5;"/>
   </g>
   <g id="line2d_11">
    <path clip-path="url(#p983c226fcc)" d="M 197.81514 293.76 
L 197.81514 289.927604 
L 211.141496 289.927604 
L 211.141496 286.095208 
L 213.426656 286.095208 
L 213.426656 282.262812 
L 214.917213 282.262812 
L 214.917213 278.430416 
L 217.105942 278.430416 
L 217.105942 274.59802 
L 219.240623 274.59802 
L 219.240623 270.765624 
L 224.688106 270.765624 
L 224.688106 266.933228 
L 230.432298 266.933228 
L 230.432298 263.100832 
L 231.047604 263.100832 
L 231.047604 259.268436 
L 234.650216 259.268436 
L 234.650216 255.43604 
L 241.976111 255.43604 
L 241.976111 251.603644 
L 249.723099 251.603644 
L 249.723099 247.771248 
L 250.215694 247.771248 
L 250.215694 243.938851 
L 265.072181 243.938851 
L 265.072181 240.106455 
L 277.746079 240.106455 
L 277.746079 236.274059 
L 426.154896 236.274059 
L 426.154896 232.441663 
L 427.365792 232.441663 
L 427.365792 228.609267 
L 429.367622 228.609267 
L 429.367622 224.776871 
L 429.552939 224.776871 
L 429.552939 220.944475 
L 431.746296 220.944475 
L 431.746296 217.112079 
L 432.226243 217.112079 
L 432.226243 213.279683 
L 434.002679 213.279683 
L 434.002679 209.447287 
L 434.819354 209.447287 
L 434.819354 205.614891 
L 434.993356 205.614891 
L 434.993356 201.782495 
L 436.714385 201.782495 
L 436.714385 197.950099 
L 437.336943 197.950099 
L 437.336943 194.117703 
L 437.786912 194.117703 
L 437.786912 190.285307 
L 439.012386 190.285307 
L 439.012386 186.452911 
L 440.493016 186.452911 
L 440.493016 182.620515 
L 442.002159 182.620515 
L 442.002159 178.788119 
L 442.002159 178.788119 
L 442.002159 178.788119 
L 460.8 178.788119 
" style="fill:none;stroke:#f5deb3;stroke-linecap:square;stroke-width:1.5;"/>
   </g>
   <g id="line2d_12">
    <path clip-path="url(#p983c226fcc)" d="M 128.382839 293.76 
L 128.382839 289.927604 
L 128.382839 289.927604 
L 128.382839 286.095208 
L 128.382839 286.095208 
L 128.382839 282.262812 
L 128.382839 282.262812 
L 128.382839 278.430416 
L 128.382839 278.430416 
L 128.382839 274.59802 
L 128.382839 274.59802 
L 128.382839 270.765624 
L 128.382839 270.765624 
L 128.382839 266.933228 
L 128.382839 266.933228 
L 128.382839 263.100832 
L 128.382839 263.100832 
L 128.382839 259.268436 
L 128.382839 259.268436 
L 128.382839 255.43604 
L 128.382839 255.43604 
L 128.382839 251.603644 
L 128.382839 251.603644 
L 128.382839 247.771248 
L 128.382839 247.771248 
L 128.382839 243.938851 
L 128.382839 243.938851 
L 128.382839 240.106455 
L 128.382839 240.106455 
L 128.382839 236.274059 
L 187.294418 236.274059 
L 187.294418 232.441663 
L 206.381568 232.441663 
L 206.381568 228.609267 
L 206.381568 228.609267 
L 206.381568 224.776871 
L 206.381568 224.776871 
L 206.381568 220.944475 
L 206.381568 220.944475 
L 206.381568 217.112079 
L 206.381568 217.112079 
L 206.381568 213.279683 
L 206.381568 213.279683 
L 206.381568 209.447287 
L 206.381568 209.447287 
L 206.381568 205.614891 
L 206.381568 205.614891 
L 206.381568 201.782495 
L 206.381568 201.782495 
L 206.381568 197.950099 
L 222.007265 197.950099 
L 222.007265 194.117703 
L 222.007265 194.117703 
L 222.007265 190.285307 
L 222.007265 190.285307 
L 222.007265 186.452911 
L 222.007265 186.452911 
L 222.007265 182.620515 
L 246.707089 182.620515 
L 246.707089 178.788119 
L 461.8 178.788119 
" style="fill:none;stroke:#f5deb3;stroke-linecap:square;stroke-width:1.5;"/>
   </g>
   <g id="line2d_13">
    <path clip-path="url(#p983c226fcc)" d="M 453.95907 293.76 
L 453.95907 289.927604 
L 453.95907 289.927604 
L 453.95907 286.095208 
L 455.343779 286.095208 
L 455.343779 282.262812 
L 455.343779 282.262812 
L 455.343779 278.430416 
L 457.424837 278.430416 
L 457.424837 274.59802 
L 457.648049 274.59802 
L 457.648049 270.765624 
L 457.648049 270.765624 
L 457.648049 266.933228 
L 457.648049 266.933228 
L 457.648049 263.100832 
L 458.843538 263.100832 
L 458.843538 259.268436 
L 461.8 259.268436 
" style="fill:none;stroke:#f5deb3;stroke-linecap:square;stroke-width:1.5;"/>
   </g>
   <g id="line2d_14">
    <path clip-path="url(#p983c226fcc)" d="M 242.514744 293.76 
L 242.514744 289.927604 
L 245.158686 289.927604 
L 245.158686 286.095208 
L 246.707089 286.095208 
L 246.707089 282.262812 
L 248.729408 282.262812 
L 248.729408 278.430416 
L 249.227682 278.430416 
L 249.227682 274.59802 
L 249.227682 274.59802 
L 249.227682 270.765624 
L 249.723099 270.765624 
L 249.723099 266.933228 
L 250.215694 266.933228 
L 250.215694 263.100832 
L 251.192543 263.100832 
L 251.192543 259.268436 
L 251.192543 259.268436 
L 251.192543 255.43604 
L 251.192543 255.43604 
L 251.192543 251.603644 
L 251.192543 251.603644 
L 251.192543 247.771248 
L 251.676859 247.771248 
L 251.676859 243.938851 
L 252.158477 243.938851 
L 252.158477 240.106455 
L 252.158477 240.106455 
L 252.158477 236.274059 
L 373.786426 236.274059 
L 373.786426 232.441663 
L 375.532954 232.441663 
L 375.532954 228.609267 
L 378.032345 228.609267 
L 378.032345 224.776871 
L 378.923592 224.776871 
L 378.923592 220.944475 
L 379.695966 220.944475 
L 379.695966 217.112079 
L 383.772537 217.112079 
L 383.772537 213.279683 
L 384.086331 213.279683 
L 384.086331 209.447287 
L 384.294896 209.447287 
L 384.294896 205.614891 
L 385.124161 205.614891 
L 385.124161 201.782495 
L 386.353331 201.782495 
L 386.353331 197.950099 
L 386.657912 197.950099 
L 386.657912 194.117703 
L 386.860372 194.117703 
L 386.860372 190.285307 
L 388.958053 190.285307 
L 388.958053 186.452911 
L 389.548159 186.452911 
L 389.548159 182.620515 
L 389.939337 182.620515 
L 389.939337 178.788119 
L 405.031732 178.788119 
L 405.031732 174.955723 
L 410.200409 174.955723 
L 410.200409 171.123327 
L 410.815715 171.123327 
L 410.815715 167.290931 
L 413.308554 167.290931 
L 413.308554 163.458535 
L 413.976126 163.458535 
L 413.976126 159.626139 
L 414.785109 159.626139 
L 414.785109 155.793743 
L 416.164856 155.793743 
L 416.164856 151.961347 
L 417.664649 151.961347 
L 417.664649 148.12895 
L 418.299537 148.12895 
L 418.299537 144.296554 
L 421.744223 144.296554 
L 421.744223 140.464158 
L 432.465221 140.464158 
L 432.465221 136.631762 
L 436.543816 136.631762 
L 436.543816 132.799366 
L 442.640957 132.799366 
L 442.640957 128.96697 
L 461.8 128.96697 
" style="fill:none;stroke:#f5deb3;stroke-linecap:square;stroke-width:1.5;"/>
   </g>
   <g id="line2d_15"/>
   <g id="line2d_16">
    <path clip-path="url(#p983c226fcc)" d="M 0 0 
" style="fill:none;stroke:#f5deb3;stroke-linecap:square;stroke-width:1.5;"/>
   </g>
   <g id="line2d_17">
    <path clip-path="url(#p983c226fcc)" style="fill:none;stroke:#f5deb3;stroke-linecap:square;stroke-width:1.5;"/>
   </g>
   <g id="line2d_18">
    <path clip-path="url(#p983c226fcc)" d="M 128.382839 293.76 
L 128.382839 289.927604 
L 128.382839 289.927604 
L 128.382839 286.095208 
L 128.382839 286.095208 
L 128.382839 282.262812 
L 128.382839 282.262812 
L 128.382839 278.430416 
L 128.382839 278.430416 
L 128.382839 274.59802 
L 128.382839 274.59802 
L 128.382839 270.765624 
L 128.382839 270.765624 
L 128.382839 266.933228 
L 128.382839 266.933228 
L 128.382839 263.100832 
L 130.370287 263.100832 
L 130.370287 259.268436 
L 130.370287 259.268436 
L 130.370287 255.43604 
L 130.370287 255.43604 
L 130.370287 251.603644 
L 130.370287 251.603644 
L 130.370287 247.771248 
L 130.370287 247.771248 
L 130.370287 243.938851 
L 130.370287 243.938851 
L 130.370287 240.106455 
L 134.21315 240.106455 
L 134.21315 236.274059 
L 136.072365 236.274059 
L 136.072365 232.441663 
L 136.072365 232.441663 
L 136.072365 228.609267 
L 141.421506 228.609267 
L 141.421506 224.776871 
L 143.133447 224.776871 
L 143.133447 220.944475 
L 146.458864 220.944475 
L 146.458864 217.112079 
L 155.73026 217.112079 
L 155.73026 213.279683 
L 157.183239 213.279683 
L 157.183239 209.447287 
L 157.183239 209.447287 
L 157.183239 205.614891 
L 161.401157 205.614891 
L 161.401157 201.782495 
L 178.749177 201.782495 
L 178.749177 197.950099 
L 179.864678 197.950099 
L 179.864678 194.117703 
L 179.864678 194.117703 
L 179.864678 190.285307 
L 186.271327 190.285307 
L 186.271327 186.452911 
L 188.305542 186.452911 
L 188.305542 182.620515 
L 191.269839 182.620515 
L 191.269839 178.788119 
L 461.8 178.788119 
" style="fill:none;stroke:#f5deb3;stroke-linecap:square;stroke-width:1.5;"/>
   </g>
   <g id="line2d_19">
    <path clip-path="url(#p983c226fcc)" style="fill:none;stroke:#f5deb3;stroke-linecap:square;stroke-width:1.5;"/>
   </g>
   <g id="line2d_20">
    <path clip-path="url(#p983c226fcc)" d="M 238.67188 293.76 
L 238.67188 289.927604 
L 249.723099 289.927604 
L 249.723099 286.095208 
L 250.705498 286.095208 
L 250.705498 282.262812 
L 257.286406 282.262812 
L 257.286406 278.430416 
L 269.898561 278.430416 
L 269.898561 274.59802 
L 274.839917 274.59802 
L 274.839917 270.765624 
L 277.028646 270.765624 
L 277.028646 266.933228 
L 278.102575 266.933228 
L 278.102575 263.100832 
L 287.849023 263.100832 
L 287.849023 259.268436 
L 291.885133 259.268436 
L 291.885133 255.43604 
L 294.57292 255.43604 
L 294.57292 251.603644 
L 298.594584 251.603644 
L 298.594584 247.771248 
L 302.437448 247.771248 
L 302.437448 243.938851 
L 308.401894 243.938851 
L 308.401894 240.106455 
L 323.113187 240.106455 
L 323.113187 236.274059 
L 440.002285 236.274059 
L 440.002285 232.441663 
L 442.002159 232.441663 
L 442.002159 228.609267 
L 445.766003 228.609267 
L 445.766003 224.776871 
L 446.631275 224.776871 
L 446.631275 220.944475 
L 452.409826 220.944475 
L 452.409826 217.112079 
L 455.982464 217.112079 
L 455.982464 213.279683 
L 455.982464 213.279683 
L 455.982464 209.447287 
L 456.435796 209.447287 
L 456.435796 205.614891 
L 456.435796 205.614891 
L 456.435796 201.782495 
L 456.661574 201.782495 
L 456.661574 197.950099 
L 457.33539 197.950099 
L 457.33539 194.117703 
L 461.8 194.117703 
" style="fill:none;stroke:#f5deb3;stroke-linecap:square;stroke-width:1.5;"/>
   </g>
   <g id="line2d_21">
    <path clip-path="url(#p983c226fcc)" d="M 0 0 
" style="fill:none;stroke:#f5deb3;stroke-linecap:square;stroke-width:1.5;"/>
   </g>
   <g id="line2d_22">
    <path clip-path="url(#p983c226fcc)" d="M 279.514038 293.76 
L 279.514038 289.927604 
L 285.920686 289.927604 
L 285.920686 286.095208 
L 294.57292 286.095208 
L 294.57292 282.262812 
L 299.710086 282.262812 
L 299.710086 278.430416 
L 305.859058 278.430416 
L 305.859058 274.59802 
L 311.599563 274.59802 
L 311.599563 270.765624 
L 311.840707 270.765624 
L 311.840707 266.933228 
L 313.036441 266.933228 
L 313.036441 263.100832 
L 315.147948 263.100832 
L 315.147948 259.268436 
L 315.840477 259.268436 
L 315.840477 255.43604 
L 322.049825 255.43604 
L 322.049825 251.603644 
L 322.476741 251.603644 
L 322.476741 247.771248 
L 323.954558 247.771248 
L 323.954558 243.938851 
L 331.371983 243.938851 
L 331.371983 240.106455 
L 360.185189 240.106455 
L 360.185189 236.274059 
L 447.186578 236.274059 
L 447.186578 232.441663 
L 461.8 232.441663 
" style="fill:none;stroke:#f5deb3;stroke-linecap:square;stroke-width:1.5;"/>
   </g>
   <g id="line2d_23">
    <path clip-path="url(#p983c226fcc)" d="M 367.56957 293.76 
L 367.56957 289.927604 
L 382.292913 289.927604 
L 382.292913 286.095208 
L 385.433096 286.095208 
L 385.433096 282.262812 
L 386.961424 282.262812 
L 386.961424 278.430416 
L 389.548159 278.430416 
L 389.548159 274.59802 
L 393.663333 274.59802 
L 393.663333 270.765624 
L 396.964059 270.765624 
L 396.964059 266.933228 
L 416.236868 266.933228 
L 416.236868 263.100832 
L 461.8 263.100832 
" style="fill:none;stroke:#f5deb3;stroke-linecap:square;stroke-width:1.5;"/>
   </g>
   <g id="line2d_24">
    <path clip-path="url(#p983c226fcc)" d="M 461.61295 293.76 
L 461.61295 289.927604 
L 461.8 289.927604 
" style="fill:none;stroke:#f5deb3;stroke-linecap:square;stroke-width:1.5;"/>
   </g>
   <g id="line2d_25">
    <path clip-path="url(#p983c226fcc)" d="M 377.131814 293.76 
L 377.131814 289.927604 
L 382.399444 289.927604 
L 382.399444 286.095208 
L 383.457599 286.095208 
L 383.457599 282.262812 
L 385.124161 282.262812 
L 385.124161 278.430416 
L 404.703336 278.430416 
L 404.703336 274.59802 
L 406.896178 274.59802 
L 406.896178 270.765624 
L 407.376014 270.765624 
L 407.376014 266.933228 
L 413.531652 266.933228 
L 413.531652 263.100832 
L 425.316506 263.100832 
L 425.316506 259.268436 
L 433.296479 259.268436 
L 433.296479 255.43604 
L 435.109163 255.43604 
L 435.109163 251.603644 
L 443.48541 251.603644 
L 443.48541 247.771248 
L 444.840293 247.771248 
L 444.840293 243.938851 
L 450.30001 243.938851 
L 450.30001 240.106455 
L 461.8 240.106455 
" style="fill:none;stroke:#f5deb3;stroke-linecap:square;stroke-width:1.5;"/>
   </g>
   <g id="line2d_26">
    <path clip-path="url(#p983c226fcc)" d="M 442.215617 293.76 
L 442.215617 289.927604 
L 443.590389 289.927604 
L 443.590389 286.095208 
L 448.485103 286.095208 
L 448.485103 282.262812 
L 449.666673 282.262812 
L 449.666673 278.430416 
L 449.862041 278.430416 
L 449.862041 274.59802 
L 450.30001 274.59802 
L 450.30001 270.765624 
L 450.348537 270.765624 
L 450.348537 266.933228 
L 451.648564 266.933228 
L 451.648564 263.100832 
L 451.648564 263.100832 
L 451.648564 259.268436 
L 453.305202 259.268436 
L 453.305202 255.43604 
L 454.976686 255.43604 
L 454.976686 251.603644 
L 455.846 251.603644 
L 455.846 247.771248 
L 457.826205 247.771248 
L 457.826205 243.938851 
L 458.225719 243.938851 
L 458.225719 240.106455 
L 461.8 240.106455 
" style="fill:none;stroke:#f5deb3;stroke-linecap:square;stroke-width:1.5;"/>
   </g>
   <g id="line2d_27">
    <path clip-path="url(#p983c226fcc)" d="M 370.306351 293.76 
L 370.306351 289.927604 
L 370.306351 289.927604 
L 370.306351 286.095208 
L 376.33608 286.095208 
L 376.33608 282.262812 
L 378.812687 282.262812 
L 378.812687 278.430416 
L 382.079456 278.430416 
L 382.079456 274.59802 
L 398.920834 274.59802 
L 398.920834 270.765624 
L 407.535369 270.765624 
L 407.535369 266.933228 
L 407.614937 266.933228 
L 407.614937 263.100832 
L 408.09081 263.100832 
L 408.09081 259.268436 
L 411.730541 259.268436 
L 411.730541 255.43604 
L 417.806138 255.43604 
L 417.806138 251.603644 
L 426.28316 251.603644 
L 426.28316 247.771248 
L 432.763017 247.771248 
L 432.763017 243.938851 
L 433.41458 243.938851 
L 433.41458 240.106455 
L 440.275257 240.106455 
L 440.275257 236.274059 
L 461.8 236.274059 
" style="fill:none;stroke:#f5deb3;stroke-linecap:square;stroke-width:1.5;"/>
   </g>
   <g id="line2d_28">
    <path clip-path="url(#p983c226fcc)" d="M 318.778936 293.76 
L 318.778936 289.927604 
L 319.000888 289.927604 
L 319.000888 286.095208 
L 319.222271 286.095208 
L 319.222271 282.262812 
L 319.443089 282.262812 
L 319.443089 278.430416 
L 327.842914 278.430416 
L 327.842914 274.59802 
L 327.842914 274.59802 
L 327.842914 270.765624 
L 327.842914 270.765624 
L 327.842914 266.933228 
L 327.842914 266.933228 
L 327.842914 263.100832 
L 328.042799 263.100832 
L 328.042799 259.268436 
L 336.046104 259.268436 
L 336.046104 255.43604 
L 336.046104 255.43604 
L 336.046104 251.603644 
L 336.590388 251.603644 
L 336.590388 247.771248 
L 344.368375 247.771248 
L 344.368375 243.938851 
L 350.585906 243.938851 
L 350.585906 240.106455 
L 363.294757 240.106455 
L 363.294757 236.274059 
L 461.8 236.274059 
" style="fill:none;stroke:#f5deb3;stroke-linecap:square;stroke-width:1.5;"/>
   </g>
   <g id="line2d_29">
    <path clip-path="url(#p983c226fcc)" d="M 122.130704 293.76 
L 122.130704 289.927604 
L 122.130704 289.927604 
L 122.130704 286.095208 
L 122.130704 286.095208 
L 122.130704 282.262812 
L 122.130704 282.262812 
L 122.130704 278.430416 
L 122.130704 278.430416 
L 122.130704 274.59802 
L 122.130704 274.59802 
L 122.130704 270.765624 
L 124.265385 270.765624 
L 124.265385 266.933228 
L 124.265385 266.933228 
L 124.265385 263.100832 
L 124.265385 263.100832 
L 124.265385 259.268436 
L 124.265385 259.268436 
L 124.265385 255.43604 
L 124.265385 255.43604 
L 124.265385 251.603644 
L 124.265385 251.603644 
L 124.265385 247.771248 
L 124.265385 247.771248 
L 124.265385 243.938851 
L 124.265385 243.938851 
L 124.265385 240.106455 
L 124.265385 240.106455 
L 124.265385 236.274059 
L 165.422821 236.274059 
L 165.422821 232.441663 
L 165.422821 232.441663 
L 165.422821 228.609267 
L 165.422821 228.609267 
L 165.422821 224.776871 
L 309.892452 224.776871 
L 309.892452 220.944475 
L 309.892452 220.944475 
L 309.892452 217.112079 
L 309.892452 217.112079 
L 309.892452 213.279683 
L 311.115247 213.279683 
L 311.115247 209.447287 
L 311.115247 209.447287 
L 311.115247 205.614891 
L 311.115247 205.614891 
L 311.115247 201.782495 
L 312.081181 201.782495 
L 312.081181 197.950099 
L 312.081181 197.950099 
L 312.081181 194.117703 
L 312.081181 194.117703 
L 312.081181 190.285307 
L 312.56013 190.285307 
L 312.56013 186.452911 
L 312.56013 186.452911 
L 312.56013 182.620515 
L 312.56013 182.620515 
L 312.56013 178.788119 
L 312.56013 178.788119 
L 312.56013 178.788119 
L 460.8 178.788119 
" style="fill:none;stroke:#f5deb3;stroke-linecap:square;stroke-width:1.5;"/>
   </g>
   <g id="line2d_30">
    <path clip-path="url(#p983c226fcc)" d="M 312.320987 293.76 
L 312.320987 289.927604 
L 312.320987 289.927604 
L 312.320987 286.095208 
L 313.510142 286.095208 
L 313.510142 282.262812 
L 315.61025 282.262812 
L 315.61025 278.430416 
L 316.527502 278.430416 
L 316.527502 274.59802 
L 316.527502 274.59802 
L 316.527502 270.765624 
L 317.885386 270.765624 
L 317.885386 266.933228 
L 318.333316 266.933228 
L 318.333316 263.100832 
L 318.556413 263.100832 
L 318.556413 259.268436 
L 318.778936 259.268436 
L 318.778936 255.43604 
L 319.443089 255.43604 
L 319.443089 251.603644 
L 320.756282 251.603644 
L 320.756282 247.771248 
L 321.835574 247.771248 
L 321.835574 243.938851 
L 322.049825 243.938851 
L 322.049825 240.106455 
L 323.954558 240.106455 
L 323.954558 236.274059 
L 324.372192 236.274059 
L 324.372192 232.441663 
L 324.994885 232.441663 
L 324.994885 228.609267 
L 326.430627 228.609267 
L 326.430627 224.776871 
L 327.03872 224.776871 
L 327.03872 220.944475 
L 327.842914 220.944475 
L 327.842914 217.112079 
L 329.232499 217.112079 
L 329.232499 213.279683 
L 329.821265 213.279683 
L 329.821265 209.447287 
L 331.755354 209.447287 
L 331.755354 205.614891 
L 333.834038 205.614891 
L 333.834038 201.782495 
L 334.392384 201.782495 
L 334.392384 197.950099 
L 334.762621 197.950099 
L 334.762621 194.117703 
L 336.227913 194.117703 
L 336.227913 190.285307 
L 337.310811 190.285307 
L 337.310811 186.452911 
L 337.668783 186.452911 
L 337.668783 182.620515 
L 356.816574 182.620515 
L 356.816574 178.788119 
L 363.427451 178.788119 
L 363.427451 174.955723 
L 363.427451 174.955723 
L 363.427451 171.123327 
L 363.427451 171.123327 
L 363.427451 167.290931 
L 363.427451 167.290931 
L 363.427451 163.458535 
L 363.427451 163.458535 
L 363.427451 159.626139 
L 363.427451 159.626139 
L 363.427451 155.793743 
L 363.427451 155.793743 
L 363.427451 151.961347 
L 363.427451 151.961347 
L 363.427451 148.12895 
L 363.427451 148.12895 
L 363.427451 144.296554 
L 363.427451 144.296554 
L 363.427451 140.464158 
L 363.427451 140.464158 
L 363.427451 136.631762 
L 363.427451 136.631762 
L 363.427451 132.799366 
L 363.427451 132.799366 
L 363.427451 128.96697 
L 363.427451 128.96697 
L 363.427451 125.134574 
L 363.427451 125.134574 
L 363.427451 121.302178 
L 363.427451 121.302178 
L 363.427451 121.302178 
L 460.8 121.302178 
" style="fill:none;stroke:#f5deb3;stroke-linecap:square;stroke-width:1.5;"/>
   </g>
   <g id="matplotlib.axis_1">
    <g id="xtick_1">
     <g id="line2d_31">
      <path clip-path="url(#p983c226fcc)" d="M 261.266913 293.76 
L 261.266913 3.456 
" style="fill:none;stroke:#b0b0b0;stroke-linecap:square;stroke-width:0.8;"/>
     </g>
     <g id="line2d_32">
      <defs>
       <path d="M 0 0 
L 0 3.5 
" id="m5b7c54863b" style="stroke:#000000;stroke-width:0.8;"/>
      </defs>
      <g>
       <use style="stroke:#000000;stroke-width:0.8;" x="261.266913" xlink:href="#m5b7c54863b" y="293.76"/>
      </g>
     </g>
     <g id="text_1">
      <!-- 1 -->
      <g transform="translate(254.904413 315.956875)scale(0.2 -0.2)">
       <defs>
        <path d="M 794 531 
L 1825 531 
L 1825 4091 
L 703 3866 
L 703 4441 
L 1819 4666 
L 2450 4666 
L 2450 531 
L 3481 531 
L 3481 0 
L 794 0 
L 794 531 
z
" id="DejaVuSans-31" transform="scale(0.015625)"/>
       </defs>
       <use xlink:href="#DejaVuSans-31"/>
      </g>
     </g>
    </g>
    <g id="xtick_2">
     <g id="line2d_33">
      <path clip-path="url(#p983c226fcc)" d="M 122.130704 293.76 
L 122.130704 3.456 
" style="fill:none;stroke:#b0b0b0;stroke-linecap:square;stroke-width:0.8;"/>
     </g>
     <g id="line2d_34">
      <defs>
       <path d="M 0 0 
L 0 2 
" id="m13252a230a" style="stroke:#000000;stroke-width:0.6;"/>
      </defs>
      <g>
       <use style="stroke:#000000;stroke-width:0.6;" x="122.130704" xlink:href="#m13252a230a" y="293.76"/>
      </g>
     </g>
    </g>
    <g id="xtick_3">
     <g id="line2d_35">
      <path clip-path="url(#p983c226fcc)" d="M 157.183239 293.76 
L 157.183239 3.456 
" style="fill:none;stroke:#b0b0b0;stroke-linecap:square;stroke-width:0.8;"/>
     </g>
     <g id="line2d_36">
      <g>
       <use style="stroke:#000000;stroke-width:0.6;" x="157.183239" xlink:href="#m13252a230a" y="293.76"/>
      </g>
     </g>
    </g>
    <g id="xtick_4">
     <g id="line2d_37">
      <path clip-path="url(#p983c226fcc)" d="M 182.053408 293.76 
L 182.053408 3.456 
" style="fill:none;stroke:#b0b0b0;stroke-linecap:square;stroke-width:0.8;"/>
     </g>
     <g id="line2d_38">
      <g>
       <use style="stroke:#000000;stroke-width:0.6;" x="182.053408" xlink:href="#m13252a230a" y="293.76"/>
      </g>
     </g>
    </g>
    <g id="xtick_5">
     <g id="line2d_39">
      <path clip-path="url(#p983c226fcc)" d="M 201.34421 293.76 
L 201.34421 3.456 
" style="fill:none;stroke:#b0b0b0;stroke-linecap:square;stroke-width:0.8;"/>
     </g>
     <g id="line2d_40">
      <g>
       <use style="stroke:#000000;stroke-width:0.6;" x="201.34421" xlink:href="#m13252a230a" y="293.76"/>
      </g>
     </g>
    </g>
    <g id="xtick_6">
     <g id="line2d_41">
      <path clip-path="url(#p983c226fcc)" d="M 217.105942 293.76 
L 217.105942 3.456 
" style="fill:none;stroke:#b0b0b0;stroke-linecap:square;stroke-width:0.8;"/>
     </g>
     <g id="line2d_42">
      <g>
       <use style="stroke:#000000;stroke-width:0.6;" x="217.105942" xlink:href="#m13252a230a" y="293.76"/>
      </g>
     </g>
    </g>
    <g id="xtick_7">
     <g id="line2d_43">
      <path clip-path="url(#p983c226fcc)" d="M 230.432298 293.76 
L 230.432298 3.456 
" style="fill:none;stroke:#b0b0b0;stroke-linecap:square;stroke-width:0.8;"/>
     </g>
     <g id="line2d_44">
      <g>
       <use style="stroke:#000000;stroke-width:0.6;" x="230.432298" xlink:href="#m13252a230a" y="293.76"/>
      </g>
     </g>
    </g>
    <g id="xtick_8">
     <g id="line2d_45">
      <path clip-path="url(#p983c226fcc)" d="M 241.976111 293.76 
L 241.976111 3.456 
" style="fill:none;stroke:#b0b0b0;stroke-linecap:square;stroke-width:0.8;"/>
     </g>
     <g id="line2d_46">
      <g>
       <use style="stroke:#000000;stroke-width:0.6;" x="241.976111" xlink:href="#m13252a230a" y="293.76"/>
      </g>
     </g>
    </g>
    <g id="xtick_9">
     <g id="line2d_47">
      <path clip-path="url(#p983c226fcc)" d="M 252.158477 293.76 
L 252.158477 3.456 
" style="fill:none;stroke:#b0b0b0;stroke-linecap:square;stroke-width:0.8;"/>
     </g>
     <g id="line2d_48">
      <g>
       <use style="stroke:#000000;stroke-width:0.6;" x="252.158477" xlink:href="#m13252a230a" y="293.76"/>
      </g>
     </g>
    </g>
    <g id="xtick_10">
     <g id="line2d_49">
      <path clip-path="url(#p983c226fcc)" d="M 321.189617 293.76 
L 321.189617 3.456 
" style="fill:none;stroke:#b0b0b0;stroke-linecap:square;stroke-width:0.8;"/>
     </g>
     <g id="line2d_50">
      <g>
       <use style="stroke:#000000;stroke-width:0.6;" x="321.189617" xlink:href="#m13252a230a" y="293.76"/>
      </g>
     </g>
    </g>
    <g id="xtick_11">
     <g id="line2d_51">
      <path clip-path="url(#p983c226fcc)" d="M 356.242152 293.76 
L 356.242152 3.456 
" style="fill:none;stroke:#b0b0b0;stroke-linecap:square;stroke-width:0.8;"/>
     </g>
     <g id="line2d_52">
      <g>
       <use style="stroke:#000000;stroke-width:0.6;" x="356.242152" xlink:href="#m13252a230a" y="293.76"/>
      </g>
     </g>
    </g>
    <g id="xtick_12">
     <g id="line2d_53">
      <path clip-path="url(#p983c226fcc)" d="M 381.112321 293.76 
L 381.112321 3.456 
" style="fill:none;stroke:#b0b0b0;stroke-linecap:square;stroke-width:0.8;"/>
     </g>
     <g id="line2d_54">
      <g>
       <use style="stroke:#000000;stroke-width:0.6;" x="381.112321" xlink:href="#m13252a230a" y="293.76"/>
      </g>
     </g>
    </g>
    <g id="xtick_13">
     <g id="line2d_55">
      <path clip-path="url(#p983c226fcc)" d="M 400.403123 293.76 
L 400.403123 3.456 
" style="fill:none;stroke:#b0b0b0;stroke-linecap:square;stroke-width:0.8;"/>
     </g>
     <g id="line2d_56">
      <g>
       <use style="stroke:#000000;stroke-width:0.6;" x="400.403123" xlink:href="#m13252a230a" y="293.76"/>
      </g>
     </g>
    </g>
    <g id="xtick_14">
     <g id="line2d_57">
      <path clip-path="url(#p983c226fcc)" d="M 416.164856 293.76 
L 416.164856 3.456 
" style="fill:none;stroke:#b0b0b0;stroke-linecap:square;stroke-width:0.8;"/>
     </g>
     <g id="line2d_58">
      <g>
       <use style="stroke:#000000;stroke-width:0.6;" x="416.164856" xlink:href="#m13252a230a" y="293.76"/>
      </g>
     </g>
    </g>
    <g id="xtick_15">
     <g id="line2d_59">
      <path clip-path="url(#p983c226fcc)" d="M 429.491211 293.76 
L 429.491211 3.456 
" style="fill:none;stroke:#b0b0b0;stroke-linecap:square;stroke-width:0.8;"/>
     </g>
     <g id="line2d_60">
      <g>
       <use style="stroke:#000000;stroke-width:0.6;" x="429.491211" xlink:href="#m13252a230a" y="293.76"/>
      </g>
     </g>
    </g>
    <g id="xtick_16">
     <g id="line2d_61">
      <path clip-path="url(#p983c226fcc)" d="M 441.035025 293.76 
L 441.035025 3.456 
" style="fill:none;stroke:#b0b0b0;stroke-linecap:square;stroke-width:0.8;"/>
     </g>
     <g id="line2d_62">
      <g>
       <use style="stroke:#000000;stroke-width:0.6;" x="441.035025" xlink:href="#m13252a230a" y="293.76"/>
      </g>
     </g>
    </g>
    <g id="xtick_17">
     <g id="line2d_63">
      <path clip-path="url(#p983c226fcc)" d="M 451.21739 293.76 
L 451.21739 3.456 
" style="fill:none;stroke:#b0b0b0;stroke-linecap:square;stroke-width:0.8;"/>
     </g>
     <g id="line2d_64">
      <g>
       <use style="stroke:#000000;stroke-width:0.6;" x="451.21739" xlink:href="#m13252a230a" y="293.76"/>
      </g>
     </g>
    </g>
    <g id="text_2">
     <!-- log10 of FEvals / DIM -->
     <g transform="translate(156.430563 339.313125)scale(0.2 -0.2)">
      <defs>
       <path d="M 603 4863 
L 1178 4863 
L 1178 0 
L 603 0 
L 603 4863 
z
" id="DejaVuSans-6c" transform="scale(0.015625)"/>
       <path d="M 1959 3097 
Q 1497 3097 1228 2736 
Q 959 2375 959 1747 
Q 959 1119 1226 758 
Q 1494 397 1959 397 
Q 2419 397 2687 759 
Q 2956 1122 2956 1747 
Q 2956 2369 2687 2733 
Q 2419 3097 1959 3097 
z
M 1959 3584 
Q 2709 3584 3137 3096 
Q 3566 2609 3566 1747 
Q 3566 888 3137 398 
Q 2709 -91 1959 -91 
Q 1206 -91 779 398 
Q 353 888 353 1747 
Q 353 2609 779 3096 
Q 1206 3584 1959 3584 
z
" id="DejaVuSans-6f" transform="scale(0.015625)"/>
       <path d="M 2906 1791 
Q 2906 2416 2648 2759 
Q 2391 3103 1925 3103 
Q 1463 3103 1205 2759 
Q 947 2416 947 1791 
Q 947 1169 1205 825 
Q 1463 481 1925 481 
Q 2391 481 2648 825 
Q 2906 1169 2906 1791 
z
M 3481 434 
Q 3481 -459 3084 -895 
Q 2688 -1331 1869 -1331 
Q 1566 -1331 1297 -1286 
Q 1028 -1241 775 -1147 
L 775 -588 
Q 1028 -725 1275 -790 
Q 1522 -856 1778 -856 
Q 2344 -856 2625 -561 
Q 2906 -266 2906 331 
L 2906 616 
Q 2728 306 2450 153 
Q 2172 0 1784 0 
Q 1141 0 747 490 
Q 353 981 353 1791 
Q 353 2603 747 3093 
Q 1141 3584 1784 3584 
Q 2172 3584 2450 3431 
Q 2728 3278 2906 2969 
L 2906 3500 
L 3481 3500 
L 3481 434 
z
" id="DejaVuSans-67" transform="scale(0.015625)"/>
       <path d="M 2034 4250 
Q 1547 4250 1301 3770 
Q 1056 3291 1056 2328 
Q 1056 1369 1301 889 
Q 1547 409 2034 409 
Q 2525 409 2770 889 
Q 3016 1369 3016 2328 
Q 3016 3291 2770 3770 
Q 2525 4250 2034 4250 
z
M 2034 4750 
Q 2819 4750 3233 4129 
Q 3647 3509 3647 2328 
Q 3647 1150 3233 529 
Q 2819 -91 2034 -91 
Q 1250 -91 836 529 
Q 422 1150 422 2328 
Q 422 3509 836 4129 
Q 1250 4750 2034 4750 
z
" id="DejaVuSans-30" transform="scale(0.015625)"/>
       <path id="DejaVuSans-20" transform="scale(0.015625)"/>
       <path d="M 2375 4863 
L 2375 4384 
L 1825 4384 
Q 1516 4384 1395 4259 
Q 1275 4134 1275 3809 
L 1275 3500 
L 2222 3500 
L 2222 3053 
L 1275 3053 
L 1275 0 
L 697 0 
L 697 3053 
L 147 3053 
L 147 3500 
L 697 3500 
L 697 3744 
Q 697 4328 969 4595 
Q 1241 4863 1831 4863 
L 2375 4863 
z
" id="DejaVuSans-66" transform="scale(0.015625)"/>
       <path d="M 628 4666 
L 3309 4666 
L 3309 4134 
L 1259 4134 
L 1259 2759 
L 3109 2759 
L 3109 2228 
L 1259 2228 
L 1259 0 
L 628 0 
L 628 4666 
z
" id="DejaVuSans-46" transform="scale(0.015625)"/>
       <path d="M 628 4666 
L 3578 4666 
L 3578 4134 
L 1259 4134 
L 1259 2753 
L 3481 2753 
L 3481 2222 
L 1259 2222 
L 1259 531 
L 3634 531 
L 3634 0 
L 628 0 
L 628 4666 
z
" id="DejaVuSans-45" transform="scale(0.015625)"/>
       <path d="M 191 3500 
L 800 3500 
L 1894 563 
L 2988 3500 
L 3597 3500 
L 2284 0 
L 1503 0 
L 191 3500 
z
" id="DejaVuSans-76" transform="scale(0.015625)"/>
       <path d="M 2194 1759 
Q 1497 1759 1228 1600 
Q 959 1441 959 1056 
Q 959 750 1161 570 
Q 1363 391 1709 391 
Q 2188 391 2477 730 
Q 2766 1069 2766 1631 
L 2766 1759 
L 2194 1759 
z
M 3341 1997 
L 3341 0 
L 2766 0 
L 2766 531 
Q 2569 213 2275 61 
Q 1981 -91 1556 -91 
Q 1019 -91 701 211 
Q 384 513 384 1019 
Q 384 1609 779 1909 
Q 1175 2209 1959 2209 
L 2766 2209 
L 2766 2266 
Q 2766 2663 2505 2880 
Q 2244 3097 1772 3097 
Q 1472 3097 1187 3025 
Q 903 2953 641 2809 
L 641 3341 
Q 956 3463 1253 3523 
Q 1550 3584 1831 3584 
Q 2591 3584 2966 3190 
Q 3341 2797 3341 1997 
z
" id="DejaVuSans-61" transform="scale(0.015625)"/>
       <path d="M 2834 3397 
L 2834 2853 
Q 2591 2978 2328 3040 
Q 2066 3103 1784 3103 
Q 1356 3103 1142 2972 
Q 928 2841 928 2578 
Q 928 2378 1081 2264 
Q 1234 2150 1697 2047 
L 1894 2003 
Q 2506 1872 2764 1633 
Q 3022 1394 3022 966 
Q 3022 478 2636 193 
Q 2250 -91 1575 -91 
Q 1294 -91 989 -36 
Q 684 19 347 128 
L 347 722 
Q 666 556 975 473 
Q 1284 391 1588 391 
Q 1994 391 2212 530 
Q 2431 669 2431 922 
Q 2431 1156 2273 1281 
Q 2116 1406 1581 1522 
L 1381 1569 
Q 847 1681 609 1914 
Q 372 2147 372 2553 
Q 372 3047 722 3315 
Q 1072 3584 1716 3584 
Q 2034 3584 2315 3537 
Q 2597 3491 2834 3397 
z
" id="DejaVuSans-73" transform="scale(0.015625)"/>
       <path d="M 1625 4666 
L 2156 4666 
L 531 -594 
L 0 -594 
L 1625 4666 
z
" id="DejaVuSans-2f" transform="scale(0.015625)"/>
       <path d="M 1259 4147 
L 1259 519 
L 2022 519 
Q 2988 519 3436 956 
Q 3884 1394 3884 2338 
Q 3884 3275 3436 3711 
Q 2988 4147 2022 4147 
L 1259 4147 
z
M 628 4666 
L 1925 4666 
Q 3281 4666 3915 4102 
Q 4550 3538 4550 2338 
Q 4550 1131 3912 565 
Q 3275 0 1925 0 
L 628 0 
L 628 4666 
z
" id="DejaVuSans-44" transform="scale(0.015625)"/>
       <path d="M 628 4666 
L 1259 4666 
L 1259 0 
L 628 0 
L 628 4666 
z
" id="DejaVuSans-49" transform="scale(0.015625)"/>
       <path d="M 628 4666 
L 1569 4666 
L 2759 1491 
L 3956 4666 
L 4897 4666 
L 4897 0 
L 4281 0 
L 4281 4097 
L 3078 897 
L 2444 897 
L 1241 4097 
L 1241 0 
L 628 0 
L 628 4666 
z
" id="DejaVuSans-4d" transform="scale(0.015625)"/>
      </defs>
      <use xlink:href="#DejaVuSans-6c"/>
      <use x="27.783203" xlink:href="#DejaVuSans-6f"/>
      <use x="88.964844" xlink:href="#DejaVuSans-67"/>
      <use x="152.441406" xlink:href="#DejaVuSans-31"/>
      <use x="216.064453" xlink:href="#DejaVuSans-30"/>
      <use x="279.6875" xlink:href="#DejaVuSans-20"/>
      <use x="311.474609" xlink:href="#DejaVuSans-6f"/>
      <use x="372.65625" xlink:href="#DejaVuSans-66"/>
      <use x="407.861328" xlink:href="#DejaVuSans-20"/>
      <use x="439.648438" xlink:href="#DejaVuSans-46"/>
      <use x="497.167969" xlink:href="#DejaVuSans-45"/>
      <use x="560.351562" xlink:href="#DejaVuSans-76"/>
      <use x="619.53125" xlink:href="#DejaVuSans-61"/>
      <use x="680.810547" xlink:href="#DejaVuSans-6c"/>
      <use x="708.59375" xlink:href="#DejaVuSans-73"/>
      <use x="760.693359" xlink:href="#DejaVuSans-20"/>
      <use x="792.480469" xlink:href="#DejaVuSans-2f"/>
      <use x="826.171875" xlink:href="#DejaVuSans-20"/>
      <use x="857.958984" xlink:href="#DejaVuSans-44"/>
      <use x="934.960938" xlink:href="#DejaVuSans-49"/>
      <use x="964.453125" xlink:href="#DejaVuSans-4d"/>
     </g>
    </g>
   </g>
   <g id="matplotlib.axis_2">
    <g id="ytick_1">
     <g id="line2d_65">
      <path clip-path="url(#p983c226fcc)" d="M 62.208 293.76 
L 460.8 293.76 
" style="fill:none;stroke:#b0b0b0;stroke-linecap:square;stroke-width:0.8;"/>
     </g>
     <g id="line2d_66">
      <defs>
       <path d="M 0 0 
L -3.5 0 
" id="m9c8a9f0e2a" style="stroke:#000000;stroke-width:0.8;"/>
      </defs>
      <g>
       <use style="stroke:#000000;stroke-width:0.8;" x="62.208" xlink:href="#m9c8a9f0e2a" y="293.76"/>
      </g>
     </g>
     <g id="text_3">
      <!-- 0.0 -->
      <g transform="translate(29.763 299.83875)scale(0.16 -0.16)">
       <defs>
        <path d="M 684 794 
L 1344 794 
L 1344 0 
L 684 0 
L 684 794 
z
" id="DejaVuSans-2e" transform="scale(0.015625)"/>
       </defs>
       <use xlink:href="#DejaVuSans-30"/>
       <use x="63.623047" xlink:href="#DejaVuSans-2e"/>
       <use x="95.410156" xlink:href="#DejaVuSans-30"/>
      </g>
     </g>
    </g>
    <g id="ytick_2">
     <g id="line2d_67">
      <path clip-path="url(#p983c226fcc)" d="M 62.208 236.274059 
L 460.8 236.274059 
" style="fill:none;stroke:#b0b0b0;stroke-linecap:square;stroke-width:0.8;"/>
     </g>
     <g id="line2d_68">
      <g>
       <use style="stroke:#000000;stroke-width:0.8;" x="62.208" xlink:href="#m9c8a9f0e2a" y="236.274059"/>
      </g>
     </g>
     <g id="text_4">
      <!-- 0.2 -->
      <g transform="translate(29.763 242.352809)scale(0.16 -0.16)">
       <defs>
        <path d="M 1228 531 
L 3431 531 
L 3431 0 
L 469 0 
L 469 531 
Q 828 903 1448 1529 
Q 2069 2156 2228 2338 
Q 2531 2678 2651 2914 
Q 2772 3150 2772 3378 
Q 2772 3750 2511 3984 
Q 2250 4219 1831 4219 
Q 1534 4219 1204 4116 
Q 875 4013 500 3803 
L 500 4441 
Q 881 4594 1212 4672 
Q 1544 4750 1819 4750 
Q 2544 4750 2975 4387 
Q 3406 4025 3406 3419 
Q 3406 3131 3298 2873 
Q 3191 2616 2906 2266 
Q 2828 2175 2409 1742 
Q 1991 1309 1228 531 
z
" id="DejaVuSans-32" transform="scale(0.015625)"/>
       </defs>
       <use xlink:href="#DejaVuSans-30"/>
       <use x="63.623047" xlink:href="#DejaVuSans-2e"/>
       <use x="95.410156" xlink:href="#DejaVuSans-32"/>
      </g>
     </g>
    </g>
    <g id="ytick_3">
     <g id="line2d_69">
      <path clip-path="url(#p983c226fcc)" d="M 62.208 178.788119 
L 460.8 178.788119 
" style="fill:none;stroke:#b0b0b0;stroke-linecap:square;stroke-width:0.8;"/>
     </g>
     <g id="line2d_70">
      <g>
       <use style="stroke:#000000;stroke-width:0.8;" x="62.208" xlink:href="#m9c8a9f0e2a" y="178.788119"/>
      </g>
     </g>
     <g id="text_5">
      <!-- 0.4 -->
      <g transform="translate(29.763 184.866869)scale(0.16 -0.16)">
       <defs>
        <path d="M 2419 4116 
L 825 1625 
L 2419 1625 
L 2419 4116 
z
M 2253 4666 
L 3047 4666 
L 3047 1625 
L 3713 1625 
L 3713 1100 
L 3047 1100 
L 3047 0 
L 2419 0 
L 2419 1100 
L 313 1100 
L 313 1709 
L 2253 4666 
z
" id="DejaVuSans-34" transform="scale(0.015625)"/>
       </defs>
       <use xlink:href="#DejaVuSans-30"/>
       <use x="63.623047" xlink:href="#DejaVuSans-2e"/>
       <use x="95.410156" xlink:href="#DejaVuSans-34"/>
      </g>
     </g>
    </g>
    <g id="ytick_4">
     <g id="line2d_71">
      <path clip-path="url(#p983c226fcc)" d="M 62.208 121.302178 
L 460.8 121.302178 
" style="fill:none;stroke:#b0b0b0;stroke-linecap:square;stroke-width:0.8;"/>
     </g>
     <g id="line2d_72">
      <g>
       <use style="stroke:#000000;stroke-width:0.8;" x="62.208" xlink:href="#m9c8a9f0e2a" y="121.302178"/>
      </g>
     </g>
     <g id="text_6">
      <!-- 0.6 -->
      <g transform="translate(29.763 127.380928)scale(0.16 -0.16)">
       <defs>
        <path d="M 2113 2584 
Q 1688 2584 1439 2293 
Q 1191 2003 1191 1497 
Q 1191 994 1439 701 
Q 1688 409 2113 409 
Q 2538 409 2786 701 
Q 3034 994 3034 1497 
Q 3034 2003 2786 2293 
Q 2538 2584 2113 2584 
z
M 3366 4563 
L 3366 3988 
Q 3128 4100 2886 4159 
Q 2644 4219 2406 4219 
Q 1781 4219 1451 3797 
Q 1122 3375 1075 2522 
Q 1259 2794 1537 2939 
Q 1816 3084 2150 3084 
Q 2853 3084 3261 2657 
Q 3669 2231 3669 1497 
Q 3669 778 3244 343 
Q 2819 -91 2113 -91 
Q 1303 -91 875 529 
Q 447 1150 447 2328 
Q 447 3434 972 4092 
Q 1497 4750 2381 4750 
Q 2619 4750 2861 4703 
Q 3103 4656 3366 4563 
z
" id="DejaVuSans-36" transform="scale(0.015625)"/>
       </defs>
       <use xlink:href="#DejaVuSans-30"/>
       <use x="63.623047" xlink:href="#DejaVuSans-2e"/>
       <use x="95.410156" xlink:href="#DejaVuSans-36"/>
      </g>
     </g>
    </g>
    <g id="ytick_5">
     <g id="line2d_73">
      <path clip-path="url(#p983c226fcc)" d="M 62.208 63.816238 
L 460.8 63.816238 
" style="fill:none;stroke:#b0b0b0;stroke-linecap:square;stroke-width:0.8;"/>
     </g>
     <g id="line2d_74">
      <g>
       <use style="stroke:#000000;stroke-width:0.8;" x="62.208" xlink:href="#m9c8a9f0e2a" y="63.816238"/>
      </g>
     </g>
     <g id="text_7">
      <!-- 0.8 -->
      <g transform="translate(29.763 69.894988)scale(0.16 -0.16)">
       <defs>
        <path d="M 2034 2216 
Q 1584 2216 1326 1975 
Q 1069 1734 1069 1313 
Q 1069 891 1326 650 
Q 1584 409 2034 409 
Q 2484 409 2743 651 
Q 3003 894 3003 1313 
Q 3003 1734 2745 1975 
Q 2488 2216 2034 2216 
z
M 1403 2484 
Q 997 2584 770 2862 
Q 544 3141 544 3541 
Q 544 4100 942 4425 
Q 1341 4750 2034 4750 
Q 2731 4750 3128 4425 
Q 3525 4100 3525 3541 
Q 3525 3141 3298 2862 
Q 3072 2584 2669 2484 
Q 3125 2378 3379 2068 
Q 3634 1759 3634 1313 
Q 3634 634 3220 271 
Q 2806 -91 2034 -91 
Q 1263 -91 848 271 
Q 434 634 434 1313 
Q 434 1759 690 2068 
Q 947 2378 1403 2484 
z
M 1172 3481 
Q 1172 3119 1398 2916 
Q 1625 2713 2034 2713 
Q 2441 2713 2670 2916 
Q 2900 3119 2900 3481 
Q 2900 3844 2670 4047 
Q 2441 4250 2034 4250 
Q 1625 4250 1398 4047 
Q 1172 3844 1172 3481 
z
" id="DejaVuSans-38" transform="scale(0.015625)"/>
       </defs>
       <use xlink:href="#DejaVuSans-30"/>
       <use x="63.623047" xlink:href="#DejaVuSans-2e"/>
       <use x="95.410156" xlink:href="#DejaVuSans-38"/>
      </g>
     </g>
    </g>
    <g id="ytick_6">
     <g id="line2d_75">
      <path clip-path="url(#p983c226fcc)" d="M 62.208 6.330297 
L 460.8 6.330297 
" style="fill:none;stroke:#b0b0b0;stroke-linecap:square;stroke-width:0.8;"/>
     </g>
     <g id="line2d_76">
      <g>
       <use style="stroke:#000000;stroke-width:0.8;" x="62.208" xlink:href="#m9c8a9f0e2a" y="6.330297"/>
      </g>
     </g>
     <g id="text_8">
      <!-- 1.0 -->
      <g transform="translate(29.763 12.409047)scale(0.16 -0.16)">
       <use xlink:href="#DejaVuSans-31"/>
       <use x="63.623047" xlink:href="#DejaVuSans-2e"/>
       <use x="95.410156" xlink:href="#DejaVuSans-30"/>
      </g>
     </g>
    </g>
    <g id="text_9">
     <!-- proportion of trials -->
     <g transform="translate(21.603625 241.61425)rotate(-90)scale(0.2 -0.2)">
      <defs>
       <path d="M 1159 525 
L 1159 -1331 
L 581 -1331 
L 581 3500 
L 1159 3500 
L 1159 2969 
Q 1341 3281 1617 3432 
Q 1894 3584 2278 3584 
Q 2916 3584 3314 3078 
Q 3713 2572 3713 1747 
Q 3713 922 3314 415 
Q 2916 -91 2278 -91 
Q 1894 -91 1617 61 
Q 1341 213 1159 525 
z
M 3116 1747 
Q 3116 2381 2855 2742 
Q 2594 3103 2138 3103 
Q 1681 3103 1420 2742 
Q 1159 2381 1159 1747 
Q 1159 1113 1420 752 
Q 1681 391 2138 391 
Q 2594 391 2855 752 
Q 3116 1113 3116 1747 
z
" id="DejaVuSans-70" transform="scale(0.015625)"/>
       <path d="M 2631 2963 
Q 2534 3019 2420 3045 
Q 2306 3072 2169 3072 
Q 1681 3072 1420 2755 
Q 1159 2438 1159 1844 
L 1159 0 
L 581 0 
L 581 3500 
L 1159 3500 
L 1159 2956 
Q 1341 3275 1631 3429 
Q 1922 3584 2338 3584 
Q 2397 3584 2469 3576 
Q 2541 3569 2628 3553 
L 2631 2963 
z
" id="DejaVuSans-72" transform="scale(0.015625)"/>
       <path d="M 1172 4494 
L 1172 3500 
L 2356 3500 
L 2356 3053 
L 1172 3053 
L 1172 1153 
Q 1172 725 1289 603 
Q 1406 481 1766 481 
L 2356 481 
L 2356 0 
L 1766 0 
Q 1100 0 847 248 
Q 594 497 594 1153 
L 594 3053 
L 172 3053 
L 172 3500 
L 594 3500 
L 594 4494 
L 1172 4494 
z
" id="DejaVuSans-74" transform="scale(0.015625)"/>
       <path d="M 603 3500 
L 1178 3500 
L 1178 0 
L 603 0 
L 603 3500 
z
M 603 4863 
L 1178 4863 
L 1178 4134 
L 603 4134 
L 603 4863 
z
" id="DejaVuSans-69" transform="scale(0.015625)"/>
       <path d="M 3513 2113 
L 3513 0 
L 2938 0 
L 2938 2094 
Q 2938 2591 2744 2837 
Q 2550 3084 2163 3084 
Q 1697 3084 1428 2787 
Q 1159 2491 1159 1978 
L 1159 0 
L 581 0 
L 581 3500 
L 1159 3500 
L 1159 2956 
Q 1366 3272 1645 3428 
Q 1925 3584 2291 3584 
Q 2894 3584 3203 3211 
Q 3513 2838 3513 2113 
z
" id="DejaVuSans-6e" transform="scale(0.015625)"/>
      </defs>
      <use xlink:href="#DejaVuSans-70"/>
      <use x="63.476562" xlink:href="#DejaVuSans-72"/>
      <use x="102.339844" xlink:href="#DejaVuSans-6f"/>
      <use x="163.521484" xlink:href="#DejaVuSans-70"/>
      <use x="226.998047" xlink:href="#DejaVuSans-6f"/>
      <use x="288.179688" xlink:href="#DejaVuSans-72"/>
      <use x="329.292969" xlink:href="#DejaVuSans-74"/>
      <use x="368.501953" xlink:href="#DejaVuSans-69"/>
      <use x="396.285156" xlink:href="#DejaVuSans-6f"/>
      <use x="457.466797" xlink:href="#DejaVuSans-6e"/>
      <use x="520.845703" xlink:href="#DejaVuSans-20"/>
      <use x="552.632812" xlink:href="#DejaVuSans-6f"/>
      <use x="613.814453" xlink:href="#DejaVuSans-66"/>
      <use x="649.019531" xlink:href="#DejaVuSans-20"/>
      <use x="680.806641" xlink:href="#DejaVuSans-74"/>
      <use x="720.015625" xlink:href="#DejaVuSans-72"/>
      <use x="761.128906" xlink:href="#DejaVuSans-69"/>
      <use x="788.912109" xlink:href="#DejaVuSans-61"/>
      <use x="850.191406" xlink:href="#DejaVuSans-6c"/>
      <use x="877.974609" xlink:href="#DejaVuSans-73"/>
     </g>
    </g>
   </g>
   <g id="line2d_77"/>
   <g id="line2d_78"/>
   <g id="line2d_79"/>
   <g id="line2d_80"/>
   <g id="line2d_81">
    <path clip-path="url(#p983c226fcc)" d="M 460.8 293.76 
L 460.8 3.456 
" style="fill:none;stroke:#000000;stroke-linecap:square;stroke-width:1.5;"/>
   </g>
   <g id="patch_3">
    <path d="M 62.208 293.76 
L 62.208 3.456 
" style="fill:none;stroke:#000000;stroke-linecap:square;stroke-linejoin:miter;stroke-width:0.8;"/>
   </g>
   <g id="patch_4">
    <path d="M 460.8 293.76 
L 460.8 3.456 
" style="fill:none;stroke:#000000;stroke-linecap:square;stroke-linejoin:miter;stroke-width:0.8;"/>
   </g>
   <g id="patch_5">
    <path d="M 62.208 293.76 
L 460.8 293.76 
" style="fill:none;stroke:#000000;stroke-linecap:square;stroke-linejoin:miter;stroke-width:0.8;"/>
   </g>
   <g id="patch_6">
    <path d="M 62.208 3.456 
L 460.8 3.456 
" style="fill:none;stroke:#000000;stroke-linecap:square;stroke-linejoin:miter;stroke-width:0.8;"/>
   </g>
   <g id="text_10">
    <!-- {f1-f5}, 20-D -->
    <g transform="translate(195.0165 24.458955)scale(0.2 -0.2)">
     <defs>
      <path d="M 3272 -594 
L 3272 -1044 
L 3078 -1044 
Q 2300 -1044 2036 -812 
Q 1772 -581 1772 109 
L 1772 856 
Q 1772 1328 1603 1509 
Q 1434 1691 991 1691 
L 800 1691 
L 800 2138 
L 991 2138 
Q 1438 2138 1605 2317 
Q 1772 2497 1772 2963 
L 1772 3713 
Q 1772 4403 2036 4633 
Q 2300 4863 3078 4863 
L 3272 4863 
L 3272 4416 
L 3059 4416 
Q 2619 4416 2484 4278 
Q 2350 4141 2350 3700 
L 2350 2925 
Q 2350 2434 2208 2212 
Q 2066 1991 1722 1913 
Q 2069 1828 2209 1606 
Q 2350 1384 2350 897 
L 2350 122 
Q 2350 -319 2484 -456 
Q 2619 -594 3059 -594 
L 3272 -594 
z
" id="DejaVuSans-7b" transform="scale(0.015625)"/>
      <path d="M 313 2009 
L 1997 2009 
L 1997 1497 
L 313 1497 
L 313 2009 
z
" id="DejaVuSans-2d" transform="scale(0.015625)"/>
      <path d="M 691 4666 
L 3169 4666 
L 3169 4134 
L 1269 4134 
L 1269 2991 
Q 1406 3038 1543 3061 
Q 1681 3084 1819 3084 
Q 2600 3084 3056 2656 
Q 3513 2228 3513 1497 
Q 3513 744 3044 326 
Q 2575 -91 1722 -91 
Q 1428 -91 1123 -41 
Q 819 9 494 109 
L 494 744 
Q 775 591 1075 516 
Q 1375 441 1709 441 
Q 2250 441 2565 725 
Q 2881 1009 2881 1497 
Q 2881 1984 2565 2268 
Q 2250 2553 1709 2553 
Q 1456 2553 1204 2497 
Q 953 2441 691 2322 
L 691 4666 
z
" id="DejaVuSans-35" transform="scale(0.015625)"/>
      <path d="M 800 -594 
L 1019 -594 
Q 1456 -594 1589 -459 
Q 1722 -325 1722 122 
L 1722 897 
Q 1722 1384 1862 1606 
Q 2003 1828 2350 1913 
Q 2003 1991 1862 2212 
Q 1722 2434 1722 2925 
L 1722 3700 
Q 1722 4144 1589 4280 
Q 1456 4416 1019 4416 
L 800 4416 
L 800 4863 
L 997 4863 
Q 1775 4863 2036 4633 
Q 2297 4403 2297 3713 
L 2297 2963 
Q 2297 2497 2465 2317 
Q 2634 2138 3078 2138 
L 3272 2138 
L 3272 1691 
L 3078 1691 
Q 2634 1691 2465 1509 
Q 2297 1328 2297 856 
L 2297 109 
Q 2297 -581 2036 -812 
Q 1775 -1044 997 -1044 
L 800 -1044 
L 800 -594 
z
" id="DejaVuSans-7d" transform="scale(0.015625)"/>
      <path d="M 750 794 
L 1409 794 
L 1409 256 
L 897 -744 
L 494 -744 
L 750 256 
L 750 794 
z
" id="DejaVuSans-2c" transform="scale(0.015625)"/>
     </defs>
     <use xlink:href="#DejaVuSans-7b"/>
     <use x="63.623047" xlink:href="#DejaVuSans-66"/>
     <use x="98.828125" xlink:href="#DejaVuSans-31"/>
     <use x="162.451172" xlink:href="#DejaVuSans-2d"/>
     <use x="198.535156" xlink:href="#DejaVuSans-66"/>
     <use x="233.740234" xlink:href="#DejaVuSans-35"/>
     <use x="297.363281" xlink:href="#DejaVuSans-7d"/>
     <use x="360.986328" xlink:href="#DejaVuSans-2c"/>
     <use x="392.773438" xlink:href="#DejaVuSans-20"/>
     <use x="424.560547" xlink:href="#DejaVuSans-32"/>
     <use x="488.183594" xlink:href="#DejaVuSans-30"/>
     <use x="551.806641" xlink:href="#DejaVuSans-2d"/>
     <use x="587.890625" xlink:href="#DejaVuSans-44"/>
    </g>
   </g>
   <g id="text_11">
    <!-- absolute targets -->
    <g transform="translate(62.208 307.365006)scale(0.14 -0.14)">
     <defs>
      <path d="M 3116 1747 
Q 3116 2381 2855 2742 
Q 2594 3103 2138 3103 
Q 1681 3103 1420 2742 
Q 1159 2381 1159 1747 
Q 1159 1113 1420 752 
Q 1681 391 2138 391 
Q 2594 391 2855 752 
Q 3116 1113 3116 1747 
z
M 1159 2969 
Q 1341 3281 1617 3432 
Q 1894 3584 2278 3584 
Q 2916 3584 3314 3078 
Q 3713 2572 3713 1747 
Q 3713 922 3314 415 
Q 2916 -91 2278 -91 
Q 1894 -91 1617 61 
Q 1341 213 1159 525 
L 1159 0 
L 581 0 
L 581 4863 
L 1159 4863 
L 1159 2969 
z
" id="DejaVuSans-62" transform="scale(0.015625)"/>
      <path d="M 544 1381 
L 544 3500 
L 1119 3500 
L 1119 1403 
Q 1119 906 1312 657 
Q 1506 409 1894 409 
Q 2359 409 2629 706 
Q 2900 1003 2900 1516 
L 2900 3500 
L 3475 3500 
L 3475 0 
L 2900 0 
L 2900 538 
Q 2691 219 2414 64 
Q 2138 -91 1772 -91 
Q 1169 -91 856 284 
Q 544 659 544 1381 
z
M 1991 3584 
L 1991 3584 
z
" id="DejaVuSans-75" transform="scale(0.015625)"/>
      <path d="M 3597 1894 
L 3597 1613 
L 953 1613 
Q 991 1019 1311 708 
Q 1631 397 2203 397 
Q 2534 397 2845 478 
Q 3156 559 3463 722 
L 3463 178 
Q 3153 47 2828 -22 
Q 2503 -91 2169 -91 
Q 1331 -91 842 396 
Q 353 884 353 1716 
Q 353 2575 817 3079 
Q 1281 3584 2069 3584 
Q 2775 3584 3186 3129 
Q 3597 2675 3597 1894 
z
M 3022 2063 
Q 3016 2534 2758 2815 
Q 2500 3097 2075 3097 
Q 1594 3097 1305 2825 
Q 1016 2553 972 2059 
L 3022 2063 
z
" id="DejaVuSans-65" transform="scale(0.015625)"/>
     </defs>
     <use xlink:href="#DejaVuSans-61"/>
     <use x="61.279297" xlink:href="#DejaVuSans-62"/>
     <use x="124.755859" xlink:href="#DejaVuSans-73"/>
     <use x="176.855469" xlink:href="#DejaVuSans-6f"/>
     <use x="238.037109" xlink:href="#DejaVuSans-6c"/>
     <use x="265.820312" xlink:href="#DejaVuSans-75"/>
     <use x="329.199219" xlink:href="#DejaVuSans-74"/>
     <use x="368.408203" xlink:href="#DejaVuSans-65"/>
     <use x="429.931641" xlink:href="#DejaVuSans-20"/>
     <use x="461.71875" xlink:href="#DejaVuSans-74"/>
     <use x="500.927734" xlink:href="#DejaVuSans-61"/>
     <use x="562.207031" xlink:href="#DejaVuSans-72"/>
     <use x="601.570312" xlink:href="#DejaVuSans-67"/>
     <use x="665.046875" xlink:href="#DejaVuSans-65"/>
     <use x="726.570312" xlink:href="#DejaVuSans-74"/>
     <use x="765.779297" xlink:href="#DejaVuSans-73"/>
    </g>
   </g>
   <g id="text_12">
    <!-- v2.4 -->
    <g style="fill:#808080;" transform="translate(250.593063 288.777272)scale(0.1 -0.1)">
     <use xlink:href="#DejaVuSans-76"/>
     <use x="59.179688" xlink:href="#DejaVuSans-32"/>
     <use x="122.802734" xlink:href="#DejaVuSans-2e"/>
     <use x="154.589844" xlink:href="#DejaVuSans-34"/>
    </g>
   </g>
   <g id="legend_1">
    <g id="patch_7">
     <path d="M 76.208 136.881 
L 205.429875 136.881 
Q 209.429875 136.881 209.429875 132.881 
L 209.429875 17.456 
Q 209.429875 13.456 205.429875 13.456 
L 76.208 13.456 
Q 72.208 13.456 72.208 17.456 
L 72.208 132.881 
Q 72.208 136.881 76.208 136.881 
z
" style="fill:#ffffff;opacity:0.2;stroke:#cccccc;stroke-linejoin:miter;"/>
    </g>
    <g id="line2d_82">
     <path d="M 80.208 29.652875 
L 120.208 29.652875 
" style="fill:none;stroke:#000000;stroke-linecap:square;stroke-width:1.5;"/>
    </g>
    <g id="line2d_83"/>
    <g id="text_13">
     <!-- 1: 0/5 -->
     <g transform="translate(136.208 36.652875)scale(0.2 -0.2)">
      <defs>
       <path d="M 750 794 
L 1409 794 
L 1409 0 
L 750 0 
L 750 794 
z
M 750 3309 
L 1409 3309 
L 1409 2516 
L 750 2516 
L 750 3309 
z
" id="DejaVuSans-3a" transform="scale(0.015625)"/>
      </defs>
      <use xlink:href="#DejaVuSans-31"/>
      <use x="63.623047" xlink:href="#DejaVuSans-3a"/>
      <use x="97.314453" xlink:href="#DejaVuSans-20"/>
      <use x="129.101562" xlink:href="#DejaVuSans-30"/>
      <use x="192.724609" xlink:href="#DejaVuSans-2f"/>
      <use x="226.416016" xlink:href="#DejaVuSans-35"/>
     </g>
    </g>
    <g id="line2d_84">
     <path d="M 80.208 59.009125 
L 120.208 59.009125 
" style="fill:none;stroke:#00bfbf;stroke-linecap:square;stroke-width:1.5;"/>
    </g>
    <g id="line2d_85"/>
    <g id="text_14">
     <!-- -1: 0/5 -->
     <g transform="translate(136.208 66.009125)scale(0.2 -0.2)">
      <use xlink:href="#DejaVuSans-2d"/>
      <use x="36.083984" xlink:href="#DejaVuSans-31"/>
      <use x="99.707031" xlink:href="#DejaVuSans-3a"/>
      <use x="133.398438" xlink:href="#DejaVuSans-20"/>
      <use x="165.185547" xlink:href="#DejaVuSans-30"/>
      <use x="228.808594" xlink:href="#DejaVuSans-2f"/>
      <use x="262.5" xlink:href="#DejaVuSans-35"/>
     </g>
    </g>
    <g id="line2d_86">
     <path d="M 80.208 88.365375 
L 120.208 88.365375 
" style="fill:none;stroke:#bf00bf;stroke-linecap:square;stroke-width:1.5;"/>
    </g>
    <g id="line2d_87"/>
    <g id="text_15">
     <!-- -4: 0/5 -->
     <g transform="translate(136.208 95.365375)scale(0.2 -0.2)">
      <use xlink:href="#DejaVuSans-2d"/>
      <use x="36.083984" xlink:href="#DejaVuSans-34"/>
      <use x="99.707031" xlink:href="#DejaVuSans-3a"/>
      <use x="133.398438" xlink:href="#DejaVuSans-20"/>
      <use x="165.185547" xlink:href="#DejaVuSans-30"/>
      <use x="228.808594" xlink:href="#DejaVuSans-2f"/>
      <use x="262.5" xlink:href="#DejaVuSans-35"/>
     </g>
    </g>
    <g id="line2d_88">
     <path d="M 80.208 117.721625 
L 120.208 117.721625 
" style="fill:none;stroke:#ff0000;stroke-linecap:square;stroke-width:3;"/>
    </g>
    <g id="line2d_89"/>
    <g id="text_16">
     <!-- -8: 0/5 -->
     <g transform="translate(136.208 124.721625)scale(0.2 -0.2)">
      <use xlink:href="#DejaVuSans-2d"/>
      <use x="36.083984" xlink:href="#DejaVuSans-38"/>
      <use x="99.707031" xlink:href="#DejaVuSans-3a"/>
      <use x="133.398438" xlink:href="#DejaVuSans-20"/>
      <use x="165.185547" xlink:href="#DejaVuSans-30"/>
      <use x="228.808594" xlink:href="#DejaVuSans-2f"/>
      <use x="262.5" xlink:href="#DejaVuSans-35"/>
     </g>
    </g>
   </g>
  </g>
 </g>
 <defs>
  <clipPath id="p983c226fcc">
   <rect height="290.304" width="398.592" x="62.208" y="3.456"/>
  </clipPath>
 </defs>
</svg>
